<?xml version="1.0" standalone="no"?>
<!DOCTYPE svg PUBLIC "-//W3C//DTD SVG 1.1//EN" "http://www.w3.org/Graphics/SVG/1.1/DTD/svg11.dtd" >
<svg xmlns="http://www.w3.org/2000/svg">
<metadata></metadata>
<defs>
<font id="market-regularmedium" horiz-adv-x="1044" >
<font-face units-per-em="2048" ascent="1638" descent="-410" />
<missing-glyph horiz-adv-x="503" />
<glyph horiz-adv-x="2048" />
<glyph horiz-adv-x="2048" />
<glyph unicode="&#xd;" horiz-adv-x="503" />
<glyph unicode=" "  horiz-adv-x="503" />
<glyph unicode="&#x09;" horiz-adv-x="503" />
<glyph unicode="&#xa0;" horiz-adv-x="503" />
<glyph unicode="!" horiz-adv-x="655" d="M217 104q0 -14 5 -35.5t14.5 -42t20.5 -35t24 -14.5q37 0 53 1.5t26 1.5q25 0 40.5 25.5t25.5 53.5q10 29 12 46.5t2 31.5q0 10 -6 19.5t-22 11.5q-20 2 -36 8t-30 14.5t-30.5 14.5t-36.5 6q-29 0 -33 -19.5t-10 -29.5q-10 -18 -14.5 -29.5t-4.5 -28.5zM360 483 q0 -10 7.5 -18t17.5 -16.5t19.5 -20.5t13.5 -33q2 -8 11 -16t32 -8q16 0 26 24q35 78 61.5 157t50.5 159t46.5 161.5t48.5 165.5q14 45 39 90.5t25 102.5q0 14 -15 29.5t-38 21.5q-12 4 -18.5 14.5t-27.5 14.5q-14 4 -23 11t-22 7q-23 0 -38 -16.5t-25 -41t-15.5 -53 t-9.5 -53.5q-12 -76 -28.5 -144.5t-35 -135t-36.5 -135t-37 -142.5q-6 -27 -9 -43t-13 -45q-4 -12 -5.5 -19t-1.5 -18z" />
<glyph unicode="&#x22;" horiz-adv-x="716" d="M328 838q0 -12 18.5 -31t28.5 -19q16 0 33.5 -7t33.5 -7q12 0 34 12.5t26 28.5l65 281q16 72 33.5 128t17.5 79q0 18 -9 35.5t-48 23.5q-27 4 -38 16.5t-27 12.5q-29 0 -39.5 -10.5t-12.5 -30.5q-4 -37 -10 -77t-18 -93l-72 -289q-4 -18 -10 -26.5t-6 -26.5zM641 823 q0 -8 4 -16q16 -33 43 -41q16 -6 28.5 -9t41.5 -3q6 0 22.5 10t20.5 24l73 289q2 8 11.5 34t18.5 58.5t16.5 64.5t7.5 50q0 23 -13.5 33t-33.5 35q-14 16 -35 19t-39 3q-29 0 -39 -9t-10 -28q0 -4 -3 -23.5t-8.5 -47t-12.5 -60t-15 -65.5l-49 -197q-2 -10 -7.5 -29.5 t-9.5 -39t-8 -35t-4 -17.5z" />
<glyph unicode="#" horiz-adv-x="1331" d="M135 369q0 -31 31 -31q16 0 33.5 2t41 4t55.5 4t77 2q18 0 18 -12q0 -8 -10 -33l-43 -108q-29 -70 -45.5 -104t-24.5 -54q-16 -41 -16 -68q0 -14 8 -28.5t33 -14.5q23 0 29 -5t36 -5q16 0 32 33t48 102q31 66 57.5 131.5t55.5 132.5q10 23 18.5 27t22.5 4q4 0 26.5 1 t48 3t48 3t26.5 1q18 0 19 -12q0 -8 -10 -33l-78 -198q-4 -14 -15.5 -29.5t-21.5 -44.5q-6 -16 -11.5 -33.5t-5.5 -34.5q0 -14 12.5 -21t28.5 -22q8 -6 29 -8t37 -2t33.5 35t46.5 100q37 86 64.5 147.5t54.5 133.5q10 25 18 31t25 6q12 0 44.5 1t55.5 1q20 0 68.5 -3 t103.5 -3q12 0 23.5 10t13.5 26q2 18 9 29.5t7 34.5q0 10 -8 11t-14 24q0 2 -10.5 5t-24.5 5t-28.5 3t-22.5 1h-168q-18 0 -19 12q0 8 11 33q25 66 53 131q10 23 17 27t20 4q14 0 37.5 1t50.5 1t52.5 1t43.5 1h68q4 0 15 7t21 34q2 8 8.5 12t11.5 8.5t9 10.5t4 16t-5 26.5 t-9 26.5q-2 6 -19.5 7.5t-58.5 1.5q-20 0 -47 -1.5t-52.5 -3.5t-46 -3t-26.5 -1q-18 0 -18 11q0 8 10 34q2 8 12 32t23.5 53.5t28 58t24.5 51.5q8 16 27.5 47t40.5 59q6 8 8 15.5t2 30.5q0 12 -13.5 22t-25.5 18q-10 8 -33.5 15.5t-44.5 7.5q-45 0 -47 -18 q-4 -29 -22.5 -56.5t-34.5 -70.5l-109 -273q-10 -29 -18.5 -36t-30.5 -7q-6 0 -28.5 -1t-47 -2t-46 -2t-26.5 -1q-6 0 -12 3t-6 9q0 8 10 33q29 66 54.5 125t50.5 111q8 16 20 32.5t33 44.5q6 8 8 15.5t2 30.5q0 12 -12 31.5t-37 19.5q-16 0 -28.5 6t-22.5 6q-8 0 -26.5 -3 t-35.5 -20q-10 -10 -25.5 -43.5t-31.5 -78.5l-111 -281q-10 -27 -20 -36t-39 -9q-51 0 -77.5 1t-45 2t-39 2t-57.5 1q-16 0 -34.5 -11t-22.5 -40q-2 -16 -12.5 -39t-10.5 -33q0 -20 14.5 -26.5t69.5 -6.5q20 0 34.5 1.5t32 2.5t42 2t65.5 1q18 0 19 -13q0 -6 -3.5 -13 t-7.5 -19l-53 -127q-10 -20 -19.5 -31.5t-39.5 -11.5h-62h-63q-31 0 -55.5 -1t-30.5 -1q-16 -2 -25.5 -6.5t-23.5 -22.5q-10 -14 -12.5 -21.5t-2.5 -13.5t3 -10t3 -10q0 -4 -4 -13q-4 -6 -4 -14v-12zM629 512q0 8 10 33l49 129q10 25 16.5 30t26.5 5q8 0 31.5 1t49.5 2 t46.5 2t22.5 1q18 0 18 -13q0 -6 -3 -15t-7 -17l-49 -123q-10 -25 -17.5 -32t-25.5 -7q-4 0 -25.5 -2t-46.5 -3t-48.5 -3t-29.5 -2q-18 0 -18 14z" />
<glyph unicode="$" horiz-adv-x="946" d="M41 397q0 -55 12.5 -91t30.5 -59.5t38.5 -41t37.5 -37.5q25 -31 60.5 -62.5t82.5 -56.5q16 -8 16 -20q0 -4 -4 -17q-16 -49 -27.5 -81.5t-11.5 -59.5q0 -20 7.5 -34.5t23.5 -14.5q27 0 38 -5t38 -5q8 0 21.5 4t25.5 12t20.5 21.5t8.5 31.5q0 4 1 16.5t2 26t2 26.5t1 17 q2 10 5 12.5t7 2.5q8 0 43 -9.5t98 -9.5q57 0 95.5 8.5t46.5 12.5q55 33 90 80t35 110q0 57 -9.5 108.5t-25.5 99.5t-39 97t-47 105l-53 116q-12 25 -13 35q0 12 8.5 41t21.5 67t28.5 80t27.5 83q10 35 18.5 60.5t18.5 51.5q6 16 13 17q10 0 22 -19q12 -18 15 -24.5 t4.5 -11.5t5.5 -10t18 -19t27.5 -34t42.5 -20q10 0 18 -5t19 -5q8 0 12 4q10 10 25.5 17.5t29.5 21.5q20 20 21 43q0 12 -7 23q-10 14 -53 68.5t-131 105.5q-14 8 -14 18q0 6 8 19.5t19.5 29t19.5 30.5t8 28q0 18 10.5 36.5t10.5 38.5t-28 28.5t-40 8.5t-29.5 -1t-33 -5 t-27.5 -10t-14 -18q-2 -20 -33 -107q-6 -23 -25 -23q-8 0 -31.5 6.5t-62.5 6.5q-88 0 -139 -43q-25 -20 -47.5 -41t-39 -47.5t-26.5 -61.5t-10 -84q0 -70 33.5 -153.5t91.5 -210.5q16 -37 16 -53q0 -8 -2 -18.5t-6 -20.5q-33 -111 -69.5 -219.5t-59.5 -194.5q-6 -20 -10 -21 q-10 0 -25 11q-18 14 -33.5 30.5t-23.5 26.5q-14 20 -20.5 39.5t-6.5 26.5q0 16 1 23t3 12t3 11.5t1 18.5q0 23 -28.5 40t-50.5 24q-16 4 -26.5 9t-33.5 5q-8 0 -20.5 -1t-24.5 -3q-16 -2 -31.5 -26.5t-15.5 -37.5zM508 119q0 4 2 16t6 23q6 14 15.5 44.5t20.5 68.5t25.5 82 t28.5 85q10 27 11 31t6 4q4 0 7 -3t7 -13q31 -72 49.5 -140.5t18.5 -146.5q0 -43 -29 -61.5t-72 -18.5q-51 0 -73.5 10.5t-22.5 18.5zM543 1096q0 61 19.5 96t66.5 35q29 0 49 -8.5t20 -16.5q0 -4 -1 -10t-5 -18q-20 -55 -39.5 -109.5t-36.5 -114.5q-8 -29 -12 -28 q-10 0 -20 28q-18 49 -29.5 86t-11.5 60z" />
<glyph unicode="%" horiz-adv-x="1597" d="M311 924q0 -43 14.5 -79t41.5 -71q35 -47 84 -84t135 -37q63 0 107 32t79 75q66 80 99.5 176t33.5 192v17q0 4 6 4q4 0 36 -5t54 -5h43t31 4q33 6 43 6q6 0 6 -8t-8 -19q-84 -131 -150.5 -236.5t-127 -204.5t-123 -200.5t-135.5 -222.5q-29 -47 -41.5 -62.5t-19.5 -19.5 t-16 -11t-30 -40q-10 -16 -22.5 -24.5t-16.5 -10.5q-10 -4 -14 -13t-4 -48q0 -31 4 -41.5t14 -18.5q12 -10 33.5 -17t34.5 -7q10 0 30.5 4t34.5 24q20 29 55 82.5t64 98.5l574 907q39 59 61 86t43 43q18 14 26.5 28.5t8.5 63.5q0 23 -7.5 32t-25.5 21q-16 12 -33.5 15.5 t-42.5 3.5q-10 0 -19 -8.5t-16 -16.5q-31 -39 -101.5 -50t-164.5 -11q-25 0 -68.5 7t-121.5 30q-16 4 -33.5 14t-22.5 14q-4 4 -24.5 13.5t-61.5 9.5q-47 0 -87 -16.5t-73.5 -43t-60 -60.5t-45.5 -69q-41 -82 -60.5 -140t-19.5 -103zM473 897q0 61 37 144t100 169 q14 18 26.5 24.5t31.5 6.5q20 0 25 -7t6 -16.5t6.5 -18.5t23.5 -15q10 -4 15.5 -20.5t5.5 -33.5q0 -31 -4.5 -59.5t-16.5 -62t-33.5 -77.5t-58.5 -106q-23 -39 -38 -51t-38 -12q-29 0 -46 12t-26.5 31.5t-12.5 44t-3 47.5zM924 195q0 -37 20.5 -77t54.5 -79 q39 -43 92.5 -54.5t96.5 -11.5q86 0 135 31t78 74q55 86 86 170t31 188q0 49 -22.5 95.5t-68.5 68.5q-35 18 -76.5 37.5t-101.5 19.5q-41 0 -72.5 -10t-59 -31.5t-54.5 -57.5t-57 -87q-41 -72 -61.5 -137.5t-20.5 -138.5zM1087 174q0 74 35 158t101 182q16 25 27.5 31 t29.5 6q25 0 31 -18.5t24 -26.5q10 -4 18.5 -22.5t8.5 -34.5q0 -59 -28.5 -130t-92.5 -196q-12 -25 -33.5 -40t-50.5 -15q-25 0 -39 13t-21 31.5t-8.5 36t-1.5 25.5z" />
<glyph unicode="&#x26;" horiz-adv-x="1081" d="M127 215q0 -33 11.5 -55.5t23.5 -36.5q20 -23 40.5 -58.5t65.5 -50.5q23 -8 46.5 -11t62.5 -3q14 0 37.5 3t49 7t50.5 9.5t41 9.5q23 6 57.5 21.5t67.5 31.5q18 10 29 10q8 0 18 -24q4 -16 11 -27.5t12 -28.5q2 -10 23.5 -25.5t45.5 -15.5q16 0 18.5 4.5t10.5 4.5 q14 0 28.5 -6.5t28.5 -6.5t15 17q0 12 -15 47q-12 31 -21.5 56.5t-19.5 53.5q-4 10 -4 25q0 8 5 13t22 16q31 18 47 30.5t25.5 19.5t16.5 13t19 12q33 16 45.5 39t12.5 70q0 29 -2 40t-7 25q-4 14 -9 16.5t-19 2.5q-12 0 -23.5 -3t-34.5 -20q-18 -10 -32.5 -20t-34.5 -27 q-14 -10 -26.5 -22.5t-35.5 -30.5q-16 -14 -22 -14q-4 0 -7 2t-7 16q-25 76 -48.5 145.5t-46.5 149.5q-8 27 -8 33q0 14 19 33q92 92 148 154.5t71 103.5q16 47 25.5 82.5t9.5 68.5q0 35 -17.5 61.5t-46.5 49.5q-12 10 -21.5 22.5t-29.5 22.5q-23 12 -50.5 14t-56.5 2 q-78 0 -150.5 -62.5t-101.5 -195.5q-4 -20 -7 -46t-3 -48q0 -8 3.5 -58.5t23.5 -144.5q0 -8 -1 -13t-7 -13q-4 -4 -20.5 -19.5t-39 -35t-46 -41t-38.5 -38.5q-66 -63 -117 -122.5t-92 -145.5q-10 -23 -14 -47.5t-4 -40.5zM299 195q0 20 7 41.5t17.5 40t21.5 34t20 25.5 q23 29 52 68.5t64 74.5q47 47 59.5 56.5t16.5 9.5t6 -2t6 -17l80 -245q4 -16 7 -24.5t3 -12.5q0 -8 -4 -11.5t-22 -11.5q-96 -43 -166 -59.5t-94 -16.5q-35 0 -54.5 11.5t-19.5 38.5zM627 952q0 61 19.5 94t39.5 68q12 18 27.5 29.5t31 17.5t27.5 8t16 2q16 0 25.5 -12 t9.5 -29q0 -12 -5 -26t-11 -29q-4 -10 -9 -29.5t-18 -41.5q-20 -39 -50.5 -76t-65.5 -72q-14 -14 -21 -14q-8 0 -10 26q-4 25 -5 43.5t-1 40.5z" />
<glyph unicode="'" horiz-adv-x="475" d="M356 844q0 -14 18.5 -36t28.5 -22q20 0 40 -8t30 -8q14 0 36.5 15.5t27.5 31.5l49 234q16 84 38.5 145t22.5 94q0 20 -8 40t-49 28q-16 4 -30.5 19.5t-39.5 15.5q-35 0 -43 -12.5t-10 -34.5q-4 -45 -11.5 -91.5t-21.5 -105.5l-59 -244q-4 -23 -11.5 -31t-7.5 -30z" />
<glyph unicode="(" horiz-adv-x="675" d="M223 117q0 -35 5 -84t15.5 -93t28 -77t39.5 -35q12 -2 28.5 -13.5t27.5 -11.5q27 0 41 11.5t21 26t8 29.5t1 26q0 20 -8 35.5t-18.5 30.5t-20.5 32.5t-14 40.5q-2 10 -4 28.5t-3 38t-1 35.5v27q0 127 29.5 271.5t84.5 279.5q16 39 45 98t66 127t80 136.5t88 125.5 q25 31 38 37t42 6q43 0 53 33q4 14 9 34.5t9.5 41t7.5 37t3 22.5q0 8 -4.5 23.5t-12.5 30t-21.5 24.5t-31.5 10q-16 0 -28.5 -3t-26.5 -17q-16 -16 -25.5 -22.5t-17.5 -10.5t-15.5 -9.5t-17.5 -17.5q-98 -121 -175 -245.5t-132.5 -242.5t-90 -219.5t-53.5 -170.5 q-27 -106 -38 -204.5t-11 -221.5z" />
<glyph unicode=")" horiz-adv-x="675" d="M-2 -74q0 -16 14.5 -32.5t14.5 -40.5q0 -14 20.5 -28.5t42.5 -14.5q16 0 28.5 3t33.5 19q104 80 184 171t145 194q68 104 114 218.5t74.5 233.5t41 235.5t12.5 221.5q0 29 -2 89t-8 116q-8 76 -17.5 103.5t-19.5 39.5q-14 16 -37 31.5t-51 15.5q-18 0 -29.5 -5t-19 -12 t-14.5 -13.5t-17 -8.5q-12 -4 -16.5 -13t-4.5 -34q0 -23 6.5 -36t14.5 -24.5t16.5 -24.5t14.5 -36q2 -10 5 -35.5t5 -63.5t4 -85t2 -96q0 -166 -29.5 -320.5t-115.5 -316.5q-35 -66 -60.5 -109t-48 -75.5t-47.5 -58t-55 -56.5q-23 -23 -33 -29t-21 -6q-23 0 -84 -61 q-14 -14 -38.5 -24.5t-24.5 -31.5z" />
<glyph unicode="*" horiz-adv-x="847" d="M299 1008q0 -10 2 -19.5t14 -17.5q8 -6 29 -8q45 -6 72 -7q27 0 71 -2q35 -2 45.5 -3t10.5 -5t-3 -9t-8 -9q-29 -41 -56 -83t-62 -93q-4 -8 -9.5 -13.5t-5.5 -15.5q0 -18 23.5 -32.5t38.5 -14.5q29 0 40 2t19 6q23 12 32 22.5t15 24.5q16 39 28.5 56.5t31.5 48.5 q18 31 21 36t7 5t6.5 -4.5t16.5 -30.5q45 -84 67.5 -115t30.5 -41q12 -16 29 -16q20 0 37 20q8 10 25.5 23.5t17.5 29.5q0 31 -21 48q-6 4 -17 21t-22.5 38.5t-22.5 41t-18 28.5q-8 10 -10 15t-2 7q0 6 27 8q16 2 64 11.5t95 9.5q6 0 18.5 1t37.5 1q14 0 22 10t13 16 q4 12 10 21.5t6 23.5q0 16 -4 17q-2 0 -2 20q0 10 -11.5 18.5t-52.5 8.5q-4 0 -23.5 -2t-44 -6t-50 -8.5t-41.5 -8.5q-12 -4 -19 -4h-8t-4 4q0 2 3 7.5t17 21.5q20 25 39 48.5t41 45.5q10 12 21.5 21.5t34.5 38.5q10 12 16 25.5t6 23.5q0 12 -13.5 17t-23.5 9 q-8 4 -19.5 5.5t-19.5 1.5h-41q-18 0 -33.5 -14.5t-37.5 -49.5q-4 -6 -15.5 -20.5t-25 -30.5t-25.5 -31.5t-18 -25.5q-10 -16 -15.5 -21.5t-9.5 -5.5t-6 6t-8 29l-8.5 25.5t-8.5 27.5q-4 20 -10 45t-16 47q-4 12 -11.5 28.5t-23.5 16.5t-21.5 -2t-21.5 -18 q-6 -6 -23.5 -14.5t-27.5 -22.5q-8 -10 -8 -25q0 -27 28 -82q12 -25 21.5 -51t19.5 -53q4 -12 4 -16q0 -6 -4 -7q-2 0 -15.5 1t-29.5 3q-20 2 -65 4.5t-72 6.5q-10 2 -10 4t-15 2q-8 0 -17 -3t-15 -14q-4 -6 -9.5 -10t-5.5 -12q0 -14 -4 -22.5t-4 -34.5z" />
<glyph unicode="+" horiz-adv-x="1208" d="M233 586q0 -49 10.5 -80t26.5 -37q8 -4 31 -7t51.5 -6t58 -5t52.5 -2h78q10 0 10 -13l-14 -63q-10 -43 -19.5 -75t-19 -62.5t-14.5 -62.5t-5 -73q0 -6 11.5 -17t46.5 -11q6 0 17 6t19 6q45 0 55.5 16.5t14.5 46.5q14 90 33.5 173t36.5 129q4 14 22 16q14 2 44 5t67 6 t79 7t79 9q12 2 29.5 3t29.5 1q8 0 15 -2t16 -2q12 0 20 20t17.5 39.5t9.5 42.5q0 10 -1 14t-7 10q-29 29 -76 29q-12 0 -44 -3t-69 -8t-70.5 -8t-48.5 -3h-22q-11 0 -23 -2q-8 0 -8 8q10 31 17.5 55.5t14.5 48l14 47t18 54.5l22 71q2 6 5 14.5t3 12.5q0 10 -10 20 q-4 4 -23.5 8.5t-31.5 4.5q-14 0 -31.5 -8.5t-54.5 -18.5q-10 -4 -21.5 -28.5t-25.5 -84.5q-2 -10 -10.5 -36.5t-17.5 -58.5t-18.5 -61.5t-15.5 -45.5q-4 -14 -49 -15h-55h-39q-25 0 -52.5 2t-54 4t-39.5 7q-10 4 -16 4h-12q-20 0 -37 -15q-18 -14 -19 -26z" />
<glyph unicode="," horiz-adv-x="532" d="M-29 -262q0 -10 11.5 -28.5t23.5 -18.5q6 0 20.5 -3t18.5 -5q18 -6 39 -7q4 0 21.5 12.5t27.5 28.5l266 406q6 8 7 18q0 25 -12.5 35t-31.5 39q-29 41 -67 41q-29 0 -41 -8t-27 -35l-24.5 -49t-29.5 -57.5t-28.5 -53.5t-19.5 -35l-139 -239q-10 -18 -12.5 -27.5 t-2.5 -13.5z" />
<glyph unicode="-" horiz-adv-x="933" d="M242 594q0 -14 4 -27.5t8 -25.5q10 -27 21.5 -42.5t25.5 -15.5t47 -3t76 -6t91 -5t95 -2h39q23 0 43.5 1t36.5 2t25 3q37 10 69.5 12.5t42.5 12.5q20 20 24.5 41.5t4.5 68.5q0 37 -76 37q-29 0 -75 -4t-78 -4q-92 0 -172 4t-172 4q-14 0 -40 -5t-34 -19q-6 -12 -6 -27z " />
<glyph unicode="." horiz-adv-x="581" d="M193 106q0 -8 3 -20t13 -27q27 -41 56.5 -56t45.5 -15q23 0 41.5 2t34.5 16q14 10 23.5 24.5t19.5 41.5q4 14 10 41t6 39q0 10 -3 22t-13 33q-12 23 -42 43t-64 20q-27 0 -42.5 -3t-25.5 -13q-18 -20 -20 -51q-4 -33 -27 -56q-6 -6 -11 -18t-5 -23z" />
<glyph unicode="/" horiz-adv-x="819" d="M27 -88q0 -18 11 -30.5t34 -26.5q16 -10 28.5 -12.5t36.5 -2.5q10 0 49 49.5t90 137.5q76 131 163 287.5t177.5 314t178.5 304t166 261.5q14 20 31.5 31.5t51.5 48.5q16 16 21.5 28t5.5 35q0 12 -11 27.5t-27.5 28t-33 21.5t-28.5 9q-10 0 -28.5 -7t-35.5 -19 q-4 -4 -18.5 -20.5t-33.5 -41t-39.5 -52.5t-35.5 -54l-647 -1120q-14 -23 -36.5 -53.5t-33.5 -49.5q-16 -29 -26 -56.5t-10 -37.5z" />
<glyph unicode="0" horiz-adv-x="901" d="M123 289q0 -61 13.5 -111.5t17.5 -56.5q20 -43 58 -77t78 -58.5t76.5 -38t55.5 -13.5q70 0 153.5 53.5t145.5 149.5q55 86 87 143.5t49 95.5t24.5 59.5t13.5 35.5q37 94 65.5 192.5t28.5 202.5q0 63 -11 120.5t-38 109.5q-8 16 -30.5 31.5t-47 27.5t-45 19.5t-26.5 7.5 q-20 0 -21.5 -5.5t-13.5 -5.5q-14 0 -41 17q-25 16 -37 21t-27 5q-31 0 -52 -2t-32 -14q-100 -117 -186 -231.5t-145 -243.5q-27 -55 -47.5 -117.5t-35 -121t-22.5 -109.5t-8 -86zM276 238q0 43 9.5 82.5t19.5 80.5q4 14 6 36t21 69q59 158 146 295t192 256q20 23 43 22 q20 0 40.5 -14t37 -35.5t25.5 -49t9 -54.5q0 -74 -14 -139.5t-35.5 -128t-49.5 -124t-54 -124.5q-10 -27 -27.5 -51.5t-28.5 -43.5q-45 -76 -83.5 -123t-70.5 -73.5t-57.5 -36.5t-44.5 -10q-27 0 -41 22.5t-22 32.5q-4 6 -7 21.5t-6 34t-5.5 33.5t-2.5 22z" />
<glyph unicode="1" horiz-adv-x="901" d="M45 385q0 -4 5 -16.5t26 -34.5q6 -8 18 -15.5t23 -13.5l9 -9t28 -5q16 0 32.5 3t22.5 13q4 6 13 15.5t29.5 28t54.5 53t86 93t127 144.5t177 211q10 10 12.5 12t6.5 2q6 0 6 -10q0 -4 -2 -17.5t-6 -23.5q-35 -152 -76 -304.5t-80 -303.5q-8 -31 -20.5 -52.5t-20.5 -62.5 q-4 -16 -7 -37.5t-3 -40.5q0 -25 8 -32q33 -29 92 -29q14 0 23.5 3t29.5 3q16 0 26.5 11.5t16 26.5t7.5 29.5t2 22.5q0 41 8 72t14 55q66 264 129.5 527.5t161.5 510.5q6 14 6 27q0 10 -4 19q-16 35 -54 48t-75 13q-23 0 -28 -4t-13 -21q-4 -8 -22.5 -35.5t-42 -61.5 t-48 -66.5t-41.5 -53.5q-100 -123 -204.5 -242.5t-198.5 -224.5q-29 -31 -46 -46t-37.5 -28.5t-49.5 -36t-78 -67.5q-43 -41 -43 -49z" />
<glyph unicode="2" horiz-adv-x="901" d="M45 129q0 -33 18.5 -64.5t59.5 -66.5q18 -14 56 -22.5t87 -11.5t103.5 -4t105.5 -1q92 0 155.5 3t104.5 10.5t65.5 18.5t39.5 29q12 14 25.5 47t23.5 68t17 65.5t7 43.5q0 23 -10 32q-20 18 -32.5 27.5t-28.5 9.5q-29 0 -52.5 -6t-35.5 -22q-25 -33 -34 -66t-42 -65 q-35 -35 -84 -44.5t-143 -9.5q-47 0 -87 2t-57 11q-27 12 -26 22q0 4 3 10.5t17 24.5q45 59 112.5 127t143.5 141.5t152.5 154.5t137 169t98.5 183t38 196q0 23 -22.5 52.5t-54.5 56t-66.5 45t-59.5 18.5q-41 0 -72.5 -2t-60.5 -8.5t-57.5 -19.5t-63.5 -34 q-59 -35 -102 -65.5t-82 -81.5q-18 -25 -28.5 -39t-15.5 -24.5t-6 -21.5t-1 -32q0 -25 9 -41t21.5 -27.5t22.5 -16.5t12 -5q8 0 19.5 4t27.5 4q23 0 37.5 9.5t24.5 31.5q10 23 33.5 44.5t23.5 27.5q0 12 24.5 39.5t61.5 57.5t80 51.5t80 21.5q23 0 37 -5t14 -26 q0 -47 -23.5 -112.5t-78.5 -151.5t-148.5 -193.5t-232.5 -240.5q-98 -94 -155.5 -153.5t-88.5 -95.5t-39 -53.5t-8 -25.5z" />
<glyph unicode="3" horiz-adv-x="901" d="M66 229q0 -4 1 -10t7 -18t5 -15.5t15 -23.5q29 -35 70 -76t88 -76t98 -58.5t103 -23.5q72 0 128 26t100 69t78 98t62 115q31 63 53.5 131.5t22.5 128.5q0 57 -8 83.5t-21 49.5q-31 53 -85 76.5t-101 23.5q45 43 108.5 123t124.5 188q6 10 9.5 21.5t9.5 28.5q8 18 15 37.5 t7 39.5q0 4 -2 12.5t-10 24.5q-6 12 -20.5 26.5t-36.5 20.5q-6 2 -15.5 6.5t-25.5 14.5q-10 8 -34 14t-52 6q-53 0 -105.5 -22.5t-95.5 -44.5q-25 -12 -43 -25.5t-49 -19.5q-20 -4 -27 -11q-18 -18 -41.5 -34.5t-43 -35t-33 -42t-13.5 -53.5q0 -4 6.5 -17.5t14.5 -29 t18 -26.5t19 -11q23 0 46 2t31 10q16 16 36 24.5t20 36.5q0 14 22.5 37t55 45.5t68.5 43t61 32.5q18 10 31.5 12t21.5 2q6 0 6 -6q0 -4 -1 -8t-5 -18q-10 -27 -34 -78t-66 -111.5t-103 -125t-145 -120.5q-6 -4 -15.5 -15t-38.5 -28q-29 -16 -61.5 -38.5t-32.5 -30.5 q0 -12 9.5 -37t25.5 -41q4 -4 20.5 -7t26.5 -3q49 0 91 23.5t85 45.5q29 16 39 17q12 0 23 4q8 4 25.5 9t37.5 5q14 0 31.5 -6t32.5 -27q10 -14 17 -33.5t7 -48.5q0 -8 -5 -27.5t-13 -44t-18.5 -51t-18.5 -47.5q-37 -86 -82 -141t-106 -94q-16 -10 -43 -10q-29 0 -55.5 13 t-49 30.5t-36 35t-13.5 27.5q0 20 -23.5 39t-44.5 41q-8 8 -14 11t-18 3q-6 0 -12.5 -2t-10.5 -2q-18 0 -30.5 1t-26.5 1q-33 0 -41 -14t-8 -27z" />
<glyph unicode="4" horiz-adv-x="901" d="M66 514q0 -20 25.5 -61t55.5 -72q4 -4 10.5 -9t14.5 -10q88 -35 165 -35.5t165 -4.5q16 0 16 -17q0 -4 -7 -33.5t-13 -68.5q-8 -47 -13.5 -77t-5.5 -44q0 -33 19 -43q29 -16 56.5 -34.5t68.5 -18.5q12 0 17 13t7 24q2 10 5 18t3 18q0 18 3.5 56.5t10.5 81.5t17 85t23 68 q35 8 78.5 15.5t72.5 11.5q23 4 57.5 7t57.5 3q47 0 47 37q0 6 -4 18q-16 41 -32.5 59.5t-47.5 18.5q-49 0 -80 -3t-50.5 -7t-34.5 -7t-34 -3q-10 0 -10 6v10q0 8 2 19q8 61 31.5 144t48.5 164t44 149.5t19 103.5q0 25 16.5 57.5t16.5 95.5q0 16 -24.5 30.5t-34.5 18.5 q-25 8 -47 9q-18 0 -30.5 -9.5t-29.5 -33.5q-4 -8 -19 -22.5t-26 -22.5q-92 -78 -175 -162t-159.5 -168t-144 -164t-129.5 -147q-14 -16 -16 -20.5t-2 -12.5q0 -12 -2 -19.5t-2 -11.5zM252 506q0 8 8 18q45 55 100.5 122t110.5 132.5t107.5 122.5t93.5 98q10 10 14 13.5 t8 3.5t4 -6q0 -4 -10 -35q-6 -16 -21.5 -63.5t-35 -114t-39 -146.5t-33.5 -162q-2 -14 -6 -18q-2 -2 -4 -3t-12 -3q-29 -4 -65 -7t-46 -3q-47 0 -91 6t-73 22q-10 4 -10 23z" />
<glyph unicode="5" horiz-adv-x="901" d="M35 207q0 -8 1 -13.5t6 -13.5t15.5 -19t28.5 -32q37 -39 77 -74t85 -61.5t95 -43t106 -16.5q33 0 74.5 16.5t86.5 51.5t91.5 91.5t89.5 133.5q43 80 77.5 165t34.5 171q0 29 -6 79t-37 95q-45 66 -106.5 85.5t-124.5 19.5q-33 0 -63.5 -7.5t-53.5 -15.5t-37 -15t-16 -7 q-12 0 -13 6q0 4 1.5 10t5.5 23q12 43 29.5 98t29.5 96q4 16 18 21q70 16 156 30.5t197 22.5q23 2 35 2h16q37 0 76 -6t47 -6q29 0 48 16t19 39q0 18 -12 35q-23 31 -63.5 51t-65.5 20q-14 0 -38.5 -2t-53.5 -5t-59.5 -6t-59.5 -7q-39 -6 -77 -11t-69.5 -9.5t-53 -7.5 t-25.5 -3q-8 0 -17.5 7.5t-25.5 7.5q-10 0 -28.5 -5.5t-37 -13.5t-34 -19.5t-19.5 -25.5q-37 -104 -79 -245.5t-89 -295.5q-4 -12 -4 -16q0 -10 8 -16.5t19 -10.5q23 -12 46 -22t56 -10q6 0 14.5 3t24.5 19q86 86 156.5 122t109.5 36q20 0 25.5 -1t13.5 -5q39 -20 39 -113 q0 -27 -7 -54.5t-18 -56.5q-16 -47 -19 -66.5t-13 -43.5q-31 -80 -73 -151.5t-108 -131.5q-14 -12 -30.5 -22.5t-24.5 -10.5q-35 0 -64.5 15.5t-72.5 60.5q-16 18 -25.5 34.5t-18.5 32t-20.5 29t-31.5 25.5q-4 4 -25.5 12.5t-38.5 8.5q-29 0 -50.5 -24t-35.5 -32t-14 -18z " />
<glyph unicode="6" horiz-adv-x="901" d="M90 172q0 -31 11.5 -55.5t30 -44t40 -34.5t41.5 -30q6 -4 19.5 -14t33 -20.5t48 -18.5t69.5 -8q47 0 86 11t57 24q127 86 234.5 210.5t161.5 303.5l3 12t1 8q0 6 -4 14q-16 31 -34 51.5t-40 49.5q-16 20 -45 27.5t-55 7.5q-51 0 -94.5 -18.5t-108.5 -37.5 q-6 -2 -19.5 -10t-32 -18.5t-38 -22.5t-33.5 -22q-16 -10 -25 -11q-6 0 -6 9q0 4 4 16t15 39q20 49 58 112.5t90 133t117.5 137t139.5 127.5q8 6 19.5 14t19.5 8q12 0 17.5 -1t10.5 -2t11 -2t22 -1q23 0 33 10.5t10 20.5q0 16 -8 47q-2 6 -12 15.5t-27.5 19.5t-38 17 t-41.5 7q-41 0 -79.5 -21.5t-74.5 -52t-66.5 -62.5t-53.5 -50q-12 -10 -57 -53t-108.5 -134.5t-138.5 -234.5t-144 -354q-8 -23 -13.5 -49.5t-5.5 -69.5zM264 145q0 41 22.5 68t45.5 61q8 12 26.5 31t43 37t50 36.5t46.5 31.5q33 18 68.5 36.5t67.5 33t55.5 22.5t31.5 8 q16 0 16 -10q0 -6 -3 -21.5t-9 -25.5q-51 -88 -93 -147.5t-93 -112.5q-55 -57 -116 -89t-85 -32q-23 0 -48.5 26.5t-25.5 46.5z" />
<glyph unicode="7" horiz-adv-x="901" d="M156 31q0 -10 14 -24.5t29 -31.5q20 -25 41.5 -31.5t31.5 -6.5q25 0 33 17t25 17q10 0 13 8.5t3 16.5q0 57 65.5 192.5t219.5 356.5q45 6 71.5 13t51 13.5t55.5 10.5t84 4q33 0 40 -3t21 -3q18 0 19 59q0 10 -5 16.5t-14 14.5q-25 27 -53.5 35t-66.5 8q-10 0 -23.5 -2 t-26.5 -2q-23 0 -22 8q0 6 4 12t24.5 31.5t48 61.5t55.5 73t46 66q31 45 48.5 72.5t25.5 44t10 29.5t2 32q0 18 -15.5 36.5t-34 36t-35.5 28.5t-21 13q-23 10 -70 14.5t-102 4.5q-53 0 -104.5 -3t-92.5 -7q-47 -6 -101.5 -12.5t-101.5 -17.5t-77.5 -26.5t-30.5 -36.5 q0 -16 1 -29.5t7 -25.5q12 -29 13 -62.5t18 -52.5q16 -23 33.5 -26.5t41.5 -3.5q10 0 29.5 7t19.5 23q0 80 78 115t256 35q33 0 55.5 -5t22.5 -16q0 -12 -6 -26q-23 -57 -48.5 -99t-56 -86.5t-71.5 -96.5t-94 -130q-10 -16 -125 -16q-6 0 -21.5 2t-32 5t-31 5t-18.5 4 q-10 4 -23.5 6t-21.5 2q-10 0 -21.5 -8t-11.5 -26q0 -4 2.5 -11.5t2.5 -11.5q0 -16 1 -22.5t3 -10.5t8 -21.5t14 -25.5q6 -6 25.5 -10t42 -7t45 -4t33.5 -1q18 0 18 -11q0 -2 -2 -6t-12 -18q-84 -127 -135.5 -210t-79 -135.5t-35.5 -81t-8 -46.5z" />
<glyph unicode="8" horiz-adv-x="901" d="M61 330q0 -59 27 -114.5t67 -104t88 -87t91 -65.5q35 -20 58.5 -23.5t60.5 -3.5q23 0 36 5.5t23 7.5q29 4 45 36.5t24.5 75.5t10.5 86t2 68q0 37 -3 117t-9 164q-2 20 -2 34v29q0 37 4 47q109 47 209 97.5t211 107.5q41 23 58 54.5t17 66.5q0 16 -3 34.5t-7 26.5 q-14 37 -35.5 76t-47 75t-57.5 63.5t-65 41.5q-12 6 -18 12.5t-11.5 13.5t-11.5 14t-20 11q-31 10 -56.5 16.5t-52.5 6.5q-16 0 -27.5 -1t-27.5 -7q-119 -43 -173 -182.5t-54 -344.5q0 -14 1 -26.5t1 -32.5v-33q0 -10 -3 -16t-8.5 -9t-13.5 -10q-47 -29 -103.5 -56.5 t-106.5 -64t-84 -87t-34 -119.5zM225 305q0 59 45 108.5t113 78.5q14 6 20 6q10 0 11 -17q0 -10 5 -70.5t5 -140.5q0 -43 -5.5 -84t-17.5 -80q-6 -25 -20 -24q-39 0 -123 113q-12 16 -22.5 46.5t-10.5 63.5zM582 819q0 86 15 158t32 96q27 43 52.5 65.5t63.5 39.5q10 4 19 4 q4 0 8 -17q4 -14 12.5 -33.5t20.5 -19.5q8 0 9 4t9 4q6 0 21.5 -7t40.5 -30q23 -20 30 -46.5t7 -57.5q0 -29 -29 -51q-53 -41 -107.5 -61.5t-97.5 -43.5q-53 -29 -71.5 -35t-22.5 -6q-6 0 -9 7.5t-3 29.5z" />
<glyph unicode="9" horiz-adv-x="901" d="M145 729q0 -31 14.5 -46t26.5 -36q14 -23 25.5 -35t22 -19t20.5 -12.5t22 -13.5q18 -14 35 -18t43 -4q39 0 88 16q20 6 33 6q14 0 49 11q20 6 84 40q31 16 40 20.5t11 4.5q6 0 7 -6q0 -4 -2 -11.5t-13 -37.5q-47 -133 -88 -249t-90 -247q-12 -33 -14 -40t-2 -11 q0 -23 26.5 -42t48.5 -34q10 -6 21.5 -8t17.5 -2q10 0 17.5 2t23.5 12t21.5 15.5t7.5 17.5q16 117 58 227.5t79 227.5q25 80 55.5 144.5t62.5 124.5t62.5 119.5t55.5 127.5q10 27 26 49q23 33 34 56.5t11 58.5q0 10 -18 26.5t-43 36.5q-29 23 -46 32t-34 23 q-10 8 -27.5 10.5t-31.5 2.5q-18 0 -42 -5.5t-46.5 -13.5t-43 -15t-28.5 -13q-76 -43 -156 -84t-155.5 -90.5t-142 -111t-113.5 -147.5q-12 -25 -13 -59zM283 705q0 4 3 8t13 20q55 78 122.5 135.5t143.5 102.5t155 80.5t154 72.5q15 6 21 6t6 -6q0 -8 -4 -20 q-16 -43 -62.5 -100.5t-114 -116t-154.5 -111.5t-185 -86q-37 -12 -64 -12q-16 0 -25 8t-9 19z" />
<glyph unicode=":" horiz-adv-x="593" d="M328 115q0 -23 16 -34t35 -36q12 -16 24.5 -29.5t49.5 -13.5q25 0 43 8t45 21q6 2 10 13t6 24.5t3 24.5t1 16q0 31 -9.5 64.5t-23.5 41.5q-27 16 -50 38.5t-58 22.5q-31 0 -51.5 -30.5t-26.5 -61.5q-6 -35 -10 -48t-4 -21zM424 682q0 -35 23.5 -52.5t58.5 -27.5 q12 -4 32.5 -9t32.5 -5q6 0 32 20.5t42 77.5q4 12 7 40t3 36q0 14 -15 32.5t-30 28.5q-33 27 -48 32t-30 5q-33 0 -42 -6t-25 -43q-10 -20 -25.5 -44t-15.5 -85z" />
<glyph unicode=";" horiz-adv-x="573" d="M-82 -346q0 -18 8 -42t33 -26q18 -2 32.5 -6t35.5 -4q16 0 28.5 3t24.5 22q41 61 75.5 119.5t68.5 114.5t67 112.5t71 118.5q8 12 23.5 23t15.5 46v27q0 16 -7 33.5t-27 23.5q-10 4 -35 22.5t-51 18.5q-6 0 -8.5 -3t-10.5 -7t-12 -9t-14 -24q-37 -63 -67 -120.5 t-62.5 -119t-70.5 -130t-93 -152.5q-10 -16 -17.5 -23.5t-7.5 -17.5zM344 647q0 -16 19.5 -37.5t66.5 -21.5q23 0 55.5 1t49.5 1q18 0 31.5 24.5t21.5 47.5q4 10 5 22t1 41q0 10 -4 16.5t-12.5 13.5t-20.5 17t-29 29q-16 20 -32.5 29.5t-44.5 9.5q-23 0 -38.5 -17.5 t-27.5 -36.5q-20 -29 -30.5 -72.5t-10.5 -66.5z" />
<glyph unicode="&#x3c;" horiz-adv-x="1208" d="M266 449q0 -20 6.5 -30.5t30.5 -27.5q82 -51 138.5 -87t99.5 -63.5t77.5 -49t73.5 -41.5q70 -39 106 -54.5t62 -15.5q12 0 33.5 8t36.5 25q14 16 23.5 26.5t15.5 16.5t9 12t3 16q0 18 -18.5 35t-38.5 17q-12 0 -25.5 2t-32 10t-48.5 22.5t-75 38.5q-29 14 -64.5 37 t-69.5 44.5t-61.5 38.5t-37.5 24q-18 10 -22.5 15t-4.5 9q0 6 20.5 18.5t67.5 41.5q20 12 59.5 34.5t85.5 49t92 52t77 42.5q29 14 45 21t26.5 10.5t17.5 5.5t17 8q55 35 74.5 43t30.5 8q8 0 14 20.5t6 26.5q0 10 -9 25.5t-9 25.5q0 18 -17.5 37t-40.5 19q-18 0 -29.5 -7.5 t-27.5 -11.5q-10 -4 -21.5 -8t-33 -15.5t-59.5 -34t-99 -59.5q-84 -51 -177 -103t-159 -89q-37 -23 -60.5 -36t-36.5 -23.5t-19.5 -17.5t-8.5 -15q-6 -14 -9 -19.5t-6 -8.5l-6 -6t-7 -11q-6 -16 -10.5 -28.5t-4.5 -22.5z" />
<glyph unicode="=" horiz-adv-x="1208" d="M250 465q0 -45 21.5 -76t37.5 -41q4 -4 31 -6t63.5 -3t80.5 -2t85 -1h58q82 0 188.5 6t198.5 23q10 2 20 2h21q12 0 24.5 -2.5t24.5 -2.5q14 0 18 15q6 23 13.5 46t9.5 46q0 6 -7.5 16.5t-15.5 16.5q-12 10 -24.5 13t-34.5 3q-12 0 -47 -2t-76 -8q-72 -10 -115 -14.5 t-92 -4.5q-39 0 -78 -2t-61 -2q-129 0 -199.5 11.5t-93.5 11.5q-31 0 -37 -16q-4 -10 -9 -14.5t-5 -12.5zM285 731q0 -104 34 -115q8 -2 41 -6t75 -7t88 -6t83 -3h33q16 0 33 2l321 29q53 4 81 5t50 1q4 0 16.5 3t16.5 13q8 16 13.5 43t5.5 39q0 10 -1 19.5t-8 15.5 q-14 14 -27.5 17t-41.5 3q-12 0 -53 -4t-88.5 -8t-88.5 -9t-53 -5l-160 -8q-23 -2 -39 -2h-34q-59 0 -110.5 5t-104.5 17q-12 4 -21 4h-12q-10 0 -16.5 -1t-14.5 -11t-13 -15.5t-5 -15.5z" />
<glyph unicode="&#x3e;" horiz-adv-x="1208" d="M270 190q0 -10 8.5 -21t12.5 -32q4 -18 19.5 -25.5t54.5 -7.5q29 0 47 2.5t38.5 10.5t49 25.5t78.5 47.5q14 8 63 38t109.5 65t119 68.5t93.5 52.5q35 20 55 33.5t32.5 22.5t17.5 16.5t9 17.5q4 6 11.5 12t23.5 31q6 10 10 25.5t4 25.5q0 20 -6 30.5t-30 26.5 q-166 104 -272.5 168t-153.5 90q-25 14 -32 20.5t-12.5 12.5t-14.5 12.5t-38 20.5q-35 16 -41 27.5t-22 11.5q-23 0 -29 -16.5t-29 -57.5q-10 -18 -10 -39q0 -29 10.5 -44t26.5 -21q18 -8 28.5 -14.5t22 -13.5t29.5 -18.5t53 -29.5q35 -16 104.5 -58t163.5 -100 q37 -23 37 -28q0 -4 -2 -8.5t-10 -10.5t-25.5 -16.5t-50.5 -28.5q-31 -18 -77 -44t-96 -54.5t-97 -54t-80 -44.5q-53 -29 -83 -43t-48 -21t-27.5 -11t-21.5 -13q-16 -12 -19.5 -22t-3.5 -17z" />
<glyph unicode="?" horiz-adv-x="737" d="M287 55q0 -14 15 -29.5t26 -29.5q8 -10 30.5 -20.5t44.5 -10.5q29 0 55.5 16.5t47.5 36.5q12 12 15 28.5t3 45.5q0 12 -19.5 31.5t-44 36t-48 29t-33.5 12.5q-23 0 -44.5 -13.5t-37.5 -74.5q-4 -10 -7 -25.5t-3 -32.5zM307 578q0 -4 2 -10.5t2 -10.5q0 -14 19 -47 q16 -29 27.5 -39t39.5 -22q55 -23 127 -32t160 -9q16 0 33.5 5t27.5 7q12 2 23.5 10t11.5 21q0 6 -4 20t-8 23q-4 12 -14.5 19t-14.5 7t-10 5t-18.5 11.5t-32 11.5t-49.5 5q-18 0 -36 -2t-36 -2q-29 0 -54.5 9t-25.5 26q0 6 14.5 28.5t41 56t63.5 74.5t82 84 q84 82 129 131.5t66.5 83t24.5 62t3 67.5q0 45 -33.5 81t-66.5 55q-41 23 -79 33t-93 10q-102 0 -172 -64q-20 -18 -32.5 -52t-12.5 -75q0 -16 2 -39.5t12 -36.5q33 -45 82 -45q31 0 40 13.5t9 29.5q0 10 -2 24.5t-2 22.5q0 14 3 26.5t13 23.5q16 16 38 30.5t48 14.5 q12 0 27.5 -5.5t29 -14.5t23.5 -22.5t10 -29.5q0 -20 -34.5 -65.5t-116.5 -131.5q-66 -68 -139.5 -149.5t-122.5 -169.5q-4 -4 -6 -11.5t-7 -11.5q-12 -12 -12 -34z" />
<glyph unicode="@" horiz-adv-x="1433" d="M221 467q0 -137 47 -238.5t166 -195.5q25 -20 61.5 -38t76.5 -31t81 -21.5t76 -8.5q88 0 183.5 24t201.5 95q6 4 19.5 8.5t27 8.5t22.5 9t9 13q0 18 -2 27.5t-6 14.5t-8.5 9t-8.5 13q-14 35 -44.5 48t-53.5 13q-12 0 -24.5 -4t-28.5 -16q-88 -63 -169 -84t-145 -21 q-76 0 -136 25.5t-103 70.5t-65.5 108.5t-22.5 141.5q0 82 29.5 209t109.5 258q66 109 135.5 173.5t133 99t116.5 46t88 11.5q59 0 123 -13.5t117 -52.5t87 -108.5t34 -179.5q0 -90 -25 -172t-60.5 -143.5t-76.5 -97.5t-74 -36q-16 0 -26.5 17.5t-10.5 31.5q0 29 3 53.5 t13.5 58.5t32 83t56.5 129q6 14 7 22.5t1 20.5q0 16 -19 26q-14 8 -23 15.5t-9 17.5q0 6 -3.5 18.5t-13.5 26.5q-6 10 -24.5 27.5t-42 34t-50 29t-49.5 12.5q-55 0 -116.5 -41t-126.5 -115q-31 -35 -57.5 -83t-48 -100t-34 -104.5t-12.5 -97.5q0 -49 21.5 -93t56.5 -67 q6 -4 18.5 -13t27.5 -18.5t32.5 -16.5t36.5 -7q25 0 51 11.5t50 27.5t44.5 37.5t32.5 40.5q10 14 14 18t8 4q6 0 7.5 -7t3.5 -13q10 -37 21 -53.5t34 -30.5q41 -25 71.5 -35t59.5 -10q43 0 93 20.5t101 87.5q31 39 59 87t50.5 103.5t35.5 117t13 129.5q0 78 -11 134 t-32.5 100t-50.5 79t-61 70q-90 90 -183.5 124.5t-224.5 34.5q-53 0 -119.5 -16.5t-139.5 -54t-145.5 -102t-134.5 -163.5q-49 -78 -83.5 -150.5t-55 -142t-30 -138t-9.5 -142.5zM700 473q0 25 1 41t6 31q6 31 21 56.5t26 57.5q8 25 35.5 72t64.5 92t78 79t78 34 q6 0 22.5 -13.5t16.5 -23.5q0 -16 -15.5 -44t-44.5 -58q-12 -12 -15 -21.5t-3 -21.5q0 -10 6 -15.5t6 -11.5q0 -10 -16.5 -35.5t-44 -62.5t-65.5 -79t-81 -81q-18 -16 -29.5 -20.5t-23.5 -4.5q-8 0 -15.5 6.5t-7.5 22.5z" />
<glyph unicode="A" d="M23 315q0 -23 15 -34t50 -29q12 -6 12 -14q0 -2 -4 -19.5t-9 -42t-9 -55.5t-4 -62q0 -33 3 -54t9 -36.5t17.5 -27t27.5 -21.5q10 -6 22.5 -12t16.5 -6q23 0 40 15t38 30q10 6 10 12q0 12 -3 29.5t-3 85.5q0 29 7 65.5t26 77.5q8 16 14 21.5t16 7.5q31 4 83.5 18.5 t111.5 32.5t118.5 37.5t102.5 36.5q12 0 12 -9q0 -72 -4 -138t-4 -136q0 -37 2 -79t7.5 -78.5t12.5 -64.5t17 -38q20 -20 50 -28.5t55 -8.5q6 0 10 1t12 7q12 10 26.5 21.5t14.5 29.5q0 4 -6 16.5t-14.5 37t-14.5 66.5t-6 104v28v37q0 18 1 36t1 28l10 205q2 20 5.5 25 t17.5 16q16 10 40.5 15t49.5 5q59 0 94 11.5t54 41.5q8 14 8 27q0 8 -13 22q-16 18 -50 28.5t-75 10.5q-45 0 -70.5 -4t-35.5 -4t-11 4t-1 8q0 2 3 59.5t9 136.5t14.5 163t18.5 143q6 39 6 68q0 4 5 32.5t10 62.5t10.5 63.5t5.5 35.5q0 12 -6.5 14.5t-10.5 18.5 q-4 8 -26.5 13.5t-42.5 5.5q-35 0 -75 -12.5t-56 -12.5q-6 0 -13.5 -7t-32.5 -44q-84 -127 -159.5 -246t-143 -232.5t-131 -224t-123.5 -221.5q-10 -20 -15 -24.5t-9 -4.5q-20 0 -42 17.5t-46 17.5q-12 0 -23 -8q-4 -4 -17 -41t-13 -72zM379 426q0 4 4 14.5t20 38.5 q39 74 79 146.5t85 149.5t95.5 160t109.5 177q8 12 11 14t8 2q4 0 5 -5t1 -27q0 -70 -10 -201t-39 -348q-2 -12 -4.5 -15.5t-10.5 -7.5q-6 -4 -43 -15t-94 -34q-25 -10 -56.5 -19.5t-62.5 -18.5t-54.5 -14t-31.5 -5q-12 0 -12 8z" />
<glyph unicode="B" horiz-adv-x="1175" d="M61 334q0 -16 5.5 -26.5t11.5 -19.5t11 -20.5t7 -25.5q0 -8 14.5 -23.5t30 -33t28.5 -34t13 -28.5q0 -6 1 -11.5t12 -13.5q27 -23 56.5 -48t63.5 -25h17q8 0 14 4q29 -29 57.5 -39t45.5 -21q16 -10 42.5 -16t56.5 -11t60.5 -7.5t55.5 -2.5q102 0 190 37t139 119 q41 66 78 123t65.5 112.5t45 114t16.5 125.5q0 23 -2 38t-12 32q-23 45 -63 81t-93 56q-26 9 -59 9h-7h-4q-34 0 -61 14q-8 4 -8 8q0 2 10 16t25.5 35.5t36 46.5t40.5 49q63 74 99.5 126t53.5 89t21.5 57.5t4.5 30.5q0 37 -43 74q-37 33 -90.5 50.5t-108.5 17.5 q-47 0 -87 -11.5t-54 -19.5q-29 -16 -49 -16q-18 0 -37 8t-36.5 18t-34.5 18.5t-36 8.5q-18 0 -35.5 -17.5t-40.5 -78.5q-23 -66 -45 -104t-67 -56q-8 -4 -10.5 -7t-2.5 -20q0 -20 3.5 -34.5t15.5 -32.5q6 -10 6 -15q-33 -84 -58.5 -158.5t-47 -151.5t-42 -159t-42.5 -178 q-4 -20 -10.5 -23.5t-12.5 -3.5t-17.5 4.5t-21.5 4.5q-68 0 -91.5 -7.5t-23.5 -27.5zM383 188q0 20 8 59.5t18.5 82.5t20.5 83t16 62q4 12 7.5 16.5t15.5 4.5q39 0 84 20.5t84 46.5q18 12 48 30.5t65.5 37t74.5 32t76 13.5q29 0 49.5 -4t32.5 -21q12 -16 16.5 -28.5 t4.5 -36.5q0 -33 -6.5 -85t-45.5 -132q-37 -76 -69.5 -138.5t-66.5 -107.5t-69.5 -69.5t-78.5 -24.5q-88 0 -156 41t-115 88q-14 14 -14 30zM487 664q0 20 15.5 69t36 106.5t42 113t31.5 87.5q8 23 18.5 45.5t20.5 44.5q4 10 9.5 15.5t15.5 13.5q66 47 135.5 77t157.5 30 q10 -1 10 -13q0 -10 -23.5 -64t-83.5 -136q-49 -68 -111.5 -134.5t-109.5 -119.5q-10 -10 -23.5 -28.5t-23.5 -33.5q-27 -35 -62.5 -58.5t-45.5 -23.5q-8 0 -9 9z" />
<glyph unicode="C" horiz-adv-x="966" d="M127 264q0 -29 3 -59.5t7 -65.5q2 -23 20.5 -45t43 -43.5t52.5 -40t50 -28.5q27 -12 76 -20.5t84 -8.5q82 0 150.5 30.5t130 78t118 104.5t113.5 113q12 12 19 17t7 13q0 12 -12 33q-14 23 -31.5 31t-37.5 8h-33q-29 0 -41 -8t-37 -33q-49 -49 -102.5 -96t-106.5 -83 t-103.5 -57.5t-93.5 -21.5q-25 0 -43 18.5t-45 40.5q-10 8 -18 33t-8 39v20q0 16 2 35t3 36.5t5 27.5q45 147 109.5 292.5t150.5 262.5q49 68 80 108.5t54.5 68.5t44 49.5t50.5 49.5q14 12 36 26.5t46.5 27t49 20.5t43.5 8q18 0 18 -31q0 -18 -11.5 -34.5t-13.5 -26.5 q-4 -23 -15 -40t-23.5 -35.5t-22.5 -40t-10 -50.5q0 -10 8 -20.5t19.5 -19.5t22.5 -15t17 -6q12 -2 28.5 -5t31.5 -3q23 0 41 11t22 27q14 51 31.5 89t40.5 92q12 31 14 42t2 15q0 12 -2 23q-10 43 -45 73t-51 53q-4 4 -11 9.5t-18 9.5q-23 10 -44 14t-44 4q-20 0 -45.5 -3 t-50.5 -8t-45.5 -11t-28.5 -12q-117 -68 -213 -168.5t-173 -217t-136 -243.5t-102 -248q-2 -4 -6.5 -25.5t-9.5 -51.5t-8 -63.5t-3 -64.5z" />
<glyph unicode="D" horiz-adv-x="1134" d="M8 174q0 -29 21.5 -53.5t51.5 -43t58.5 -30.5t42.5 -18q16 -29 51 -52.5t62 -23.5q23 0 38 2t17 16q35 -10 74 -18t80 -8q16 0 32.5 1t32.5 7q111 41 200 114.5t162 170t134 208t117 226.5q16 31 20 47t17 39q27 49 41 99t14 95q0 76 -10.5 108.5t-30.5 59.5 q-39 51 -81 78t-83 55q-41 29 -96 38t-101 9q-55 0 -113.5 -12t-114.5 -33.5t-108.5 -49t-95.5 -56.5q-53 -37 -82.5 -60.5t-44 -43t-16.5 -42t-2 -59.5q0 -20 13.5 -32.5t27.5 -12.5q12 0 27.5 7t29 16.5t24.5 16.5t17 7q4 0 6 -1t2 -11q-76 -184 -139 -371.5t-110 -376.5 q-2 -6 -13 -6q-12 0 -24.5 11.5t-30.5 11.5q-25 0 -43.5 3t-32.5 3q-16 0 -28.5 -7t-12.5 -28zM352 104q16 121 51 240t81 234.5t98.5 231.5t103.5 230q6 14 13.5 20.5t12.5 12.5t9 12.5t4 20.5q0 6 -8 14q45 10 101 34t116 24q39 0 73.5 -15.5t63.5 -56.5q6 -10 10 -25.5 t7.5 -33t5.5 -30.5t2 -18q0 -37 -16.5 -84t-30.5 -81q-76 -186 -176.5 -354.5t-247.5 -313.5q-41 -41 -90.5 -63.5t-106.5 -22.5q-16 0 -34.5 1t-28.5 5t-11.5 6t-1.5 12z" />
<glyph unicode="E" horiz-adv-x="1040" d="M160 147q0 -20 3 -54t13 -50q14 -23 39 -38t49.5 -25.5t44 -15.5t25.5 -5q104 0 194 18.5t171 47t155 66.5t143 75q23 12 56 41q23 20 45 26q12 2 12 27q0 8 -9 18.5t-19.5 18.5t-21.5 15t-13 12q-4 6 -21 6q-47 0 -89 -16.5t-82 -40t-80 -48t-81 -43.5 q-25 -10 -58.5 -23.5t-80.5 -33.5q-43 -18 -90 -28.5t-76 -10.5q-16 0 -33.5 22.5t-17.5 47.5q0 43 14.5 98t38 115.5t51 122t52.5 118.5q6 14 27.5 21.5t33.5 11.5q39 10 81 25.5t86 31t90 25.5t93 10q14 0 31.5 -3t36.5 -3q6 0 22.5 3t32.5 8t29.5 12.5t13.5 17.5 q0 16 -5 35.5t-22 30.5q-76 41 -153 41q-78 0 -155 -28t-146 -52q-8 0 -8 8q29 76 56.5 144.5t55.5 144.5q4 12 9.5 16t15.5 8q111 37 241 66.5t275 29.5q29 0 45 -10t29 -10q14 0 25.5 6t25.5 6q16 0 23.5 8t7.5 31q0 29 -32 56.5t-69 46.5q-10 4 -31.5 8t-37.5 4 q-78 0 -162 -12.5t-162 -28.5t-139.5 -33.5t-91.5 -30.5q-92 -35 -182.5 -68.5t-188.5 -58.5q-12 -4 -12 -14t4 -24.5t11 -30t17.5 -28.5t20.5 -19q16 -8 39 -8t44 8t32 8q8 0 8 -10q-12 -47 -36 -104.5t-67 -153.5q-8 -16 -13 -20.5t-17 -8.5l-45.5 -13t-14.5 -12 q-4 -4 -4 -12v-12q0 -27 11.5 -43.5t15.5 -20.5q-20 -55 -43 -111.5t-42.5 -112.5t-31.5 -115.5t-12 -123.5z" />
<glyph unicode="F" horiz-adv-x="913" d="M180 584q0 -10 6.5 -20.5t6.5 -14.5q0 -25 19 -43.5t48 -18.5q31 0 31 -20v-10q0 -4 -4 -15q-27 -92 -55.5 -194.5t-28.5 -200.5q0 -8 2 -13t12 -11q29 -16 61.5 -26.5t73.5 -10.5q6 0 17.5 6t11.5 22q0 14 -2 19.5t-2 36.5q0 45 7 85t11 56q2 10 5 18.5t10 22.5 q29 63 42 134t46 136q6 12 9 14.5t15 6.5q131 33 265.5 58.5t267.5 51.5q8 2 15 7.5t7 21.5q0 23 -13 38t-69 38l-20 8t-17 4q-8 0 -15 -1t-23 -5q-96 -18 -179.5 -33.5t-167.5 -36.5q-14 0 -14 11q25 96 69 181t91 175q4 6 4 14v17q0 10 4 19t18 13q59 12 118 31t124 27 q35 4 67.5 14t67.5 10q27 0 43.5 -7t25.5 -15t15 -15.5t13 -7.5q27 0 46 6.5t40 16.5q10 4 11 8t1 25q0 12 -2 24.5t-6 18.5q-41 55 -92.5 65t-92.5 10q-57 0 -118.5 -10t-124 -24.5t-125 -32t-119.5 -31.5q-12 -4 -25.5 -8t-33.5 -12q-82 -33 -154 -60t-164 -49 q-10 -2 -14 -14q-6 -16 -17.5 -31.5t-11.5 -36.5q0 -6 7 -17.5t18.5 -23.5t26 -20.5t28.5 -8.5q12 0 41 12.5t60.5 27t58 26.5t35.5 12q8 0 8 -10q-37 -88 -75 -185.5t-77 -189.5q-4 -6 -7 -10t-13 -8q-33 -10 -64 -14.5t-71 -20.5q-12 -4 -13 -12z" />
<glyph unicode="G" horiz-adv-x="1220" d="M127 168q0 -41 21.5 -79t72.5 -91q74 -78 187 -78q35 0 81 12q45 12 81 24.5t73 33t79 53.5t99 86q39 35 52.5 46t17.5 11q6 0 6 -6q0 -4 -7 -29.5t-14.5 -61.5t-14.5 -75t-7 -65q0 -16 5 -24.5t28 -8.5q14 0 20 -2t10.5 -5t11.5 -5t23 -2q8 0 20.5 5t25 12t21.5 15.5 t9 14.5q0 31 5 87t20.5 128t43 157t70.5 175q23 47 28 64.5t5 27.5q0 16 -14.5 36.5t-33.5 39t-38.5 31t-28.5 12.5q-41 0 -65.5 -4.5t-65.5 -18.5q-33 -10 -58.5 -17.5t-68.5 -19.5q-23 -6 -43 -6q-18 0 -49 -6q-27 -4 -33 -14.5t-6 -40.5q0 -20 10.5 -30.5t38.5 -33.5 q12 -10 31 -13t53 -3q12 0 36 7t51.5 16t53 16.5t38.5 7.5q14 0 14 -10q0 -12 -19.5 -39t-66.5 -78q-18 -18 -37.5 -35.5t-53.5 -44.5t-86 -70t-134 -114q-66 -57 -129.5 -82t-92.5 -25q-23 0 -45 8.5t-26 20.5q-6 16 -11.5 21t-10.5 13.5t-7 28t-2 62.5q0 16 2 35.5 t10 54.5q20 86 54 176t82.5 177t106.5 167t128 148l55 53q29 27 60.5 59.5t67.5 62t77 53t88 34.5q39 8 62 8q63 0 63 -51q0 -41 -4 -59.5t-11 -29t-15.5 -20.5t-14.5 -33q-4 -14 -13 -24t-17.5 -19.5t-14.5 -19.5t-6 -23q0 -6 8 -15t12 -19q10 -20 58 -31q8 -2 19 -10.5 t26 -8.5q12 0 25.5 9.5t26.5 21.5t22.5 25.5t13.5 23.5q2 8 11 29.5t17.5 50.5t15.5 65.5t7 80.5q0 31 -18 61.5t-43 48.5q-16 12 -44 25.5t-60 25t-63.5 18.5t-56.5 7q-16 0 -35.5 -1t-35.5 -5q-51 -10 -112.5 -43t-122 -77t-117 -94t-95.5 -93q-131 -145 -209 -281.5 t-118.5 -252.5t-53 -205t-12.5 -140z" />
<glyph unicode="H" horiz-adv-x="1150" d="M-25 516q0 -4 2.5 -16.5t5.5 -26.5t7 -27.5t8 -19.5q27 -31 59.5 -40t67.5 -9q31 0 62.5 6t41.5 6q8 0 9 -10q0 -10 -5.5 -37t-11.5 -58.5t-13 -63.5t-9 -50t-6 -33q-4 -16 -6.5 -41.5t-2.5 -34.5q0 -20 13 -20q8 0 13 -6t15 -17q16 -14 27.5 -15t30.5 -17 q8 -6 25.5 -9.5t31.5 -3.5q29 0 35 15.5t6 44.5q0 16 -5 38.5t-5 51.5q0 23 2 34t6 17q6 12 12 45t15.5 73t21.5 80t29 68q4 8 9 11.5t21 7.5q18 4 51 10t73 14.5t83 16.5t80 16q23 0 23 -22q0 -10 -2 -23.5t-7 -24.5q-29 -84 -49 -187t-47 -189q-6 -20 -7 -32.5t-1 -25.5 q0 -10 4 -30q4 -23 13.5 -44.5t27.5 -29.5q16 -6 37.5 -11.5t42.5 -5.5q16 0 30.5 7.5t16.5 19.5q12 104 27.5 208.5t50.5 209.5q18 55 32.5 112.5t43.5 104.5q4 8 10 12t22 8q86 16 173.5 36t189.5 20q16 0 16 28q0 27 -4 31t-14 21q-10 16 -26.5 32.5t-35.5 16.5 q-8 0 -20 6q-31 14 -70 14q-12 0 -34.5 -6t-47 -13t-46 -13.5t-33.5 -6.5q-14 0 -15 17q31 88 68 165.5t67 163.5q12 35 16.5 56.5t4.5 40.5q0 23 -19.5 35t-40.5 12q-23 0 -38 3t-31 3q-23 0 -33 -9l-20 -18q-10 -6 -15 -20l-81 -243t-93 -234q-6 -14 -12 -18.5t-17 -8.5 q-74 -23 -153.5 -39t-159.5 -29q-12 0 -12 21q0 8 1 18.5t11 28.5q45 90 78 172t63.5 158t66.5 148.5t87 146.5q4 8 5 16t1 14q0 10 -8 20.5t-23 14.5q-39 12 -52 22.5t-29 10.5q-29 0 -41.5 -5t-20.5 -20q-74 -135 -139.5 -279.5t-124.5 -285.5q-27 -61 -41 -124.5 t-41 -119.5q-4 -6 -7 -9t-13 -7q-18 -6 -47 -11t-55.5 -9.5t-49.5 -7.5t-29 -3q-23 0 -47 9.5t-43 9.5q-16 0 -24.5 -9.5t-8.5 -19.5z" />
<glyph unicode="I" horiz-adv-x="520" d="M94 -29q0 -12 12 -12q8 0 27 -15.5t37 -15.5q14 0 18.5 -10t16.5 -10q8 0 18 16q4 8 10.5 14.5t14.5 6.5q6 0 14 1t12 7q23 43 31 71.5t8 53.5q0 10 -2 16t-2 15q0 8 4 20q80 242 156 472t164 456q10 29 15 36t11 13q18 18 30.5 32.5t19 30t9.5 33.5t3 45 q0 12 -12.5 23.5t-31 18.5t-39 12.5t-34.5 5.5q-35 0 -56.5 -4.5t-25.5 -20.5q-16 -53 -27.5 -83t-21.5 -48t-18.5 -33.5t-14.5 -36.5q-37 -117 -75.5 -228.5t-75.5 -222t-72 -223t-65 -233.5q-4 -18 -8.5 -28.5t-10.5 -20.5q-6 -12 -13 -37t-13.5 -49.5t-9.5 -44t-3 -23.5z " />
<glyph unicode="J" horiz-adv-x="819" d="M4 199q0 -59 9.5 -111.5t27.5 -95.5t46 -73t65 -42q35 -10 66.5 -32.5t72.5 -22.5q66 0 135.5 59.5t120.5 143.5q12 20 27.5 49.5t32 64.5t31 73t26.5 75q70 223 154.5 432t182.5 414q14 29 30 47t29 35.5t22.5 37t9.5 50.5q0 8 -6.5 19t-38.5 34q-37 25 -53.5 31 t-22.5 6q-66 0 -146 -14.5t-158.5 -32t-151.5 -32t-126 -14.5q-20 0 -22 -16q-4 -16 -9.5 -35.5t-5.5 -42.5q0 -10 3 -14t6.5 -7t7.5 -7t6 -13q6 -23 31 -28q31 -6 73 -7q31 0 60.5 5.5t54.5 21.5q10 6 16 9t19 8q47 10 101 26.5t112 26.5q12 0 12 -8q-35 -78 -63.5 -139.5 t-52 -118t-47 -113.5t-49.5 -125t-55.5 -153t-68.5 -195q-18 -55 -33.5 -94t-29 -71t-28.5 -58.5t-34 -57.5q-25 -39 -44 -61.5t-37.5 -34.5t-36 -16.5t-33.5 -4.5q-8 0 -21.5 9.5t-26 32t-21.5 57.5t-9 88q0 45 2 64.5t5 29.5t8 18.5t11 32.5q10 39 24.5 56.5t14.5 44.5 q0 29 -22.5 51t-48.5 22q-10 0 -25.5 4.5t-38.5 4.5q-18 0 -39.5 -36t-31.5 -77q-14 -57 -16.5 -104.5t-2.5 -75.5z" />
<glyph unicode="K" horiz-adv-x="1089" d="M84 51q0 -20 18.5 -29.5t40.5 -19.5q27 -10 32 -22.5t22 -12.5q16 0 36 13q27 16 32 24t7 19q25 145 77 283t118 269q4 8 10 9q6 0 8 -11q14 -45 37 -102t53.5 -119.5t69.5 -127t88 -126.5q29 -37 66 -75.5t71 -79.5q16 -20 41 -44t54.5 -44.5t64.5 -34t74 -13.5 q14 0 19 2.5t8.5 4.5t8.5 4t19 4q12 2 21.5 11t9.5 28q0 25 -22.5 45t-63.5 41q-16 8 -26.5 17t-33.5 32q-51 51 -102 112.5t-96 125t-82 122t-57 101.5q-12 27 -15.5 44t-19.5 52q-16 33 -17 55q0 14 5.5 20.5t23.5 16.5q82 41 158 80t147 82q129 78 252 178t229 229 q14 16 16.5 21.5t2.5 9.5q0 10 -12 23q-4 4 -12.5 5t-16.5 7q-20 16 -49 27.5t-58 11.5q-6 0 -9 -1t-11 -11q-123 -147 -283.5 -268t-367.5 -224q-16 -8 -23.5 -11t-12.5 -4t-9 -2t-13 -3q-29 -10 -43 -11q-10 0 -12 2t-2 9q47 109 104.5 213t122.5 202q14 23 15 31 q0 10 -2.5 21.5t-12.5 21.5t-24.5 13t-24.5 8q-18 8 -19 13t-14 11q-8 4 -22 4q-27 0 -44.5 -20.5t-33.5 -30.5q-10 -6 -13 -11t-16 -28q-49 -94 -111.5 -222t-127 -276.5t-126 -310.5t-112.5 -323q-8 -25 -9 -37.5t-1 -22.5z" />
<glyph unicode="L" horiz-adv-x="921" d="M135 80q0 -18 8 -29q12 -16 28.5 -36.5t38 -39t46.5 -31t55 -12.5q84 0 159 17.5t147.5 42t145.5 51.5t150 45q12 4 19 4h20q47 0 63.5 5t22.5 16q4 8 5 15t1 13q0 16 -6 22.5t-6 12.5q0 8 -5 14.5t-9 10.5q-25 25 -59.5 39t-51.5 14q-27 0 -37 -4q-96 -39 -199.5 -76 t-211.5 -65q-43 -10 -60.5 -13.5t-25.5 -3.5q-14 0 -22.5 12.5t-8.5 26.5q0 23 8 43q63 184 132 358.5t147 341.5q18 41 30.5 62.5t24.5 52.5q23 59 47.5 103.5t56.5 70.5q12 10 13 19q0 23 14 43t14 61q0 12 -20.5 25.5t-38.5 17.5q-31 8 -37 17.5t-20 9.5q-10 0 -33 -3 t-31 -20q-117 -256 -238.5 -509t-213.5 -521q-10 -29 -13.5 -45t-5.5 -26.5t-3 -17.5t-5 -19q-16 -39 -25.5 -66t-9.5 -49z" />
<glyph unicode="M" horiz-adv-x="1339" d="M76 41q0 -27 15 -51.5t26 -24.5q4 0 14 -5t21.5 -11t22.5 -11.5t18 -5.5q12 0 18 10.5t29 10.5q10 0 24.5 12t14.5 23q0 66 30.5 184.5t96.5 298.5q23 59 61.5 160.5t93.5 206.5q12 23 16.5 28.5t8.5 5.5q6 0 6 -10v-135v-63q4 -66 17.5 -117t25.5 -70q16 -27 41.5 -35 t52.5 -12q35 -6 52.5 -12t21.5 -6t8 2t18 18q10 12 43 48t75 81t88 94.5t83 85.5q6 6 10 7q8 0 9 -9q-14 -43 -30.5 -95t-32 -101t-27 -91t-15.5 -67q-4 -16 -11 -57t-15.5 -95.5t-18.5 -113t-18 -108.5t-13.5 -83.5t-5.5 -38.5q0 -8 3 -11t14 -13q12 -10 36.5 -24.5 t45.5 -14.5q10 0 11 4t11 4q14 0 25.5 -8t21.5 -8q8 0 9 8t6 39q20 215 53 392t80 328.5t109.5 282.5t144.5 254q10 14 10 21q0 18 -7 33.5t-15.5 26.5t-16.5 17.5t-10 6.5q-16 0 -32.5 8t-57.5 8q-8 0 -13.5 -3t-15.5 -17q-59 -78 -131 -148.5t-148.5 -141.5t-153.5 -142.5 t-147 -147.5q-16 -16 -18 -19t-6 -3q-12 0 -13 24q0 76 -1 126t-1 81t-1 46t-1 22q0 82 7.5 140t11.5 75q6 25 15 55.5t16.5 61t13.5 56.5t6 38q0 10 -12 22q-16 16 -43 22.5t-51 10.5q-27 4 -33 7t-23 3q-4 0 -8 -8t-14 -31q-53 -131 -120 -269t-134.5 -281.5t-128 -292 t-99.5 -300.5q-4 -18 -15 -38.5t-23.5 -44t-21.5 -50t-9 -55.5z" />
<glyph unicode="N" horiz-adv-x="1224" d="M111 0q0 -10 9 -17.5t21 -13.5q8 -4 13.5 -9t12.5 -8t18.5 -5t35.5 -2q33 0 54.5 10t21.5 27q0 8 6 73q10 104 39 226t62.5 238t64.5 213t47 155q8 29 16 28q6 0 9.5 -5t7.5 -23q14 -61 28.5 -158.5t31 -207t36 -221.5t47.5 -202q12 -41 30.5 -66.5t76.5 -54.5 q33 -16 46 -19t27 -3q25 0 45.5 11t51.5 42q8 8 12 15.5t16 37.5q63 158 111.5 298.5t89.5 267.5t77 240.5t73 217.5q10 31 14 48.5t14 33.5q14 25 18.5 41.5t4.5 36.5q0 4 -7.5 15.5t-18.5 22.5t-24.5 20.5t-23.5 9.5q-16 0 -38.5 6t-45.5 6t-29 -7t-14 -36 q-16 -53 -18 -110.5t-17 -110.5q-10 -37 -18 -57.5t-19 -55.5q-59 -197 -117.5 -386t-142.5 -369q-10 -20 -12 -25.5t-6 -5.5q-8 0 -17 31q-41 150 -60 299t-35.5 296.5t-41 295t-73.5 296.5q-10 29 -29 29q-39 0 -73 -6t-50 -12q-14 -6 -17 -11.5t-3 -11.5q0 -53 15 -76.5 t15 -40.5q0 -8 -5 -10t-12 -4t-14.5 -6t-9.5 -17q-20 -84 -38.5 -157.5t-45.5 -173.5l-18 -70q-4 -14 -21.5 -73.5t-43 -142.5t-53.5 -178t-52.5 -181t-39.5 -150.5t-15 -87.5z" />
<glyph unicode="O" horiz-adv-x="1003" d="M180 301q0 -78 15.5 -129t50.5 -104q23 -35 57.5 -63t58.5 -36q35 -10 63 -14t60 -4q86 0 161 31.5t124 93.5q102 129 164.5 297t107.5 352q8 31 12.5 51.5t6.5 36.5t2 29v30q0 131 -43 218.5t-102 140.5q-12 10 -23.5 13t-22.5 3q-8 0 -22 4t-30.5 9.5t-31 10.5t-22.5 9 q-29 12 -45 12t-53 -22q-72 -43 -128.5 -105.5t-111.5 -144.5q-115 -166 -181.5 -337t-66.5 -382zM346 303q0 16 2 39t3 43.5t3 36.5t2 22q0 45 9.5 76t15.5 51q45 143 123 272.5t178 233.5q43 45 61.5 53.5t22.5 8.5q14 -1 14 -21q0 -12 13 -16q39 -12 58 -48t28 -83 q2 -12 2 -25v-43q0 -23 -10.5 -95.5t-38 -175t-77.5 -224t-130 -244.5q-23 -33 -63 -54.5t-79 -21.5q-18 0 -39.5 6t-27.5 12q-33 33 -51.5 82.5t-18.5 114.5z" />
<glyph unicode="P" horiz-adv-x="1003" d="M152 2q0 -6 6 -12q12 -12 20 -16.5t16.5 -7.5t17.5 -8t21 -17q6 -6 27 -7q25 0 47 17q14 10 15 22q0 12 11 64.5t28.5 124t40 152.5t44.5 151q6 18 9.5 22.5t7.5 4.5t16 -9q14 -10 25.5 -19t25 -17.5t32 -13.5t46.5 -5q31 0 65 7t62.5 16.5t50 19.5t29.5 16 q102 80 197.5 188.5t161.5 229.5q33 59 63.5 127t30.5 156q0 61 -17.5 89t-52.5 56q-39 33 -68.5 38t-74.5 5q-94 0 -180.5 -23.5t-168 -60.5t-158.5 -84t-153 -96q-41 -27 -56 -45t-15 -41q0 -8 14 -22q10 -10 14 -21.5t33 -28.5q16 -10 27 -10q10 0 11 -2t1 -8 q-6 -29 -12 -48.5t-14.5 -41t-17.5 -48t-24 -69.5q-2 -8 -8 -8q-27 0 -43 -11.5t-22 -13.5t-9.5 -6t-3.5 -16q0 -16 12.5 -28.5t26.5 -22.5q8 -6 8 -17q-4 -23 -15 -58.5t-25.5 -74.5t-24.5 -72.5t-10 -52.5q0 -8 -4.5 -19.5t-8.5 -19.5q-10 -25 -19 -60.5t-18.5 -73.5 t-17.5 -72.5t-14 -59.5q-8 -33 -8 -39zM514 631q23 111 68 224.5t86 223.5q35 35 75.5 56.5t83.5 36t88.5 24.5t90.5 23q16 4 23 5t13 1q39 0 45.5 -5.5t6.5 -15.5q0 -25 -10.5 -60.5t-25 -73.5t-31.5 -75t-32 -63q-57 -104 -145 -201.5t-186 -163.5q-14 -10 -17.5 -11 t-13.5 -1q-23 0 -50.5 20.5t-68.5 55.5z" />
<glyph unicode="Q" horiz-adv-x="1134" d="M168 360q0 -41 5 -82.5t15 -87.5q12 -51 32 -86.5t59 -56.5q10 -6 25 -16.5t32.5 -21.5t32 -21.5t24.5 -12.5q20 -8 39 -11t78 -3q25 0 60.5 11.5t76.5 31t82 49t76 66.5q6 8 14 8q2 0 5 -2t12 -12q39 -55 104.5 -136t144.5 -149q29 -23 60 -32t82 -9q35 0 48 9t13 26 q0 4 -8 11t-18 15q-37 27 -81 74t-88 105.5t-84 122t-71 122.5q0 10 1 12.5t5 8.5q68 90 122 178t92 169t58.5 151.5t20.5 126.5q0 117 -19.5 175t-54.5 87q-45 39 -87 50t-72 27q-45 23 -82 23q-16 0 -48 -6t-72 -18.5t-84 -32t-85 -45.5q-25 -16 -43.5 -26.5t-40.5 -29.5 q-109 -92 -184.5 -207.5t-135.5 -236.5q-6 -12 -10 -27.5t-12 -40.5q-18 -61 -28.5 -122.5t-10.5 -127.5zM344 348q0 115 37 218.5t102 201.5q68 102 157 193.5t210 150.5q29 14 71.5 25.5t73.5 11.5q41 0 57.5 -41t16.5 -133q0 -59 -17.5 -127t-47 -134.5t-65.5 -128 t-73 -108.5q-10 -14 -15 -18t-9 -4q-6 0 -25 32q-10 16 -19.5 50t-25.5 88q-10 31 -37 30q-31 0 -50 12.5t-54 12.5q-33 0 -43 -10.5t-10 -26.5q0 -10 3 -23.5t7 -27.5q2 -10 10 -27.5t23.5 -51.5t41 -86t64.5 -128q0 -16 -10 -27q-96 -96 -162 -134t-106 -38 q-35 0 -55.5 26t-31 63.5t-14.5 80.5t-4 78z" />
<glyph unicode="R" horiz-adv-x="1011" d="M147 57q0 -20 17.5 -30.5t28.5 -14.5q25 -12 28.5 -16t22.5 -4q41 0 62.5 10t21.5 27q0 27 6 76t17 111.5t27.5 132t37.5 134.5q6 20 18 21q4 0 7 -2t10 -13q43 -76 82.5 -148.5t86 -139t103.5 -127t137 -109.5q49 -31 93 -49t81 -18q23 0 43.5 7t20.5 23q0 14 -6.5 34 t-15.5 36t-19 28.5t-21 14.5q-35 8 -67.5 21.5t-83.5 60.5l-50.5 50.5t-64.5 70.5q-12 14 -20 28q-35 59 -77 120t-63 112q0 10 4 12t15 6q47 14 92 27.5t87 31t81 42t72 59.5q86 92 122.5 184t36.5 168q0 51 -10 88.5t-20 57.5q-10 23 -21.5 36t-52.5 41q-6 4 -13.5 10.5 t-44.5 18.5q-29 10 -73.5 16.5t-91.5 6.5q-68 0 -132.5 -14.5t-120 -36t-100.5 -47t-75 -48.5q-4 -4 -9.5 -9t-5.5 -17q0 -8 9.5 -23.5t21.5 -30t24.5 -25.5t18.5 -11q8 0 8 -9q-12 -25 -23.5 -63.5t-25.5 -56.5q-10 -12 -13 -20.5t-14 -35.5q-70 -199 -125 -398.5 t-84 -406.5zM485 684q25 74 47.5 135.5t47 115.5t51 105.5t57.5 104.5q6 12 27 18q31 10 62.5 17.5t66.5 7.5q27 0 51.5 -7.5t38.5 -21.5q6 -6 10 -19.5t4 -37.5q0 -68 -19.5 -127.5t-53 -109.5t-76.5 -91t-88 -69q-20 -12 -33.5 -18.5t-23 -8.5t-18.5 -3t-22 -5 q-23 -8 -36 -11.5t-33 -3.5q-12 0 -27.5 3.5t-25.5 11.5q-6 4 -7 14z" />
<glyph unicode="S" horiz-adv-x="884" d="M41 440q0 -14 4 -30q8 -43 22.5 -75t31 -55.5t32.5 -40t29 -30.5q98 -123 226 -195.5t265 -72.5q35 0 51.5 1t28.5 5q57 23 92 71t35 111q0 29 -2 53.5t-12 81.5q-10 61 -29.5 140t-41 159t-42 154t-33.5 123q-20 84 -24 135t-4 67q0 76 19.5 119t29.5 43q23 0 45 -12 q23 -12 35 -33.5t18 -44t11.5 -43t13.5 -33.5q10 -14 35.5 -38.5t54.5 -32.5q20 -6 35 -6q16 0 29.5 8t13.5 18t-4.5 28.5t-8.5 37.5q-6 39 -22 85t-51 83q-68 74 -147 96t-161 22q-41 0 -63.5 -19.5t-35.5 -48t-18 -61t-12 -57.5q-2 -10 -2 -45q0 -14 2 -37.5t5.5 -47.5 t6.5 -44.5t5 -28.5q16 -86 37.5 -165.5t44 -156.5t43 -156t33.5 -165q4 -31 7 -74t3 -83q0 -33 -22.5 -54.5t-47.5 -21.5q-29 0 -53 8q-43 14 -86 38.5t-82 56.5t-69.5 67t-51.5 71q-4 10 -8 18.5t-4 14.5q0 33 7 46.5t7 35.5q0 8 -21.5 30.5t-50.5 41.5q-20 12 -48.5 20 t-55.5 8q-16 0 -30.5 -22.5t-14.5 -36.5v-31z" />
<glyph unicode="T" horiz-adv-x="794" d="M221 55q0 -10 9.5 -27.5t17.5 -21.5q25 -14 53.5 -26.5t50.5 -12.5q35 0 45.5 18.5t10.5 47.5q0 12 -1 24.5t-1 24.5q0 20 3 33.5t7 38.5q49 260 138 486t220 447q4 8 4 13q0 10 -14 24q66 12 142.5 21.5t162.5 9.5q16 0 26.5 -6t39.5 -16q23 -10 26.5 -18.5t16.5 -8.5 q25 0 38 9t23 13t18.5 17.5t8.5 44.5q0 8 -19.5 25.5t-47.5 35t-61.5 29.5t-60.5 12q-80 0 -155.5 -10t-149.5 -22.5t-146.5 -22.5t-146.5 -10q-51 0 -78.5 2t-43 5t-22.5 5t-13 2q-10 0 -28 -17.5t-18 -54.5v-47t5 -12q16 -16 48.5 -24.5t65.5 -8.5q39 0 83 4t67 6 q12 0 12 -8q-111 -227 -188.5 -458.5t-137.5 -479.5q-4 -16 -7 -45.5t-3 -40.5z" />
<glyph unicode="U" horiz-adv-x="1228" d="M176 201q0 -43 3 -81t7 -48q10 -18 23.5 -25.5t29 -11.5t31 -9.5t29.5 -19.5t40 -22.5t44 -8.5q27 0 53.5 10.5t40.5 22.5q127 111 244 242t233 266q10 10 17 10q10 0 10 -10q0 -8 -6 -33q-23 -92 -30 -193.5t-19 -207.5q-2 -20 -11 -33q-6 -10 -8 -21.5t-2 -21.5 q0 -20 12.5 -25.5t24.5 -13.5q23 -14 39 -24.5t33 -14.5q16 -4 20 -9t27 -5q29 0 29 20q0 4 -1.5 15.5t-1.5 46.5q0 213 36 410.5t112 402.5q25 66 63.5 126t63.5 126q14 35 14 45q0 6 -4 13t-8 16l-29 45q-10 18 -22 18q-29 0 -45.5 4t-22.5 4q-8 0 -28.5 -21.5 t-30.5 -37.5q-14 -23 -20.5 -35t-9.5 -20.5t-7 -16.5t-12 -22q-39 -63 -100.5 -152.5t-148.5 -200t-200 -238.5t-254 -269q-25 -25 -46 -33t-34 -8q-4 0 -7 6t-3 24q0 35 2 62.5t6 50.5q16 111 52 218.5t82 215t96.5 218t97.5 227.5l11 27.5t7 23.5q0 10 -3 26.5t-7 26.5 q-6 12 -20.5 19.5t-26.5 11.5q-31 12 -40 18t-17 6q-23 0 -37.5 -17.5t-24.5 -37.5q-4 -10 -10 -19.5t-12 -25.5q-66 -180 -138.5 -354t-130.5 -355q-18 -59 -36.5 -143t-18.5 -180z" />
<glyph unicode="V" horiz-adv-x="962" d="M246 133q0 -23 13 -42t13 -36q0 -14 3.5 -19t9.5 -11q29 -29 60.5 -46.5t49.5 -17.5q12 0 16.5 6t24.5 6q23 0 33 -6t25 -6q14 0 53 39q78 78 147.5 185.5t135 227t130 243.5t134.5 235q18 29 34.5 69.5t29.5 82.5t20.5 78t7.5 55q0 23 -14.5 37t-30.5 26 q-16 14 -19.5 23.5t-19.5 9.5q-12 0 -25.5 1t-32.5 1q-45 0 -45 -31q0 -8 2.5 -16t2.5 -31q0 -72 -25 -133.5t-55 -118.5q-74 -135 -143.5 -259t-141.5 -255q-41 -74 -74 -120t-57.5 -70.5t-39.5 -32.5t-22 -8q-10 0 -10 34v21q0 12 2 27q23 227 63 451t70 448q2 12 2 22v21 q-2 23 -6 35t-8 22q-10 18 -25.5 24.5t-27.5 6.5q-25 0 -41 2t-27 2q-29 0 -37 -15.5t-8 -37.5q0 -33 -2 -47.5t-4 -21.5t-5 -15.5t-3 -26.5q-4 -100 -19.5 -214t-34 -234.5t-38 -244.5t-31.5 -243q-2 -10 -3 -24.5t-1 -22.5q0 -10 -3 -18.5t-3 -16.5z" />
<glyph unicode="W" horiz-adv-x="1400" d="M209 90q0 -10 4 -22q2 -10 10 -14.5t19.5 -7.5t22.5 -6t20 -11q53 -47 73 -47q35 0 68 26.5t66.5 65.5t68.5 84t74 80q25 23 40 42t32 44q10 16 18 16q4 0 7 -5t7 -32q10 -84 18.5 -150.5t37.5 -127.5q10 -23 40.5 -31t41.5 -19q14 -14 27.5 -20t35.5 -8q29 -2 40 -8.5 t19 -6.5q39 0 62.5 20.5t42.5 47.5q131 186 215 390t131 419q20 96 30.5 162.5t10.5 144.5q0 20 -1 40t-3 42q-2 29 -7.5 55.5t-19.5 55.5q-16 35 -38.5 43t-51.5 8q-23 0 -36 2t-25 2q-16 0 -21.5 -18.5t-5.5 -53.5q0 -23 6 -38t14.5 -29.5t14.5 -29.5t6 -40q0 -23 -1 -36 t-1 -25t-1 -24.5t-1 -31.5q0 -16 -2 -36.5t-10 -53.5q-49 -213 -128 -424t-204 -379q-10 -12 -17.5 -20t-13.5 -8q-10 0 -14 18q-27 133 -27 258q0 98 15.5 188.5t44.5 180.5q4 10 5 19.5t1 27.5q0 35 -35 76q-18 23 -43 24q-10 2 -25.5 6.5t-27.5 4.5q-6 0 -9.5 -3.5 t-7.5 -13.5q-10 -23 -18 -48.5t-15 -53.5q-4 -16 -7 -27.5t-6 -21t-7 -20.5t-12 -27q-49 -111 -138.5 -235t-189.5 -228q-29 -29 -39 -35t-14 -6q-6 0 -6 10q0 4 2 20.5t8 44.5q51 246 115.5 487t158.5 466q2 4 4 10t2 10q0 2 -6 10.5t-15 17.5l-17.5 17.5t-12.5 8.5 q-16 4 -31.5 8t-31.5 4q-41 0 -50.5 -9.5t-13.5 -25.5q-57 -211 -122.5 -426t-112.5 -430q-6 -25 -8 -38t-3.5 -23.5t-2.5 -20.5t-3 -29q-6 -41 -13 -83t-7 -93v-47z" />
<glyph unicode="X" horiz-adv-x="987" d="M-33 18q0 -20 1 -24t12 -14q25 -25 55.5 -40.5t64.5 -15.5q10 0 14.5 9.5t26.5 17.5q20 6 24.5 13t6.5 16q16 66 49 126t75 116.5t90 108.5t97 105q23 23 31 30t12 7q10 0 15 -27q12 -57 20 -118.5t18.5 -123t27 -120.5t44.5 -115q8 -16 12.5 -20t16.5 -8 q31 -12 59.5 -20.5t51.5 -8.5q12 0 26 3t21 9q10 10 13 17.5t3 17.5q0 14 -8 29.5t-17.5 30t-19.5 28.5t-12 29q-29 131 -66 260t-59 266q0 12 4 18.5t20 22.5q84 76 167 145.5t169 143.5q18 16 39 33.5t49 46.5q45 43 84 70.5t73 52t62.5 48t55.5 58.5q4 6 5 14.5t1 12.5 q0 10 -16.5 30.5t-32.5 24.5q-29 8 -53.5 19.5t-51.5 11.5q-12 0 -17 -4t-16 -17q-59 -68 -123.5 -128t-131 -117.5t-133 -113.5t-128.5 -118q-14 -14 -26.5 -19.5t-18.5 -5.5q-8 0 -12 7.5t-8 29.5q-10 61 -16.5 117.5t-6.5 116.5q0 72 9.5 105.5t9.5 47.5q0 16 -17.5 35 t-29.5 41q-8 14 -22.5 17.5t-49.5 3.5q-18 0 -31.5 -1t-23.5 -10q-14 -10 -16.5 -16t-2.5 -16t3 -21.5t3 -19.5q0 -10 -2 -14.5t-5 -9.5t-5 -12t-2 -22q0 -57 2 -108t8 -108.5t17.5 -129t29.5 -170.5q0 -12 -3 -18t-25 -29q-47 -51 -98.5 -99t-101.5 -98.5t-98 -103.5 t-87 -117q-10 -16 -15.5 -24t-13.5 -25q-20 -41 -48 -81t-28 -81z" />
<glyph unicode="Y" horiz-adv-x="1028" d="M246 545q0 -18 21.5 -51t60.5 -68q20 -18 41.5 -32.5t42 -26t35 -17.5t20.5 -6q49 0 93 14.5t79 36t60.5 44t39.5 38.5l17 19q-53 -180 -104.5 -363.5t-84.5 -357.5q-6 -35 -11 -66t-11 -57q-12 -57 -28.5 -115.5t-16.5 -126.5q0 -16 1 -34.5t3 -26.5q4 -20 29.5 -33.5 t66.5 -20.5q20 -4 31.5 -7t21.5 -3q12 0 13 17q0 10 4 20t8 41q80 590 220 1027t357 743q8 10 10.5 17t2.5 11q0 8 -8.5 30.5t-14.5 29.5q-27 27 -64.5 36t-58.5 9q-8 0 -22 -21q-10 -14 -47 -72.5t-84 -152.5q-76 -147 -133.5 -226t-90.5 -112q-45 -45 -101 -89t-130 -91 q-16 -10 -32.5 -13.5t-28.5 -3.5q-20 0 -29.5 7.5t-9.5 13.5q0 66 8 145.5t21.5 165.5t29.5 174t33 170q6 29 14 47.5t15.5 33.5t12.5 29.5t5 37.5q0 16 -8.5 36.5t-18.5 22.5q-29 4 -59.5 11t-69.5 7q-10 0 -16 -18q-31 -109 -54.5 -216.5t-41.5 -221.5q-4 -29 -11.5 -44.5 t-7.5 -47.5q0 -29 -4 -41.5t-6 -32.5q-2 -33 -4 -70t-3 -69.5t-2 -55t-1 -24.5z" />
<glyph unicode="Z" horiz-adv-x="1146" d="M25 156q0 -14 11 -37t25.5 -45.5t28.5 -40t21 -21.5q98 -61 200.5 -86.5t208.5 -25.5q131 0 276.5 34.5t274.5 92.5q14 6 15 12t14 6q16 0 17 -4t18 -4q14 0 14 16q0 27 -24.5 53.5t-41.5 55.5q-4 6 -14 9t-22.5 6t-22.5 4t-14 1q-10 0 -22.5 -4t-35.5 -12 q-43 -16 -103.5 -38t-128 -41t-136 -33.5t-125.5 -14.5q-37 0 -62.5 8t-52.5 8q-18 0 -37.5 6.5t-36 13.5t-28 16t-11.5 15q0 8 4.5 17.5t8.5 19.5q31 61 81 110.5t108.5 93.5t119.5 85t115 86q57 8 112.5 20.5t111.5 24.5t113.5 20.5t120.5 8.5q33 0 52.5 -1t29.5 -1 t15.5 -1t9.5 -1q10 0 21.5 12t11.5 33q0 23 -11 35q-29 37 -82 53t-118 16q-18 0 -19 11q0 4 1 7t10 9q14 10 41.5 34.5t58.5 52.5t59.5 55.5t44.5 45.5q33 35 52.5 57.5t29.5 42t13.5 38t3.5 47.5q0 12 -15.5 30.5t-34 37t-36 32.5t-23.5 18q-84 47 -181 70t-196 23 q-115 0 -222 -27t-187 -80q-6 -4 -7.5 -8t-1.5 -19q12 -53 24.5 -79.5t43.5 -42.5q10 -4 24.5 -9.5t30.5 -5.5q14 0 28.5 4t18.5 11q35 66 115 91t164 25q33 0 76 -3t82 -9t66.5 -17.5t27.5 -27.5q0 -6 -5 -14.5t-9 -14.5q-43 -63 -112 -127.5t-146.5 -123t-155.5 -109.5 t-141 -90q-8 -4 -30 -9.5t-47.5 -9.5t-49 -7t-31.5 -3q-12 0 -43 6t-80 23q-10 4 -22.5 7t-22.5 3q-14 0 -32.5 -12.5t-18.5 -34.5q0 -33 -3 -36t-3 -17q0 -8 5 -20.5t11 -20.5q10 -10 36.5 -20.5t55.5 -14.5q14 -2 14 -10q0 -4 -12 -15q-68 -55 -116 -96t-80.5 -73.5 t-51 -58.5t-26.5 -46q-4 -10 -5 -20.5t-1 -30.5z" />
<glyph unicode="[" horiz-adv-x="667" d="M61 -256q0 -20 12.5 -46t31 -47.5t40 -36.5t39.5 -17q66 -4 118 -5.5t75 -1.5h39q43 0 72.5 1t37.5 10q4 4 13.5 10t18.5 17.5t15.5 29.5t6.5 47q0 10 -11.5 32.5t-33.5 22.5q-31 0 -66 -4t-109 -4q-35 0 -55 2t-29.5 7.5t-11.5 11.5t-2 14q0 12 3 36.5t26 86.5 q63 180 128.5 388t132 414t130 393t123.5 325q10 25 20.5 39t25.5 21t41 9t69 2h22q47 0 65.5 -2t28.5 -2q35 0 47.5 10.5t28.5 44.5l7 17.5t3 17.5q0 23 -6 27t-8 14q-4 18 -44 24.5t-126 6.5h-76q-45 0 -85 -3t-75 -16q-10 -4 -25.5 -14t-38 -44t-52 -100.5t-68.5 -185.5 l-455 -1372q-14 -41 -22 -68.5t-13.5 -46t-6.5 -34t-1 -31.5z" />
<glyph unicode="\" horiz-adv-x="765" d="M358 1278q0 -31 1 -62.5t6 -60.5l157 -1059q4 -29 6 -68.5t2 -56.5q0 -35 9.5 -57.5t19.5 -42.5t24.5 -25.5t41.5 -5.5q29 0 39 10.5t24 10.5q10 0 10 63q0 31 -3 72t-11 100q-23 168 -43 302t-39.5 249t-36 217.5t-28.5 206.5q-4 37 -7.5 70t-3.5 71q0 41 9.5 67t9.5 42 q0 59 -22.5 79.5t-61.5 20.5q-8 0 -14.5 2t-16.5 2q-27 0 -35 -6q-23 -14 -33 -55q-4 -10 -4 -35v-51z" />
<glyph unicode="]" horiz-adv-x="667" d="M-246 -338q0 -23 6.5 -27t8.5 -14q4 -18 44 -24.5t126 -6.5h75q45 0 85 3.5t75 15.5q14 6 29.5 15t37 43t50 100.5t67.5 185.5l455 1372q14 41 22.5 67.5t12.5 46t6 35t2 31.5q0 18 -13.5 44t-31.5 48.5t-39.5 39t-38.5 16.5q-66 4 -110.5 5t-102.5 1q-61 0 -83.5 -1 t-39.5 -9q-14 -6 -36.5 -26.5t-22.5 -78.5q0 -10 11 -32.5t34 -22.5q14 0 26.5 1t29 3t39 3t59.5 1q43 0 67.5 -3t34.5 -7t12 -10.5t2 -14.5q0 -10 -7 -49t-19 -74q-41 -121 -84 -254t-87 -271t-88 -277.5t-87 -267.5t-86 -243.5t-82 -205.5q-10 -25 -20.5 -39t-27 -21.5 t-42 -9.5t-66.5 -2h-23q-47 0 -65.5 2t-28.5 2q-35 0 -47 -10t-29 -45l-7 -17.5t-3 -17.5z" />
<glyph unicode="^" horiz-adv-x="1126" d="M430 1114q0 -25 2 -43t6 -22q6 -6 22.5 -25.5t43.5 -19.5q12 0 20 8t22.5 19t50.5 33.5t99.5 61.5t169.5 101q10 6 14.5 7t10.5 1q10 0 14 -3t13 -18l178 -333q10 -20 27.5 -31.5t23.5 -11.5q18 0 26.5 5t26.5 29q10 12 15.5 9.5t5.5 19.5q0 10 -3.5 19.5t-13.5 33.5 l-180 387q-10 23 -17.5 25t-13.5 14q-2 4 -13 14.5t-40 10.5q-14 0 -35 -10l-354 -174q-35 -16 -67.5 -34t-37.5 -28q-2 -6 -9 -19.5t-7 -25.5z" />
<glyph unicode="_" horiz-adv-x="1282" d="M-244 -197v-131h1434v131h-1434z" />
<glyph unicode="`" d="M584 1657q0 -29 4 -45.5t20 -22.5q35 -14 75 -33.5t60 -33.5l209 -136q18 -12 30.5 -15t33.5 -3q20 0 26 21q2 6 2 14t5 18l7 17.5t3 17.5q0 14 -53 51l-209 144q-35 25 -55.5 40t-32 23t-16.5 11.5t-9 3.5q-6 0 -12 3t-17 3q-25 0 -49 -25q-12 -12 -17 -23.5t-5 -29.5z " />
<glyph unicode="a" horiz-adv-x="958" d="M61 213q0 -59 18.5 -87t26.5 -34q37 -29 60.5 -47t39 -28.5t26 -13.5t18.5 -3q6 0 14 2t19 6q27 8 53 19.5t55 29t61.5 43t73.5 62.5l111 102q37 37 49 37q8 0 8 -10q0 -4 -4 -29.5t-4 -73.5q0 -43 7 -87t28 -89q10 -20 37.5 -30.5t50.5 -10.5q10 0 19.5 3t19.5 6 q27 4 35 14t8 14t-4 12q-23 35 -33 74t-10 80q0 47 9 93t19 89q14 59 41 116.5t59 113t67.5 106.5t70.5 99q8 12 8 22q0 6 -4 12q-12 18 -30.5 22.5t-26.5 4.5q-16 0 -29.5 11.5t-19.5 27.5q-4 10 -13.5 21.5t-17.5 19.5q-29 29 -59.5 44t-65.5 15q-25 0 -45 -6 q-176 -51 -328 -162q-47 -35 -125 -103.5t-170 -203.5q-76 -113 -99.5 -182.5t-23.5 -120.5zM199 203q0 23 12 55.5t32.5 70.5t48 79t60.5 79q88 106 202 192.5t259 164.5q20 10 40 15t24 5q27 0 37 -15t10 -26q0 -20 -11 -30q-16 -16 -32.5 -37t-26.5 -41 q-39 -74 -97.5 -137.5t-126 -124t-141 -121t-145.5 -127.5q-29 -27 -58.5 -42.5t-41.5 -15.5q-29 0 -37 18.5t-8 37.5z" />
<glyph unicode="b" horiz-adv-x="790" d="M123 217q0 -25 4 -50.5t10 -51.5q6 -23 23.5 -40.5t38 -31.5t39 -23.5t28.5 -11.5q18 -6 29.5 -7t26.5 -1q43 0 80.5 19.5t71.5 49t62.5 65.5t53.5 71q8 12 14 20t12.5 19.5t13.5 26t17 38.5q23 53 50.5 103.5t37.5 115.5q6 39 10.5 49.5t4.5 28.5q0 10 -2.5 21.5 t-2.5 21.5q0 6 2.5 12.5t6.5 6.5q12 0 30.5 -6.5t28.5 -6.5q55 0 105.5 13.5t99.5 32t100 36t111 25.5q8 2 13 15.5t5 19.5q0 12 -9 26.5t-15 18.5q-16 12 -41 12q-10 0 -14.5 2t-10.5 2q-4 0 -17.5 -4t-29.5 -8q-147 -41 -223 -50.5t-94 -9.5t-28.5 2.5t-21 9.5t-23.5 21.5 t-34 38.5q-16 18 -33.5 34.5t-38.5 16.5q-27 0 -46 -32.5t-19 -59.5q0 -10 2 -21.5t8 -15.5q12 -10 20.5 -29.5t12.5 -40t6 -38t2 -21.5q0 -8 -4 -22.5t-8 -30.5q-16 -61 -33.5 -111.5t-40 -98.5t-53.5 -96t-76 -106q-10 -14 -32.5 -28.5t-39.5 -14.5q-25 0 -29.5 19.5 t-4.5 54.5q0 88 22.5 170t55 161t71.5 155.5t72 154.5q23 51 58.5 113.5t78.5 129t89 136.5t87 135q10 18 28.5 34.5t36 33t31 34t13.5 37.5q0 23 -8.5 39.5t-30.5 26.5q-35 12 -60 12q-43 0 -71.5 -22.5t-51.5 -63.5q-66 -115 -128 -222t-121.5 -215t-114.5 -216.5 t-107 -226.5q-6 -12 -15 -39t-19.5 -55.5t-18.5 -53t-10 -31.5q-18 -53 -30.5 -110.5t-12.5 -116.5z" />
<glyph unicode="c" horiz-adv-x="708" d="M90 182q0 -47 25 -96q4 -8 20.5 -24.5t44 -34t63.5 -29.5t79 -12q66 0 141.5 41t161.5 110q66 53 122 94t103 62q10 4 13 9t3 15q0 6 4 10.5t4 10.5q0 2 -6 11t-16 18.5t-22.5 16.5t-22.5 7q-23 0 -51.5 -12t-61 -31.5t-68.5 -45t-69 -50.5q-76 -57 -147.5 -93 t-143.5 -36q-14 0 -24.5 11t-10.5 32q0 39 33 128t86 185q53 92 119 178t131 152q12 12 17.5 16t15.5 4q8 0 12 -7t4 -13q0 -12 -7 -27.5t-15.5 -31t-15.5 -33t-7 -31.5q0 -29 23 -45l53 -39q16 -14 41 -14q20 0 29.5 9t9.5 21q0 27 10 57t22.5 57.5t23.5 48t13 30.5 q2 8 2 14q0 4 -2 9.5t-2 21.5q0 12 -1 17.5t-7 11.5q-41 41 -100.5 63.5t-112.5 22.5q-12 0 -17 -1t-16 -5q-66 -33 -125 -92.5t-112 -134t-101.5 -158.5t-87.5 -164q-10 -23 -15 -46.5t-9 -33.5q-10 -39 -21.5 -78t-11.5 -76z" />
<glyph unicode="d" horiz-adv-x="1015" d="M37 178q0 -57 35 -117q2 -6 19.5 -16t41 -20.5t46 -18.5t38.5 -8q12 0 28.5 2t33.5 12q76 45 143 104.5t131.5 126t126 138.5t123.5 143q16 18 20 19q4 0 4 -4q0 -2 -7 -17.5t-18 -37t-21.5 -47t-16.5 -46.5q-16 -59 -34.5 -135t-18.5 -168q0 -63 12 -133 q2 -10 30.5 -24.5t43.5 -14.5q18 0 28.5 3t16.5 8t12 13.5t16 18.5q8 8 9 14q0 12 -8.5 36t-8.5 79q0 27 7.5 71t24.5 111.5t47 161.5t77 223l33 90q25 70 64.5 144t86.5 147.5t96.5 147t94.5 145.5q16 27 24 47.5t23 40.5q16 23 29.5 48.5t13.5 64.5q0 12 -12.5 24.5 t-29 21.5t-32.5 15t-27 6q-20 0 -28 -6t-19 -18q-66 -86 -119 -178t-106 -184.5t-112.5 -183.5t-139.5 -177q-2 -2 -16 -2q-18 12 -47 20.5t-50 18.5q-25 10 -57 10q-41 0 -83 -11.5t-64 -27.5q-129 -86 -244 -202.5t-188 -258.5q-72 -137 -72 -219zM193 197q0 4 2 13t4 13 q31 84 82 166t113.5 152.5t135 129t146.5 95.5q20 10 51 10q47 0 47 -20q0 -27 -12 -38t-31 -36q-100 -135 -214 -265t-247 -235q-14 -10 -23 -13t-20 -11q-10 -8 -20 -8q-8 0 -11 15t-3 32z" />
<glyph unicode="e" horiz-adv-x="749" d="M109 344q0 -29 7 -78t17 -80q16 -51 44 -88t59 -53q6 -4 20 -10t33.5 -15.5t40 -17.5t37.5 -14q25 -10 42 -12.5t35 -2.5q20 0 32.5 2.5t41.5 18.5q117 63 188.5 116.5t117.5 96.5t78 79t69 66q8 6 9 14.5t1 14.5q0 4 1 8t1 19q0 16 -15.5 28.5t-25.5 12.5q-6 0 -15 -2.5 t-26 -12.5q-47 -29 -87 -63.5t-81 -69.5t-85 -68.5t-97 -62.5q-70 -37 -100.5 -47t-57.5 -10q-33 0 -63 16q-14 8 -31.5 34.5t-17.5 51.5q0 8 12 16q66 37 128 86.5t121.5 106.5t116 119.5t109.5 122.5q23 25 36 45t30 51q18 37 32.5 71.5t14.5 75.5q0 61 -25 91t-41 36 q-31 10 -57.5 16.5t-67.5 6.5q-76 0 -134 -32t-85 -60q-117 -125 -213 -261.5t-139 -293.5q-6 -23 -8 -38.5t-2 -29.5zM291 420q16 68 50 133t78 124.5t94 113t99 98.5q14 14 19.5 15t21.5 11q10 6 20.5 12.5t22.5 6.5q10 0 11.5 -6t1.5 -19q0 -29 -11.5 -50t-25.5 -44 q-10 -16 -14.5 -25.5t-8.5 -17.5t-9 -17.5t-17 -23.5q-70 -84 -146 -165t-168 -150q-10 -6 -14 -6t-4 10z" />
<glyph unicode="f" horiz-adv-x="548" d="M29 -283q0 -23 5 -49t9 -30q14 -10 23.5 -17.5t27.5 -7.5q6 0 26.5 8t37.5 14q23 8 39 24.5t18 35.5q10 115 32.5 223.5t53.5 213t66.5 205.5t70.5 204q4 8 6 13t13 13q29 23 63.5 32t69.5 24q27 10 30 13t19 7q70 12 135.5 45t130.5 57q6 4 11.5 6.5t11.5 6.5 q16 8 34.5 17t18.5 32q0 10 -16.5 24.5t-51.5 14.5q-53 0 -105 -15.5t-101.5 -34t-97.5 -33.5t-93 -15q-10 0 -10 10t6 26.5t13 35t15.5 34.5t12.5 25q10 20 14 32.5t8 28.5q14 51 43 96t62 88t64.5 84t52.5 82q6 14 8 33q2 14 12 28.5t20.5 30t19.5 29.5t9 31q0 18 -16 41 q-27 35 -70 35q-23 0 -57.5 -12.5t-46.5 -32.5q-47 -76 -87 -153t-79 -160t-78 -175t-84 -201q-8 -18 -24.5 -23t-22.5 -5q-29 0 -61.5 14t-55.5 14q-10 0 -19 -12t-9 -29q0 -10 4 -23l8 -26q12 -37 44 -61.5t50 -57.5q4 -6 4 -14q0 -12 -10 -50t-27.5 -89t-37 -110.5 t-37 -116t-31.5 -103.5t-19 -74q-4 -20 -10 -45.5t-10 -35.5q-16 -53 -35.5 -106.5t-19.5 -113.5z" />
<glyph unicode="g" horiz-adv-x="864" d="M-25 -700q0 -25 7 -45q8 -29 42.5 -44.5t63.5 -15.5t49.5 2t36.5 11.5t30.5 25.5t31.5 47q8 16 26.5 56t41 92.5t49 115t53.5 125.5q39 92 97 176t141 168t193.5 175.5t252.5 197.5q12 10 14 20.5t2 14.5q0 18 -12 31q-20 20 -54 20q-8 0 -15 -2t-34 -18 q-90 -53 -177 -115t-165 -127q-8 0 -8 8t10.5 37t38 89.5t77.5 155.5t130 238q10 20 13 39t3 41q0 18 -4 35.5t-18 36.5q-33 43 -89.5 65.5t-121.5 22.5q-4 0 -35 -7t-83 -33t-122.5 -78t-150.5 -142q-27 -31 -58.5 -69t-60.5 -74.5t-51.5 -69.5t-30.5 -53 q-16 -35 -37.5 -80t-21.5 -111q0 -33 3 -42t11 -17q29 -29 59.5 -54.5t63.5 -39.5q27 -12 61 -13q39 0 75 16.5t71 43t68.5 60.5t68.5 67q8 0 10 -7q-55 -129 -96 -214t-74 -143t-58.5 -96t-52 -73t-56 -75t-68.5 -99t-65.5 -102t-43 -76t-24 -56.5t-7.5 -41.5zM195 276 q0 10 7 33t17 45q16 37 51 89.5t80 107.5t93.5 107.5t88.5 91.5q23 20 39.5 28t46.5 33q23 16 44.5 29.5t50.5 13.5q18 0 35 -6q16 -6 18 -11.5t2 -9.5t2 -6t2 -6q0 -6 -6 -14q-47 -72 -105.5 -146.5t-125 -145.5t-136 -133.5t-139.5 -105.5q-12 -8 -22.5 -9t-18.5 -1 q-6 0 -15 5t-9 11z" />
<glyph unicode="h" horiz-adv-x="856" d="M43 80q0 -14 8 -23q25 -25 62 -41t45 -16q23 0 42 8t36 19q8 4 10 7t12 13q45 53 94 122t99.5 141.5t102.5 144t105 131.5q20 23 27 22q4 0 4 -4q0 -6 -8 -24q-18 -45 -36.5 -94.5t-39.5 -116.5q-39 -131 -39 -230q0 -76 25.5 -124t85.5 -70q25 -10 37 -12.5t22 -2.5 q20 0 37 6.5t35 10.5q10 4 22.5 11t16.5 17q4 8 7 14.5t3 12.5q0 12 -14 16q-12 4 -26.5 6.5t-24.5 6.5q-23 12 -37.5 36.5t-14.5 98.5q0 104 33 222t74 216q12 29 21.5 58.5t31.5 66.5q23 37 42.5 76t19.5 88q0 10 -10.5 22.5t-20.5 16.5q-12 4 -36 9t-40 5t-47 -10 q-16 -6 -26.5 -15.5t-30.5 -31.5q-113 -123 -226.5 -259t-238.5 -311q-8 -10 -10.5 -13t-4.5 -3q-4 0 -4 4q0 2 3 8.5t16 32.5q57 123 116.5 258t122 267.5t127 254t133.5 218.5q12 16 18.5 27t20.5 28q41 49 69 79.5t28 71.5q0 20 -4.5 30.5t-14.5 21.5q-12 12 -27.5 21 t-29.5 9q-8 0 -17.5 2t-25.5 2t-29.5 -5t-23.5 -23q-76 -152 -143.5 -271.5t-137.5 -246.5q-8 -14 -14 -26.5t-19 -39.5q-49 -106 -103 -213.5t-105.5 -218.5t-94.5 -224.5t-72 -234.5q-6 -27 -12 -33t-6 -22z" />
<glyph unicode="i" horiz-adv-x="450" d="M111 219q0 -23 2 -43t8 -43q8 -29 24.5 -57.5t38 -52t45 -38t45.5 -14.5q70 0 124.5 35t86.5 64l84 77q12 12 22.5 24.5t10.5 31.5q0 6 -1 13t-11 15t-24.5 11.5t-26.5 3.5q-25 0 -42.5 -9.5t-54.5 -35.5q-31 -23 -51 -36t-36.5 -20.5t-31 -10.5t-30.5 -3q-27 0 -32 25.5 t-5 40.5q0 23 11.5 77t37.5 123q10 29 25.5 67t33 79t34 78.5t28.5 66.5q18 37 40.5 67.5t42 59.5t34 60.5t14.5 72.5q0 14 -4 20.5t-12 12.5q-10 10 -27.5 13t-34.5 3q-29 0 -57.5 -11t-44.5 -44q-57 -119 -104.5 -230.5t-94.5 -224.5q-10 -23 -17 -48t-18 -54 q-18 -53 -25 -90t-7 -76zM532 1321q0 -16 3.5 -34.5t11.5 -35.5q8 -14 29.5 -27.5t52.5 -13.5q35 0 68.5 33t62.5 68q6 8 8 17t2 20q0 16 -4.5 33.5t-20.5 33.5q-10 12 -35.5 19.5t-50.5 7.5q-33 0 -58.5 -8.5t-41.5 -26.5q-14 -16 -20.5 -40t-6.5 -46z" />
<glyph unicode="j" horiz-adv-x="487" d="M-291 -700q0 -4 1 -16.5t7.5 -27t17.5 -27.5t29 -20q25 -8 34 -13t16 -5q20 0 35.5 8t26.5 20.5t18.5 26t11.5 21.5q29 80 55.5 153.5t53 147.5t54 148.5t58.5 152.5q10 23 28.5 56.5t41.5 64.5q84 119 174 230.5t200 209.5q23 20 40.5 33.5t29.5 26t18.5 26.5t6.5 39 q0 18 -10.5 22.5t-26.5 4.5q-12 0 -23.5 -4.5t-38.5 -20.5q-18 -10 -43.5 -28.5t-53.5 -40t-55.5 -44t-52.5 -43.5q-23 -20 -32 -20q-4 0 -4 6q0 12 8 31q25 63 45 116.5t40.5 103.5t42 98t48.5 102q4 6 10 19t6 20q0 10 -5 20.5t-11 20.5t-23.5 14t-33.5 4q-12 0 -21.5 -1 t-25.5 -1q-14 0 -33 -14q-10 -8 -19.5 -17.5t-15.5 -30.5q-49 -162 -111.5 -318.5t-120.5 -311.5q-10 -29 -17 -49.5t-12 -35t-9.5 -26.5t-8.5 -25q-29 -98 -71.5 -192t-91 -186.5t-94.5 -185.5t-83 -191q-4 -10 -7 -23.5t-3 -27.5zM506 1333q0 -8 2 -19t2 -24q0 -35 10 -49 q14 -23 31.5 -36t34 -19t30 -8t19.5 -2q16 0 33.5 6t21.5 28q2 14 13.5 25.5t22.5 24t20.5 26.5t9.5 37q0 14 -4 20.5t-31 28.5q-29 25 -49.5 32t-46.5 7q-33 0 -59.5 -15.5t-47.5 -39.5q-12 -14 -12 -23z" />
<glyph unicode="k" horiz-adv-x="770" d="M49 59q0 -23 10.5 -36t22.5 -19t23.5 -8t15.5 -2q16 0 27.5 3t23.5 3q16 0 27.5 16.5t19.5 39t13.5 46t9.5 39.5q16 96 48 186.5t66 172.5q2 8 9 8q4 0 8 -3t8 -13q20 -47 57 -157t125 -269q10 -16 19.5 -24.5t19.5 -16.5q8 -6 37 -35q25 -25 61.5 -42.5t96.5 -17.5 q35 0 49 23q6 10 24.5 20.5t18.5 30.5q0 14 -3 19.5t-9.5 6.5t-14.5 1t-16 4q-35 14 -57.5 26.5t-40 27.5t-33 35.5t-37.5 51.5q-6 8 -23.5 41t-36 71t-34 72.5t-19.5 49.5q-25 80 -34 105.5t-9 35.5q0 16 15 27q82 53 165.5 111.5t161.5 123.5q18 16 25.5 27.5t32.5 33.5 q14 12 30.5 32t30.5 39.5t22.5 36.5t8.5 30q0 14 -37 37q-20 12 -30.5 15t-24.5 3q-33 0 -62 -20q-10 -8 -20.5 -17.5t-20.5 -25.5q-63 -100 -156.5 -174t-191.5 -134q-16 -10 -25 -10q-6 0 -6 6t6 19q53 125 101.5 250.5t120.5 244.5q8 12 15 25.5t36 54.5q25 35 43 66 t18 78t-75 57q-37 4 -46.5 6t-21.5 2q-18 0 -33 -39q-4 -10 -7 -17t-15 -36q-133 -315 -269.5 -624.5t-240.5 -628.5q-2 -4 -3 -12.5t-6 -16.5q-6 -16 -10 -33.5t-4 -28.5z" />
<glyph unicode="l" horiz-adv-x="475" d="M78 190q0 -37 6 -69q8 -43 39 -73t65.5 -48t64.5 -27.5t36 -9.5q59 0 106 25.5t87 65.5t77 87t76 90q16 16 28.5 26.5t12.5 31.5q0 25 -29 36t-41 11q-35 0 -71.5 -27.5t-72.5 -65.5t-72 -77t-68 -60q-14 -8 -35 -8q-33 0 -41 25q-6 20 -8 38.5t-2 37.5q0 68 26.5 128 t50.5 124q45 119 106.5 231.5t130 222t142.5 219t144 222.5q20 35 20 71q0 33 -16 58q-8 10 -22.5 16t-31.5 6q-16 0 -30.5 -2t-36.5 -2q-31 0 -49.5 -18.5t-31.5 -46t-23.5 -57.5t-22.5 -52q-59 -100 -120.5 -209t-118 -216.5t-105.5 -209.5t-82 -188q-35 -88 -61.5 -161 t-26.5 -145z" />
<glyph unicode="m" horiz-adv-x="1400" d="M61 176q0 -47 13 -98q4 -12 7 -17.5t9 -9.5q37 -29 82 -44t90 -15q6 0 14.5 4t18.5 8q53 27 110.5 62.5t102.5 80.5q10 10 14 11q4 0 5 -5.5t1 -25.5q0 -23 15.5 -46.5t81.5 -53.5q49 -23 104 -23q61 0 109.5 25.5t89.5 62.5t78.5 78t76.5 70q10 8 17 8q8 0 8 -12 q0 -45 17.5 -96.5t33.5 -86.5q33 -66 56.5 -89t39.5 -27q23 -4 39.5 -10.5t38.5 -6.5q23 0 36 10.5t13 22.5t-9 24.5t-19 16.5q-4 2 -8.5 5t-10.5 13q-35 53 -50 104.5t-15 100.5q0 78 33.5 163t109.5 212q10 16 22.5 26.5t23.5 19.5t19.5 18.5t8.5 23.5t-8 29 q-12 23 -22.5 29.5t-45.5 11.5q-12 2 -17 4t-9.5 5t-12.5 5t-22 2q-25 0 -41.5 -8t-28.5 -20.5t-19.5 -26t-9.5 -21.5q-29 -78 -77 -141.5t-106 -119.5t-118.5 -110.5t-113.5 -115.5q-29 -33 -63 -50.5t-56 -17.5q-8 0 -13.5 12.5t-5.5 20.5q0 35 18.5 96.5t69.5 159.5 q18 37 44 71.5t50.5 68.5t46 69t36.5 72q6 18 6 30q0 4 -1 6t-7 9q-41 41 -95 41q-43 0 -80 -29q-31 -23 -43 -53q-35 -84 -85 -168t-114.5 -159t-140 -137.5t-157.5 -103.5q-16 -8 -23 -8q-6 0 -12 7t-6 16q47 182 140 352t206 328q16 23 20 43t4 28q0 16 -1 25.5t-9 13.5 q-27 16 -63 17q-55 0 -87 -26t-38 -42q-12 -31 -22.5 -51.5t-21.5 -41t-26.5 -48t-36.5 -72.5q-29 -61 -64.5 -121.5t-67.5 -122t-54.5 -126t-22.5 -136.5z" />
<glyph unicode="n" horiz-adv-x="860" d="M61 143q0 -16 4.5 -33.5t10.5 -25.5q10 -12 30.5 -28.5t44 -31t43 -24.5t29.5 -10q14 0 39 4t37 18q10 12 19.5 18.5t19.5 14.5t21.5 21.5t27.5 35.5q37 53 81 109.5t107 140.5q6 8 13 8q6 0 6 -8q0 -4 -9.5 -37.5t-9.5 -124.5q0 -80 35 -127q20 -29 39 -40t41 -31 q18 -16 56 -22.5t51 -6.5q29 0 41 19.5t12 29.5q0 16 -9.5 26.5t-21.5 20.5q-10 8 -38.5 26.5t-32.5 47.5q-4 16 -10.5 38t-6.5 50q0 14 2 40t5 52.5t8.5 51t9.5 41.5q23 78 55.5 145t87.5 158q8 12 14.5 29.5t6.5 23.5q0 18 -12.5 35.5t-28.5 19.5q-25 2 -38.5 11.5 t-35.5 9.5q-10 0 -17.5 -2t-14.5 -10.5t-16 -26t-24 -45.5q-16 -37 -54 -75t-96.5 -99.5t-138 -155.5t-184.5 -242q-18 -27 -35 -26q-4 0 -5 7t-1 13q0 2 4 19.5t10.5 41t13.5 46t13 36.5q51 127 87 203t59 117q41 78 80.5 125t50.5 59q29 35 37 57.5t8 39.5q0 10 -3.5 19 t-7.5 17q-14 31 -82 31q-49 0 -71 -20q-14 -12 -17.5 -19.5t-15.5 -25.5q-35 -51 -61.5 -97.5t-49 -90.5t-44 -90t-44.5 -99q-12 -31 -28.5 -70t-31.5 -78t-26.5 -73.5t-13.5 -57.5q-2 -16 -6 -28.5t-8 -25.5t-7.5 -28.5t-3.5 -40.5z" />
<glyph unicode="o" horiz-adv-x="753" d="M98 309q0 -39 7.5 -83t23.5 -87q14 -35 54 -67.5t100 -61.5q20 -10 49 -10q53 0 97 37t87 84q98 104 157.5 243.5t100.5 305.5q4 16 25 16q10 0 29.5 1t50.5 5q41 6 81.5 18.5t71.5 16.5q12 2 15.5 5t7.5 7q2 4 11 7.5t19.5 8.5t18.5 11t8 16q0 25 -39 39.5t-88 14.5 q-35 0 -75 -3.5t-101 -3.5q-45 0 -67.5 37t-36.5 76q-4 12 -10.5 18.5t-18.5 16.5q-27 23 -55.5 31t-53.5 8q-35 0 -67.5 -16.5t-63 -43t-58.5 -60.5t-52 -69q-8 -10 -12.5 -15t-9.5 -10t-11 -12.5t-17 -23.5q-72 -106 -125 -218t-53 -239zM238 244q0 68 18 136.5t46 130.5 t60.5 117.5t61.5 96.5t48.5 65.5t21.5 26.5q8 10 20 18.5t18 16.5q16 20 31 20q8 0 12.5 -12t8.5 -22q2 -6 5 -14.5t11 -16.5q4 -4 7 -8t5 -15q2 -8 2 -22v-21q0 -80 -20.5 -151.5t-53 -138t-73.5 -130t-82 -124.5q-12 -18 -17.5 -24.5t-17.5 -12.5q-6 -4 -14 -10.5 t-25 -6.5q-12 0 -18 4q-14 10 -29.5 33t-19.5 35q-4 10 -5 17.5t-1 11.5z" />
<glyph unicode="p" horiz-adv-x="901" d="M-143 -506q2 -23 10 -30t18 -17q16 -16 30.5 -22.5t33.5 -6.5q16 0 33.5 2t37.5 11q23 8 20 30.5t5 55.5q27 113 54.5 206t59 177t69.5 164.5t85 171.5q4 10 13 10q8 0 12 -10q18 -39 43 -77t63 -73q8 -8 23.5 -18.5t36 -19.5t41 -15t39.5 -6q14 0 30.5 2t26.5 12 q59 53 104.5 120.5t79 139.5t59 144.5t50.5 138.5q10 27 8 40t2 25q6 29 10 60.5t4 83.5q0 39 -13 55t-27 26q-39 25 -83 47.5t-90 22.5q-4 0 -10 -2t-22 -10q-72 -37 -144.5 -107.5t-140.5 -148.5q-4 0 -4 4q18 74 43 147.5t25 139.5q0 16 -21.5 28.5t-46.5 12.5 q-23 0 -41 -8.5t-37 -14.5q-10 -4 -15 -8t-9 -33q-27 -164 -84.5 -348t-125 -369.5t-134 -362.5t-111.5 -325q-6 -20 -8 -29.5t-2 -15.5zM426 385q0 20 2 31.5t12 27.5q61 98 140 188.5t188 160.5q8 4 14 4q8 0 9 -6q0 -2 -2.5 -20.5t-9.5 -57.5t-23.5 -100.5t-44.5 -147.5 q-2 -10 -16.5 -47t-36 -83t-48 -91t-51.5 -70q-8 -8 -16 -8q-18 0 -40 27.5t-38 64.5t-27.5 74t-11.5 53z" />
<glyph unicode="q" horiz-adv-x="790" d="M49 272q0 -47 17.5 -89t52.5 -64l28 -19q23 -12 48.5 -18t48.5 -6q25 0 50 5t48 9q14 0 14 -12q-12 -47 -24.5 -76t-24.5 -54.5t-24.5 -54t-24.5 -75.5q-6 -23 -11 -38.5t-18 -49.5q-39 -113 -74.5 -225.5t-58.5 -229.5q-2 -10 -2 -20q0 -4 1 -7.5t9 -9.5 q16 -14 46 -28.5t65 -14.5q20 0 34.5 24.5t20.5 41.5q12 35 13 73q0 39 8 68q92 328 229 640t342 585q10 12 12.5 16t2.5 8q0 12 -11.5 20.5t-11.5 26.5q0 10 10 25.5t22.5 34t23 40.5t10.5 42q0 31 -15.5 52t-39 35.5t-53.5 21.5t-58 7q-25 0 -46.5 -4t-45.5 -12 q-94 -29 -183.5 -87t-168.5 -137t-141.5 -172t-100.5 -194q-4 -12 -11.5 -32.5t-7.5 -45.5zM190 221q0 33 9.5 69t38.5 95q27 51 68.5 106.5t93 107.5t108.5 98t113 81q25 16 33 15.5t24 9.5q8 4 19.5 9t23.5 5q8 0 18.5 -2t10.5 -12q0 -35 -29 -69t-64 -70q-45 -51 -45 -62 q0 -10 6.5 -14t6.5 -15q0 -6 -17 -30q-66 -98 -142.5 -173t-168.5 -145q-20 -16 -41 -20q-6 -2 -16.5 -5t-16.5 -3q-10 0 -21.5 7t-11.5 17z" />
<glyph unicode="r" horiz-adv-x="614" d="M25 106q2 -18 12 -39.5t26 -37.5q10 -12 23.5 -26.5t38.5 -16.5q6 0 17.5 4t19.5 14q10 8 24.5 30.5t22.5 51.5q25 117 78 211t123.5 169t152.5 130t166 94q23 10 33 8q23 0 46 -10t46 -10q6 0 18.5 6t24.5 18q13 11 21 27q7 13 6 30v9q1 2 1 6q0 6 -2 12q-3 12 -12 17 q-27 31 -66.5 44t-82.5 13q-12 0 -25 -4q-115 -39 -284 -168q-20 -18 -27 -14q-6 0 -6 6q0 4 2 9t6 24q12 38 12 74v10q-2 27 -8 50t-22 50q-4 8 -24.5 15.5t-43.5 7.5q-35 0 -57.5 -16.5t-22.5 -29.5q2 -14 10.5 -25t8.5 -22q0 -4 -1 -11t-4 -21q-25 -123 -63.5 -240 t-77.5 -233q-10 -29 -28.5 -56.5t-37 -54.5t-31.5 -52.5t-13 -52.5z" />
<glyph unicode="s" horiz-adv-x="606" d="M-16 252q0 -4 4 -13.5t8 -17.5q51 -86 124 -159.5t175 -114.5q20 -8 51 -8q41 0 70.5 22.5t58.5 50.5q16 16 17 37q0 31 -7.5 86t-18.5 121t-22.5 134.5t-17.5 125.5q-2 10 -4 29.5t-4 41t-4 39t-2 21.5q0 18 1 30.5t3 22.5q6 35 24.5 73t39 68.5t38 50t23.5 19.5 q12 0 25.5 -9t19.5 -19t10 -26.5t4 -29.5q0 -27 -10 -49t-25 -45q-6 -10 -6 -16q0 -41 31 -66q10 -10 32.5 -18t39.5 -8q8 0 12 3t16 19q23 29 41.5 70t18.5 100q0 31 -8 70.5t-31 62.5q-33 33 -75 53.5t-126 20.5q-29 0 -83 -29.5t-99 -101.5q-18 -29 -32.5 -63.5 t-24 -69.5t-13.5 -65.5t-4 -51.5q0 -16 6 -74.5t15.5 -132.5t21.5 -149.5t22 -126.5q8 -39 9.5 -48.5t1.5 -15.5q0 -16 -21 -16q-8 0 -16 4t-25 18q-23 20 -40 45t-31.5 50.5t-28.5 51t-33 50.5q-14 18 -30.5 23.5t-47.5 5.5q-33 0 -53 -27t-20 -49z" />
<glyph unicode="t" horiz-adv-x="536" d="M111 29q0 -33 22 -49q12 -10 33.5 -16.5t40.5 -6.5q6 0 15 1t16 5q23 10 36 41t15 45q4 39 17 88t28.5 97.5t30 91.5t18.5 67q4 16 11 32.5t12 33.5q6 23 14 49.5t20 48.5q12 23 39 31q16 6 53 15t83.5 21.5t95.5 27t86 28.5q27 10 39 18.5t53 24.5q35 14 51 35.5 t16 42.5q0 8 -11 18t-26.5 17.5t-33 12.5t-29.5 5q-6 0 -22 -10q-51 -31 -129 -59.5t-146 -43.5q-16 -4 -31.5 -6t-19.5 -2q-8 0 -8 6q0 2 4 16.5t11 34t15.5 40t16.5 36.5q25 51 53.5 104.5t56 108t49 111t31.5 115.5q2 10 2 14v8q0 6 -18 14t-41 12.5t-37 4.5 q-16 0 -24.5 -5t-32.5 -5q-6 0 -9.5 -3.5t-13.5 -23.5q-53 -113 -95 -226.5t-79 -207.5q-23 -59 -33 -96q-6 -29 -34 -29q-29 0 -64 16.5t-70 16.5q-14 0 -22 -3.5t-19 -7.5q-12 -6 -18 -11t-6 -15q0 -4 1 -11.5t9 -13.5q18 -14 30.5 -31.5t26 -34t31 -33t45.5 -30.5 q10 -6 10 -12q0 -2 -4 -14q-49 -119 -81.5 -246t-71.5 -242q-4 -14 -6 -31.5t-2 -29.5z" />
<glyph unicode="u" horiz-adv-x="860" d="M102 156q0 -16 3.5 -41t7.5 -47q6 -29 61 -64q39 -23 78 -31t45 -8t10 1t17 7q66 33 121 85.5t108 113.5q6 8 14 16.5t15 8.5q8 0 8 -13q0 -16 -3 -58t-3 -81q0 -31 4 -61.5t16 -61.5q4 -12 7 -16t8.5 -6t13.5 -5.5t22 -11.5q16 -10 36 -20t42 -10q18 0 29 6q6 4 9 15 t3 22q0 35 -18.5 66.5t-18.5 70.5q0 43 4 81t9 70q18 123 57 237t92 226q6 14 9 24.5t3 35.5q0 10 -8 19t-33 17q-10 4 -23 12.5t-26 8.5q-12 0 -22.5 -2t-24.5 -10q-18 -10 -23.5 -17.5t-13.5 -27.5q-49 -129 -129 -242t-176 -217q-12 -14 -20.5 -25.5t-18.5 -24 t-26.5 -28.5t-42.5 -41q-10 -10 -25.5 -15t-19.5 -5q-10 0 -19.5 10t-9.5 18v17q0 10 4 30q8 55 26.5 120t41 134.5t45 140t41.5 138.5q12 47 29.5 67.5t29.5 28.5q23 16 32 31.5t9 27.5q0 16 -9.5 29t-13.5 23q-8 16 -30.5 24t-38.5 8q-25 0 -48.5 -12t-39.5 -41 q-29 -49 -49.5 -98t-36 -97.5t-28.5 -96.5t-30 -93q-6 -20 -10 -34.5t-7 -29t-7 -29.5t-10 -36q-16 -53 -32 -114.5t-16 -118.5z" />
<glyph unicode="v" horiz-adv-x="774" d="M143 147q0 -10 1 -24t6 -25q8 -29 23 -43t58 -43q29 -20 46.5 -35.5t48.5 -15.5q20 0 40.5 9.5t32.5 23.5q18 20 35 33.5t45 50.5q92 115 163 236.5t108 263.5q10 35 13 47t11 18t13.5 7t15.5 1q20 0 42.5 -6t45.5 -6q10 0 22.5 4t24.5 8q18 8 47 15.5t64.5 17.5 t75.5 24.5t83 36.5q10 6 12.5 8.5t2.5 8.5q0 16 -4.5 25.5t-22.5 19.5q-25 16 -51.5 22.5t-44.5 6.5q-35 0 -67 -10.5t-63.5 -24t-64.5 -23.5t-65 -10q-25 0 -49.5 12.5t-49.5 53.5q-20 35 -43.5 45t-64.5 10q-31 0 -47.5 -14.5t-16.5 -34.5q0 -16 9.5 -31.5t19.5 -26.5 q23 -23 23 -57q0 -33 -5.5 -62.5t-11.5 -46.5q-10 -23 -13 -40t-16 -48q-43 -106 -102 -207.5t-113 -164.5q-16 -18 -29.5 -22.5t-23.5 -4.5q-16 0 -16 12q0 6 1 11.5l5 27.5q27 123 54.5 247t54.5 247q8 39 19 63.5t20.5 48t16.5 53t7 76.5q0 23 -10 31q-14 12 -28.5 14.5 t-31.5 2.5q-12 0 -24.5 2t-22.5 2q-6 0 -25.5 -10.5t-23.5 -34.5q-16 -125 -46 -248l-60 -246q-10 -43 -16.5 -67.5t-9.5 -41t-5 -25.5t-4 -22q-10 -41 -14.5 -66.5t-4.5 -58.5z" />
<glyph unicode="w" horiz-adv-x="1105" d="M102 168q0 -16 5.5 -34.5t9.5 -24.5t21.5 -18.5t41.5 -22.5q37 -14 49.5 -23.5t36.5 -9.5q33 0 58.5 14t47 37t42 49.5t43.5 48.5q27 27 32 27q6 0 7 -16q0 -18 -3.5 -35t-3.5 -45q0 -35 19.5 -59.5t38.5 -35.5q41 -23 87 -40t87 -17q35 0 54.5 9.5t35.5 25.5 q109 109 170 253t70 298q2 16 2 43v41q0 27 18 26q12 0 39 -8t92 -8q23 0 43.5 4t46 11.5t58 16.5t82.5 21q98 23 98 64q0 43 -16.5 50t-30.5 7q-80 0 -144.5 -12t-130.5 -12t-96.5 6t-58.5 24q-23 14 -33 24.5t-16.5 16.5t-11.5 8t-17 2q-14 0 -46 -3t-40 -9 q-14 -10 -18.5 -24.5t-4.5 -24.5q0 -35 20.5 -80t20.5 -88q0 -18 -5 -35.5t-5 -40.5q0 -8 -5 -51t-20.5 -104.5t-43 -130t-72.5 -125.5q-29 -37 -53.5 -48.5t-34.5 -11.5q-6 0 -18.5 9.5t-12.5 29.5q0 86 20.5 171t55.5 161q8 16 14 41t29 61q41 68 54 97.5t13 52.5 t-20.5 42t-42.5 19q-10 0 -20.5 2t-26.5 2t-30.5 -5t-23.5 -23q-53 -127 -133 -247t-174 -230q-23 -27 -37 -41.5t-22 -21.5t-12.5 -9t-6.5 -2q-6 0 -6 6q0 8 8 33q51 154 98.5 302t108.5 296q4 10 10.5 28.5t16.5 32.5q6 10 11 20.5t5 20.5q0 20 -19.5 33.5t-29.5 13.5 q-16 0 -28.5 1t-28.5 1q-10 0 -22.5 -1t-26.5 -5q-10 -4 -23.5 -16t-15.5 -23q-12 -90 -40 -180t-60.5 -180t-65.5 -182.5t-55 -184.5q-4 -10 -6.5 -24.5t-2.5 -30.5z" />
<glyph unicode="x" horiz-adv-x="684" d="M-10 92q0 -16 7 -27.5t23 -27.5t31 -26.5t19 -10.5q37 0 65 23q14 10 23.5 20t13.5 23q6 20 23.5 45.5t38 48t39 43t26.5 33.5q10 14 13 18t7 4t5.5 -5t5.5 -28q6 -49 9 -96t9 -98q2 -14 3 -22.5t1 -16.5q0 -4 -8 -21q-8 -16 -13 -37.5t-5 -44.5q0 -16 4 -36 q4 -16 15 -25.5t26 -17.5q16 -10 22 -16.5t17 -6.5q10 0 19 -2t22 -2q16 0 29.5 6t15.5 16q8 55 10 82t2 66q0 104 -12.5 206.5t-12.5 221.5q0 14 1 23.5t4.5 16.5t11.5 15t24 23q96 86 198.5 166t217.5 145q8 4 19.5 9t11.5 14q0 27 -12.5 41t-26.5 32q-10 12 -25.5 17.5 t-32.5 5.5q-20 0 -27 -2t-20 -13q-78 -59 -157.5 -117.5t-159.5 -123.5q-8 -6 -16.5 -13.5t-14.5 -7.5q-4 0 -7 6.5t-7 32.5q-8 59 -15.5 97t-15.5 64t-19.5 41.5t-25.5 31.5q-16 16 -33.5 24.5t-46.5 8.5q-23 0 -51.5 -10.5t-28.5 -35.5q0 -6 1 -17t8 -19q8 -10 12 -11 q4 0 18 -26q16 -35 25.5 -80t13.5 -89t5 -81t1 -51q0 -20 -2 -27.5t-14 -21.5q-68 -78 -141.5 -158t-145.5 -164q-16 -18 -18 -22.5t-2 -12.5z" />
<glyph unicode="y" horiz-adv-x="892" d="M123 193q0 -25 2 -32t10 -18q68 -82 195 -82q8 0 33.5 14.5t59.5 38t69.5 51.5t62.5 54q23 23 29 23t6 -9q0 -2 -1 -7t-4 -18t-11.5 -38t-20.5 -66q-20 -63 -42 -129.5t-39 -125t-28.5 -100.5t-13.5 -56q-53 -88 -97 -179.5t-79 -170.5q-43 -102 -43 -162q0 -29 8 -44.5 t19.5 -22.5t24.5 -9t26 -2q18 0 30.5 3t24.5 5q41 6 63.5 29.5t35 55.5t17.5 68t11 66q31 147 87 293t161 285q4 6 8 17.5t4 33.5q0 10 -13 16.5t-24 6.5q-4 0 -9 -1t-9 -1q-8 0 -8 4q0 6 5 22.5t19 59.5q6 18 21.5 61t34 91t35 92t22.5 63q25 72 55.5 138.5t69.5 125.5 q16 27 23.5 39t15.5 22q16 25 31.5 50.5t15.5 54.5q0 10 -2 23.5t-9.5 24.5t-21.5 18.5t-39 7.5t-36 7t-27 7q-14 0 -32 -24.5t-22 -37.5q-37 -98 -73.5 -162.5t-70.5 -108.5t-63.5 -73.5t-54.5 -58.5q-25 -31 -44 -49.5t-32 -32.5q-57 -66 -95 -93.5t-66 -41.5 q-25 -12 -45 -12q-10 0 -11 32q0 16 3.5 33t7.5 33t7 31.5t9 33.5q20 61 34.5 112.5t30 100t34 98.5t44.5 107q6 12 10.5 16.5t9.5 10.5t13 17.5t21 33.5q12 23 16 41t4 45q0 20 -18.5 32.5t-34.5 12.5t-32.5 5t-24.5 5q-10 0 -36 -14t-36 -45q-31 -100 -67 -189.5 t-68.5 -177.5t-54 -180t-21.5 -198z" />
<glyph unicode="z" horiz-adv-x="786" d="M61 145q0 -35 12.5 -69.5t49.5 -57.5q41 -25 101.5 -39t113.5 -14q57 0 114.5 12.5t111.5 31t107.5 40t102.5 41.5q16 6 18.5 11t2.5 10q0 27 -15 39q-25 23 -47 29.5t-45 6.5q-31 0 -60.5 -12t-58 -27.5t-58.5 -28t-62 -12.5q-35 0 -70 -12t-66 -12q-25 0 -59 16 q-16 8 -22.5 14.5t-6.5 16.5q0 6 6.5 25.5t18.5 29.5q18 16 42.5 42t50.5 55.5t52.5 58.5t50.5 51q20 18 34 25.5t55 19.5q45 14 95 24.5t97 17.5t87 11.5t67 4.5q23 0 32 7t15 23q0 8 -3 13.5t-14 17.5q-29 33 -74.5 44t-86.5 11q-23 0 -23 6t12 17q35 29 62.5 49t46 37.5 t28 35t9.5 42.5q0 20 -8 43q-8 20 -25.5 32.5t-28.5 22.5q-12 16 -65 32.5t-113 16.5q-82 0 -167 -24.5t-161 -42.5q-41 -10 -41 -62q0 -18 11 -49q8 -23 28.5 -41t30.5 -18t13 1t6 3q35 41 83 68.5t107 33.5q45 4 61.5 12.5t40.5 8.5q10 0 21.5 -3.5t11.5 -11.5 q0 -18 -27.5 -49t-68.5 -53q-35 -18 -64.5 -50t-61.5 -62t-70 -51.5t-89 -21.5t-83.5 14.5t-67.5 14.5q-20 0 -37 -12t-17 -27q0 -16 5.5 -29.5t19.5 -37.5q10 -20 27.5 -28.5t36.5 -14.5q20 -6 23 -9.5t3 -9.5t-9 -18.5t-26 -28.5q-33 -35 -64.5 -70.5t-51.5 -78.5 q-4 -8 -5.5 -24.5t-1.5 -27.5z" />
<glyph unicode="{" horiz-adv-x="708" d="M164 -203q0 -98 83 -152.5t232 -54.5q16 0 40 2t28 17q4 12 11 16t14.5 12.5t12.5 22.5t5 45q0 10 -11.5 28.5t-33.5 18.5h-82q-66 0 -86.5 27.5t-20.5 58.5q0 23 3 42.5t14 47.5l139 447q20 61 20 135t-57 106q-6 0 -6 5q0 4 6 4q78 12 120 73.5t75 165.5 q45 150 80.5 261.5t74.5 215.5q14 39 30.5 69t43.5 50.5t66 30.5t98 10h24q35 0 47.5 8.5t28.5 42.5q10 18 11 35q0 23 -7.5 27t-7.5 14q0 18 -31.5 23.5t-78.5 5.5h-41q-68 0 -121 -16.5t-98.5 -57.5t-84 -110.5t-73.5 -176.5l-121 -362q-23 -68 -43.5 -113t-44 -70.5 t-54 -35.5t-75.5 -10h-25q-35 0 -51 -9.5t-29 -44.5q-6 -16 -9 -28.5t-3 -24.5q0 -16 9.5 -17t9.5 -6q0 -20 10 -26t67 -6q82 0 82 -56q0 -23 -12 -63.5t-25 -77.5l-133 -422q-10 -35 -15 -63.5t-5 -63.5z" />
<glyph unicode="|" horiz-adv-x="552" d="M0 -342q0 -18 16.5 -22.5t38.5 -20.5q16 -12 31.5 -16.5t40.5 -4.5q20 0 41.5 49.5t52.5 137.5q41 119 88 262t95.5 296t98.5 308.5t97 299t92 268t86 215.5q10 20 25.5 31.5t40.5 47.5q6 10 8 20.5t2 43.5q0 16 -16.5 26.5t-30.5 26.5t-35.5 20.5t-34.5 4.5 q-47 0 -76.5 -43t-64.5 -152l-535 -1601q-10 -29 -25.5 -56.5t-21.5 -46.5q-6 -20 -10 -42.5t-4 -51.5z" />
<glyph unicode="}" horiz-adv-x="708" d="M-246 -373q0 -23 28 -30t103 -7h31q88 0 146.5 16.5t99.5 57.5t73.5 110.5t67.5 176.5l121 362q25 76 51.5 122t54 69.5t55 31t56.5 7.5q41 0 59.5 4t26.5 20t21.5 37t13.5 72q0 16 -13.5 22.5t-48.5 6.5h-38q-82 0 -82 55q0 29 10 63.5t24 77.5l142 422q10 29 15 63.5 t5 69.5q0 55 -24.5 94t-58.5 62.5t-72.5 34t-65.5 10.5h-49q-53 0 -88 -3t-39 -16q-12 -29 -23.5 -44t-11.5 -52q0 -16 12.5 -29.5t34.5 -13.5h84q55 0 86 -11t31 -44q0 -27 -5 -53.5t-20 -67.5l-143 -453q-14 -41 -18.5 -77.5t-4.5 -55.5q0 -76 60 -102q6 0 6 -4t-6 -4 q-78 -16 -121 -80t-78 -166l-164 -496q-12 -39 -24.5 -65.5t-34 -42t-57.5 -21.5t-99 -6h-30q-18 0 -39 -6t-25 -23q-8 -23 -21.5 -38t-13.5 -56z" />
<glyph unicode="~" horiz-adv-x="1126" d="M205 614q0 -12 3 -15t8 -6t10.5 -10t9.5 -30q2 -31 49 -31q37 0 51 6.5t26 16.5q61 47 86 61.5t44 14.5q25 0 40 -2.5t29 -11.5t30.5 -25.5t45.5 -42.5q31 -31 56.5 -52.5t51 -34t53 -17.5t64.5 -5q31 0 67 14.5t72.5 38t72.5 51t65 54.5q14 12 18 19t4 18q0 12 -3 16 t-6 6t-6 3t-3 9q-2 18 -22.5 34t-45.5 16q-10 0 -29.5 -18.5t-47 -40t-63.5 -40t-79 -18.5q-45 0 -80 30.5t-69.5 67.5t-74.5 67.5t-97 30.5q-35 0 -67 -6t-66.5 -21.5t-77.5 -40t-99 -58.5q-14 -10 -17 -20.5t-3 -27.5z" />
<glyph unicode="&#xa1;" horiz-adv-x="655" d="M162 45q0 -20 4 -38.5t27 -29.5q20 -10 30 -18t16.5 -14t12.5 -9.5t20 -3.5q23 0 34 2.5t16 16.5q2 12 8 32.5t15 45t18.5 51t17.5 49.5t12 40t7 40.5t10.5 56.5t23 88.5t40 137t65.5 200.5q4 14 5 23.5t2 16.5t2 16.5t7 23.5q4 12 9 31.5t5 30.5q0 23 -14 41t-43 47 q-16 16 -57 16q-10 0 -19.5 -8t-15.5 -31q-35 -123 -61.5 -207t-48 -152.5t-41 -134t-40.5 -151.5q-4 -18 -9 -24.5t-9 -9.5t-10.5 -9t-14.5 -29q-10 -27 -17 -61.5t-7 -75.5zM489 1229q0 -47 15.5 -83t52.5 -36q23 0 36 2t23 2q23 0 38.5 20.5t25.5 45.5q10 31 16 47t6 28 q0 20 -13.5 34t-29.5 16q-18 2 -31.5 6t-24.5 7t-23.5 6t-32.5 3q-23 0 -29 -16.5t-12 -28.5q-10 -18 -13.5 -27.5t-3.5 -25.5z" />
<glyph unicode="&#xa2;" horiz-adv-x="888" d="M115 274q0 -72 50 -147.5t130 -110.5q20 -8 20 -16q-10 -31 -18 -50.5t-16.5 -31.5t-12.5 -21.5t-4 -21.5q0 -10 6 -20.5t21 -18.5q33 -18 44 -29.5t27 -11.5q23 0 36.5 18.5t23.5 45.5q4 8 10 24.5t12.5 33.5t11.5 31.5t7 20.5q4 10 14 12.5t33 6.5q12 2 36.5 7 t65.5 22.5t102.5 51t147.5 93.5q29 20 34 32.5t5 16.5q0 10 -8 19.5t-19 17.5q-25 18 -49 18q-23 0 -57.5 -13t-81.5 -44q-14 -10 -27.5 -26.5t-27.5 -26.5q-35 -23 -68 -34t-49 -11q-10 0 -10 6q0 8 15.5 59t38 123t49 155t50 155.5t41 125t21.5 62.5q4 14 12 14 q6 0 22.5 -6t16.5 -43q0 -4 -2 -22.5t-10 -47.5q-10 -39 -21.5 -69.5t-11.5 -63.5q0 -6 10 -17.5t25.5 -23.5t36 -20.5t39.5 -8.5q23 0 33 6.5t15 17.5t6 27.5t7 37.5q20 78 27.5 109.5t7.5 47.5q0 51 -29 83t-53 54q-16 14 -33.5 23.5t-38.5 19.5q-12 4 -12 13q0 10 29 71 q18 39 30.5 52.5t12.5 21.5q0 10 -22.5 20.5t-35.5 10.5q-16 0 -27.5 2t-21.5 2q-31 0 -50 -30.5t-46 -112.5q-6 -16 -17 -17q-29 0 -50 -3t-42.5 -12t-46 -24.5t-57.5 -40.5q-29 -20 -60.5 -50t-65.5 -75t-71 -108.5t-73 -151.5q-27 -61 -32 -121.5t-5 -87.5zM289 276 q0 39 4 64t11 47.5t17.5 47t22.5 61.5q18 51 52 108.5t71 106.5t67.5 81.5t40.5 32.5t11 -10q-12 -41 -34 -104.5t-47.5 -141t-55 -167t-60.5 -183.5q-6 -20 -11 -34.5t-11 -37.5q-4 -10 -6.5 -13t-12.5 -3q-4 0 -17.5 9.5t-29.5 49.5q-10 23 -11 48.5t-1 37.5z" />
<glyph unicode="&#xa3;" horiz-adv-x="1003" d="M20 63q0 -16 9 -26q10 -16 13 -33.5t7 -32t14.5 -24.5t36.5 -15q10 -2 25 -2h27q41 0 103 3.5t126 13.5q74 10 165 28.5t174 36t144.5 29.5t77.5 12q33 0 40 -1t28 -1q37 0 46 15.5t9 27.5q0 20 -4 27.5t-25 28.5q-10 10 -13 16t-13 18q-23 25 -35 30t-39 5h-23 q-16 0 -35.5 -1t-37 -4t-21.5 -7q-6 -6 -42 -16.5t-86 -22.5t-107.5 -24.5t-107.5 -21.5t-85 -15.5t-41 -6.5q-16 0 -19 1t-3 10q2 8 13 39.5t30.5 82t44 112.5t53.5 132q10 27 19.5 33t48.5 12q80 16 134 27.5t89 13.5q37 2 52 8.5t36 6.5q12 0 15 17t3 30q0 20 -6 31.5 t-26 31.5q-23 23 -35.5 29t-38.5 6q-10 0 -34 -3t-69 -13l-77 -17q-12 0 -13 10q0 6 8 23l52 111q43 92 91 163.5t96 120.5t92 74t79 25q14 0 18.5 -15.5t4.5 -21.5q0 -31 -9.5 -47.5t-11.5 -38.5q0 -16 -8 -34t-16.5 -34t-15.5 -31.5t-7 -27.5q0 -47 13.5 -57.5t41.5 -16.5 q23 -4 36 -10t28 -6q27 0 43 19t16 36q0 12 10.5 42t21.5 63.5t21.5 65.5t10.5 46q0 45 -28 73.5t-64 73.5q-23 29 -58 36t-59 7q-59 0 -123 -18t-134.5 -80.5t-149.5 -182.5t-169 -323l-24 -55q-4 -8 -9.5 -13t-25.5 -10q-35 -4 -65.5 -7t-39.5 -3q-41 0 -53 -2t-12 -12 q0 -31 8 -43t8 -29q0 -47 16.5 -57t51.5 -15q29 -2 29 -10q0 -4 -5 -14q-23 -55 -44 -107.5t-38.5 -96.5t-27.5 -75.5t-10 -42.5q0 -14 2 -22t6 -15q0 -8 -17 -8q-23 0 -33 3t-26 3t-31.5 -2t-21.5 -8q-4 -4 -9.5 -15t-5.5 -16z" />
<glyph unicode="&#xa4;" horiz-adv-x="1040" d="M70 117q0 -12 6 -21.5t16 -19.5q14 -14 25.5 -18.5t34.5 -4.5q12 0 68 47t138 125q23 23 39.5 40.5t32.5 33.5q6 6 12 6t13 -4q57 -33 125 -33q27 0 52 4t54 11q8 2 13.5 3t9.5 1q6 0 12 -13q35 -80 46 -120t11 -54q0 -10 14.5 -31.5t32.5 -31.5q27 -16 43 -17q12 0 27 9 q43 27 54.5 36t11.5 25q0 10 -3.5 20.5t-13.5 18.5q-20 16 -34.5 66.5t-53.5 152.5q-2 4 -2 10t10 17q72 72 103.5 159t31.5 201q0 25 -8 47.5t-18 44.5q-8 12 -8 21q0 8 20 26q45 39 71.5 60.5t42 32t23.5 15.5t19 13q8 8 18 11.5t19.5 9.5t17.5 19.5t14 43.5q6 27 7 35 q0 27 -23 40t-33 13q-39 0 -69 -20q-33 -23 -94.5 -75t-120.5 -118q-14 -14 -23 -14q-6 0 -20 6q-43 16 -74 22.5t-60 6.5q-41 0 -86 -12q-12 0 -16 12q-12 33 -20.5 51t-11.5 31.5t-4 23t-1 23.5q0 12 -1 25.5t-5 33.5q-2 10 -2 37q0 16 -7 23.5t-32 21.5t-39 15 q-10 0 -33.5 -11.5t-38.5 -36.5q-4 -8 -9 -25.5t-5 -45.5q0 -12 5 -38t14.5 -57.5t21.5 -66.5t25 -64q6 -16 6 -22q0 -8 -10 -19q-45 -45 -74 -94t-44.5 -94t-21.5 -84t-6 -63q0 -27 8.5 -60t20.5 -53q4 -8 4 -12q0 -8 -8 -17l-74 -73q-66 -66 -97.5 -89.5t-41.5 -25.5 t-18.5 -15.5t-14.5 -28.5t-10 -29.5t-4 -18.5zM467 510q0 35 18.5 97t63.5 130q82 123 141 123q31 0 46.5 -3t25.5 -7q18 -10 16 -24.5t6 -24.5q14 -18 25.5 -27.5t19 -16.5t11.5 -16.5t4 -25.5q0 -33 -7.5 -76t-39.5 -88q-25 -35 -41.5 -59.5t-32.5 -44t-36.5 -35 t-51.5 -31.5q-12 -6 -27.5 -9t-23.5 -3q-29 0 -45 12q-10 8 -13.5 12t-3.5 8q0 6 -1 14.5t-7 20.5q-4 10 -13 24.5t-20 16.5q-10 2 -12 10.5t-2 22.5z" />
<glyph unicode="&#xa5;" horiz-adv-x="970" d="M76 248q0 -37 19.5 -64.5t35.5 -36.5q12 -6 66 -6q12 0 28.5 1t32.5 1q18 0 31.5 1t17.5 1q10 0 10 -8q0 -4 -2 -12t-10 -29q-6 -14 -11 -32.5l-10 -37t-9.5 -34t-8.5 -23.5q-4 -10 -11 -31.5t-13 -43t-11.5 -39t-5.5 -21.5t22.5 -19.5t45.5 -15.5q10 0 16 -7t17 -7 q33 0 54 11t23 28q4 43 20.5 68.5t16.5 41.5q0 4 -2 8.5t-2 14.5q0 4 5 24.5t11.5 47t14.5 54.5t14 46q8 20 12.5 24.5t14.5 4.5q4 0 26.5 1t53 4t64.5 6t63 7q29 0 45 -4t35 -4q4 0 11 9t9 13q6 20 11 41t5 41q0 4 -6 13.5t-10 13.5q-10 8 -21.5 9t-33.5 1q-6 0 -38 -3 t-68 -6t-66.5 -6t-36.5 -3q-12 0 -12 10q0 4 9 29.5l15 42.5q2 12 25 12q6 0 36.5 2t67.5 5t68 5t35 2q23 0 36 -2t25 -2q10 0 13 12.5t10 22.5q10 16 13 30.5t5 39.5q0 6 -2 15t-8 13q-14 10 -25.5 12.5t-36.5 2.5q-6 0 -32.5 -3t-55 -7.5t-53.5 -7.5t-29 -3q-14 0 -14 8 q0 14 23 29q8 6 46 43t96 95.5t131 132t150 151.5q33 33 60 69.5t47 72.5t31.5 67t11.5 49q0 23 -5 37t-20 14q-18 0 -23 8.5t-20 8.5q-10 0 -28.5 4t-28.5 4q-20 0 -34.5 -4t-14.5 -17q0 -6 -2 -19t-6 -32q-16 -59 -45 -100t-78 -94t-88 -94.5t-74 -76t-67.5 -67.5 t-67.5 -68q-25 -25 -37 -24q-10 0 -10 37q0 92 6 206.5t10 243.5q0 10 -5 22.5t-5 22.5q0 16 -6 24.5t-10 12.5q-12 14 -54 15q-16 0 -34.5 -4.5t-30.5 -4.5q-16 0 -28.5 -15t-12.5 -38q0 -12 1 -22.5t1 -18.5v-55q0 -18 4 -43t4 -64q0 -41 -3 -101t-3 -153v-47 q0 -31 1 -67.5t1 -75.5v-64q0 -16 -8 -23t-56 -7q-23 0 -47 2t-46.5 5t-40 6t-25.5 3q-16 0 -23.5 -3t-13.5 -13t-11.5 -11.5t-5.5 -11.5q0 -41 9.5 -70.5t23.5 -35.5q10 -4 43 -5t76 -1q16 0 35.5 1t36.5 1q14 0 14 -11q0 -6 -7 -28.5t-11 -32.5q-4 -12 -18.5 -15.5 t-69.5 -3.5t-101.5 6.5t-54.5 6.5q-12 0 -21.5 -3t-11.5 -12q-4 -12 -9 -15t-5 -11z" />
<glyph unicode="&#xa6;" horiz-adv-x="598" d="M29 -317q0 -18 11 -30.5t36 -27.5q10 -6 13 -12t6 -11t11.5 -8.5t26.5 -3.5q16 0 27 27l190 496q10 29 27.5 58.5t30.5 43.5q16 20 24 59t8 64q0 18 -13 33.5t-42 19.5q-14 2 -21.5 5t-15.5 6.5t-17 5.5t-28 2q-16 0 -28.5 -11.5t-21.5 -29t-17.5 -37t-14.5 -37.5 l-145 -436q-8 -23 -9 -41.5t-18 -61.5q-10 -27 -15 -42t-5 -31zM385 793q0 -6 5 -10.5t14.5 -10.5t20.5 -18.5t24 -34.5q10 -23 55 -23q8 0 12 1t9 10.5t11.5 29t18.5 56.5q2 10 17.5 53t35 96t39 106.5t31.5 86.5q41 111 92 174q12 16 16.5 24t4.5 13q0 10 2 17t4 16.5 t4 20.5t2 32q0 12 -18.5 25t-36.5 18q-31 8 -42.5 15t-25.5 7q-37 0 -47 -16q-31 -53 -46.5 -96.5t-31.5 -86.5l-104 -305q-27 -74 -46.5 -129t-19.5 -71z" />
<glyph unicode="&#xa7;" horiz-adv-x="831" d="M-90 -143q0 -61 19.5 -107.5t51 -78t74.5 -48t92 -16.5q29 0 68 5t78 34q53 41 83 74.5t56 76.5q16 29 23.5 76t7.5 80q0 41 -3 61.5t-3 24.5q0 8 3 12t19 8q29 6 64 18.5t51 26.5q33 29 57.5 50.5t44 42t37 43t33.5 57.5q18 37 26.5 92t8.5 92q0 92 -21.5 169t-48.5 134 q-12 29 -27.5 65t-28.5 75t-22.5 79.5t-9.5 81.5q0 45 14.5 78t35 52.5t44 28.5t41.5 9q29 0 42.5 -15t23.5 -52q4 -10 4 -31q0 -18 12 -51q6 -14 19 -14q39 0 55 15t41 19q8 2 15 17.5t7 38.5q0 53 -22.5 101t-42.5 65q-16 16 -42 23t-48 7q-100 0 -150.5 -22.5 t-81.5 -50.5q-74 -68 -103.5 -132.5t-29.5 -142.5q0 -23 2 -50.5t6 -43.5q2 -10 3 -17.5t1 -11.5q0 -6 -6 -9t-32 -11q-47 -14 -114 -64.5t-120 -140.5q-10 -16 -17 -42t-12.5 -53.5t-7.5 -55t-2 -48.5q0 -104 18.5 -170.5t39.5 -124.5q18 -49 30.5 -88t20.5 -72.5t12 -65.5 t4 -66q0 -8 -7 -44t-36 -71q-12 -14 -33.5 -27.5t-38.5 -13.5q-33 0 -53 15.5t-32.5 37t-17.5 44t-5 34.5q0 29 -7 42t-7 32q0 16 -13.5 25t-34.5 9q-16 0 -37.5 -18t-43.5 -29q-12 -6 -19.5 -22.5t-7.5 -50.5zM346 524q0 27 5 49.5t20 53.5q12 27 32.5 49t43 38.5t45 27 t38.5 10.5q6 0 10.5 -2t8.5 -15q31 -82 47 -134t24.5 -85t9.5 -50t1 -30q0 -49 -14.5 -85t-41.5 -68q-16 -18 -37.5 -32.5t-41 -24t-35 -13.5t-21.5 -4q-14 0 -17 3t-5 9q-23 68 -38 118t-26 107q-6 41 -7 53.5t-1 24.5z" />
<glyph unicode="&#xa8;" d="M553 1593q0 -55 4 -59q10 -10 16.5 -22.5t24.5 -24.5q4 -4 14 -4h17q8 0 21.5 2t25.5 7t22.5 11t10.5 15q0 6 8 15t16 21.5t15.5 28.5t7.5 35q0 10 -6.5 29.5t-16.5 35.5q-10 18 -37.5 22.5t-44.5 4.5q-25 0 -43 -6t-28 -27q-8 -16 -17.5 -44.5t-9.5 -39.5zM928 1503 q0 -31 16.5 -48t26.5 -40q14 -31 49 -31q10 0 29.5 2.5t29.5 6.5q12 6 23.5 22.5t27.5 50.5q4 8 5 33q0 16 -9.5 34t-13.5 32q-4 18 -28.5 27.5t-51.5 9.5q-10 0 -23.5 1t-17.5 1q-16 0 -27.5 -13.5t-19.5 -31t-12 -34t-4 -22.5z" />
<glyph unicode="&#xa9;" horiz-adv-x="1630" d="M242 561q0 -117 27.5 -199.5t68.5 -141t87 -97.5t83 -66q31 -23 76 -41t95 -30.5t99 -19.5t86 -7q119 0 219.5 17.5t202.5 80.5q113 70 185.5 162t114.5 188.5t58.5 188.5t16.5 162q0 92 -23.5 159.5t-50.5 114.5q-23 39 -47 68.5t-47 52.5t-45.5 42t-42.5 40 q-45 45 -92 71.5t-100.5 41t-115 19.5t-130.5 5q-164 0 -298 -72.5t-229.5 -188.5t-146.5 -261t-51 -289zM391 504q0 131 42 262t122 235.5t196.5 169t268.5 64.5q104 0 191 -26.5t150.5 -82t99.5 -141.5t36 -205q0 -123 -40 -246.5t-122 -223t-203.5 -163t-283.5 -63.5 q-80 0 -161 21.5t-147.5 70.5t-107.5 129t-41 199zM553 489q0 -31 10 -76.5t33 -80.5q35 -53 89 -85t126 -46q25 -4 50.5 -6t41.5 -2q88 0 157.5 59t145.5 151q29 35 47 46q12 6 13 24q0 8 -5.5 12t-5.5 9q0 35 -53 34h-47q-29 0 -57.5 -21.5t-79.5 -84.5 q-59 -76 -101.5 -97.5t-78.5 -21.5q-70 0 -95.5 38t-25.5 79q0 96 30.5 182t57.5 137q14 29 41.5 73t63.5 85t77 69.5t82 28.5q23 0 42 -4t19 -26q0 -33 -17 -60.5t-17 -70.5q0 -6 10 -15.5t31 -15.5q10 -4 30.5 -7t40.5 -3q29 0 45.5 8t16.5 16q0 37 15 71t15 75 q0 10 -7 28.5t-11 22.5q-29 29 -66.5 55.5t-78.5 36.5q-39 8 -84 8q-59 0 -111.5 -19.5t-95.5 -49t-76 -63.5t-55 -64q-72 -96 -117 -198t-45 -231z" />
<glyph unicode="&#xaa;" horiz-adv-x="905" d="M61 451q0 -25 2.5 -33t4.5 -12.5t5 -9.5t7 -19q6 -29 17.5 -38t27.5 -13q18 -4 39 -4h49q76 0 134.5 1t103.5 1q47 0 85.5 1t75.5 1q78 0 136.5 -1t89.5 -1q47 0 61 2t21 12q10 16 13 30.5t3 30.5q0 20 -14 33q-16 14 -14.5 24.5t-14.5 14.5t-41 5t-53 1q-29 0 -58.5 -2 t-62.5 -2q-94 0 -186.5 -4t-184.5 -4q-20 0 -26.5 2t-12.5 3t-19 3t-48 2q-18 0 -26.5 5t-29.5 5q-59 0 -71.5 -7t-12.5 -27zM223 733q0 -25 10 -51q12 -31 38 -53.5t54.5 -38t55.5 -22.5t39 -7q25 0 67.5 27.5t89 63.5t87.5 71t61 51q14 0 14 -12q4 -47 6.5 -93t30.5 -98 q10 -16 25.5 -23t29.5 -7q18 0 39 5t37 11q10 0 17.5 8t7.5 29q-27 31 -36 68.5t-9 66.5q0 45 12 94t32.5 96.5t44 90.5t46.5 73q8 10 14 21.5t17 17.5q10 6 17 19.5t7 29.5t-22 35q-10 10 -34 12.5t-36 14.5q-35 35 -71.5 61.5t-100.5 26.5q-39 0 -98.5 -21.5t-122 -58.5 t-119.5 -84t-94 -98q-25 -33 -51.5 -71t-50 -80t-39 -86t-15.5 -89zM369 715q0 57 42 132t102 142.5t124.5 118.5t112.5 63q12 4 43.5 13.5t56.5 9.5q31 0 31 -23q0 -12 -9.5 -26.5t-20.5 -28.5t-22.5 -29.5t-15.5 -29.5q-8 -23 -38 -57.5t-73 -73.5t-92 -79t-95 -72 t-81 -52.5t-49 -20.5q-16 0 -16 13z" />
<glyph unicode="&#xab;" horiz-adv-x="839" d="M205 649q0 -4 2 -14t2 -23q0 -14 2 -27.5t6 -19.5q16 -25 39 -56.5t43 -61t35.5 -52t17.5 -28.5q8 -18 19.5 -31.5t19.5 -13.5q33 0 47.5 10t28.5 30q4 4 5 18.5t1 27.5q0 23 -3 35t-13 24q-8 10 -29.5 54t-46.5 97q-6 14 -6 25q0 16 12 27q27 20 49.5 44.5t63.5 55.5 q31 25 48 39t25.5 24.5t10.5 16.5t2 12q0 14 -6.5 27.5t-12.5 23.5q-8 14 -14 18.5t-10 18.5q-4 10 -12.5 16.5t-38.5 6.5q-6 0 -11.5 -2t-16.5 -11.5t-29.5 -29t-49.5 -53.5l-158 -172q-8 -10 -15 -25.5t-7 -30.5zM528 623q1 -29 19 -58l141 -194q10 -14 15.5 -22.5 t11.5 -18.5q6 -8 24 -8q6 0 15.5 5t13.5 9q16 12 20.5 17t8.5 9q14 10 14 29q0 20 -1 32.5t-7 22.5q-2 4 -15.5 29t-30 54.5t-30.5 55t-16 31.5q-6 12 -6 25q0 12 14 27l110 104q23 23 38.5 31t39.5 35q14 14 15 30q0 14 -9.5 20.5t-19.5 29.5q-18 41 -34.5 48t-29.5 7 q-12 0 -20 -1t-18.5 -9.5t-26.5 -25.5t-43 -50l-162 -182q-8 -10 -13 -23.5t-9 -26.5q-2 -6 -5.5 -11t-3.5 -21z" />
<glyph unicode="&#xac;" horiz-adv-x="1208" d="M266 612q0 -10 3 -16t3 -18q0 -10 11.5 -11.5t17.5 -1.5h64q35 0 61 4q10 2 21.5 5.5t41.5 3.5q131 0 220.5 -4.5t173.5 -4.5q41 0 53 -4t12 -22q0 -20 -8 -51q-14 -53 -26.5 -90t-21.5 -64t-14.5 -44.5t-5.5 -31.5t12.5 -19t28.5 -5q10 0 20.5 2t18.5 2h41q16 0 24.5 9 t18.5 44q8 29 9.5 43t5.5 27q8 23 23.5 82t43.5 176q2 4 4 11t4 15q4 20 4 23q0 6 -8 15t-18 19.5t-21.5 17.5t-19.5 7q-16 0 -33.5 -3t-42.5 -3q-68 0 -136.5 3t-137.5 3h-183q-78 0 -121.5 -1t-65 -3t-29 -5t-11.5 -9q-2 -4 -8 -16.5t-12.5 -29t-11.5 -31.5t-5 -24z" />
<glyph unicode="&#xad;" horiz-adv-x="933" d="M242 594q0 -14 4 -27.5t8 -25.5q10 -27 21.5 -42.5t25.5 -15.5t47 -3t76 -6t91 -5t95 -2h39q23 0 43.5 1t36.5 2t25 3q37 10 69.5 12.5t42.5 12.5q20 20 24.5 41.5t4.5 68.5q0 37 -76 37q-29 0 -75 -4t-78 -4q-92 0 -172 4t-172 4q-14 0 -40 -5t-34 -19q-6 -12 -6 -27z " />
<glyph unicode="&#xae;" horiz-adv-x="1347" d="M291 745q0 -20 5 -50.5t13 -61.5q12 -53 30.5 -90t44.5 -68t60.5 -57.5t81.5 -57.5q53 -35 129.5 -56t137.5 -21q127 0 225 33.5t172 89t123 124t79.5 139t44 137t13.5 116.5q0 72 -16.5 123t-51.5 110q-41 66 -88 101.5t-75 66.5q-59 66 -139.5 86.5t-213.5 20.5 q-139 0 -245.5 -68t-180 -170t-111.5 -222t-38 -225zM442 737q0 94 31 195.5t90.5 184.5t149.5 136.5t207 53.5q72 0 137 -17.5t117.5 -54.5t85 -93t40.5 -132q2 -14 3 -27v-27q0 -115 -44.5 -232.5t-146.5 -209.5q-59 -53 -138 -83t-190 -30q-74 0 -137 25t-108 70 t-71 106.5t-26 134.5zM584 551q0 -12 14 -15.5t29 -13.5q10 -6 19 -7t20 -1q20 0 36 8q8 4 9 15q0 2 1 18t4 38.5t8 48.5t11 44t9.5 37.5t17.5 40.5q18 -53 43.5 -103.5t68.5 -101.5q18 -23 47 -38t58 -15q18 0 28.5 1t16.5 3q10 4 20.5 11t10.5 36q0 27 -13 49q-2 4 -12 8 q-20 6 -37.5 15.5t-34 28t-37 51t-47.5 88.5q76 16 112 36.5t56 40.5q39 39 67 89.5t28 107.5q0 43 -11 78q-4 8 -22.5 26.5t-34.5 24.5q-59 25 -123 25q-61 0 -125.5 -23.5t-118.5 -60.5q-10 -6 -11 -7t-1 -6q0 -14 9.5 -28.5t21.5 -26.5q6 -6 6 -8t-8 -21 q-4 -10 -14.5 -35.5t-20.5 -58.5q-33 -98 -57.5 -181t-36.5 -169q-4 -35 -5 -40t-1 -9zM801 887q12 37 21 63.5t18.5 50t21.5 48t31 57.5q6 10 10 13t15 5q18 4 26 7.5t25 3.5q8 0 16 -3.5t12 -9.5q2 -4 3 -14t1 -18q0 -55 -30.5 -101.5t-75.5 -75.5q-27 -16 -50.5 -21 t-43.5 -5z" />
<glyph unicode="&#xaf;" d="M520 1583q0 -96 45 -113q10 -4 54.5 -6t105.5 -2q39 0 89 1t95 1q47 0 85 1t53 1q16 0 38.5 -1t36.5 -1q23 0 33 17q10 16 11 27.5t1 35.5q0 6 2 12.5t2 10.5q0 6 -8 14q-10 10 -11 19.5t-17 9.5q-20 0 -52 -1t-69 -2t-75 -2t-71 -1q-70 0 -112.5 1t-71.5 3t-49.5 3 t-44.5 1q-70 0 -70 -29z" />
<glyph unicode="&#xb0;" horiz-adv-x="786" d="M356 1006q0 -66 47 -150q16 -29 55.5 -60.5t84.5 -52.5q47 -20 96 -20q47 0 85 15.5t58 31.5q53 45 90 98.5t60.5 103.5t34 92t10.5 66q0 27 -8 55.5t-22.5 55.5t-34 49.5t-40.5 36.5q-31 23 -56 35t-46.5 17t-43 6t-44.5 1t-50.5 -10t-55 -26.5t-53 -37t-40.5 -40.5 q-55 -76 -91 -138.5t-36 -127.5zM504 934q0 70 48 152.5t146 175.5q20 18 32.5 22t33.5 4q16 0 30.5 -16t24.5 -43q6 -16 10.5 -30.5t4.5 -31.5q0 -27 -10.5 -55.5t-33 -65t-57.5 -85t-84 -111.5q-16 -20 -31.5 -25.5t-27.5 -5.5q-10 0 -24.5 5t-28 17.5t-23.5 35t-10 57.5z " />
<glyph unicode="&#xb1;" horiz-adv-x="1208" d="M160 203q0 -12 3 -34t8 -42.5t13.5 -35.5t18.5 -15q12 0 39.5 -2t64.5 -5t78 -5.5t82 -2.5q61 0 135 2.5t143.5 5.5t127 6t85.5 3q12 0 27.5 -2t28.5 -2q10 0 16 16q8 20 12.5 40.5t4.5 45.5q0 10 -1.5 15.5t-5.5 15.5q-20 20 -30.5 24.5t-26.5 4.5q-45 0 -106.5 -3.5 t-124 -6.5t-116.5 -5t-83 -2q-139 0 -219 8.5t-105 8.5q-70 0 -69 -33zM293 778q0 -49 10 -79.5t27 -36.5q8 -4 29.5 -7.5t49 -6.5t56.5 -5t51 -2h78q10 0 10 -12l-14 -74q-16 -84 -30.5 -136t-14.5 -102q0 -6 13 -17t48 -11q6 0 15.5 3t17.5 3q45 0 55.5 19.5t14.5 50.5 q6 45 12 76.5t12 62.5t14.5 64.5t22.5 82.5q2 6 14 6q43 6 77 9.5t64.5 5.5t62.5 5t69 7q12 2 26.5 3t26.5 1q8 0 15.5 -2t15.5 -2q12 0 20 21q8 20 17.5 39.5t9.5 41.5q0 10 -1 14.5t-7 10.5q-29 29 -76 29q-12 0 -43 -3t-67 -8.5t-68.5 -8.5t-46.5 -3h-23q-10 0 -22 -2 q-8 0 -9 10q18 51 30.5 92t31.5 101l22 72q2 6 5.5 14t3.5 12q0 10 -11 21q-4 4 -23.5 8t-31.5 4q-14 0 -31.5 -8t-54.5 -19q-10 -4 -21.5 -28.5t-25.5 -83.5q-2 -10 -10.5 -36t-17.5 -54.5t-17 -57t-15 -45.5q-4 -14 -49 -14h-55h-37t-51.5 2t-52 4t-37.5 6q-10 4 -17 4 h-12q-20 0 -37 -14q-18 -14 -18 -27z" />
<glyph unicode="&#xb2;" horiz-adv-x="745" d="M197 496q0 -23 13 -47.5t46 -51.5q31 -25 107.5 -30t158.5 -5q129 0 187.5 9.5t81.5 38.5q4 4 12 21.5t17 41t15.5 49t6.5 45.5t-11 31q-23 25 -41 30t-30 5q-23 0 -40.5 -7.5t-25.5 -15.5q-4 -4 -10 -17t-14 -32q-10 -23 -20.5 -37t-29 -23t-49 -13.5t-77.5 -4.5h-41 t-43 4q-10 2 -11 7q0 8 34 44.5t81 85t97.5 98.5t84.5 85q76 80 135.5 181.5t59.5 209.5q0 16 -16.5 39t-41 44.5t-54 35.5t-56.5 14q-59 0 -97 -7t-89 -38q-41 -25 -75 -49.5t-56 -56.5q-10 -12 -24.5 -32t-14.5 -42q0 -39 26 -66q10 -10 23.5 -15t36.5 -5q4 0 12 2t22 4 t23.5 7t17.5 24q6 14 17.5 24.5t21.5 22.5q6 8 21.5 27.5t36 40t46 35t54.5 14.5q12 0 14 -8.5t2 -16.5q0 -35 -23.5 -81t-60 -97t-79.5 -100.5t-81 -90.5t-64.5 -67.5t-31.5 -30.5l-96 -96t-59 -62q-25 -27 -37 -47t-12 -28z" />
<glyph unicode="&#xb3;" horiz-adv-x="745" d="M217 567q0 -12 6 -26.5t17 -24.5q16 -18 43.5 -48t63.5 -57.5t79 -47t88 -19.5q55 0 97 19.5t74 50t56.5 69.5t42.5 80q23 45 38.5 94.5t15.5 90.5q0 16 -3.5 41.5t-17.5 52t-40.5 48t-76.5 32.5q31 33 71 85t79 119q4 8 7 16.5t7 18.5q6 14 10.5 25.5t4.5 25.5 q0 16 -9 33q-4 10 -17 23.5t-38 21.5q-12 4 -18 8q-16 12 -36 16.5t-40 4.5q-29 0 -56.5 -8t-52 -18.5t-44 -23t-31.5 -18.5q-10 -6 -29 -9t-27 -11q-33 -31 -63.5 -54.5t-30.5 -66.5q0 -8 12.5 -29.5t22.5 -31.5q12 -12 45 -13q10 0 29.5 3t23.5 10q12 16 25.5 20t13.5 27 q0 8 11.5 19t29.5 24.5t40 27t40 23.5q8 4 14 4q4 0 4 -4q0 -6 -6 -19q-25 -49 -77 -125.5t-152 -144.5q-4 -4 -11.5 -12t-25.5 -19q-16 -10 -31.5 -19t-29.5 -22q-6 -6 -7 -18q0 -16 11.5 -36.5t29.5 -26.5t39 -7q41 0 77 20.5t56 31.5q10 6 21.5 8t21.5 6q20 8 31 8 q16 0 25 -12q6 -10 11 -22.5t5 -30.5q0 -10 -12 -49t-27 -70q-27 -59 -54.5 -94t-68.5 -64q-10 -6 -14 -7t-10 -1q-14 0 -28.5 7t-27 17.5t-20.5 19.5t-8 15q0 16 -17.5 31.5t-31.5 32.5q-16 18 -43 18q-12 0 -22.5 -2t-37.5 -2q-29 0 -38 -9t-9 -26z" />
<glyph unicode="&#xb4;" d="M553 1501q0 -10 6 -16l8 -8t11 -15q10 -14 30 -28q8 -4 23 -4q18 0 41 6l241 75q74 23 104 36.5t44 29.5q6 8 8 18.5t2 34.5q0 20 -4 31.5t-18 26.5q-16 16 -39 16q-6 0 -15.5 -1t-13.5 -5q-14 -10 -35.5 -20.5t-45 -20.5t-44.5 -18.5t-33 -12.5l-182 -70 q-43 -16 -51 -16q-4 0 -13.5 -2t-13.5 -8q-10 -12 -10 -29z" />
<glyph unicode="&#xb6;" horiz-adv-x="1114" d="M340 1012q0 -135 87 -212t228 -77v-723h103v1206h106v-1206h103v1206h118v94h-430q-141 0 -228 -76.5t-87 -211.5z" />
<glyph unicode="&#xb7;" horiz-adv-x="704" d="M295 559q0 -23 3 -47.5t9 -42.5q4 -14 21.5 -24.5t39 -17.5t45 -11t40.5 -4q55 0 84.5 42t48.5 103q6 25 6 49q0 45 -35 90q-23 29 -78 29q-45 0 -92 -13.5t-68 -33.5q-10 -10 -17 -45t-7 -74z" />
<glyph unicode="&#xb8;" horiz-adv-x="692" d="M0 -215q0 -12 14 -33q10 -16 29.5 -34.5t71.5 -36.5q29 -10 59.5 -18.5t61.5 -8.5q45 0 91 25.5t95 97.5q16 23 25.5 51.5t9.5 44.5q0 31 -6.5 49.5t-14.5 28.5l-67 106h-111l55 -86q10 -16 11 -39q0 -6 -1 -14t-10 -24q-29 -59 -56.5 -94.5t-74.5 -35.5q-29 0 -50 13.5 t-23 27.5q-2 10 -15.5 19.5t-23.5 9.5q-6 0 -11.5 3t-11.5 3q-8 0 -16 -8q-31 -31 -31 -47z" />
<glyph unicode="&#xb9;" horiz-adv-x="745" d="M205 666q0 -12 22 -37q6 -8 15.5 -12.5t17.5 -12.5t20.5 -11t24.5 -3q16 0 28.5 4t16.5 10q4 8 17.5 18.5t45 42t89 95t149.5 178.5q12 14 15 14q4 0 4 -4q-25 -109 -49.5 -201t-53.5 -196q-6 -23 -15 -40t-13 -46q-2 -6 -5.5 -21.5t-3.5 -31.5q0 -23 9 -31 q33 -29 82 -29q10 0 19 2t19 2q16 0 25.5 8.5t15 20.5t6.5 23.5t1 17.5q0 29 5 50.5t9 37.5q47 186 90 369.5t113 357.5q4 12 4 19q0 16 -11.5 29.5t-29 22.5t-38 14t-36.5 5q-29 0 -37 -12q-25 -41 -51.5 -82t-58.5 -80q-72 -86 -144.5 -170t-138.5 -156q-20 -23 -36.5 -36 t-27.5 -21q-16 -10 -35.5 -24.5t-52.5 -47.5q-27 -27 -26 -36z" />
<glyph unicode="&#xba;" horiz-adv-x="835" d="M61 442q0 -25 1 -34t3.5 -13t4.5 -10t6 -20q4 -16 14 -24.5t45 -16.5q8 -2 25.5 -3.5t38 -2.5l41 -2t32.5 -1q76 0 112 2t56.5 4.5t38 4.5t53.5 2q78 0 128.5 -2t80.5 -2q47 0 64.5 2t25.5 12q12 16 18.5 28.5t6.5 28.5q0 14 -19.5 25.5t-19.5 21.5q0 4 4 6.5t4 8.5 t-14 8q-25 4 -55.5 6t-59.5 2q-6 0 -37.5 -2t-79 -3t-105.5 -3t-120 -2h-92q-18 0 -57 7t-60 7q-59 0 -71.5 -7t-12.5 -28zM270 815q0 -84 68 -176q39 -53 88 -70.5t104 -17.5q66 0 120.5 15.5t113.5 86.5q39 45 72.5 98.5t59.5 108.5t41 110.5t15 106.5q0 45 -13 86 t-33.5 72t-44 49.5t-44.5 18.5q-16 0 -23.5 6l-17.5 14t-25.5 14t-45.5 6q-104 0 -186.5 -63t-131.5 -150q-53 -92 -85 -167.5t-32 -147.5zM426 780q0 72 48 166t140 221q23 33 50.5 47.5t46.5 14.5q25 0 31 -4t6 -21q0 -8 5 -17.5t9 -15.5q16 -18 22.5 -36.5t6.5 -53.5 q0 -18 -7.5 -44.5t-25 -68.5t-49 -99.5t-80.5 -135.5q-23 -37 -50.5 -59.5t-50.5 -22.5q-47 0 -74.5 36t-27.5 93z" />
<glyph unicode="&#xbb;" horiz-adv-x="839" d="M190 362q0 -10 6.5 -16t10.5 -10q23 -16 29 -17q6 0 15 4.5t25 20.5l248 221q14 12 29.5 37t15.5 47q0 25 -2 39t-10 35l-98 235q-10 23 -27 23q-14 0 -18 -5t-21 -5q-16 0 -39 -15q-6 -4 -17 -16t-20.5 -25.5t-16.5 -24.5t-7 -16q0 -10 10 -24q4 -10 14.5 -28.5 t20.5 -39.5l53 -98q8 -16 8 -25q0 -18 -16 -36l-174 -181q-14 -16 -16.5 -33.5t-2.5 -46.5zM512 393q0 -10 6 -13t6 -7q0 -16 13.5 -32.5t23.5 -16.5q31 0 47.5 6t40.5 30l205 205q23 23 34 48.5t11 35.5q0 51 -8 68l-78 160q-29 59 -38 72.5t-17 17.5t-27 4q-10 0 -25.5 -3 t-25.5 -18q-29 -37 -48.5 -49t-19.5 -35q0 -10 16.5 -30.5t26.5 -38.5q8 -16 13.5 -25.5t9.5 -15.5t7 -12.5t7 -14.5q4 -12 10.5 -24.5t16.5 -28.5q8 -10 8 -25q0 -8 -2 -13t-12 -15l-193 -209q-6 -6 -7 -12.5t-1 -8.5z" />
<glyph unicode="&#xbc;" horiz-adv-x="1945" d="M205 666q0 -12 22 -37q6 -8 15.5 -12.5t17.5 -12.5t20.5 -11t24.5 -3q16 0 28.5 4t16.5 10q4 8 17.5 18.5t45 42t89 95t149.5 178.5q12 14 15 14q4 0 4 -4q-25 -109 -49.5 -201t-53.5 -196q-6 -23 -15 -40t-13 -46q-2 -6 -5.5 -21.5t-3.5 -31.5q0 -23 9 -31 q33 -29 82 -29q10 0 19 2t19 2q16 0 25.5 8.5t15 20.5t6.5 23.5t1 17.5q0 29 5 50.5t9 37.5q47 186 90 369.5t113 357.5q4 12 4 19q0 16 -11.5 29.5t-29 22.5t-38 14t-36.5 5q-29 0 -37 -12q-25 -41 -51.5 -82t-58.5 -80q-72 -86 -144.5 -170t-138.5 -156q-20 -23 -36.5 -36 t-27.5 -21q-16 -10 -35.5 -24.5t-52.5 -47.5q-27 -27 -26 -36zM596 4q0 -23 7 -32t26 -21q16 -12 29.5 -14.5t37.5 -2.5q10 0 54.5 52.5t103.5 144.5q90 137 169 268t156.5 257t157.5 247t170 240q14 18 31.5 27.5t44.5 39.5q12 14 19.5 17.5t11.5 5.5q12 4 15 13t3 48 q0 31 -4 41.5t-14 18.5q-29 25 -55 24q-25 0 -66 -28q-8 -6 -24.5 -23.5t-37 -42t-43 -53.5t-40.5 -57l-625 -963q-29 -43 -45 -67.5t-27.5 -37t-18.5 -17.5t-14 -7q-10 -4 -16 -15.5t-6 -62.5zM1165 340q0 -4 7.5 -20.5t19.5 -36t27.5 -37t31.5 -23.5q51 -20 104.5 -25 t112.5 -5q11 -1 11 -7q0 -2 -4 -22q-4 -16 -5.5 -23.5l-3.5 -17.5q-12 -66 -12 -84q0 -10 2 -20.5t19 -20.5q23 -14 45 -27.5t61 -13.5q18 0 22.5 11.5t6.5 21.5q10 55 14 112.5t27 110.5q23 6 50.5 10t49.5 8q47 6 84 7.5t37 27.5q0 6 -2 15.5t-10 25.5t-15 23 q-14 14 -33.5 18t-42.5 4q-37 0 -63.5 -6t-30.5 -6q-6 0 -6 6q0 4 2 18.5t19 73.5q8 33 19 71t21.5 69.5t17.5 56t9 33.5q12 43 12 73q0 16 12.5 42t12.5 51q0 18 -12.5 33.5t-44.5 27.5q-23 8 -41 8q-25 0 -37 -11t-21 -24q-6 -10 -30 -30q-129 -111 -234.5 -232 t-191.5 -217q-10 -12 -13.5 -22.5t-3.5 -26.5zM1331 326q0 2 6 12q49 59 109 130t113 132q20 23 24 23q2 0 2 -7q0 -2 -14 -51q-20 -70 -35.5 -125t-26.5 -110q-2 -10 -4 -12.5t-12 -4.5q-16 -2 -33.5 -3t-23.5 -1h-45q-23 0 -39 4q-20 4 -21 13z" />
<glyph unicode="&#xbd;" horiz-adv-x="1945" d="M205 666q0 -12 22 -37q6 -8 15.5 -12.5t17.5 -12.5t20.5 -11t24.5 -3q16 0 28.5 4t16.5 10q4 8 17.5 18.5t45 42t89 95t149.5 178.5q12 14 15 14q4 0 4 -4q-25 -109 -49.5 -201t-53.5 -196q-6 -23 -15 -40t-13 -46q-2 -6 -5.5 -21.5t-3.5 -31.5q0 -23 9 -31 q33 -29 82 -29q10 0 19 2t19 2q16 0 25.5 8.5t15 20.5t6.5 23.5t1 17.5q0 29 5 50.5t9 37.5q47 186 90 369.5t113 357.5q4 12 4 19q0 16 -11.5 29.5t-29 22.5t-38 14t-36.5 5q-29 0 -37 -12q-25 -41 -51.5 -82t-58.5 -80q-72 -86 -144.5 -170t-138.5 -156q-20 -23 -36.5 -36 t-27.5 -21q-16 -10 -35.5 -24.5t-52.5 -47.5q-27 -27 -26 -36zM573 4q0 -23 7.5 -32t25.5 -21q16 -12 29.5 -14.5t38.5 -2.5q10 0 54 52.5t103 144.5q90 137 169 268t157 257t158 247t170 240q14 18 31.5 27.5t44.5 39.5q12 14 19 17.5l11 5.5q12 4 15.5 13t3.5 48 q0 31 -4 41.5t-15 18.5q-29 25 -55 24q-25 0 -66 -28q-8 -6 -24 -23.5t-36.5 -42t-43.5 -53.5t-41 -57l-625 -963q-29 -43 -45 -67.5t-27.5 -37t-18.5 -17.5t-13 -7q-10 -4 -16.5 -15.5t-6.5 -62.5zM1155 100q0 -23 13.5 -47t45.5 -51q31 -25 108 -30t159 -5q129 0 187 9.5 t81 37.5q4 4 12 21.5t17.5 41t15.5 49.5t6 46t-10 31q-23 25 -41 30t-31 5q-23 0 -40 -7.5t-25 -15.5q-4 -4 -10.5 -17.5t-14.5 -31.5q-10 -23 -20.5 -37t-28.5 -23.5t-49 -13.5t-78 -4h-41t-43 4q-10 2 -10 6q0 8 33.5 45t81 85t97.5 98.5t85 85.5q76 80 135 181t59 210 q0 16 -16 38.5t-41 44t-54.5 36t-56.5 14.5q-59 0 -97 -7t-89 -38q-41 -25 -75 -49.5t-56 -57.5q-10 -12 -24.5 -31.5t-14.5 -41.5q0 -39 27 -66q10 -10 23.5 -15t35.5 -5q4 0 12.5 2t22.5 4t23.5 7t17.5 24q6 14 17.5 24t21.5 23q6 8 21.5 27.5t36 40t45.5 34.5t54 14 q12 0 14.5 -8t2.5 -16q0 -35 -23.5 -81t-60.5 -97.5t-80 -100.5t-81 -90t-64.5 -67.5l-30.5 -30.5l-96 -96t-60 -62q-25 -27 -37 -47t-12 -29z" />
<glyph unicode="&#xbe;" horiz-adv-x="1945" d="M217 567q0 -12 6 -26.5t17 -24.5q16 -18 43.5 -48t63.5 -57.5t79 -47t88 -19.5q55 0 97 19.5t74 50t56.5 69.5t42.5 80q23 45 38.5 94.5t15.5 90.5q0 16 -3.5 41.5t-17.5 52t-40.5 48t-76.5 32.5q31 33 71 85t79 119q4 8 7 16.5t7 18.5q6 14 10.5 25.5t4.5 25.5 q0 16 -9 33q-4 10 -17 23.5t-38 21.5q-12 4 -18 8q-16 12 -36 16.5t-40 4.5q-29 0 -56.5 -8t-52 -18.5t-44 -23t-31.5 -18.5q-10 -6 -29 -9t-27 -11q-33 -31 -63.5 -54.5t-30.5 -66.5q0 -8 12.5 -29.5t22.5 -31.5q12 -12 45 -13q10 0 29.5 3t23.5 10q12 16 25.5 20t13.5 27 q0 8 11.5 19t29.5 24.5t40 27t40 23.5q8 4 14 4q4 0 4 -4q0 -6 -6 -19q-25 -49 -77 -125.5t-152 -144.5q-4 -4 -11.5 -12t-25.5 -19q-16 -10 -31.5 -19t-29.5 -22q-6 -6 -7 -18q0 -16 11.5 -36.5t29.5 -26.5t39 -7q41 0 77 20.5t56 31.5q10 6 21.5 8t21.5 6q20 8 31 8 q16 0 25 -12q6 -10 11 -22.5t5 -30.5q0 -10 -12 -49t-27 -70q-27 -59 -54.5 -94t-68.5 -64q-10 -6 -14 -7t-10 -1q-14 0 -28.5 7t-27 17.5t-20.5 19.5t-8 15q0 16 -17.5 31.5t-31.5 32.5q-16 18 -43 18q-12 0 -22.5 -2t-37.5 -2q-29 0 -38 -9t-9 -26zM596 4q0 -23 7 -32 t26 -21q16 -12 29.5 -14.5t37.5 -2.5q10 0 54.5 52.5t103.5 144.5q90 137 169 268t156.5 257t157.5 247t170 240q14 18 31.5 27.5t44.5 39.5q12 14 19.5 17.5t11.5 5.5q12 4 15 13t3 48q0 31 -4 41.5t-14 18.5q-29 25 -55 24q-25 0 -66 -28q-8 -6 -24.5 -23.5t-37 -42 t-43 -53.5t-40.5 -57l-625 -963q-29 -43 -45 -67.5t-27.5 -37t-18.5 -17.5t-14 -7q-10 -4 -16 -15.5t-6 -62.5zM1165 340q0 -4 7.5 -20.5t19.5 -36t27.5 -37t31.5 -23.5q51 -20 104.5 -25t112.5 -5q11 -1 11 -7q0 -2 -4 -22q-4 -16 -5.5 -23.5l-3.5 -17.5q-12 -66 -12 -84 q0 -10 2 -20.5t19 -20.5q23 -14 45 -27.5t61 -13.5q18 0 22.5 11.5t6.5 21.5q10 55 14 112.5t27 110.5q23 6 50.5 10t49.5 8q47 6 84 7.5t37 27.5q0 6 -2 15.5t-10 25.5t-15 23q-14 14 -33.5 18t-42.5 4q-37 0 -63.5 -6t-30.5 -6q-6 0 -6 6q0 4 2 18.5t19 73.5q8 33 19 71 t21.5 69.5t17.5 56t9 33.5q12 43 12 73q0 16 12.5 42t12.5 51q0 18 -12.5 33.5t-44.5 27.5q-23 8 -41 8q-25 0 -37 -11t-21 -24q-6 -10 -30 -30q-129 -111 -234.5 -232t-191.5 -217q-10 -12 -13.5 -22.5t-3.5 -26.5zM1331 326q0 2 6 12q49 59 109 130t113 132q20 23 24 23 q2 0 2 -7q0 -2 -14 -51q-20 -70 -35.5 -125t-26.5 -110q-2 -10 -4 -12.5t-12 -4.5q-16 -2 -33.5 -3t-23.5 -1h-45q-23 0 -39 4q-20 4 -21 13z" />
<glyph unicode="&#xbf;" horiz-adv-x="737" d="M102 154q0 -45 33 -80t66 -54q39 -23 76.5 -31.5t91.5 -8.5q51 0 89 12t72 45q20 18 39 54t19 77q0 16 -8.5 38.5t-18.5 33.5q-20 23 -34.5 26.5t-39.5 3.5q-29 0 -38 -13t-9 -30q0 -10 2 -24.5t2 -20.5q0 -43 -30.5 -61.5t-69.5 -18.5q-12 0 -26.5 6.5t-26.5 15.5 t-21.5 20.5t-9.5 23.5q0 14 6 31.5t21.5 40t44 53.5t71.5 74q98 98 153.5 155.5t81.5 94t31 61t5 57.5q0 43 -24.5 74t-65.5 53q-49 27 -89 34t-92 7q-45 0 -88 -13t-65 -30q-10 -8 -20.5 -27.5t-10.5 -31.5q0 -8 7 -18.5t12 -22.5q6 -16 25.5 -21.5t27.5 -5.5q25 0 59 23 q14 10 38 13t42 3q27 0 54.5 -12t27.5 -35q0 -16 -7 -32.5t-27.5 -41t-57.5 -62.5t-94 -97q-78 -82 -123 -130.5t-67.5 -82t-28 -60t-5.5 -65.5zM516 1182q0 -14 15.5 -28.5t25.5 -29.5q8 -10 28.5 -19t43.5 -9q27 0 52.5 15t45.5 36q18 19 18 70q0 12 -18 30.5t-41.5 34.5 t-47.5 27.5t-34 11.5q-20 0 -40.5 -13.5t-37.5 -70.5q-4 -10 -7 -24.5t-3 -30.5z" />
<glyph unicode="&#xc0;" d="M23 315q0 -23 15 -34t50 -29q12 -6 12 -14q0 -2 -4 -19.5t-9 -42t-9 -55.5t-4 -62q0 -33 3 -54t9 -36.5t17.5 -27t27.5 -21.5q10 -6 22.5 -12t16.5 -6q23 0 40 15t38 30q10 6 10 12q0 12 -3 29.5t-3 85.5q0 29 7 65.5t26 77.5q8 16 14 21.5t16 7.5q31 4 83.5 18.5 t111.5 32.5t118.5 37.5t102.5 36.5q12 0 12 -9q0 -72 -4 -138t-4 -136q0 -37 2 -79t7.5 -78.5t12.5 -64.5t17 -38q20 -20 50 -28.5t55 -8.5q6 0 10 1t12 7q12 10 26.5 21.5t14.5 29.5q0 4 -6 16.5t-14.5 37t-14.5 66.5t-6 104v28v37q0 18 1 36t1 28l10 205q2 20 5.5 25 t17.5 16q16 10 40.5 15t49.5 5q59 0 94 11.5t54 41.5q8 14 8 27q0 8 -13 22q-16 18 -50 28.5t-75 10.5q-45 0 -70.5 -4t-35.5 -4t-11 4t-1 8q0 2 3 59.5t9 136.5t14.5 163t18.5 143q6 39 6 68q0 4 5 32.5t10 62.5t10.5 63.5t5.5 35.5q0 12 -6.5 14.5t-10.5 18.5 q-4 8 -26.5 13.5t-42.5 5.5q-35 0 -75 -12.5t-56 -12.5q-6 0 -13.5 -7t-32.5 -44q-84 -127 -159.5 -246t-143 -232.5t-131 -224t-123.5 -221.5q-10 -20 -15 -24.5t-9 -4.5q-20 0 -42 17.5t-46 17.5q-12 0 -23 -8q-4 -4 -17 -41t-13 -72zM379 426q0 4 4 14.5t20 38.5 q39 74 79 146.5t85 149.5t95.5 160t109.5 177q8 12 11 14t8 2q4 0 5 -5t1 -27q0 -70 -10 -201t-39 -348q-2 -12 -4.5 -15.5t-10.5 -7.5q-6 -4 -43 -15t-94 -34q-25 -10 -56.5 -19.5t-62.5 -18.5t-54.5 -14t-31.5 -5q-12 0 -12 8zM711 1718q0 -29 4 -45.5t20 -22.5 q35 -14 75 -33.5t60 -33.5l209 -136q18 -12 30.5 -15t33.5 -3q20 0 26 21q2 6 2 14t5 18l7 17.5t3 17.5q0 14 -53 51l-209 144q-35 25 -55.5 40t-32 23t-16.5 11.5t-9 3.5q-6 0 -12 3t-17 3q-25 0 -49 -25q-12 -12 -17 -23.5t-5 -29.5z" />
<glyph unicode="&#xc1;" d="M23 315q0 -23 15 -34t50 -29q12 -6 12 -14q0 -2 -4 -19.5t-9 -42t-9 -55.5t-4 -62q0 -33 3 -54t9 -36.5t17.5 -27t27.5 -21.5q10 -6 22.5 -12t16.5 -6q23 0 40 15t38 30q10 6 10 12q0 12 -3 29.5t-3 85.5q0 29 7 65.5t26 77.5q8 16 14 21.5t16 7.5q31 4 83.5 18.5 t111.5 32.5t118.5 37.5t102.5 36.5q12 0 12 -9q0 -72 -4 -138t-4 -136q0 -37 2 -79t7.5 -78.5t12.5 -64.5t17 -38q20 -20 50 -28.5t55 -8.5q6 0 10 1t12 7q12 10 26.5 21.5t14.5 29.5q0 4 -6 16.5t-14.5 37t-14.5 66.5t-6 104v28v37q0 18 1 36t1 28l10 205q2 20 5.5 25 t17.5 16q16 10 40.5 15t49.5 5q59 0 94 11.5t54 41.5q8 14 8 27q0 8 -13 22q-16 18 -50 28.5t-75 10.5q-45 0 -70.5 -4t-35.5 -4t-11 4t-1 8q0 2 3 59.5t9 136.5t14.5 163t18.5 143q6 39 6 68q0 4 5 32.5t10 62.5t10.5 63.5t5.5 35.5q0 12 -6.5 14.5t-10.5 18.5 q-4 8 -26.5 13.5t-42.5 5.5q-35 0 -75 -12.5t-56 -12.5q-6 0 -13.5 -7t-32.5 -44q-84 -127 -159.5 -246t-143 -232.5t-131 -224t-123.5 -221.5q-10 -20 -15 -24.5t-9 -4.5q-20 0 -42 17.5t-46 17.5q-12 0 -23 -8q-4 -4 -17 -41t-13 -72zM379 426q0 4 4 14.5t20 38.5 q39 74 79 146.5t85 149.5t95.5 160t109.5 177q8 12 11 14t8 2q4 0 5 -5t1 -27q0 -70 -10 -201t-39 -348q-2 -12 -4.5 -15.5t-10.5 -7.5q-6 -4 -43 -15t-94 -34q-25 -10 -56.5 -19.5t-62.5 -18.5t-54.5 -14t-31.5 -5q-12 0 -12 8zM627 1579q0 -10 6 -16l8 -8t11 -15 q10 -14 30 -28q8 -4 23 -4q18 0 41 6l241 75q74 23 104 36.5t44 29.5q6 8 8 18.5t2 34.5q0 20 -4 31.5t-18 26.5q-16 16 -39 16q-6 0 -15.5 -1t-13.5 -5q-14 -10 -35.5 -20.5t-45 -20.5t-44.5 -18.5t-33 -12.5l-182 -70q-43 -16 -51 -16q-4 0 -13.5 -2t-13.5 -8 q-10 -12 -10 -29z" />
<glyph unicode="&#xc2;" d="M23 315q0 -23 15 -34t50 -29q12 -6 12 -14q0 -2 -4 -19.5t-9 -42t-9 -55.5t-4 -62q0 -33 3 -54t9 -36.5t17.5 -27t27.5 -21.5q10 -6 22.5 -12t16.5 -6q23 0 40 15t38 30q10 6 10 12q0 12 -3 29.5t-3 85.5q0 29 7 65.5t26 77.5q8 16 14 21.5t16 7.5q31 4 83.5 18.5 t111.5 32.5t118.5 37.5t102.5 36.5q12 0 12 -9q0 -72 -4 -138t-4 -136q0 -37 2 -79t7.5 -78.5t12.5 -64.5t17 -38q20 -20 50 -28.5t55 -8.5q6 0 10 1t12 7q12 10 26.5 21.5t14.5 29.5q0 4 -6 16.5t-14.5 37t-14.5 66.5t-6 104v28v37q0 18 1 36t1 28l10 205q2 20 5.5 25 t17.5 16q16 10 40.5 15t49.5 5q59 0 94 11.5t54 41.5q8 14 8 27q0 8 -13 22q-16 18 -50 28.5t-75 10.5q-45 0 -70.5 -4t-35.5 -4t-11 4t-1 8q0 2 3 59.5t9 136.5t14.5 163t18.5 143q6 39 6 68q0 4 5 32.5t10 62.5t10.5 63.5t5.5 35.5q0 12 -6.5 14.5t-10.5 18.5 q-4 8 -26.5 13.5t-42.5 5.5q-35 0 -75 -12.5t-56 -12.5q-6 0 -13.5 -7t-32.5 -44q-84 -127 -159.5 -246t-143 -232.5t-131 -224t-123.5 -221.5q-10 -20 -15 -24.5t-9 -4.5q-20 0 -42 17.5t-46 17.5q-12 0 -23 -8q-4 -4 -17 -41t-13 -72zM379 426q0 4 4 14.5t20 38.5 q39 74 79 146.5t85 149.5t95.5 160t109.5 177q8 12 11 14t8 2q4 0 5 -5t1 -27q0 -70 -10 -201t-39 -348q-2 -12 -4.5 -15.5t-10.5 -7.5q-6 -4 -43 -15t-94 -34q-25 -10 -56.5 -19.5t-62.5 -18.5t-54.5 -14t-31.5 -5q-12 0 -12 8zM672 1577q0 -23 1 -34t9 -16q10 -4 20.5 -14 t29.5 -10q8 0 10 2q6 6 17 13t35 19.5t62.5 30t100.5 41.5q10 4 13 5t7 1q8 0 17 -12l129 -176q8 -12 20 -20.5t17 -8.5q16 0 21 4.5t15 18.5q8 10 18.5 16t10.5 23q0 8 -4 18.5t-18 32.5l-123 211q-10 16 -17 16q-4 0 -8 11q-8 14 -39 14q-8 0 -26 -6l-183 -64 q-72 -25 -90 -35t-22 -16q-4 -4 -8.5 -7t-10.5 -15q-4 -8 -4 -43z" />
<glyph unicode="&#xc3;" d="M23 315q0 -23 15 -34t50 -29q12 -6 12 -14q0 -2 -4 -19.5t-9 -42t-9 -55.5t-4 -62q0 -33 3 -54t9 -36.5t17.5 -27t27.5 -21.5q10 -6 22.5 -12t16.5 -6q23 0 40 15t38 30q10 6 10 12q0 12 -3 29.5t-3 85.5q0 29 7 65.5t26 77.5q8 16 14 21.5t16 7.5q31 4 83.5 18.5 t111.5 32.5t118.5 37.5t102.5 36.5q12 0 12 -9q0 -72 -4 -138t-4 -136q0 -37 2 -79t7.5 -78.5t12.5 -64.5t17 -38q20 -20 50 -28.5t55 -8.5q6 0 10 1t12 7q12 10 26.5 21.5t14.5 29.5q0 4 -6 16.5t-14.5 37t-14.5 66.5t-6 104v28v37q0 18 1 36t1 28l10 205q2 20 5.5 25 t17.5 16q16 10 40.5 15t49.5 5q59 0 94 11.5t54 41.5q8 14 8 27q0 8 -13 22q-16 18 -50 28.5t-75 10.5q-45 0 -70.5 -4t-35.5 -4t-11 4t-1 8q0 2 3 59.5t9 136.5t14.5 163t18.5 143q6 39 6 68q0 4 5 32.5t10 62.5t10.5 63.5t5.5 35.5q0 12 -6.5 14.5t-10.5 18.5 q-4 8 -26.5 13.5t-42.5 5.5q-35 0 -75 -12.5t-56 -12.5q-6 0 -13.5 -7t-32.5 -44q-84 -127 -159.5 -246t-143 -232.5t-131 -224t-123.5 -221.5q-10 -20 -15 -24.5t-9 -4.5q-20 0 -42 17.5t-46 17.5q-12 0 -23 -8q-4 -4 -17 -41t-13 -72zM379 426q0 4 4 14.5t20 38.5 q39 74 79 146.5t85 149.5t95.5 160t109.5 177q8 12 11 14t8 2q4 0 5 -5t1 -27q0 -70 -10 -201t-39 -348q-2 -12 -4.5 -15.5t-10.5 -7.5q-6 -4 -43 -15t-94 -34q-25 -10 -56.5 -19.5t-62.5 -18.5t-54.5 -14t-31.5 -5q-12 0 -12 8zM665 1683q0 -16 8.5 -38t8.5 -38t22.5 -23 t46.5 -7q4 0 8.5 1t12.5 5q43 27 65.5 35t34.5 8q8 0 19 -6q6 -4 15 -17.5t19.5 -30t22.5 -33t27 -28.5q29 -23 52 -30t56 -7q20 0 46 9.5t53.5 22.5t53 29.5t48.5 30.5q16 10 16 21q0 16 -3 23t-5 20q-2 14 -12.5 26.5t-28.5 12.5q-6 0 -30.5 -8.5t-52.5 -17.5t-52.5 -16 t-28.5 -7q-29 0 -42 14t-42 57q-29 41 -49 63.5t-49 22.5q-23 0 -39 -2t-53 -16l-129 -47q-10 -4 -14.5 -14.5t-4.5 -14.5z" />
<glyph unicode="&#xc4;" d="M23 315q0 -23 15 -34t50 -29q12 -6 12 -14q0 -2 -4 -19.5t-9 -42t-9 -55.5t-4 -62q0 -33 3 -54t9 -36.5t17.5 -27t27.5 -21.5q10 -6 22.5 -12t16.5 -6q23 0 40 15t38 30q10 6 10 12q0 12 -3 29.5t-3 85.5q0 29 7 65.5t26 77.5q8 16 14 21.5t16 7.5q31 4 83.5 18.5 t111.5 32.5t118.5 37.5t102.5 36.5q12 0 12 -9q0 -72 -4 -138t-4 -136q0 -37 2 -79t7.5 -78.5t12.5 -64.5t17 -38q20 -20 50 -28.5t55 -8.5q6 0 10 1t12 7q12 10 26.5 21.5t14.5 29.5q0 4 -6 16.5t-14.5 37t-14.5 66.5t-6 104v28v37q0 18 1 36t1 28l10 205q2 20 5.5 25 t17.5 16q16 10 40.5 15t49.5 5q59 0 94 11.5t54 41.5q8 14 8 27q0 8 -13 22q-16 18 -50 28.5t-75 10.5q-45 0 -70.5 -4t-35.5 -4t-11 4t-1 8q0 2 3 59.5t9 136.5t14.5 163t18.5 143q6 39 6 68q0 4 5 32.5t10 62.5t10.5 63.5t5.5 35.5q0 12 -6.5 14.5t-10.5 18.5 q-4 8 -26.5 13.5t-42.5 5.5q-35 0 -75 -12.5t-56 -12.5q-6 0 -13.5 -7t-32.5 -44q-84 -127 -159.5 -246t-143 -232.5t-131 -224t-123.5 -221.5q-10 -20 -15 -24.5t-9 -4.5q-20 0 -42 17.5t-46 17.5q-12 0 -23 -8q-4 -4 -17 -41t-13 -72zM379 426q0 4 4 14.5t20 38.5 q39 74 79 146.5t85 149.5t95.5 160t109.5 177q8 12 11 14t8 2q4 0 5 -5t1 -27q0 -70 -10 -201t-39 -348q-2 -12 -4.5 -15.5t-10.5 -7.5q-6 -4 -43 -15t-94 -34q-25 -10 -56.5 -19.5t-62.5 -18.5t-54.5 -14t-31.5 -5q-12 0 -12 8zM614 1602q0 -55 4 -60q10 -10 16.5 -22.5 t24.5 -24.5q4 -4 15 -4h16q8 0 21.5 2t26 7t22.5 11.5t10 14.5q0 6 8 15t16.5 21.5t15.5 29t7 34.5q0 10 -6 30t-16 36q-10 18 -38 22t-44 4q-25 0 -43.5 -6t-28.5 -26q-8 -16 -17.5 -45t-9.5 -39zM1051 1536q0 -31 16 -48.5t27 -39.5q14 -31 49 -31q10 0 29.5 2t29.5 6 q14 8 28.5 30t22.5 44q4 10 4 14v19q0 16 -9 33.5t-13 31.5q-4 18 -28.5 27.5t-51.5 9.5q-10 0 -23.5 1t-17.5 1q-16 0 -27.5 -13t-19.5 -30.5t-12 -34t-4 -22.5z" />
<glyph unicode="&#xc5;" d="M23 315q0 -23 15 -34t50 -29q12 -6 12 -14q0 -2 -4 -19.5t-9 -42t-9 -55.5t-4 -62q0 -33 3 -54t9 -36.5t17.5 -27t27.5 -21.5q10 -6 22.5 -12t16.5 -6q23 0 40 15t38 30q10 6 10 12q0 12 -3 29.5t-3 85.5q0 29 7 65.5t26 77.5q8 16 14 21.5t16 7.5q31 4 83.5 18.5 t111.5 32.5t118.5 37.5t102.5 36.5q12 0 12 -9q0 -72 -4 -138t-4 -136q0 -37 2 -79t7.5 -78.5t12.5 -64.5t17 -38q20 -20 50 -28.5t55 -8.5q6 0 10 1t12 7q12 10 26.5 21.5t14.5 29.5q0 4 -6 16.5t-14.5 37t-14.5 66.5t-6 104v28v37q0 18 1 36t1 28l10 205q2 20 5.5 25 t17.5 16q16 10 40.5 15t49.5 5q59 0 94 11.5t54 41.5q8 14 8 27q0 8 -13 22q-16 18 -50 28.5t-75 10.5q-45 0 -70.5 -4t-35.5 -4t-11 4t-1 8q0 2 3 52.5t9 120t13 146.5t16 136q4 23 4 33v28q0 4 4 32t10 59.5t10 60.5t4 35q0 12 -7 17t-11 16q-4 10 -31.5 14t-48.5 4 q-59 0 -95 -11t-52 -11q-6 0 -14.5 -7.5t-30.5 -46.5q-78 -131 -146.5 -239.5t-132 -210t-123 -201.5t-119.5 -211q-10 -20 -15 -24.5t-9 -4.5q-20 0 -42 17.5t-46 17.5q-12 0 -23 -8q-4 -4 -17 -41t-13 -72zM379 426q0 4 4 14.5t20 38.5q39 74 88.5 154t98.5 154.5t92 138 t68 104.5q16 27 21 33t9 6t5 -5t1 -28q0 -25 -2 -70.5t-7 -110t-12 -142.5t-17 -166q-2 -12 -4.5 -15.5t-10.5 -7.5q-6 -4 -43 -15t-94 -34q-25 -10 -56.5 -19.5t-62.5 -18.5t-54.5 -14t-31.5 -5q-12 0 -12 8zM760 1540q0 -29 16.5 -58.5t57.5 -58.5q16 -10 57 -18t72 -8 q47 0 75.5 19.5t42.5 39.5q53 80 54 170q0 12 -1.5 24.5t-3.5 24.5q-4 18 -34.5 48t-77.5 42q-25 6 -53 7q-37 0 -76 -15q-23 -8 -46.5 -34.5t-42 -59.5t-29.5 -66.5t-11 -56.5zM887 1548q0 35 16.5 67t38.5 62q6 8 12.5 11.5t20.5 3.5q4 0 11 -4.5t13 -14.5q18 -29 19 -57 q0 -33 -18.5 -63.5t-36.5 -63.5q-8 -12 -29 -12q-18 0 -33 20q-14 20 -14 51z" />
<glyph unicode="&#xc6;" horiz-adv-x="1507" d="M33 20q0 -25 14 -41t31 -32q4 -4 34.5 -7t51.5 -3q16 0 21 6t12 22q6 18 17 21.5t11 17.5q0 25 8.5 60.5t20.5 75.5t28.5 80t32.5 75q10 23 15.5 27t25.5 8q86 20 193 42.5t201 57.5q14 6 22 6t8 -10q0 -6 -1 -14.5t-3 -20.5q-6 -49 -12 -100t-11 -97.5t-7.5 -85 t-2.5 -63.5q0 -43 4.5 -65.5t14.5 -38.5q20 -29 55 -48.5t76 -19.5q111 0 202 18.5t167.5 48t142 65.5t125.5 71q14 8 31.5 19t33 22.5t26.5 19.5t11 13q2 8 2 26q0 14 -22.5 25.5t-59.5 27.5q-25 10 -36 11q-6 0 -17.5 -2t-40.5 -13q-66 -23 -120 -63.5t-107 -63.5 q-37 -14 -66.5 -29.5t-59.5 -27.5t-63.5 -20.5t-78.5 -8.5q-10 0 -21.5 15.5t-11.5 38.5q0 31 6 85t14 114.5t17.5 117.5t17.5 96q4 16 10 21.5t35 15.5q18 6 32.5 12.5t33 12.5t44 15t66.5 22q12 4 34 9t44.5 9t43 7t30.5 3q23 0 31 -3t24 -3q10 0 23.5 3t25.5 3 q18 0 31.5 8.5t13.5 22.5q0 29 -14 54.5t-31 39.5q-18 14 -50 20.5t-58 6.5q-41 0 -86 -6.5t-87 -13.5t-75 -15t-45 -14q-27 -10 -33 -11q-6 0 -10 11q4 27 12 66.5t17.5 83.5t19.5 91t18 88q4 25 10.5 31t22.5 10q106 29 218 58.5t253 29.5q25 0 32 -4t34 -4q20 0 35.5 -11 t27.5 -11q23 0 31 3t14 7q12 10 19.5 18.5t7.5 22.5q0 6 -1 14t-7 19q-29 41 -59.5 70.5t-53.5 29.5q-10 0 -30.5 4t-32.5 4q-96 0 -178 -11t-152 -28l-72 -16q-25 -6 -43 -6q-16 0 -16 12q0 8 9 34.5t9 47.5q0 10 -4 15t-12 16q-4 6 -26.5 11t-41.5 5q-16 0 -36.5 -4 l-41 -8t-36 -8.5t-21.5 -4.5q-8 0 -13 -5t-22 -25q-51 -66 -131 -159t-172 -201.5t-186 -228.5t-172 -239q-16 -27 -24.5 -33t-33.5 -6q-20 0 -42.5 1t-32.5 1q-25 0 -32 -5t-24 -35q-12 -23 -16 -47.5t-4 -61.5q0 -16 21.5 -22.5t37.5 -6.5q23 0 23 -8q0 -4 -10 -29 q-27 -59 -52.5 -126.5t-25.5 -127.5zM453 524q0 4 3 10.5t13 22.5q92 147 208 284.5t226 280.5q16 20 22.5 27.5t10.5 7.5t4 -6t-10 -47q-20 -82 -49 -198.5t-52 -239.5q-4 -25 -10 -32t-41 -20q-127 -47 -256 -82q-41 -10 -51 -12t-12 -2q-6 0 -6 6z" />
<glyph unicode="&#xc7;" horiz-adv-x="966" d="M0 -215q0 -12 14 -33q10 -16 29.5 -34.5t71.5 -36.5q35 -12 62.5 -19.5t58.5 -7.5q45 0 91 25.5t95 97.5q16 23 25.5 49.5t9.5 46.5q0 29 -4.5 43.5t-14.5 24.5q0 10 3 11t22 1q74 0 136.5 25.5t118.5 65.5t108.5 90t103.5 99q27 27 42 41.5t22 21.5t8.5 9t1.5 4 q0 4 -2.5 11.5t-12.5 21.5q-16 25 -32.5 32t-36.5 7h-39q-16 0 -24.5 -5t-16.5 -11q-76 -66 -149 -133.5t-163 -112.5q-12 -6 -29.5 -13.5t-35 -12.5t-32.5 -9t-23 -4q-29 0 -50.5 22.5t-44.5 40.5q-4 4 -9 14.5t-8 23t-5 23.5t-2 17q0 55 4 82t8 37q47 145 106.5 283.5 t151.5 263.5q53 74 103.5 138.5t99.5 113.5t98 76.5t103 27.5q10 0 14 -10t4 -16q0 -23 -11.5 -37.5t-13.5 -26.5q-4 -23 -15 -40t-23.5 -35.5t-22.5 -40t-10 -48.5q0 -18 25.5 -38.5t41.5 -24.5q10 -2 27.5 -5t32.5 -3q27 0 43 11t20 27q6 23 19.5 55.5t26 63.5t23.5 55.5 t15 34.5q2 4 2 23v24q0 18 -10 35t-26.5 34t-35 34.5t-32.5 36.5q-6 8 -38 18t-71 10q-20 0 -44.5 -3t-47 -7t-40 -8t-23.5 -8q-121 -68 -220.5 -168.5t-177.5 -218t-138 -246.5t-103 -252q-4 -8 -8.5 -32.5t-8.5 -55.5t-7 -62.5t-3 -54.5q0 -29 1 -59.5t9 -65.5 q6 -29 31 -59.5t55 -50.5l88 -58q12 -10 13 -39q0 -6 -1 -14t-10 -24q-29 -59 -56.5 -94.5t-74.5 -35.5q-29 0 -50 13.5t-23 27.5q-2 10 -15.5 19.5t-23.5 9.5q-6 0 -11.5 3t-11.5 3q-8 0 -16 -8q-31 -31 -31 -47z" />
<glyph unicode="&#xc8;" horiz-adv-x="1040" d="M160 147q0 -20 3 -54t13 -50q14 -23 39 -38t49.5 -25.5t44 -15.5t25.5 -5q104 0 194 18.5t171 47t155 66.5t143 75q23 12 56 41q23 20 45 26q12 2 12 27q0 8 -9 18.5t-19.5 18.5t-21.5 15t-13 12q-4 6 -21 6q-47 0 -89 -16.5t-82 -40t-80 -48t-81 -43.5 q-25 -10 -58.5 -23.5t-80.5 -33.5q-43 -18 -90 -28.5t-76 -10.5q-16 0 -33.5 22.5t-17.5 47.5q0 43 14.5 98t38 115.5t51 122t52.5 118.5q6 14 27.5 21.5t33.5 11.5q39 10 81 25.5t86 31t90 25.5t93 10q14 0 31.5 -3t36.5 -3q6 0 22.5 3t32.5 8t29.5 12.5t13.5 17.5 q0 16 -5 35.5t-22 30.5q-76 41 -153 41q-78 0 -155 -28t-146 -52q-8 0 -8 8q29 76 56.5 144.5t55.5 144.5q4 12 9.5 16t15.5 8q111 37 241 66.5t275 29.5q29 0 45 -10t29 -10q14 0 25.5 6t25.5 6q16 0 23.5 8t7.5 31q0 29 -32 56.5t-69 46.5q-10 4 -31.5 8t-37.5 4 q-78 0 -162 -12.5t-162 -28.5t-139.5 -33.5t-91.5 -30.5q-92 -35 -182.5 -68.5t-188.5 -58.5q-12 -4 -12 -14t4 -24.5t11 -30t17.5 -28.5t20.5 -19q16 -8 39 -8t44 8t32 8q8 0 8 -10q-12 -47 -36 -104.5t-67 -153.5q-8 -16 -13 -20.5t-17 -8.5l-45.5 -13t-14.5 -12 q-4 -4 -4 -12v-12q0 -27 11.5 -43.5t15.5 -20.5q-20 -55 -43 -111.5t-42.5 -112.5t-31.5 -115.5t-12 -123.5zM525 1706q0 -29 4 -45.5t20 -22.5q35 -14 75 -33.5t60 -33.5l209 -136q18 -12 30.5 -15t33.5 -3q20 0 26 21q2 6 2 14t5 18l7 17.5t3 17.5q0 14 -53 51l-209 144 q-35 25 -55.5 40t-32 23t-16.5 11.5t-9 3.5q-6 0 -12 3t-17 3q-25 0 -49 -25q-12 -12 -17 -23.5t-5 -29.5z" />
<glyph unicode="&#xc9;" horiz-adv-x="1040" d="M160 147q0 -20 3 -54t13 -50q14 -23 39 -38t49.5 -25.5t44 -15.5t25.5 -5q104 0 194 18.5t171 47t155 66.5t143 75q23 12 56 41q23 20 45 26q12 2 12 27q0 8 -9 18.5t-19.5 18.5t-21.5 15t-13 12q-4 6 -21 6q-47 0 -89 -16.5t-82 -40t-80 -48t-81 -43.5 q-25 -10 -58.5 -23.5t-80.5 -33.5q-43 -18 -90 -28.5t-76 -10.5q-16 0 -33.5 22.5t-17.5 47.5q0 43 14.5 98t38 115.5t51 122t52.5 118.5q6 14 27.5 21.5t33.5 11.5q39 10 81 25.5t86 31t90 25.5t93 10q14 0 31.5 -3t36.5 -3q6 0 22.5 3t32.5 8t29.5 12.5t13.5 17.5 q0 16 -5 35.5t-22 30.5q-76 41 -153 41q-78 0 -155 -28t-146 -52q-8 0 -8 8q29 76 56.5 144.5t55.5 144.5q4 12 9.5 16t15.5 8q111 37 241 66.5t275 29.5q29 0 45 -10t29 -10q14 0 25.5 6t25.5 6q16 0 23.5 8t7.5 31q0 29 -32 56.5t-69 46.5q-10 4 -31.5 8t-37.5 4 q-78 0 -162 -12.5t-162 -28.5t-139.5 -33.5t-91.5 -30.5q-92 -35 -182.5 -68.5t-188.5 -58.5q-12 -4 -12 -14t4 -24.5t11 -30t17.5 -28.5t20.5 -19q16 -8 39 -8t44 8t32 8q8 0 8 -10q-12 -47 -36 -104.5t-67 -153.5q-8 -16 -13 -20.5t-17 -8.5l-45.5 -13t-14.5 -12 q-4 -4 -4 -12v-12q0 -27 11.5 -43.5t15.5 -20.5q-20 -55 -43 -111.5t-42.5 -112.5t-31.5 -115.5t-12 -123.5zM633 1397q0 -2 3 -7.5t7 -9.5q6 -4 10 -5t15 -11q12 -12 25.5 -17.5t17.5 -5.5t21.5 4.5t33.5 14.5l215 133q43 27 68.5 44t40.5 30q16 14 19 24.5t3 16.5 q0 8 -6 39q-4 18 -12.5 28.5t-24.5 20.5q-14 8 -25 8q-23 0 -30.5 -5t-12.5 -9q-29 -29 -63.5 -54.5t-71.5 -52.5l-159 -113q-23 -16 -33 -21t-15 -7q-16 -6 -22 -17q-4 -6 -4 -14v-14z" />
<glyph unicode="&#xca;" horiz-adv-x="1040" d="M160 147q0 -20 3 -54t13 -50q14 -23 39 -38t49.5 -25.5t44 -15.5t25.5 -5q104 0 194 18.5t171 47t155 66.5t143 75q23 12 56 41q23 20 45 26q12 2 12 27q0 8 -9 18.5t-19.5 18.5t-21.5 15t-13 12q-4 6 -21 6q-47 0 -89 -16.5t-82 -40t-80 -48t-81 -43.5 q-25 -10 -58.5 -23.5t-80.5 -33.5q-43 -18 -90 -28.5t-76 -10.5q-16 0 -33.5 22.5t-17.5 47.5q0 43 14.5 98t38 115.5t51 122t52.5 118.5q6 14 27.5 21.5t33.5 11.5q39 10 81 25.5t86 31t90 25.5t93 10q14 0 31.5 -3t36.5 -3q6 0 22.5 3t32.5 8t29.5 12.5t13.5 17.5 q0 16 -5 35.5t-22 30.5q-76 41 -153 41q-78 0 -155 -28t-146 -52q-8 0 -8 8q29 76 56.5 144.5t55.5 144.5q4 12 9.5 16t15.5 8q111 37 241 66.5t275 29.5q29 0 45 -10t29 -10q14 0 25.5 6t25.5 6q16 0 23.5 8t7.5 31q0 29 -32 56.5t-69 46.5q-10 4 -31.5 8t-37.5 4 q-78 0 -162 -12.5t-162 -28.5t-139.5 -33.5t-91.5 -30.5q-92 -35 -182.5 -68.5t-188.5 -58.5q-12 -4 -12 -14t4 -24.5t11 -30t17.5 -28.5t20.5 -19q16 -8 39 -8t44 8t32 8q8 0 8 -10q-12 -47 -36 -104.5t-67 -153.5q-8 -16 -13 -20.5t-17 -8.5l-45.5 -13t-14.5 -12 q-4 -4 -4 -12v-12q0 -27 11.5 -43.5t15.5 -20.5q-20 -55 -43 -111.5t-42.5 -112.5t-31.5 -115.5t-12 -123.5zM547 1473q0 -23 13 -38.5t22 -17.5q10 -2 13 -8t26 -6q12 0 28 16l14.5 14.5t24 20.5t55 43t111.5 82q16 10 23 10q12 0 20 -10l113 -119q10 -10 20 -14t17 -4 q14 0 18 3t14 19q6 10 13.5 18.5t7.5 24.5q0 6 -3 14.5t-20 30.5l-123 183q-8 12 -13 14t-9 6t-25 4q-16 0 -24.5 -4t-18.5 -10l-182 -117q-35 -23 -56.5 -37t-33.5 -23t-16.5 -14.5t-6.5 -9.5q-4 -6 -8 -9t-10 -17q-4 -10 -4 -45z" />
<glyph unicode="&#xcb;" horiz-adv-x="1040" d="M160 147q0 -20 3 -54t13 -50q14 -23 39 -38t49.5 -25.5t44 -15.5t25.5 -5q104 0 194 18.5t171 47t155 66.5t143 75q23 12 56 41q23 20 45 26q12 2 12 27q0 8 -9 18.5t-19.5 18.5t-21.5 15t-13 12q-4 6 -21 6q-47 0 -89 -16.5t-82 -40t-80 -48t-81 -43.5 q-25 -10 -58.5 -23.5t-80.5 -33.5q-43 -18 -90 -28.5t-76 -10.5q-16 0 -33.5 22.5t-17.5 47.5q0 43 14.5 98t38 115.5t51 122t52.5 118.5q6 14 27.5 21.5t33.5 11.5q39 10 81 25.5t86 31t90 25.5t93 10q14 0 31.5 -3t36.5 -3q6 0 22.5 3t32.5 8t29.5 12.5t13.5 17.5 q0 16 -5 35.5t-22 30.5q-76 41 -153 41q-78 0 -155 -28t-146 -52q-8 0 -8 8q29 76 56.5 144.5t55.5 144.5q4 12 9.5 16t15.5 8q111 37 241 66.5t275 29.5q29 0 45 -10t29 -10q14 0 25.5 6t25.5 6q16 0 23.5 8t7.5 31q0 29 -32 56.5t-69 46.5q-10 4 -31.5 8t-37.5 4 q-78 0 -162 -12.5t-162 -28.5t-139.5 -33.5t-91.5 -30.5q-92 -35 -182.5 -68.5t-188.5 -58.5q-12 -4 -12 -14t4 -24.5t11 -30t17.5 -28.5t20.5 -19q16 -8 39 -8t44 8t32 8q8 0 8 -10q-12 -47 -36 -104.5t-67 -153.5q-8 -16 -13 -20.5t-17 -8.5l-45.5 -13t-14.5 -12 q-4 -4 -4 -12v-12q0 -27 11.5 -43.5t15.5 -20.5q-20 -55 -43 -111.5t-42.5 -112.5t-31.5 -115.5t-12 -123.5zM539 1589q0 -55 4 -59q10 -10 16 -22.5t25 -24.5q4 -4 14 -4h16q8 0 21.5 2t26 7t22.5 11t10 14q0 6 8.5 15.5t16.5 22t15 28.5t7 35q0 10 -6 29.5t-16 35.5 q-10 18 -38 22.5t-44 4.5q-25 0 -43.5 -6t-28.5 -27q-8 -16 -17 -45t-9 -39zM946 1587q0 -31 16.5 -48t26.5 -40q14 -31 49 -31q10 0 29.5 2.5t30.5 6.5q16 10 28.5 31.5t22.5 41.5q2 8 3 14.5t1 18.5q0 16 -9.5 34t-13.5 32q-4 18 -28.5 27.5t-50.5 9.5q-10 0 -23.5 1 t-17.5 1q-16 0 -27.5 -13.5t-20 -31t-12.5 -34t-4 -22.5z" />
<glyph unicode="&#xcc;" horiz-adv-x="520" d="M94 -29q0 -12 12 -12q8 0 27 -15.5t37 -15.5q14 0 18.5 -10t16.5 -10q8 0 18 16q4 8 10.5 14.5t14.5 6.5q6 0 14 1t12 7q23 43 31 71.5t8 53.5q0 10 -2 16t-2 15q0 8 4 20q80 242 156 472t164 456q10 29 15 36t11 13q18 18 30.5 32.5t19 30t9.5 33.5t3 45 q0 12 -12.5 23.5t-31 18.5t-39 12.5t-34.5 5.5q-35 0 -56.5 -4.5t-25.5 -20.5q-16 -53 -27.5 -83t-21.5 -48t-18.5 -33.5t-14.5 -36.5q-37 -117 -75.5 -228.5t-75.5 -222t-72 -223t-65 -233.5q-4 -18 -8.5 -28.5t-10.5 -20.5q-6 -12 -13 -37t-13.5 -49.5t-9.5 -44t-3 -23.5z M381 1657q0 -29 4 -45.5t20 -22.5q35 -14 75 -33.5t60 -33.5l209 -136q18 -12 30.5 -15t33.5 -3q20 0 26 21q2 6 2 14t5 18l7 17.5t3 17.5q0 14 -53 51l-209 144q-35 25 -55.5 40t-32 23t-16.5 11.5t-9 3.5q-6 0 -12 3t-17 3q-25 0 -49 -25q-12 -12 -17 -23.5t-5 -29.5z" />
<glyph unicode="&#xcd;" horiz-adv-x="520" d="M94 -29q0 -12 12 -12q8 0 27 -15.5t37 -15.5q14 0 18.5 -10t16.5 -10q8 0 18 16q4 8 10.5 14.5t14.5 6.5q6 0 14 1t12 7q23 43 31 71.5t8 53.5q0 10 -2 16t-2 15q0 8 4 20q80 242 156 472t164 456q10 29 15 36t11 13q18 18 30.5 32.5t19 30t9.5 33.5t3 45 q0 12 -12.5 23.5t-31 18.5t-39 12.5t-34.5 5.5q-35 0 -56.5 -4.5t-25.5 -20.5q-16 -53 -27.5 -83t-21.5 -48t-18.5 -33.5t-14.5 -36.5q-37 -117 -75.5 -228.5t-75.5 -222t-72 -223t-65 -233.5q-4 -18 -8.5 -28.5t-10.5 -20.5q-6 -12 -13 -37t-13.5 -49.5t-9.5 -44t-3 -23.5z M553 1487q0 -10 6 -16l8 -8t11 -15q10 -14 30 -28q8 -4 23 -4q18 0 41 6l241 75q74 23 104 36.5t44 29.5q6 8 8 18.5t2 34.5q0 20 -4 31.5t-18 26.5q-16 16 -39 16q-6 0 -15.5 -1t-13.5 -5q-14 -10 -35.5 -20.5t-45 -20.5t-44.5 -18.5t-33 -12.5l-182 -70q-43 -16 -51 -16 q-4 0 -13.5 -2t-13.5 -8q-10 -12 -10 -29z" />
<glyph unicode="&#xce;" horiz-adv-x="520" d="M94 -29q0 -12 12 -12q8 0 27 -15.5t37 -15.5q14 0 18.5 -10t16.5 -10q8 0 18 16q4 8 10.5 14.5t14.5 6.5q6 0 14 1t12 7q23 43 31 71.5t8 53.5q0 10 -2 16t-2 15q0 8 4 20q80 242 156 472t164 456q10 29 15 36t11 13q18 18 30.5 32.5t19 30t9.5 33.5t3 45 q0 12 -12.5 23.5t-31 18.5t-39 12.5t-34.5 5.5q-35 0 -56.5 -4.5t-25.5 -20.5q-16 -53 -27.5 -83t-21.5 -48t-18.5 -33.5t-14.5 -36.5q-37 -117 -75.5 -228.5t-75.5 -222t-72 -223t-65 -233.5q-4 -18 -8.5 -28.5t-10.5 -20.5q-6 -12 -13 -37t-13.5 -49.5t-9.5 -44t-3 -23.5z M440 1538q0 -23 1 -34t9 -16q10 -4 20.5 -14t29.5 -10q8 0 10 2q6 6 17 13t35 19.5t62.5 30t100.5 41.5q10 4 13 5t7 1q8 0 17 -12l129 -176q8 -12 20 -20.5t17 -8.5q16 0 21 4.5t15 18.5q8 10 18.5 16t10.5 23q0 8 -4 18.5t-18 32.5l-123 211q-10 16 -17 16q-4 0 -8 11 q-8 14 -39 14q-8 0 -26 -6l-183 -64q-72 -25 -90 -35t-22 -16q-4 -4 -8.5 -7t-10.5 -15q-4 -8 -4 -43z" />
<glyph unicode="&#xcf;" horiz-adv-x="520" d="M94 -29q0 -12 12 -12q8 0 27 -15.5t37 -15.5q14 0 18.5 -10t16.5 -10q8 0 18 16q4 8 10.5 14.5t14.5 6.5q6 0 14 1t12 7q23 43 31 71.5t8 53.5q0 10 -2 16t-2 15q0 8 4 20q80 242 156 472t164 456q10 29 15 36t11 13q18 18 30.5 32.5t19 30t9.5 33.5t3 45 q0 12 -12.5 23.5t-31 18.5t-39 12.5t-34.5 5.5q-35 0 -56.5 -4.5t-25.5 -20.5q-16 -53 -27.5 -83t-21.5 -48t-18.5 -33.5t-14.5 -36.5q-37 -117 -75.5 -228.5t-75.5 -222t-72 -223t-65 -233.5q-4 -18 -8.5 -28.5t-10.5 -20.5q-6 -12 -13 -37t-13.5 -49.5t-9.5 -44t-3 -23.5z M428 1583q0 -55 4 -59q10 -10 16.5 -22.5t24.5 -24.5q4 -4 14 -4h17q8 0 21.5 2t25.5 7t22.5 11t10.5 15q0 6 8 15t16 21.5t15.5 28.5t7.5 35q0 10 -6.5 29.5t-16.5 35.5q-10 18 -37.5 22.5t-44.5 4.5q-25 0 -43 -6t-28 -27q-8 -16 -17.5 -44.5t-9.5 -39.5zM803 1493 q0 -31 16.5 -48t26.5 -40q14 -31 49 -31q10 0 29.5 2.5t29.5 6.5q12 6 23.5 22.5t27.5 50.5q4 8 5 33q0 16 -9.5 34t-13.5 32q-4 18 -28.5 27.5t-51.5 9.5q-10 0 -23.5 1t-17.5 1q-16 0 -27.5 -13.5t-19.5 -31t-12 -34t-4 -22.5z" />
<glyph unicode="&#xd0;" horiz-adv-x="1150" d="M45 174q0 -29 21.5 -53.5t51 -43t58.5 -30.5t43 -18q16 -29 51 -52.5t62 -23.5q23 0 38 2t17 16q35 -10 74 -18t80 -8q16 0 32.5 1t32.5 7q111 41 200 114.5t161.5 170t134 208t117.5 226.5q16 31 20 47t16 39q27 49 41.5 99t14.5 95q0 76 -10.5 109t-30.5 59 q-39 51 -81 78t-83 55q-41 29 -96.5 38t-100.5 9q-55 0 -113.5 -12t-114.5 -33.5t-108.5 -49t-95.5 -56.5q-53 -37 -82.5 -60.5t-44 -43t-16.5 -42t-2 -59.5q0 -20 13 -32.5t28 -12.5q12 0 27.5 7t28.5 16.5t24.5 16.5t17.5 7q8 0 8 -10q-23 -55 -44 -113.5t-44 -115.5 q-6 -14 -22 -17q-66 -10 -89.5 -14t-39.5 -19q-14 -12 -33 -40.5t-19 -88.5q0 -25 27 -24q29 0 47.5 6t50.5 6q8 0 9 -8q-25 -76 -49.5 -158t-43.5 -164q-2 -6 -12 -6q-12 0 -24.5 11.5t-30.5 11.5q-25 0 -43.5 3t-32.5 3q-16 0 -28.5 -7t-12.5 -28zM389 104 q16 109 44 211.5t67 206.5q8 20 24 21q6 0 27.5 2t47.5 4t48.5 4t28.5 2q20 4 38.5 7t22.5 13q6 14 15.5 24.5t19.5 35.5q6 14 6 31q0 18 -6 34.5t-12 26.5q-4 6 -25 6q-12 0 -32.5 -3t-44 -8t-46.5 -8t-37 -3q35 84 73 165.5t75 163.5q6 14 13 20.5t12.5 12.5t9.5 12.5 t4 20.5q0 6 -8 14q45 10 101 34t116 24q39 0 73.5 -15.5t63.5 -56.5q6 -10 10 -25.5t7 -33t5.5 -30.5t2.5 -18q0 -37 -16.5 -84t-31.5 -81q-76 -186 -176 -353.5t-247 -314.5q-37 -37 -88.5 -61.5t-108.5 -24.5q-16 0 -34.5 1t-29.5 5q-10 4 -11 6t-1 12z" />
<glyph unicode="&#xd1;" horiz-adv-x="1224" d="M111 0q0 -10 9 -17.5t21 -13.5q8 -4 13.5 -9t12.5 -8t18.5 -5t35.5 -2q33 0 54.5 10t21.5 27q0 8 6 73q10 104 39 226t62.5 238t64.5 213t47 155q8 29 16 28q6 0 9.5 -5t7.5 -23q14 -61 28.5 -158.5t31 -207t36 -221.5t47.5 -202q12 -41 30.5 -66.5t76.5 -54.5 q33 -16 46 -19t27 -3q25 0 45.5 11t51.5 42q8 8 12 15.5t16 37.5q63 158 111.5 298.5t89.5 267.5t77 240.5t73 217.5q10 31 14 48.5t14 33.5q14 25 18.5 41.5t4.5 36.5q0 4 -7.5 15.5t-18.5 22.5t-24.5 20.5t-23.5 9.5q-16 0 -38.5 6t-45.5 6t-29 -7t-14 -36 q-16 -53 -18 -110.5t-17 -110.5q-10 -37 -18 -57.5t-19 -55.5q-59 -197 -117.5 -386t-142.5 -369q-10 -20 -12 -25.5t-6 -5.5q-8 0 -17 31q-41 150 -60 299t-35.5 296.5t-41 295t-73.5 296.5q-10 29 -29 29q-39 0 -73 -6t-50 -12q-14 -6 -17 -11.5t-3 -11.5q0 -53 15 -76.5 t15 -40.5q0 -8 -5 -10t-12 -4t-14.5 -6t-9.5 -17q-20 -84 -38.5 -157.5t-45.5 -173.5l-18 -70q-4 -14 -21.5 -73.5t-43 -142.5t-53.5 -178t-52.5 -181t-39.5 -150.5t-15 -87.5zM637 1612q0 -16 8.5 -38t8.5 -38t22.5 -23t46.5 -7q4 0 8.5 1t12.5 5q43 27 65.5 35t34.5 8 q8 0 19 -6q6 -4 15 -17.5t19.5 -30t22.5 -33t27 -28.5q29 -23 52 -30t56 -7q20 0 46 9.5t53.5 22.5t53 29.5t48.5 30.5q16 10 16 21q0 16 -3 23t-5 20q-2 14 -12.5 26.5t-28.5 12.5q-6 0 -30.5 -8.5t-52.5 -17.5t-52.5 -16t-28.5 -7q-29 0 -42 14t-42 57q-29 41 -49 63.5 t-49 22.5q-23 0 -39 -2t-53 -16l-129 -47q-10 -4 -14.5 -14.5t-4.5 -14.5z" />
<glyph unicode="&#xd2;" horiz-adv-x="1003" d="M180 301q0 -78 15.5 -129t50.5 -104q23 -35 57.5 -63t58.5 -36q35 -10 63 -14t60 -4q86 0 161 31.5t124 93.5q102 129 164.5 297t107.5 352q8 31 12.5 51.5t6.5 36.5t2 29v30q0 131 -43 218.5t-102 140.5q-12 10 -23.5 13t-22.5 3q-8 0 -22 4t-30.5 9.5t-31 10.5t-22.5 9 q-29 12 -45 12t-53 -22q-72 -43 -128.5 -105.5t-111.5 -144.5q-115 -166 -181.5 -337t-66.5 -382zM346 303q0 16 2 39t3 43.5t3 36.5t2 22q0 45 9.5 76t15.5 51q45 143 123 272.5t178 233.5q43 45 61.5 53.5t22.5 8.5q14 -1 14 -21q0 -12 13 -16q39 -12 58 -48t28 -83 q2 -12 2 -25v-43q0 -23 -10.5 -95.5t-38 -175t-77.5 -224t-130 -244.5q-23 -33 -63 -54.5t-79 -21.5q-18 0 -39.5 6t-27.5 12q-33 33 -51.5 82.5t-18.5 114.5zM604 1626q0 -29 4 -45.5t20 -22.5q35 -14 75 -33.5t60 -33.5l209 -136q18 -12 30.5 -15t33.5 -3q20 0 26 21 q2 6 2 14t5 18l7 17.5t3 17.5q0 14 -53 51l-209 144q-35 25 -55.5 40t-32 23t-16.5 11.5t-9 3.5q-6 0 -12 3t-17 3q-25 0 -49 -25q-12 -12 -17 -23.5t-5 -29.5z" />
<glyph unicode="&#xd3;" horiz-adv-x="1003" d="M180 301q0 -78 15.5 -129t50.5 -104q23 -35 57.5 -63t58.5 -36q35 -10 63 -14t60 -4q86 0 161 31.5t124 93.5q102 129 164.5 297t107.5 352q8 31 12.5 51.5t6.5 36.5t2 29v30q0 131 -43 218.5t-102 140.5q-12 10 -23.5 13t-22.5 3q-8 0 -22 4t-30.5 9.5t-31 10.5t-22.5 9 q-29 12 -45 12t-53 -22q-72 -43 -128.5 -105.5t-111.5 -144.5q-115 -166 -181.5 -337t-66.5 -382zM346 303q0 16 2 39t3 43.5t3 36.5t2 22q0 45 9.5 76t15.5 51q45 143 123 272.5t178 233.5q43 45 61.5 53.5t22.5 8.5q14 -1 14 -21q0 -12 13 -16q39 -12 58 -48t28 -83 q2 -12 2 -25v-43q0 -23 -10.5 -95.5t-38 -175t-77.5 -224t-130 -244.5q-23 -33 -63 -54.5t-79 -21.5q-18 0 -39.5 6t-27.5 12q-33 33 -51.5 82.5t-18.5 114.5zM651 1466q0 -10 6 -16l8 -8t11 -15q10 -14 30 -28q8 -4 23 -4q18 0 41 6l241 75q74 23 104 36.5t44 29.5 q6 8 8 18.5t2 34.5q0 20 -4 31.5t-18 26.5q-16 16 -39 16q-6 0 -15.5 -1t-13.5 -5q-14 -10 -35.5 -20.5t-45 -20.5t-44.5 -18.5t-33 -12.5l-182 -70q-43 -16 -51 -16q-4 0 -13.5 -2t-13.5 -8q-10 -12 -10 -29z" />
<glyph unicode="&#xd4;" horiz-adv-x="1003" d="M180 301q0 -78 15.5 -129t50.5 -104q23 -35 57.5 -63t58.5 -36q35 -10 63 -14t60 -4q86 0 161 31.5t124 93.5q102 129 164.5 297t107.5 352q8 31 12.5 51.5t6.5 36.5t2 29v30q0 131 -43 218.5t-102 140.5q-12 10 -23.5 13t-22.5 3q-8 0 -22 4t-30.5 9.5t-31 10.5t-22.5 9 q-29 12 -45 12t-53 -22q-72 -43 -128.5 -105.5t-111.5 -144.5q-115 -166 -181.5 -337t-66.5 -382zM346 303q0 16 2 39t3 43.5t3 36.5t2 22q0 45 9.5 76t15.5 51q45 143 123 272.5t178 233.5q43 45 61.5 53.5t22.5 8.5q14 -1 14 -21q0 -12 13 -16q39 -12 58 -48t28 -83 q2 -12 2 -25v-43q0 -23 -10.5 -95.5t-38 -175t-77.5 -224t-130 -244.5q-23 -33 -63 -54.5t-79 -21.5q-18 0 -39.5 6t-27.5 12q-33 33 -51.5 82.5t-18.5 114.5zM610 1498q0 -23 1 -34t9 -16q10 -4 20.5 -14t29.5 -10q8 0 10 2q6 6 17 13t35 19.5t62.5 30t100.5 41.5 q10 4 13 5t7 1q8 0 17 -12l129 -176q8 -12 20 -20.5t17 -8.5q16 0 21 4.5t15 18.5q8 10 18.5 16t10.5 23q0 8 -4 18.5t-18 32.5l-123 211q-10 16 -17 16q-4 0 -8 11q-8 14 -39 14q-8 0 -26 -6l-183 -64q-72 -25 -90 -35t-22 -16q-4 -4 -8.5 -7t-10.5 -15q-4 -8 -4 -43z" />
<glyph unicode="&#xd5;" horiz-adv-x="1003" d="M180 301q0 -78 15.5 -129t50.5 -104q23 -35 57.5 -63t58.5 -36q35 -10 63 -14t60 -4q86 0 161 31.5t124 93.5q102 129 164.5 297t107.5 352q8 31 12.5 51.5t6.5 36.5t2 29v30q0 131 -43 218.5t-102 140.5q-12 10 -23.5 13t-22.5 3q-8 0 -22 4t-30.5 9.5t-31 10.5t-22.5 9 q-29 12 -45 12t-53 -22q-72 -43 -128.5 -105.5t-111.5 -144.5q-115 -166 -181.5 -337t-66.5 -382zM346 303q0 16 2 39t3 43.5t3 36.5t2 22q0 45 9.5 76t15.5 51q45 143 123 272.5t178 233.5q43 45 61.5 53.5t22.5 8.5q14 -1 14 -21q0 -12 13 -16q39 -12 58 -48t28 -83 q2 -12 2 -25v-43q0 -23 -10.5 -95.5t-38 -175t-77.5 -224t-130 -244.5q-23 -33 -63 -54.5t-79 -21.5q-18 0 -39.5 6t-27.5 12q-33 33 -51.5 82.5t-18.5 114.5zM592 1567q0 -16 8.5 -38t8.5 -38t22.5 -23t46.5 -7q4 0 8.5 1t12.5 5q43 27 65.5 35t34.5 8q8 0 19 -6 q6 -4 15 -17.5t19.5 -30t22.5 -33t27 -28.5q29 -23 52 -30t56 -7q20 0 46 9.5t53.5 22.5t53 29.5t48.5 30.5q16 10 16 21q0 16 -3 23t-5 20q-2 14 -12.5 26.5t-28.5 12.5q-6 0 -30.5 -8.5t-52.5 -17.5t-52.5 -16t-28.5 -7q-29 0 -42 14t-42 57q-29 41 -49 63.5t-49 22.5 q-23 0 -39 -2t-53 -16l-129 -47q-10 -4 -14.5 -14.5t-4.5 -14.5z" />
<glyph unicode="&#xd6;" horiz-adv-x="1003" d="M180 301q0 -78 15.5 -129t50.5 -104q23 -35 57.5 -63t58.5 -36q35 -10 63 -14t60 -4q86 0 161 31.5t124 93.5q102 129 164.5 297t107.5 352q8 31 12.5 51.5t6.5 36.5t2 29v30q0 131 -43 218.5t-102 140.5q-12 10 -23.5 13t-22.5 3q-8 0 -22 4t-30.5 9.5t-31 10.5t-22.5 9 q-29 12 -45 12t-53 -22q-72 -43 -128.5 -105.5t-111.5 -144.5q-115 -166 -181.5 -337t-66.5 -382zM346 303q0 16 2 39t3 43.5t3 36.5t2 22q0 45 9.5 76t15.5 51q45 143 123 272.5t178 233.5q43 45 61.5 53.5t22.5 8.5q14 -1 14 -21q0 -12 13 -16q39 -12 58 -48t28 -83 q2 -12 2 -25v-43q0 -23 -10.5 -95.5t-38 -175t-77.5 -224t-130 -244.5q-23 -33 -63 -54.5t-79 -21.5q-18 0 -39.5 6t-27.5 12q-33 33 -51.5 82.5t-18.5 114.5zM571 1520q0 -55 4 -60q10 -10 16.5 -22.5t24.5 -24.5q4 -4 15 -4h16q8 0 21.5 2t26 7t22.5 11.5t10 14.5 q0 6 8 15t16.5 21.5t15.5 29t7 34.5q0 10 -6 30t-16 36q-10 18 -38 22t-44 4q-25 0 -43.5 -6t-28.5 -26q-8 -16 -17.5 -45t-9.5 -39zM971 1417q0 -31 16.5 -48t26.5 -40q14 -31 49 -31q10 0 29.5 2.5t29.5 6.5q16 10 28.5 31.5t23.5 41.5q2 8 3 14.5t1 18.5q0 16 -9.5 34 t-13.5 32q-4 18 -28.5 27.5t-51.5 9.5q-10 0 -23.5 1t-17.5 1q-16 0 -27.5 -13.5t-19.5 -31t-12 -34t-4 -22.5z" />
<glyph unicode="&#xd7;" horiz-adv-x="1208" d="M160 160q0 -8 8 -16.5t25 -24.5q10 -10 19 -24.5t32 -14.5q18 0 22 -2t15 -2q16 0 28.5 8t22.5 31q37 78 102.5 134t138.5 124q10 10 13.5 11t7.5 1q6 0 10 -14q16 -41 30.5 -77t31 -70t35 -68.5t44.5 -75.5q10 -16 23.5 -13t30.5 -6q12 -8 21 -10t38 -2q10 0 22.5 9.5 t20.5 15.5q6 4 13.5 11t7.5 17q0 6 -6.5 16.5t-15.5 24t-18.5 25.5t-15.5 22q-14 23 -54 97.5t-77 171.5q-4 10 -6 16t-2 10q0 8 12 19q78 66 146.5 125t140.5 106q57 37 99 69t71 66q4 6 4 17q-2 14 -16 36.5t-41 22.5q-23 0 -41.5 5t-30.5 5q-23 0 -35 -5t-16 -9 q-35 -39 -70 -69.5t-73.5 -60.5t-82.5 -64.5t-98 -79.5l-15 -12.5t-7 -2.5q-2 0 -6 4q-20 66 -32.5 109t-19 71.5t-8.5 46t-2 31.5q0 10 -6 22.5t-20 16.5q-10 4 -12.5 10.5t-12.5 10.5q-6 2 -10 3t-8.5 2t-14.5 1h-26q-16 0 -26.5 -1t-20.5 -5q-14 -8 -21 -17q-2 -4 -4 -10 t-2 -18q0 -14 4 -27.5t13.5 -38t22.5 -65.5t34 -109q10 -35 16 -57.5t16 -44.5q8 -18 9 -29q0 -10 -27 -35q-84 -74 -146.5 -128t-113.5 -101q-90 -80 -90 -135z" />
<glyph unicode="&#xd8;" horiz-adv-x="1105" d="M131 74q0 -16 5 -26.5t16 -20.5q6 -8 11 -17.5t9 -11.5q20 -6 35 -6q16 0 20 4t11 8q10 4 19 11.5t19 21.5q6 8 8.5 9t4.5 1q4 0 12 -10q25 -31 54.5 -49.5t61.5 -27.5t64.5 -12t61.5 -3q129 0 200.5 44t120.5 109q82 106 136.5 227t87 227.5t47 184.5t14.5 101 q0 41 -5 87t-7 62q-6 27 -7 31q0 6 3.5 9t15.5 13q18 14 29.5 22.5t17.5 12.5q23 16 27 25.5t4 23.5q0 23 -9.5 32t-13.5 20q-8 18 -29.5 25t-27.5 7q-26 1 -55 -28q-14 -14 -19 -15q-4 0 -14 15q-35 47 -72 72.5t-55 25.5q-12 0 -16.5 -1t-7.5 -2t-9 -2t-22 -1 q-25 0 -35.5 3t-17.5 7t-15 7t-27 3q-18 0 -39.5 -4t-40.5 -8q-37 -10 -78.5 -42t-80.5 -73t-72 -85t-53 -74q-96 -152 -157.5 -311.5t-61.5 -338.5q0 -57 5 -101t9 -58q4 -10 4 -13v-6q0 -6 -12 -18q-29 -29 -51.5 -52.5t-22.5 -33.5zM377 397q0 43 3 73t8 53.5t11.5 43 t14.5 41.5q47 141 128 268.5t193 241.5q10 10 24.5 22.5t24.5 12.5q6 0 14.5 -2t20.5 -18q4 -6 19 -7q16 0 28 -2q16 -2 43 -21t43 -48q4 -8 4 -13q0 -2 -28 -36l-498 -582q-41 -49 -47 -49t-6 22zM408 186q0 4 2 9.5t12 15.5q135 160 264 317.5t264 311.5q12 14 16.5 18 t8.5 4t4 -6q0 -41 -10.5 -88t-14.5 -63q-18 -68 -44.5 -139.5t-60.5 -141.5t-71 -136.5t-76 -125.5q-33 -49 -75.5 -65.5t-110.5 -16.5q-12 0 -23.5 6t-19.5 10q-31 16 -57 68q-8 14 -8 22z" />
<glyph unicode="&#xd9;" horiz-adv-x="1228" d="M176 201q0 -43 3 -81t7 -48q10 -18 23.5 -25.5t29 -11.5t31 -9.5t29.5 -19.5t40 -22.5t44 -8.5q27 0 53.5 10.5t40.5 22.5q127 111 244 242t233 266q10 10 17 10q10 0 10 -10q0 -8 -6 -33q-23 -92 -30 -193.5t-19 -207.5q-2 -20 -11 -33q-6 -10 -8 -21.5t-2 -21.5 q0 -20 12.5 -25.5t24.5 -13.5q23 -14 39 -24.5t33 -14.5q16 -4 20 -9t27 -5q29 0 29 20q0 4 -1.5 15.5t-1.5 46.5q0 213 36 410.5t112 402.5q25 66 63.5 126t63.5 126q14 35 14 45q0 6 -4 13t-8 16l-29 45q-10 18 -22 18q-29 0 -45.5 4t-22.5 4q-8 0 -28.5 -21.5 t-30.5 -37.5q-14 -23 -20.5 -35t-9.5 -20.5t-7 -16.5t-12 -22q-39 -63 -100.5 -152.5t-148.5 -200t-200 -238.5t-254 -269q-25 -25 -46 -33t-34 -8q-4 0 -7 6t-3 24q0 35 2 62.5t6 50.5q16 111 52 218.5t82 215t96.5 218t97.5 227.5l11 27.5t7 23.5q0 10 -3 26.5t-7 26.5 q-6 12 -20.5 19.5t-26.5 11.5q-31 12 -40 18t-17 6q-23 0 -37.5 -17.5t-24.5 -37.5q-4 -10 -10 -19.5t-12 -25.5q-66 -180 -138.5 -354t-130.5 -355q-18 -59 -36.5 -143t-18.5 -180zM772 1639q0 -29 4 -45.5t20 -22.5q35 -14 75 -33.5t60 -33.5l209 -136q18 -12 30.5 -15 t33.5 -3q20 0 26 21q2 6 2 14t5 18l7 17.5t3 17.5q0 14 -53 51l-209 144q-35 25 -55.5 40t-32 23t-16.5 11.5t-9 3.5q-6 0 -12 3t-17 3q-25 0 -49 -25q-12 -12 -17 -23.5t-5 -29.5z" />
<glyph unicode="&#xda;" horiz-adv-x="1228" d="M176 201q0 -43 3 -81t7 -48q10 -18 23.5 -25.5t29 -11.5t31 -9.5t29.5 -19.5t40 -22.5t44 -8.5q27 0 53.5 10.5t40.5 22.5q127 111 244 242t233 266q10 10 17 10q10 0 10 -10q0 -8 -6 -33q-23 -92 -30 -193.5t-19 -207.5q-2 -20 -11 -33q-6 -10 -8 -21.5t-2 -21.5 q0 -20 12.5 -25.5t24.5 -13.5q23 -14 39 -24.5t33 -14.5q16 -4 20 -9t27 -5q29 0 29 20q0 4 -1.5 15.5t-1.5 46.5q0 213 36 410.5t112 402.5q25 66 63.5 126t63.5 126q14 35 14 45q0 6 -4 13t-8 16l-29 45q-10 18 -22 18q-29 0 -45.5 4t-22.5 4q-8 0 -28.5 -21.5 t-30.5 -37.5q-14 -23 -20.5 -35t-9.5 -20.5t-7 -16.5t-12 -22q-39 -63 -100.5 -152.5t-148.5 -200t-200 -238.5t-254 -269q-25 -25 -46 -33t-34 -8q-4 0 -7 6t-3 24q0 35 2 62.5t6 50.5q16 111 52 218.5t82 215t96.5 218t97.5 227.5l11 27.5t7 23.5q0 10 -3 26.5t-7 26.5 q-6 12 -20.5 19.5t-26.5 11.5q-31 12 -40 18t-17 6q-23 0 -37.5 -17.5t-24.5 -37.5q-4 -10 -10 -19.5t-12 -25.5q-66 -180 -138.5 -354t-130.5 -355q-18 -59 -36.5 -143t-18.5 -180zM860 1450q0 -10 6 -16l8 -8t11 -15q10 -14 30 -28q8 -4 23 -4q18 0 41 6l241 75 q74 23 104 36.5t44 29.5q6 8 8 18.5t2 34.5q0 20 -4 31.5t-18 26.5q-16 16 -39 16q-6 0 -15.5 -1t-13.5 -5q-14 -10 -35.5 -20.5t-45 -20.5t-44.5 -18.5t-33 -12.5l-182 -70q-43 -16 -51 -16q-4 0 -13.5 -2t-13.5 -8q-10 -12 -10 -29z" />
<glyph unicode="&#xdb;" horiz-adv-x="1228" d="M176 201q0 -43 3 -81t7 -48q10 -18 23.5 -25.5t29 -11.5t31 -9.5t29.5 -19.5t40 -22.5t44 -8.5q27 0 53.5 10.5t40.5 22.5q127 111 244 242t233 266q10 10 17 10q10 0 10 -10q0 -8 -6 -33q-23 -92 -30 -193.5t-19 -207.5q-2 -20 -11 -33q-6 -10 -8 -21.5t-2 -21.5 q0 -20 12.5 -25.5t24.5 -13.5q23 -14 39 -24.5t33 -14.5q16 -4 20 -9t27 -5q29 0 29 20q0 4 -1.5 15.5t-1.5 46.5q0 213 36 410.5t112 402.5q25 66 63.5 126t63.5 126q14 35 14 45q0 6 -4 13t-8 16l-29 45q-10 18 -22 18q-29 0 -45.5 4t-22.5 4q-8 0 -28.5 -21.5 t-30.5 -37.5q-14 -23 -20.5 -35t-9.5 -20.5t-7 -16.5t-12 -22q-39 -63 -100.5 -152.5t-148.5 -200t-200 -238.5t-254 -269q-25 -25 -46 -33t-34 -8q-4 0 -7 6t-3 24q0 35 2 62.5t6 50.5q16 111 52 218.5t82 215t96.5 218t97.5 227.5l11 27.5t7 23.5q0 10 -3 26.5t-7 26.5 q-6 12 -20.5 19.5t-26.5 11.5q-31 12 -40 18t-17 6q-23 0 -37.5 -17.5t-24.5 -37.5q-4 -10 -10 -19.5t-12 -25.5q-66 -180 -138.5 -354t-130.5 -355q-18 -59 -36.5 -143t-18.5 -180zM749 1534q0 -23 1 -34t9 -16q10 -4 20.5 -14t29.5 -10q8 0 10 2q6 6 17 13t35 19.5 t62.5 30t100.5 41.5q10 4 13 5t7 1q8 0 17 -12l129 -176q8 -12 20 -20.5t17 -8.5q16 0 21 4.5t15 18.5q8 10 18.5 16t10.5 23q0 8 -4 18.5t-18 32.5l-123 211q-10 16 -17 16q-4 0 -8 11q-8 14 -39 14q-8 0 -26 -6l-183 -64q-72 -25 -90 -35t-22 -16q-4 -4 -8.5 -7t-10.5 -15 q-4 -8 -4 -43z" />
<glyph unicode="&#xdc;" horiz-adv-x="1228" d="M176 201q0 -43 3 -81t7 -48q10 -18 23.5 -25.5t29 -11.5t31 -9.5t29.5 -19.5t40 -22.5t44 -8.5q27 0 53.5 10.5t40.5 22.5q127 111 244 242t233 266q10 10 17 10q10 0 10 -10q0 -8 -6 -33q-23 -92 -30 -193.5t-19 -207.5q-2 -20 -11 -33q-6 -10 -8 -21.5t-2 -21.5 q0 -20 12.5 -25.5t24.5 -13.5q23 -14 39 -24.5t33 -14.5q16 -4 20 -9t27 -5q29 0 29 20q0 4 -1.5 15.5t-1.5 46.5q0 213 36 410.5t112 402.5q25 66 63.5 126t63.5 126q14 35 14 45q0 6 -4 13t-8 16l-29 45q-10 18 -22 18q-29 0 -45.5 4t-22.5 4q-8 0 -28.5 -21.5 t-30.5 -37.5q-14 -23 -20.5 -35t-9.5 -20.5t-7 -16.5t-12 -22q-39 -63 -100.5 -152.5t-148.5 -200t-200 -238.5t-254 -269q-25 -25 -46 -33t-34 -8q-4 0 -7 6t-3 24q0 35 2 62.5t6 50.5q16 111 52 218.5t82 215t96.5 218t97.5 227.5l11 27.5t7 23.5q0 10 -3 26.5t-7 26.5 q-6 12 -20.5 19.5t-26.5 11.5q-31 12 -40 18t-17 6q-23 0 -37.5 -17.5t-24.5 -37.5q-4 -10 -10 -19.5t-12 -25.5q-66 -180 -138.5 -354t-130.5 -355q-18 -59 -36.5 -143t-18.5 -180zM750 1562q0 -55 4 -59q10 -10 16.5 -22.5t24.5 -24.5q4 -4 14 -4h17q8 0 21.5 2t25.5 7 t22.5 11t10.5 15q0 6 8 15t16 21.5t15.5 28.5t7.5 35q0 10 -6.5 29.5t-16.5 35.5q-10 18 -37.5 22.5t-44.5 4.5q-25 0 -43 -6t-28 -27q-8 -16 -17.5 -44.5t-9.5 -39.5zM1125 1472q0 -31 16.5 -48t26.5 -40q14 -31 49 -31q10 0 29.5 2.5t29.5 6.5q12 6 23.5 22.5t27.5 50.5 q4 8 5 33q0 16 -9.5 34t-13.5 32q-4 18 -28.5 27.5t-51.5 9.5q-10 0 -23.5 1t-17.5 1q-16 0 -27.5 -13.5t-19.5 -31t-12 -34t-4 -22.5z" />
<glyph unicode="&#xdd;" horiz-adv-x="1028" d="M246 545q0 -18 21.5 -51t60.5 -68q20 -18 41.5 -32.5t42 -26t35 -17.5t20.5 -6q49 0 93 14.5t79 36t60.5 44t39.5 38.5l17 19q-53 -180 -104.5 -363.5t-84.5 -357.5q-6 -35 -11 -66t-11 -57q-12 -57 -28.5 -115.5t-16.5 -126.5q0 -16 1 -34.5t3 -26.5q4 -20 29.5 -33.5 t66.5 -20.5q20 -4 31.5 -7t21.5 -3q12 0 13 17q0 10 4 20t8 41q80 590 220 1027t357 743q8 10 10.5 17t2.5 11q0 8 -8.5 30.5t-14.5 29.5q-27 27 -64.5 36t-58.5 9q-8 0 -22 -21q-10 -14 -47 -72.5t-84 -152.5q-76 -147 -133.5 -226t-90.5 -112q-45 -45 -101 -89t-130 -91 q-16 -10 -32.5 -13.5t-28.5 -3.5q-20 0 -29.5 7.5t-9.5 13.5q0 66 8 145.5t21.5 165.5t29.5 174t33 170q6 29 14 47.5t15.5 33.5t12.5 29.5t5 37.5q0 16 -8.5 36.5t-18.5 22.5q-29 4 -59.5 11t-69.5 7q-10 0 -16 -18q-31 -109 -54.5 -216.5t-41.5 -221.5q-4 -29 -11.5 -44.5 t-7.5 -47.5q0 -29 -4 -41.5t-6 -32.5q-2 -33 -4 -70t-3 -69.5t-2 -55t-1 -24.5zM700 1438q0 -10 6 -16l8 -8t11 -15q10 -14 30 -28q8 -4 23 -4q18 0 41 6l241 75q74 23 104 36.5t44 29.5q6 8 8 18.5t2 34.5q0 20 -4 31.5t-18 26.5q-16 16 -39 16q-6 0 -15.5 -1t-13.5 -5 q-14 -10 -35.5 -20.5t-45 -20.5t-44.5 -18.5t-33 -12.5l-182 -70q-43 -16 -51 -16q-4 0 -13.5 -2t-13.5 -8q-10 -12 -10 -29z" />
<glyph unicode="&#xde;" horiz-adv-x="1024" d="M113 18q0 -14 4 -18q10 -12 18 -16t17.5 -7.5t17.5 -8.5t18 -17q4 -4 18.5 -6t22.5 -2q23 0 50 16q18 12 18 31q0 18 8 54t21.5 83t29 99.5t29.5 103.5q16 -12 27.5 -23.5t25 -18.5t32.5 -12.5t50 -5.5q63 0 125 11.5t84 27.5q74 57 129 107.5t99 99.5t81 100.5t74 110.5 q18 31 37.5 66.5t35 70.5t26 68t10.5 57q0 84 -13.5 123t-42.5 64q-29 27 -56.5 31.5t-84.5 4.5q-72 0 -140.5 -18t-138.5 -43q-12 -4 -19 -7t-13 -3t-6 10q0 8 13 24.5t25 34.5q12 20 13 35q4 23 16 38t12 56q0 16 -15 25.5t-34 11.5q-33 4 -40 11.5t-21 7.5 q-18 0 -35.5 -4.5t-28.5 -26.5q-45 -90 -79.5 -180t-75.5 -183q-29 -18 -57.5 -33.5t-55.5 -35.5q-23 -16 -39 -35.5t-16 -38.5q0 -8 4 -12t8 -10q8 -16 23.5 -33t40.5 -27q-6 -25 -13.5 -45t-14.5 -40.5t-16.5 -42t-19.5 -52.5q-16 0 -30.5 -8t-27 -19.5t-21.5 -21.5 t-17 -12t-8 -23q0 -18 15 -30.5t28 -24.5q0 -43 -37 -138q-23 -59 -39.5 -111t-27.5 -94t-17 -68t-6 -28zM442 492q33 111 81 221t83 200q78 59 163 94t177 56q14 4 23 4h32q39 0 45.5 -5t6.5 -15q0 -29 -11.5 -65t-29 -73t-38 -72.5t-38.5 -62.5q-68 -100 -152 -192.5 t-186 -159.5q-14 -10 -20.5 -11t-16.5 -1t-19.5 3t-21.5 12t-30.5 24.5t-47.5 42.5z" />
<glyph unicode="&#xdf;" horiz-adv-x="888" d="M-160 -592q0 -31 1 -51.5t9 -24.5q12 -10 22.5 -17t29.5 -7q6 0 22.5 8t36.5 14q23 4 39 21.5t18 34.5q4 55 21.5 131.5t41 161.5t49.5 167t48 146q12 39 17.5 54t9.5 15t7 -2t15 -14q59 -53 107.5 -69.5t87.5 -16.5q31 0 61 8q66 18 116 53t90 81t72 103.5t60 121.5 q33 72 54.5 139t21.5 115q0 66 -26.5 112.5t-79.5 46.5q-10 0 -19.5 -1t-13.5 -1q-6 0 -6 2t22 31q23 23 61.5 76t86.5 137q31 53 46 84t22 49.5t9 27.5t7 21q10 20 16 36t6 38q0 18 -9 30.5t-21.5 20.5t-26 12.5l-19.5 6.5q-23 8 -47 24.5t-69 16.5q-61 0 -113.5 -31 t-114.5 -90q-57 -55 -103 -117.5t-65 -101.5q-10 -16 -17 -24.5t-14.5 -14.5t-13.5 -11.5t-10 -15.5q-16 -41 -37.5 -94t-46.5 -111.5t-48.5 -119t-43.5 -113.5q-18 -49 -45 -120t-56.5 -151.5t-59.5 -165.5t-55.5 -158t-43 -130t-23.5 -82q-8 -33 -15 -49.5t-11 -34.5 q-14 -51 -37 -102.5t-23 -104.5zM250 193q0 2 8 27.5t16 45.5q16 41 33 83t31 83q6 18 12 19q8 0 17.5 -13.5t27.5 -13.5q29 0 68 24.5t84 67.5q14 14 22.5 20.5t15.5 10.5t17.5 12.5t30.5 26.5q27 27 49 26q14 0 25 -12q8 -10 12 -23.5t4 -41.5q0 -16 -9 -55.5t-38 -108.5 q-35 -86 -74 -145.5t-94 -110.5q-16 -16 -35.5 -22.5t-36.5 -6.5q-16 0 -25.5 4t-19.5 12q-10 10 -14 21.5t-15 23.5q-29 35 -39 40.5t-24 5.5q-25 0 -31 -3.5t-12 -3.5t-6 7zM408 600q0 2 2 8t8 25q12 33 25.5 69.5t23.5 61.5q18 41 22.5 48t10.5 7q12 0 22 15.5t21 39.5 q29 72 61.5 123.5t81.5 108.5q31 37 59.5 60.5t50 35.5t34 16.5t14.5 4.5q8 0 8 -6q0 -10 -6 -25q-10 -25 -40 -89.5t-78 -144t-114.5 -164.5t-150.5 -153q-6 -6 -14.5 -13.5t-18.5 -17.5q-14 -14 -18 -14t-4 4z" />
<glyph unicode="&#xe0;" horiz-adv-x="958" d="M61 213q0 -59 18.5 -87t26.5 -34q37 -29 60.5 -47t39 -28.5t26 -13.5t18.5 -3q6 0 14 2t19 6q27 8 53 19.5t55 29t61.5 43t73.5 62.5l111 102q37 37 49 37q8 0 8 -10q0 -4 -4 -29.5t-4 -73.5q0 -43 7 -87t28 -89q10 -20 37.5 -30.5t50.5 -10.5q10 0 19.5 3t19.5 6 q27 4 35 14t8 14t-4 12q-23 35 -33 74t-10 80q0 47 9 93t19 89q14 59 41 116.5t59 113t67.5 106.5t70.5 99q8 12 8 22q0 6 -4 12q-12 18 -30.5 22.5t-26.5 4.5q-16 0 -29.5 11.5t-19.5 27.5q-4 10 -13.5 21.5t-17.5 19.5q-29 29 -59.5 44t-65.5 15q-25 0 -45 -6 q-176 -51 -328 -162q-47 -35 -125 -103.5t-170 -203.5q-76 -113 -99.5 -182.5t-23.5 -120.5zM199 203q0 23 12 55.5t32.5 70.5t48 79t60.5 79q88 106 202 192.5t259 164.5q20 10 40 15t24 5q27 0 37 -15t10 -26q0 -20 -11 -30q-16 -16 -32.5 -37t-26.5 -41 q-39 -74 -97.5 -137.5t-126 -124t-141 -121t-145.5 -127.5q-29 -27 -58.5 -42.5t-41.5 -15.5q-29 0 -37 18.5t-8 37.5zM756 1290q0 -29 4 -45.5t20 -22.5q35 -14 75 -33.5t60 -33.5l209 -136q18 -12 30.5 -15t33.5 -3q20 0 26 21q2 6 2 14t5 18l7 17.5t3 17.5q0 14 -53 51 l-209 144q-35 25 -55.5 40t-32 23t-16.5 11.5t-9 3.5q-6 0 -12 3t-17 3q-25 0 -49 -25q-12 -12 -17 -23.5t-5 -29.5z" />
<glyph unicode="&#xe1;" horiz-adv-x="958" d="M61 213q0 -59 18.5 -87t26.5 -34q37 -29 60.5 -47t39 -28.5t26 -13.5t18.5 -3q6 0 14 2t19 6q27 8 53 19.5t55 29t61.5 43t73.5 62.5l111 102q37 37 49 37q8 0 8 -10q0 -4 -4 -29.5t-4 -73.5q0 -43 7 -87t28 -89q10 -20 37.5 -30.5t50.5 -10.5q10 0 19.5 3t19.5 6 q27 4 35 14t8 14t-4 12q-23 35 -33 74t-10 80q0 47 9 93t19 89q14 59 41 116.5t59 113t67.5 106.5t70.5 99q8 12 8 22q0 6 -4 12q-12 18 -30.5 22.5t-26.5 4.5q-16 0 -29.5 11.5t-19.5 27.5q-4 10 -13.5 21.5t-17.5 19.5q-29 29 -59.5 44t-65.5 15q-25 0 -45 -6 q-176 -51 -328 -162q-47 -35 -125 -103.5t-170 -203.5q-76 -113 -99.5 -182.5t-23.5 -120.5zM199 203q0 23 12 55.5t32.5 70.5t48 79t60.5 79q88 106 202 192.5t259 164.5q20 10 40 15t24 5q27 0 37 -15t10 -26q0 -20 -11 -30q-16 -16 -32.5 -37t-26.5 -41 q-39 -74 -97.5 -137.5t-126 -124t-141 -121t-145.5 -127.5q-29 -27 -58.5 -42.5t-41.5 -15.5q-29 0 -37 18.5t-8 37.5zM766 1167q0 -10 6 -16l8 -8t11 -15q10 -14 30 -28q8 -4 23 -4q18 0 41 6l241 75q74 23 104 36.5t44 29.5q6 8 8 18.5t2 34.5q0 20 -4 31.5t-18 26.5 q-16 16 -39 16q-6 0 -15.5 -1t-13.5 -5q-14 -10 -35.5 -20.5t-45 -20.5t-44.5 -18.5t-33 -12.5l-182 -70q-43 -16 -51 -16q-4 0 -13.5 -2t-13.5 -8q-10 -12 -10 -29z" />
<glyph unicode="&#xe2;" horiz-adv-x="958" d="M61 213q0 -59 18.5 -87t26.5 -34q37 -29 60.5 -47t39 -28.5t26 -13.5t18.5 -3q6 0 14 2t19 6q27 8 53 19.5t55 29t61.5 43t73.5 62.5l111 102q37 37 49 37q8 0 8 -10q0 -4 -4 -29.5t-4 -73.5q0 -43 7 -87t28 -89q10 -20 37.5 -30.5t50.5 -10.5q10 0 19.5 3t19.5 6 q27 4 35 14t8 14t-4 12q-23 35 -33 74t-10 80q0 47 9 93t19 89q14 59 41 116.5t59 113t67.5 106.5t70.5 99q8 12 8 22q0 6 -4 12q-12 18 -30.5 22.5t-26.5 4.5q-16 0 -29.5 11.5t-19.5 27.5q-4 10 -13.5 21.5t-17.5 19.5q-29 29 -59.5 44t-65.5 15q-25 0 -45 -6 q-176 -51 -328 -162q-47 -35 -125 -103.5t-170 -203.5q-76 -113 -99.5 -182.5t-23.5 -120.5zM199 203q0 23 12 55.5t32.5 70.5t48 79t60.5 79q88 106 202 192.5t259 164.5q20 10 40 15t24 5q27 0 37 -15t10 -26q0 -20 -11 -30q-16 -16 -32.5 -37t-26.5 -41 q-39 -74 -97.5 -137.5t-126 -124t-141 -121t-145.5 -127.5q-29 -27 -58.5 -42.5t-41.5 -15.5q-29 0 -37 18.5t-8 37.5zM721 1186q0 -23 1 -34t9 -16q10 -4 20.5 -14t29.5 -10q8 0 10 2q6 6 17 13t35 19.5t62.5 30t100.5 41.5q10 4 13 5t7 1q8 0 17 -12l129 -176 q8 -12 20 -20.5t17 -8.5q16 0 21 4.5t15 18.5q8 10 18.5 16t10.5 23q0 8 -4 18.5t-18 32.5l-123 211q-10 16 -17 16q-4 0 -8 11q-8 14 -39 14q-8 0 -26 -6l-183 -64q-72 -25 -90 -35t-22 -16q-4 -4 -8.5 -7t-10.5 -15q-4 -8 -4 -43z" />
<glyph unicode="&#xe3;" horiz-adv-x="958" d="M61 213q0 -59 18.5 -87t26.5 -34q37 -29 60.5 -47t39 -28.5t26 -13.5t18.5 -3q6 0 14 2t19 6q27 8 53 19.5t55 29t61.5 43t73.5 62.5l111 102q37 37 49 37q8 0 8 -10q0 -4 -4 -29.5t-4 -73.5q0 -43 7 -87t28 -89q10 -20 37.5 -30.5t50.5 -10.5q10 0 19.5 3t19.5 6 q27 4 35 14t8 14t-4 12q-23 35 -33 74t-10 80q0 47 9 93t19 89q14 59 41 116.5t59 113t67.5 106.5t70.5 99q8 12 8 22q0 6 -4 12q-12 18 -30.5 22.5t-26.5 4.5q-16 0 -29.5 11.5t-19.5 27.5q-4 10 -13.5 21.5t-17.5 19.5q-29 29 -59.5 44t-65.5 15q-25 0 -45 -6 q-176 -51 -328 -162q-47 -35 -125 -103.5t-170 -203.5q-76 -113 -99.5 -182.5t-23.5 -120.5zM199 203q0 23 12 55.5t32.5 70.5t48 79t60.5 79q88 106 202 192.5t259 164.5q20 10 40 15t24 5q27 0 37 -15t10 -26q0 -20 -11 -30q-16 -16 -32.5 -37t-26.5 -41 q-39 -74 -97.5 -137.5t-126 -124t-141 -121t-145.5 -127.5q-29 -27 -58.5 -42.5t-41.5 -15.5q-29 0 -37 18.5t-8 37.5zM747 1268q0 -16 8.5 -38t8.5 -38t22.5 -23t46.5 -7q4 0 8.5 1t12.5 5q43 27 65.5 35t34.5 8q8 0 19 -6q6 -4 15 -17.5t19.5 -30t22.5 -33t27 -28.5 q29 -23 52 -30t56 -7q20 0 46 9.5t53.5 22.5t53 29.5t48.5 30.5q16 10 16 21q0 16 -3 23t-5 20q-2 14 -12.5 26.5t-28.5 12.5q-6 0 -30.5 -8.5t-52.5 -17.5t-52.5 -16t-28.5 -7q-29 0 -42 14t-42 57q-29 41 -49 63.5t-49 22.5q-23 0 -39 -2t-53 -16l-129 -47 q-10 -4 -14.5 -14.5t-4.5 -14.5z" />
<glyph unicode="&#xe4;" horiz-adv-x="958" d="M61 213q0 -59 18.5 -87t26.5 -34q37 -29 60.5 -47t39 -28.5t26 -13.5t18.5 -3q6 0 14 2t19 6q27 8 53 19.5t55 29t61.5 43t73.5 62.5l111 102q37 37 49 37q8 0 8 -10q0 -4 -4 -29.5t-4 -73.5q0 -43 7 -87t28 -89q10 -20 37.5 -30.5t50.5 -10.5q10 0 19.5 3t19.5 6 q27 4 35 14t8 14t-4 12q-23 35 -33 74t-10 80q0 47 9 93t19 89q14 59 41 116.5t59 113t67.5 106.5t70.5 99q8 12 8 22q0 6 -4 12q-12 18 -30.5 22.5t-26.5 4.5q-16 0 -29.5 11.5t-19.5 27.5q-4 10 -13.5 21.5t-17.5 19.5q-29 29 -59.5 44t-65.5 15q-25 0 -45 -6 q-176 -51 -328 -162q-47 -35 -125 -103.5t-170 -203.5q-76 -113 -99.5 -182.5t-23.5 -120.5zM199 203q0 23 12 55.5t32.5 70.5t48 79t60.5 79q88 106 202 192.5t259 164.5q20 10 40 15t24 5q27 0 37 -15t10 -26q0 -20 -11 -30q-16 -16 -32.5 -37t-26.5 -41 q-39 -74 -97.5 -137.5t-126 -124t-141 -121t-145.5 -127.5q-29 -27 -58.5 -42.5t-41.5 -15.5q-29 0 -37 18.5t-8 37.5zM713 1259q0 -55 4 -59q10 -10 16.5 -22.5t24.5 -24.5q4 -4 14 -4h17q8 0 21.5 2t25.5 7t22.5 11t10.5 15q0 6 8 15t16 21.5t15.5 28.5t7.5 35 q0 10 -6.5 29.5t-16.5 35.5q-10 18 -37.5 22.5t-44.5 4.5q-25 0 -43 -6t-28 -27q-8 -16 -17.5 -44.5t-9.5 -39.5zM1088 1169q0 -31 16.5 -48t26.5 -40q14 -31 49 -31q10 0 29.5 2.5t29.5 6.5q12 6 23.5 22.5t27.5 50.5q4 8 5 33q0 16 -9.5 34t-13.5 32q-4 18 -28.5 27.5 t-51.5 9.5q-10 0 -23.5 1t-17.5 1q-16 0 -27.5 -13.5t-19.5 -31t-12 -34t-4 -22.5z" />
<glyph unicode="&#xe5;" horiz-adv-x="958" d="M61 213q0 -59 18.5 -87t26.5 -34q37 -29 60.5 -47t39 -28.5t26 -13.5t18.5 -3q6 0 14 2t19 6q27 8 53 19.5t55 29t61.5 43t73.5 62.5l111 102q37 37 49 37q8 0 8 -10q0 -4 -4 -29.5t-4 -73.5q0 -43 7 -87t28 -89q10 -20 37.5 -30.5t50.5 -10.5q10 0 19.5 3t19.5 6 q27 4 35 14t8 14t-4 12q-23 35 -33 74t-10 80q0 47 9 93t19 89q14 59 41 116.5t59 113t67.5 106.5t70.5 99q8 12 8 22q0 6 -4 12q-12 18 -30.5 22.5t-26.5 4.5q-16 0 -29.5 11.5t-19.5 27.5q-4 10 -13.5 21.5t-17.5 19.5q-29 29 -59.5 44t-65.5 15q-25 0 -45 -6 q-176 -51 -328 -162q-47 -35 -125 -103.5t-170 -203.5q-76 -113 -99.5 -182.5t-23.5 -120.5zM199 203q0 23 12 55.5t32.5 70.5t48 79t60.5 79q88 106 202 192.5t259 164.5q20 10 40 15t24 5q27 0 37 -15t10 -26q0 -20 -11 -30q-16 -16 -32.5 -37t-26.5 -41 q-39 -74 -97.5 -137.5t-126 -124t-141 -121t-145.5 -127.5q-29 -27 -58.5 -42.5t-41.5 -15.5q-29 0 -37 18.5t-8 37.5zM891 1169q0 -29 16 -58.5t57 -58.5q16 -10 57.5 -18t71.5 -8q47 0 76 19.5t43 39.5q53 80 53 170q0 12 -1 24.5t-3 24.5q-4 18 -34.5 48t-77.5 43 q-25 6 -54 6q-37 0 -75 -15q-23 -8 -46.5 -34.5t-42 -59.5t-29.5 -66.5t-11 -56.5zM1018 1177q0 35 16 67t39 62q6 8 12 11.5t21 3.5q4 0 11 -4.5t13 -14.5q18 -29 19 -57q0 -33 -18.5 -63.5t-37.5 -63.5q-8 -12 -28 -12q-18 0 -33 20q-14 20 -14 51z" />
<glyph unicode="&#xe6;" horiz-adv-x="1243" d="M49 215q0 -59 21.5 -95t31.5 -44q72 -51 101.5 -65.5t44.5 -14.5q6 0 24.5 4t44 12t55 21.5t56.5 34.5q35 27 68.5 62.5t60.5 64.5q10 10 16.5 18t10.5 8t4 -6q0 -4 -3 -18.5t-3 -40.5q0 -59 29.5 -97.5t95.5 -58.5q55 -16 118 -16q51 0 101.5 10t89.5 31 q100 53 165.5 96t118.5 90q61 53 101.5 94t77.5 72q8 6 12 15t4 16q0 4 1 8t1 18q0 16 -15.5 28.5t-25.5 12.5q-8 0 -41 -14q-23 -10 -43 -21.5t-45 -29.5q-76 -57 -141.5 -110.5t-147.5 -106.5q-18 -12 -44.5 -26.5t-57.5 -26t-61.5 -19.5t-57.5 -8q-25 0 -48.5 21.5 t-23.5 53.5q0 16 2.5 20.5t10.5 8.5q57 23 131 79t146.5 126t138 144.5t108.5 135.5q6 8 18.5 31t24.5 52.5t21.5 62.5t9.5 61q0 45 -13.5 71t-29.5 44q-16 20 -47 26.5t-54 6.5q-29 0 -55.5 -7.5t-56.5 -15.5q-16 -4 -23 -4q-16 0 -44.5 12.5t-39.5 12.5q-16 0 -21 -5.5 t-11 -15.5l-15 -22q-10 -16 -17 -20.5t-11 -4.5q-6 0 -17 8q-23 16 -50.5 24.5t-57.5 8.5q-41 0 -90.5 -18.5t-99.5 -46t-97 -61.5t-80 -62q-47 -41 -84 -78t-70.5 -77t-63.5 -84t-61 -97q-55 -98 -76.5 -169t-21.5 -120zM195 186q0 23 10 59t31 89q37 96 96 179t133 153.5 t159 131t173 109.5q10 6 20 7t17 1q20 0 26 -12t6 -22q0 -8 -4 -20.5t-16 -35.5l-62 -114q-18 -37 -45.5 -82t-58.5 -91t-63.5 -88t-65.5 -73q-41 -39 -100.5 -96.5t-114.5 -112.5q-10 -10 -41 -21.5t-53 -11.5q-31 0 -39 19.5t-8 31.5zM788 395q0 4 11 29q25 55 59.5 119.5 t74.5 129t84 124t89 102.5q35 35 63 35q23 0 23 -45q0 -29 -17 -66.5t-40 -70.5q-27 -39 -63 -84t-77 -91.5t-86 -89.5t-88 -77q-16 -12 -20 -15.5t-8 -3.5t-5 4z" />
<glyph unicode="&#xe7;" horiz-adv-x="708" d="M4 -174q0 -33 70 -72q45 -25 79.5 -31t51.5 -6q104 0 182 97q16 20 30.5 54t14.5 54q0 45 -31 62q-6 2 -6 8t8 8q49 16 105.5 52t116.5 85q66 53 122 94t103 62q10 4 13 9t3 15q0 6 4 10.5t4 10.5q0 2 -6 11t-16 18.5t-22.5 16.5t-22.5 7q-23 0 -51.5 -12t-61 -31.5 t-68.5 -45.5t-69 -50q-76 -57 -147.5 -93t-143.5 -36q-14 0 -24.5 11t-10.5 32q0 39 33 128t86 185q53 92 119 178t131 152q12 12 17.5 16t15.5 4q8 0 12 -7t4 -13q0 -12 -7 -27.5t-15.5 -31t-15.5 -33t-7 -31.5q0 -29 23 -45l53 -39q16 -14 41 -14q20 0 29.5 9t9.5 21 q0 27 10 57t22.5 57.5t23.5 48t13 30.5q2 8 2 14q0 4 -2 9.5t-2 21.5q0 12 -1 17.5t-7 11.5q-41 41 -100.5 63.5t-112.5 22.5q-12 0 -17 -1t-16 -5q-66 -33 -125 -92.5t-112 -134t-101.5 -158.5t-87.5 -164q-10 -23 -15 -46.5t-9 -33.5q-10 -39 -21.5 -78t-11.5 -76 q0 -47 25 -96q4 -10 19.5 -23.5t37 -28t45.5 -26.5t49 -16q33 -6 39 -13.5t6 -13.5q0 -10 -10 -28q-37 -63 -63.5 -90t-73.5 -27q-16 0 -31.5 9t-19.5 15q-10 10 -20.5 16.5t-14.5 12.5q-6 10 -19 10q-12 0 -22 -10q-33 -31 -33 -47z" />
<glyph unicode="&#xe8;" horiz-adv-x="749" d="M109 344q0 -29 7 -78t17 -80q16 -51 44 -88t59 -53q6 -4 20 -10t33.5 -15.5t40 -17.5t37.5 -14q25 -10 42 -12.5t35 -2.5q20 0 32.5 2.5t41.5 18.5q117 63 188.5 116.5t117.5 96.5t78 79t69 66q8 6 9 14.5t1 14.5q0 4 1 8t1 19q0 16 -15.5 28.5t-25.5 12.5q-6 0 -15 -2.5 t-26 -12.5q-47 -29 -87 -63.5t-81 -69.5t-85 -68.5t-97 -62.5q-70 -37 -100.5 -47t-57.5 -10q-33 0 -63 16q-14 8 -31.5 34.5t-17.5 51.5q0 8 12 16q66 37 128 86.5t121.5 106.5t116 119.5t109.5 122.5q23 25 36 45t30 51q18 37 32.5 71.5t14.5 75.5q0 61 -25 91t-41 36 q-31 10 -57.5 16.5t-67.5 6.5q-76 0 -134 -32t-85 -60q-117 -125 -213 -261.5t-139 -293.5q-6 -23 -8 -38.5t-2 -29.5zM291 420q16 68 50 133t78 124.5t94 113t99 98.5q14 14 19.5 15t21.5 11q10 6 20.5 12.5t22.5 6.5q10 0 11.5 -6t1.5 -19q0 -29 -11.5 -50t-25.5 -44 q-10 -16 -14.5 -25.5t-8.5 -17.5t-9 -17.5t-17 -23.5q-70 -84 -146 -165t-168 -150q-10 -6 -14 -6t-4 10zM529 1442q0 -29 4 -45.5t20 -22.5q35 -14 75 -33.5t60 -33.5l209 -136q18 -12 30.5 -15t33.5 -3q20 0 26 21q2 6 2 14t5 18l7 17.5t3 17.5q0 14 -53 51l-209 144 q-35 25 -55.5 40t-32 23t-16.5 11.5t-9 3.5q-6 0 -12 3t-17 3q-25 0 -49 -25q-12 -12 -17 -23.5t-5 -29.5z" />
<glyph unicode="&#xe9;" horiz-adv-x="749" d="M109 344q0 -29 7 -78t17 -80q16 -51 44 -88t59 -53q6 -4 20 -10t33.5 -15.5t40 -17.5t37.5 -14q25 -10 42 -12.5t35 -2.5q20 0 32.5 2.5t41.5 18.5q117 63 188.5 116.5t117.5 96.5t78 79t69 66q8 6 9 14.5t1 14.5q0 4 1 8t1 19q0 16 -15.5 28.5t-25.5 12.5q-6 0 -15 -2.5 t-26 -12.5q-47 -29 -87 -63.5t-81 -69.5t-85 -68.5t-97 -62.5q-70 -37 -100.5 -47t-57.5 -10q-33 0 -63 16q-14 8 -31.5 34.5t-17.5 51.5q0 8 12 16q66 37 128 86.5t121.5 106.5t116 119.5t109.5 122.5q23 25 36 45t30 51q18 37 32.5 71.5t14.5 75.5q0 61 -25 91t-41 36 q-31 10 -57.5 16.5t-67.5 6.5q-76 0 -134 -32t-85 -60q-117 -125 -213 -261.5t-139 -293.5q-6 -23 -8 -38.5t-2 -29.5zM291 420q16 68 50 133t78 124.5t94 113t99 98.5q14 14 19.5 15t21.5 11q10 6 20.5 12.5t22.5 6.5q10 0 11.5 -6t1.5 -19q0 -29 -11.5 -50t-25.5 -44 q-10 -16 -14.5 -25.5t-8.5 -17.5t-9 -17.5t-17 -23.5q-70 -84 -146 -165t-168 -150q-10 -6 -14 -6t-4 10zM651 1257q0 -10 6 -16l8 -8t11 -15q10 -14 30 -28q8 -4 23 -4q18 0 41 6l241 75q74 23 104 36.5t44 29.5q6 8 8 18.5t2 34.5q0 20 -4 31.5t-18 26.5q-16 16 -39 16 q-6 0 -15.5 -1t-13.5 -5q-14 -10 -35.5 -20.5t-45 -20.5t-44.5 -18.5t-33 -12.5l-182 -70q-43 -16 -51 -16q-4 0 -13.5 -2t-13.5 -8q-10 -12 -10 -29z" />
<glyph unicode="&#xea;" horiz-adv-x="749" d="M109 344q0 -29 7 -78t17 -80q16 -51 44 -88t59 -53q6 -4 20 -10t33.5 -15.5t40 -17.5t37.5 -14q25 -10 42 -12.5t35 -2.5q20 0 32.5 2.5t41.5 18.5q117 63 188.5 116.5t117.5 96.5t78 79t69 66q8 6 9 14.5t1 14.5q0 4 1 8t1 19q0 16 -15.5 28.5t-25.5 12.5q-6 0 -15 -2.5 t-26 -12.5q-47 -29 -87 -63.5t-81 -69.5t-85 -68.5t-97 -62.5q-70 -37 -100.5 -47t-57.5 -10q-33 0 -63 16q-14 8 -31.5 34.5t-17.5 51.5q0 8 12 16q66 37 128 86.5t121.5 106.5t116 119.5t109.5 122.5q23 25 36 45t30 51q18 37 32.5 71.5t14.5 75.5q0 61 -25 91t-41 36 q-31 10 -57.5 16.5t-67.5 6.5q-76 0 -134 -32t-85 -60q-117 -125 -213 -261.5t-139 -293.5q-6 -23 -8 -38.5t-2 -29.5zM291 420q16 68 50 133t78 124.5t94 113t99 98.5q14 14 19.5 15t21.5 11q10 6 20.5 12.5t22.5 6.5q10 0 11.5 -6t1.5 -19q0 -29 -11.5 -50t-25.5 -44 q-10 -16 -14.5 -25.5t-8.5 -17.5t-9 -17.5t-17 -23.5q-70 -84 -146 -165t-168 -150q-10 -6 -14 -6t-4 10zM538 1285q0 -23 1 -34t9 -16q10 -4 20.5 -14t29.5 -10q8 0 10 2q6 6 17 13t35 19.5t62.5 30t100.5 41.5q10 4 13 5t7 1q8 0 17 -12l129 -176q8 -12 20 -20.5t17 -8.5 q16 0 21 4.5t15 18.5q8 10 18.5 16t10.5 23q0 8 -4 18.5t-18 32.5l-123 211q-10 16 -17 16q-4 0 -8 11q-8 14 -39 14q-8 0 -26 -6l-183 -64q-72 -25 -90 -35t-22 -16q-4 -4 -8.5 -7t-10.5 -15q-4 -8 -4 -43z" />
<glyph unicode="&#xeb;" horiz-adv-x="749" d="M109 344q0 -29 7 -78t17 -80q16 -51 44 -88t59 -53q6 -4 20 -10t33.5 -15.5t40 -17.5t37.5 -14q25 -10 42 -12.5t35 -2.5q20 0 32.5 2.5t41.5 18.5q117 63 188.5 116.5t117.5 96.5t78 79t69 66q8 6 9 14.5t1 14.5q0 4 1 8t1 19q0 16 -15.5 28.5t-25.5 12.5q-6 0 -15 -2.5 t-26 -12.5q-47 -29 -87 -63.5t-81 -69.5t-85 -68.5t-97 -62.5q-70 -37 -100.5 -47t-57.5 -10q-33 0 -63 16q-14 8 -31.5 34.5t-17.5 51.5q0 8 12 16q66 37 128 86.5t121.5 106.5t116 119.5t109.5 122.5q23 25 36 45t30 51q18 37 32.5 71.5t14.5 75.5q0 61 -25 91t-41 36 q-31 10 -57.5 16.5t-67.5 6.5q-76 0 -134 -32t-85 -60q-117 -125 -213 -261.5t-139 -293.5q-6 -23 -8 -38.5t-2 -29.5zM291 420q16 68 50 133t78 124.5t94 113t99 98.5q14 14 19.5 15t21.5 11q10 6 20.5 12.5t22.5 6.5q10 0 11.5 -6t1.5 -19q0 -29 -11.5 -50t-25.5 -44 q-10 -16 -14.5 -25.5t-8.5 -17.5t-9 -17.5t-17 -23.5q-70 -84 -146 -165t-168 -150q-10 -6 -14 -6t-4 10zM569 1366q0 -55 4 -59q10 -10 16.5 -22.5t24.5 -24.5q4 -4 14 -4h17q8 0 21.5 2t25.5 7t22.5 11t10.5 15q0 6 8 15t16 21.5t15.5 28.5t7.5 35q0 10 -6.5 29.5 t-16.5 35.5q-10 18 -37.5 22.5t-44.5 4.5q-25 0 -43 -6t-28 -27q-8 -16 -17.5 -44.5t-9.5 -39.5zM944 1276q0 -31 16.5 -48t26.5 -40q14 -31 49 -31q10 0 29.5 2.5t29.5 6.5q12 6 23.5 22.5t27.5 50.5q4 8 5 33q0 16 -9.5 34t-13.5 32q-4 18 -28.5 27.5t-51.5 9.5 q-10 0 -23.5 1t-17.5 1q-16 0 -27.5 -13.5t-19.5 -31t-12 -34t-4 -22.5z" />
<glyph unicode="&#xec;" horiz-adv-x="450" d="M111 219q0 -23 2 -43t8 -43q8 -29 24.5 -57.5t38 -52t45 -38t45.5 -14.5q70 0 124.5 35t86.5 64l84 77q12 12 22.5 24.5t10.5 31.5q0 6 -1 13t-11 15t-24.5 11.5t-26.5 3.5q-25 0 -42.5 -9.5t-54.5 -35.5q-31 -23 -51 -36t-36.5 -20.5t-31 -10.5t-30.5 -3q-27 0 -32 25.5 t-5 40.5q0 23 11.5 77t37.5 123q10 29 25.5 67t33 79t34 78.5t28.5 66.5q18 37 40.5 67.5t42 59.5t34 60.5t14.5 72.5q0 14 -4 20.5t-12 12.5q-10 10 -27.5 13t-34.5 3q-29 0 -57.5 -11t-44.5 -44q-57 -119 -104.5 -230.5t-94.5 -224.5q-10 -23 -17 -48t-18 -54 q-18 -53 -25 -90t-7 -76zM303 1352q0 -29 4 -45.5t20 -22.5q35 -14 75 -33.5t60 -33.5l209 -136q18 -12 30.5 -15t33.5 -3q20 0 26 21q2 6 2 14t5 18l7 17.5t3 17.5q0 14 -53 51l-209 144q-35 25 -55.5 40t-32 23t-16.5 11.5t-9 3.5q-6 0 -12 3t-17 3q-25 0 -49 -25 q-12 -12 -17 -23.5t-5 -29.5z" />
<glyph unicode="&#xed;" horiz-adv-x="450" d="M111 219q0 -23 2 -43t8 -43q8 -29 24.5 -57.5t38 -52t45 -38t45.5 -14.5q70 0 124.5 35t86.5 64l84 77q12 12 22.5 24.5t10.5 31.5q0 6 -1 13t-11 15t-24.5 11.5t-26.5 3.5q-25 0 -42.5 -9.5t-54.5 -35.5q-31 -23 -51 -36t-36.5 -20.5t-31 -10.5t-30.5 -3q-27 0 -32 25.5 t-5 40.5q0 23 11.5 77t37.5 123q10 29 25.5 67t33 79t34 78.5t28.5 66.5q18 37 40.5 67.5t42 59.5t34 60.5t14.5 72.5q0 14 -4 20.5t-12 12.5q-10 10 -27.5 13t-34.5 3q-29 0 -57.5 -11t-44.5 -44q-57 -119 -104.5 -230.5t-94.5 -224.5q-10 -23 -17 -48t-18 -54 q-18 -53 -25 -90t-7 -76zM436 1196q0 -10 6 -16l8 -8t11 -15q10 -14 30 -28q8 -4 23 -4q18 0 41 6l241 75q74 23 104 36.5t44 29.5q6 8 8 18.5t2 34.5q0 20 -4 31.5t-18 26.5q-16 16 -39 16q-6 0 -15.5 -1t-13.5 -5q-14 -10 -35.5 -20.5t-45 -20.5t-44.5 -18.5t-33 -12.5 l-182 -70q-43 -16 -51 -16q-4 0 -13.5 -2t-13.5 -8q-10 -12 -10 -29z" />
<glyph unicode="&#xee;" horiz-adv-x="450" d="M111 219q0 -23 2 -43t8 -43q8 -29 24.5 -57.5t38 -52t45 -38t45.5 -14.5q70 0 124.5 35t86.5 64l84 77q12 12 22.5 24.5t10.5 31.5q0 6 -1 13t-11 15t-24.5 11.5t-26.5 3.5q-25 0 -42.5 -9.5t-54.5 -35.5q-31 -23 -51 -36t-36.5 -20.5t-31 -10.5t-30.5 -3q-27 0 -32 25.5 t-5 40.5q0 23 11.5 77t37.5 123q10 29 25.5 67t33 79t34 78.5t28.5 66.5q18 37 40.5 67.5t42 59.5t34 60.5t14.5 72.5q0 14 -4 20.5t-12 12.5q-10 10 -27.5 13t-34.5 3q-29 0 -57.5 -11t-44.5 -44q-57 -119 -104.5 -230.5t-94.5 -224.5q-10 -23 -17 -48t-18 -54 q-18 -53 -25 -90t-7 -76zM301 1215q0 -23 1 -34t9 -16q10 -4 20.5 -14t29.5 -10q8 0 10 2q6 6 17 13t35 19.5t62.5 30t100.5 41.5q10 4 13 5t7 1q8 0 17 -12l129 -176q8 -12 20 -20.5t17 -8.5q16 0 21 4.5t15 18.5q8 10 18.5 16t10.5 23q0 8 -4 18.5t-18 32.5l-123 211 q-10 16 -17 16q-4 0 -8 11q-8 14 -39 14q-8 0 -26 -6l-183 -64q-72 -25 -90 -35t-22 -16q-4 -4 -8.5 -7t-10.5 -15q-4 -8 -4 -43z" />
<glyph unicode="&#xef;" horiz-adv-x="450" d="M111 219q0 -23 2 -43t8 -43q8 -29 24.5 -57.5t38 -52t45 -38t45.5 -14.5q70 0 124.5 35t86.5 64l84 77q12 12 22.5 24.5t10.5 31.5q0 6 -1 13t-11 15t-24.5 11.5t-26.5 3.5q-25 0 -42.5 -9.5t-54.5 -35.5q-31 -23 -51 -36t-36.5 -20.5t-31 -10.5t-30.5 -3q-27 0 -32 25.5 t-5 40.5q0 23 11.5 77t37.5 123q10 29 25.5 67t33 79t34 78.5t28.5 66.5q18 37 40.5 67.5t42 59.5t34 60.5t14.5 72.5q0 14 -4 20.5t-12 12.5q-10 10 -27.5 13t-34.5 3q-29 0 -57.5 -11t-44.5 -44q-57 -119 -104.5 -230.5t-94.5 -224.5q-10 -23 -17 -48t-18 -54 q-18 -53 -25 -90t-7 -76zM309 1329q0 -55 4 -59q10 -10 16.5 -22.5t24.5 -24.5q4 -4 14 -4h17q8 0 21.5 2t25.5 7t22.5 11t10.5 15q0 6 8 15t16 21.5t15.5 28.5t7.5 35q0 10 -6.5 29.5t-16.5 35.5q-10 18 -37.5 22.5t-44.5 4.5q-25 0 -43 -6t-28 -27q-8 -16 -17.5 -44.5 t-9.5 -39.5zM684 1239q0 -31 16.5 -48t26.5 -40q14 -31 49 -31q10 0 29.5 2.5t29.5 6.5q12 6 23.5 22.5t27.5 50.5q4 8 5 33q0 16 -9.5 34t-13.5 32q-4 18 -28.5 27.5t-51.5 9.5q-10 0 -23.5 1t-17.5 1q-16 0 -27.5 -13.5t-19.5 -31t-12 -34t-4 -22.5z" />
<glyph unicode="&#xf0;" horiz-adv-x="819" d="M119 295q0 -47 5 -97.5t28 -99.5q16 -41 46.5 -61.5t84.5 -40.5q10 -4 18 -9t20.5 -10.5t33 -9.5t57.5 -4q59 0 101 40t83 81q63 63 109.5 144t75 163t42 159t13.5 136q0 57 -3.5 106.5t-10.5 95.5t-20.5 92t-33.5 99q-16 43 -19.5 51.5t-3.5 12.5t3.5 8t19.5 12 q43 20 67.5 34.5t37 23t15.5 13.5t3 9q0 10 18.5 26.5t18.5 39.5q0 16 -10 26q-14 16 -31 24.5t-25 8.5q-20 0 -57 -27.5t-119 -66.5q-12 -6 -16 -6q-6 0 -13 10q-10 12 -35.5 45t-50.5 61q-18 23 -23 31t-5 15q0 10 -7.5 19t-48.5 38q-20 14 -31.5 21.5t-18.5 10.5t-12 4 t-11 1q-10 0 -28.5 -14.5t-27.5 -14.5q-23 0 -26.5 -17.5t-3.5 -35.5q0 -10 1 -17.5t7 -15.5t16 -17.5t29 -25.5q12 -10 30.5 -28.5l41.5 -41.5q51 -55 64 -73.5t13 -24.5q0 -4 -12 -10q-16 -8 -38.5 -20.5t-44 -25t-37 -24.5t-19.5 -18q-6 -12 -19.5 -21.5t-13.5 -38.5 q0 -25 16 -47q14 -20 23 -20q14 0 40 13t32 18q10 8 32.5 21t46 25.5t42 21.5t20.5 9q4 0 10 -10q37 -76 51.5 -136.5t14.5 -84.5q0 -8 -6 -8q-4 0 -11.5 4t-42.5 31q-29 20 -53 27t-49 7q-43 0 -88 -24.5t-84 -77.5q-16 -23 -36.5 -50.5t-45.5 -58.5q-16 -18 -39.5 -61 t-45 -99.5t-38 -120t-16.5 -124.5zM272 233q0 86 15.5 153t41 123t58.5 107.5t70 106.5q27 41 56.5 54.5t39.5 13.5q8 0 18.5 -5.5t20.5 -23t21.5 -50t23.5 -89.5q4 -16 12.5 -20.5t20.5 -8.5q-2 -35 -15.5 -89t-39 -115.5t-66.5 -125t-96 -117.5q-27 -25 -47.5 -37 t-43.5 -12q-18 0 -36 11q-53 29 -54 124z" />
<glyph unicode="&#xf1;" horiz-adv-x="860" d="M61 143q0 -16 4.5 -33.5t10.5 -25.5q10 -12 30.5 -28.5t44 -31t43 -24.5t29.5 -10q14 0 39 4t37 18q10 12 19.5 18.5t19.5 14.5t21.5 21.5t27.5 35.5q37 53 81 109.5t107 140.5q6 8 13 8q6 0 6 -8q0 -4 -9.5 -37.5t-9.5 -124.5q0 -80 35 -127q20 -29 39 -40t41 -31 q18 -16 56 -22.5t51 -6.5q29 0 41 19.5t12 29.5q0 16 -9.5 26.5t-21.5 20.5q-10 8 -38.5 26.5t-32.5 47.5q-4 16 -10.5 38t-6.5 50q0 14 2 40t5 52.5t8.5 51t9.5 41.5q23 78 55.5 145t87.5 158q8 12 14.5 29.5t6.5 23.5q0 18 -12.5 35.5t-28.5 19.5q-25 2 -38.5 11.5 t-35.5 9.5q-10 0 -17.5 -2t-14.5 -10.5t-16 -26t-24 -45.5q-16 -37 -54 -75t-96.5 -99.5t-138 -155.5t-184.5 -242q-18 -27 -35 -26q-4 0 -5 7t-1 13q0 2 4 19.5t10.5 41t13.5 46t13 36.5q51 127 87 203t59 117q41 78 80.5 125t50.5 59q29 35 37 57.5t8 39.5q0 10 -3.5 19 t-7.5 17q-14 31 -82 31q-49 0 -71 -20q-14 -12 -17.5 -19.5t-15.5 -25.5q-35 -51 -61.5 -97.5t-49 -90.5t-44 -90t-44.5 -99q-12 -31 -28.5 -70t-31.5 -78t-26.5 -73.5t-13.5 -57.5q-2 -16 -6 -28.5t-8 -25.5t-7.5 -28.5t-3.5 -40.5zM503 1280q0 -16 8.5 -38t8.5 -38 t22.5 -23t46.5 -7q4 0 8.5 1t12.5 5q43 27 65.5 35t34.5 8q8 0 19 -6q6 -4 15 -17.5t19.5 -30t22.5 -33t27 -28.5q29 -23 52 -30t56 -7q20 0 46 9.5t53.5 22.5t53 29.5t48.5 30.5q16 10 16 21q0 16 -3 23t-5 20q-2 14 -12.5 26.5t-28.5 12.5q-6 0 -30.5 -8.5t-52.5 -17.5 t-52.5 -16t-28.5 -7q-29 0 -42 14t-42 57q-29 41 -49 63.5t-49 22.5q-23 0 -39 -2t-53 -16l-129 -47q-10 -4 -14.5 -14.5t-4.5 -14.5z" />
<glyph unicode="&#xf2;" horiz-adv-x="753" d="M98 309q0 -39 7.5 -83t23.5 -87q14 -35 54 -67.5t100 -61.5q20 -10 49 -10q53 0 97 37t87 84q98 104 157.5 243.5t100.5 305.5q4 16 25 16q10 0 29.5 1t50.5 5q41 6 81.5 18.5t71.5 16.5q12 2 15.5 5t7.5 7q2 4 11 7.5t19.5 8.5t18.5 11t8 16q0 25 -39 39.5t-88 14.5 q-35 0 -75 -3.5t-101 -3.5q-45 0 -67.5 37t-36.5 76q-4 12 -10.5 18.5t-18.5 16.5q-27 23 -55.5 31t-53.5 8q-35 0 -67.5 -16.5t-63 -43t-58.5 -60.5t-52 -69q-8 -10 -12.5 -15t-9.5 -10t-11 -12.5t-17 -23.5q-72 -106 -125 -218t-53 -239zM238 244q0 68 18 136.5t46 130.5 t60.5 117.5t61.5 96.5t48.5 65.5t21.5 26.5q8 10 20 18.5t18 16.5q16 20 31 20q8 0 12.5 -12t8.5 -22q2 -6 5 -14.5t11 -16.5q4 -4 7 -8t5 -15q2 -8 2 -22v-21q0 -80 -20.5 -151.5t-53 -138t-73.5 -130t-82 -124.5q-12 -18 -17.5 -24.5t-17.5 -12.5q-6 -4 -14 -10.5 t-25 -6.5q-12 0 -18 4q-14 10 -29.5 33t-19.5 35q-4 10 -5 17.5t-1 11.5zM434 1340q0 -29 4 -45.5t20 -22.5q35 -14 75 -33.5t60 -33.5l209 -136q18 -12 30.5 -15t33.5 -3q20 0 26 21q2 6 2 14t5 18l7 17.5t3 17.5q0 14 -53 51l-209 144q-35 25 -55.5 40t-32 23t-16.5 11.5 t-9 3.5q-6 0 -12 3t-17 3q-25 0 -49 -25q-12 -12 -17 -23.5t-5 -29.5z" />
<glyph unicode="&#xf3;" horiz-adv-x="753" d="M98 309q0 -39 7.5 -83t23.5 -87q14 -35 54 -67.5t100 -61.5q20 -10 49 -10q53 0 97 37t87 84q98 104 157.5 243.5t100.5 305.5q4 16 25 16q10 0 29.5 1t50.5 5q41 6 81.5 18.5t71.5 16.5q12 2 15.5 5t7.5 7q2 4 11 7.5t19.5 8.5t18.5 11t8 16q0 25 -39 39.5t-88 14.5 q-35 0 -75 -3.5t-101 -3.5q-45 0 -67.5 37t-36.5 76q-4 12 -10.5 18.5t-18.5 16.5q-27 23 -55.5 31t-53.5 8q-35 0 -67.5 -16.5t-63 -43t-58.5 -60.5t-52 -69q-8 -10 -12.5 -15t-9.5 -10t-11 -12.5t-17 -23.5q-72 -106 -125 -218t-53 -239zM238 244q0 68 18 136.5t46 130.5 t60.5 117.5t61.5 96.5t48.5 65.5t21.5 26.5q8 10 20 18.5t18 16.5q16 20 31 20q8 0 12.5 -12t8.5 -22q2 -6 5 -14.5t11 -16.5q4 -4 7 -8t5 -15q2 -8 2 -22v-21q0 -80 -20.5 -151.5t-53 -138t-73.5 -130t-82 -124.5q-12 -18 -17.5 -24.5t-17.5 -12.5q-6 -4 -14 -10.5 t-25 -6.5q-12 0 -18 4q-14 10 -29.5 33t-19.5 35q-4 10 -5 17.5t-1 11.5zM502 1200q0 -10 6 -16l8 -8t11 -15q10 -14 30 -28q8 -4 23 -4q18 0 41 6l241 75q74 23 104 36.5t44 29.5q6 8 8 18.5t2 34.5q0 20 -4 31.5t-18 26.5q-16 16 -39 16q-6 0 -15.5 -1t-13.5 -5 q-14 -10 -35.5 -20.5t-45 -20.5t-44.5 -18.5t-33 -12.5l-182 -70q-43 -16 -51 -16q-4 0 -13.5 -2t-13.5 -8q-10 -12 -10 -29z" />
<glyph unicode="&#xf4;" horiz-adv-x="753" d="M98 309q0 -39 7.5 -83t23.5 -87q14 -35 54 -67.5t100 -61.5q20 -10 49 -10q53 0 97 37t87 84q98 104 157.5 243.5t100.5 305.5q4 16 25 16q10 0 29.5 1t50.5 5q41 6 81.5 18.5t71.5 16.5q12 2 15.5 5t7.5 7q2 4 11 7.5t19.5 8.5t18.5 11t8 16q0 25 -39 39.5t-88 14.5 q-35 0 -75 -3.5t-101 -3.5q-45 0 -67.5 37t-36.5 76q-4 12 -10.5 18.5t-18.5 16.5q-27 23 -55.5 31t-53.5 8q-35 0 -67.5 -16.5t-63 -43t-58.5 -60.5t-52 -69q-8 -10 -12.5 -15t-9.5 -10t-11 -12.5t-17 -23.5q-72 -106 -125 -218t-53 -239zM238 244q0 68 18 136.5t46 130.5 t60.5 117.5t61.5 96.5t48.5 65.5t21.5 26.5q8 10 20 18.5t18 16.5q16 20 31 20q8 0 12.5 -12t8.5 -22q2 -6 5 -14.5t11 -16.5q4 -4 7 -8t5 -15q2 -8 2 -22v-21q0 -80 -20.5 -151.5t-53 -138t-73.5 -130t-82 -124.5q-12 -18 -17.5 -24.5t-17.5 -12.5q-6 -4 -14 -10.5 t-25 -6.5q-12 0 -18 4q-14 10 -29.5 33t-19.5 35q-4 10 -5 17.5t-1 11.5zM383 1219q0 -23 1 -34t9 -16q10 -4 20.5 -14t29.5 -10q8 0 10 2q6 6 17 13t35 19.5t62.5 30t100.5 41.5q10 4 13 5t7 1q8 0 17 -12l129 -176q8 -12 20 -20.5t17 -8.5q16 0 21 4.5t15 18.5 q8 10 18.5 16t10.5 23q0 8 -4 18.5t-18 32.5l-123 211q-10 16 -17 16q-4 0 -8 11q-8 14 -39 14q-8 0 -26 -6l-183 -64q-72 -25 -90 -35t-22 -16q-4 -4 -8.5 -7t-10.5 -15q-4 -8 -4 -43z" />
<glyph unicode="&#xf5;" horiz-adv-x="753" d="M98 309q0 -39 7.5 -83t23.5 -87q14 -35 54 -67.5t100 -61.5q20 -10 49 -10q53 0 97 37t87 84q98 104 157.5 243.5t100.5 305.5q4 16 25 16q10 0 29.5 1t50.5 5q41 6 81.5 18.5t71.5 16.5q12 2 15.5 5t7.5 7q2 4 11 7.5t19.5 8.5t18.5 11t8 16q0 25 -39 39.5t-88 14.5 q-35 0 -75 -3.5t-101 -3.5q-45 0 -67.5 37t-36.5 76q-4 12 -10.5 18.5t-18.5 16.5q-27 23 -55.5 31t-53.5 8q-35 0 -67.5 -16.5t-63 -43t-58.5 -60.5t-52 -69q-8 -10 -12.5 -15t-9.5 -10t-11 -12.5t-17 -23.5q-72 -106 -125 -218t-53 -239zM238 244q0 68 18 136.5t46 130.5 t60.5 117.5t61.5 96.5t48.5 65.5t21.5 26.5q8 10 20 18.5t18 16.5q16 20 31 20q8 0 12.5 -12t8.5 -22q2 -6 5 -14.5t11 -16.5q4 -4 7 -8t5 -15q2 -8 2 -22v-21q0 -80 -20.5 -151.5t-53 -138t-73.5 -130t-82 -124.5q-12 -18 -17.5 -24.5t-17.5 -12.5q-6 -4 -14 -10.5 t-25 -6.5q-12 0 -18 4q-14 10 -29.5 33t-19.5 35q-4 10 -5 17.5t-1 11.5zM417 1305q0 -16 8.5 -38t8.5 -38t22.5 -23t46.5 -7q4 0 8.5 1t12.5 5q43 27 65.5 35t34.5 8q8 0 19 -6q6 -4 15 -17.5t19.5 -30t22.5 -33t27 -28.5q29 -23 52 -30t56 -7q20 0 46 9.5t53.5 22.5 t53 29.5t48.5 30.5q16 10 16 21q0 16 -3 23t-5 20q-2 14 -12.5 26.5t-28.5 12.5q-6 0 -30.5 -8.5t-52.5 -17.5t-52.5 -16t-28.5 -7q-29 0 -42 14t-42 57q-29 41 -49 63.5t-49 22.5q-23 0 -39 -2t-53 -16l-129 -47q-10 -4 -14.5 -14.5t-4.5 -14.5z" />
<glyph unicode="&#xf6;" horiz-adv-x="753" d="M98 309q0 -39 7.5 -83t23.5 -87q14 -35 54 -67.5t100 -61.5q20 -10 49 -10q53 0 97 37t87 84q98 104 157.5 243.5t100.5 305.5q4 16 25 16q10 0 29.5 1t50.5 5q41 6 81.5 18.5t71.5 16.5q12 2 15.5 5t7.5 7q2 4 11 7.5t19.5 8.5t18.5 11t8 16q0 25 -39 39.5t-88 14.5 q-35 0 -75 -3.5t-101 -3.5q-45 0 -67.5 37t-36.5 76q-4 12 -10.5 18.5t-18.5 16.5q-27 23 -55.5 31t-53.5 8q-35 0 -67.5 -16.5t-63 -43t-58.5 -60.5t-52 -69q-8 -10 -12.5 -15t-9.5 -10t-11 -12.5t-17 -23.5q-72 -106 -125 -218t-53 -239zM238 244q0 68 18 136.5t46 130.5 t60.5 117.5t61.5 96.5t48.5 65.5t21.5 26.5q8 10 20 18.5t18 16.5q16 20 31 20q8 0 12.5 -12t8.5 -22q2 -6 5 -14.5t11 -16.5q4 -4 7 -8t5 -15q2 -8 2 -22v-21q0 -80 -20.5 -151.5t-53 -138t-73.5 -130t-82 -124.5q-12 -18 -17.5 -24.5t-17.5 -12.5q-6 -4 -14 -10.5 t-25 -6.5q-12 0 -18 4q-14 10 -29.5 33t-19.5 35q-4 10 -5 17.5t-1 11.5zM444 1325q0 -55 4 -59q10 -10 16.5 -22.5t24.5 -24.5q4 -4 14 -4h17q8 0 21.5 2t25.5 7t22.5 11t10.5 15q0 6 8 15t16 21.5t15.5 28.5t7.5 35q0 10 -6.5 29.5t-16.5 35.5q-10 18 -37.5 22.5 t-44.5 4.5q-25 0 -43 -6t-28 -27q-8 -16 -17.5 -44.5t-9.5 -39.5zM819 1235q0 -31 16.5 -48t26.5 -40q14 -31 49 -31q10 0 29.5 2.5t29.5 6.5q12 6 23.5 22.5t27.5 50.5q4 8 5 33q0 16 -9.5 34t-13.5 32q-4 18 -28.5 27.5t-51.5 9.5q-10 0 -23.5 1t-17.5 1 q-16 0 -27.5 -13.5t-19.5 -31t-12 -34t-4 -22.5z" />
<glyph unicode="&#xf7;" horiz-adv-x="1208" d="M246 614q0 -12 3 -33.5t8 -42t13.5 -36t18.5 -15.5q12 0 39.5 -2t64.5 -5t78 -5t82 -2q61 0 135 2t143.5 5t127 6t85.5 3q12 0 27.5 -2t28.5 -2q10 0 16 17q8 20 12.5 40.5t4.5 45.5q0 10 -1.5 18t-5.5 12q-20 20 -30.5 24.5t-26.5 4.5q-45 0 -106.5 -3t-124 -6 t-116.5 -5t-83 -2q-139 0 -219 8t-105 8q-70 0 -69 -33zM467 201q0 -29 16.5 -41.5t36.5 -34.5q14 -16 24.5 -29.5t53.5 -13.5q70 0 90.5 29.5t20.5 93.5q0 20 -9 52t-38 50q-14 10 -21.5 18.5t-17.5 14.5q-14 10 -26.5 16t-35.5 6q-25 0 -42 -20t-29.5 -47t-17.5 -53.5 t-5 -40.5zM618 842q0 -23 20.5 -40.5t45.5 -28.5t47.5 -17t28.5 -6q33 0 53.5 25.5t32.5 59t16 64.5t4 43q0 10 -15 26.5t-35.5 33t-43 27.5t-35.5 11q-16 0 -33.5 -2t-23.5 -16q-8 -20 -19.5 -37.5t-20.5 -38t-15.5 -45t-6.5 -59.5z" />
<glyph unicode="&#xf8;" horiz-adv-x="831" d="M37 86q0 -20 11 -37.5t15 -36.5q2 -10 9.5 -11t13.5 -1q12 0 43 18.5t43 34.5q14 18 23 19q4 0 14 -11q20 -20 55 -38.5t78 -34.5q16 -6 31.5 -9.5t25.5 -3.5q12 0 36 4.5t53.5 17.5t64.5 39.5t70 69.5q27 35 61.5 90.5t68 128t62.5 160.5t47 189q6 43 6 69q0 20 -2 32.5 t-2 21.5q0 6 6.5 14t34.5 31q16 14 34.5 21t18.5 18q0 31 -17 58.5t-36 27.5q-23 0 -39 -13.5t-43 -40.5q-10 -10 -14 -10q-6 0 -14 10q-6 10 -22.5 17.5t-27.5 17.5q-41 41 -73.5 57.5t-67.5 16.5q-41 0 -79 -23.5t-71.5 -56.5t-62.5 -68.5t-51 -62.5q-35 -41 -59 -76 q-25 -35 -53.5 -80t-55.5 -98t-44 -112.5t-17 -120.5q0 -68 12 -102t12 -44q0 -8 -6 -13t-23 -20q-23 -18 -36 -25t-20 -11.5t-10 -8.5t-3 -14zM266 328q0 4 2 16t6 23q18 61 42 115.5t58 108.5t78 112.5t101 130.5q10 14 31.5 29.5t46.5 15.5q10 0 15 -6.5t18 -26.5 q10 -14 22 -24.5t31 -10.5q6 0 6 -4q0 -2 -4 -6q-43 -47 -96.5 -105.5t-105.5 -117t-100 -111.5t-85 -90q-37 -39 -47.5 -48.5t-14.5 -9.5t-4 9zM285 166q0 6 12 18q18 18 29.5 30.5t19.5 23.5q49 59 99.5 110t80.5 86q35 41 72 80t74 80q14 14 18 14t4 -4t-1 -8t-7 -23 q-20 -61 -40.5 -113t-45.5 -101.5t-56.5 -98.5t-74.5 -102q-12 -16 -42 -30.5t-62 -14.5q-14 0 -32 10t-30 20t-15 14.5t-3 8.5z" />
<glyph unicode="&#xf9;" horiz-adv-x="860" d="M102 156q0 -16 3.5 -41t7.5 -47q6 -29 61 -64q39 -23 78 -31t45 -8t10 1t17 7q66 33 121 85.5t108 113.5q6 8 14 16.5t15 8.5q8 0 8 -13q0 -16 -3 -58t-3 -81q0 -31 4 -61.5t16 -61.5q4 -12 7 -16t8.5 -6t13.5 -5.5t22 -11.5q16 -10 36 -20t42 -10q18 0 29 6q6 4 9 15 t3 22q0 35 -18.5 66.5t-18.5 70.5q0 43 4 81t9 70q18 123 57 237t92 226q6 14 9 24.5t3 35.5q0 10 -8 19t-33 17q-10 4 -23 12.5t-26 8.5q-12 0 -22.5 -2t-24.5 -10q-18 -10 -23.5 -17.5t-13.5 -27.5q-49 -129 -129 -242t-176 -217q-12 -14 -20.5 -25.5t-18.5 -24 t-26.5 -28.5t-42.5 -41q-10 -10 -25.5 -15t-19.5 -5q-10 0 -19.5 10t-9.5 18v17q0 10 4 30q8 55 26.5 120t41 134.5t45 140t41.5 138.5q12 47 29.5 67.5t29.5 28.5q23 16 32 31.5t9 27.5q0 16 -9.5 29t-13.5 23q-8 16 -30.5 24t-38.5 8q-25 0 -48.5 -12t-39.5 -41 q-29 -49 -49.5 -98t-36 -97.5t-28.5 -96.5t-30 -93q-6 -20 -10 -34.5t-7 -29t-7 -29.5t-10 -36q-16 -53 -32 -114.5t-16 -118.5zM434 1258q0 -29 4 -45.5t20 -22.5q35 -14 75 -33.5t60 -33.5l209 -136q18 -12 30.5 -15t33.5 -3q20 0 26 21q2 6 2 14t5 18l7 17.5t3 17.5 q0 14 -53 51l-209 144q-35 25 -55.5 40t-32 23t-16.5 11.5t-9 3.5q-6 0 -12 3t-17 3q-25 0 -49 -25q-12 -12 -17 -23.5t-5 -29.5z" />
<glyph unicode="&#xfa;" horiz-adv-x="860" d="M102 156q0 -16 3.5 -41t7.5 -47q6 -29 61 -64q39 -23 78 -31t45 -8t10 1t17 7q66 33 121 85.5t108 113.5q6 8 14 16.5t15 8.5q8 0 8 -13q0 -16 -3 -58t-3 -81q0 -31 4 -61.5t16 -61.5q4 -12 7 -16t8.5 -6t13.5 -5.5t22 -11.5q16 -10 36 -20t42 -10q18 0 29 6q6 4 9 15 t3 22q0 35 -18.5 66.5t-18.5 70.5q0 43 4 81t9 70q18 123 57 237t92 226q6 14 9 24.5t3 35.5q0 10 -8 19t-33 17q-10 4 -23 12.5t-26 8.5q-12 0 -22.5 -2t-24.5 -10q-18 -10 -23.5 -17.5t-13.5 -27.5q-49 -129 -129 -242t-176 -217q-12 -14 -20.5 -25.5t-18.5 -24 t-26.5 -28.5t-42.5 -41q-10 -10 -25.5 -15t-19.5 -5q-10 0 -19.5 10t-9.5 18v17q0 10 4 30q8 55 26.5 120t41 134.5t45 140t41.5 138.5q12 47 29.5 67.5t29.5 28.5q23 16 32 31.5t9 27.5q0 16 -9.5 29t-13.5 23q-8 16 -30.5 24t-38.5 8q-25 0 -48.5 -12t-39.5 -41 q-29 -49 -49.5 -98t-36 -97.5t-28.5 -96.5t-30 -93q-6 -20 -10 -34.5t-7 -29t-7 -29.5t-10 -36q-16 -53 -32 -114.5t-16 -118.5zM530 1126q0 -10 6 -16l8 -8t11 -15q10 -14 30 -28q8 -4 23 -4q18 0 41 6l241 75q74 23 104 36.5t44 29.5q6 8 8 18.5t2 34.5q0 20 -4 31.5 t-18 26.5q-16 16 -39 16q-6 0 -15.5 -1t-13.5 -5q-14 -10 -35.5 -20.5t-45 -20.5t-44.5 -18.5t-33 -12.5l-182 -70q-43 -16 -51 -16q-4 0 -13.5 -2t-13.5 -8q-10 -12 -10 -29z" />
<glyph unicode="&#xfb;" horiz-adv-x="860" d="M102 156q0 -16 3.5 -41t7.5 -47q6 -29 61 -64q39 -23 78 -31t45 -8t10 1t17 7q66 33 121 85.5t108 113.5q6 8 14 16.5t15 8.5q8 0 8 -13q0 -16 -3 -58t-3 -81q0 -31 4 -61.5t16 -61.5q4 -12 7 -16t8.5 -6t13.5 -5.5t22 -11.5q16 -10 36 -20t42 -10q18 0 29 6q6 4 9 15 t3 22q0 35 -18.5 66.5t-18.5 70.5q0 43 4 81t9 70q18 123 57 237t92 226q6 14 9 24.5t3 35.5q0 10 -8 19t-33 17q-10 4 -23 12.5t-26 8.5q-12 0 -22.5 -2t-24.5 -10q-18 -10 -23.5 -17.5t-13.5 -27.5q-49 -129 -129 -242t-176 -217q-12 -14 -20.5 -25.5t-18.5 -24 t-26.5 -28.5t-42.5 -41q-10 -10 -25.5 -15t-19.5 -5q-10 0 -19.5 10t-9.5 18v17q0 10 4 30q8 55 26.5 120t41 134.5t45 140t41.5 138.5q12 47 29.5 67.5t29.5 28.5q23 16 32 31.5t9 27.5q0 16 -9.5 29t-13.5 23q-8 16 -30.5 24t-38.5 8q-25 0 -48.5 -12t-39.5 -41 q-29 -49 -49.5 -98t-36 -97.5t-28.5 -96.5t-30 -93q-6 -20 -10 -34.5t-7 -29t-7 -29.5t-10 -36q-16 -53 -32 -114.5t-16 -118.5zM457 1162q0 -23 1 -34t9 -16q10 -4 20.5 -14t29.5 -10q8 0 10 2q6 6 17 13t35 19.5t62.5 30t100.5 41.5q10 4 13 5t7 1q8 0 17 -12l129 -176 q8 -12 20 -20.5t17 -8.5q16 0 21 4.5t15 18.5q8 10 18.5 16t10.5 23q0 8 -4 18.5t-18 32.5l-123 211q-10 16 -17 16q-4 0 -8 11q-8 14 -39 14q-8 0 -26 -6l-183 -64q-72 -25 -90 -35t-22 -16q-4 -4 -8.5 -7t-10.5 -15q-4 -8 -4 -43z" />
<glyph unicode="&#xfc;" horiz-adv-x="860" d="M102 156q0 -16 3.5 -41t7.5 -47q6 -29 61 -64q39 -23 78 -31t45 -8t10 1t17 7q66 33 121 85.5t108 113.5q6 8 14 16.5t15 8.5q8 0 8 -13q0 -16 -3 -58t-3 -81q0 -31 4 -61.5t16 -61.5q4 -12 7 -16t8.5 -6t13.5 -5.5t22 -11.5q16 -10 36 -20t42 -10q18 0 29 6q6 4 9 15 t3 22q0 35 -18.5 66.5t-18.5 70.5q0 43 4 81t9 70q18 123 57 237t92 226q6 14 9 24.5t3 35.5q0 10 -8 19t-33 17q-10 4 -23 12.5t-26 8.5q-12 0 -22.5 -2t-24.5 -10q-18 -10 -23.5 -17.5t-13.5 -27.5q-49 -129 -129 -242t-176 -217q-12 -14 -20.5 -25.5t-18.5 -24 t-26.5 -28.5t-42.5 -41q-10 -10 -25.5 -15t-19.5 -5q-10 0 -19.5 10t-9.5 18v17q0 10 4 30q8 55 26.5 120t41 134.5t45 140t41.5 138.5q12 47 29.5 67.5t29.5 28.5q23 16 32 31.5t9 27.5q0 16 -9.5 29t-13.5 23q-8 16 -30.5 24t-38.5 8q-25 0 -48.5 -12t-39.5 -41 q-29 -49 -49.5 -98t-36 -97.5t-28.5 -96.5t-30 -93q-6 -20 -10 -34.5t-7 -29t-7 -29.5t-10 -36q-16 -53 -32 -114.5t-16 -118.5zM510 1262q0 -55 4 -60q10 -10 16.5 -22.5t24.5 -24.5q4 -4 14 -4h17q8 0 21.5 2t25.5 7t22.5 11.5t10.5 14.5q0 6 8 15t16 21.5t15.5 29 t7.5 34.5q0 10 -6.5 30t-16.5 36q-10 18 -37.5 22t-44.5 4q-25 0 -43 -6t-28 -26q-8 -16 -17.5 -45t-9.5 -39zM829 1071q0 -31 16.5 -48t26.5 -40q14 -31 50 -31q10 0 29.5 2t29.5 7q16 10 28.5 31.5t22.5 41.5q2 8 3 14.5t1 18.5q0 16 -9 34t-13 32q-4 18 -28.5 27t-51.5 9 q-10 0 -23.5 1t-17.5 1q-16 0 -27.5 -13t-19.5 -30.5t-12.5 -34t-4.5 -22.5z" />
<glyph unicode="&#xfd;" horiz-adv-x="892" d="M123 193q0 -25 2 -32t10 -18q68 -82 195 -82q8 0 33.5 14.5t59.5 38t69.5 51.5t62.5 54q23 23 29 23t6 -9q0 -2 -1 -7t-4 -18t-11.5 -38t-20.5 -66q-20 -63 -42 -129.5t-39 -125t-28.5 -100.5t-13.5 -56q-53 -88 -97 -179.5t-79 -170.5q-43 -102 -43 -162q0 -29 8 -44.5 t19.5 -22.5t24.5 -9t26 -2q18 0 30.5 3t24.5 5q41 6 63.5 29.5t35 55.5t17.5 68t11 66q31 147 87 293t161 285q4 6 8 17.5t4 33.5q0 10 -13 16.5t-24 6.5q-4 0 -9 -1t-9 -1q-8 0 -8 4q0 6 5 22.5t19 59.5q6 18 21.5 61t34 91t35 92t22.5 63q25 72 55.5 138.5t69.5 125.5 q16 27 23.5 39t15.5 22q16 25 31.5 50.5t15.5 54.5q0 10 -2 23.5t-9.5 24.5t-21.5 18.5t-39 7.5t-36 7t-27 7q-14 0 -32 -24.5t-22 -37.5q-37 -98 -73.5 -162.5t-70.5 -108.5t-63.5 -73.5t-54.5 -58.5q-25 -31 -44 -49.5t-32 -32.5q-57 -66 -95 -93.5t-66 -41.5 q-25 -12 -45 -12q-10 0 -11 32q0 16 3.5 33t7.5 33t7 31.5t9 33.5q20 61 34.5 112.5t30 100t34 98.5t44.5 107q6 12 10.5 16.5t9.5 10.5t13 17.5t21 33.5q12 23 16 41t4 45q0 20 -18.5 32.5t-34.5 12.5t-32.5 5t-24.5 5q-10 0 -36 -14t-36 -45q-31 -100 -67 -189.5 t-68.5 -177.5t-54 -180t-21.5 -198zM553 1102q0 -10 6 -16l8 -8t11 -15q10 -14 30 -28q8 -4 23 -4q18 0 41 6l241 75q74 23 104 36.5t44 29.5q6 8 8 18.5t2 34.5q0 20 -4 31.5t-18 26.5q-16 16 -39 16q-6 0 -15.5 -1t-13.5 -5q-14 -10 -35.5 -20.5t-45 -20.5t-44.5 -18.5 t-33 -12.5l-182 -70q-43 -16 -51 -16q-4 0 -13.5 -2t-13.5 -8q-10 -12 -10 -29z" />
<glyph unicode="&#xfe;" horiz-adv-x="933" d="M-154 -487q2 -23 10.5 -30t18.5 -18q6 -8 17.5 -11t39.5 -3q12 0 25.5 -4t36.5 -4q16 0 22.5 8t8.5 23.5t4 38t10 49.5q78 250 147.5 414.5t137.5 267.5q10 -53 35.5 -96.5t66.5 -84.5q8 -8 24.5 -18t35 -19.5t39 -15.5t38.5 -6q14 0 30.5 3t27.5 11q59 49 110 120 t93 150t77 158.5t60 145.5q8 23 8 33q0 12 4 24q8 31 14 66t6 78q0 45 -11 60t-21 21q-59 41 -98.5 55.5t-74.5 14.5q-4 0 -10 -1t-22 -11q-49 -27 -90 -59.5t-78 -67.5t-70 -67.5t-63 -59.5q-6 0 -6 4q10 33 31.5 90t46 126t50 142.5t46 138t34 114t13.5 69.5 q0 16 -11.5 28.5t-58.5 12.5q-23 0 -38 -7t-38 -7q-14 0 -25.5 -9.5t-11.5 -25.5t-3 -42t-19 -81q-90 -297 -174 -528.5t-160 -424t-142.5 -360.5t-123.5 -338q-12 -37 -15.5 -49t-3.5 -18zM434 346q0 55 10 72q27 45 67 97t87 102.5t98.5 95.5t100.5 78q12 8 16 8 q6 0 6 -13q0 -8 -6 -40.5t-20 -86.5q-23 -86 -49.5 -152.5t-36.5 -88.5q-4 -10 -19.5 -44t-38 -75t-49.5 -82t-51 -65q-8 -8 -19 -9q-20 0 -37.5 22.5t-30.5 54.5t-20.5 67t-7.5 59z" />
<glyph unicode="&#xff;" horiz-adv-x="892" d="M123 193q0 -25 2 -32t10 -18q68 -82 195 -82q8 0 33.5 14.5t59.5 38t69.5 51.5t62.5 54q23 23 29 23t6 -9q0 -2 -1 -7t-4 -18t-11.5 -38t-20.5 -66q-20 -63 -42 -129.5t-39 -125t-28.5 -100.5t-13.5 -56q-53 -88 -97 -179.5t-79 -170.5q-43 -102 -43 -162q0 -29 8 -44.5 t19.5 -22.5t24.5 -9t26 -2q18 0 30.5 3t24.5 5q41 6 63.5 29.5t35 55.5t17.5 68t11 66q31 147 87 293t161 285q4 6 8 17.5t4 33.5q0 10 -13 16.5t-24 6.5q-4 0 -9 -1t-9 -1q-8 0 -8 4q0 6 5 22.5t19 59.5q6 18 21.5 61t34 91t35 92t22.5 63q25 72 55.5 138.5t69.5 125.5 q16 27 23.5 39t15.5 22q16 25 31.5 50.5t15.5 54.5q0 10 -2 23.5t-9.5 24.5t-21.5 18.5t-39 7.5t-36 7t-27 7q-14 0 -32 -24.5t-22 -37.5q-37 -98 -73.5 -162.5t-70.5 -108.5t-63.5 -73.5t-54.5 -58.5q-25 -31 -44 -49.5t-32 -32.5q-57 -66 -95 -93.5t-66 -41.5 q-25 -12 -45 -12q-10 0 -11 32q0 16 3.5 33t7.5 33t7 31.5t9 33.5q20 61 34.5 112.5t30 100t34 98.5t44.5 107q6 12 10.5 16.5t9.5 10.5t13 17.5t21 33.5q12 23 16 41t4 45q0 20 -18.5 32.5t-34.5 12.5t-32.5 5t-24.5 5q-10 0 -36 -14t-36 -45q-31 -100 -67 -189.5 t-68.5 -177.5t-54 -180t-21.5 -198zM506 1243q0 -55 4 -59q10 -10 16.5 -22.5t24.5 -24.5q4 -4 14 -4h17q8 0 21.5 2t25.5 7t22.5 11t10.5 15q0 6 8 15t16 21.5t15.5 28.5t7.5 35q0 10 -6.5 29.5t-16.5 35.5q-10 18 -37.5 22.5t-44.5 4.5q-25 0 -43 -6t-28 -27 q-8 -16 -17.5 -44.5t-9.5 -39.5zM881 1153q0 -31 16.5 -48t26.5 -40q14 -31 49 -31q10 0 29.5 2.5t29.5 6.5q12 6 23.5 22.5t27.5 50.5q4 8 5 33q0 16 -9.5 34t-13.5 32q-4 18 -28.5 27.5t-51.5 9.5q-10 0 -23.5 1t-17.5 1q-16 0 -27.5 -13.5t-19.5 -31t-12 -34t-4 -22.5z " />
<glyph unicode="&#x152;" horiz-adv-x="1544" d="M188 301q0 -43 7.5 -89t27 -89t53 -82t89.5 -70q20 -10 59 -15t70 -5q51 0 81.5 5t51 12t36 12.5t35.5 5.5q16 0 44 -13.5t65 -13.5q33 0 107.5 10.5t172 32t204 57t204.5 88.5q23 12 49.5 23.5t48.5 28.5q18 14 21.5 31.5t3.5 23.5q0 10 -8 22.5t-20.5 23.5t-26 18.5 t-25.5 7.5q-49 0 -92 -15.5t-83 -36t-80 -43t-83 -36.5q-51 -16 -102 -30.5t-95.5 -25t-79 -15.5t-51.5 -5q-16 0 -24 7t-8 13q0 18 12 47q41 94 75 180.5t62 157.5q10 29 20.5 36t28.5 11q47 12 94.5 31t95.5 35t96 28.5t99 12.5q16 0 31.5 -3t32.5 -3q2 0 14 1t26.5 10 t25 28.5t10.5 54.5q0 23 -6.5 29t-24.5 12q-35 12 -63.5 18t-59.5 6q-37 0 -83 -9t-87 -21.5t-75 -24.5t-46 -18q-31 -12 -39 -13q-10 0 -10 11q0 6 8 41q6 27 13.5 60.5t13.5 65t12 59.5t10 44q6 25 14.5 34t35.5 19q49 20 109.5 40t127 35t134 25.5t132.5 10.5 q37 0 62.5 -3t44 -6t35 -5t39.5 -2q33 0 32 77q0 35 -34.5 55.5t-79.5 24.5q-16 2 -29.5 5t-30.5 3q-96 0 -186 -15t-176 -36q-43 -10 -77 -19t-64.5 -18.5t-61.5 -19.5t-70 -25q-39 -14 -49 -14q-12 0 -20 10q-25 33 -66 53q-35 16 -77 26.5t-128 10.5q-39 0 -120.5 -61.5 t-186.5 -210.5q-115 -164 -179 -336t-69 -383zM354 303q0 49 6.5 95t6.5 75q0 27 18 86q49 160 135 301t211 260q27 25 40 29t22 4q20 0 37.5 -6.5t21.5 -26.5q4 -29 15.5 -59.5t39.5 -48.5q14 -10 24.5 -7t10.5 -20q0 -8 -6 -37.5t-16.5 -69.5t-24.5 -87.5t-31 -90.5 q-6 -16 -13 -21t-30 -9q-43 -6 -43 -23q0 -35 4 -51t17 -35q10 -16 10 -24q0 -6 -8 -29q-29 -78 -53.5 -134.5t-46 -97t-41 -69.5t-39.5 -53q-29 -33 -65 -49.5t-64 -16.5q-43 0 -70 22.5t-42 54.5t-20.5 69.5t-5.5 68.5z" />
<glyph unicode="&#x153;" horiz-adv-x="1171" d="M102 291q0 -88 35 -158q25 -49 73 -79.5t91 -47.5q27 -10 49 -10q31 0 59.5 14.5t53 35t44.5 43t32 38.5q25 35 32 42t11 7q6 0 12 -16q10 -27 23.5 -48.5t41.5 -41.5q51 -35 99.5 -55.5t101.5 -20.5q35 0 53 8q45 20 95.5 48t110 71t132 107.5t164.5 156.5 q10 10 13.5 18.5t3.5 18.5q0 14 -13 33q-4 4 -20.5 9t-34.5 5t-33 -10q-57 -43 -98 -77t-78 -64.5t-76 -59.5t-92 -61q-66 -41 -102.5 -56.5t-59.5 -15.5q-18 0 -31.5 5t-35.5 26q-25 23 -30 42t-5 25q0 8 3 12.5t17 12.5q70 39 135.5 91t126 112.5t115 123t103.5 123.5 q12 16 27.5 44t27.5 61t20.5 67.5t8.5 63.5q0 27 -11 49q-16 37 -53 55.5t-84 18.5q-63 0 -132 -28t-114 -68q-31 -29 -48 -47.5t-40 -41.5q-4 10 -8 27q-18 43 -31.5 61.5t-37.5 38.5q-63 51 -125 52q-47 0 -91.5 -23.5t-83 -59.5t-71.5 -78t-60 -81q-41 -59 -79.5 -123.5 t-68.5 -130.5t-48.5 -133.5t-18.5 -130.5zM250 244q0 82 24.5 160.5t64.5 155.5t92 151.5t108 148.5q33 43 61 43q10 0 10 -8q0 -25 23 -37q29 -16 35 -28.5t6 -45.5q0 -74 -37 -169t-86 -184t-96 -156.5t-68 -86.5q-10 -10 -26.5 -25.5t-34.5 -15.5q-12 0 -25.5 10.5 t-25 25t-18.5 30.5t-7 31zM735 428q0 6 6 29q37 129 126 235.5t194 204.5q20 18 39.5 25.5t29.5 7.5q18 0 19 -25q0 -16 -8 -38.5t-18.5 -44t-23 -40t-20.5 -26.5q-78 -86 -148.5 -166t-154.5 -148q-27 -20 -37 -20q-4 0 -4 6z" />
<glyph unicode="&#x178;" horiz-adv-x="1028" d="M246 545q0 -18 21.5 -51t60.5 -68q20 -18 41.5 -32.5t42 -26t35 -17.5t20.5 -6q49 0 93 14.5t79 36t60.5 44t39.5 38.5l17 19q-53 -180 -104.5 -363.5t-84.5 -357.5q-6 -35 -11 -66t-11 -57q-12 -57 -28.5 -115.5t-16.5 -126.5q0 -16 1 -34.5t3 -26.5q4 -20 29.5 -33.5 t66.5 -20.5q20 -4 31.5 -7t21.5 -3q12 0 13 17q0 10 4 20t8 41q80 590 220 1027t357 743q8 10 10.5 17t2.5 11q0 8 -8.5 30.5t-14.5 29.5q-27 27 -64.5 36t-58.5 9q-8 0 -22 -21q-10 -14 -47 -72.5t-84 -152.5q-76 -147 -133.5 -226t-90.5 -112q-45 -45 -101 -89t-130 -91 q-16 -10 -32.5 -13.5t-28.5 -3.5q-20 0 -29.5 7.5t-9.5 13.5q0 66 8 145.5t21.5 165.5t29.5 174t33 170q6 29 14 47.5t15.5 33.5t12.5 29.5t5 37.5q0 16 -8.5 36.5t-18.5 22.5q-29 4 -59.5 11t-69.5 7q-10 0 -16 -18q-31 -109 -54.5 -216.5t-41.5 -221.5q-4 -29 -11.5 -44.5 t-7.5 -47.5q0 -29 -4 -41.5t-6 -32.5q-2 -33 -4 -70t-3 -69.5t-2 -55t-1 -24.5zM623 1591q0 -55 4 -59q10 -10 16.5 -22.5t24.5 -24.5q4 -4 14 -4h17q8 0 21.5 2t25.5 7t22.5 11t10.5 15q0 6 8 15t16 21.5t15.5 28.5t7.5 35q0 10 -6.5 29.5t-16.5 35.5q-10 18 -37.5 22.5 t-44.5 4.5q-25 0 -43 -6t-28 -27q-8 -16 -17.5 -44.5t-9.5 -39.5zM998 1501q0 -31 16.5 -48t26.5 -40q14 -31 49 -31q10 0 29.5 2.5t29.5 6.5q12 6 23.5 22.5t27.5 50.5q4 8 5 33q0 16 -9.5 34t-13.5 32q-4 18 -28.5 27.5t-51.5 9.5q-10 0 -23.5 1t-17.5 1 q-16 0 -27.5 -13.5t-19.5 -31t-12 -34t-4 -22.5z" />
<glyph unicode="&#x2c6;" d="M561 1561q0 -23 1 -34t9 -16q10 -4 20.5 -14t29.5 -10q8 0 10 2q6 6 17 13t35 19.5t62.5 30t100.5 41.5q10 4 13 5t7 1q8 0 17 -12l129 -176q8 -12 20 -20.5t17 -8.5q16 0 21 4.5t15 18.5q8 10 18.5 16t10.5 23q0 8 -4 18.5t-18 32.5l-123 211q-10 16 -17 16q-4 0 -8 11 q-8 14 -39 14q-8 0 -26 -6l-183 -64q-72 -25 -90 -35t-22 -16q-4 -4 -8.5 -7t-10.5 -15q-4 -8 -4 -43z" />
<glyph unicode="&#x2dc;" d="M526 1622q0 -16 8.5 -38t8.5 -38t22.5 -23t46.5 -7q4 0 8.5 1t12.5 5q43 27 65.5 35t34.5 8q8 0 19 -6q6 -4 15 -17.5t19.5 -30t22.5 -33t27 -28.5q29 -23 52 -30t56 -7q20 0 46 9.5t53.5 22.5t53 29.5t48.5 30.5q16 10 16 21q0 16 -3 23t-5 20q-2 14 -12.5 26.5 t-28.5 12.5q-6 0 -30.5 -8.5t-52.5 -17.5t-52.5 -16t-28.5 -7q-29 0 -42 14t-42 57q-29 41 -49 63.5t-49 22.5q-23 0 -39 -2t-53 -16l-129 -47q-10 -4 -14.5 -14.5t-4.5 -14.5z" />
<glyph unicode="&#x2000;" horiz-adv-x="898" />
<glyph unicode="&#x2001;" horiz-adv-x="1796" />
<glyph unicode="&#x2002;" horiz-adv-x="898" />
<glyph unicode="&#x2003;" horiz-adv-x="1796" />
<glyph unicode="&#x2004;" horiz-adv-x="598" />
<glyph unicode="&#x2005;" horiz-adv-x="449" />
<glyph unicode="&#x2006;" horiz-adv-x="299" />
<glyph unicode="&#x2007;" horiz-adv-x="299" />
<glyph unicode="&#x2008;" horiz-adv-x="224" />
<glyph unicode="&#x2009;" horiz-adv-x="359" />
<glyph unicode="&#x200a;" horiz-adv-x="99" />
<glyph unicode="&#x2010;" horiz-adv-x="933" d="M242 594q0 -14 4 -27.5t8 -25.5q10 -27 21.5 -42.5t25.5 -15.5t47 -3t76 -6t91 -5t95 -2h39q23 0 43.5 1t36.5 2t25 3q37 10 69.5 12.5t42.5 12.5q20 20 24.5 41.5t4.5 68.5q0 37 -76 37q-29 0 -75 -4t-78 -4q-92 0 -172 4t-172 4q-14 0 -40 -5t-34 -19q-6 -12 -6 -27z " />
<glyph unicode="&#x2011;" horiz-adv-x="933" d="M242 594q0 -14 4 -27.5t8 -25.5q10 -27 21.5 -42.5t25.5 -15.5t47 -3t76 -6t91 -5t95 -2h39q23 0 43.5 1t36.5 2t25 3q37 10 69.5 12.5t42.5 12.5q20 20 24.5 41.5t4.5 68.5q0 37 -76 37q-29 0 -75 -4t-78 -4q-92 0 -172 4t-172 4q-14 0 -40 -5t-34 -19q-6 -12 -6 -27z " />
<glyph unicode="&#x2012;" horiz-adv-x="933" d="M242 594q0 -14 4 -27.5t8 -25.5q10 -27 21.5 -42.5t25.5 -15.5t47 -3t76 -6t91 -5t95 -2h39q23 0 43.5 1t36.5 2t25 3q37 10 69.5 12.5t42.5 12.5q20 20 24.5 41.5t4.5 68.5q0 37 -76 37q-29 0 -75 -4t-78 -4q-92 0 -172 4t-172 4q-14 0 -40 -5t-34 -19q-6 -12 -6 -27z " />
<glyph unicode="&#x2013;" horiz-adv-x="1208" d="M246 614q0 -47 13 -81.5t32 -43.5q10 -4 37.5 -7t64.5 -5t78 -3t82 -1q125 0 250 7t241 7h50q4 0 11 3.5t11 11.5q8 20 12.5 40.5t4.5 45.5q0 10 -1.5 18t-5.5 12q-18 18 -39.5 24.5t-37.5 6.5t-28.5 -2t-26 -3t-31 -3t-43.5 -2q-35 0 -67 -1t-63.5 -3t-68.5 -3t-82 -1 q-139 0 -219 8t-105 8q-70 0 -69 -33z" />
<glyph unicode="&#x2014;" horiz-adv-x="1372" d="M53 612q0 -47 8.5 -73.5t20.5 -42.5q6 -8 12 -10.5t27 -2.5h1356q4 0 15 1t15 10q17 43 17 92q0 23 -6 28q-18 18 -27.5 23.5t-26.5 5.5h-1349q-37 0 -49.5 -8t-12.5 -23z" />
<glyph unicode="&#x2018;" horiz-adv-x="393" d="M266 846q0 -16 8.5 -30.5t22.5 -18.5q8 -2 23.5 -8.5t44.5 -6.5q14 0 34.5 8.5t30.5 24.5l127 215q23 39 42 65.5t33.5 47t23 38t8.5 40.5q0 20 -5.5 39.5t-17.5 31.5t-31.5 17.5t-29.5 5.5t-16.5 1t-10.5 1q-35 0 -49 -39q-4 -8 -16.5 -32.5t-29 -53.5t-31.5 -55.5 t-21 -38.5q-31 -53 -63 -108.5t-64 -112.5q-8 -14 -10.5 -19.5t-2.5 -11.5z" />
<glyph unicode="&#x2019;" horiz-adv-x="393" d="M266 846q0 -16 8.5 -30.5t22.5 -18.5q8 -2 23.5 -8.5t44.5 -6.5q14 0 34.5 8.5t30.5 24.5l127 215q23 39 42 65.5t33.5 47t23 38t8.5 40.5q0 20 -5.5 39.5t-17.5 31.5t-31.5 17.5t-29.5 5.5t-16.5 1t-10.5 1q-35 0 -49 -39q-4 -8 -16.5 -32.5t-29 -53.5t-31.5 -55.5 t-21 -38.5q-31 -53 -63 -108.5t-64 -112.5q-8 -14 -10.5 -19.5t-2.5 -11.5z" />
<glyph unicode="&#x201a;" horiz-adv-x="393" d="M-98 -250q0 -16 8 -30.5t22 -18.5q8 -2 23.5 -8t44.5 -6q14 0 34.5 8t31.5 24l127 215q23 39 42 66t33.5 47.5t22.5 37.5t8 40q0 20 -5 39.5t-18 32.5q-12 12 -31.5 17t-29.5 5t-16 1t-11 1q-35 0 -49 -39q-4 -8 -16 -32.5t-28.5 -53t-32 -55.5t-21.5 -39 q-31 -53 -62.5 -108.5t-64.5 -112.5q-8 -14 -10 -19.5t-2 -11.5z" />
<glyph unicode="&#x201c;" horiz-adv-x="696" d="M285 897q0 -10 11 -27.5t21 -17.5q16 0 39 -6q10 -4 20.5 -6t20.5 -2q14 0 39 12t35 29l107 200q12 23 40.5 74t61.5 100q6 8 6 33q0 14 -12 25.5t-23 23.5q-23 29 -40 35t-31 6q-37 0 -56 -43q-16 -37 -41 -88t-41 -82q-31 -55 -63.5 -111.5t-67.5 -113.5 q-14 -23 -20 -27t-6 -14zM575 838q0 -10 8.5 -24.5t22.5 -16.5q10 -2 26.5 -8.5t39.5 -6.5t41 10.5t28 26.5l125 211q33 53 70 100.5t37 92.5q0 18 -5 37.5t-18 31.5q-18 18 -48 21.5t-38 3.5q-16 0 -27.5 -5t-19.5 -26q-2 -6 -14 -29.5t-28.5 -53t-33 -58.5t-26.5 -47 l-127 -221q-8 -14 -10.5 -21.5t-2.5 -17.5z" />
<glyph unicode="&#x201d;" horiz-adv-x="696" d="M285 897q0 -10 11 -27.5t21 -17.5q16 0 39 -6q10 -4 20.5 -6t20.5 -2q14 0 39 12t35 29l107 200q12 23 40.5 74t61.5 100q6 8 6 33q0 14 -12 25.5t-23 23.5q-23 29 -40 35t-31 6q-37 0 -56 -43q-16 -37 -41 -88t-41 -82q-31 -55 -63.5 -111.5t-67.5 -113.5 q-14 -23 -20 -27t-6 -14zM575 838q0 -10 8.5 -24.5t22.5 -16.5q10 -2 26.5 -8.5t39.5 -6.5t41 10.5t28 26.5l125 211q33 53 70 100.5t37 92.5q0 18 -5 37.5t-18 31.5q-18 18 -48 21.5t-38 3.5q-16 0 -27.5 -5t-19.5 -26q-2 -6 -14 -29.5t-28.5 -53t-33 -58.5t-26.5 -47 l-127 -221q-8 -14 -10.5 -21.5t-2.5 -17.5z" />
<glyph unicode="&#x201e;" horiz-adv-x="696" d="M-88 -213q0 -10 11 -27.5t22 -17.5q16 0 39 -6q10 -4 20 -6t21 -2q14 0 38.5 12t34.5 29l107 200q12 23 40.5 74t61.5 100q6 8 6 33q0 14 -12 25.5t-22 23.5q-23 29 -40.5 35t-31.5 6q-37 0 -55 -43q-16 -37 -41 -88t-41 -82q-31 -55 -64 -111.5t-67 -113.5 q-14 -23 -20.5 -27t-6.5 -14zM203 -272q0 -10 8 -24.5t22 -16.5q10 -2 26.5 -8.5t39.5 -6.5t41 10.5t29 26.5l125 211q33 53 69.5 100.5t36.5 92.5q0 18 -5 37.5t-17 31.5q-18 18 -48 21.5t-38 3.5q-16 0 -27.5 -5t-20.5 -26q-2 -6 -14 -29.5t-28.5 -53.5t-33 -58.5 t-26.5 -46.5l-127 -221q-8 -14 -10 -21.5t-2 -17.5z" />
<glyph unicode="&#x2022;" horiz-adv-x="1003" d="M143 379q0 -16 1 -32.5t3 -33.5q4 -43 14.5 -74.5t28 -56t40 -46t51.5 -44.5q35 -29 89 -46t101 -17q125 0 224.5 54t169 138t106.5 185.5t37 197.5q0 35 -6.5 63.5t-26.5 71.5q-25 53 -51.5 78t-49.5 55q-43 61 -102 82t-143 21q-106 0 -195.5 -62.5t-154 -154.5 t-100.5 -195.5t-36 -183.5z" />
</font>
</defs>
</svg>
