<?xml version="1.0" standalone="no"?>
<!DOCTYPE svg PUBLIC "-//W3C//DTD SVG 1.1//EN" "http://www.w3.org/Graphics/SVG/1.1/DTD/svg11.dtd" >
<svg>
<metadata>
Created by FontForge 20110222 at Fri Sep 27 17:42:00 2013
 By Orthosie Webhosting
(C)2009 House Industries/Brand Design Co., Inc. All Rights Reserved.
</metadata>
<defs>
<font id="NeutrafaceSlabTextBookItalic" horiz-adv-x="500" >
  <font-face 
    font-family="NeutrafaceSlabTextBookItalic"
    font-weight="400"
    font-style="italic"
    font-stretch="normal"
    units-per-em="1000"
    panose-1="2 6 5 3 2 2 5 9 4 2"
    ascent="788"
    descent="-212"
    x-height="414"
    cap-height="680"
    bbox="-105 -258 1153 965"
    underline-thickness="50"
    underline-position="-50"
    slope="-12"
    unicode-range="U+0020-FB04"
  />
<missing-glyph horiz-adv-x="232" 
 />
    <glyph glyph-name="ff" unicode="ff" horiz-adv-x="561" 
d="M-54 -212l9 52h30q22 0 36 14t21 53l80 453h-66l9 54h66l31 176q23 125 125 125q62 0 93 -45l-40 -42q-21 29 -50 29q-24 0 -38.5 -15t-21.5 -53l-31 -175h184l35 197q21 124 127 124q67 0 99 -51l-46 -38q-20 31 -50 31q-25 0 -40.5 -15.5t-22.5 -54.5l-34 -193h107
l-10 -54h-106l-77 -436q-12 -67 -40.5 -90.5t-82.5 -23.5h-39l9 52h28q22 0 36 14t21 52l77 432h-184l-81 -458q-12 -67 -40.5 -90.5t-81.5 -23.5h-41z" />
    <glyph glyph-name="fi" unicode="fi" horiz-adv-x="497" 
d="M-54 -212l9 52h30q22 0 36 14.5t21 53.5l80 452h-66l9 54h66l34 195q23 126 126 126q63 0 98 -49l-48 -38q-20 29 -48 29q-23 0 -38 -15.5t-22 -53.5l-34 -194h243l-58 -328q-6 -32 19 -32h41l-10 -54h-48q-45 0 -61 22.5t-8 69.5l47 268h-174l-81 -458
q-12 -67 -40.5 -90.5t-81.5 -23.5h-41zM438 535q-20 0 -34.5 13.5t-14.5 34.5t14.5 35t34.5 14q19 0 33.5 -14t14.5 -35t-14.5 -34.5t-33.5 -13.5z" />
    <glyph glyph-name="fl" unicode="fl" horiz-adv-x="507" 
d="M-54 -212l9 52h31q22 0 35.5 14.5t20.5 53.5l80 452h-66l9 54h66l22 123q16 94 64.5 139.5t135.5 45.5h151l-113 -636q-6 -32 20 -32h44l-9 -54h-53q-45 0 -61 22t-8 70l102 576h-80q-54 0 -82.5 -29t-42.5 -103l-22 -122h103l-9 -54h-103l-81 -458q-12 -67 -40 -90.5
t-81 -23.5h-42z" />
    <glyph glyph-name="ffi" unicode="ffi" horiz-adv-x="748" 
d="M-54 -212l9 52h30q22 0 36 14t21 53l80 453h-66l9 54h66l31 176q23 125 125 125q62 0 93 -45l-40 -42q-21 29 -50 29q-24 0 -38.5 -15t-21.5 -53l-31 -175h184l34 195q21 126 125 126q64 0 99 -49l-48 -38q-19 29 -48 29q-49 0 -60 -69l-34 -194h242l-58 -328
q-6 -32 19 -32h41l-9 -54h-49q-45 0 -61 22.5t-8 69.5l47 268h-173l-77 -436q-12 -67 -40.5 -90.5t-82.5 -23.5h-39l9 52h28q22 0 36 14t21 52l77 432h-184l-81 -458q-12 -67 -40.5 -90.5t-81.5 -23.5h-41zM689 535q-20 0 -34.5 13.5t-14.5 34.5t14.5 35t34.5 14
q19 0 33.5 -14t14.5 -35t-14.5 -34.5t-33.5 -13.5z" />
    <glyph glyph-name="ffl" unicode="ffl" horiz-adv-x="759" 
d="M442 360l-77 -436q-12 -67 -40.5 -90.5t-82.5 -23.5h-39l9 52h28q22 0 36 14t21 52l77 432h-184l-81 -458q-12 -67 -40.5 -90.5t-81.5 -23.5h-41l9 52h30q22 0 36 14t21 53l80 453h-66l9 54h66l31 176q23 125 125 125q59 0 90 -45l-37 -42q-21 29 -50 29q-24 0 -38.5 -15
t-21.5 -53l-31 -175h184l22 123q16 94 64.5 139.5t135.5 45.5h151l-113 -636q-6 -32 20 -32h44l-9 -54h-53q-45 0 -61 22t-8 70l102 576h-80q-54 0 -82.5 -29t-42.5 -103l-22 -122h103l-9 -54h-103z" />
    <glyph glyph-name="f_b" unicode="fb" horiz-adv-x="808" 
d="M425 668h-79q-54 0 -82.5 -29t-42.5 -103l-22 -122h103l-9 -54h-103l-81 -458q-12 -67 -40 -90.5t-81 -23.5h-42l9 52h31q22 0 35.5 14.5t20.5 53.5l80 452h-66l9 54h66l22 123q16 94 64.5 139.5t135.5 45.5h150l-69 -387q56 88 155 88q77 0 125.5 -55t48.5 -144
q0 -100 -60.5 -166t-146.5 -66q-60 0 -104 31t-59 89l-26 -112h-58zM539 47q69 0 111.5 51t42.5 129q0 63 -33 101.5t-89 38.5q-67 0 -112.5 -49t-45.5 -125q0 -64 34 -105t92 -41z" />
    <glyph glyph-name="f_f_b" unicode="ffb" horiz-adv-x="1059" 
d="M442 360l-77 -436q-12 -67 -40.5 -90.5t-82.5 -23.5h-39l9 52h28q22 0 36 14t21 52l77 432h-184l-81 -458q-12 -67 -40.5 -90.5t-81.5 -23.5h-41l9 52h30q22 0 36 14t21 53l80 453h-66l9 54h66l31 176q23 125 125 125q62 0 93 -45l-40 -42q-21 29 -50 29q-24 0 -38.5 -15
t-21.5 -53l-31 -175h184l22 123q16 94 64.5 139.5t135.5 45.5h150l-69 -387q56 88 155 88q77 0 125.5 -55t48.5 -144q0 -100 -60.5 -166t-146.5 -66q-60 0 -104 31t-59 89l-26 -112h-58l116 668h-79q-54 0 -82.5 -29t-42.5 -103l-22 -122h103l-9 -54h-103zM791 47
q69 0 111.5 51t42.5 129q0 63 -33 101.5t-89 38.5q-67 0 -112.5 -49t-45.5 -125q0 -64 34 -105t92 -41z" />
    <glyph glyph-name="f_f_f" unicode="fff" horiz-adv-x="813" 
d="M-54 -212l9 52h30q22 0 36 14t21 53l80 453h-66l9 54h66l30 169q21 125 125 125q60 0 93 -45l-41 -41q-20 29 -50 29q-24 0 -38.5 -15t-20.5 -54l-30 -168h183l33 183q23 125 125 125q62 0 93 -45l-41 -42q-20 29 -50 29q-24 0 -38.5 -15t-20.5 -53l-32 -182h183l35 197
q23 124 128 124q63 0 97 -51l-44 -37q-19 30 -51 30q-25 0 -40 -14t-22 -53l-35 -196h107l-9 -54h-107l-76 -429q-12 -67 -40 -90t-82 -23h-39l9 52h28q22 0 36 13.5t21 52.5l75 424h-184l-77 -443q-11 -67 -40 -90.5t-83 -23.5h-39l9 52h28q22 0 36 14t21 52l78 439h-184
l-81 -458q-12 -67 -40.5 -90.5t-81.5 -23.5h-41z" />
    <glyph glyph-name="f_f_f_i" unicode="fffi" horiz-adv-x="998" 
d="M-54 -212l9 52h30q22 0 36 14t21 53l80 453h-66l9 54h66l30 169q21 125 125 125q60 0 93 -45l-41 -41q-20 29 -50 29q-24 0 -38.5 -15t-20.5 -54l-30 -168h183l33 183q23 125 125 125q62 0 93 -45l-41 -42q-20 29 -50 29q-24 0 -38.5 -15t-20.5 -53l-32 -182h183l35 197
q23 124 128 124q65 0 99 -51l-46 -37q-19 30 -51 30q-25 0 -40 -14t-22 -53l-35 -196h242l-58 -328q-5 -32 20 -32h40l-9 -54h-49q-45 0 -61 22t-7 70l46 268h-173l-76 -429q-12 -67 -40 -90t-82 -23h-39l9 52h28q22 0 36 13.5t21 52.5l75 424h-184l-77 -443
q-11 -67 -40 -90.5t-83 -23.5h-39l9 52h28q22 0 36 14t21 52l78 439h-184l-81 -458q-12 -67 -40.5 -90.5t-81.5 -23.5h-41zM940 536q-19 0 -33 13.5t-14 33.5t14 33.5t33 13.5t33 -13.5t14 -33.5t-14 -33.5t-33 -13.5z" />
    <glyph glyph-name="f_f_f_l" unicode="fffl" horiz-adv-x="1010" 
d="M693 360l-76 -429q-12 -67 -40 -90t-82 -23h-39l9 52h28q22 0 36 13.5t21 52.5l75 424h-184l-77 -443q-11 -67 -40 -90.5t-83 -23.5h-39l9 52h28q22 0 36 14t21 52l78 439h-184l-81 -458q-12 -67 -40.5 -90.5t-81.5 -23.5h-41l9 52h30q22 0 36 14t21 53l80 453h-66l9 54
h66l30 169q21 125 125 125q60 0 93 -45l-41 -41q-20 29 -50 29q-24 0 -38.5 -15t-20.5 -54l-30 -168h183l33 183q23 125 125 125q62 0 93 -45l-41 -42q-20 29 -50 29q-24 0 -38.5 -15t-20.5 -53l-32 -182h183l22 123q16 94 64.5 139.5t135.5 45.5h151l-113 -636
q-6 -32 20 -32h44l-9 -54h-53q-45 0 -61 22t-8 70l102 576h-80q-54 0 -82.5 -29t-42.5 -103l-22 -122h103l-9 -54h-103z" />
    <glyph glyph-name="f_f_h" unicode="ffh" horiz-adv-x="1033" 
d="M676 668h-78q-54 0 -82.5 -29t-42.5 -103l-22 -122h103l-9 -54h-103l-77 -436q-12 -67 -40.5 -90.5t-82.5 -23.5h-39l9 52h28q22 0 36 14t21 52l77 432h-184l-81 -458q-12 -67 -40.5 -90.5t-81.5 -23.5h-41l9 52h30q22 0 36 14t21 53l80 453h-66l9 54h66l31 176
q23 125 125 125q62 0 93 -45l-40 -42q-21 29 -50 29q-24 0 -38.5 -15t-21.5 -53l-31 -175h184l22 123q16 94 64.5 139.5t135.5 45.5h150l-68 -383q51 84 145 84q68 0 106.5 -49t23.5 -135l-27 -153q-6 -32 20 -32h37l-9 -54h-45q-47 0 -62.5 22t-7.5 71l25 143q9 55 -10 92
t-75 37t-92 -34.5t-47 -97.5l-41 -233h-68z" />
    <glyph glyph-name="f_f_iacute" unicode="ff&#xed;" horiz-adv-x="748" 
d="M645 498l97 193h84l-126 -193h-55zM-54 -212l9 52h30q22 0 36 14t21 53l80 453h-66l9 54h66l31 176q23 125 125 125q62 0 93 -45l-40 -42q-21 29 -50 29q-24 0 -38.5 -15t-21.5 -53l-31 -175h184l34 195q21 126 125 126q64 0 99 -49l-48 -38q-19 29 -48 29q-49 0 -60 -69
l-34 -194h242l-58 -328q-6 -32 19 -32h41l-9 -54h-49q-45 0 -61 22.5t-8 69.5l47 268h-173l-77 -436q-12 -67 -40.5 -90.5t-82.5 -23.5h-39l9 52h28q22 0 36 14t21 52l77 432h-184l-81 -458q-12 -67 -40.5 -90.5t-81.5 -23.5h-41z" />
    <glyph glyph-name="f_f_icircumflex" unicode="ff&#xee;" horiz-adv-x="748" 
d="M549 496l158 193h10l94 -193h-56l-56 108l-90 -108h-60zM-54 -212l9 52h30q22 0 36 14t21 53l80 453h-66l9 54h66l31 176q23 125 125 125q62 0 93 -45l-40 -42q-21 29 -50 29q-24 0 -38.5 -15t-21.5 -53l-31 -175h184l34 195q21 126 125 126q64 0 99 -49l-48 -38
q-19 29 -48 29q-49 0 -60 -69l-34 -194h242l-58 -328q-6 -32 19 -32h41l-9 -54h-49q-45 0 -61 22.5t-8 69.5l47 268h-173l-77 -436q-12 -67 -40.5 -90.5t-82.5 -23.5h-39l9 52h28q22 0 36 14t21 52l77 432h-184l-81 -458q-12 -67 -40.5 -90.5t-81.5 -23.5h-41z" />
    <glyph glyph-name="f_f_idieresis" unicode="ff&#xef;" horiz-adv-x="748" 
d="M-54 -212l9 52h30q22 0 36 14t21 53l80 453h-66l9 54h66l31 176q23 125 125 125q62 0 93 -45l-40 -42q-21 29 -50 29q-24 0 -38.5 -15t-21.5 -53l-31 -175h184l34 195q21 126 125 126q64 0 99 -49l-48 -38q-19 29 -48 29q-49 0 -60 -69l-34 -194h242l-58 -328
q-6 -32 19 -32h41l-9 -54h-49q-45 0 -61 22.5t-8 69.5l47 268h-173l-77 -436q-12 -67 -40.5 -90.5t-82.5 -23.5h-39l9 52h28q22 0 36 14t21 52l77 432h-184l-81 -458q-12 -67 -40.5 -90.5t-81.5 -23.5h-41zM756 516q-18 0 -32 13.5t-14 32.5t14 32.5t32 13.5
q19 0 32.5 -13.5t13.5 -32.5t-13.5 -32.5t-32.5 -13.5zM606 516q-18 0 -32 13.5t-14 32.5t14 32.5t32 13.5q19 0 32.5 -13.5t13.5 -32.5t-13.5 -32.5t-32.5 -13.5z" />
    <glyph glyph-name="f_f_j" unicode="ffj" horiz-adv-x="742" 
d="M623 360h-181l-77 -436q-12 -67 -40.5 -90.5t-82.5 -23.5h-39l9 52h28q22 0 36 14t21 52l77 432h-184l-81 -458q-12 -67 -40.5 -90.5t-81.5 -23.5h-41l9 52h30q22 0 36 14t21 53l80 453h-66l9 54h66l31 176q23 125 125 125q62 0 93 -45l-40 -42q-21 29 -50 29
q-24 0 -38.5 -15t-21.5 -53l-31 -175h184l34 195q21 126 125 126q64 0 99 -49l-48 -38q-19 29 -48 29q-49 0 -60 -69l-34 -194h250l-92 -521q-19 -115 -115 -115q-60 0 -91 39l43 41q21 -25 46 -25q20 0 31.5 13t17.5 45zM697 535q-20 0 -34.5 13.5t-14.5 34.5t14.5 35
t34.5 14q19 0 33.5 -14t14.5 -35t-14.5 -34.5t-33.5 -13.5z" />
    <glyph glyph-name="f_f_k" unicode="ffk" horiz-adv-x="990" 
d="M-54 -212l9 54h30q22 0 36 13t21 52l79 453h-65l10 54h65l31 176q23 125 126 125q57 0 90 -45l-38 -42q-19 29 -50 29q-24 0 -38.5 -15t-20.5 -53l-31 -175h182l22 123q16 94 64 140t135 46h151l-84 -480q-6 -34 -14 -58l192 174h-59l8 55h182l-10 -55h-50l-135 -127
l89 -156q13 -22 35 -22h32l-10 -54h-37q-29 0 -45.5 9.5t-31.5 37.5l-83 145l-85 -74l-21 -118h-68l117 668h-80q-54 0 -82.5 -29t-40.5 -103l-22 -122h108l-10 -54h-108l-76 -436q-12 -67 -40.5 -90.5t-81.5 -23.5h-39l9 53h28q21 0 35 13.5t22 51.5l75 432h-183l-80 -458
q-12 -67 -40.5 -90.5t-82.5 -23.5h-41z" />
    <glyph glyph-name="f_f_t" unicode="fft" horiz-adv-x="819" 
d="M-54 -212l9 54h30q22 0 36 13t21 52l79 453h-65l10 54h65l31 176q23 125 125 125q59 0 90 -45l-37 -42q-21 29 -50 29q-24 0 -38.5 -15t-21.5 -53l-31 -175h183l35 195q21 126 126 126q66 0 99 -52l-43 -38q-20 32 -53 32q-50 0 -61 -69l-34 -194h173l26 146h68l-26 -146
h112l-9 -54h-112l-42 -235q-13 -78 40 -78q28 0 56 24l29 -44q-38 -35 -96 -35q-53 0 -80.5 33.5t-15.5 102.5l41 232h-174l-77 -436q-12 -67 -40 -90.5t-82 -23.5h-39l9 53h28q22 0 36 13.5t21 51.5l76 432h-183l-81 -458q-12 -67 -40.5 -90.5t-81.5 -23.5h-41z" />
    <glyph glyph-name="f_h" unicode="fh" horiz-adv-x="781" 
d="M424 668h-78q-54 0 -82.5 -29t-42.5 -103l-22 -122h103l-9 -54h-103l-81 -458q-12 -67 -40 -90.5t-81 -23.5h-42l9 52h31q22 0 35.5 14.5t20.5 53.5l80 452h-66l9 54h66l22 123q16 94 64.5 139.5t135.5 45.5h150l-68 -383q51 84 145 84q68 0 106.5 -49t23.5 -135
l-27 -153q-6 -32 20 -32h37l-9 -54h-45q-47 0 -62.5 22t-7.5 71l25 143q9 55 -10 92t-75 37t-92 -34.5t-47 -97.5l-41 -233h-68z" />
    <glyph glyph-name="f_iacute" unicode="f&#xed;" horiz-adv-x="497" 
d="M393 498l98 193h84l-127 -193h-55zM-54 -212l9 52h31q21 0 35 15t21 54l80 451h-65l8 54h66l34 195q23 126 126 126q61 0 96 -49l-45 -38q-20 29 -48 29q-48 0 -61 -69l-34 -194h243l-58 -328q-6 -32 19 -32h41l-10 -54h-48q-45 0 -61 22.5t-8 69.5l47 268h-174l-81 -458
q-12 -67 -40 -90.5t-81 -23.5h-42z" />
    <glyph glyph-name="f_icircumflex" unicode="f&#xee;" horiz-adv-x="497" 
d="M297 496l158 193h10l95 -193h-56l-56 108l-91 -108h-60zM-54 -212l9 52h31q21 0 35 15t21 54l80 451h-65l8 54h66l34 195q23 126 126 126q61 0 96 -49l-45 -38q-20 29 -48 29q-48 0 -61 -69l-34 -194h243l-58 -328q-6 -32 19 -32h41l-10 -54h-48q-45 0 -61 22.5t-8 69.5
l47 268h-174l-81 -458q-12 -67 -40 -90.5t-81 -23.5h-42z" />
    <glyph glyph-name="f_idieresis" unicode="f&#xef;" horiz-adv-x="497" 
d="M-54 -212l9 52h31q21 0 35 15t21 54l80 451h-65l8 54h66l34 195q23 126 126 126q61 0 96 -49l-45 -38q-20 29 -48 29q-48 0 -61 -69l-34 -194h243l-58 -328q-6 -32 19 -32h41l-10 -54h-48q-45 0 -61 22.5t-8 69.5l47 268h-174l-81 -458q-12 -67 -40 -90.5t-81 -23.5h-42z
M506 516q-18 0 -32 13.5t-14 32.5t14 32.5t32 13.5q19 0 32.5 -13.5t13.5 -32.5t-13.5 -32.5t-32.5 -13.5zM356 516q-18 0 -32 13.5t-14 32.5t14 32.5t32 13.5q19 0 32.5 -13.5t13.5 -32.5t-13.5 -32.5t-32.5 -13.5z" />
    <glyph glyph-name="f_j" unicode="fj" horiz-adv-x="491" 
d="M450 414l-92 -521q-19 -115 -115 -115q-60 0 -91 39l43 41q21 -25 46 -25q20 0 31.5 13t17.5 45l82 469h-182l-81 -458q-12 -67 -40.5 -90.5t-81.5 -23.5h-41l9 52h30q22 0 36 14.5t21 53.5l80 452h-66l9 54h66l34 195q23 126 126 126q61 0 96 -49l-45 -38q-20 29 -48 29
q-48 0 -61 -69l-34 -194h251zM446 535q-20 0 -34.5 13.5t-14.5 34.5t14.5 35t34.5 14q19 0 33.5 -14t14.5 -35t-14.5 -34.5t-33.5 -13.5z" />
    <glyph glyph-name="f_k" unicode="fk" horiz-adv-x="737" 
d="M423 668h-77q-54 0 -82.5 -29t-42.5 -103l-22 -122h103l-9 -54h-103l-81 -458q-12 -67 -40 -90.5t-81 -23.5h-42l9 52h31q22 0 35.5 14.5t20.5 53.5l80 452h-66l9 54h66l22 123q16 94 64.5 139.5t135.5 45.5h148l-84 -478q-6 -34 -14 -59l193 174h-58l9 55h179l-9 -55
h-50l-136 -127l89 -156q12 -22 36 -22h31l-9 -54h-37q-29 0 -45.5 9.5t-31.5 37.5l-84 145l-84 -74l-21 -118h-68z" />
    <glyph glyph-name="f_t" unicode="ft" horiz-adv-x="565" 
d="M190 360l-81 -458q-12 -67 -40.5 -90.5t-81.5 -23.5h-41l9 52h30q22 0 36 14.5t21 54.5l80 451h-66l9 54h66l34 193q23 128 127 128q64 0 99 -51l-43 -39q-20 32 -53 32q-25 0 -40 -15.5t-22 -55.5l-34 -192h172l25 146h68l-26 -146h112l-9 -54h-112l-42 -235
q-13 -78 40 -78q28 0 56 24l29 -44q-38 -35 -96 -35q-53 0 -81 33.5t-15 102.5l41 232h-171z" />
    <glyph glyph-name=".notdef" horiz-adv-x="232" 
 />
    <glyph glyph-name=".null" horiz-adv-x="0" 
 />
    <glyph glyph-name="nonmarkingreturn" horiz-adv-x="333" 
 />
    <glyph glyph-name="space" unicode=" " horiz-adv-x="232" 
 />
    <glyph glyph-name="exclam" unicode="!" horiz-adv-x="241" 
d="M90 -7q-21 0 -36.5 15.5t-15.5 37.5t15.5 37.5t36.5 15.5t36.5 -15.5t15.5 -37.5t-15.5 -37.5t-36.5 -15.5zM87 187l78 493h77l-102 -493h-53z" />
    <glyph glyph-name="quotedbl" unicode="&#x22;" horiz-adv-x="281" 
d="M95 470l30 210h72l-47 -210h-55zM222 470l30 210h72l-47 -210h-55z" />
    <glyph glyph-name="numbersign" unicode="#" horiz-adv-x="442" 
d="M87 177l27 109h-67l9 52h71l28 112h-79l9 52h83l28 111h57l-28 -111h98l28 111h58l-28 -111h69l-9 -52h-73l-28 -112h80l-9 -52h-84l-27 -109h-58l27 109h-97l-28 -109h-57zM185 338h97l29 112h-99z" />
    <glyph glyph-name="dollar" unicode="$" horiz-adv-x="461" 
d="M156 -116l20 113q-68 14 -101 67l-16 -64h-45l28 162h44q8 -95 99 -115l35 198l-1 1q-61 28 -88.5 59.5t-27.5 81.5q0 57 44.5 91t107.5 34h11l19 105h49l-20 -114q47 -15 65 -52l15 53h45l-25 -144h-43q-8 75 -65 95l-29 -166l11 -5q122 -53 122 -149q0 -64 -49 -103.5
t-130 -39.5h-6l-19 -108h-50zM344 133q0 57 -79 91l-31 -180q55 2 82.5 26.5t27.5 62.5zM166 390q0 -49 65 -80l27 152q-92 -2 -92 -72z" />
    <glyph glyph-name="percent" unicode="%" horiz-adv-x="775" 
d="M194 271q40 0 66.5 28.5t26.5 74.5q0 41 -22 64.5t-58 23.5q-40 0 -67.5 -28.5t-27.5 -73.5q0 -42 22.5 -65.5t59.5 -23.5zM194 222q-59 0 -100 39t-41 99q0 65 46 108.5t107 43.5q59 0 100 -39t41 -98q0 -67 -45.5 -110t-107.5 -43zM161 0l401 504h64l-401 -504h-64z
M579 40q40 0 67 29t27 75q0 41 -22.5 64.5t-58.5 23.5q-40 0 -67 -28.5t-27 -73.5q0 -42 22 -66t59 -24zM579 -9q-59 0 -99.5 39.5t-40.5 99.5q0 65 45.5 108.5t107.5 43.5q59 0 99.5 -39t40.5 -98q0 -67 -45.5 -110.5t-107.5 -43.5z" />
    <glyph glyph-name="ampersand" unicode="&#x26;" horiz-adv-x="659" 
d="M240 -8q-93 0 -149.5 48.5t-56.5 128.5q0 44 16 80t47 64.5t64.5 49.5t81.5 43l-12 20q-35 63 -35 118q0 62 43 103t110 41q62 0 99.5 -36.5t37.5 -94.5q0 -95 -153 -167l127 -212q43 68 61 156h-57l10 55h175l-10 -55h-58q-26 -121 -89 -207l43 -71h67l-9 -56h-102
l-48 80q-83 -88 -203 -88zM245 50q100 0 166 78l-142 234q-77 -37 -119.5 -80.5t-42.5 -107.5q0 -57 38 -90.5t100 -33.5zM306 431q58 30 86.5 58t28.5 68q0 35 -19 56t-53 21q-38 0 -61.5 -24t-23.5 -64q0 -44 29 -93z" />
    <glyph glyph-name="quotesingle" unicode="'" horiz-adv-x="153" 
d="M95 470l29 210h72l-47 -210h-54z" />
    <glyph glyph-name="parenleft" unicode="(" horiz-adv-x="290" 
d="M161 -135q-106 136 -106 338q0 296 255 515l36 -39q-222 -207 -222 -474q0 -175 84 -308z" />
    <glyph glyph-name="parenright" unicode=")" horiz-adv-x="287" 
d="M8 -135l-36 39q221 208 221 477q0 172 -83 306l46 31q106 -136 106 -335q0 -300 -254 -518z" />
    <glyph glyph-name="asterisk" unicode="*" horiz-adv-x="375" 
d="M206 375l28 127l-104 -66l-25 57l122 36l-114 58l35 50l91 -80l-4 123h63l-27 -125l103 64l25 -56l-121 -36l113 -58l-35 -50l-91 80l4 -124h-63z" />
    <glyph glyph-name="plus" unicode="+" horiz-adv-x="370" 
d="M136 98l22 126h-116l10 57h116l23 127h60l-22 -127h115l-10 -57h-115l-23 -126h-60z" />
    <glyph glyph-name="comma" unicode="," horiz-adv-x="193" 
d="M3 -112l56 112q-30 13 -30 48q0 22 16 37.5t37 15.5q22 0 37 -15t15 -38q0 -20 -18 -46l-75 -114h-38z" />
    <glyph glyph-name="hyphen" unicode="-" horiz-adv-x="278" 
d="M45 204l10 57h188l-10 -57h-188z" />
    <glyph glyph-name="period" unicode="." horiz-adv-x="196" 
d="M85 -7q-21 0 -36.5 15.5t-15.5 37.5q0 23 15.5 38.5t36.5 15.5t37 -15.5t16 -38.5q0 -22 -16 -37.5t-37 -15.5z" />
    <glyph glyph-name="slash" unicode="/" horiz-adv-x="430" 
d="M-36 -128l445 850h69l-445 -850h-69z" />
    <glyph glyph-name="zero" unicode="0" horiz-adv-x="619" 
d="M300 50q87 0 144.5 59.5t57.5 155.5q0 84 -49.5 136.5t-128.5 52.5q-87 0 -144.5 -59.5t-57.5 -154.5q0 -84 49.5 -137t128.5 -53zM298 -8q-107 0 -177.5 71.5t-70.5 178.5q0 120 82 195t194 75q105 0 177 -71.5t72 -177.5q0 -121 -82.5 -196t-194.5 -75z" />
    <glyph glyph-name="one" unicode="1" horiz-adv-x="332" 
d="M12 0l9 54h88l70 394h-106l10 56h176l-79 -450h89l-10 -54h-247z" />
    <glyph glyph-name="two" unicode="2" horiz-adv-x="458" 
d="M-5 0l8 36l213 158q67 51 100.5 90.5t33.5 83.5q0 40 -26 62t-64 22q-94 0 -130 -101l-62 18q22 69 74.5 106t120.5 37q72 0 115.5 -38.5t43.5 -102.5q0 -103 -164 -218l-99 -69q-31 -22 -52 -30q1 0 10.5 1t23 1.5t23.5 0.5h173l18 61h49l-20 -118h-389z" />
    <glyph glyph-name="three" unicode="3" horiz-adv-x="484" 
d="M202 -103q-74 0 -128 34t-82 92l59 30q43 -97 150 -97q68 0 111 38.5t43 107.5q0 61 -39.5 92t-103.5 31q-45 0 -81 -17l-12 19l198 188l43 34q-35 -1 -57 -1h-169l-18 -66h-51l22 122h372l-8 -39l-170 -157q-8 -7 -18 -15t-17 -13l-6 -5q76 3 130.5 -45.5t54.5 -127.5
q0 -92 -62 -148.5t-161 -56.5z" />
    <glyph glyph-name="four" unicode="4" horiz-adv-x="507" 
d="M215 -44h81l15 88h-320l10 45l406 417h50l-71 -409h73l-9 -53h-74l-15 -88h76l-9 -52h-222zM320 97l44 256l14 55q-18 -24 -42 -49l-213 -223q-9 -9 -20.5 -19t-19.5 -16.5t-9 -7.5q16 4 54 4h192z" />
    <glyph glyph-name="five" unicode="5" horiz-adv-x="479" 
d="M447 504l-21 -120h-50l3 63h-218l-32 -183q42 26 104 26q85 0 136 -51.5t51 -132.5q0 -91 -64 -150t-163 -59q-70 0 -121 32t-73 81l59 29q41 -83 136 -83q69 0 112 41t43 108q0 61 -36 94.5t-101 33.5q-85 0 -140 -53l-16 8l56 316h335z" />
    <glyph glyph-name="six" unicode="6" horiz-adv-x="509" 
d="M247 -8q-90 0 -146 55.5t-56 140.5q0 83 78 172l220 250h80l-177 -200q-20 -21 -55 -47q51 28 91 28q82 0 134 -53t52 -136q0 -92 -63 -151t-158 -59zM246 47q67 0 109 43.5t42 111.5q0 62 -35 99.5t-96 37.5q-69 0 -110 -44.5t-41 -110.5q0 -60 35.5 -98.5t95.5 -38.5z
" />
    <glyph glyph-name="seven" unicode="7" horiz-adv-x="440" 
d="M14 -94l345 541h-252l-20 -74h-52l23 131h394l-9 -38l-357 -560h-72z" />
    <glyph glyph-name="eight" unicode="8" horiz-adv-x="517" 
d="M246 -8q-92 0 -150 51t-58 128q0 67 45 113.5t121 60.5q-69 38 -69 113q0 69 52 114.5t129 45.5q74 0 120.5 -41.5t46.5 -102.5q0 -52 -31 -89.5t-84 -52.5q51 -20 77.5 -58.5t26.5 -87.5q0 -89 -64.5 -141.5t-161.5 -52.5zM248 49q68 0 110 38t42 102q0 57 -37 89.5
t-100 32.5q-69 0 -111 -37.5t-42 -101.5q0 -54 37.5 -88.5t100.5 -34.5zM302 365q50 0 80 28.5t31 77.5q0 41 -26.5 66t-72.5 25q-50 0 -80 -29t-31 -77q0 -42 26 -66.5t73 -24.5z" />
    <glyph glyph-name="nine" unicode="9" horiz-adv-x="514" 
d="M97 -94l167 175q20 21 59 51q-40 -23 -87 -23q-80 0 -132 54t-52 136q0 92 63 152.5t157 60.5q91 0 146.5 -55.5t55.5 -141.5q0 -96 -90 -192l-205 -217h-82zM253 162q70 0 110.5 44.5t40.5 110.5q0 60 -36 99t-96 39q-66 0 -107.5 -44.5t-41.5 -111.5q0 -62 34.5 -99.5
t95.5 -37.5z" />
    <glyph glyph-name="colon" unicode=":" horiz-adv-x="230" 
d="M86 -7q-21 0 -36.5 15.5t-15.5 37.5q0 23 15.5 38.5t36.5 15.5t36.5 -15.5t15.5 -38.5q0 -22 -15.5 -37.5t-36.5 -15.5zM125 218q-21 0 -36.5 15t-15.5 38t15.5 38.5t36.5 15.5q22 0 37.5 -15.5t15.5 -38.5t-15.5 -38t-37.5 -15z" />
    <glyph glyph-name="semicolon" unicode=";" horiz-adv-x="249" 
d="M24 -112l56 112q-29 13 -29 48q0 22 15.5 37.5t36.5 15.5q23 0 37.5 -15t14.5 -38q0 -22 -18 -46l-74 -114h-39zM142 218q-21 0 -36.5 15t-15.5 38t15.5 38.5t36.5 15.5q22 0 37.5 -15.5t15.5 -38.5t-15.5 -38t-37.5 -15z" />
    <glyph glyph-name="less" unicode="&#x3c;" horiz-adv-x="354" 
d="M281 93l-242 144v13l294 143l-11 -67l-186 -85l155 -86z" />
    <glyph glyph-name="equal" unicode="=" horiz-adv-x="370" 
d="M33 153l10 60h285l-10 -60h-285zM56 283l10 59h285l-10 -59h-285z" />
    <glyph glyph-name="greater" unicode="&#x3e;" horiz-adv-x="354" 
d="M25 93l12 68l185 84l-155 86l10 62l242 -144v-13z" />
    <glyph glyph-name="question" unicode="?" horiz-adv-x="459" 
d="M166 187l32 176h44q71 0 110 40.5t39 103.5q0 56 -33 89t-88 33q-90 0 -139 -90l-53 29q27 57 78 88.5t116 31.5q86 0 137.5 -49t51.5 -130q0 -87 -58 -143.5t-150 -56.5l-22 -122h-65zM174 -7q-21 0 -36 15.5t-15 37.5t15 37.5t36 15.5t37 -15.5t16 -37.5t-16 -37.5
t-37 -15.5z" />
    <glyph glyph-name="at" unicode="@" horiz-adv-x="876" 
d="M422 -206q-168 0 -273 105.5t-105 269.5q0 181 119.5 299t292.5 118q166 0 269 -100.5t103 -257.5q0 -115 -50 -174t-122 -59q-98 0 -113 84q-23 -41 -59 -64t-79 -23q-77 0 -122 50t-45 129q0 88 55.5 147t132.5 59q50 0 85.5 -28t48.5 -73l19 91h59l-41 -227
q-8 -46 8.5 -70.5t55.5 -24.5q45 0 76 47.5t31 138.5q0 135 -84.5 220.5t-226.5 85.5q-150 0 -249.5 -105t-99.5 -262q0 -143 85.5 -234t228.5 -91q97 0 176 37l21 -46q-78 -42 -197 -42zM416 46q54 0 91 43.5t37 104.5q0 54 -31.5 91t-79.5 37q-55 0 -90 -42t-35 -110
q0 -57 29.5 -90.5t78.5 -33.5z" />
    <glyph glyph-name="A" unicode="A" horiz-adv-x="696" 
d="M-20 0l9 55h63l309 570h-61l9 55h240l-9 -55h-57l104 -570h66l-9 -55h-212l9 55h73l-22 128h-301l-69 -128h75l-9 -55h-208zM220 238h262l-42 235q-20 114 -20 142q-1 -1 -10.5 -20.5t-27 -54t-34.5 -66.5z" />
    <glyph glyph-name="B" unicode="B" horiz-adv-x="600" 
d="M13 0l9 55h63l99 570h-64l9 55h285q81 0 125 -44t44 -109q0 -132 -129 -169q54 -13 86 -52t32 -99q0 -90 -62 -148.5t-176 -58.5h-321zM156 57h174q84 0 127 42t43 113q0 54 -31.5 86t-95.5 32h-170zM213 385h159q63 0 101.5 36t38.5 99q0 45 -27.5 74t-83.5 29h-147z
" />
    <glyph glyph-name="C" unicode="C" horiz-adv-x="725" 
d="M681 483h-58q-11 64 -57.5 104t-133.5 40q-120 0 -202.5 -87t-82.5 -221q0 -118 69 -192t181 -74q131 0 217 102l52 -40q-107 -123 -271 -123q-142 0 -231.5 90.5t-89.5 234.5q0 158 104.5 264.5t254.5 106.5q80 0 133 -31.5t72 -72.5l27 96h52z" />
    <glyph glyph-name="D" unicode="D" horiz-adv-x="687" 
d="M13 0l9 55h63l100 570h-66l10 55h225q144 0 226 -83t82 -217q0 -168 -107 -274t-284 -106h-258zM157 58h105q159 0 243 88t84 232q0 111 -62.5 177.5t-185.5 66.5h-85z" />
    <glyph glyph-name="E" unicode="E" horiz-adv-x="577" 
d="M13 0l9 55h63l100 570h-64l9 55h468l-26 -148h-55l7 90h-268l-44 -251h282l-10 -58h-283l-44 -255h279l29 101h55l-28 -159h-479z" />
    <glyph glyph-name="F" unicode="F" horiz-adv-x="576" 
d="M13 0l9 55h63l100 570h-64l9 55h471l-27 -151h-56l8 93h-270l-48 -268h282l-10 -58h-282l-42 -241h77l-9 -55h-211z" />
    <glyph glyph-name="G" unicode="G" horiz-adv-x="745" 
d="M679 483h-58q-10 63 -57.5 104t-128.5 41q-123 0 -206 -90t-83 -221q0 -117 69.5 -191.5t171.5 -74.5q66 0 120 20.5t80 52.5l26 140h-197l10 59h265l-55 -323h-53l3 60q-84 -68 -208 -68q-126 0 -215 90t-89 230q0 161 105.5 268.5t254.5 107.5q80 0 132.5 -32.5
t71.5 -70.5l24 95h53z" />
    <glyph glyph-name="H" unicode="H" horiz-adv-x="723" 
d="M13 0l9 55h63l99 570h-64l9 55h206l-9 -55h-70l-47 -264h355l46 264h-71l9 55h206l-9 -55h-64l-99 -570h63l-9 -55h-206l9 55h72l43 247h-355l-43 -247h71l-9 -55h-205z" />
    <glyph glyph-name="I" unicode="I" horiz-adv-x="303" 
d="M12 0l10 55h64l99 570h-65l9 55h206l-9 -55h-69l-100 -570h71l-10 -55h-206z" />
    <glyph glyph-name="J" unicode="J" horiz-adv-x="464" 
d="M159 -8q-63 0 -106 29.5t-63 74.5l60 33q38 -75 111 -75q95 0 114 105l82 466h-76l9 55h209l-9 -55h-63l-83 -471q-27 -162 -185 -162z" />
    <glyph glyph-name="K" unicode="K" horiz-adv-x="634" 
d="M661 625h-68l-248 -252l188 -318h61l-9 -55h-191l9 55h50l-160 272l-109 -107l-28 -165h71l-9 -55h-205l9 55h63l99 570h-64l9 55h206l-9 -55h-70l-45 -253q-3 -18 -19 -81q40 49 61 70l263 265h-56l9 54h201z" />
    <glyph glyph-name="L" unicode="L" horiz-adv-x="526" 
d="M13 0l9 55h63l99 570h-64l9 55h208l-9 -55h-72l-99 -566h249l28 109h56l-29 -168h-448z" />
    <glyph glyph-name="M" unicode="M" horiz-adv-x="872" 
d="M13 0l9 55h63l99 570h-64l9 55h141l169 -426l315 426h149l-9 -55h-64l-99 -570h63l-9 -55h-206l9 55h72l77 441q11 66 18 94q-15 -25 -57 -82l-262 -350h-27l-138 342q-18 44 -32 92q0 -1 -1.5 -14.5t-5 -36.5t-6.5 -45l-77 -441h75l-9 -55h-202z" />
    <glyph glyph-name="N" unicode="N" horiz-adv-x="750" 
d="M12 0l10 55h63l99 570h-67l9 55h133l268 -510q23 -45 29 -71q0 29 8 76l79 450h-69l9 55h196l-9 -55h-63l-109 -625h-56l-269 510q-30 56 -35 79q0 -33 -13 -101l-76 -433h74l-9 -55h-202z" />
    <glyph glyph-name="O" unicode="O" horiz-adv-x="786" 
d="M397 54q123 0 206 90t83 223q0 115 -69 187.5t-182 72.5q-122 0 -205.5 -89.5t-83.5 -221.5q0 -116 69 -189t182 -73zM393 -8q-137 0 -228 89.5t-91 229.5q0 162 105 269.5t259 107.5q137 0 228.5 -89t91.5 -229q0 -163 -105 -270.5t-260 -107.5z" />
    <glyph glyph-name="P" unicode="P" horiz-adv-x="594" 
d="M13 0l9 55h63l99 570h-64l9 55h231q107 0 166.5 -49.5t60.5 -140.5q0 -107 -71 -168.5t-196 -61.5h-128l-36 -205h76l-9 -55h-210zM201 317h121q93 0 142 44t49 125q0 66 -41.5 101.5t-120.5 35.5h-95z" />
    <glyph glyph-name="Q" unicode="Q" horiz-adv-x="786" 
d="M637 0l-47 52q-83 -60 -197 -60q-137 0 -228 89.5t-91 229.5q0 162 105 269.5t259 107.5q137 0 228.5 -89t91.5 -228q0 -171 -117 -280l33 -36h85l-9 -55h-113zM397 53q86 0 154 43l-103 115l50 39l102 -114q86 89 86 232q0 115 -69 187t-182 72q-122 0 -205.5 -89.5
t-83.5 -221.5q0 -116 69 -189.5t182 -73.5z" />
    <glyph glyph-name="R" unicode="R" horiz-adv-x="628" 
d="M13 0l9 55h63l99 570h-64l9 55h239q104 0 163 -49t59 -140q0 -81 -44 -134.5t-124 -75.5l107 -226h67l-9 -55h-110l-129 272q-16 -1 -32 -1h-123l-37 -216h72l-9 -55h-206zM203 327h123q92 0 141.5 41.5t49.5 120.5q0 64 -39.5 99t-115.5 35h-106z" />
    <glyph glyph-name="S" unicode="S" horiz-adv-x="535" 
d="M270 -8q-131 0 -177 89l-27 -81h-51l33 191h60q10 -70 53 -105t106 -35t101.5 34t38.5 87q0 44 -23.5 74.5t-81.5 67.5l-48 30q-60 38 -88.5 78t-28.5 102q0 71 53 117.5t125 46.5q104 0 141 -72l18 64h51l-29 -170h-58q-12 121 -121 120q-48 -1 -79.5 -28.5t-31.5 -72.5
q0 -42 20.5 -69t71.5 -59l46 -28q70 -44 101.5 -88.5t31.5 -106.5q0 -81 -57 -133.5t-150 -52.5z" />
    <glyph glyph-name="T" unicode="T" horiz-adv-x="570" 
d="M142 0l9 55h70l100 568h-152l-26 -101h-52l29 158h493l-27 -158h-52l10 101h-152l-100 -568h70l-9 -55h-211z" />
    <glyph glyph-name="U" unicode="U" horiz-adv-x="675" 
d="M320 -8q-114 0 -178 68t-42 191l65 374h-65l9 55h205l-9 -55h-68l-66 -376q-17 -96 25.5 -147t126.5 -51q74 0 118.5 38t59.5 123l72 413h-70l9 55h203l-9 -55h-65l-73 -418q-37 -215 -248 -215z" />
    <glyph glyph-name="V" unicode="V" horiz-adv-x="683" 
d="M280 0l-130 625h-60l9 55h212l-9 -55h-79l87 -435q11 -56 11 -93l6 13q6 14 16 35.5t19 38.5l245 441h-81l10 55h208l-10 -55h-56l-350 -625h-48z" />
    <glyph glyph-name="W" unicode="W" horiz-adv-x="993" 
d="M233 0l-78 625h-52l9 55h196l-9 -55h-72l50 -422q3 -26 3 -89q30 76 37 88l241 478h40l79 -477q2 -15 4.5 -36t4.5 -35.5t2 -16.5q8 38 30 87l192 423h-78l9 55h194l-9 -55h-46l-286 -625h-51l-76 468l-9 89l-2 -6q-3 -6 -6.5 -15.5t-8 -20t-10 -22.5t-10.5 -21
l-239 -472h-49z" />
    <glyph glyph-name="X" unicode="X" horiz-adv-x="667" 
d="M-12 0l9 55h58l255 313l-124 257h-61l9 55h191l-9 -55h-53l80 -170q5 -10 9.5 -22.5t7.5 -20.5l2 -8q0 1 4 8t11.5 18.5t16.5 21.5l141 173h-60l10 55h192l-9 -55h-59l-217 -261l152 -309h66l-9 -55h-201l9 55h57l-103 219q-19 38 -19 51l-4 -7q-5 -7 -13.5 -19
t-16.5 -23l-180 -221h66l-9 -55h-199z" />
    <glyph glyph-name="Y" unicode="Y" horiz-adv-x="625" 
d="M165 0l9 55h72l35 198l-140 372h-57l10 55h197l-9 -55h-65l96 -262q4 -11 8 -26t6.5 -24t2.5 -10q0 8 35 57l189 265h-71l10 55h199l-9 -55h-54l-279 -381l-32 -189h72l-9 -55h-216z" />
    <glyph glyph-name="Z" unicode="Z" horiz-adv-x="578" 
d="M6 0l6 42l486 582h-295l-25 -94h-56l26 150h453l-7 -40l-489 -584h340l29 107h55l-29 -163h-494z" />
    <glyph glyph-name="bracketleft" unicode="[" horiz-adv-x="306" 
d="M12 -128l150 850h191l-10 -55h-122l-130 -740h122l-10 -55h-191z" />
    <glyph glyph-name="backslash" unicode="\" horiz-adv-x="401" 
d="M266 -128l-150 850h65l150 -850h-65z" />
    <glyph glyph-name="bracketright" unicode="]" horiz-adv-x="306" 
d="M-26 -128l10 55h122l130 740h-122l10 55h192l-150 -850h-192z" />
    <glyph glyph-name="asciicircum" unicode="^" horiz-adv-x="379" 
d="M89 463l173 225h10l96 -225h-55l-61 129l-104 -129h-59z" />
    <glyph glyph-name="underscore" unicode="_" horiz-adv-x="299" 
d="M-10 -127l10 58h258l-10 -58h-258z" />
    <glyph glyph-name="grave" unicode="`" horiz-adv-x="414" 
d="M246 498l-87 193h80l61 -193h-54z" />
    <glyph glyph-name="a" unicode="a" horiz-adv-x="542" 
d="M216 -8q-75 0 -122 54t-47 141q0 103 61 169.5t146 66.5q55 0 96 -30t54 -80l27 101h60l-57 -328q-6 -32 19 -32h38l-9 -54h-46q-42 0 -57.5 21t-10.5 51l2 12q-56 -92 -154 -92zM234 48q65 0 109 49.5t44 125.5q0 62 -34 102.5t-89 40.5q-66 0 -107 -50.5t-41 -128.5
q0 -63 32 -101t86 -38z" />
    <glyph glyph-name="b" unicode="b" horiz-adv-x="545" 
d="M293 -8q-61 0 -105 32t-58 88l-26 -112h-58l116 668h-69l10 54h137l-69 -387q56 88 155 88q77 0 125.5 -55t48.5 -144q0 -100 -61 -166t-146 -66zM276 47q69 0 111.5 51t42.5 129q0 63 -33 101.5t-89 38.5q-67 0 -112.5 -49t-45.5 -125q0 -64 34 -105t92 -41z" />
    <glyph glyph-name="c" unicode="c" horiz-adv-x="467" 
d="M246 -8q-86 0 -143.5 57.5t-57.5 145.5q0 99 63.5 163.5t152.5 64.5q85 0 119 -58l15 49h48l-23 -130h-51q-16 82 -104 82q-66 0 -108 -49t-42 -122q0 -63 38 -105t99 -42q67 0 110 43l39 -43q-62 -56 -155 -56z" />
    <glyph glyph-name="d" unicode="d" horiz-adv-x="555" 
d="M220 -8q-78 0 -125.5 55t-47.5 140q0 104 62 171t150 65q60 -1 101 -31.5t53 -80.5l65 357h-72l10 54h139l-112 -636q-6 -32 19 -32h38l-9 -54h-46q-42 0 -57.5 21.5t-10.5 51.5l2 11q-25 -43 -68 -67.5t-91 -24.5zM239 48q66 0 111 48.5t46 123.5q1 64 -34 105t-93 41
q-68 0 -110 -49.5t-43 -126.5q0 -64 33 -103t90 -39z" />
    <glyph glyph-name="e" unicode="e" 
d="M252 -8q-91 0 -149 57.5t-58 146.5q0 97 65 162t156 65q96 0 148 -67t41 -168h-340q0 -63 38.5 -102t100.5 -39q82 0 131 52l39 -40q-65 -67 -172 -67zM264 369q-56 0 -96 -36t-51 -94h272q-2 59 -34 94.5t-91 35.5z" />
    <glyph glyph-name="f" unicode="f" horiz-adv-x="310" 
d="M-54 -212l9 52h30q22 0 36 14.5t21 54.5l80 451h-66l9 54h66l34 193q23 128 127 128q64 0 99 -51l-43 -39q-20 32 -53 32q-25 0 -40 -15.5t-22 -55.5l-34 -192h107l-9 -54h-107l-81 -458q-12 -67 -40.5 -90.5t-81.5 -23.5h-41z" />
    <glyph glyph-name="g" unicode="g" horiz-adv-x="554" 
d="M203 -223q-72 0 -122 29.5t-74 77.5l49 37q48 -86 144 -86q124 0 152 142l20 98q-57 -83 -152 -83q-78 0 -125.5 54.5t-47.5 141.5q0 102 61.5 168.5t150.5 66.5q58 0 100 -31.5t55 -86.5l17 109h124l-9 -55h-57l-68 -386q-35 -196 -218 -196zM239 48q67 0 111.5 49
t45.5 126q0 62 -34.5 102.5t-92.5 40.5q-68 0 -110 -49.5t-42 -126.5q0 -65 32.5 -103.5t89.5 -38.5z" />
    <glyph glyph-name="h" unicode="h" horiz-adv-x="521" 
d="M48 0l116 668h-69l10 54h137l-67 -383q53 84 144 84q70 0 108 -50t23 -134l-27 -153q-6 -32 19 -32h38l-9 -54h-46q-46 0 -61.5 22.5t-7.5 69.5l25 144q11 60 -11.5 94.5t-74.5 34.5q-55 0 -91 -34.5t-47 -97.5l-41 -233h-68z" />
    <glyph glyph-name="i" unicode="i" horiz-adv-x="247" 
d="M136 0q-45 0 -61 22t-8 70l47 267h-68l9 55h137l-58 -328q-6 -32 20 -32h40l-9 -54h-49zM188 535q-20 0 -34.5 13.5t-14.5 34.5t14.5 35t34.5 14q19 0 33.5 -14t14.5 -35t-14.5 -34.5t-33.5 -13.5z" />
    <glyph glyph-name="j" unicode="j" horiz-adv-x="234" 
d="M-14 -222q-60 0 -91 39l43 41q21 -25 46 -25q20 0 31.5 13t17.5 45l82 468h-68l9 55h137l-92 -521q-19 -115 -115 -115zM189 535q-20 0 -34.5 13.5t-14.5 34.5t14.5 35t34.5 14q19 0 33.5 -14t14.5 -35t-14.5 -34.5t-33.5 -13.5z" />
    <glyph glyph-name="k" unicode="k" horiz-adv-x="478" 
d="M48 0l116 668h-69l10 54h137l-84 -478q-8 -42 -14 -59l193 174h-58l9 55h179l-9 -55h-50l-136 -127l89 -156q13 -22 36 -22h31l-9 -54h-37q-29 0 -45.5 9.5t-31.5 37.5l-84 145l-84 -74l-21 -118h-68z" />
    <glyph glyph-name="l" unicode="l" horiz-adv-x="244" 
d="M130 0q-45 0 -61 22t-8 70l102 576h-69l9 54h138l-113 -636q-6 -32 19 -32h45l-9 -54h-53z" />
    <glyph glyph-name="m" unicode="m" horiz-adv-x="763" 
d="M52 0l62 359h-67l9 55h135l-13 -74q49 83 134 83q43 0 71.5 -24t39.5 -65q50 89 149 89q68 0 102 -50.5t19 -133.5l-27 -153q-5 -32 19 -32h38l-9 -54h-46q-45 0 -61.5 22.5t-7.5 69.5l25 144q23 129 -72 129q-101 0 -125 -132l-41 -233h-68l41 236q24 129 -71 129
q-51 0 -83.5 -34t-43.5 -98l-41 -233h-68z" />
    <glyph glyph-name="n" unicode="n" horiz-adv-x="525" 
d="M52 0l62 359h-67l9 55h135l-13 -75q54 84 145 84q70 0 108 -50t23 -134l-27 -153q-6 -32 20 -32h37l-9 -54h-46q-45 0 -61 22.5t-8 69.5l25 144q11 60 -11 94.5t-74 34.5q-114 0 -139 -132l-41 -233h-68z" />
    <glyph glyph-name="o" unicode="o" horiz-adv-x="521" 
d="M253 47q68 0 110.5 48.5t42.5 122.5q0 65 -37.5 107t-99.5 42q-67 0 -111 -48.5t-44 -122.5q0 -65 38.5 -107t100.5 -42zM252 -8q-88 0 -147.5 59t-59.5 145q0 96 66 161.5t160 65.5q87 0 146 -59.5t59 -145.5q0 -97 -65 -161.5t-159 -64.5z" />
    <glyph glyph-name="p" unicode="p" horiz-adv-x="552" 
d="M-48 -212l9 52h63l91 519h-68l9 55h135l-16 -84q26 44 67.5 68.5t89.5 24.5q78 0 126.5 -55t48.5 -144q0 -100 -60.5 -166t-146.5 -66q-61 0 -104.5 31.5t-56.5 81.5l-47 -265h71l-9 -52h-202zM283 47q68 0 111 51t43 129q0 63 -33.5 101.5t-89.5 38.5q-67 0 -112 -49
t-45 -125q0 -64 34 -105t92 -41z" />
    <glyph glyph-name="q" unicode="q" horiz-adv-x="557" 
d="M407 -212q-45 0 -61 22t-8 70l35 195q-56 -83 -154 -83q-76 0 -124 55t-48 139q0 105 62 171t152 66q56 0 99.5 -32t56.5 -86l15 109h125l-10 -55h-56l-86 -487q-6 -32 19 -32h38l-9 -52h-46zM239 47q67 0 112 49.5t46 126.5q0 62 -35 103t-92 41q-69 0 -111 -50.5
t-42 -129.5q0 -62 33 -101t89 -39z" />
    <glyph glyph-name="r" unicode="r" horiz-adv-x="353" 
d="M52 0l63 359h-68l9 55h133l-16 -89q43 97 128 97q28 0 50 -12l-23 -62q-21 12 -43 12q-49 0 -81.5 -37t-45.5 -106l-38 -217h-68z" />
    <glyph glyph-name="s" unicode="s" horiz-adv-x="411" 
d="M203 -8q-92 0 -128 54l-14 -46h-47l23 129h53q4 -44 34 -64t75 -20q38 0 61.5 16.5t23.5 46.5q0 26 -19.5 41.5t-73.5 38.5q-58 25 -85 53t-27 70q0 53 38.5 82.5t93.5 29.5q77 0 107 -49l11 40h46l-19 -112h-49q-14 68 -90 68q-34 0 -54 -13.5t-20 -38.5
q0 -24 17.5 -38.5t68.5 -36.5q65 -28 93.5 -53.5t28.5 -73.5q0 -57 -38.5 -90.5t-109.5 -33.5z" />
    <glyph glyph-name="t" unicode="t" horiz-adv-x="318" 
d="M169 -8q-53 0 -80.5 33.5t-15.5 102.5l41 232h-61l9 54h62l25 146h68l-26 -146h112l-9 -54h-112l-42 -235q-14 -78 40 -78q28 0 56 24l29 -44q-39 -35 -96 -35z" />
    <glyph glyph-name="u" unicode="u" horiz-adv-x="524" 
d="M201 -9q-70 0 -107.5 50t-23.5 132l32 186h-59l9 55h128l-42 -236q-11 -61 11.5 -95t74.5 -34q55 0 91 34.5t47 97.5l33 178h-65l9 55h133l-58 -328q-6 -32 19 -32h39l-10 -54h-46q-77 0 -68 75l1 7q-54 -91 -148 -91z" />
    <glyph glyph-name="v" unicode="v" horiz-adv-x="485" 
d="M309 359l9 55h168l-9 -55h-43l-216 -359h-41l-101 359h-46l9 55h175l-9 -55h-59l55 -216q10 -40 10 -64q9 32 29 63l128 217h-59z" />
    <glyph glyph-name="w" unicode="w" horiz-adv-x="716" 
d="M537 359l9 55h169l-9 -55h-46l-186 -359h-52l-49 253q-7 43 -7 69l-4 -10q-4 -11 -11 -27t-13 -28l-140 -257h-54l-65 359h-49l9 55h176l-9 -55h-62l36 -219q6 -36 6 -66q7 29 29 68l146 272h40l52 -265q8 -51 8 -75q8 34 27 68l111 217h-62z" />
    <glyph glyph-name="x" unicode="x" horiz-adv-x="543" 
d="M14 0l9 54h52l156 170l-79 135h-62l10 55h175l-9 -52h-42l47 -84l18 -34q15 20 26 33l77 85h-45l9 52h168l-10 -55h-57l-130 -145l91 -160h55l-9 -54h-176l9 52h48l-55 101l-22 40q-17 -22 -31 -37l-94 -104h45l-9 -52h-165z" />
    <glyph glyph-name="y" unicode="y" horiz-adv-x="494" 
d="M-28 -212l9 52h78l117 195l-95 324h-51l9 55h177l-9 -55h-56l61 -212q8 -29 8 -59q8 29 27 57l127 214h-57l9 55h169l-9 -55h-47l-343 -571h-124z" />
    <glyph glyph-name="z" unicode="z" horiz-adv-x="455" 
d="M12 0l7 39l317 322h-187l-17 -64h-47l21 117h332l-7 -41l-319 -321h211l19 69h48l-21 -121h-357z" />
    <glyph glyph-name="braceleft" unicode="{" horiz-adv-x="362" 
d="M204 -128q-134 0 -109 149l33 183q6 40 -4 54.5t-39 14.5h-59l10 55h56q30 0 46.5 16t23.5 55l35 192q14 77 49.5 104t90.5 27h72l-10 -53h-54q-34 0 -52 -16.5t-26 -63.5l-35 -197q-8 -45 -28.5 -65t-58.5 -26q67 -14 52 -99l-32 -188q-9 -50 4.5 -69t47.5 -19h51
l-9 -54h-55z" />
    <glyph glyph-name="bar" unicode="|" horiz-adv-x="234" 
d="M27 -128l150 850h63l-150 -850h-63z" />
    <glyph glyph-name="braceright" unicode="}" horiz-adv-x="362" 
d="M-27 -128l9 53h54q35 0 53 16.5t26 63.5l35 205q8 44 28.5 64t58.5 26q-67 14 -52 99l32 181q9 50 -4.5 69t-47.5 19h-52l10 54h54q136 0 109 -149l-32 -176q-6 -40 4 -54.5t39 -14.5h59l-10 -55h-56q-29 0 -46 -16t-24 -54l-36 -200q-13 -76 -48.5 -103.5t-90.5 -27.5
h-72z" />
    <glyph glyph-name="asciitilde" unicode="~" horiz-adv-x="358" 
d="M94 223l-51 7q20 110 92 110q26 0 63 -31q3 -3 9.5 -8.5t9.5 -8t7.5 -6t7 -5t6.5 -2.5t7 -1q15 0 24 13t17 48l51 -6q-18 -110 -92 -110q-31 0 -64 31q-4 3 -11 9.5t-10 9t-8 6t-9 4.5t-8 1q-15 0 -24 -13t-17 -48z" />
    <glyph glyph-name="uni00A0" unicode="&#xa0;" horiz-adv-x="181" 
 />
    <glyph glyph-name="exclamdown" unicode="&#xa1;" horiz-adv-x="236" 
d="M154 473q21 0 36.5 -15.5t15.5 -37.5t-15.5 -37.5t-36.5 -15.5t-36.5 15.5t-15.5 37.5t15.5 37.5t36.5 15.5zM156 276l-77 -490h-77l101 490h53z" />
    <glyph glyph-name="cent" unicode="&#xa2;" horiz-adv-x="458" 
d="M165 -116l20 116q-64 18 -103 71t-39 124q0 99 63 163.5t153 64.5h1l19 106h49l-20 -113q47 -13 70 -51l15 49h48l-23 -130h-50q-14 65 -69 79l-56 -316h4q74 0 113 44l39 -43q-62 -56 -155 -56h-10l-19 -108h-50zM111 195q0 -49 22.5 -86t61.5 -53l55 312
q-62 -4 -100.5 -53t-38.5 -120z" />
    <glyph glyph-name="sterling" unicode="&#xa3;" horiz-adv-x="564" 
d="M115 -8q-46 0 -73.5 25t-27.5 63q0 42 29 66t74 24q44 0 85 -30q1 7 1 22q-1 33 -9 101h-96l9 49h78q-10 65 -10 115q0 89 53 140t138 51q46 0 78 -19t46 -49l15 60h48l-28 -168h-48q-2 55 -28 87t-80 32q-59 0 -92 -34.5t-33 -103.5q0 -37 8 -111h157l-9 -49h-142
q6 -64 6 -102q0 -28 -8 -57q69 -55 114 -55q53 0 93 45l41 -41q-52 -61 -135 -61q-64 0 -138 64q-39 -64 -116 -64zM118 38q50 0 74 49q-42 35 -73 35q-22 0 -36 -11.5t-14 -30.5t13.5 -30.5t35.5 -11.5z" />
    <glyph glyph-name="yen" unicode="&#xa5;" horiz-adv-x="542" 
d="M135 0l10 54h58l15 91h-173l9 49h163l-25 65h-127l9 49h99l-54 141h-58l10 55h180l-11 -55h-49l58 -162q4 -14 8 -31t6 -28t2 -12q23 45 40 69l121 164h-53l13 55h174l-11 -55h-50l-107 -141h98l-9 -50h-128l-47 -64h164l-9 -49h-175l-15 -91h56l-10 -54h-182z" />
    <glyph glyph-name="section" unicode="&#xa7;" horiz-adv-x="491" 
d="M215 -103q-54 0 -89 21.5t-49 52.5l-17 -65h-46l30 166h47q2 -58 31 -90t86 -32q49 0 75.5 21.5t26.5 60.5q0 30 -17 48.5t-57 36.5l-78 35q-56 26 -82 58t-26 81q0 44 29 77.5t71 43.5q-15 28 -15 62q0 60 44.5 102t113.5 42q39 0 69.5 -17.5t41.5 -44.5l16 55h44
l-26 -153h-47q-2 50 -27 79t-68 29q-45 0 -69.5 -25t-24.5 -64q0 -56 65 -86l85 -38q106 -46 106 -131q0 -91 -97 -121q18 -29 18 -64q0 -64 -45 -102t-119 -38zM332 136q61 21 61 74q0 51 -70 83l-85 39q-46 21 -64 45q-59 -23 -59 -77q0 -31 16 -50.5t54 -36.5l78 -36
q48 -20 69 -41z" />
    <glyph glyph-name="dieresis" unicode="&#xa8;" horiz-adv-x="467" 
d="M368 516q-18 0 -32 13.5t-14 32.5t14 32.5t32 13.5q19 0 32.5 -13.5t13.5 -32.5t-13.5 -32.5t-32.5 -13.5zM196 516q-18 0 -32 13.5t-14 32.5t14 32.5t32 13.5q19 0 32.5 -13.5t13.5 -32.5t-13.5 -32.5t-32.5 -13.5z" />
    <glyph glyph-name="copyright" unicode="&#xa9;" horiz-adv-x="596" 
d="M304 102q-62 0 -105 43t-43 106q0 64 42 107.5t100 43.5q64 0 86 -42l11 32h37l-18 -104h-39q-6 63 -68 63q-39 0 -64.5 -28.5t-25.5 -71.5q0 -42 25.5 -70.5t63.5 -28.5q47 0 76 39l39 -35q-45 -54 -117 -54zM304 33q92 0 154.5 62t62.5 157q0 96 -62.5 158t-154.5 62
q-93 0 -155.5 -62t-62.5 -158q0 -95 63 -157t155 -62zM304 -7q-108 0 -184.5 74.5t-76.5 184.5q0 111 76.5 185.5t184.5 74.5q107 0 183 -74.5t76 -185.5q0 -110 -76 -184.5t-183 -74.5z" />
    <glyph glyph-name="ordfeminine" unicode="&#xaa;" horiz-adv-x="472" 
d="M206 146q-65 0 -106 44.5t-41 120.5q0 88 52.5 144.5t126.5 56.5q47 0 82 -25.5t46 -68.5l21 86h53l-48 -276q-5 -28 18 -28h31l-8 -47h-41q-33 0 -48.5 16.5t-11.5 43.5l1 7q-50 -74 -127 -74zM222 197q54 0 90 40.5t36 102.5q0 53 -27 86.5t-75 33.5q-55 0 -89.5 -40.5
t-34.5 -105.5q0 -52 26.5 -84.5t73.5 -32.5z" />
    <glyph glyph-name="guillemotleft" unicode="&#xab;" horiz-adv-x="406" 
d="M112 37l-66 154l1 8l119 162h73l-125 -168l68 -156h-70zM262 37l-66 154l1 8l119 162h73l-125 -168l67 -156h-69z" />
    <glyph glyph-name="registered" unicode="&#xae;" horiz-adv-x="515" 
d="M194 368l6 32h23l30 167h-26l6 31h102q39 0 60 -19.5t21 -49.5q0 -57 -58 -72l26 -57h25l-6 -32h-50l-36 83h-42l-9 -51h20l-6 -32h-86zM281 482h40q54 0 54 44q0 41 -47 41h-32zM307 299q79 0 129.5 49.5t50.5 130.5q0 82 -50 131.5t-130 49.5q-78 0 -127 -49.5
t-49 -131.5q0 -81 49 -130.5t127 -49.5zM307 265q-90 0 -153 61t-63 153t63 153.5t153 61.5q91 0 155 -61t64 -154q0 -92 -64 -153t-155 -61z" />
    <glyph glyph-name="macron" unicode="&#xaf;" horiz-adv-x="485" 
d="M187 516l10 54h210l-10 -54h-210z" />
    <glyph glyph-name="degree" unicode="&#xb0;" horiz-adv-x="298" 
d="M162 329q30 0 48.5 21t18.5 54q0 30 -16.5 47.5t-44.5 17.5q-29 0 -48 -21.5t-19 -53.5q0 -29 16.5 -47t44.5 -18zM162 286q-47 0 -79.5 31.5t-32.5 77.5q0 50 35 83.5t84 33.5q48 0 80 -31.5t32 -77.5q0 -50 -35 -83.5t-84 -33.5z" />
    <glyph glyph-name="acute" unicode="&#xb4;" horiz-adv-x="265" 
d="M61 498l98 193h84l-127 -193h-55z" />
    <glyph glyph-name="paragraph" unicode="&#xb6;" horiz-adv-x="548" 
d="M218 0l56 313h-7q-82 0 -128 48t-46 121q0 84 57.5 141t148.5 57h237l-120 -680h-58l111 628h-82l-111 -628h-58z" />
    <glyph glyph-name="periodcentered" unicode="&#xb7;" horiz-adv-x="200" 
d="M107 189q-21 0 -37.5 16t-16.5 39t16 38.5t38 15.5t38 -15.5t16 -38.5t-16 -39t-38 -16z" />
    <glyph glyph-name="cedilla" unicode="&#xb8;" horiz-adv-x="497" 
d="M195 0h50l-9 -53q30 -6 50 -29t20 -58q0 -42 -28.5 -67t-68.5 -25q-38 0 -64.5 17t-37.5 43l45 26q18 -39 55 -39q20 0 31.5 12t11.5 33q0 45 -54 45h-17z" />
    <glyph glyph-name="ordmasculine" unicode="&#xba;" horiz-adv-x="453" 
d="M234 146q-76 0 -125.5 50.5t-49.5 124.5q0 81 56 136t136 55q76 0 125 -50.5t49 -124.5q0 -81 -55 -136t-136 -55zM236 197q55 0 89.5 40t34.5 101q0 52 -30.5 87t-79.5 35q-56 0 -91 -40t-35 -101q0 -53 31 -87.5t81 -34.5z" />
    <glyph glyph-name="guillemotright" unicode="&#xbb;" horiz-adv-x="407" 
d="M20 37l125 169l-68 155h70l66 -153l-1 -8l-119 -163h-73zM170 37l125 169l-68 155h70l66 -153l-2 -8l-118 -163h-73z" />
    <glyph glyph-name="questiondown" unicode="&#xbf;" horiz-adv-x="464" 
d="M301 279l-32 -176h-44q-71 0 -110 -40.5t-39 -103.5q0 -56 33 -89t88 -33q90 0 139 90l53 -29q-27 -57 -78 -88.5t-116 -31.5q-86 0 -137.5 49t-51.5 130q0 87 58 143.5t150 56.5l22 122h65zM293 473q21 0 36 -15.5t15 -37.5t-15 -37.5t-36 -15.5t-37 15.5t-16 37.5
t16 37.5t37 15.5z" />
    <glyph glyph-name="Agrave" unicode="&#xc0;" horiz-adv-x="696" 
d="M-20 0l9 55h63l309 570h-61l9 55h240l-9 -55h-57l104 -570h66l-9 -55h-212l9 55h73l-22 128h-301l-69 -128h75l-9 -55h-208zM220 238h262l-42 235q-20 114 -20 142q-1 -1 -10.5 -20.5t-27 -54t-34.5 -66.5zM415 756l-87 193h80l61 -193h-54z" />
    <glyph glyph-name="Aacute" unicode="&#xc1;" horiz-adv-x="696" 
d="M-20 0l9 55h63l309 570h-61l9 55h240l-9 -55h-57l104 -570h66l-9 -55h-212l9 55h73l-22 128h-301l-69 -128h75l-9 -55h-208zM220 238h262l-42 235q-20 114 -20 142q-1 -1 -10.5 -20.5t-27 -54t-34.5 -66.5zM411 756l98 193h84l-127 -193h-55z" />
    <glyph glyph-name="Acircumflex" unicode="&#xc2;" horiz-adv-x="696" 
d="M-20 0l9 55h63l309 570h-61l9 55h240l-9 -55h-57l104 -570h66l-9 -55h-212l9 55h73l-22 128h-301l-69 -128h75l-9 -55h-208zM220 238h262l-42 235q-20 114 -20 142q-1 -1 -10.5 -20.5t-27 -54t-34.5 -66.5zM309 754l159 193h9l96 -193h-57l-55 104l-91 -104h-61z" />
    <glyph glyph-name="Atilde" unicode="&#xc3;" horiz-adv-x="696" 
d="M-20 0l9 55h63l309 570h-61l9 55h240l-9 -55h-57l104 -570h66l-9 -55h-212l9 55h73l-22 128h-301l-69 -128h75l-9 -55h-208zM220 238h262l-42 235q-20 114 -20 142q-1 -1 -10.5 -20.5t-27 -54t-34.5 -66.5zM354 750l-51 6q19 110 93 110q28 0 63 -31q3 -3 9.5 -8.5
t9 -7.5t7 -5.5t7.5 -5t6.5 -2.5t7.5 -1q15 0 24 13t17 48l51 -7q-18 -110 -92 -110q-29 0 -64 31q-2 2 -7 6.5t-7 6.5t-5.5 5t-5.5 4t-5 3t-5.5 3t-5 1.5t-5.5 0.5q-14 0 -23.5 -13t-18.5 -47z" />
    <glyph glyph-name="Adieresis" unicode="&#xc4;" horiz-adv-x="696" 
d="M-20 0l9 55h63l309 570h-61l9 55h240l-9 -55h-57l104 -570h66l-9 -55h-212l9 55h73l-22 128h-301l-69 -128h75l-9 -55h-208zM220 238h262l-42 235q-20 114 -20 142q-1 -1 -10.5 -20.5t-27 -54t-34.5 -66.5zM539 774q-18 0 -32 13.5t-14 32.5t14 32.5t32 13.5
q19 0 32.5 -13.5t13.5 -32.5t-13.5 -32.5t-32.5 -13.5zM367 774q-18 0 -32 13.5t-14 32.5t14 32.5t32 13.5q19 0 32.5 -13.5t13.5 -32.5t-13.5 -32.5t-32.5 -13.5z" />
    <glyph glyph-name="Aring" unicode="&#xc5;" horiz-adv-x="696" 
d="M-20 0l9 55h63l309 570h-61l9 55h240l-9 -55h-57l104 -570h66l-9 -55h-212l9 55h73l-22 128h-301l-69 -128h75l-9 -55h-208zM220 238h262l-42 235q-20 114 -20 142q-1 -1 -10.5 -20.5t-27 -54t-34.5 -66.5zM449 742q-44 0 -74.5 29.5t-30.5 70.5q0 42 30.5 71.5
t74.5 29.5q43 0 73.5 -29.5t30.5 -71.5q0 -41 -30.5 -70.5t-73.5 -29.5zM449 783q24 0 39.5 16t15.5 43t-15.5 43t-39.5 16q-25 0 -40.5 -16t-15.5 -43t15.5 -43t40.5 -16z" />
    <glyph glyph-name="AE" unicode="&#xc6;" horiz-adv-x="946" 
d="M-7 0l9 55h55l434 570h-57l9 55h523l-26 -148h-55l7 90h-271l-44 -251h286l-10 -58h-286l-45 -255h282l30 101h55l-28 -159h-480l9 55h61l19 106h-259l-79 -106h77l-9 -55h-207zM254 217h225l55 304q3 18 22 105q-23 -39 -54 -79z" />
    <glyph glyph-name="Ccedilla" unicode="&#xc7;" horiz-adv-x="725" 
d="M681 483h-58q-11 64 -57.5 104t-133.5 40q-120 0 -202.5 -87t-82.5 -221q0 -118 69 -192t181 -74q131 0 217 102l52 -40q-107 -123 -271 -123q-20 0 -40 2l-8 -47q30 -6 50 -29t20 -58q0 -42 -28.5 -67t-68.5 -25q-38 0 -64.5 17t-37.5 43l45 26q18 -39 55 -39
q20 0 31.5 12t11.5 33q0 45 -54 45h-17l16 97q-106 26 -169 110.5t-63 204.5q0 158 104.5 264.5t254.5 106.5q80 0 133 -31.5t72 -72.5l27 96h52z" />
    <glyph glyph-name="Egrave" unicode="&#xc8;" horiz-adv-x="577" 
d="M13 0l9 55h63l100 570h-64l9 55h468l-26 -148h-55l7 90h-268l-44 -251h282l-10 -58h-283l-44 -255h279l29 101h55l-28 -159h-479zM369 756l-87 193h80l61 -193h-54z" />
    <glyph glyph-name="Eacute" unicode="&#xc9;" horiz-adv-x="577" 
d="M357 756l98 193h84l-127 -193h-55zM13 0l9 55h63l100 570h-64l9 55h468l-26 -148h-55l7 90h-268l-44 -251h282l-10 -58h-283l-44 -255h279l29 101h55l-28 -159h-479z" />
    <glyph glyph-name="Ecircumflex" unicode="&#xca;" horiz-adv-x="577" 
d="M253 754l159 193h9l96 -193h-57l-55 104l-91 -104h-61zM13 0l9 55h63l100 570h-64l9 55h468l-26 -148h-55l7 90h-268l-44 -251h282l-10 -58h-283l-44 -255h279l29 101h55l-28 -159h-479z" />
    <glyph glyph-name="Edieresis" unicode="&#xcb;" horiz-adv-x="577" 
d="M483 774q-18 0 -32 13.5t-14 32.5t14 32.5t32 13.5q19 0 32.5 -13.5t13.5 -32.5t-13.5 -32.5t-32.5 -13.5zM311 774q-18 0 -32 13.5t-14 32.5t14 32.5t32 13.5q19 0 32.5 -13.5t13.5 -32.5t-13.5 -32.5t-32.5 -13.5zM13 0l9 55h63l100 570h-64l9 55h468l-26 -148h-55
l7 90h-268l-44 -251h282l-10 -58h-283l-44 -255h279l29 101h55l-28 -159h-479z" />
    <glyph glyph-name="Igrave" unicode="&#xcc;" horiz-adv-x="303" 
d="M12 0l10 55h64l99 570h-65l9 55h206l-9 -55h-69l-100 -570h71l-10 -55h-206zM224 756l-87 193h80l61 -193h-54z" />
    <glyph glyph-name="Iacute" unicode="&#xcd;" horiz-adv-x="303" 
d="M12 0l10 55h64l99 570h-65l9 55h206l-9 -55h-69l-100 -570h71l-10 -55h-206zM216 756l98 193h84l-127 -193h-55z" />
    <glyph glyph-name="Icircumflex" unicode="&#xce;" horiz-adv-x="303" 
d="M12 0l10 55h64l99 570h-65l9 55h206l-9 -55h-69l-100 -570h71l-10 -55h-206zM114 754l159 193h9l96 -193h-57l-55 104l-91 -104h-61z" />
    <glyph glyph-name="Idieresis" unicode="&#xcf;" horiz-adv-x="303" 
d="M12 0l10 55h64l99 570h-65l9 55h206l-9 -55h-69l-100 -570h71l-10 -55h-206zM343 774q-18 0 -32 13.5t-14 32.5t14 32.5t32 13.5q19 0 32.5 -13.5t13.5 -32.5t-13.5 -32.5t-32.5 -13.5zM171 774q-18 0 -32 13.5t-14 32.5t14 32.5t32 13.5q19 0 32.5 -13.5t13.5 -32.5
t-13.5 -32.5t-32.5 -13.5z" />
    <glyph glyph-name="Eth" unicode="&#xd0;" horiz-adv-x="687" 
d="M63 314l9 54h68l45 257h-66l10 55h225q144 0 226 -83t82 -217q0 -168 -107 -274t-284 -106h-258l9 55h63l45 259h-67zM157 58h105q159 0 243 88t84 232q0 111 -62.5 177.5t-185.5 66.5h-85l-45 -254h178l-9 -54h-178z" />
    <glyph glyph-name="Ntilde" unicode="&#xd1;" horiz-adv-x="750" 
d="M12 0l10 55h63l99 570h-67l9 55h133l268 -510q8 -16 15.5 -33.5t10.5 -27.5l3 -10q2 40 8 76l79 450h-69l9 55h196l-9 -55h-63l-109 -625h-56l-269 510q-30 56 -35 79q0 -33 -13 -101l-76 -433h74l-9 -55h-202zM381 750l-51 6q19 110 93 110q28 0 63 -31q3 -3 9.5 -8.5
t9 -7.5t7 -5.5t7.5 -5t6.5 -2.5t7.5 -1q15 0 24 13t17 48l51 -7q-18 -110 -92 -110q-29 0 -64 31q-2 2 -7 6.5t-7 6.5t-5.5 5t-5.5 4t-5 3t-5.5 3t-5 1.5t-5.5 0.5q-14 0 -23.5 -13t-18.5 -47z" />
    <glyph glyph-name="Ograve" unicode="&#xd2;" horiz-adv-x="786" 
d="M397 54q123 0 206 90t83 223q0 115 -69 187.5t-182 72.5q-122 0 -205.5 -89.5t-83.5 -221.5q0 -116 69 -189t182 -73zM393 -8q-137 0 -228 89.5t-91 229.5q0 162 105 269.5t259 107.5q137 0 228.5 -89t91.5 -229q0 -163 -105 -270.5t-260 -107.5zM435 756l-87 193h80
l61 -193h-54z" />
    <glyph glyph-name="Oacute" unicode="&#xd3;" horiz-adv-x="786" 
d="M430 756l98 193h84l-127 -193h-55zM397 54q123 0 206 90t83 223q0 115 -69 187.5t-182 72.5q-122 0 -205.5 -89.5t-83.5 -221.5q0 -116 69 -189t182 -73zM393 -8q-137 0 -228 89.5t-91 229.5q0 162 105 269.5t259 107.5q137 0 228.5 -89t91.5 -229q0 -163 -105 -270.5
t-260 -107.5z" />
    <glyph glyph-name="Ocircumflex" unicode="&#xd4;" horiz-adv-x="786" 
d="M335 754l159 193h9l96 -193h-57l-55 104l-91 -104h-61zM397 54q123 0 206 90t83 223q0 115 -69 187.5t-182 72.5q-122 0 -205.5 -89.5t-83.5 -221.5q0 -116 69 -189t182 -73zM393 -8q-137 0 -228 89.5t-91 229.5q0 162 105 269.5t259 107.5q137 0 228.5 -89t91.5 -229
q0 -163 -105 -270.5t-260 -107.5z" />
    <glyph glyph-name="Otilde" unicode="&#xd5;" horiz-adv-x="786" 
d="M397 54q123 0 206 90t83 223q0 115 -69 187.5t-182 72.5q-122 0 -205.5 -89.5t-83.5 -221.5q0 -116 69 -189t182 -73zM393 -8q-137 0 -228 89.5t-91 229.5q0 162 105 269.5t259 107.5q137 0 228.5 -89t91.5 -229q0 -163 -105 -270.5t-260 -107.5zM369 750l-51 6
q19 110 93 110q28 0 63 -31q3 -3 9.5 -8.5t9 -7.5t7 -5.5t7.5 -5t6.5 -2.5t7.5 -1q15 0 24 13t17 48l51 -7q-18 -110 -92 -110q-29 0 -64 31q-2 2 -7 6.5t-7 6.5t-5.5 5t-5.5 4t-5 3t-5.5 3t-5 1.5t-5.5 0.5q-14 0 -23.5 -13t-18.5 -47z" />
    <glyph glyph-name="Odieresis" unicode="&#xd6;" horiz-adv-x="786" 
d="M554 774q-18 0 -32 13.5t-14 32.5t14 32.5t32 13.5q19 0 32.5 -13.5t13.5 -32.5t-13.5 -32.5t-32.5 -13.5zM382 774q-18 0 -32 13.5t-14 32.5t14 32.5t32 13.5q19 0 32.5 -13.5t13.5 -32.5t-13.5 -32.5t-32.5 -13.5zM397 54q123 0 206 90t83 223q0 115 -69 187.5
t-182 72.5q-122 0 -205.5 -89.5t-83.5 -221.5q0 -116 69 -189t182 -73zM393 -8q-137 0 -228 89.5t-91 229.5q0 162 105 269.5t259 107.5q137 0 228.5 -89t91.5 -229q0 -163 -105 -270.5t-260 -107.5z" />
    <glyph glyph-name="multiply" unicode="&#xd7;" horiz-adv-x="383" 
d="M80 108l-38 41l119 104l-84 105l46 38l83 -103l119 104l38 -42l-120 -105l84 -104l-46 -39l-84 103z" />
    <glyph glyph-name="Oslash" unicode="&#xd8;" horiz-adv-x="786" 
d="M101 -10l-40 40l80 78q-67 84 -67 203q0 162 105 269.5t259 107.5q125 0 214 -76l78 77l40 -40l-79 -78q67 -85 67 -201q0 -163 -105 -270.5t-260 -107.5q-124 0 -213 76zM145 316q0 -92 45 -159l415 409q-67 61 -170 61q-122 0 -206 -89.5t-84 -221.5zM397 54
q123 0 206.5 90t83.5 223q0 91 -44 157l-416 -410q68 -60 170 -60z" />
    <glyph glyph-name="Ugrave" unicode="&#xd9;" horiz-adv-x="675" 
d="M320 -8q-114 0 -178 68t-42 191l65 374h-65l9 55h205l-9 -55h-68l-66 -376q-17 -96 25.5 -147t126.5 -51q74 0 118.5 38t59.5 123l72 413h-70l9 55h203l-9 -55h-65l-73 -418q-37 -215 -248 -215zM399 756l-87 193h80l61 -193h-54z" />
    <glyph glyph-name="Uacute" unicode="&#xda;" horiz-adv-x="675" 
d="M395 756l98 193h84l-127 -193h-55zM320 -8q-114 0 -178 68t-42 191l65 374h-65l9 55h205l-9 -55h-68l-66 -376q-17 -96 25.5 -147t126.5 -51q74 0 118.5 38t59.5 123l72 413h-70l9 55h203l-9 -55h-65l-73 -418q-37 -215 -248 -215z" />
    <glyph glyph-name="Ucircumflex" unicode="&#xdb;" horiz-adv-x="675" 
d="M291 754l159 193h9l96 -193h-57l-55 104l-91 -104h-61zM320 -8q-114 0 -178 68t-42 191l65 374h-65l9 55h205l-9 -55h-68l-66 -376q-17 -96 25.5 -147t126.5 -51q74 0 118.5 38t59.5 123l72 413h-70l9 55h203l-9 -55h-65l-73 -418q-37 -215 -248 -215z" />
    <glyph glyph-name="Udieresis" unicode="&#xdc;" horiz-adv-x="675" 
d="M519 774q-18 0 -32 13.5t-14 32.5t14 32.5t32 13.5q19 0 32.5 -13.5t13.5 -32.5t-13.5 -32.5t-32.5 -13.5zM347 774q-18 0 -32 13.5t-14 32.5t14 32.5t32 13.5q19 0 32.5 -13.5t13.5 -32.5t-13.5 -32.5t-32.5 -13.5zM320 -8q-114 0 -178 68t-42 191l65 374h-65l9 55h205
l-9 -55h-68l-66 -376q-17 -96 25.5 -147t126.5 -51q74 0 118.5 38t59.5 123l72 413h-70l9 55h203l-9 -55h-65l-73 -418q-37 -215 -248 -215z" />
    <glyph glyph-name="Yacute" unicode="&#xdd;" horiz-adv-x="625" 
d="M165 0l9 55h72l35 198l-140 372h-57l10 55h197l-9 -55h-65l96 -262q4 -11 8 -26t6.5 -24t2.5 -10q0 8 35 57l189 265h-71l10 55h199l-9 -55h-54l-279 -381l-32 -189h72l-9 -55h-216zM375 756l98 193h84l-127 -193h-55z" />
    <glyph glyph-name="Thorn" unicode="&#xde;" horiz-adv-x="575" 
d="M13 0l9 55h63l99 570h-64l9 55h206l-9 -54h-70l-14 -80h101q104 0 162 -48t58 -137q0 -105 -68 -162t-187 -57h-136l-16 -88h76l-10 -54h-209zM181 196h123q92 0 139.5 41.5t47.5 122.5q0 63 -41 97t-117 34h-101z" />
    <glyph glyph-name="germandbls" unicode="&#xdf;" horiz-adv-x="548" 
d="M-54 -212l9 52h30q23 0 36.5 14.5t20.5 54.5l80 451h-66l10 54h65l25 138q32 183 186 183q70 0 114.5 -42t44.5 -116q0 -65 -37 -112.5t-104 -66.5q68 -16 106 -65t38 -118q0 -100 -57 -160t-156 -60q-53 0 -89 17l16 53q34 -14 70 -14q70 0 108 46.5t38 124.5
q0 67 -40 106.5t-120 41.5l9 52q66 4 109 44.5t43 108.5q0 53 -25.5 79t-67.5 26q-97 0 -120 -131l-113 -647q-12 -67 -40.5 -90.5t-81.5 -23.5h-41z" />
    <glyph glyph-name="agrave" unicode="&#xe0;" horiz-adv-x="542" 
d="M216 -8q-75 0 -122 54t-47 141q0 103 61 169.5t146 66.5q55 0 96 -30t54 -80l27 101h60l-57 -328q-6 -32 19 -32h38l-9 -54h-46q-42 0 -57.5 21t-10.5 51l2 12q-56 -92 -154 -92zM234 48q65 0 109 49.5t44 125.5q0 62 -34 102.5t-89 40.5q-66 0 -107 -50.5t-41 -128.5
q0 -63 32 -101t86 -38zM266 498l-87 193h80l61 -193h-54z" />
    <glyph glyph-name="aacute" unicode="&#xe1;" horiz-adv-x="542" 
d="M216 -8q-75 0 -122 54t-47 141q0 103 61 169.5t146 66.5q55 0 96 -30t54 -80l27 101h60l-57 -328q-6 -32 19 -32h38l-9 -54h-46q-42 0 -57.5 21t-10.5 51l2 12q-56 -92 -154 -92zM234 48q65 0 109 49.5t44 125.5q0 62 -34 102.5t-89 40.5q-66 0 -107 -50.5t-41 -128.5
q0 -63 32 -101t86 -38zM259 498l98 193h84l-127 -193h-55z" />
    <glyph glyph-name="acircumflex" unicode="&#xe2;" horiz-adv-x="542" 
d="M216 -8q-75 0 -122 54t-47 141q0 103 61 169.5t146 66.5q55 0 96 -30t54 -80l27 101h60l-57 -328q-6 -32 19 -32h38l-9 -54h-46q-42 0 -57.5 21t-10.5 51l2 12q-56 -92 -154 -92zM234 48q65 0 109 49.5t44 125.5q0 62 -34 102.5t-89 40.5q-66 0 -107 -50.5t-41 -128.5
q0 -63 32 -101t86 -38zM160 496l159 193h9l96 -193h-57l-55 104l-91 -104h-61z" />
    <glyph glyph-name="atilde" unicode="&#xe3;" horiz-adv-x="542" 
d="M216 -8q-75 0 -122 54t-47 141q0 103 61 169.5t146 66.5q55 0 96 -30t54 -80l27 101h60l-57 -328q-6 -32 19 -32h38l-9 -54h-46q-42 0 -57.5 21t-10.5 51l2 12q-56 -92 -154 -92zM234 48q65 0 109 49.5t44 125.5q0 62 -34 102.5t-89 40.5q-66 0 -107 -50.5t-41 -128.5
q0 -63 32 -101t86 -38zM205 492l-51 6q19 110 93 110q28 0 63 -31q3 -3 9.5 -8.5t9 -7.5t7 -5.5t7.5 -5t6.5 -2.5t7.5 -1q15 0 24 13t17 48l51 -7q-18 -110 -92 -110q-29 0 -64 31q-2 2 -7 6.5t-7 6.5t-5.5 5t-5.5 4t-5 3t-5.5 3t-5 1.5t-5.5 0.5q-14 0 -23.5 -13t-18.5 -47
z" />
    <glyph glyph-name="adieresis" unicode="&#xe4;" horiz-adv-x="542" 
d="M216 -8q-75 0 -122 54t-47 141q0 103 61 169.5t146 66.5q55 0 96 -30t54 -80l27 101h60l-57 -328q-6 -32 19 -32h38l-9 -54h-46q-42 0 -57.5 21t-10.5 51l2 12q-56 -92 -154 -92zM234 48q65 0 109 49.5t44 125.5q0 62 -34 102.5t-89 40.5q-66 0 -107 -50.5t-41 -128.5
q0 -63 32 -101t86 -38zM391 516q-18 0 -32 13.5t-14 32.5t14 32.5t32 13.5q19 0 32.5 -13.5t13.5 -32.5t-13.5 -32.5t-32.5 -13.5zM219 516q-18 0 -32 13.5t-14 32.5t14 32.5t32 13.5q19 0 32.5 -13.5t13.5 -32.5t-13.5 -32.5t-32.5 -13.5z" />
    <glyph glyph-name="aring" unicode="&#xe5;" horiz-adv-x="542" 
d="M216 -8q-75 0 -122 54t-47 141q0 103 61 169.5t146 66.5q55 0 96 -30t54 -80l27 101h60l-57 -328q-6 -32 19 -32h38l-9 -54h-46q-42 0 -57.5 21t-10.5 51l2 12q-56 -92 -154 -92zM234 48q65 0 109 49.5t44 125.5q0 62 -34 102.5t-89 40.5q-66 0 -107 -50.5t-41 -128.5
q0 -63 32 -101t86 -38zM307 525q24 0 39.5 16t15.5 43t-15.5 43t-39.5 16q-25 0 -40.5 -16t-15.5 -43t15.5 -43t40.5 -16zM307 484q-44 0 -74.5 29.5t-30.5 70.5q0 42 30.5 71.5t74.5 29.5q43 0 73.5 -29.5t30.5 -71.5q0 -41 -30.5 -70.5t-73.5 -29.5z" />
    <glyph glyph-name="ae" unicode="&#xe6;" horiz-adv-x="783" 
d="M184 -8q-68 0 -108 31.5t-40 85.5q0 67 47.5 99.5t120.5 32.5h134l2 13q9 56 -15.5 84.5t-70.5 28.5q-73 0 -118 -59l-39 40q56 75 158 75q47 0 82.5 -22.5t48.5 -63.5q60 86 166 86q96 0 146.5 -64.5t39.5 -167.5h-337q0 -63 38 -103.5t100 -40.5q83 0 131 53l40 -41
q-65 -67 -171 -67q-63 0 -110.5 31t-67.5 85q-17 -52 -61 -84t-116 -32zM550 369q-56 0 -95.5 -36t-49.5 -92h269q-2 59 -33.5 93.5t-90.5 34.5zM190 45q56 0 89.5 26t40.5 68l9 52h-126q-100 0 -100 -76q0 -70 87 -70z" />
    <glyph glyph-name="ccedilla" unicode="&#xe7;" horiz-adv-x="467" 
d="M246 -8q-8 0 -18 1l-8 -46q30 -6 50 -29t20 -58q0 -42 -28.5 -67t-68.5 -25q-38 0 -64.5 17t-37.5 43l45 26q18 -39 55 -39q20 0 31.5 12t11.5 33q0 45 -54 45h-17l16 97q-61 20 -97.5 72t-36.5 121q0 99 63.5 163.5t152.5 64.5q85 0 119 -58l15 49h48l-23 -130h-51
q-16 82 -104 82q-66 0 -108 -49t-42 -122q0 -63 38 -105t99 -42q67 0 110 43l39 -43q-62 -56 -155 -56z" />
    <glyph glyph-name="egrave" unicode="&#xe8;" 
d="M252 -8q-91 0 -149 57.5t-58 146.5q0 97 65 162t156 65q96 0 148 -67t41 -168h-340q0 -63 38.5 -102t100.5 -39q82 0 131 52l39 -40q-65 -67 -172 -67zM264 369q-56 0 -96 -36t-51 -94h272q-2 59 -34 94.5t-91 35.5zM262 498l-87 193h80l61 -193h-54z" />
    <glyph glyph-name="eacute" unicode="&#xe9;" 
d="M258 498l98 193h84l-127 -193h-55zM252 -8q-91 0 -149 57.5t-58 146.5q0 97 65 162t156 65q96 0 148 -67t41 -168h-340q0 -63 38.5 -102t100.5 -39q82 0 131 52l39 -40q-65 -67 -172 -67zM264 369q-56 0 -96 -36t-51 -94h272q-2 59 -34 94.5t-91 35.5z" />
    <glyph glyph-name="ecircumflex" unicode="&#xea;" 
d="M152 496l159 193h9l96 -193h-57l-55 104l-91 -104h-61zM252 -8q-91 0 -149 57.5t-58 146.5q0 97 65 162t156 65q96 0 148 -67t41 -168h-340q0 -63 38.5 -102t100.5 -39q82 0 131 52l39 -40q-65 -67 -172 -67zM264 369q-56 0 -96 -36t-51 -94h272q-2 59 -34 94.5t-91 35.5
z" />
    <glyph glyph-name="edieresis" unicode="&#xeb;" 
d="M381 516q-18 0 -32 13.5t-14 32.5t14 32.5t32 13.5q19 0 32.5 -13.5t13.5 -32.5t-13.5 -32.5t-32.5 -13.5zM209 516q-18 0 -32 13.5t-14 32.5t14 32.5t32 13.5q19 0 32.5 -13.5t13.5 -32.5t-13.5 -32.5t-32.5 -13.5zM252 -8q-91 0 -149 57.5t-58 146.5q0 97 65 162
t156 65q96 0 148 -67t41 -168h-340q0 -63 38.5 -102t100.5 -39q82 0 131 52l39 -40q-65 -67 -172 -67zM264 369q-56 0 -96 -36t-51 -94h272q-2 59 -34 94.5t-91 35.5z" />
    <glyph glyph-name="igrave" unicode="&#xec;" horiz-adv-x="247" 
d="M136 0q-45 0 -61 22t-8 70l47 267h-68l9 55h137l-58 -328q-6 -32 20 -32h40l-9 -54h-49zM141 498l-87 193h80l61 -193h-54z" />
    <glyph glyph-name="iacute" unicode="&#xed;" horiz-adv-x="247" 
d="M133 498l98 193h84l-127 -193h-55zM136 0q-45 0 -61 22t-8 70l47 267h-68l9 55h137l-58 -328q-6 -32 20 -32h40l-9 -54h-49z" />
    <glyph glyph-name="icircumflex" unicode="&#xee;" horiz-adv-x="247" 
d="M31 496l159 193h9l96 -193h-57l-55 104l-91 -104h-61zM136 0q-45 0 -61 22t-8 70l47 267h-68l9 55h137l-58 -328q-6 -32 20 -32h40l-9 -54h-49z" />
    <glyph glyph-name="idieresis" unicode="&#xef;" horiz-adv-x="247" 
d="M260 516q-18 0 -32 13.5t-14 32.5t14 32.5t32 13.5q19 0 32.5 -13.5t13.5 -32.5t-13.5 -32.5t-32.5 -13.5zM88 516q-18 0 -32 13.5t-14 32.5t14 32.5t32 13.5q19 0 32.5 -13.5t13.5 -32.5t-13.5 -32.5t-32.5 -13.5zM136 0q-45 0 -61 22t-8 70l47 267h-68l9 55h137
l-58 -328q-6 -32 20 -32h40l-9 -54h-49z" />
    <glyph glyph-name="eth" unicode="&#xf0;" horiz-adv-x="523" 
d="M218 523l-26 39l83 61q-26 36 -61 77l42 37q31 -30 69 -78l75 55l27 -39l-73 -53q118 -173 121 -356q1 -132 -59.5 -203t-165.5 -71q-89 0 -147 58.5t-58 149.5q0 97 64.5 160t150.5 63q92 0 138 -72q-23 121 -96 233zM251 46q68 0 110 49t42 129q0 64 -36.5 104
t-96.5 40q-67 0 -111.5 -48t-44.5 -122q0 -68 37 -110t100 -42z" />
    <glyph glyph-name="ntilde" unicode="&#xf1;" horiz-adv-x="525" 
d="M52 0l62 359h-67l9 55h135l-13 -75q54 84 145 84q70 0 108 -50t23 -134l-27 -153q-6 -32 20 -32h37l-9 -54h-46q-45 0 -61 22.5t-8 69.5l25 144q11 60 -11 94.5t-74 34.5q-114 0 -139 -132l-41 -233h-68zM205 492l-51 6q19 110 93 110q28 0 63 -31q3 -3 9.5 -8.5t9 -7.5
t7 -5.5t7.5 -5t6.5 -2.5t7.5 -1q15 0 24 13t17 48l51 -7q-18 -110 -92 -110q-29 0 -64 31q-2 2 -7 6.5t-7 6.5t-5.5 5t-5.5 4t-5 3t-5.5 3t-5 1.5t-5.5 0.5q-14 0 -23.5 -13t-18.5 -47z" />
    <glyph glyph-name="ograve" unicode="&#xf2;" horiz-adv-x="521" 
d="M253 47q68 0 110.5 48.5t42.5 122.5q0 65 -37.5 107t-99.5 42q-67 0 -111 -48.5t-44 -122.5q0 -65 38.5 -107t100.5 -42zM252 -8q-88 0 -147.5 59t-59.5 145q0 96 66 161.5t160 65.5q87 0 146 -59.5t59 -145.5q0 -97 -65 -161.5t-159 -64.5zM264 498l-87 193h80l61 -193
h-54z" />
    <glyph glyph-name="oacute" unicode="&#xf3;" horiz-adv-x="521" 
d="M257 498l98 193h84l-127 -193h-55zM253 47q68 0 110.5 48.5t42.5 122.5q0 65 -37.5 107t-99.5 42q-67 0 -111 -48.5t-44 -122.5q0 -65 38.5 -107t100.5 -42zM252 -8q-88 0 -147.5 59t-59.5 145q0 96 66 161.5t160 65.5q87 0 146 -59.5t59 -145.5q0 -97 -65 -161.5
t-159 -64.5z" />
    <glyph glyph-name="ocircumflex" unicode="&#xf4;" horiz-adv-x="521" 
d="M157 496l159 193h9l96 -193h-57l-55 104l-91 -104h-61zM253 47q68 0 110.5 48.5t42.5 122.5q0 65 -37.5 107t-99.5 42q-67 0 -111 -48.5t-44 -122.5q0 -65 38.5 -107t100.5 -42zM252 -8q-88 0 -147.5 59t-59.5 145q0 96 66 161.5t160 65.5q87 0 146 -59.5t59 -145.5
q0 -97 -65 -161.5t-159 -64.5z" />
    <glyph glyph-name="otilde" unicode="&#xf5;" horiz-adv-x="521" 
d="M253 47q68 0 110.5 48.5t42.5 122.5q0 65 -37.5 107t-99.5 42q-67 0 -111 -48.5t-44 -122.5q0 -65 38.5 -107t100.5 -42zM252 -8q-88 0 -147.5 59t-59.5 145q0 96 66 161.5t160 65.5q87 0 146 -59.5t59 -145.5q0 -97 -65 -161.5t-159 -64.5zM199 492l-51 6q19 110 93 110
q28 0 63 -31q3 -3 9.5 -8.5t9 -7.5t7 -5.5t7.5 -5t6.5 -2.5t7.5 -1q15 0 24 13t17 48l51 -7q-18 -110 -92 -110q-29 0 -64 31q-2 2 -7 6.5t-7 6.5t-5.5 5t-5.5 4t-5 3t-5.5 3t-5 1.5t-5.5 0.5q-14 0 -23.5 -13t-18.5 -47z" />
    <glyph glyph-name="odieresis" unicode="&#xf6;" horiz-adv-x="521" 
d="M385 516q-18 0 -32 13.5t-14 32.5t14 32.5t32 13.5q19 0 32.5 -13.5t13.5 -32.5t-13.5 -32.5t-32.5 -13.5zM213 516q-18 0 -32 13.5t-14 32.5t14 32.5t32 13.5q19 0 32.5 -13.5t13.5 -32.5t-13.5 -32.5t-32.5 -13.5zM253 47q68 0 110.5 48.5t42.5 122.5q0 65 -37.5 107
t-99.5 42q-67 0 -111 -48.5t-44 -122.5q0 -65 38.5 -107t100.5 -42zM252 -8q-88 0 -147.5 59t-59.5 145q0 96 66 161.5t160 65.5q87 0 146 -59.5t59 -145.5q0 -97 -65 -161.5t-159 -64.5z" />
    <glyph glyph-name="divide" unicode="&#xf7;" horiz-adv-x="370" 
d="M169 59q-21 0 -35.5 14.5t-14.5 35.5q0 22 14.5 36.5t35.5 14.5t35.5 -14.5t14.5 -36.5q0 -21 -14.5 -35.5t-35.5 -14.5zM42 224l10 57h292l-10 -57h-292zM219 345q-20 0 -35 14.5t-15 36.5q0 21 15 35.5t35 14.5q21 0 35.5 -14.5t14.5 -35.5q0 -22 -14.5 -36.5
t-35.5 -14.5z" />
    <glyph glyph-name="oslash" unicode="&#xf8;" horiz-adv-x="521" 
d="M56 -14l-31 37l58 53q-38 54 -38 120q0 96 66 161.5t160 65.5q79 0 135 -50l59 54l30 -37l-57 -53q38 -52 38 -119q0 -97 -65 -161.5t-159 -64.5q-77 0 -136 49zM113 196q0 -43 17 -77l232 213q-37 35 -93 35q-68 0 -112 -48.5t-44 -122.5zM253 47q68 0 111.5 48.5
t43.5 122.5q0 42 -17 76l-232 -213q36 -34 94 -34z" />
    <glyph glyph-name="ugrave" unicode="&#xf9;" horiz-adv-x="524" 
d="M201 -9q-70 0 -107.5 50t-23.5 132l32 186h-59l9 55h128l-42 -236q-11 -61 11.5 -95t74.5 -34q55 0 91 34.5t47 97.5l33 178h-65l9 55h133l-58 -328q-6 -32 19 -32h39l-10 -54h-46q-77 0 -68 75l1 7q-54 -91 -148 -91zM259 498l-87 193h80l61 -193h-54z" />
    <glyph glyph-name="uacute" unicode="&#xfa;" horiz-adv-x="524" 
d="M251 498l98 193h84l-127 -193h-55zM201 -9q-70 0 -107.5 50t-23.5 132l32 186h-59l9 55h128l-42 -236q-11 -61 11.5 -95t74.5 -34q55 0 91 34.5t47 97.5l33 178h-65l9 55h133l-58 -328q-6 -32 19 -32h39l-10 -54h-46q-77 0 -68 75l1 7q-54 -91 -148 -91z" />
    <glyph glyph-name="ucircumflex" unicode="&#xfb;" horiz-adv-x="524" 
d="M149 496l159 193h9l96 -193h-57l-55 104l-91 -104h-61zM201 -9q-70 0 -107.5 50t-23.5 132l32 186h-59l9 55h128l-42 -236q-11 -61 11.5 -95t74.5 -34q55 0 91 34.5t47 97.5l33 178h-65l9 55h133l-58 -328q-6 -32 19 -32h39l-10 -54h-46q-77 0 -68 75l1 7
q-54 -91 -148 -91z" />
    <glyph glyph-name="udieresis" unicode="&#xfc;" horiz-adv-x="524" 
d="M376 516q-18 0 -32 13.5t-14 32.5t14 32.5t32 13.5q19 0 32.5 -13.5t13.5 -32.5t-13.5 -32.5t-32.5 -13.5zM204 516q-18 0 -32 13.5t-14 32.5t14 32.5t32 13.5q19 0 32.5 -13.5t13.5 -32.5t-13.5 -32.5t-32.5 -13.5zM201 -9q-70 0 -107.5 50t-23.5 132l32 186h-59l9 55
h128l-42 -236q-11 -61 11.5 -95t74.5 -34q55 0 91 34.5t47 97.5l33 178h-65l9 55h133l-58 -328q-6 -32 19 -32h39l-10 -54h-46q-77 0 -68 75l1 7q-54 -91 -148 -91z" />
    <glyph glyph-name="yacute" unicode="&#xfd;" horiz-adv-x="494" 
d="M-28 -212l9 52h78l117 195l-95 324h-51l9 55h177l-9 -55h-56l61 -212q8 -29 8 -59q8 29 27 57l127 214h-57l9 55h169l-9 -55h-47l-343 -571h-124zM254 498l98 193h84l-127 -193h-55z" />
    <glyph glyph-name="thorn" unicode="&#xfe;" horiz-adv-x="555" 
d="M-52 -212l9 53h70l145 826h-69l9 55h138l-69 -389q55 90 155 90q77 0 125 -54.5t48 -144.5q0 -100 -60 -166t-146 -66q-61 0 -105 32.5t-55 87.5l-48 -271h73l-10 -53h-210zM286 47q68 0 111 51t43 129q0 63 -33.5 101.5t-89.5 38.5q-67 0 -112 -49t-45 -125
q0 -64 34 -105t92 -41z" />
    <glyph glyph-name="ydieresis" unicode="&#xff;" horiz-adv-x="494" 
d="M-28 -212l9 52h78l117 195l-95 324h-51l9 55h177l-9 -55h-56l61 -212q8 -29 8 -59q8 29 27 57l127 214h-57l9 55h169l-9 -55h-47l-343 -571h-124zM382 516q-18 0 -32 13.5t-14 32.5t14 32.5t32 13.5q19 0 32.5 -13.5t13.5 -32.5t-13.5 -32.5t-32.5 -13.5zM210 516
q-18 0 -32 13.5t-14 32.5t14 32.5t32 13.5q19 0 32.5 -13.5t13.5 -32.5t-13.5 -32.5t-32.5 -13.5z" />
    <glyph glyph-name="Amacron" unicode="&#x100;" horiz-adv-x="696" 
d="M-20 0l9 55h63l309 570h-61l9 55h240l-9 -55h-57l104 -570h66l-9 -55h-212l9 55h73l-22 128h-301l-69 -128h75l-9 -55h-208zM220 238h262l-42 235q-20 114 -20 142q-1 -1 -10.5 -20.5t-27 -54t-34.5 -66.5zM335 774l10 54h210l-10 -54h-210z" />
    <glyph glyph-name="amacron" unicode="&#x101;" horiz-adv-x="542" 
d="M216 -8q-75 0 -122 54t-47 141q0 103 61 169.5t146 66.5q55 0 96 -30t54 -80l27 101h60l-57 -328q-6 -32 19 -32h38l-9 -54h-46q-42 0 -57.5 21t-10.5 51l2 12q-56 -92 -154 -92zM234 48q65 0 109 49.5t44 125.5q0 62 -34 102.5t-89 40.5q-66 0 -107 -50.5t-41 -128.5
q0 -63 32 -101t86 -38zM192 516l10 54h210l-10 -54h-210z" />
    <glyph glyph-name="Abreve" unicode="&#x102;" horiz-adv-x="696" 
d="M-20 0l9 55h63l309 570h-61l9 55h240l-9 -55h-57l104 -570h66l-9 -55h-212l9 55h73l-22 128h-301l-69 -128h75l-9 -55h-208zM220 238h262l-42 235q-20 114 -20 142q-1 -1 -10.5 -20.5t-27 -54t-34.5 -66.5zM440 747q-54 0 -86 33.5t-36 83.5l56 9q5 -34 19.5 -52.5
t46.5 -18.5q61 0 79 71l56 -10q-11 -50 -46 -83t-89 -33z" />
    <glyph glyph-name="abreve" unicode="&#x103;" horiz-adv-x="542" 
d="M216 -8q-75 0 -122 54t-47 141q0 103 61 169.5t146 66.5q55 0 96 -30t54 -80l27 101h60l-57 -328q-6 -32 19 -32h38l-9 -54h-46q-42 0 -57.5 21t-10.5 51l2 12q-56 -92 -154 -92zM234 48q65 0 109 49.5t44 125.5q0 62 -34 102.5t-89 40.5q-66 0 -107 -50.5t-41 -128.5
q0 -63 32 -101t86 -38zM297 489q-54 0 -86 33.5t-36 83.5l56 9q5 -34 19.5 -52.5t46.5 -18.5q61 0 79 71l56 -10q-11 -50 -46 -83t-89 -33z" />
    <glyph glyph-name="Aogonek" unicode="&#x104;" horiz-adv-x="696" 
d="M528 -219q-40 0 -67 22.5t-27 62.5q0 33 20.5 61.5t69.5 72.5h-92l9 55h73l-22 128h-301l-69 -128h75l-9 -55h-208l9 55h63l309 570h-61l9 55h240l-9 -55h-57l104 -570h66l-9 -55h-61q-57 -58 -73.5 -82t-16.5 -47q0 -18 11.5 -29t30.5 -11q29 0 50 32l40 -26
q-31 -56 -97 -56zM220 238h262l-42 235q-20 114 -20 142q-1 -1 -10.5 -20.5t-27 -54t-34.5 -66.5z" />
    <glyph glyph-name="aogonek" unicode="&#x105;" horiz-adv-x="542" 
d="M375 -225q-40 0 -67.5 22.5t-27.5 62.5q0 35 24 69.5t82 83.5q-24 17 -19 59l3 13q-57 -93 -154 -93q-75 0 -122 54t-47 141q0 103 61 169.5t146 66.5q55 0 96 -31t54 -84l27 106h60l-57 -328q-6 -32 19 -32h38l-9 -54h-52q-54 -56 -72 -83.5t-18 -51.5q0 -18 11.5 -29
t29.5 -11q29 0 50 32l41 -26q-33 -56 -97 -56zM234 48q65 0 109 49.5t44 125.5q0 62 -34 102.5t-89 40.5q-66 0 -107 -50.5t-41 -128.5q0 -63 32 -101t86 -38z" />
    <glyph glyph-name="Cacute" unicode="&#x106;" horiz-adv-x="725" 
d="M427 756l98 193h84l-127 -193h-55zM681 483h-58q-11 64 -57.5 104t-133.5 40q-120 0 -202.5 -87t-82.5 -221q0 -118 69 -192t181 -74q131 0 217 102l52 -40q-107 -123 -271 -123q-142 0 -231.5 90.5t-89.5 234.5q0 158 104.5 264.5t254.5 106.5q80 0 133 -31.5t72 -72.5
l27 96h52z" />
    <glyph glyph-name="cacute" unicode="&#x107;" horiz-adv-x="467" 
d="M252 498l98 193h84l-127 -193h-55zM246 -8q-86 0 -143.5 57.5t-57.5 145.5q0 99 63.5 163.5t152.5 64.5q85 0 119 -58l15 49h48l-23 -130h-51q-16 82 -104 82q-66 0 -108 -49t-42 -122q0 -63 38 -105t99 -42q67 0 110 43l39 -43q-62 -56 -155 -56z" />
    <glyph glyph-name="Ccircumflex" unicode="&#x108;" horiz-adv-x="725" 
d="M324 754l159 193h9l96 -193h-57l-55 104l-91 -104h-61zM681 483h-58q-11 64 -57.5 104t-133.5 40q-120 0 -202.5 -87t-82.5 -221q0 -118 69 -192t181 -74q131 0 217 102l52 -40q-107 -123 -271 -123q-142 0 -231.5 90.5t-89.5 234.5q0 158 104.5 264.5t254.5 106.5
q80 0 133 -31.5t72 -72.5l27 96h52z" />
    <glyph glyph-name="ccircumflex" unicode="&#x109;" horiz-adv-x="467" 
d="M158 496l159 193h9l96 -193h-57l-55 104l-91 -104h-61zM246 -8q-86 0 -143.5 57.5t-57.5 145.5q0 99 63.5 163.5t152.5 64.5q85 0 119 -58l15 49h48l-23 -130h-51q-16 82 -104 82q-66 0 -108 -49t-42 -122q0 -63 38 -105t99 -42q67 0 110 43l39 -43q-62 -56 -155 -56z
" />
    <glyph glyph-name="Cdotaccent" unicode="&#x10a;" horiz-adv-x="725" 
d="M681 483h-58q-11 64 -57.5 104t-133.5 40q-120 0 -202.5 -87t-82.5 -221q0 -118 69 -192t181 -74q131 0 217 102l52 -40q-107 -123 -271 -123q-142 0 -231.5 90.5t-89.5 234.5q0 158 104.5 264.5t254.5 106.5q80 0 133 -31.5t72 -72.5l27 96h52zM452 743q-18 0 -32 13.5
t-14 32.5t14 32.5t32 13.5t31.5 -13.5t13.5 -32.5t-13.5 -32.5t-31.5 -13.5z" />
    <glyph glyph-name="cdotaccent" unicode="&#x10b;" horiz-adv-x="467" 
d="M246 -8q-86 0 -143.5 57.5t-57.5 145.5q0 99 63.5 163.5t152.5 64.5q85 0 119 -58l15 49h48l-23 -130h-51q-16 82 -104 82q-66 0 -108 -49t-42 -122q0 -63 38 -105t99 -42q67 0 110 43l39 -43q-62 -56 -155 -56zM293 516q-18 0 -32 13.5t-14 32.5t14 32.5t32 13.5
t31.5 -13.5t13.5 -32.5t-13.5 -32.5t-31.5 -13.5z" />
    <glyph glyph-name="Ccaron" unicode="&#x10c;" horiz-adv-x="725" 
d="M619 939l-159 -193h-9l-96 193h57l55 -104l91 104h61zM681 483h-58q-11 64 -57.5 104t-133.5 40q-120 0 -202.5 -87t-82.5 -221q0 -118 69 -192t181 -74q131 0 217 102l52 -40q-107 -123 -271 -123q-142 0 -231.5 90.5t-89.5 234.5q0 158 104.5 264.5t254.5 106.5
q80 0 133 -31.5t72 -72.5l27 96h52z" />
    <glyph glyph-name="ccaron" unicode="&#x10d;" horiz-adv-x="467" 
d="M449 681l-159 -193h-9l-96 193h57l55 -104l91 104h61zM246 -8q-86 0 -143.5 57.5t-57.5 145.5q0 99 63.5 163.5t152.5 64.5q85 0 119 -58l15 49h48l-23 -130h-51q-16 82 -104 82q-66 0 -108 -49t-42 -122q0 -63 38 -105t99 -42q67 0 110 43l39 -43q-62 -56 -155 -56z" />
    <glyph glyph-name="Dcaron" unicode="&#x10e;" horiz-adv-x="687" 
d="M545 939l-159 -193h-9l-96 193h57l55 -104l91 104h61zM13 0l9 55h63l100 570h-66l10 55h225q144 0 226 -83t82 -217q0 -168 -107 -274t-284 -106h-258zM157 58h105q159 0 243 88t84 232q0 111 -62.5 177.5t-185.5 66.5h-85z" />
    <glyph glyph-name="dcaron" unicode="&#x10f;" horiz-adv-x="555" 
d="M600 527l47 102q-28 11 -28 46q0 21 15 35.5t36 14.5q22 0 36 -14t14 -36q0 -21 -18 -48l-64 -100h-38zM220 -8q-78 0 -125.5 55t-47.5 140q0 104 62 171t150 65q60 -1 101 -31.5t53 -80.5l65 357h-72l10 54h139l-112 -636q-6 -32 19 -32h38l-9 -54h-46q-42 0 -57.5 21.5
t-10.5 51.5l2 11q-25 -43 -68 -67.5t-91 -24.5zM239 48q66 0 111 48.5t46 123.5q1 64 -34 105t-93 41q-68 0 -110 -49.5t-43 -126.5q0 -64 33 -103t90 -39z" />
    <glyph glyph-name="Dcroat" unicode="&#x110;" horiz-adv-x="687" 
d="M63 314l9 54h68l45 257h-66l10 55h225q144 0 226 -83t82 -217q0 -168 -107 -274t-284 -106h-258l9 55h63l45 259h-67zM157 58h105q159 0 243 88t84 232q0 111 -62.5 177.5t-185.5 66.5h-85l-45 -254h178l-9 -54h-178z" />
    <glyph glyph-name="dcroat" unicode="&#x111;" horiz-adv-x="555" 
d="M303 530l9 51h150l16 87h-72l10 54h139l-25 -141h74l-9 -51h-74l-78 -444q-6 -32 19 -32h38l-9 -54h-46q-42 0 -57.5 21.5t-10.5 51.5l2 11q-25 -43 -68 -67.5t-91 -24.5q-78 0 -125.5 55t-47.5 140q0 104 62 171t150 65q60 -1 101 -31.5t53 -80.5l40 219h-150zM239 48
q66 0 111 48.5t46 123.5q1 64 -34 105t-93 41q-68 0 -110 -49.5t-43 -126.5q0 -64 33 -103t90 -39z" />
    <glyph glyph-name="Emacron" unicode="&#x112;" horiz-adv-x="577" 
d="M13 0l9 55h63l100 570h-64l9 55h468l-26 -148h-55l7 90h-268l-44 -251h282l-10 -58h-283l-44 -255h279l29 101h55l-28 -159h-479zM284 774l10 54h210l-10 -54h-210z" />
    <glyph glyph-name="emacron" unicode="&#x113;" 
d="M252 -8q-91 0 -149 57.5t-58 146.5q0 97 65 162t156 65q96 0 148 -67t41 -168h-340q0 -63 38.5 -102t100.5 -39q82 0 131 52l39 -40q-65 -67 -172 -67zM264 369q-56 0 -96 -36t-51 -94h272q-2 59 -34 94.5t-91 35.5zM182 516l10 54h210l-10 -54h-210z" />
    <glyph glyph-name="Ebreve" unicode="&#x114;" horiz-adv-x="577" 
d="M13 0l9 55h63l100 570h-64l9 55h468l-26 -148h-55l7 90h-268l-44 -251h282l-10 -58h-283l-44 -255h279l29 101h55l-28 -159h-479zM386 747q-54 0 -86 33.5t-36 83.5l56 9q5 -34 19.5 -52.5t46.5 -18.5q61 0 79 71l56 -10q-11 -50 -46 -83t-89 -33z" />
    <glyph glyph-name="ebreve" unicode="&#x115;" 
d="M252 -8q-91 0 -149 57.5t-58 146.5q0 97 65 162t156 65q96 0 148 -67t41 -168h-340q0 -63 38.5 -102t100.5 -39q82 0 131 52l39 -40q-65 -67 -172 -67zM264 369q-56 0 -96 -36t-51 -94h272q-2 59 -34 94.5t-91 35.5zM285 489q-54 0 -86 33.5t-36 83.5l56 9
q5 -34 19.5 -52.5t46.5 -18.5q61 0 79 71l56 -10q-11 -50 -46 -83t-89 -33z" />
    <glyph glyph-name="Edotaccent" unicode="&#x116;" horiz-adv-x="577" 
d="M13 0l9 55h63l100 570h-64l9 55h468l-26 -148h-55l7 90h-268l-44 -251h282l-10 -58h-283l-44 -255h279l29 101h55l-28 -159h-479zM392 743q-18 0 -32 13.5t-14 32.5t14 32.5t32 13.5t31.5 -13.5t13.5 -32.5t-13.5 -32.5t-31.5 -13.5z" />
    <glyph glyph-name="edotaccent" unicode="&#x117;" 
d="M252 -8q-91 0 -149 57.5t-58 146.5q0 97 65 162t156 65q96 0 148 -67t41 -168h-340q0 -63 38.5 -102t100.5 -39q82 0 131 52l39 -40q-65 -67 -172 -67zM264 369q-56 0 -96 -36t-51 -94h272q-2 59 -34 94.5t-91 35.5zM293 516q-18 0 -32 13.5t-14 32.5t14 32.5t32 13.5
t31.5 -13.5t13.5 -32.5t-13.5 -32.5t-31.5 -13.5z" />
    <glyph glyph-name="Eogonek" unicode="&#x118;" horiz-adv-x="577" 
d="M13 0l9 55h63l100 570h-64l9 55h468l-26 -148h-55l7 90h-268l-44 -251h282l-10 -58h-283l-44 -255h279l29 101h55l-28 -159h-71q-57 -58 -73.5 -82t-16.5 -47q0 -18 11.5 -29t30.5 -11q29 0 50 32l40 -26q-31 -56 -97 -56q-40 0 -67 22.5t-27 62.5q0 33 20.5 61.5
t69.5 72.5h-349z" />
    <glyph glyph-name="eogonek" unicode="&#x119;" 
d="M288 -225q-40 0 -67 22.5t-27 62.5q0 32 22.5 64t71.5 72q-16 -4 -38 -4q-89 0 -147 57.5t-58 146.5q0 97 64.5 162t156.5 65q96 0 148 -66t41 -168h-340q0 -63 38 -102.5t99 -39.5q84 0 131 54l41 -42q-13 -14 -43 -37t-50 -42q-43 -42 -60.5 -67.5t-17.5 -47.5
q0 -18 11.5 -29t29.5 -11q29 0 50 32l41 -26q-33 -56 -97 -56zM117 235h272q0 60 -32 97t-93 37q-57 0 -97.5 -37.5t-49.5 -96.5z" />
    <glyph glyph-name="Ecaron" unicode="&#x11a;" horiz-adv-x="577" 
d="M549 939l-159 -193h-9l-96 193h57l55 -104l91 104h61zM13 0l9 55h63l100 570h-64l9 55h468l-26 -148h-55l7 90h-268l-44 -251h282l-10 -58h-283l-44 -255h279l29 101h55l-28 -159h-479z" />
    <glyph glyph-name="ecaron" unicode="&#x11b;" 
d="M448 681l-159 -193h-9l-96 193h57l55 -104l91 104h61zM252 -8q-91 0 -149 57.5t-58 146.5q0 97 65 162t156 65q96 0 148 -67t41 -168h-340q0 -63 38.5 -102t100.5 -39q82 0 131 52l39 -40q-65 -67 -172 -67zM264 369q-56 0 -96 -36t-51 -94h272q-2 59 -34 94.5t-91 35.5z
" />
    <glyph glyph-name="Gcircumflex" unicode="&#x11c;" horiz-adv-x="745" 
d="M329 754l159 193h9l96 -193h-57l-55 104l-91 -104h-61zM679 483h-58q-10 63 -57.5 104t-128.5 41q-123 0 -206 -90t-83 -221q0 -117 69.5 -191.5t171.5 -74.5q66 0 120 20.5t80 52.5l26 140h-197l10 59h265l-55 -323h-53l3 60q-84 -68 -208 -68q-126 0 -215 90t-89 230
q0 161 105.5 268.5t254.5 107.5q80 0 132.5 -32.5t71.5 -70.5l24 95h53z" />
    <glyph glyph-name="gcircumflex" unicode="&#x11d;" horiz-adv-x="554" 
d="M171 496l159 193h9l96 -193h-57l-55 104l-91 -104h-61zM203 -223q-72 0 -122 29.5t-74 77.5l49 37q48 -86 144 -86q124 0 152 142l20 98q-57 -83 -152 -83q-78 0 -125.5 54.5t-47.5 141.5q0 102 61.5 168.5t150.5 66.5q58 0 100 -31.5t55 -86.5l17 109h124l-9 -55h-57
l-68 -386q-35 -196 -218 -196zM239 48q67 0 111.5 49t45.5 126q0 62 -34.5 102.5t-92.5 40.5q-68 0 -110 -49.5t-42 -126.5q0 -65 32.5 -103.5t89.5 -38.5z" />
    <glyph glyph-name="Gbreve" unicode="&#x11e;" horiz-adv-x="745" 
d="M679 483h-58q-10 63 -57.5 104t-128.5 41q-123 0 -206 -90t-83 -221q0 -117 69.5 -191.5t171.5 -74.5q66 0 120 20.5t80 52.5l26 140h-197l10 59h265l-55 -323h-53l3 60q-84 -68 -208 -68q-126 0 -215 90t-89 230q0 161 105.5 268.5t254.5 107.5q80 0 132.5 -32.5
t71.5 -70.5l24 95h53zM459 747q-54 0 -86 33.5t-36 83.5l56 9q5 -34 19.5 -52.5t46.5 -18.5q61 0 79 71l56 -10q-11 -50 -46 -83t-89 -33z" />
    <glyph glyph-name="gbreve" unicode="&#x11f;" horiz-adv-x="554" 
d="M203 -223q-72 0 -122 29.5t-74 77.5l49 37q48 -86 144 -86q124 0 152 142l20 98q-57 -83 -152 -83q-78 0 -125.5 54.5t-47.5 141.5q0 102 61.5 168.5t150.5 66.5q58 0 100 -31.5t55 -86.5l17 109h124l-9 -55h-57l-68 -386q-35 -196 -218 -196zM239 48q67 0 111.5 49
t45.5 126q0 62 -34.5 102.5t-92.5 40.5q-68 0 -110 -49.5t-42 -126.5q0 -65 32.5 -103.5t89.5 -38.5zM296 489q-54 0 -86 33.5t-36 83.5l56 9q5 -34 19.5 -52.5t46.5 -18.5q61 0 79 71l56 -10q-11 -50 -46 -83t-89 -33z" />
    <glyph glyph-name="Gdotaccent" unicode="&#x120;" horiz-adv-x="745" 
d="M679 483h-58q-10 63 -57.5 104t-128.5 41q-123 0 -206 -90t-83 -221q0 -117 69.5 -191.5t171.5 -74.5q66 0 120 20.5t80 52.5l26 140h-197l10 59h265l-55 -323h-53l3 60q-84 -68 -208 -68q-126 0 -215 90t-89 230q0 161 105.5 268.5t254.5 107.5q80 0 132.5 -32.5
t71.5 -70.5l24 95h53zM467 743q-18 0 -32 13.5t-14 32.5t14 32.5t32 13.5t31.5 -13.5t13.5 -32.5t-13.5 -32.5t-31.5 -13.5z" />
    <glyph glyph-name="gdotaccent" unicode="&#x121;" horiz-adv-x="554" 
d="M203 -223q-72 0 -122 29.5t-74 77.5l49 37q48 -86 144 -86q124 0 152 142l20 98q-57 -83 -152 -83q-78 0 -125.5 54.5t-47.5 141.5q0 102 61.5 168.5t150.5 66.5q58 0 100 -31.5t55 -86.5l17 109h124l-9 -55h-57l-68 -386q-35 -196 -218 -196zM239 48q67 0 111.5 49
t45.5 126q0 62 -34.5 102.5t-92.5 40.5q-68 0 -110 -49.5t-42 -126.5q0 -65 32.5 -103.5t89.5 -38.5zM307 516q-18 0 -32 13.5t-14 32.5t14 32.5t32 13.5t31.5 -13.5t13.5 -32.5t-13.5 -32.5t-31.5 -13.5z" />
    <glyph glyph-name="Gcommaaccent" unicode="&#x122;" horiz-adv-x="745" 
d="M285 -256l48 102q-28 9 -28 45q0 21 15.5 35.5t34.5 14.5q22 0 36 -13.5t14 -35.5q0 -23 -17 -48l-65 -100h-38zM679 483h-58q-10 63 -57.5 104t-128.5 41q-123 0 -206 -90t-83 -221q0 -117 69.5 -191.5t171.5 -74.5q66 0 120 20.5t80 52.5l26 140h-197l10 59h265
l-55 -323h-53l3 60q-84 -68 -208 -68q-126 0 -215 90t-89 230q0 161 105.5 268.5t254.5 107.5q80 0 132.5 -32.5t71.5 -70.5l24 95h53z" />
    <glyph glyph-name="gcommaaccent" unicode="&#x123;" horiz-adv-x="554" 
d="M374 709l-48 -102q28 -9 28 -45q0 -21 -15.5 -35.5t-34.5 -14.5q-22 0 -36 13.5t-14 35.5q0 23 17 48l65 100h38zM203 -223q-72 0 -122 29.5t-74 77.5l49 37q48 -86 144 -86q124 0 152 142l20 98q-57 -83 -152 -83q-78 0 -125.5 54.5t-47.5 141.5q0 102 61.5 168.5
t150.5 66.5q58 0 100 -31.5t55 -86.5l17 109h124l-9 -55h-57l-68 -386q-35 -196 -218 -196zM239 48q67 0 111.5 49t45.5 126q0 62 -34.5 102.5t-92.5 40.5q-68 0 -110 -49.5t-42 -126.5q0 -65 32.5 -103.5t89.5 -38.5z" />
    <glyph glyph-name="Hcircumflex" unicode="&#x124;" horiz-adv-x="723" 
d="M322 754l159 193h9l96 -193h-57l-55 104l-91 -104h-61zM13 0l9 55h63l99 570h-64l9 55h206l-9 -55h-70l-47 -264h355l46 264h-71l9 55h206l-9 -55h-64l-99 -570h63l-9 -55h-206l9 55h72l43 247h-355l-43 -247h71l-9 -55h-205z" />
    <glyph glyph-name="hcircumflex" unicode="&#x125;" horiz-adv-x="521" 
d="M190 750l159 193h9l96 -193h-57l-55 104l-91 -104h-61zM48 0l116 668h-69l10 54h137l-67 -383q53 84 144 84q70 0 108 -50t23 -134l-27 -153q-6 -32 19 -32h38l-9 -54h-46q-46 0 -61.5 22.5t-7.5 69.5l25 144q11 60 -11.5 94.5t-74.5 34.5q-55 0 -91 -34.5t-47 -97.5
l-41 -233h-68z" />
    <glyph glyph-name="Hbar" unicode="&#x126;" horiz-adv-x="723" 
d="M81 469l11 52h74l18 104h-64l9 55h206l-9 -55h-70l-19 -104h354l19 104h-71l9 55h206l-9 -55h-64l-18 -104h77l-10 -52h-76l-72 -414h63l-10 -55h-206l10 55h72l43 247h-355l-43 -247h71l-10 -55h-205l10 55h63l72 414h-76zM208 357h355l19 112h-354z" />
    <glyph glyph-name="hbar" unicode="&#x127;" horiz-adv-x="521" 
d="M61 530l10 51h78l15 87h-69l10 54h137l-25 -141h146l-10 -51h-145l-33 -191q53 84 144 84q70 0 108 -50t23 -134l-27 -153q-6 -32 19 -32h38l-9 -54h-46q-46 0 -61.5 22.5t-7.5 69.5l25 144q11 60 -11.5 94.5t-74.5 34.5q-55 0 -91 -34.5t-47 -97.5l-41 -233h-68l92 530
h-79z" />
    <glyph glyph-name="Imacron" unicode="&#x12a;" horiz-adv-x="303" 
d="M12 0l10 55h64l99 570h-65l9 55h206l-9 -55h-69l-100 -570h71l-10 -55h-206zM145 774l10 54h210l-10 -54h-210z" />
    <glyph glyph-name="imacron" unicode="&#x12b;" horiz-adv-x="247" 
d="M61 516l10 54h188l-10 -54h-188zM136 0q-45 0 -61 22t-8 70l47 267h-68l9 55h137l-58 -328q-6 -32 20 -32h40l-9 -54h-49z" />
    <glyph glyph-name="Iogonek" unicode="&#x12e;" horiz-adv-x="303" 
d="M12 0l10 55h64l99 570h-65l9 55h206l-9 -55h-69l-100 -570h71l-10 -55h-70q-57 -58 -73.5 -82t-16.5 -47q0 -18 11.5 -29t30.5 -11q29 0 50 32l40 -26q-31 -56 -97 -56q-40 0 -67 22.5t-27 62.5q0 33 20.5 61.5t69.5 72.5h-77z" />
    <glyph glyph-name="iogonek" unicode="&#x12f;" horiz-adv-x="247" 
d="M83 -225q-40 0 -67.5 22.5t-27.5 62.5q0 34 24 68.5t77 80.5q-34 19 -22 83l47 267h-69l10 55h137l-58 -328q-6 -32 20 -32h40l-9 -54h-47q-54 -56 -72 -83.5t-18 -51.5q0 -18 11.5 -29t29.5 -11q29 0 50 32l40 -26q-31 -56 -96 -56zM188 535q-20 0 -34.5 13.5
t-14.5 34.5t14.5 35t34.5 14q19 0 33.5 -14t14.5 -35t-14.5 -34.5t-33.5 -13.5z" />
    <glyph glyph-name="Idotaccent" unicode="&#x130;" horiz-adv-x="303" 
d="M12 0l10 55h64l99 570h-65l9 55h206l-9 -55h-69l-100 -570h71l-10 -55h-206zM251 743q-18 0 -32 13.5t-14 32.5t14 32.5t32 13.5t31.5 -13.5t13.5 -32.5t-13.5 -32.5t-31.5 -13.5z" />
    <glyph glyph-name="dotlessi" unicode="&#x131;" horiz-adv-x="247" 
d="M136 0q-45 0 -61 22t-8 70l47 267h-68l9 55h137l-58 -328q-6 -32 20 -32h40l-9 -54h-49z" />
    <glyph glyph-name="Jcircumflex" unicode="&#x134;" horiz-adv-x="464" 
d="M277 754l159 193h9l96 -193h-57l-55 104l-91 -104h-61zM159 -8q-63 0 -106 29.5t-63 74.5l60 33q38 -75 111 -75q95 0 114 105l82 466h-76l9 55h209l-9 -55h-63l-83 -471q-27 -162 -185 -162z" />
    <glyph glyph-name="jcircumflex" unicode="&#x135;" horiz-adv-x="234" 
d="M-14 -222q-60 0 -91 39l43 41q21 -25 46 -25q20 0 31.5 13t17.5 45l82 468h-68l9 55h137l-92 -521q-19 -115 -115 -115zM36 496l159 193h9l96 -193h-57l-55 104l-91 -104h-61z" />
    <glyph glyph-name="Kcommaaccent" unicode="&#x136;" horiz-adv-x="634" 
d="M661 625h-68l-248 -252l188 -318h61l-9 -55h-191l9 55h50l-160 272l-109 -107l-28 -165h71l-9 -55h-205l9 55h63l99 570h-64l9 55h206l-9 -55h-70l-45 -253q-3 -18 -19 -81q40 49 61 70l263 265h-56l9 54h201zM227 -256l48 102q-28 9 -28 45q0 21 15.5 35.5t34.5 14.5
q22 0 36 -13.5t14 -35.5q0 -23 -17 -48l-65 -100h-38z" />
    <glyph glyph-name="kcommaaccent" unicode="&#x137;" horiz-adv-x="478" 
d="M131 -256l48 102q-28 9 -28 45q0 21 15.5 35.5t34.5 14.5q22 0 36 -13.5t14 -35.5q0 -23 -17 -48l-65 -100h-38zM48 0l116 668h-69l10 54h137l-84 -478q-8 -42 -14 -59l193 174h-58l9 55h179l-9 -55h-50l-136 -127l89 -156q13 -22 36 -22h31l-9 -54h-37q-29 0 -45.5 9.5
t-31.5 37.5l-84 145l-84 -74l-21 -118h-68z" />
    <glyph glyph-name="Lacute" unicode="&#x139;" horiz-adv-x="526" 
d="M218 752l98 193h84l-127 -193h-55zM13 0l9 55h63l99 570h-64l9 55h208l-9 -55h-72l-99 -566h249l28 109h56l-29 -168h-448z" />
    <glyph glyph-name="lacute" unicode="&#x13a;" horiz-adv-x="244" 
d="M182 772l98 193h84l-127 -193h-55zM130 0q-45 0 -61 22t-8 70l102 576h-69l9 54h138l-113 -636q-6 -32 19 -32h45l-9 -54h-53z" />
    <glyph glyph-name="Lcommaaccent" unicode="&#x13b;" horiz-adv-x="526" 
d="M164 -256l48 102q-28 9 -28 45q0 21 15.5 35.5t34.5 14.5q22 0 36 -13.5t14 -35.5q0 -23 -17 -48l-65 -100h-38zM13 0l9 55h63l99 570h-64l9 55h208l-9 -55h-72l-99 -566h249l28 109h56l-29 -168h-448z" />
    <glyph glyph-name="lcommaaccent" unicode="&#x13c;" horiz-adv-x="244" 
d="M28 -256l48 102q-28 9 -28 45q0 21 15.5 35.5t34.5 14.5q22 0 36 -13.5t14 -35.5q0 -23 -17 -48l-65 -100h-38zM130 0q-45 0 -61 22t-8 70l102 576h-69l9 54h138l-113 -636q-6 -32 19 -32h45l-9 -54h-53z" />
    <glyph glyph-name="Lcaron" unicode="&#x13d;" horiz-adv-x="523" 
d="M394 489l48 101q-30 12 -30 47q0 21 15.5 35.5t36.5 14.5q22 0 36 -14t14 -36q0 -21 -17 -48l-66 -100h-37zM13 0l9 55h63l99 570h-64l9 55h208l-9 -55h-72l-99 -566h249l28 109h56l-29 -168h-448z" />
    <glyph glyph-name="lcaron" unicode="&#x13e;" horiz-adv-x="244" 
d="M275 527l47 102q-29 11 -29 46q0 21 15.5 35.5t35.5 14.5q22 0 36.5 -14t14.5 -36q0 -21 -18 -48l-64 -100h-38zM130 0q-45 0 -61 22t-8 70l102 576h-69l9 54h138l-113 -636q-6 -32 19 -32h45l-9 -54h-53z" />
    <glyph glyph-name="Lslash" unicode="&#x141;" horiz-adv-x="526" 
d="M39 225l11 66l81 30l53 304h-64l9 55h208l-9 -55h-72l-48 -276l202 75l-13 -65l-201 -76l-39 -224h249l28 109h56l-29 -168h-448l9 55h63l35 200z" />
    <glyph glyph-name="lslash" unicode="&#x142;" horiz-adv-x="268" 
d="M30 223l12 68l72 42l60 335h-69l9 54h138l-62 -345l87 50l-13 -68l-86 -50l-39 -223q-6 -32 19 -32h45l-9 -54h-53q-45 0 -61 22t-8 70l30 173z" />
    <glyph glyph-name="Nacute" unicode="&#x143;" horiz-adv-x="750" 
d="M12 0l10 55h63l99 570h-67l9 55h133l268 -510q23 -45 29 -71q0 29 8 76l79 450h-69l9 55h196l-9 -55h-63l-109 -625h-56l-269 510q-30 56 -35 79q0 -33 -13 -101l-76 -433h74l-9 -55h-202zM430 756l98 193h84l-127 -193h-55z" />
    <glyph glyph-name="nacute" unicode="&#x144;" horiz-adv-x="525" 
d="M280 498l98 193h84l-127 -193h-55zM52 0l62 359h-67l9 55h135l-13 -75q54 84 145 84q70 0 108 -50t23 -134l-27 -153q-6 -32 20 -32h37l-9 -54h-46q-45 0 -61 22.5t-8 69.5l25 144q11 60 -11 94.5t-74 34.5q-114 0 -139 -132l-41 -233h-68z" />
    <glyph glyph-name="Ncommaaccent" unicode="&#x145;" horiz-adv-x="750" 
d="M12 0l10 55h63l99 570h-67l9 55h133l268 -510q23 -45 29 -71q0 29 8 76l79 450h-69l9 55h196l-9 -55h-63l-109 -625h-56l-269 510q-30 56 -35 79q0 -33 -13 -101l-76 -433h74l-9 -55h-202zM265 -256l48 102q-28 9 -28 45q0 21 15.5 35.5t34.5 14.5q22 0 36 -13.5
t14 -35.5q0 -23 -17 -48l-65 -100h-38z" />
    <glyph glyph-name="ncommaaccent" unicode="&#x146;" horiz-adv-x="525" 
d="M171 -256l48 102q-28 9 -28 45q0 21 15.5 35.5t34.5 14.5q22 0 36 -13.5t14 -35.5q0 -23 -17 -48l-65 -100h-38zM52 0l62 359h-67l9 55h135l-13 -75q54 84 145 84q70 0 108 -50t23 -134l-27 -153q-6 -32 20 -32h37l-9 -54h-46q-45 0 -61 22.5t-8 69.5l25 144
q11 60 -11 94.5t-74 34.5q-114 0 -139 -132l-41 -233h-68z" />
    <glyph glyph-name="Ncaron" unicode="&#x147;" horiz-adv-x="750" 
d="M12 0l10 55h63l99 570h-67l9 55h133l268 -510q8 -16 15.5 -33.5t10.5 -27.5l3 -10q2 40 8 76l79 450h-69l9 55h196l-9 -55h-63l-109 -625h-56l-269 510q-30 56 -35 79q0 -33 -13 -101l-76 -433h74l-9 -55h-202zM623 939l-159 -193h-9l-96 193h57l55 -104l91 104h61z" />
    <glyph glyph-name="ncaron" unicode="&#x148;" horiz-adv-x="525" 
d="M466 681l-159 -193h-9l-96 193h57l55 -104l91 104h61zM52 0l62 359h-67l9 55h135l-13 -75q54 84 145 84q70 0 108 -50t23 -134l-27 -153q-6 -32 20 -32h37l-9 -54h-46q-45 0 -61 22.5t-8 69.5l25 144q11 60 -11 94.5t-74 34.5q-114 0 -139 -132l-41 -233h-68z" />
    <glyph glyph-name="Omacron" unicode="&#x14c;" horiz-adv-x="786" 
d="M356 774l10 54h210l-10 -54h-210zM397 54q123 0 206 90t83 223q0 115 -69 187.5t-182 72.5q-122 0 -205.5 -89.5t-83.5 -221.5q0 -116 69 -189t182 -73zM393 -8q-137 0 -228 89.5t-91 229.5q0 162 105 269.5t259 107.5q137 0 228.5 -89t91.5 -229q0 -163 -105 -270.5
t-260 -107.5z" />
    <glyph glyph-name="omacron" unicode="&#x14d;" horiz-adv-x="521" 
d="M187 516l10 54h210l-10 -54h-210zM253 47q68 0 110.5 48.5t42.5 122.5q0 65 -37.5 107t-99.5 42q-67 0 -111 -48.5t-44 -122.5q0 -65 38.5 -107t100.5 -42zM252 -8q-88 0 -147.5 59t-59.5 145q0 96 66 161.5t160 65.5q87 0 146 -59.5t59 -145.5q0 -97 -65 -161.5
t-159 -64.5z" />
    <glyph glyph-name="Ohungarumlaut" unicode="&#x150;" horiz-adv-x="786" 
d="M356 756l100 193h77l-122 -193h-55zM493 756l101 193h76l-122 -193h-55zM397 54q123 0 206 90t83 223q0 115 -69 187.5t-182 72.5q-122 0 -205.5 -89.5t-83.5 -221.5q0 -116 69 -189t182 -73zM393 -8q-137 0 -228 89.5t-91 229.5q0 162 105 269.5t259 107.5
q137 0 228.5 -89t91.5 -229q0 -163 -105 -270.5t-260 -107.5z" />
    <glyph glyph-name="ohungarumlaut" unicode="&#x151;" horiz-adv-x="521" 
d="M188 498l100 193h77l-122 -193h-55zM325 498l101 193h76l-122 -193h-55zM253 47q68 0 110.5 48.5t42.5 122.5q0 65 -37.5 107t-99.5 42q-67 0 -111 -48.5t-44 -122.5q0 -65 38.5 -107t100.5 -42zM252 -8q-88 0 -147.5 59t-59.5 145q0 96 66 161.5t160 65.5
q87 0 146 -59.5t59 -145.5q0 -97 -65 -161.5t-159 -64.5z" />
    <glyph glyph-name="OE" unicode="&#x152;" horiz-adv-x="977" 
d="M386 0q-148 0 -230 82t-82 220q0 172 107 275t288 103h528l-25 -148h-55l6 90h-271l-44 -251h286l-10 -58h-286l-44 -255h281l30 101h55l-28 -159h-506zM393 58h90l99 564h-108q-159 0 -242.5 -89t-83.5 -233q0 -110 61 -176t184 -66z" />
    <glyph glyph-name="oe" unicode="&#x153;" horiz-adv-x="860" 
d="M251 -8q-87 0 -146.5 59t-59.5 145q0 96 65.5 161.5t159.5 65.5q60 0 106 -32t68 -85q25 53 73.5 85t108.5 32q97 0 148.5 -66.5t40.5 -168.5h-340q0 -62 38.5 -101.5t100.5 -39.5q82 0 131 52l39 -40q-65 -67 -173 -67q-63 0 -109 30.5t-66 84.5q-27 -53 -76 -84
t-109 -31zM253 47q68 0 110.5 48.5t42.5 122.5q0 65 -37.5 107t-99.5 42q-67 0 -111 -48.5t-44 -122.5q0 -65 38.5 -107t100.5 -42zM624 369q-56 0 -96 -36t-51 -94h272q-2 59 -34 94.5t-91 35.5z" />
    <glyph glyph-name="Racute" unicode="&#x154;" horiz-adv-x="628" 
d="M347 756l98 193h84l-127 -193h-55zM13 0l9 55h63l99 570h-64l9 55h239q104 0 163 -49t59 -140q0 -81 -44 -134.5t-124 -75.5l107 -226h67l-9 -55h-110l-129 272q-16 -1 -32 -1h-123l-37 -216h72l-9 -55h-206zM203 327h123q92 0 141.5 41.5t49.5 120.5q0 64 -39.5 99
t-115.5 35h-106z" />
    <glyph glyph-name="racute" unicode="&#x155;" horiz-adv-x="353" 
d="M195 498l98 193h84l-127 -193h-55zM52 0l63 359h-68l9 55h133l-16 -89q43 97 128 97q28 0 50 -12l-23 -62q-21 12 -43 12q-49 0 -81.5 -37t-45.5 -106l-38 -217h-68z" />
    <glyph glyph-name="Rcommaaccent" unicode="&#x156;" horiz-adv-x="628" 
d="M235 -256l48 102q-28 9 -28 45q0 21 15.5 35.5t34.5 14.5q22 0 36 -13.5t14 -35.5q0 -23 -17 -48l-65 -100h-38zM13 0l9 55h63l99 570h-64l9 55h239q104 0 163 -49t59 -140q0 -81 -44 -134.5t-124 -75.5l107 -226h67l-9 -55h-110l-129 272q-16 -1 -32 -1h-123l-37 -216
h72l-9 -55h-206zM203 327h123q92 0 141.5 41.5t49.5 120.5q0 64 -39.5 99t-115.5 35h-106z" />
    <glyph glyph-name="rcommaaccent" unicode="&#x157;" horiz-adv-x="353" 
d="M8 -256l48 102q-28 9 -28 45q0 21 15.5 35.5t34.5 14.5q22 0 36 -13.5t14 -35.5q0 -23 -17 -48l-65 -100h-38zM52 0l63 359h-68l9 55h133l-16 -89q43 97 128 97q28 0 50 -12l-23 -62q-21 12 -43 12q-49 0 -81.5 -37t-45.5 -106l-38 -217h-68z" />
    <glyph glyph-name="Rcaron" unicode="&#x158;" horiz-adv-x="628" 
d="M535 939l-159 -193h-9l-96 193h57l55 -104l91 104h61zM13 0l9 55h63l99 570h-64l9 55h239q104 0 163 -49t59 -140q0 -81 -44 -134.5t-124 -75.5l107 -226h67l-9 -55h-110l-129 272q-16 -1 -32 -1h-123l-37 -216h72l-9 -55h-206zM203 327h123q92 0 141.5 41.5t49.5 120.5
q0 64 -39.5 99t-115.5 35h-106z" />
    <glyph glyph-name="rcaron" unicode="&#x159;" horiz-adv-x="353" 
d="M389 681l-159 -193h-9l-96 193h57l55 -104l91 104h61zM52 0l63 359h-68l9 55h133l-16 -89q43 97 128 97q28 0 50 -12l-23 -62q-21 12 -43 12q-49 0 -81.5 -37t-45.5 -106l-38 -217h-68z" />
    <glyph glyph-name="Sacute" unicode="&#x15a;" horiz-adv-x="535" 
d="M324 756l98 193h84l-127 -193h-55zM270 -8q-131 0 -177 89l-27 -81h-51l33 191h60q10 -70 53 -105t106 -35t101.5 34t38.5 87q0 44 -23.5 74.5t-81.5 67.5l-48 30q-60 38 -88.5 78t-28.5 102q0 71 53 117.5t125 46.5q104 0 141 -72l18 64h51l-29 -170h-58
q-12 121 -121 120q-48 -1 -79.5 -28.5t-31.5 -72.5q0 -42 20.5 -69t71.5 -59l46 -28q70 -44 101.5 -88.5t31.5 -106.5q0 -81 -57 -133.5t-150 -52.5z" />
    <glyph glyph-name="sacute" unicode="&#x15b;" horiz-adv-x="411" 
d="M214 498l98 193h84l-127 -193h-55zM203 -8q-92 0 -128 54l-14 -46h-47l23 129h53q4 -44 34 -64t75 -20q38 0 61.5 16.5t23.5 46.5q0 26 -19.5 41.5t-73.5 38.5q-58 25 -85 53t-27 70q0 53 38.5 82.5t93.5 29.5q77 0 107 -49l11 40h46l-19 -112h-49q-14 68 -90 68
q-34 0 -54 -13.5t-20 -38.5q0 -24 17.5 -38.5t68.5 -36.5q65 -28 93.5 -53.5t28.5 -73.5q0 -57 -38.5 -90.5t-109.5 -33.5z" />
    <glyph glyph-name="Scircumflex" unicode="&#x15c;" horiz-adv-x="535" 
d="M223 754l159 193h9l96 -193h-57l-55 104l-91 -104h-61zM270 -8q-131 0 -177 89l-27 -81h-51l33 191h60q10 -70 53 -105t106 -35t101.5 34t38.5 87q0 44 -23.5 74.5t-81.5 67.5l-48 30q-60 38 -88.5 78t-28.5 102q0 71 53 117.5t125 46.5q104 0 141 -72l18 64h51l-29 -170
h-58q-12 121 -121 120q-48 -1 -79.5 -28.5t-31.5 -72.5q0 -42 20.5 -69t71.5 -59l46 -28q70 -44 101.5 -88.5t31.5 -106.5q0 -81 -57 -133.5t-150 -52.5z" />
    <glyph glyph-name="scircumflex" unicode="&#x15d;" horiz-adv-x="411" 
d="M114 496l159 193h9l96 -193h-57l-55 104l-91 -104h-61zM203 -8q-92 0 -128 54l-14 -46h-47l23 129h53q4 -44 34 -64t75 -20q38 0 61.5 16.5t23.5 46.5q0 26 -19.5 41.5t-73.5 38.5q-58 25 -85 53t-27 70q0 53 38.5 82.5t93.5 29.5q77 0 107 -49l11 40h46l-19 -112h-49
q-14 68 -90 68q-34 0 -54 -13.5t-20 -38.5q0 -24 17.5 -38.5t68.5 -36.5q65 -28 93.5 -53.5t28.5 -73.5q0 -57 -38.5 -90.5t-109.5 -33.5z" />
    <glyph glyph-name="Scedilla" unicode="&#x15e;" horiz-adv-x="535" 
d="M270 -8q-9 0 -18 1l-7 -46q30 -6 50 -29t20 -58q0 -42 -28.5 -67t-68.5 -25q-38 0 -64.5 17t-37.5 43l45 26q18 -39 55 -39q20 0 31.5 12t11.5 33q0 45 -54 45h-17l16 95q-78 17 -111 81l-27 -81h-51l33 191h60q10 -70 53 -105t106 -35t101.5 34t38.5 87q0 44 -23.5 74.5
t-81.5 67.5l-48 30q-60 38 -88.5 78t-28.5 102q0 71 53 117.5t125 46.5q104 0 141 -72l18 64h51l-29 -170h-58q-12 121 -121 120q-48 -1 -79.5 -28.5t-31.5 -72.5q0 -42 20.5 -69t71.5 -59l46 -28q70 -44 101.5 -88.5t31.5 -106.5q0 -81 -57 -133.5t-150 -52.5z" />
    <glyph glyph-name="scedilla" unicode="&#x15f;" horiz-adv-x="411" 
d="M203 -8h-6l-7 -45q30 -6 50 -29t20 -58q0 -42 -28.5 -67t-68.5 -25q-38 0 -64.5 17t-37.5 43l45 26q18 -39 55 -39q20 0 31.5 12t11.5 33q0 45 -54 45h-17l15 93q-48 11 -73 48l-14 -46h-47l23 129h53q4 -44 34 -64t75 -20q38 0 61.5 16.5t23.5 46.5q0 26 -19.5 41.5
t-73.5 38.5q-58 25 -85 53t-27 70q0 53 38.5 82.5t93.5 29.5q77 0 107 -49l11 40h46l-19 -112h-49q-14 68 -90 68q-34 0 -54 -13.5t-20 -38.5q0 -24 17.5 -38.5t68.5 -36.5q65 -28 93.5 -53.5t28.5 -73.5q0 -57 -38.5 -90.5t-109.5 -33.5z" />
    <glyph glyph-name="Scaron" unicode="&#x160;" horiz-adv-x="535" 
d="M518 939l-159 -193h-9l-96 193h57l55 -104l91 104h61zM270 -8q-131 0 -177 89l-27 -81h-51l33 191h60q10 -70 53 -105t106 -35t101.5 34t38.5 87q0 44 -23.5 74.5t-81.5 67.5l-48 30q-60 38 -88.5 78t-28.5 102q0 71 53 117.5t125 46.5q104 0 141 -72l18 64h51l-29 -170
h-58q-12 121 -121 120q-48 -1 -79.5 -28.5t-31.5 -72.5q0 -42 20.5 -69t71.5 -59l46 -28q70 -44 101.5 -88.5t31.5 -106.5q0 -81 -57 -133.5t-150 -52.5z" />
    <glyph glyph-name="scaron" unicode="&#x161;" horiz-adv-x="411" 
d="M406 681l-159 -193h-9l-96 193h57l55 -104l91 104h61zM203 -8q-92 0 -128 54l-14 -46h-47l23 129h53q4 -44 34 -64t75 -20q38 0 61.5 16.5t23.5 46.5q0 26 -19.5 41.5t-73.5 38.5q-58 25 -85 53t-27 70q0 53 38.5 82.5t93.5 29.5q77 0 107 -49l11 40h46l-19 -112h-49
q-14 68 -90 68q-34 0 -54 -13.5t-20 -38.5q0 -24 17.5 -38.5t68.5 -36.5q65 -28 93.5 -53.5t28.5 -73.5q0 -57 -38.5 -90.5t-109.5 -33.5z" />
    <glyph glyph-name="Tcommaaccent" unicode="&#x162;" horiz-adv-x="570" 
d="M163 -256l48 102q-28 9 -28 45q0 21 15.5 35.5t34.5 14.5q22 0 36 -13.5t14 -35.5q0 -23 -17 -48l-65 -100h-38zM142 0l9 55h70l100 568h-152l-26 -101h-52l29 158h493l-27 -158h-52l10 101h-152l-100 -568h70l-9 -55h-211z" />
    <glyph glyph-name="tcommaaccent" unicode="&#x163;" horiz-adv-x="318" 
d="M60 -256l48 102q-28 9 -28 45q0 21 15.5 35.5t34.5 14.5q22 0 36 -13.5t14 -35.5q0 -23 -17 -48l-65 -100h-38zM169 -8q-53 0 -80.5 33.5t-15.5 102.5l41 232h-61l9 54h62l25 146h68l-26 -146h112l-9 -54h-112l-42 -235q-14 -78 40 -78q28 0 56 24l29 -44
q-39 -35 -96 -35z" />
    <glyph glyph-name="Tcaron" unicode="&#x164;" horiz-adv-x="570" 
d="M531 939l-159 -193h-9l-96 193h57l55 -104l91 104h61zM142 0l9 55h70l100 568h-152l-26 -101h-52l29 158h493l-27 -158h-52l10 101h-152l-100 -568h70l-9 -55h-211z" />
    <glyph glyph-name="tcaron" unicode="&#x165;" horiz-adv-x="318" 
d="M288 527l47 102q-29 10 -29 46q0 21 15 35.5t36 14.5q22 0 36 -14t14 -36q0 -21 -18 -48l-64 -100h-37zM169 -8q-53 0 -80.5 33.5t-15.5 102.5l41 232h-61l9 54h62l25 146h68l-26 -146h112l-9 -54h-112l-42 -235q-14 -78 40 -78q28 0 56 24l29 -44q-39 -35 -96 -35z" />
    <glyph glyph-name="Umacron" unicode="&#x16a;" horiz-adv-x="675" 
d="M320 -8q-114 0 -178 68t-42 191l65 374h-65l9 55h205l-9 -55h-68l-66 -376q-17 -96 25.5 -147t126.5 -51q74 0 118.5 38t59.5 123l72 413h-70l9 55h203l-9 -55h-65l-73 -418q-37 -215 -248 -215zM320 774l10 54h210l-10 -54h-210z" />
    <glyph glyph-name="umacron" unicode="&#x16b;" horiz-adv-x="524" 
d="M201 -9q-70 0 -107.5 50t-23.5 132l32 186h-59l9 55h128l-42 -236q-11 -61 11.5 -95t74.5 -34q55 0 91 34.5t47 97.5l33 178h-65l9 55h133l-58 -328q-6 -32 19 -32h39l-10 -54h-46q-77 0 -68 75l1 7q-54 -91 -148 -91zM184 516l10 54h210l-10 -54h-210z" />
    <glyph glyph-name="Ubreve" unicode="&#x16c;" horiz-adv-x="675" 
d="M320 -8q-114 0 -178 68t-42 191l65 374h-65l9 55h205l-9 -55h-68l-66 -376q-17 -96 25.5 -147t126.5 -51q74 0 118.5 38t59.5 123l72 413h-70l9 55h203l-9 -55h-65l-73 -418q-37 -215 -248 -215zM424 747q-54 0 -86 33.5t-36 83.5l56 9q5 -34 19.5 -52.5t46.5 -18.5
q61 0 79 71l56 -10q-11 -50 -46 -83t-89 -33z" />
    <glyph glyph-name="ubreve" unicode="&#x16d;" horiz-adv-x="524" 
d="M201 -9q-70 0 -107.5 50t-23.5 132l32 186h-59l9 55h128l-42 -236q-11 -61 11.5 -95t74.5 -34q55 0 91 34.5t47 97.5l33 178h-65l9 55h133l-58 -328q-6 -32 19 -32h39l-10 -54h-46q-77 0 -68 75l1 7q-54 -91 -148 -91zM287 489q-54 0 -86 33.5t-36 83.5l56 9
q5 -34 19.5 -52.5t46.5 -18.5q61 0 79 71l56 -10q-11 -50 -46 -83t-89 -33z" />
    <glyph glyph-name="Uring" unicode="&#x16e;" horiz-adv-x="675" 
d="M429 783q24 0 39.5 16t15.5 43t-15.5 43t-39.5 16q-25 0 -40.5 -16t-15.5 -43t15.5 -43t40.5 -16zM429 742q-44 0 -74.5 29.5t-30.5 70.5q0 42 30.5 71.5t74.5 29.5q43 0 73.5 -29.5t30.5 -71.5q0 -41 -30.5 -70.5t-73.5 -29.5zM320 -8q-114 0 -178 68t-42 191l65 374
h-65l9 55h205l-9 -55h-68l-66 -376q-17 -96 25.5 -147t126.5 -51q74 0 118.5 38t59.5 123l72 413h-70l9 55h203l-9 -55h-65l-73 -418q-37 -215 -248 -215z" />
    <glyph glyph-name="uring" unicode="&#x16f;" horiz-adv-x="524" 
d="M296 525q24 0 39.5 16t15.5 43t-15.5 43t-39.5 16q-25 0 -40.5 -16t-15.5 -43t15.5 -43t40.5 -16zM296 484q-44 0 -74.5 29.5t-30.5 70.5q0 42 30.5 71.5t74.5 29.5q43 0 73.5 -29.5t30.5 -71.5q0 -41 -30.5 -70.5t-73.5 -29.5zM201 -9q-70 0 -107.5 50t-23.5 132l32 186
h-59l9 55h128l-42 -236q-11 -61 11.5 -95t74.5 -34q55 0 91 34.5t47 97.5l33 178h-65l9 55h133l-58 -328q-6 -32 19 -32h39l-10 -54h-46q-77 0 -68 75l1 7q-54 -91 -148 -91z" />
    <glyph glyph-name="Uhungarumlaut" unicode="&#x170;" horiz-adv-x="675" 
d="M320 -8q-114 0 -178 68t-42 191l65 374h-65l9 55h205l-9 -55h-68l-66 -376q-17 -96 25.5 -147t126.5 -51q74 0 118.5 38t59.5 123l72 413h-70l9 55h203l-9 -55h-65l-73 -418q-37 -215 -248 -215zM323 756l100 193h77l-122 -193h-55zM460 756l101 193h76l-122 -193h-55z
" />
    <glyph glyph-name="uhungarumlaut" unicode="&#x171;" horiz-adv-x="524" 
d="M201 -9q-70 0 -107.5 50t-23.5 132l32 186h-59l9 55h128l-42 -236q-11 -61 11.5 -95t74.5 -34q55 0 91 34.5t47 97.5l33 178h-65l9 55h133l-58 -328q-6 -32 19 -32h39l-10 -54h-46q-77 0 -68 75l1 7q-54 -91 -148 -91zM190 498l100 193h77l-122 -193h-55zM327 498
l101 193h76l-122 -193h-55z" />
    <glyph glyph-name="Uogonek" unicode="&#x172;" horiz-adv-x="675" 
d="M306 -219q-40 0 -67 22.5t-27 62.5q0 32 18.5 59.5t63.5 67.5q-104 8 -159 75t-35 183l65 374h-65l9 55h205l-9 -55h-68l-66 -376q-17 -96 25.5 -147t126.5 -51q74 0 118.5 38t59.5 123l72 413h-70l9 55h203l-9 -55h-65l-73 -418q-35 -199 -214 -213q-52 -54 -67.5 -77
t-15.5 -46q0 -18 11.5 -29t30.5 -11q29 0 50 32l40 -26q-31 -56 -97 -56z" />
    <glyph glyph-name="uogonek" unicode="&#x173;" horiz-adv-x="524" 
d="M355 -225q-40 0 -67 22.5t-27 62.5q0 34 24 69t81 84q-23 17 -18 61l1 8q-54 -91 -148 -91q-70 0 -107.5 50t-23.5 132l32 186h-60l10 55h128l-42 -236q-11 -61 11.5 -95t74.5 -34q55 0 91 34.5t47 97.5l33 180h-66l9 53h134l-58 -328q-6 -32 19 -32h39l-10 -54h-51
q-55 -56 -73 -83.5t-18 -51.5q0 -18 12 -29t30 -11q29 0 50 32l40 -26q-31 -56 -97 -56z" />
    <glyph glyph-name="Ydieresis" unicode="&#x178;" horiz-adv-x="625" 
d="M165 0l9 55h72l35 198l-140 372h-57l10 55h197l-9 -55h-65l96 -262q4 -11 8 -26t6.5 -24t2.5 -10q0 8 35 57l189 265h-71l10 55h199l-9 -55h-54l-279 -381l-32 -189h72l-9 -55h-216zM502 774q-18 0 -32 13.5t-14 32.5t14 32.5t32 13.5q19 0 32.5 -13.5t13.5 -32.5
t-13.5 -32.5t-32.5 -13.5zM330 774q-18 0 -32 13.5t-14 32.5t14 32.5t32 13.5q19 0 32.5 -13.5t13.5 -32.5t-13.5 -32.5t-32.5 -13.5z" />
    <glyph glyph-name="Zacute" unicode="&#x179;" horiz-adv-x="578" 
d="M343 756l98 193h84l-127 -193h-55zM6 0l6 42l486 582h-295l-25 -94h-56l26 150h453l-7 -40l-489 -584h340l29 107h55l-29 -163h-494z" />
    <glyph glyph-name="zacute" unicode="&#x17a;" horiz-adv-x="455" 
d="M248 498l98 193h84l-127 -193h-55zM12 0l7 39l317 322h-187l-17 -64h-47l21 117h332l-7 -41l-319 -321h211l19 69h48l-21 -121h-357z" />
    <glyph glyph-name="Zdotaccent" unicode="&#x17b;" horiz-adv-x="578" 
d="M6 0l6 42l486 582h-295l-25 -94h-56l26 150h453l-7 -40l-489 -584h340l29 107h55l-29 -163h-494zM380 743q-18 0 -32 13.5t-14 32.5t14 32.5t32 13.5t31.5 -13.5t13.5 -32.5t-13.5 -32.5t-31.5 -13.5z" />
    <glyph glyph-name="zdotaccent" unicode="&#x17c;" horiz-adv-x="455" 
d="M12 0l7 39l317 322h-187l-17 -64h-47l21 117h332l-7 -41l-319 -321h211l19 69h48l-21 -121h-357zM292 516q-18 0 -32 13.5t-14 32.5t14 32.5t32 13.5t31.5 -13.5t13.5 -32.5t-13.5 -32.5t-31.5 -13.5z" />
    <glyph glyph-name="Zcaron" unicode="&#x17d;" horiz-adv-x="578" 
d="M536 939l-159 -193h-9l-96 193h57l55 -104l91 104h61zM6 0l6 42l486 582h-295l-25 -94h-56l26 150h453l-7 -40l-489 -584h340l29 107h55l-29 -163h-494z" />
    <glyph glyph-name="zcaron" unicode="&#x17e;" horiz-adv-x="455" 
d="M442 681l-159 -193h-9l-96 193h57l55 -104l91 104h61zM12 0l7 39l317 322h-187l-17 -64h-47l21 117h332l-7 -41l-319 -321h211l19 69h48l-21 -121h-357z" />
    <glyph glyph-name="florin" unicode="&#x192;" horiz-adv-x="345" 
d="M46 -212l74 416h-70l10 56h69l41 231q22 127 121 127q66 0 100 -55l-45 -34q-23 34 -52 34q-24 0 -37 -15.5t-20 -56.5l-41 -231h94l-9 -56h-94l-73 -416h-68z" />
    <glyph glyph-name="Scommaaccent" unicode="&#x218;" horiz-adv-x="535" 
d="M141 -256l48 102q-28 9 -28 45q0 21 15.5 35.5t34.5 14.5q22 0 36 -13.5t14 -35.5q0 -23 -17 -48l-65 -100h-38zM270 -8q-131 0 -177 89l-27 -81h-51l33 191h60q10 -70 53 -105t106 -35t101.5 34t38.5 87q0 44 -23.5 74.5t-81.5 67.5l-48 30q-60 38 -88.5 78t-28.5 102
q0 71 53 117.5t125 46.5q104 0 141 -72l18 64h51l-29 -170h-58q-12 121 -121 120q-48 -1 -79.5 -28.5t-31.5 -72.5q0 -42 20.5 -69t71.5 -59l46 -28q70 -44 101.5 -88.5t31.5 -106.5q0 -81 -57 -133.5t-150 -52.5z" />
    <glyph glyph-name="scommaaccent" unicode="&#x219;" horiz-adv-x="411" 
d="M93 -256l48 102q-28 9 -28 45q0 21 15.5 35.5t34.5 14.5q22 0 36 -13.5t14 -35.5q0 -23 -17 -48l-65 -100h-38zM203 -8q-92 0 -128 54l-14 -46h-47l23 129h53q4 -44 34 -64t75 -20q38 0 61.5 16.5t23.5 46.5q0 26 -19.5 41.5t-73.5 38.5q-58 25 -85 53t-27 70
q0 53 38.5 82.5t93.5 29.5q77 0 107 -49l11 40h46l-19 -112h-49q-14 68 -90 68q-34 0 -54 -13.5t-20 -38.5q0 -24 17.5 -38.5t68.5 -36.5q65 -28 93.5 -53.5t28.5 -73.5q0 -57 -38.5 -90.5t-109.5 -33.5z" />
    <glyph glyph-name="uni021A" unicode="&#x21a;" horiz-adv-x="570" 
d="M142 0l9 55h70l100 568h-152l-26 -101h-52l29 158h493l-27 -158h-52l10 101h-152l-100 -568h70l-9 -55h-81l-9 -53q30 -6 50 -29t20 -58q0 -42 -28.5 -67t-68.5 -25q-38 0 -64.5 17t-37.5 43l45 26q18 -39 55 -39q20 0 31.5 12t11.5 33q0 45 -54 45h-17l16 95h-80z" />
    <glyph glyph-name="uni021B" unicode="&#x21b;" horiz-adv-x="318" 
d="M169 -8h-3l-7 -45q30 -6 50 -29t20 -58q0 -42 -28.5 -67t-68.5 -25q-38 0 -64.5 17t-37.5 43l45 26q18 -39 55 -39q20 0 31.5 12t11.5 33q0 45 -54 45h-17l16 97q-62 29 -45 126l41 232h-61l9 54h62l25 146h68l-26 -146h112l-9 -54h-112l-42 -235q-14 -78 40 -78
q28 0 56 24l29 -44q-39 -35 -96 -35z" />
    <glyph glyph-name="uni0237" unicode="&#x237;" horiz-adv-x="234" 
d="M-14 -222q-60 0 -91 39l43 41q21 -25 46 -25q20 0 31.5 13t17.5 45l82 468h-68l9 55h137l-92 -521q-19 -115 -115 -115z" />
    <glyph glyph-name="circumflex" unicode="&#x2c6;" horiz-adv-x="402" 
d="M111 496l159 193h9l96 -193h-57l-55 104l-91 -104h-61z" />
    <glyph glyph-name="caron" unicode="&#x2c7;" horiz-adv-x="473" 
d="M440 681l-159 -193h-9l-96 193h57l55 -104l91 104h61z" />
    <glyph glyph-name="breve" unicode="&#x2d8;" horiz-adv-x="485" 
d="M287 489q-54 0 -86 33.5t-36 83.5l56 9q5 -34 19.5 -52.5t46.5 -18.5q61 0 79 71l56 -10q-11 -50 -46 -83t-89 -33z" />
    <glyph glyph-name="dotaccent" unicode="&#x2d9;" horiz-adv-x="497" 
d="M312 516q-18 0 -32 13.5t-14 32.5t14 32.5t32 13.5t31.5 -13.5t13.5 -32.5t-13.5 -32.5t-31.5 -13.5z" />
    <glyph glyph-name="ring" unicode="&#x2da;" horiz-adv-x="476" 
d="M294 525q24 0 39.5 16t15.5 43t-15.5 43t-39.5 16q-25 0 -40.5 -16t-15.5 -43t15.5 -43t40.5 -16zM294 484q-44 0 -74.5 29.5t-30.5 70.5q0 42 30.5 71.5t74.5 29.5q43 0 73.5 -29.5t30.5 -71.5q0 -41 -30.5 -70.5t-73.5 -29.5z" />
    <glyph glyph-name="ogonek" unicode="&#x2db;" horiz-adv-x="497" 
d="M223 -219q-40 0 -67 22.5t-27 62.5q0 33 20.5 61.5t69.5 72.5h59q-57 -58 -73.5 -82t-16.5 -47q0 -18 11.5 -29t30.5 -11q29 0 50 32l40 -26q-31 -56 -97 -56z" />
    <glyph glyph-name="tilde" unicode="&#x2dc;" horiz-adv-x="451" 
d="M176 492l-51 6q19 110 93 110q28 0 63 -31q3 -3 9.5 -8.5t9 -7.5t7 -5.5t7.5 -5t6.5 -2.5t7.5 -1q15 0 24 13t17 48l51 -7q-18 -110 -92 -110q-29 0 -64 31q-2 2 -7 6.5t-7 6.5t-5.5 5t-5.5 4t-5 3t-5.5 3t-5 1.5t-5.5 0.5q-14 0 -23.5 -13t-18.5 -47z" />
    <glyph glyph-name="hungarumlaut" unicode="&#x2dd;" horiz-adv-x="478" 
d="M157 498l100 193h77l-122 -193h-55zM294 498l101 193h76l-122 -193h-55z" />
    <glyph glyph-name="uni2009" unicode="&#x2009;" horiz-adv-x="105" 
 />
    <glyph glyph-name="endash" unicode="&#x2013;" horiz-adv-x="401" 
d="M43 167l9 54h315l-10 -54h-314z" />
    <glyph glyph-name="emdash" unicode="&#x2014;" horiz-adv-x="624" 
d="M43 167l9 54h538l-10 -54h-537z" />
    <glyph glyph-name="quoteleft" unicode="&#x2018;" horiz-adv-x="193" 
d="M153 475q-22 0 -36 14t-14 36q0 21 17 48l69 107h38l-52 -108q29 -12 29 -47q0 -21 -15.5 -35.5t-35.5 -14.5z" />
    <glyph glyph-name="quoteright" unicode="&#x2019;" horiz-adv-x="182" 
d="M92 482l52 108q-29 12 -29 47q0 21 15 35.5t36 14.5q22 0 36 -14t14 -36q0 -21 -17 -48l-69 -107h-38z" />
    <glyph glyph-name="quotesinglbase" unicode="&#x201a;" horiz-adv-x="181" 
d="M2 -93l46 98q-29 13 -29 47q0 21 15.5 35.5t35.5 14.5q23 0 37 -14t14 -36q0 -21 -17 -48l-64 -97h-38z" />
    <glyph glyph-name="quotedblleft" unicode="&#x201c;" horiz-adv-x="351" 
d="M153 475q-22 0 -36 14t-14 36q0 21 17 48l69 107h38l-52 -108q29 -12 29 -47q0 -21 -15.5 -35.5t-35.5 -14.5zM311 475q-22 0 -36.5 14t-14.5 36q0 21 17 48l70 107h37l-51 -108q29 -13 29 -47q0 -21 -15.5 -35.5t-35.5 -14.5z" />
    <glyph glyph-name="quotedblright" unicode="&#x201d;" horiz-adv-x="339" 
d="M92 482l52 108q-29 12 -29 47q0 21 15 35.5t36 14.5q22 0 36 -14t14 -36q0 -21 -17 -48l-69 -107h-38zM250 482l51 108q-29 13 -29 47q0 21 15.5 35.5t35.5 14.5q23 0 37 -14t14 -36q0 -21 -17 -48l-70 -107h-37z" />
    <glyph glyph-name="quotedblbase" unicode="&#x201e;" horiz-adv-x="338" 
d="M2 -93l46 98q-29 13 -29 47q0 21 15.5 35.5t35.5 14.5q23 0 37 -14t14 -36q0 -21 -17 -48l-64 -97h-38zM160 -93l46 98q-29 12 -29 47q0 21 15.5 35.5t35.5 14.5q22 0 36.5 -14t14.5 -36q0 -19 -18 -48l-64 -97h-37z" />
    <glyph glyph-name="dagger" unicode="&#x2020;" horiz-adv-x="339" 
d="M153 280l42 241h-93l8 51h94l19 108h62l-19 -108h93l-9 -51h-94l-42 -241h-61z" />
    <glyph glyph-name="daggerdbl" unicode="&#x2021;" horiz-adv-x="339" 
d="M152 280l19 106h-93l8 51h94l15 86h-93l9 52h93l19 105h62l-20 -105h94l-9 -52h-93l-16 -86h94l-9 -51h-94l-18 -106h-62z" />
    <glyph glyph-name="bullet" unicode="&#x2022;" horiz-adv-x="275" 
d="M147 168q-38 0 -65.5 27.5t-27.5 66.5q0 40 27.5 67.5t65.5 27.5t66 -27.5t28 -67.5q0 -39 -28 -66.5t-66 -27.5z" />
    <glyph glyph-name="ellipsis" unicode="&#x2026;" horiz-adv-x="594" 
d="M85 -7q-21 0 -36.5 15.5t-15.5 37.5q0 23 15.5 38.5t36.5 15.5t37 -15.5t16 -38.5q0 -22 -16 -37.5t-37 -15.5zM284 -7q-21 0 -36.5 15.5t-15.5 37.5q0 23 15.5 38.5t36.5 15.5t36.5 -15.5t15.5 -38.5q0 -22 -15.5 -37.5t-36.5 -15.5zM483 -7q-21 0 -37 15.5t-16 37.5
q0 23 16 38.5t37 15.5t36.5 -15.5t15.5 -38.5q0 -22 -15.5 -37.5t-36.5 -15.5z" />
    <glyph glyph-name="perthousand" unicode="&#x2030;" horiz-adv-x="1109" 
d="M194 271q40 0 66.5 28.5t26.5 75.5q0 41 -22 64t-58 23q-41 0 -68 -28t-27 -74q0 -41 22.5 -65t59.5 -24zM194 222q-59 0 -100 39t-41 99q0 65 46 108.5t107 43.5q59 0 100 -39t41 -98q0 -67 -45.5 -110t-107.5 -43zM161 0l401 504h64l-401 -504h-64zM579 44q40 0 67 29
t27 75q0 41 -22 64t-59 23q-40 0 -67 -28t-27 -74q0 -41 22 -65t59 -24zM579 -5q-59 0 -99.5 39t-40.5 99q0 65 45.5 108.5t107.5 43.5q59 0 99.5 -39t40.5 -98q0 -67 -45.5 -110t-107.5 -43zM920 44q40 0 66.5 28.5t26.5 75.5q0 41 -22 64t-58 23q-41 0 -68 -28t-27 -74
q0 -41 22.5 -65t59.5 -24zM920 -5q-59 0 -100 39t-41 99q0 65 46 108.5t108 43.5q59 0 99.5 -39t40.5 -98q0 -67 -45.5 -110t-107.5 -43z" />
    <glyph glyph-name="guilsinglleft" unicode="&#x2039;" horiz-adv-x="255" 
d="M111 37l-65 154v8l119 162h74l-126 -168l68 -156h-70z" />
    <glyph glyph-name="guilsinglright" unicode="&#x203a;" horiz-adv-x="255" 
d="M20 37l125 169l-68 155h70l65 -153v-8l-119 -163h-73z" />
    <glyph glyph-name="fraction" unicode="&#x2044;" horiz-adv-x="463" 
d="M-29 0l525 680h75l-525 -680h-75z" />
    <glyph glyph-name="Euro" unicode="&#x20ac;" horiz-adv-x="602" 
d="M371 455q-60 0 -106 -32t-68 -88h227l-8 -48h-232q-6 -28 -3 -69h223l-8 -48h-207q16 -56 56 -88.5t101 -32.5q95 0 152 69l46 -38q-68 -88 -199 -88q-86 0 -147 47.5t-81 130.5h-87l8 48h73q-3 39 3 69h-64l8 48h68q28 79 95 128t148 49q99 0 145 -69l17 61h50l-27 -159
h-53q-21 110 -130 110z" />
    <glyph glyph-name="trademark" unicode="&#x2122;" horiz-adv-x="721" 
d="M352 383l6 38h35l39 220h-32l7 39h71l78 -158l133 158h73l-7 -39h-27l-40 -220h37l-7 -38h-128l6 38h43l21 114l15 73l-122 -147h-14l-72 147q-3 -33 -11 -74l-21 -113h42l-6 -38h-119zM120 383l7 38h44l38 218h-64l-12 -47h-35l15 88h256l-15 -88h-36l4 47h-62l-38 -218
h41l-6 -38h-137z" />
    <glyph glyph-name="summation" unicode="&#x2211;" horiz-adv-x="583" 
d="M12 0l8 40l316 310l-212 292l6 38h464l-27 -148h-53l6 90h-249l-60 3q21 -22 39 -47l160 -222l-2 -22l-237 -233l-54 -46q36 4 71 4h247l26 100h56l-28 -159h-477z" />
    <glyph glyph-name="minus" unicode="&#x2212;" horiz-adv-x="370" 
d="M42 224l10 57h292l-10 -57h-292z" />
    <glyph glyph-name="space_uni0326" 
d="M118 -256l48 102q-28 9 -28 45q0 21 15.5 35.5t34.5 14.5q22 0 36 -13.5t14 -35.5q0 -23 -17 -48l-65 -100h-38z" />
    <glyph glyph-name="idotaccent" horiz-adv-x="247" 
d="M136 0q-45 0 -61 22t-8 70l47 267h-68l9 55h137l-58 -328q-6 -32 20 -32h40l-9 -54h-49zM188 535q-20 0 -34.5 13.5t-14.5 34.5t14.5 35t34.5 14q19 0 33.5 -14t14.5 -35t-14.5 -34.5t-33.5 -13.5z" />
    <glyph glyph-name="space.lining" horiz-adv-x="237" 
 />
    <glyph glyph-name="dollar.lining" horiz-adv-x="551" 
d="M190 -116l20 115q-87 18 -120 92l-22 -91h-51l33 191h57q11 -111 113 -136l49 281l-7 5q-63 38 -92.5 78t-29.5 98q0 77 52 124t127 47q2 0 6 -0.5t6 -0.5l15 86h52l-17 -94q57 -18 79 -68l18 69h51l-29 -170h-54q-8 89 -75 112l-42 -239l16 -9q72 -42 104 -86t32 -103
q0 -87 -55.5 -140t-155.5 -53h-10l-19 -108h-51zM412 178q0 40 -22 69.5t-74 61.5l-46 -259q66 0 104 35.5t38 92.5zM208 527q0 -39 17 -64.5t57 -51.5l39 219h-2q-48 0 -79.5 -28t-31.5 -75z" />
    <glyph glyph-name="cent.lining" horiz-adv-x="458" 
d="M165 -116l20 116q-64 18 -103 71t-39 124q0 99 63 163.5t153 64.5h1l19 106h49l-20 -113q47 -13 70 -51l15 49h48l-23 -130h-50q-14 65 -69 79l-56 -316h4q74 0 113 44l39 -43q-62 -56 -155 -56h-10l-19 -108h-50zM111 195q0 -49 22.5 -86t61.5 -53l55 312
q-62 -4 -100.5 -53t-38.5 -120z" />
    <glyph glyph-name="Euro.lining" horiz-adv-x="659" 
d="M365 -8q-103 0 -169 67.5t-73 183.5h-86l10 53h75q4 60 9 89h-70l10 53h73q32 113 109.5 181.5t177.5 68.5q114 0 154 -85l23 77h51l-33 -187h-54q-4 62 -38.5 98t-102.5 36q-77 0 -132.5 -51.5t-80.5 -137.5h254l-10 -53h-259q-6 -35 -8 -89h253l-10 -53h-242
q4 -89 51 -140t120 -51q60 0 102 27.5t78 83.5l54 -34q-86 -137 -236 -137z" />
    <glyph glyph-name="sterling.lining" horiz-adv-x="600" 
d="M121 -8q-43 0 -74 26t-31 66q0 45 30.5 70.5t75.5 25.5q47 0 88 -30v20q0 52 -12 115h-96l10 54h76q-2 10 -7 37.5t-8 50.5t-3 45q0 96 57 156t150 60q101 0 138 -80l19 72h52l-32 -177h-55q-3 56 -31.5 91.5t-86.5 35.5q-65 0 -101.5 -41.5t-36.5 -117.5q0 -21 3 -44
t7.5 -49t6.5 -39h186l-9 -54h-171q9 -63 9 -115q0 -34 -8 -58q26 -21 39 -30.5t38 -20t51 -10.5q35 0 58 13.5t46 41.5l46 -39q-31 -40 -65 -57.5t-84 -17.5q-45 0 -79.5 18.5t-72.5 51.5q-38 -70 -123 -70zM124 43q58 0 77 55q-39 32 -73 32q-24 0 -38 -11.5t-14 -32.5
q0 -20 13 -31.5t35 -11.5z" />
    <glyph glyph-name="yen.lining" horiz-adv-x="628" 
d="M90 309l10 53h149l-94 263h-63l9 55h208l-9 -55h-73l89 -253q3 -11 7.5 -29t7 -30t2.5 -13q0 1 6 12t16 28.5t19 29.5l177 255h-75l10 55h209l-9 -55h-65l-185 -263h149l-10 -53h-176l-41 -59l-5 -29h207l-10 -53h-207l-19 -113h72l-10 -55h-209l9 55h69l19 113h-209
l10 53h209l5 30l-21 58h-178z" />
    <glyph glyph-name="florin.lining" horiz-adv-x="362" 
d="M50 -212l82 470h-76l9 55h77l44 246q22 129 122 129q61 0 97 -54l-43 -35q-22 33 -51 33q-24 0 -38 -16t-21 -55l-43 -248h98l-10 -55h-98l-82 -470h-67z" />
    <glyph glyph-name="zero.lining" horiz-adv-x="649" 
d="M311 54q104 0 173 103t69 262q0 102 -45.5 155t-120.5 53q-103 0 -174 -102.5t-71 -262.5q0 -103 46.5 -155.5t122.5 -52.5zM309 -7q-109 0 -175 72t-66 202q0 185 95 303t226 118q107 0 172 -72.5t65 -201.5q0 -186 -93 -303.5t-224 -117.5z" />
    <glyph glyph-name="one.lining" horiz-adv-x="352" 
d="M14 0l9 55h94l101 568h-106l10 57h176l-111 -625h90l-9 -55h-254z" />
    <glyph glyph-name="two.lining" horiz-adv-x="530" 
d="M-3 0l10 44l298 258q72 62 105.5 107t33.5 103q0 51 -31 82.5t-89 31.5q-117 0 -158 -135l-69 14q23 91 84.5 137t145.5 46q86 0 138.5 -49.5t52.5 -127.5q0 -68 -41.5 -125t-123.5 -126l-188 -158q-46 -36 -66 -46q1 0 13.5 1t29 2.5t27.5 1.5h232l28 89h52l-26 -150
h-458z" />
    <glyph glyph-name="three.lining" horiz-adv-x="539" 
d="M248 -8q-83 0 -143 38t-87 99l61 30q52 -107 168 -107q83 0 131 47t48 125q0 69 -46.5 108t-119.5 39q-41 0 -74 -14l-14 20l208 207l49 41q-35 -4 -60 -4h-194l-22 -84h-52l26 143h406l-6 -27l-190 -189q-36 -36 -51 -41q90 -2 151.5 -55t61.5 -143q0 -106 -70 -169.5
t-181 -63.5z" />
    <glyph glyph-name="four.lining" horiz-adv-x="555" 
d="M251 0l10 54h87l16 92h-353l9 48l454 486h52l-84 -477h81l-10 -57h-81l-16 -92h79l-10 -54h-234zM152 251q-40 -43 -61 -54q1 0 13 1.5t29 2.5t30 1h211l53 301q6 42 17 76q-18 -30 -51 -66z" />
    <glyph glyph-name="five.lining" horiz-adv-x="538" 
d="M253 -8q-77 0 -138.5 37.5t-90.5 96.5l62 32q24 -46 67 -75.5t100 -29.5q80 0 127 46t47 124q0 68 -42 110t-117 42q-90 0 -150 -55l-16 7l62 353h370l-25 -140h-52l6 79h-250l-37 -211q45 26 108 26q97 0 156 -58.5t59 -150.5q0 -105 -67.5 -169t-178.5 -64z" />
    <glyph glyph-name="six.lining" horiz-adv-x="553" 
d="M273 -8q-97 0 -161 63t-64 158q0 91 72 177l248 290h81l-174 -206q-15 -17 -61 -56q48 29 97 29q87 0 145.5 -60t58.5 -151q0 -105 -68.5 -174.5t-173.5 -69.5zM274 52q74 0 121 52.5t47 131.5q0 70 -40.5 113t-109.5 43q-76 0 -124.5 -52.5t-48.5 -126.5q0 -71 42 -116
t113 -45z" />
    <glyph glyph-name="seven.lining" horiz-adv-x="510" 
d="M64 0l407 621h-311l-23 -84h-50l24 143h456l-11 -41l-413 -639h-79z" />
    <glyph glyph-name="eight.lining" horiz-adv-x="556" 
d="M269 -8q-105 0 -167 52.5t-62 135.5q0 75 47.5 123.5t125.5 67.5q-39 16 -61 52t-22 83q0 78 59.5 130t146.5 52t138 -48t51 -119q0 -55 -34.5 -99t-90.5 -60q114 -43 114 -161q0 -95 -70.5 -152t-174.5 -57zM271 50q74 0 121.5 40.5t48.5 111.5q0 62 -39.5 100
t-112.5 38q-72 0 -123.5 -42t-51.5 -114q-1 -59 40.5 -96.5t116.5 -37.5zM319 394q61 0 98 34t38 89q0 48 -31 81t-90 33q-60 0 -97 -35t-37 -89q0 -50 30 -81.5t89 -31.5z" />
    <glyph glyph-name="nine.lining" horiz-adv-x="559" 
d="M165 0l164 195q7 9 18 20t19 18.5l16 15t9 8.5q-49 -30 -95 -30q-90 0 -149.5 62.5t-59.5 154.5q0 103 70.5 173.5t175.5 70.5q99 0 162.5 -63t63.5 -158q0 -96 -78 -189l-234 -278h-82zM314 283q74 0 124 54.5t50 128.5q0 70 -42.5 116t-114.5 46q-77 0 -124.5 -53.5
t-47.5 -128.5q0 -71 41.5 -117t113.5 -46z" />
    <glyph glyph-name="percent.lining" horiz-adv-x="806" 
d="M238 410q46 0 77 32.5t31 86.5q0 48 -26.5 76.5t-69.5 28.5q-46 0 -76.5 -32.5t-30.5 -86.5q0 -47 26 -76t69 -29zM237 357q-67 0 -111.5 45t-44.5 113q0 74 50.5 123.5t119.5 49.5q66 0 111.5 -45.5t45.5 -112.5q0 -75 -51 -124t-120 -49zM128 0l528 680h67l-529 -680
h-66zM600 45q45 0 76 32.5t31 86.5q0 47 -26.5 76t-69.5 29q-45 0 -75.5 -32.5t-30.5 -86.5q0 -48 25.5 -76.5t69.5 -28.5zM598 -8q-66 0 -111 45t-45 113q0 74 50.5 123.5t119.5 49.5q66 0 112 -45.5t46 -112.5q0 -75 -51 -124t-121 -49z" />
    <glyph glyph-name="perthousand.lining" horiz-adv-x="1186" 
d="M238 410q46 0 77 32.5t31 86.5q0 48 -26.5 76.5t-69.5 28.5q-46 0 -76.5 -32.5t-30.5 -86.5q0 -47 26 -76t69 -29zM237 357q-67 0 -111.5 45t-44.5 113q0 74 50.5 123.5t119.5 49.5q66 0 111.5 -45.5t45.5 -112.5q0 -75 -51 -124t-120 -49zM128 0l528 680h67l-529 -680
h-66zM600 45q45 0 76 32.5t31 86.5q0 47 -26.5 76t-69.5 29q-45 0 -75.5 -32.5t-30.5 -86.5q0 -48 25.5 -76.5t69.5 -28.5zM598 -8q-66 0 -111 45t-45 113q0 74 50.5 123.5t119.5 49.5q66 0 112 -45.5t46 -112.5q0 -75 -51 -124t-121 -49zM983 45q46 0 77 32.5t31 86.5
q0 47 -26.5 76t-69.5 29q-46 0 -76.5 -32.5t-30.5 -86.5q0 -48 26 -76.5t69 -28.5zM982 -8q-67 0 -111.5 45t-44.5 113q0 74 50.5 123.5t119.5 49.5q66 0 111.5 -45.5t45.5 -112.5q0 -75 -51 -124t-120 -49z" />
    <glyph glyph-name="plus.lining" horiz-adv-x="405" 
d="M162 147l26 147h-132l10 57h131l27 147h61l-27 -147h132l-10 -57h-131l-26 -147h-61z" />
    <glyph glyph-name="minus.lining" horiz-adv-x="405" 
d="M56 294l10 57h324l-10 -57h-324z" />
    <glyph glyph-name="multiply.lining" horiz-adv-x="421" 
d="M91 156l-39 43l139 122l-97 121l47 39l97 -121l138 121l38 -43l-140 -122l97 -121l-45 -39l-99 121z" />
    <glyph glyph-name="divide.lining" horiz-adv-x="405" 
d="M196 113q-21 0 -36 15t-15 37t15 36.5t36 14.5t36 -14.5t15 -36.5t-15 -37t-36 -15zM56 294l10 57h324l-10 -57h-324zM252 429q-20 0 -35 15t-15 36q0 22 15 36.5t35 14.5q21 0 36 -14.5t15 -36.5t-15 -36.5t-36 -14.5z" />
    <glyph glyph-name="equal.lining" horiz-adv-x="404" 
d="M44 207l10 60h318l-11 -60h-317zM70 354l10 59h318l-11 -59h-317z" />
    <glyph glyph-name="less.lining" horiz-adv-x="385" 
d="M328 149l-267 167v10l326 164l-11 -70l-215 -102l177 -107z" />
    <glyph glyph-name="greater.lining" horiz-adv-x="385" 
d="M39 149l12 69l214 103l-177 107l11 62l266 -167v-11z" />
    <glyph glyph-name="degree.lining" horiz-adv-x="362" 
d="M237 470q36 0 58 25t22 64q0 36 -21.5 59t-55.5 23q-36 0 -58 -25t-22 -64q0 -36 21.5 -59t55.5 -23zM236 423q-54 0 -92 38t-38 92q0 57 39.5 96t95.5 39q54 0 92 -37.5t38 -91.5q0 -58 -39.5 -97t-95.5 -39z" />
    <glyph glyph-name="period.lining" horiz-adv-x="202" 
d="M74 -7q-21 0 -37 15.5t-16 37.5q0 23 16 38.5t37 15.5t36.5 -15.5t15.5 -38.5q0 -22 -15.5 -37.5t-36.5 -15.5z" />
    <glyph glyph-name="comma.lining" horiz-adv-x="201" 
d="M-5 -112l56 112q-30 13 -30 48q0 22 16 37.5t37 15.5q22 0 37 -15t15 -38q0 -20 -18 -46l-75 -114h-38z" />
    <glyph glyph-name="colon.lining" horiz-adv-x="211" 
d="M78 -7q-21 0 -37 15.5t-16 37.5q0 23 16 38.5t37 15.5t36.5 -15.5t15.5 -38.5q0 -22 -15.5 -37.5t-36.5 -15.5zM117 218q-21 0 -36.5 15t-15.5 38t15.5 38.5t36.5 15.5q22 0 37.5 -15.5t15.5 -38.5t-15.5 -38t-37.5 -15z" />
    <glyph glyph-name="semicolon.lining" horiz-adv-x="211" 
d="M-1 -112l56 112q-30 13 -30 48q0 22 16 37.5t37 15.5q23 0 37.5 -15t14.5 -38q0 -20 -18 -46l-75 -114h-38zM117 218q-21 0 -36.5 15t-15.5 38t15.5 38.5t36.5 15.5q22 0 37.5 -15.5t15.5 -38.5t-15.5 -38t-37.5 -15z" />
    <glyph glyph-name="parenleft.lining" horiz-adv-x="296" 
d="M172 -135q-106 136 -106 338q0 296 255 515l35 -39q-221 -206 -221 -474q0 -175 84 -308z" />
    <glyph glyph-name="parenright.lining" horiz-adv-x="303" 
d="M19 -135l-36 39q221 208 221 477q0 172 -83 306l46 31q106 -136 106 -335q0 -300 -254 -518z" />
    <glyph glyph-name="bracketleft.lining" horiz-adv-x="305" 
d="M16 -128l150 850h192l-10 -55h-122l-130 -740h122l-10 -55h-192z" />
    <glyph glyph-name="bracketright.lining" horiz-adv-x="305" 
d="M-21 -128l10 55h122l130 740h-122l10 55h192l-150 -850h-192z" />
    <glyph glyph-name="braceleft.lining" horiz-adv-x="367" 
d="M216 -128q-136 0 -109 149l32 183q7 39 -3.5 54t-38.5 15h-59l10 55h55q30 0 47 16t24 55l35 192q14 76 49 103.5t90 27.5h72l-9 -53h-54q-34 0 -52 -16.5t-27 -63.5l-35 -197q-8 -45 -28.5 -65t-58.5 -26q67 -13 53 -99l-33 -188q-8 -50 5.5 -69t47.5 -19h51l-10 -54
h-54z" />
    <glyph glyph-name="braceright.lining" horiz-adv-x="367" 
d="M-22 -128l9 53h54q34 0 52 16.5t27 63.5l35 205q8 44 28.5 64t58.5 26q-67 13 -53 99l33 181q8 50 -5.5 69t-47.5 19h-51l10 54h54q136 0 109 -149l-32 -176q-6 -39 4 -54t38 -15h60l-10 -55h-56q-29 0 -46 -16t-24 -54l-36 -200q-13 -76 -48.5 -103.5t-90.5 -27.5h-72z
" />
    <glyph glyph-name="section.lining" horiz-adv-x="574" 
d="M245 -180q-59 0 -101.5 25t-59.5 65l-21 -82h-50l33 187h54q3 -66 39 -102.5t100 -35.5q56 0 87 30t31 78q0 38 -20 61t-63 45l-96 49q-55 28 -80 63.5t-25 85.5q0 103 115 143q-21 31 -21 83q0 74 52 124t131 50q52 0 85.5 -22t47.5 -56l19 69h49l-29 -167h-52
q-10 117 -114 117q-55 0 -86 -32.5t-31 -80.5q0 -40 19.5 -66t58.5 -46l93 -48q113 -57 113 -150q0 -51 -33 -86t-85 -49q24 -41 24 -84q0 -75 -50.5 -121.5t-133.5 -46.5zM377 108q77 29 77 89q0 31 -17.5 53t-59.5 44l-94 48q-46 24 -69 52q-73 -32 -73 -95
q0 -32 17.5 -55t59.5 -44l92 -47q45 -22 67 -45z" />
    <glyph glyph-name="numbersign.lining" horiz-adv-x="455" 
d="M100 244l27 109h-67l9 52h71l28 113h-79l9 51h83l28 111h57l-28 -111h98l28 111h58l-28 -111h69l-9 -51h-73l-28 -113h80l-9 -52h-84l-27 -109h-58l27 109h-97l-28 -109h-57zM198 405h97l29 113h-99z" />
    <glyph glyph-name="ordfeminine.lining" horiz-adv-x="472" 
d="M237 323q-65 0 -106 44.5t-41 120.5q0 88 52.5 144.5t126.5 56.5q47 0 82 -25.5t46 -68.5l21 86h53l-48 -276q-5 -28 18 -28h31l-8 -47h-41q-33 0 -48.5 16.5t-11.5 43.5l1 7q-50 -74 -127 -74zM253 374q54 0 90 40.5t36 102.5q0 53 -27 86.5t-75 33.5q-55 0 -89.5 -40.5
t-34.5 -105.5q0 -52 26.5 -84.5t73.5 -32.5z" />
    <glyph glyph-name="ordmasculine.lining" horiz-adv-x="453" 
d="M266 322q-76 0 -125.5 50.5t-49.5 124.5q0 80 56 135.5t135 55.5q76 0 125 -50.5t49 -124.5q0 -81 -55 -136t-135 -55zM267 374q56 0 90 39.5t34 100.5q0 53 -30.5 87.5t-79.5 34.5q-56 0 -90.5 -40t-34.5 -101q0 -52 30.5 -86.5t80.5 -34.5z" />
    <glyph glyph-name="space.tab" horiz-adv-x="200" 
 />
    <glyph glyph-name="dollar.tab" horiz-adv-x="520" 
d="M178 -116l20 113q-68 14 -101 67l-16 -64h-45l28 162h44q8 -95 99 -115l35 198l-1 1q-61 28 -88.5 59.5t-27.5 81.5q0 57 44.5 91t107.5 34h11l19 105h49l-20 -114q47 -15 65 -52l15 53h45l-25 -144h-43q-8 75 -65 95l-29 -166l11 -5q122 -53 122 -149q0 -64 -49 -103.5
t-130 -39.5h-6l-19 -108h-50zM366 133q0 57 -79 91l-31 -180q55 2 82.5 26.5t27.5 62.5zM188 390q0 -49 65 -80l27 152q-92 -2 -92 -72z" />
    <glyph glyph-name="cent.tab" horiz-adv-x="520" 
d="M192 -116l20 116q-64 18 -103 71t-39 124q0 99 63 163.5t153 64.5h1l19 106h49l-20 -113q47 -13 70 -51l15 49h48l-23 -130h-50q-14 65 -69 79l-56 -316h4q74 0 113 44l39 -43q-62 -56 -155 -56h-10l-19 -108h-50zM138 195q0 -49 22.5 -86t61.5 -53l55 312
q-62 -4 -100.5 -53t-38.5 -120z" />
    <glyph glyph-name="Euro.tab" horiz-adv-x="520" 
d="M338 170h-173q22 -121 135 -121q33 0 60 12t41 25t30 34l51 -36q-69 -92 -182 -92q-86 0 -139 47.5t-67 130.5h-80l8 48h68q0 36 5 69h-61l8 48h64q24 79 81.5 128t138.5 49q47 0 80 -19t47 -47l18 58h49l-26 -159h-54q-7 50 -36.5 80t-77.5 30q-108 0 -149 -120h189
l-8 -48h-193q-4 -25 -4 -69h185z" />
    <glyph glyph-name="sterling.tab" horiz-adv-x="520" 
d="M99 -8q-45 0 -71 25t-26 63q0 42 28 66t72 24q43 0 82 -30q1 7 1 21q-1 34 -9 102h-97l9 49h79q-11 72 -11 115q0 89 50 140t131 51q46 0 78 -19.5t46 -48.5l15 60h48l-29 -168h-48q-9 119 -105 119q-116 0 -116 -138q0 -37 8 -111h155l-9 -49h-140q6 -64 6 -102
q0 -28 -8 -58q1 -1 10 -9t11 -9t10 -7.5t11 -8t10.5 -6.5t12 -6.5t11.5 -4t13.5 -3t13.5 -0.5q51 0 91 45l41 -41q-51 -61 -133 -61q-25 0 -49.5 10t-39.5 21.5t-38 31.5q-39 -63 -114 -63zM104 38q46 0 71 50q-41 34 -71 34q-21 0 -34 -12t-13 -30t12.5 -30t34.5 -12z" />
    <glyph glyph-name="yen.tab" horiz-adv-x="520" 
d="M113 0l10 54h58l15 91h-166l9 49h156l-25 65h-120l9 49h92l-54 141h-58l10 55h180l-11 -55h-49l58 -162q4 -14 8 -31t6 -28t2 -12q23 45 40 69l121 164h-53l13 55h174l-11 -55h-50l-107 -141h91l-9 -50h-121l-47 -64h157l-9 -49h-168l-15 -91h56l-10 -54h-182z" />
    <glyph glyph-name="florin.tab" horiz-adv-x="520" 
d="M127 -212l73 415h-99l10 57h99l36 203q27 155 148 155q83 0 123 -72l-48 -34q-13 24 -28 36.5t-44 12.5q-67 0 -83 -97l-36 -204h139l-10 -57h-139l-73 -415h-68z" />
    <glyph glyph-name="zero.tab" horiz-adv-x="520" 
d="M247 50q76 0 122 66.5t46 174.5q0 75 -33.5 119t-93.5 44q-76 0 -121.5 -67t-45.5 -175q0 -75 33 -118.5t93 -43.5zM245 -8q-90 0 -142.5 62t-52.5 161q0 134 67.5 215.5t173.5 81.5q91 0 142.5 -62t51.5 -161q0 -134 -67 -215.5t-173 -81.5z" />
    <glyph glyph-name="one.tab" horiz-adv-x="520" 
d="M65 0l10 54h136l69 394h-123l10 56h193l-79 -450h129l-10 -54h-335z" />
    <glyph glyph-name="two.tab" horiz-adv-x="520" 
d="M25 0l8 36l213 158q67 51 100.5 90.5t33.5 83.5q0 40 -26 62t-64 22q-94 0 -130 -101l-62 18q22 69 74.5 106t120.5 37q72 0 115.5 -38.5t43.5 -102.5q0 -103 -164 -218l-99 -69q-31 -22 -52 -30q1 0 10.5 1t23 1.5t23.5 0.5h173l18 61h49l-20 -118h-389z" />
    <glyph glyph-name="three.tab" horiz-adv-x="520" 
d="M225 -103q-74 0 -128 34t-82 92l59 30q43 -97 150 -97q68 0 111 38.5t43 107.5q0 61 -39.5 92t-103.5 31q-45 0 -81 -17l-12 19l198 188l43 34q-35 -1 -57 -1h-169l-18 -66h-51l22 122h372l-8 -39l-170 -157q-8 -7 -18 -15t-16 -13l-7 -5q76 3 130.5 -45.5t54.5 -127.5
q0 -92 -62 -148.5t-161 -56.5z" />
    <glyph glyph-name="four.tab" horiz-adv-x="520" 
d="M228 -44h81l15 88h-320l10 45l406 417h50l-71 -409h73l-9 -53h-74l-15 -88h76l-9 -52h-222zM333 97l44 256l14 55q-18 -24 -42 -49l-213 -223q-9 -9 -20.5 -19t-19.5 -16.5t-9 -7.5q16 4 54 4h192z" />
    <glyph glyph-name="five.tab" horiz-adv-x="520" 
d="M469 504l-21 -120h-50l3 63h-218l-32 -183q42 26 104 26q85 0 136 -51.5t51 -132.5q0 -91 -64 -150t-163 -59q-70 0 -121 32t-73 81l59 29q41 -83 136 -83q69 0 112 41t43 108q0 61 -36 94.5t-101 33.5q-85 0 -140 -53l-16 8l56 316h335z" />
    <glyph glyph-name="six.tab" horiz-adv-x="520" 
d="M250 -8q-89 0 -144 55t-55 138t77 171l224 254h79l-178 -201q-7 -9 -21.5 -21t-27.5 -22t-14 -11q49 31 95 31q81 0 132.5 -52.5t51.5 -133.5q0 -91 -62.5 -149.5t-156.5 -58.5zM250 49q66 0 107.5 43t41.5 109q0 60 -34.5 96.5t-95.5 36.5q-68 0 -108.5 -43.5
t-40.5 -107.5q0 -58 35.5 -96t94.5 -38z" />
    <glyph glyph-name="seven.tab" horiz-adv-x="520" 
d="M56 -94l345 541h-255l-20 -74h-52l23 131h396l-8 -38l-357 -560h-72z" />
    <glyph glyph-name="eight.tab" horiz-adv-x="520" 
d="M247 -8q-90 0 -147 51t-57 128q0 67 43.5 114t118.5 60q-65 36 -65 113q0 69 50.5 114.5t126.5 45.5q71 0 117 -42t46 -102q0 -52 -29.5 -89.5t-81.5 -52.5q100 -39 100 -146q0 -89 -63.5 -141.5t-158.5 -52.5zM249 49q65 0 107 38t42 102q0 57 -36.5 89.5t-97.5 32.5
q-66 0 -107.5 -37.5t-41.5 -101.5q0 -54 36.5 -88.5t97.5 -34.5zM303 365q48 0 77.5 29t29.5 77q1 41 -25 66t-70 25q-47 0 -77 -29t-31 -77q0 -42 25.5 -66.5t70.5 -24.5z" />
    <glyph glyph-name="nine.tab" horiz-adv-x="520" 
d="M99 -94l171 179q16 16 64 55q-44 -26 -88 -26q-80 0 -132 53.5t-52 134.5q0 91 62 150.5t155 59.5q89 0 144 -56t55 -139q0 -94 -89 -189l-210 -222h-80zM260 168q69 0 109 43.5t40 108.5q0 60 -35.5 97t-95.5 37q-65 0 -106 -42.5t-41 -108.5q0 -61 34 -98t95 -37z" />
    <glyph glyph-name="percent.tab" horiz-adv-x="750" 
d="M188 271q39 0 65.5 30.5t26.5 77.5q0 39 -21 62t-56 23q-39 0 -66 -30t-27 -76q0 -41 21.5 -64t56.5 -23zM188 223q-59 0 -97.5 38t-38.5 97q0 66 45.5 110t105.5 44q59 0 97.5 -38.5t38.5 -96.5q0 -67 -45.5 -110.5t-105.5 -43.5zM215 0h-64l402 504h65zM564 40
q39 0 65.5 30.5t26.5 77.5q0 39 -21.5 62t-56.5 23q-39 0 -65.5 -30t-26.5 -76q0 -41 21 -64t57 -23zM563 -8q-59 0 -97.5 38t-38.5 97q0 66 46 110t106 44q58 0 96.5 -38.5t38.5 -96.5q0 -67 -45 -110.5t-106 -43.5z" />
    <glyph glyph-name="perthousand.tab" horiz-adv-x="1100" 
d="M196 271q39 0 65.5 30.5t26.5 77.5q0 39 -21 62t-56 23q-40 0 -66.5 -30t-26.5 -76q0 -41 21.5 -64t56.5 -23zM196 223q-59 0 -97.5 38t-38.5 97q0 66 45.5 110t105.5 44q59 0 97.5 -38.5t38.5 -96.5q0 -67 -45.5 -110.5t-105.5 -43.5zM223 0h-64l402 504h65zM572 40
q39 0 65 30t26 78q0 39 -21 62t-56 23q-39 0 -65.5 -30t-26.5 -76q0 -41 21 -64t57 -23zM571 -8q-59 0 -97.5 38t-38.5 97q0 66 46 110t106 44q58 0 96.5 -38.5t38.5 -96.5q0 -67 -45 -110.5t-106 -43.5zM904 40q39 0 65.5 30.5t26.5 77.5q0 39 -21 62t-56 23q-39 0 -66 -30
t-27 -76q0 -41 21.5 -64t56.5 -23zM904 -8q-59 0 -97.5 38t-38.5 97q0 66 45.5 110t105.5 44q59 0 97.5 -38.5t38.5 -96.5q0 -67 -45.5 -110.5t-105.5 -43.5z" />
    <glyph glyph-name="plus.tab" horiz-adv-x="520" 
d="M205 71l27 153h-141l9 57h142l27 154h61l-28 -154h143l-10 -57h-142l-28 -153h-60z" />
    <glyph glyph-name="minus.tab" horiz-adv-x="520" 
d="M91 224l9 57h346l-10 -57h-345z" />
    <glyph glyph-name="multiply.tab" horiz-adv-x="520" 
d="M124 87l-38 42l142 125l-100 123l46 38l99 -123l140 123l38 -42l-142 -125l99 -123l-45 -38l-99 122z" />
    <glyph glyph-name="divide.tab" horiz-adv-x="520" 
d="M241 46q-21 0 -35.5 15t-14.5 36q0 22 14.5 36t35.5 14t35.5 -14t14.5 -36q0 -21 -14.5 -36t-35.5 -15zM91 224l9 57h345l-10 -57h-344zM296 357q-21 0 -36 15t-15 36q0 22 15 36t36 14t35.5 -14t14.5 -36t-15 -36.5t-35 -14.5z" />
    <glyph glyph-name="equal.tab" horiz-adv-x="520" 
d="M84 153l11 59h333l-11 -59h-333zM107 283l10 59h333l-10 -59h-333z" />
    <glyph glyph-name="less.tab" horiz-adv-x="520" 
d="M385 79l-292 159v10l351 170l-12 -68l-233 -109l196 -104z" />
    <glyph glyph-name="greater.tab" horiz-adv-x="520" 
d="M93 79l12 68l233 108l-196 105l10 58l293 -159v-10z" />
    <glyph glyph-name="degree.tab" horiz-adv-x="350" 
d="M206 329q30 0 48.5 21t18.5 54q0 30 -16.5 47.5t-44.5 17.5q-30 0 -48.5 -21t-18.5 -54q0 -29 16.5 -47t44.5 -18zM206 286q-47 0 -79.5 31.5t-32.5 77.5q0 50 35 83.5t84 33.5q47 0 79.5 -31.5t32.5 -77.5q0 -50 -35 -83.5t-84 -33.5z" />
    <glyph glyph-name="period.tab" horiz-adv-x="200" 
d="M72 -7q-20 0 -35.5 15t-15.5 37q0 23 15.5 38t35.5 15q21 0 36.5 -15t15.5 -38q0 -22 -15.5 -37t-36.5 -15z" />
    <glyph glyph-name="comma.tab" horiz-adv-x="200" 
d="M-1 -103l51 103q-29 13 -29 47q0 21 15.5 36.5t35.5 15.5q22 0 37 -15t15 -37q0 -19 -18 -45l-70 -105h-37z" />
    <glyph glyph-name="colon.tab" horiz-adv-x="200" 
d="M72 -7q-20 0 -35.5 15t-15.5 37q0 23 15.5 38t35.5 15q21 0 36.5 -15t15.5 -38q0 -22 -15.5 -37t-36.5 -15zM112 219q-21 0 -36.5 15t-15.5 37t15.5 37t36.5 15t36 -15t15 -37t-15 -37t-36 -15z" />
    <glyph glyph-name="semicolon.tab" horiz-adv-x="200" 
d="M-1 -103l51 103q-29 13 -29 47q0 21 15.5 36.5t35.5 15.5q22 0 37 -15t15 -37q0 -19 -18 -45l-70 -105h-37zM112 219q-21 0 -36.5 15t-15.5 37t15.5 37t36.5 15t36 -15t15 -37t-15 -37t-36 -15z" />
    <glyph glyph-name="parenleft.tab" horiz-adv-x="300" 
d="M157 -133q-104 143 -104 338q0 294 249 513l37 -38q-96 -91 -156.5 -210.5t-60.5 -262.5q0 -177 81 -311z" />
    <glyph glyph-name="parenright.tab" horiz-adv-x="300" 
d="M29 -133l-37 37q217 207 217 476q0 175 -81 309l45 29q105 -142 105 -336q0 -296 -249 -515z" />
    <glyph glyph-name="bracketleft.tab" horiz-adv-x="300" 
d="M14 -128l150 850h191l-9 -55h-122l-130 -740h122l-11 -55h-191z" />
    <glyph glyph-name="bracketright.tab" horiz-adv-x="300" 
d="M-24 -128l10 55h122l130 740h-121l9 55h191l-150 -850h-191z" />
    <glyph glyph-name="braceleft.tab" horiz-adv-x="300" 
d="M161 -128q-136 0 -109 149l33 183q6 40 -4 54.5t-39 14.5h-26l10 55h23q30 0 46.5 16t23.5 55l34 192q14 76 49.5 103.5t90.5 27.5h62l-9 -53h-44q-35 0 -53 -16.5t-26 -63.5l-35 -197q-7 -45 -27.5 -65t-58.5 -26q67 -14 52 -99l-33 -188q-9 -50 4.5 -69t47.5 -19h42
l-10 -54h-44z" />
    <glyph glyph-name="braceright.tab" horiz-adv-x="300" 
d="M-24 -128l9 53h46q34 0 52 16.5t27 63.5l35 205q8 44 28.5 64t58.5 26q-67 13 -53 99l33 181q8 50 -5.5 69t-47.5 19h-43l10 54h46q136 0 109 -149l-32 -176q-7 -39 3.5 -54t38.5 -15h28l-10 -55h-24q-29 0 -46 -16t-24 -54l-36 -200q-14 -76 -49 -103.5t-90 -27.5h-64z
" />
    <glyph glyph-name="section.tab" horiz-adv-x="520" 
d="M230 -103q-54 0 -89 21.5t-50 52.5l-17 -65h-46l31 166h46q5 -122 118 -122q48 0 75 21.5t27 60.5q0 30 -17.5 48.5t-57.5 36.5l-77 35q-56 26 -82 58t-26 81q0 44 28.5 77.5t71.5 43.5q-15 26 -15 62q0 60 44.5 102t113.5 42q39 0 69.5 -17.5t41.5 -44.5l16 55h44
l-26 -153h-47q-2 50 -27 79t-68 29q-45 0 -69.5 -25t-24.5 -64q0 -56 65 -86l85 -38q106 -46 106 -131q0 -92 -98 -121q19 -28 19 -64q0 -64 -45 -102t-119 -38zM347 136q61 21 61 74q0 51 -70 83l-85 39q-46 21 -65 45q-58 -22 -58 -77q0 -31 16 -50.5t54 -36.5l78 -36
q49 -21 69 -41z" />
    <glyph glyph-name="numbersign.tab" horiz-adv-x="520" 
d="M129 177l27 109h-76l9 52h80l28 112h-88l10 52h90l29 111h57l-28 -111h105l28 111h57l-28 -111h78l-10 -52h-80l-28 -112h88l-9 -52h-92l-27 -109h-59l28 109h-104l-28 -109h-57zM226 338h105l27 112h-104z" />
    <glyph glyph-name="space.tablining" horiz-adv-x="200" 
 />
    <glyph glyph-name="dollar.tablining" horiz-adv-x="580" 
d="M199 -116l20 115q-87 18 -120 92l-22 -91h-51l33 191h57q11 -111 113 -136l49 281l-7 5q-63 38 -92.5 78t-29.5 98q0 77 52 124t127 47q2 0 6 -0.5t6 -0.5l15 86h52l-17 -94q57 -18 79 -68l18 69h51l-29 -170h-54q-8 89 -75 112l-42 -239l16 -9q72 -42 104 -86t32 -103
q0 -87 -55.5 -140t-155.5 -53h-10l-19 -108h-51zM421 178q0 40 -22 69.5t-74 61.5l-46 -259q66 0 104 35.5t38 92.5zM217 527q0 -39 17 -64.5t57 -51.5l39 219h-2q-48 0 -79.5 -28t-31.5 -75z" />
    <glyph glyph-name="cent.tablining" horiz-adv-x="580" 
d="M222 -116l20 116q-64 18 -103 71t-39 124q0 99 63 163.5t153 64.5h1l19 106h49l-20 -113q47 -13 70 -51l15 49h48l-23 -130h-50q-14 65 -69 79l-56 -316h4q74 0 113 44l39 -43q-62 -56 -155 -56h-10l-19 -108h-50zM168 195q0 -49 22.5 -86t61.5 -53l55 312
q-62 -4 -100.5 -53t-38.5 -120z" />
    <glyph glyph-name="Euro.tablining" horiz-adv-x="580" 
d="M303 -8q-96 0 -153.5 66t-64.5 185h-72l10 53h63q1 48 9 89h-58l10 53h60q34 117 104 183.5t163 66.5q109 0 146 -84l23 76h51l-33 -187h-55q-8 134 -133 134q-67 0 -117.5 -52t-75.5 -137h236l-10 -53h-240q-5 -29 -9 -89h233l-10 -53h-223q4 -89 42.5 -140t105.5 -51
q56 0 94 28.5t72 86.5l56 -32q-79 -143 -224 -143z" />
    <glyph glyph-name="sterling.tablining" horiz-adv-x="580" 
d="M121 -8q-42 0 -73 25.5t-31 65.5q0 46 30 71.5t76 25.5q45 0 85 -29q1 8 1 18q0 48 -13 116h-99l10 54h77q-18 100 -18 133q0 97 56 156.5t152 59.5q97 0 135 -79l18 71h52l-32 -177h-55q-2 56 -30 91.5t-85 35.5q-64 0 -101 -41t-37 -115q0 -26 16 -135h182l-9 -54h-165
q9 -63 9 -117q0 -25 -7 -58q24 -20 37.5 -29.5t38 -19.5t49.5 -10q58 0 100 55l46 -39q-32 -40 -64.5 -57.5t-80.5 -17.5q-44 0 -78 18.5t-71 51.5q-38 -70 -121 -70zM126 43q56 0 73 55q-41 32 -71 32q-23 0 -37 -11.5t-14 -32.5q0 -20 13.5 -31.5t35.5 -11.5z" />
    <glyph glyph-name="yen.tablining" horiz-adv-x="580" 
d="M52 309l10 53h149l-94 263h-63l9 55h209l-10 -55h-67l87 -255q13 -39 13 -69q12 30 38 69l174 255h-69l9 55h210l-9 -55h-65l-185 -263h149l-10 -53h-176l-41 -59l-5 -29h207l-10 -53h-207l-19 -113h72l-10 -55h-209l9 55h69l19 113h-209l10 53h209l5 30l-21 58h-178z
" />
    <glyph glyph-name="florin.tablining" horiz-adv-x="539" 
d="M131 -212l83 469h-101l10 56h100l40 220q26 155 148 155q86 0 124 -73l-49 -33q-13 25 -28 37t-44 12q-67 0 -84 -97l-39 -221h138l-10 -56h-137l-83 -469h-68z" />
    <glyph glyph-name="zero.tablining" horiz-adv-x="580" 
d="M274 53q64 0 113.5 54t74 138.5t24.5 184.5q0 197 -132 197q-64 0 -113.5 -53.5t-74.5 -139t-24 -184.5q0 -197 132 -197zM272 -8q-96 0 -149.5 70t-53.5 195q1 186 80 308.5t207 122.5q96 0 149.5 -70t53.5 -195q0 -185 -79.5 -308t-207.5 -123z" />
    <glyph glyph-name="one.tablining" horiz-adv-x="580" 
d="M78 0l10 55h156l101 567h-156l10 58h227l-111 -625h154l-9 -55h-382z" />
    <glyph glyph-name="two.tablining" horiz-adv-x="580" 
d="M16 0l10 44l298 258q72 62 105.5 107t33.5 103q0 51 -31 82.5t-89 31.5q-117 0 -158 -135l-69 14q23 91 84.5 137t145.5 46q86 0 138.5 -49.5t52.5 -127.5q0 -68 -41.5 -125t-123.5 -126l-188 -158q-46 -36 -66 -46q1 0 13.5 1t29 2.5t27.5 1.5h232l28 89h52l-26 -150
h-458z" />
    <glyph glyph-name="three.tablining" horiz-adv-x="580" 
d="M268 -8q-83 0 -143 38t-87 99l61 30q52 -107 168 -107q83 0 131 47t48 125q0 69 -46.5 108t-119.5 39q-41 0 -74 -14l-14 20l208 207l49 41q-35 -4 -60 -4h-194l-22 -84h-52l26 143h406l-6 -27l-190 -189q-36 -36 -51 -41q90 -2 151.5 -55t61.5 -143q0 -106 -70 -169.5
t-181 -63.5z" />
    <glyph glyph-name="four.tablining" horiz-adv-x="580" 
d="M270 0l10 54h87l16 92h-348l9 48l449 486h52l-84 -477h72l-10 -57h-72l-16 -92h74l-10 -54h-229zM175 251q-41 -44 -60 -54q1 0 13 1.5t29 2.5t30 1h206l53 301q6 42 17 76q-15 -25 -51 -66z" />
    <glyph glyph-name="five.tablining" horiz-adv-x="580" 
d="M275 -8q-77 0 -138.5 37.5t-90.5 96.5l62 32q24 -46 67 -75.5t100 -29.5q80 0 127 46t47 124q0 68 -42 110t-117 42q-90 0 -150 -55l-16 7l62 353h370l-25 -140h-52l6 79h-250l-37 -211q45 26 108 26q97 0 156 -58.5t59 -150.5q0 -105 -67.5 -169t-178.5 -64z" />
    <glyph glyph-name="six.tablining" horiz-adv-x="580" 
d="M287 -8q-96 0 -159.5 62.5t-63.5 156.5q0 89 71 175l251 294h82l-176 -207q-12 -14 -62 -57q42 28 93 28q85 0 142.5 -60t57.5 -150q0 -104 -67 -173t-169 -69zM288 52q71 0 117 52t46 129q0 70 -40 113t-107 43q-75 0 -122 -52t-47 -126q0 -70 41.5 -114.5t111.5 -44.5z
" />
    <glyph glyph-name="seven.tablining" horiz-adv-x="580" 
d="M95 0l401 621h-304l-23 -84h-50l24 143h449l-11 -41l-407 -639h-79z" />
    <glyph glyph-name="eight.tablining" horiz-adv-x="580" 
d="M283 -8q-105 0 -165.5 52t-60.5 136q0 75 46 123.5t123 67.5q-38 16 -60 52.5t-22 82.5q0 78 59.5 130t146.5 52q86 0 137.5 -48t51.5 -119q0 -55 -34.5 -99t-91.5 -60q112 -43 112 -161q0 -95 -69.5 -152t-172.5 -57zM284 50q73 0 120 41t47 111q1 62 -38 100t-111 38
q-70 0 -120.5 -42t-51.5 -114q-1 -59 40 -96.5t114 -37.5zM333 394q60 0 97.5 34t37.5 89q1 48 -30.5 81t-89.5 33q-60 0 -97 -35t-37 -89q0 -50 29.5 -81.5t89.5 -31.5z" />
    <glyph glyph-name="nine.tablining" horiz-adv-x="580" 
d="M171 0l167 200q13 16 38 38l24 23q-44 -30 -95 -30q-86 0 -144.5 62.5t-58.5 152.5q0 102 69 172t171 70q98 0 160.5 -62.5t62.5 -156.5q0 -96 -77 -187l-235 -282h-82zM324 287q73 0 122 54t49 127q0 69 -42 114t-114 45q-74 0 -120 -52.5t-46 -126.5q0 -70 40.5 -115.5
t110.5 -45.5z" />
    <glyph glyph-name="percent.tablining" horiz-adv-x="800" 
d="M243 405q45 0 75 36t30 92q0 46 -24.5 74.5t-66.5 28.5q-45 0 -74.5 -36t-29.5 -92q0 -46 24.5 -74.5t65.5 -28.5zM241 353q-63 0 -105.5 44.5t-42.5 111.5q0 75 49 127t117 52q63 0 106 -44.5t43 -111.5q0 -76 -49.5 -127.5t-117.5 -51.5zM126 0l528 680h67l-528 -680
h-67zM590 43q44 0 74 36.5t30 92.5q0 45 -24.5 73.5t-65.5 28.5q-45 0 -74.5 -36t-29.5 -92q0 -46 24 -74.5t66 -28.5zM587 -8q-63 0 -105.5 44t-42.5 112q0 75 49 126.5t117 51.5q64 0 107 -44.5t43 -111.5q0 -76 -49.5 -127t-118.5 -51z" />
    <glyph glyph-name="perthousand.tablining" horiz-adv-x="1160" 
d="M240 405q45 0 75 36t30 92q0 46 -24.5 74.5t-66.5 28.5q-44 0 -73.5 -36t-29.5 -92q0 -46 24 -74.5t65 -28.5zM238 353q-63 0 -105.5 44.5t-42.5 111.5q0 75 49 127t117 52q63 0 106 -44.5t43 -111.5q0 -76 -49 -127.5t-118 -51.5zM123 0l529 680h66l-528 -680h-67z
M587 43q45 0 75 36.5t30 92.5q0 45 -25 73.5t-66 28.5q-45 0 -74.5 -36t-29.5 -92q0 -46 24.5 -74.5t65.5 -28.5zM585 -8q-64 0 -106 44t-42 112q0 75 49 126.5t117 51.5q63 0 106 -44.5t43 -111.5q0 -75 -49.5 -126.5t-117.5 -51.5zM952 43q45 0 75 36.5t30 92.5
q0 45 -24.5 73.5t-66.5 28.5q-44 0 -73.5 -36t-29.5 -92q0 -46 24 -74.5t65 -28.5zM950 -8q-63 0 -105.5 44t-42.5 112q0 75 49 126.5t117 51.5q63 0 106 -44.5t43 -111.5q0 -76 -49 -127t-118 -51z" />
    <glyph glyph-name="plus.tablining" horiz-adv-x="580" 
d="M244 127l30 167h-156l10 57h156l30 167h61l-30 -167h157l-10 -57h-157l-30 -167h-61z" />
    <glyph glyph-name="minus.tablining" horiz-adv-x="580" 
d="M118 294l10 57h374l-10 -57h-374z" />
    <glyph glyph-name="multiply.tablining" horiz-adv-x="539" 
d="M145 154l-38 43l141 124l-99 124l46 38l99 -122l140 122l39 -43l-142 -124l99 -123l-45 -39l-100 122z" />
    <glyph glyph-name="divide.tablining" horiz-adv-x="539" 
d="M262 113q-20 0 -35 15t-15 36q0 22 15 36.5t35 14.5q21 0 36 -14.5t15 -36.5t-15 -36.5t-36 -14.5zM98 294l10 57h373l-10 -57h-373zM319 428q-21 0 -36 15t-15 37t15 36.5t36 14.5t35.5 -14.5t14.5 -36.5t-14.5 -37t-35.5 -15z" />
    <glyph glyph-name="equal.tablining" horiz-adv-x="580" 
d="M104 207l10 58h376l-11 -58h-375zM128 355l11 58h376l-12 -58h-375z" />
    <glyph glyph-name="less.tablining" horiz-adv-x="580" 
d="M428 132l-328 183v10l396 191l-12 -69l-280 -128l234 -130z" />
    <glyph glyph-name="greater.tablining" horiz-adv-x="580" 
d="M84 132l12 69l280 128l-234 130l10 57l328 -183v-10z" />
    <glyph glyph-name="degree.tablining" horiz-adv-x="376" 
d="M248 470q36 0 58 25t22 64q0 36 -21.5 59t-55.5 23q-35 0 -57.5 -25.5t-22.5 -63.5q0 -36 21.5 -59t55.5 -23zM247 423q-53 0 -91.5 38t-38.5 92q0 57 39.5 96t95.5 39q54 0 92 -37.5t38 -91.5q0 -58 -39.5 -97t-95.5 -39z" />
    <glyph glyph-name="period.tablining" horiz-adv-x="200" 
d="M72 -7q-20 0 -35.5 15t-15.5 37q0 23 15.5 38t35.5 15q21 0 36.5 -15t15.5 -38q0 -22 -15.5 -37t-36.5 -15z" />
    <glyph glyph-name="comma.tablining" horiz-adv-x="200" 
d="M-6 -112l56 112q-29 13 -29 47q0 21 15.5 36.5t35.5 15.5q22 0 37 -15t15 -37q0 -19 -18 -45l-75 -114h-37z" />
    <glyph glyph-name="colon.tablining" horiz-adv-x="200" 
d="M72 -7q-20 0 -35.5 15t-15.5 37q0 23 15.5 38t35.5 15q21 0 36.5 -15t15.5 -38q0 -22 -15.5 -37t-36.5 -15zM112 219q-21 0 -36.5 15t-15.5 37t15.5 37t36.5 15t36 -15t15 -37t-15 -37t-36 -15z" />
    <glyph glyph-name="semicolon.tablining" horiz-adv-x="200" 
d="M-6 -112l56 112q-29 13 -29 47q0 21 15.5 36.5t35.5 15.5q22 0 37 -15t15 -37q0 -19 -18 -45l-75 -114h-37zM112 219q-21 0 -36.5 15t-15.5 37t15.5 37t36.5 15t36 -15t15 -37t-15 -37t-36 -15z" />
    <glyph glyph-name="parenleft.tablining" horiz-adv-x="300" 
d="M157 -133q-104 143 -104 338q0 294 249 513l37 -38q-96 -91 -156.5 -210.5t-60.5 -262.5q0 -177 81 -311z" />
    <glyph glyph-name="parenright.tablining" horiz-adv-x="300" 
d="M29 -133l-37 37q217 207 217 476q0 175 -81 309l45 29q105 -142 105 -336q0 -296 -249 -515z" />
    <glyph glyph-name="bracketleft.tablining" horiz-adv-x="300" 
d="M14 -128l150 850h191l-9 -55h-122l-130 -740h122l-11 -55h-191z" />
    <glyph glyph-name="bracketright.tablining" horiz-adv-x="300" 
d="M-24 -128l10 55h122l130 740h-121l9 55h191l-150 -850h-191z" />
    <glyph glyph-name="braceleft.tablining" horiz-adv-x="300" 
d="M161 -128q-136 0 -109 149l32 183q7 39 -3.5 54t-38.5 15h-27l10 55h23q30 0 46.5 16t23.5 55l35 192q14 76 49.5 103.5t90.5 27.5h62l-9 -53h-44q-35 0 -53 -16.5t-26 -63.5l-35 -197q-8 -45 -28.5 -65t-58.5 -26q67 -13 53 -99l-33 -188q-9 -50 4.5 -69t47.5 -19h42
l-10 -54h-44z" />
    <glyph glyph-name="braceright.tablining" horiz-adv-x="300" 
d="M-24 -128l9 53h46q34 0 52 16.5t27 63.5l35 205q8 44 28.5 64t58.5 26q-67 13 -53 99l33 181q8 50 -5.5 69t-47.5 19h-43l10 54h46q136 0 109 -149l-32 -176q-7 -39 3.5 -54t38.5 -15h28l-10 -55h-24q-29 0 -46 -16t-24 -54l-36 -200q-14 -76 -49 -103.5t-90 -27.5h-64z
" />
    <glyph glyph-name="section.tablining" horiz-adv-x="580" 
d="M247 -180q-59 0 -101.5 25t-59.5 65l-21 -82h-50l33 187h54q3 -66 39 -102.5t100 -35.5q56 0 87 30t31 78q0 38 -20 61t-63 45l-96 49q-55 28 -80 63.5t-25 85.5q0 103 115 143q-21 31 -21 83q0 74 52 124t131 50q52 0 85.5 -22t47.5 -56l19 69h49l-29 -167h-52
q-10 117 -114 117q-55 0 -86 -32.5t-31 -80.5q0 -40 19.5 -66t58.5 -46l93 -48q113 -57 113 -150q0 -51 -33 -86t-85 -49q24 -41 24 -84q0 -75 -50.5 -121.5t-133.5 -46.5zM379 108q77 29 77 89q0 31 -17.5 53t-59.5 44l-94 48q-46 24 -69 52q-73 -32 -73 -95
q0 -32 17.5 -55t59.5 -44l92 -47q45 -22 67 -45z" />
    <glyph glyph-name="numbersign.tablining" horiz-adv-x="580" 
d="M167 236l28 110h-89l9 52h93l29 120h-98l9 51h102l28 111h58l-28 -111h107l29 111h57l-28 -111h91l-10 -51h-93l-30 -120h99l-10 -52h-102l-27 -110h-59l28 110h-108l-27 -110h-58zM265 398h108l29 120h-107z" />
    <glyph glyph-name="zero.numerator" horiz-adv-x="501" 
d="M274 282q67 0 109 60.5t42 147.5q0 64 -29 102.5t-83 38.5q-68 0 -110 -61t-42 -147q0 -67 29 -104t84 -37zM273 225q-86 0 -133.5 54t-47.5 143q0 110 63.5 188t159.5 78q84 0 131 -54.5t47 -142.5q0 -113 -62.5 -189.5t-157.5 -76.5z" />
    <glyph glyph-name="one.numerator" horiz-adv-x="332" 
d="M58 233l10 55h83l59 336h-99l10 56h166l-69 -392h82l-9 -55h-233z" />
    <glyph glyph-name="two.numerator" horiz-adv-x="395" 
d="M41 233l8 41l198 162q81 66 81 127q0 32 -20.5 51t-53.5 19q-72 0 -103 -81l-58 18q19 54 61.5 86t100.5 32q65 0 103 -34.5t38 -88.5q0 -80 -101 -162l-101 -82q-15 -12 -30.5 -22.5t-23.5 -14.5l-7 -5q36 5 67 5h114l18 60h49l-19 -111h-321z" />
    <glyph glyph-name="three.numerator" horiz-adv-x="412" 
d="M227 225q-62 0 -106 27.5t-60 69.5l57 29q33 -70 109 -70q46 0 75 28.5t29 72.5q0 82 -106 82q-30 0 -50 -9l-8 14l118 119l49 45q-32 -4 -60 -4h-103l-15 -54h-49l18 105h295l-6 -34l-100 -101q-34 -30 -45 -35q58 -3 94 -36.5t36 -93.5q0 -70 -48.5 -112.5
t-123.5 -42.5z" />
    <glyph glyph-name="four.numerator" horiz-adv-x="436" 
d="M274 233l17 93h-246l8 44l315 309h51l-54 -302h55l-10 -51h-54l-17 -93h-65zM123 373q30 4 52 4h125l25 138q2 10 9 42t7 35q-24 -32 -56 -64l-124 -123z" />
    <glyph glyph-name="five.numerator" horiz-adv-x="407" 
d="M224 225q-59 0 -100.5 26.5t-61.5 67.5l54 30q34 -69 108 -69q49 0 79.5 28t30.5 73q0 42 -28 65.5t-76 23.5q-63 0 -110 -35l-8 5l44 240h260l-19 -103h-48l4 51h-152l-22 -122q28 15 71 15q66 0 107.5 -38.5t41.5 -100.5q0 -72 -48 -114.5t-127 -42.5z" />
    <glyph glyph-name="six.numerator" horiz-adv-x="426" 
d="M244 225q-71 0 -117.5 44.5t-46.5 108.5q0 76 71 154l137 148h77l-92 -101q-18 -20 -64 -59q32 17 67 17q56 0 98.5 -40.5t42.5 -103.5q0 -75 -48.5 -121.5t-124.5 -46.5zM247 279q47 0 75.5 31.5t28.5 78.5q0 45 -26 72.5t-72 27.5q-49 0 -78 -31t-29 -80
q0 -43 27.5 -71t73.5 -28z" />
    <glyph glyph-name="seven.numerator" horiz-adv-x="403" 
d="M91 233l257 392h-184l-18 -64h-50l21 119h323l-6 -35l-269 -412h-74z" />
    <glyph glyph-name="eight.numerator" horiz-adv-x="428" 
d="M240 224q-70 0 -115 35.5t-45 93.5q0 47 30.5 80.5t81.5 44.5q-54 28 -54 90q0 51 40 85.5t104 34.5q61 0 96 -32.5t35 -82.5q0 -39 -23 -66t-62 -38q36 -13 57.5 -42t21.5 -66q0 -62 -47 -99.5t-120 -37.5zM241 278q46 0 73 24t27 63q0 37 -27 60t-69 23q-44 0 -72 -24
t-28 -65q0 -37 26 -59t70 -22zM273 495q34 0 56.5 20.5t22.5 51.5q0 32 -20 51t-52 19q-37 0 -59 -20t-22 -52q0 -31 21 -50.5t53 -19.5z" />
    <glyph glyph-name="nine.numerator" horiz-adv-x="426" 
d="M140 233l95 101q38 40 63 59q-28 -16 -66 -16q-60 0 -102 40t-42 104q0 72 49 119.5t124 47.5q72 0 119 -44t47 -108q0 -76 -70 -155l-139 -148h-78zM251 426q50 0 80 30.5t30 79.5q0 43 -28 71t-74 28q-48 0 -76 -31t-28 -79q0 -45 25.5 -72t70.5 -27z" />
    <glyph glyph-name="zero.denominator" horiz-adv-x="501" 
d="M233 49q67 0 109 60.5t42 147.5q0 64 -29 102.5t-83 38.5q-68 0 -110 -61t-42 -147q0 -67 29 -104t84 -37zM232 -8q-86 0 -133.5 54t-47.5 143q0 110 63.5 188t159.5 78q84 0 131 -54.5t47 -142.5q0 -113 -62.5 -189.5t-157.5 -76.5z" />
    <glyph glyph-name="one.denominator" horiz-adv-x="332" 
d="M17 0l10 55h83l59 336h-99l10 56h166l-69 -392h82l-9 -55h-233z" />
    <glyph glyph-name="two.denominator" horiz-adv-x="395" 
d="M0 0l8 41l198 162q81 66 81 127q0 32 -20.5 51t-53.5 19q-72 0 -103 -81l-58 18q19 54 61.5 86t100.5 32q65 0 103 -34.5t38 -88.5q0 -80 -101 -162l-101 -82q-15 -12 -30.5 -22.5t-22.5 -15.5l-8 -4q36 5 67 5h114l18 60h49l-19 -111h-321z" />
    <glyph glyph-name="three.denominator" horiz-adv-x="412" 
d="M186 -8q-62 0 -106 27.5t-60 69.5l57 29q33 -70 109 -70q46 0 75 28.5t29 72.5q0 82 -106 82q-30 0 -50 -9l-8 14l118 119l49 45q-32 -4 -60 -4h-103l-15 -54h-49l18 105h295l-6 -34l-100 -101q-34 -30 -45 -35q58 -3 94 -36.5t36 -93.5q0 -70 -48.5 -112.5t-123.5 -42.5
z" />
    <glyph glyph-name="four.denominator" horiz-adv-x="436" 
d="M233 0l17 93h-246l8 44l315 309h51l-54 -302h55l-10 -51h-54l-17 -93h-65zM82 140q30 4 52 4h125l25 138q2 10 9 42t7 35q-24 -32 -56 -64l-124 -123z" />
    <glyph glyph-name="five.denominator" horiz-adv-x="407" 
d="M183 -8q-59 0 -100.5 26.5t-61.5 67.5l54 30q35 -69 108 -69q49 0 79.5 28t30.5 73q0 42 -28 65.5t-76 23.5q-63 0 -110 -35l-8 5l44 240h260l-19 -103h-48l4 51h-152l-22 -122q28 15 71 15q66 0 107.5 -38.5t41.5 -100.5q0 -72 -48 -114.5t-127 -42.5z" />
    <glyph glyph-name="six.denominator" horiz-adv-x="426" 
d="M203 -8q-71 0 -117.5 44.5t-46.5 108.5q0 76 71 154l137 148h77l-92 -101q-18 -20 -64 -59q32 17 67 17q56 0 98.5 -40.5t42.5 -103.5q0 -75 -48.5 -121.5t-124.5 -46.5zM206 46q47 0 75.5 31.5t28.5 78.5q0 45 -26 72.5t-72 27.5q-49 0 -78 -31t-29 -80q0 -43 27.5 -71
t73.5 -28z" />
    <glyph glyph-name="seven.denominator" horiz-adv-x="403" 
d="M50 0l257 392h-184l-18 -64h-50l21 119h323l-6 -35l-269 -412h-74z" />
    <glyph glyph-name="eight.denominator" horiz-adv-x="428" 
d="M199 -9q-70 0 -115 35.5t-45 93.5q0 47 30.5 80.5t81.5 44.5q-54 28 -54 90q0 51 40 85.5t104 34.5q61 0 96 -32.5t35 -82.5q0 -40 -23 -66.5t-62 -37.5q36 -13 57.5 -42t21.5 -66q0 -62 -47 -99.5t-120 -37.5zM200 45q46 0 73 24t27 63q0 37 -27 60t-69 23
q-44 0 -72 -24t-28 -65q0 -37 26 -59t70 -22zM232 262q34 0 56.5 20.5t22.5 51.5q0 32 -20 51t-52 19q-37 0 -59 -20t-22 -52q0 -31 21 -50.5t53 -19.5z" />
    <glyph glyph-name="nine.denominator" horiz-adv-x="426" 
d="M99 0l95 101q38 40 63 59q-28 -16 -66 -16q-60 0 -102 40t-42 104q0 72 49 119.5t124 47.5q72 0 119 -44t47 -108q0 -76 -70 -155l-139 -148h-78zM210 193q50 0 80 30.5t30 79.5q0 43 -28 71t-74 28q-48 0 -76 -31t-28 -79q0 -45 25.5 -72t70.5 -27z" />
    <glyph glyph-name="zero.subscript" horiz-adv-x="426" 
d="M157 -209q57 0 92.5 52t35.5 127q0 54 -24 86t-70 32q-57 0 -93 -52.5t-36 -125.5q0 -56 24 -87.5t71 -31.5zM155 -257q-71 0 -111.5 46t-40.5 120q0 94 54.5 161t135.5 67q71 0 110.5 -46t39.5 -120q0 -96 -53.5 -162t-134.5 -66z" />
    <glyph glyph-name="one.subscript" horiz-adv-x="274" 
d="M-29 -250l9 47h68l48 284h-81l9 49h138l-58 -333h68l-8 -47h-193z" />
    <glyph glyph-name="two.subscript" horiz-adv-x="339" 
d="M-36 -250l6 33l160 133q74 61 74 114q0 27 -17.5 43.5t-45.5 16.5q-57 0 -90 -68l-46 23q17 43 54 67.5t85 24.5q53 0 85.5 -29.5t32.5 -75.5q0 -67 -92 -145l-80 -66q-26 -20 -48 -31q21 3 53 3h97l15 51h41l-16 -94h-268z" />
    <glyph glyph-name="three.subscript" horiz-adv-x="351" 
d="M118 -257q-52 0 -90.5 24t-51.5 58l48 25q27 -59 95 -59q39 0 64 24t25 61q0 69 -95 69q-19 0 -41 -6l-6 11l101 103l42 35q-24 -3 -47 -3h-87l-14 -44h-41l16 89h248l-4 -27l-92 -91q-20 -17 -36 -27q50 -2 81 -31.5t31 -78.5q0 -58 -41 -95t-105 -37z" />
    <glyph glyph-name="four.subscript" horiz-adv-x="369" 
d="M160 -250l14 78h-205l6 39l261 264h47l-45 -256h48l-9 -47h-47l-14 -78h-56zM32 -131q29 4 47 4h103l20 115l16 74q-21 -30 -49 -60l-100 -101q-6 -7 -15 -15t-16 -12z" />
    <glyph glyph-name="five.subscript" horiz-adv-x="353" 
d="M115 -257q-47 0 -82.5 22t-53.5 56l47 27q34 -58 95 -58q39 0 63.5 24t24.5 61q0 36 -23.5 56.5t-63.5 20.5q-50 0 -89 -29l-11 7l36 200h219l-17 -88h-39l2 44h-128l-18 -103q22 12 61 12q57 0 92 -32.5t35 -86.5q0 -59 -41.5 -96t-108.5 -37z" />
    <glyph glyph-name="six.subscript" horiz-adv-x="364" 
d="M134 -257q-59 0 -99 38.5t-40 91.5q0 61 55 121l122 136h65l-76 -85q-30 -33 -57 -50q24 13 55 13q49 0 86 -35t37 -89q0 -62 -42 -101.5t-106 -39.5zM136 -211q40 0 65 26.5t25 67.5q0 38 -22.5 61.5t-60.5 23.5q-41 0 -67 -26t-26 -68q0 -37 24 -61t62 -24z" />
    <glyph glyph-name="seven.subscript" horiz-adv-x="343" 
d="M-1 -250l224 335h-156l-17 -52h-41l18 97h271l-5 -30l-233 -350h-61z" />
    <glyph glyph-name="eight.subscript" horiz-adv-x="365" 
d="M131 -258q-59 0 -98 30.5t-39 78.5q0 41 25.5 69t69.5 38q-46 23 -46 77q0 43 34.5 72.5t87.5 29.5q52 0 82.5 -27.5t30.5 -71.5q0 -33 -20 -56t-53 -32q30 -11 48.5 -35.5t18.5 -54.5q0 -53 -40 -85.5t-101 -32.5zM131 -213q39 0 62.5 21t23.5 55q0 31 -23.5 50.5
t-59.5 19.5q-37 0 -61 -21t-24 -55q0 -32 22.5 -51t59.5 -19zM157 -27q29 0 48.5 18t19.5 44q0 27 -17.5 43t-44.5 16q-31 0 -49.5 -16.5t-18.5 -43.5t17.5 -44t44.5 -17z" />
    <glyph glyph-name="nine.subscript" horiz-adv-x="364" 
d="M43 -250l79 85q23 25 58 50q-26 -13 -55 -13q-52 0 -88.5 35t-36.5 90q0 62 41.5 101t104.5 39q61 0 101.5 -38t40.5 -93q0 -62 -55 -121l-124 -135h-66zM138 -86q43 0 69 25t26 67q0 37 -24.5 61t-62.5 24q-41 0 -66 -26t-25 -68q0 -38 22 -60.5t61 -22.5z" />
    <glyph glyph-name="zero.superscript" horiz-adv-x="426" 
d="M252 341q57 0 92.5 52t35.5 127q0 54 -24 86t-70 32q-57 0 -93 -52.5t-36 -125.5q0 -56 24 -87.5t71 -31.5zM250 293q-71 0 -111.5 46t-40.5 120q0 94 54.5 161t135.5 67q71 0 110.5 -46t39.5 -120q0 -96 -53.5 -162t-134.5 -66z" />
    <glyph glyph-name="one.superscript" horiz-adv-x="274" 
d="M66 300l9 47h68l48 284h-81l9 49h138l-58 -333h68l-8 -47h-193z" />
    <glyph glyph-name="two.superscript" horiz-adv-x="339" 
d="M59 300l6 33l160 133q74 61 74 114q0 27 -17.5 43.5t-45.5 16.5q-57 0 -90 -68l-46 23q17 43 54 67.5t85 24.5q53 0 85.5 -29.5t32.5 -75.5q0 -67 -92 -145l-80 -66q-29 -24 -49 -32q1 0 10 1t21.5 2t22.5 1h97l15 51h41l-16 -94h-268z" />
    <glyph glyph-name="three.superscript" horiz-adv-x="351" 
d="M213 293q-52 0 -90.5 24t-51.5 58l48 25q27 -59 95 -59q39 0 64 24t25 61q0 69 -95 69q-19 0 -41 -6l-6 11l101 103l42 35q-24 -3 -47 -3h-87l-14 -44h-41l16 89h248l-4 -27l-92 -91q-23 -22 -36 -27q50 -2 81 -31.5t31 -78.5q0 -58 -41 -95t-105 -37z" />
    <glyph glyph-name="four.superscript" horiz-adv-x="369" 
d="M255 300l14 78h-205l6 39l261 264h47l-45 -256h48l-9 -47h-47l-14 -78h-56zM127 419q29 4 47 4h103l20 115l16 74q-21 -30 -49 -60l-100 -101q-6 -7 -15 -15t-15 -12z" />
    <glyph glyph-name="five.superscript" horiz-adv-x="353" 
d="M210 293q-47 0 -82.5 22t-53.5 56l47 27q34 -58 95 -58q39 0 63.5 24t24.5 61q0 36 -23.5 56.5t-63.5 20.5q-50 0 -89 -29l-11 7l36 200h219l-17 -88h-39l2 44h-128l-18 -103q22 12 61 12q57 0 92 -32.5t35 -86.5q0 -59 -41.5 -96t-108.5 -37z" />
    <glyph glyph-name="six.superscript" horiz-adv-x="364" 
d="M229 293q-59 0 -99 38.5t-40 91.5q0 61 55 121l122 136h65l-76 -85q-28 -29 -55 -49q21 12 53 12q49 0 86 -35t37 -89q0 -62 -42 -101.5t-106 -39.5zM231 339q40 0 65 26.5t25 67.5q0 38 -22.5 61.5t-60.5 23.5q-41 0 -67 -26t-26 -68q0 -37 24 -61t62 -24z" />
    <glyph glyph-name="seven.superscript" horiz-adv-x="343" 
d="M94 300l224 335h-156l-17 -52h-41l18 97h271l-5 -30l-233 -350h-61z" />
    <glyph glyph-name="eight.superscript" horiz-adv-x="365" 
d="M226 292q-59 0 -98 30.5t-39 78.5q0 41 25.5 69t69.5 38q-46 23 -46 77q0 43 34.5 72.5t87.5 29.5q52 0 82.5 -27.5t30.5 -71.5q0 -33 -20 -56t-53 -32q30 -11 48.5 -35.5t18.5 -54.5q0 -53 -40 -85.5t-101 -32.5zM226 337q39 0 62.5 21t23.5 55q0 31 -23.5 50.5
t-59.5 19.5q-37 0 -61 -21t-24 -55q0 -32 22.5 -51t59.5 -19zM252 523q29 0 48.5 18t19.5 44q0 27 -17.5 43t-44.5 16q-31 0 -49.5 -16.5t-18.5 -43.5t17.5 -44t44.5 -17z" />
    <glyph glyph-name="nine.superscript" horiz-adv-x="364" 
d="M138 300l79 85q23 25 58 50q-23 -13 -55 -13q-52 0 -88.5 35t-36.5 90q0 62 41.5 101t104.5 39q61 0 101.5 -38t40.5 -93q0 -62 -55 -121l-124 -135h-66zM233 464q43 0 69 25t26 67q0 37 -24.5 61t-62.5 24q-41 0 -66 -26t-25 -68q0 -38 22 -60.5t61 -22.5z" />
    <glyph glyph-name="A.alt" horiz-adv-x="696" 
d="M-21 0l10 55h63l309 570h-79l9 55h182l114 -625h66l-9 -55h-213l10 55h73l-22 128h-301l-69 -128h75l-9 -55h-209zM220 238h262l-42 235q-20 111 -20 142q-1 -1 -10.5 -20.5t-27 -54t-34.5 -66.5z" />
    <glyph glyph-name="G.alt" horiz-adv-x="772" 
d="M405 -8q-147 0 -239 90.5t-92 234.5q0 162 105.5 266.5t261.5 104.5q83 0 139 -29t79 -76l26 97h53l-35 -195h-57q-12 66 -65.5 104t-140.5 38q-126 0 -210 -88t-84 -219q0 -121 71 -193.5t189 -72.5q111 0 176 59t82 151h-235l10 58h303q-11 -150 -98 -240t-239 -90z
" />
    <glyph glyph-name="M.alt" horiz-adv-x="888" 
d="M-3 0l10 55h67l145 570h-88l9 55h152l124 -371l23 -81q20 41 45 80l234 372h157l-9 -55h-82l-26 -570h68l-10 -55h-211l9 55h74l19 418q5 93 11 112q-21 -42 -50 -86l-232 -369h-24l-122 363q-6 19 -27 92q-10 -62 -20 -105l-107 -425h74l-10 -55h-203z" />
    <glyph glyph-name="Q.alt1" horiz-adv-x="786" 
d="M312 -161l28 158q-118 17 -192 103t-74 211q0 162 105 269.5t259 107.5q137 0 228.5 -89t91.5 -229q0 -159 -101.5 -265t-252.5 -111l-27 -155h-65zM441 200l-26 -147q117 8 194 96.5t77 217.5q0 115 -69 187.5t-182 72.5q-122 0 -205.5 -89.5t-83.5 -221.5
q0 -104 55 -174.5t149 -85.5l26 144h65z" />
    <glyph glyph-name="Q.alt2" horiz-adv-x="786" 
d="M575 -130q-39 0 -77.5 14t-62.5 30t-56 42q-29 22 -46 33t-45.5 22t-55.5 11q-71 0 -120 -74l-48 40q45 70 121 85q-111 85 -111 240q0 160 105 267.5t259 107.5q137 0 228.5 -89t91.5 -229q0 -155 -97 -257.5t-242 -110.5l25 -18q69 -49 131 -49t101 45l46 -45
q-55 -65 -147 -65zM397 54q123 0 206 90t83 223q0 115 -69 187.5t-182 72.5q-122 0 -205.5 -89.5t-83.5 -221.5q0 -116 69 -189t182 -73z" />
    <glyph glyph-name="Aacute.alt" horiz-adv-x="696" 
d="M-21 0l10 55h63l309 570h-79l9 55h182l114 -625h66l-9 -55h-213l10 55h73l-22 128h-301l-69 -128h75l-9 -55h-209zM220 238h262l-42 235q-20 111 -20 142q-1 -1 -10.5 -20.5t-27 -54t-34.5 -66.5zM408 756l98 193h84l-127 -193h-55z" />
    <glyph glyph-name="Abreve.alt" horiz-adv-x="696" 
d="M-21 0l10 55h63l309 570h-79l9 55h182l114 -625h66l-9 -55h-213l10 55h73l-22 128h-301l-69 -128h75l-9 -55h-209zM220 238h262l-42 235q-20 111 -20 142q-1 -1 -10.5 -20.5t-27 -54t-34.5 -66.5zM431 747q-54 0 -86 33.5t-36 83.5l56 9q5 -34 19.5 -52.5t46.5 -18.5
q61 0 79 71l56 -10q-11 -50 -46 -83t-89 -33z" />
    <glyph glyph-name="Acircumflex.alt" horiz-adv-x="696" 
d="M-21 0l10 55h63l309 570h-79l9 55h182l114 -625h66l-9 -55h-213l10 55h73l-22 128h-301l-69 -128h75l-9 -55h-209zM220 238h262l-42 235q-20 111 -20 142q-1 -1 -10.5 -20.5t-27 -54t-34.5 -66.5zM294 754l159 193h9l96 -193h-57l-55 104l-91 -104h-61z" />
    <glyph glyph-name="Adieresis.alt" horiz-adv-x="696" 
d="M-21 0l10 55h63l309 570h-79l9 55h182l114 -625h66l-9 -55h-213l10 55h73l-22 128h-301l-69 -128h75l-9 -55h-209zM220 238h262l-42 235q-20 111 -20 142q-1 -1 -10.5 -20.5t-27 -54t-34.5 -66.5zM520 774q-18 0 -32 13.5t-14 32.5t14 32.5t32 13.5q19 0 32.5 -13.5
t13.5 -32.5t-13.5 -32.5t-32.5 -13.5zM348 774q-18 0 -32 13.5t-14 32.5t14 32.5t32 13.5q19 0 32.5 -13.5t13.5 -32.5t-13.5 -32.5t-32.5 -13.5z" />
    <glyph glyph-name="Agrave.alt" horiz-adv-x="696" 
d="M-21 0l10 55h63l309 570h-79l9 55h182l114 -625h66l-9 -55h-213l10 55h73l-22 128h-301l-69 -128h75l-9 -55h-209zM220 238h262l-42 235q-20 111 -20 142q-1 -1 -10.5 -20.5t-27 -54t-34.5 -66.5zM402 756l-87 193h80l61 -193h-54z" />
    <glyph glyph-name="Amacron.alt" horiz-adv-x="696" 
d="M-21 0l10 55h63l309 570h-79l9 55h182l114 -625h66l-9 -55h-213l10 55h73l-22 128h-301l-69 -128h75l-9 -55h-209zM220 238h262l-42 235q-20 111 -20 142q-1 -1 -10.5 -20.5t-27 -54t-34.5 -66.5zM323 774l10 54h210l-10 -54h-210z" />
    <glyph glyph-name="Aogonek.alt" horiz-adv-x="696" 
d="M531 -219q-40 0 -67 22.5t-27 62.5q0 33 20.5 61.5t69.5 72.5h-96l10 55h73l-22 128h-301l-69 -128h75l-9 -55h-209l10 55h63l309 570h-79l9 55h182l114 -625h66l-9 -55h-58q-57 -58 -73.5 -82t-16.5 -47q0 -18 11.5 -29t30.5 -11q29 0 50 32l40 -26q-31 -56 -97 -56z
M220 238h262l-42 235q-20 111 -20 142q-1 -1 -10.5 -20.5t-27 -54t-34.5 -66.5z" />
    <glyph glyph-name="Aring.alt" horiz-adv-x="696" 
d="M-21 0l10 55h63l309 570h-79l9 55h182l114 -625h66l-9 -55h-213l10 55h73l-22 128h-301l-69 -128h75l-9 -55h-209zM220 238h262l-42 235q-20 111 -20 142q-1 -1 -10.5 -20.5t-27 -54t-34.5 -66.5zM432 742q-44 0 -74.5 29.5t-30.5 70.5q0 42 30.5 71.5t74.5 29.5
q43 0 73.5 -29.5t30.5 -71.5q0 -41 -30.5 -70.5t-73.5 -29.5zM432 783q24 0 39.5 16t15.5 43t-15.5 43t-39.5 16q-25 0 -40.5 -16t-15.5 -43t15.5 -43t40.5 -16z" />
    <glyph glyph-name="Atilde.alt" horiz-adv-x="696" 
d="M-21 0l10 55h63l309 570h-79l9 55h182l114 -625h66l-9 -55h-213l10 55h73l-22 128h-301l-69 -128h75l-9 -55h-209zM220 238h262l-42 235q-20 111 -20 142q-1 -1 -10.5 -20.5t-27 -54t-34.5 -66.5zM330 750l-51 6q19 110 93 110q28 0 63 -31q3 -3 9.5 -8.5t9 -7.5t7 -5.5
t7.5 -5t6.5 -2.5t7.5 -1q15 0 24 13t17 48l51 -7q-18 -110 -92 -110q-29 0 -64 31q-2 2 -7 6.5t-7 6.5t-5.5 5t-5.5 4t-5 3t-5.5 3t-5 1.5t-5.5 0.5q-14 0 -23.5 -13t-18.5 -47z" />
    <glyph glyph-name="Gbreve.alt" horiz-adv-x="772" 
d="M405 -8q-147 0 -239 90.5t-92 234.5q0 162 105.5 266.5t261.5 104.5q83 0 139 -29t79 -76l26 97h53l-35 -195h-57q-12 66 -65.5 104t-140.5 38q-126 0 -210 -88t-84 -219q0 -121 71 -193.5t189 -72.5q111 0 176 59t82 151h-235l10 58h303q-11 -150 -98 -240t-239 -90z
M461 747q-54 0 -86 33.5t-36 83.5l56 9q5 -34 19.5 -52.5t46.5 -18.5q61 0 79 71l56 -10q-11 -50 -46 -83t-89 -33z" />
    <glyph glyph-name="Gcircumflex.alt" horiz-adv-x="772" 
d="M331 754l159 193h9l96 -193h-57l-55 104l-91 -104h-61zM405 -8q-147 0 -239 90.5t-92 234.5q0 162 105.5 266.5t261.5 104.5q83 0 139 -29t79 -76l26 97h53l-35 -195h-57q-12 66 -65.5 104t-140.5 38q-126 0 -210 -88t-84 -219q0 -121 71 -193.5t189 -72.5q111 0 176 59
t82 151h-235l10 58h303q-11 -150 -98 -240t-239 -90z" />
    <glyph glyph-name="Gcommaaccent.alt" horiz-adv-x="772" 
d="M293 -256l48 102q-28 9 -28 45q0 21 15.5 35.5t34.5 14.5q22 0 36 -13.5t14 -35.5q0 -23 -17 -48l-65 -100h-38zM405 -8q-147 0 -239 90.5t-92 234.5q0 162 105.5 266.5t261.5 104.5q83 0 139 -29t79 -76l26 97h53l-35 -195h-57q-12 66 -65.5 104t-140.5 38
q-126 0 -210 -88t-84 -219q0 -121 71 -193.5t189 -72.5q111 0 176 59t82 151h-235l10 58h303q-11 -150 -98 -240t-239 -90z" />
    <glyph glyph-name="Gdotaccent.alt" horiz-adv-x="772" 
d="M405 -8q-147 0 -239 90.5t-92 234.5q0 162 105.5 266.5t261.5 104.5q83 0 139 -29t79 -76l26 97h53l-35 -195h-57q-12 66 -65.5 104t-140.5 38q-126 0 -210 -88t-84 -219q0 -121 71 -193.5t189 -72.5q111 0 176 59t82 151h-235l10 58h303q-11 -150 -98 -240t-239 -90z
M463 743q-18 0 -32 13.5t-14 32.5t14 32.5t32 13.5t31.5 -13.5t13.5 -32.5t-13.5 -32.5t-31.5 -13.5z" />
    <glyph glyph-name="e.alt" horiz-adv-x="491" 
d="M252 -8q-92 0 -149.5 57.5t-57.5 146.5q0 97 63 162t153 65q91 0 141 -60.5t50 -155.5l-337 -35q5 -55 42.5 -90t96.5 -35q82 0 131 52l39 -40q-65 -67 -172 -67zM259 369q-58 0 -97.5 -40.5t-46.5 -104.5l267 28q-5 50 -36 83.5t-87 33.5z" />
    <glyph glyph-name="eacute.alt" horiz-adv-x="491" 
d="M258 498l98 193h84l-127 -193h-55zM252 -8q-92 0 -149.5 57.5t-57.5 146.5q0 97 63 162t153 65q91 0 141 -60.5t50 -155.5l-337 -35q5 -55 42.5 -90t96.5 -35q82 0 131 52l39 -40q-65 -67 -172 -67zM259 369q-58 0 -97.5 -40.5t-46.5 -104.5l267 28q-5 50 -36 83.5
t-87 33.5z" />
    <glyph glyph-name="ebreve.alt" horiz-adv-x="491" 
d="M252 -8q-92 0 -149.5 57.5t-57.5 146.5q0 97 63 162t153 65q91 0 141 -60.5t50 -155.5l-337 -35q5 -55 42.5 -90t96.5 -35q82 0 131 52l39 -40q-65 -67 -172 -67zM259 369q-58 0 -97.5 -40.5t-46.5 -104.5l267 28q-5 50 -36 83.5t-87 33.5zM278 489q-54 0 -86 33.5
t-36 83.5l56 9q5 -34 19.5 -52.5t46.5 -18.5q61 0 79 71l56 -10q-11 -50 -46 -83t-89 -33z" />
    <glyph glyph-name="ecaron.alt" horiz-adv-x="491" 
d="M449 681l-159 -193h-9l-96 193h57l55 -104l91 104h61zM252 -8q-92 0 -149.5 57.5t-57.5 146.5q0 97 63 162t153 65q91 0 141 -60.5t50 -155.5l-337 -35q5 -55 42.5 -90t96.5 -35q82 0 131 52l39 -40q-65 -67 -172 -67zM259 369q-58 0 -97.5 -40.5t-46.5 -104.5l267 28
q-5 50 -36 83.5t-87 33.5z" />
    <glyph glyph-name="ecircumflex.alt" horiz-adv-x="491" 
d="M151 496l159 193h9l96 -193h-57l-55 104l-91 -104h-61zM252 -8q-92 0 -149.5 57.5t-57.5 146.5q0 97 63 162t153 65q91 0 141 -60.5t50 -155.5l-337 -35q5 -55 42.5 -90t96.5 -35q82 0 131 52l39 -40q-65 -67 -172 -67zM259 369q-58 0 -97.5 -40.5t-46.5 -104.5l267 28
q-5 50 -36 83.5t-87 33.5z" />
    <glyph glyph-name="edieresis.alt" horiz-adv-x="491" 
d="M385 516q-18 0 -32 13.5t-14 32.5t14 32.5t32 13.5q19 0 32.5 -13.5t13.5 -32.5t-13.5 -32.5t-32.5 -13.5zM213 516q-18 0 -32 13.5t-14 32.5t14 32.5t32 13.5q19 0 32.5 -13.5t13.5 -32.5t-13.5 -32.5t-32.5 -13.5zM252 -8q-92 0 -149.5 57.5t-57.5 146.5q0 97 63 162
t153 65q91 0 141 -60.5t50 -155.5l-337 -35q5 -55 42.5 -90t96.5 -35q82 0 131 52l39 -40q-65 -67 -172 -67zM259 369q-58 0 -97.5 -40.5t-46.5 -104.5l267 28q-5 50 -36 83.5t-87 33.5z" />
    <glyph glyph-name="edotaccent.alt" horiz-adv-x="491" 
d="M290 516q-18 0 -32 13.5t-14 32.5t14 32.5t32 13.5t31.5 -13.5t13.5 -32.5t-13.5 -32.5t-31.5 -13.5zM252 -8q-92 0 -149.5 57.5t-57.5 146.5q0 97 63 162t153 65q91 0 141 -60.5t50 -155.5l-337 -35q5 -55 42.5 -90t96.5 -35q82 0 131 52l39 -40q-65 -67 -172 -67z
M259 369q-58 0 -97.5 -40.5t-46.5 -104.5l267 28q-5 50 -36 83.5t-87 33.5z" />
    <glyph glyph-name="egrave.alt" horiz-adv-x="491" 
d="M252 498l-87 193h80l61 -193h-54zM252 -8q-92 0 -149.5 57.5t-57.5 146.5q0 97 63 162t153 65q91 0 141 -60.5t50 -155.5l-337 -35q5 -55 42.5 -90t96.5 -35q82 0 131 52l39 -40q-65 -67 -172 -67zM259 369q-58 0 -97.5 -40.5t-46.5 -104.5l267 28q-5 50 -36 83.5
t-87 33.5z" />
    <glyph glyph-name="emacron.alt" horiz-adv-x="491" 
d="M178 516l10 54h210l-10 -54h-210zM252 -8q-92 0 -149.5 57.5t-57.5 146.5q0 97 63 162t153 65q91 0 141 -60.5t50 -155.5l-337 -35q5 -55 42.5 -90t96.5 -35q82 0 131 52l39 -40q-65 -67 -172 -67zM259 369q-58 0 -97.5 -40.5t-46.5 -104.5l267 28q-5 50 -36 83.5
t-87 33.5z" />
    <glyph glyph-name="eogonek.alt" horiz-adv-x="491" 
d="M385 99l39 -40q-13 -14 -43 -37t-50 -42q-43 -42 -60.5 -67.5t-17.5 -47.5q0 -18 11.5 -29t29.5 -11q29 0 50 32l41 -26q-33 -56 -97 -56q-40 0 -67 22.5t-27 62.5q0 60 94 136q-16 -4 -36 -4q-92 0 -149.5 57.5t-57.5 146.5q0 97 63 162t153 65q91 0 141 -60.5
t50 -155.5l-337 -35q5 -55 42.5 -90t96.5 -35q82 0 131 52zM259 369q-58 0 -97.5 -40.5t-46.5 -104.5l267 28q-5 50 -36 83.5t-87 33.5z" />
    <glyph glyph-name="y.alt" horiz-adv-x="512" 
d="M188 -223q-120 0 -173 96l53 38q21 -37 48.5 -55.5t72.5 -18.5q55 0 90.5 34t46.5 99l18 98q-56 -77 -141 -77q-70 0 -107.5 50t-23.5 133l32 185h-60l9 55h129l-42 -236q-11 -61 11.5 -95t75.5 -34q55 0 91 34.5t47 97.5l32 180h-66l9 53h134l-79 -453
q-34 -184 -207 -184z" />
    <glyph glyph-name="yacute.alt" horiz-adv-x="512" 
d="M256 498l98 193h84l-127 -193h-55zM188 -223q-120 0 -173 96l53 38q21 -37 48.5 -55.5t72.5 -18.5q55 0 90.5 34t46.5 99l18 98q-56 -77 -141 -77q-70 0 -107.5 50t-23.5 133l32 185h-60l9 55h129l-42 -236q-11 -61 11.5 -95t75.5 -34q55 0 91 34.5t47 97.5l32 180h-66
l9 53h134l-79 -453q-34 -184 -207 -184z" />
    <glyph glyph-name="ydieresis.alt" horiz-adv-x="512" 
d="M382 516q-18 0 -32 13.5t-14 32.5t14 32.5t32 13.5q19 0 32.5 -13.5t13.5 -32.5t-13.5 -32.5t-32.5 -13.5zM210 516q-18 0 -32 13.5t-14 32.5t14 32.5t32 13.5q19 0 32.5 -13.5t13.5 -32.5t-13.5 -32.5t-32.5 -13.5zM188 -223q-120 0 -173 96l53 38q21 -37 48.5 -55.5
t72.5 -18.5q55 0 90.5 34t46.5 99l18 98q-56 -77 -141 -77q-70 0 -107.5 50t-23.5 133l32 185h-60l9 55h129l-42 -236q-11 -61 11.5 -95t75.5 -34q55 0 91 34.5t47 97.5l32 180h-66l9 53h134l-79 -453q-34 -184 -207 -184z" />
    <glyph glyph-name="ae.alt" horiz-adv-x="768" 
d="M545 369q-57 0 -97 -40.5t-47 -104.5l267 28q-5 50 -36 83.5t-87 33.5zM386 337q61 86 161 86q91 0 141 -60.5t50 -155.5l-337 -35q5 -55 43 -90t97 -35q81 0 130 52l40 -40q-65 -67 -172 -67q-65 0 -112.5 31t-65.5 85q-17 -52 -61 -84t-116 -32q-68 0 -108 31.5
t-40 85.5q0 67 47.5 99.5t120.5 32.5h134l2 13q9 56 -15.5 84.5t-70.5 28.5q-73 0 -118 -59l-39 40q56 75 158 75q47 0 82.5 -22.5t48.5 -63.5zM190 45q56 0 89.5 26t40.5 68l9 52h-126q-100 0 -100 -76q0 -70 87 -70z" />
    <glyph glyph-name="oe.alt" horiz-adv-x="848" 
d="M249 -8q-87 0 -146.5 59t-59.5 145q0 96 65.5 161.5t159.5 65.5q61 0 106.5 -32t67.5 -85q24 53 72 85t106 32q91 0 140.5 -60.5t49.5 -155.5l-337 -35q5 -55 43 -90t97 -35q81 0 130 52l40 -40q-65 -67 -172 -67q-63 0 -109.5 31.5t-67.5 84.5q-25 -53 -74 -84.5
t-111 -31.5zM251 47q68 0 110.5 48.5t42.5 122.5q0 65 -37.5 107t-99.5 42q-67 0 -111 -48.5t-44 -122.5q0 -65 38.5 -107t100.5 -42zM617 369q-58 0 -98 -41t-46 -104l267 28q-5 50 -35.5 83.5t-87.5 33.5z" />
    <glyph glyph-name="f_b.alt" horiz-adv-x="809" 
d="M227 574l-28 -160h103l-9 -54h-103l-81 -458q-12 -67 -40.5 -90.5t-81.5 -23.5h-41l9 52h30q45 0 56 64l81 456h-66l9 54h66l30 168q13 76 58.5 114.5t116.5 38.5q76 0 115 -46.5t25 -127.5l-41 -226q56 88 155 88q77 0 125.5 -55t48.5 -144q0 -100 -61 -166t-146 -66
q-61 0 -104.5 32t-58.5 88l-26 -112h-58l99 566q10 54 -11 83.5t-65 29.5q-87 0 -106 -105zM540 47q68 0 111 51t43 129q0 63 -33.5 101.5t-89.5 38.5q-67 0 -112 -49t-45 -125q0 -64 34 -105t92 -41z" />
    <glyph glyph-name="f_f_b.alt" horiz-adv-x="1061" 
d="M479 574l-28 -160h103l-9 -54h-103l-77 -436q-12 -67 -40.5 -90.5t-82.5 -23.5h-39l9 52h28q22 0 36 14t21 52l77 432h-184l-81 -458q-12 -67 -40.5 -90.5t-81.5 -23.5h-41l9 52h30q22 0 36 14t21 53l80 453h-66l9 54h66l31 176q23 125 125 125q62 0 93 -45l-40 -42
q-21 29 -50 29q-24 0 -38.5 -15t-21.5 -53l-31 -175h184l30 168q13 76 58.5 114.5t116.5 38.5q76 0 115 -46.5t25 -127.5l-41 -226q56 88 155 88q77 0 125.5 -55t48.5 -144q0 -100 -61 -166t-146 -66q-61 0 -104.5 32t-58.5 88l-26 -112h-58l99 566q10 54 -11 83.5t-65 29.5
q-88 0 -106 -105zM792 47q68 0 111 51t43 129q0 63 -33.5 101.5t-89.5 38.5q-67 0 -112 -49t-45 -125q0 -64 34 -105t92 -41z" />
    <glyph glyph-name="f_f_f_l.alt" horiz-adv-x="1010" 
d="M730 574l-28 -160h103l-9 -54h-103l-76 -429q-12 -67 -40 -90t-82 -23h-39l9 52h28q22 0 36 13.5t21 52.5l75 424h-184l-77 -443q-11 -67 -40 -90.5t-83 -23.5h-39l9 52h28q22 0 36 14t21 52l78 439h-184l-81 -458q-12 -67 -40.5 -90.5t-81.5 -23.5h-41l9 52h30
q22 0 36 14t21 53l80 453h-66l9 54h66l30 169q21 125 125 125q60 0 93 -45l-41 -41q-20 29 -50 29q-24 0 -38.5 -15t-20.5 -54l-30 -168h183l33 183q23 125 125 125q62 0 93 -45l-41 -42q-20 29 -50 29q-24 0 -38.5 -15t-20.5 -53l-32 -182h183l30 168q13 76 58.5 114.5
t116.5 38.5q76 0 115 -47t25 -127l-84 -475q-6 -32 19 -32h45l-9 -54h-53q-45 0 -61 22t-8 70l84 474q10 54 -11 83.5t-65 29.5q-86 0 -106 -105z" />
    <glyph glyph-name="f_f_h.alt" horiz-adv-x="1036" 
d="M728 561l-38 -222q52 84 144 84q70 0 108 -50t23 -134l-27 -153q-6 -32 19 -32h38l-9 -54h-46q-46 0 -61.5 22.5t-7.5 69.5l25 144q11 60 -11.5 94.5t-74.5 34.5q-55 0 -91 -34.5t-47 -97.5l-41 -233h-68l98 566q10 54 -11 83.5t-65 29.5q-88 0 -106 -105l-28 -160h103
l-9 -54h-103l-77 -436q-12 -67 -40.5 -90.5t-82.5 -23.5h-39l9 52h28q22 0 36 14t21 52l77 432h-184l-81 -458q-12 -67 -40.5 -90.5t-81.5 -23.5h-41l9 52h30q22 0 36 14t21 53l80 453h-66l9 54h66l31 176q23 125 125 125q62 0 93 -45l-40 -42q-21 29 -50 29
q-24 0 -38.5 -15t-21.5 -53l-31 -175h184l30 168q13 76 58.5 114.5t116.5 38.5q76 0 115 -46.5t25 -127.5z" />
    <glyph glyph-name="f_f_k.alt" horiz-adv-x="993" 
d="M728 561l-55 -317q-8 -42 -14 -59l193 174h-58l9 55h179l-9 -55h-50l-136 -127l89 -156q13 -22 36 -22h31l-9 -54h-37q-29 0 -45.5 9.5t-31.5 37.5l-84 145l-84 -74l-21 -118h-68l98 566q10 54 -11 83.5t-65 29.5q-88 0 -106 -105l-28 -160h103l-9 -54h-103l-77 -436
q-12 -67 -40.5 -90.5t-82.5 -23.5h-39l9 52h28q22 0 36 14t21 52l77 432h-184l-81 -458q-12 -67 -40.5 -90.5t-81.5 -23.5h-41l9 52h30q22 0 36 14t21 53l80 453h-66l9 54h66l31 176q23 125 125 125q62 0 93 -45l-40 -42q-21 29 -50 29q-24 0 -38.5 -15t-21.5 -53l-31 -175
h184l30 168q13 76 58.5 114.5t116.5 38.5q76 0 115 -46.5t25 -127.5z" />
    <glyph glyph-name="ffl.alt" horiz-adv-x="759" 
d="M728 561l-84 -475q-6 -32 19 -32h45l-9 -54h-53q-45 0 -61 22t-8 70l84 474q10 54 -11 83.5t-65 29.5q-88 0 -106 -105l-28 -160h103l-9 -54h-103l-77 -436q-12 -67 -40.5 -90.5t-82.5 -23.5h-39l9 52h28q22 0 36 14t21 52l77 432h-184l-81 -458q-12 -67 -40.5 -90.5
t-81.5 -23.5h-41l9 52h30q22 0 36 14t21 53l80 453h-66l9 54h66l31 176q23 125 125 125q62 0 93 -45l-40 -42q-21 29 -50 29q-24 0 -38.5 -15t-21.5 -53l-31 -175h184l30 168q13 76 58.5 114.5t116.5 38.5q76 0 115 -46.5t25 -127.5z" />
    <glyph glyph-name="f_h.alt" horiz-adv-x="784" 
d="M476 561l-38 -222q52 84 144 84q70 0 108 -50t23 -134l-27 -153q-6 -32 19 -32h38l-9 -54h-46q-46 0 -61.5 22.5t-7.5 69.5l25 144q11 60 -11.5 94.5t-74.5 34.5q-55 0 -91 -34.5t-47 -97.5l-41 -233h-68l98 566q10 54 -11 83.5t-65 29.5q-87 0 -106 -105l-28 -160h103
l-9 -54h-103l-81 -458q-12 -67 -40.5 -90.5t-81.5 -23.5h-41l9 52h30q45 0 56 64l81 456h-66l9 54h66l30 168q13 76 58.5 114.5t116.5 38.5q76 0 115 -47t25 -127z" />
    <glyph glyph-name="f_k.alt" horiz-adv-x="741" 
d="M476 561l-55 -317q-8 -42 -14 -59l193 174h-58l9 55h179l-9 -55h-50l-136 -127l89 -156q13 -22 36 -22h31l-9 -54h-37q-29 0 -45.5 9.5t-31.5 37.5l-84 145l-84 -74l-21 -118h-68l98 566q10 54 -11 83.5t-65 29.5q-87 0 -106 -105l-28 -160h103l-9 -54h-103l-81 -458
q-12 -67 -40.5 -90.5t-81.5 -23.5h-41l9 52h30q45 0 56 64l81 456h-66l9 54h66l30 168q13 76 58.5 114.5t116.5 38.5q76 0 115 -47t25 -127z" />
    <glyph glyph-name="fl.alt" horiz-adv-x="507" 
d="M227 574l-28 -160h103l-9 -54h-103l-81 -458q-12 -67 -40.5 -90.5t-81.5 -23.5h-41l9 52h30q45 0 56 64l81 456h-66l9 54h66l30 168q13 76 58.5 114.5t116.5 38.5q76 0 115 -47t25 -127l-84 -475q-6 -32 19 -32h45l-9 -54h-53q-45 0 -61 22t-8 70l84 474q10 54 -11 83.5
t-65 29.5q-87 0 -106 -105z" />
    <glyph glyph-name="space.up" horiz-adv-x="232" 
 />
    <glyph glyph-name="hyphen.up" horiz-adv-x="296" 
d="M50 236l11 61h207l-11 -61h-207z" />
    <glyph glyph-name="endash.up" horiz-adv-x="436" 
d="M45 242l10 54h358l-9 -54h-359z" />
    <glyph glyph-name="emdash.up" horiz-adv-x="683" 
d="M45 242l10 54h606l-10 -54h-606z" />
    <glyph glyph-name="guilsinglleft.up" horiz-adv-x="255" 
d="M115 84l-65 153v8l119 163h74l-126 -169l68 -155h-70z" />
    <glyph glyph-name="guilsinglright.up" horiz-adv-x="252" 
d="M24 84l126 169l-68 155h70l65 -153v-8l-119 -163h-74z" />
    <glyph glyph-name="guillemotleft.up" horiz-adv-x="406" 
d="M117 84l-66 154l1 8l118 162h74l-125 -169l67 -155h-69zM267 84l-66 154l1 8l118 162h74l-125 -169l67 -155h-69z" />
    <glyph glyph-name="guillemotright.up" horiz-adv-x="403" 
d="M24 84l126 169l-68 155h70l66 -154l-2 -8l-118 -162h-74zM174 84l126 169l-68 155h70l66 -154l-2 -8l-118 -162h-74z" />
    <glyph glyph-name="exclamdown.up" horiz-adv-x="236" 
d="M193 687q21 0 36.5 -15.5t15.5 -37.5t-15.5 -37.5t-36.5 -15.5t-36.5 15.5t-15.5 37.5t15.5 37.5t36.5 15.5zM195 490l-77 -490h-77l101 490h53z" />
    <glyph glyph-name="questiondown.up" horiz-adv-x="464" 
d="M338 493l-32 -176h-44q-71 0 -110 -40.5t-39 -103.5q0 -56 33 -89t88 -33q90 0 139 90l53 -29q-27 -57 -78 -88.5t-116 -31.5q-86 0 -137.5 49t-51.5 130q0 87 58 143.5t150 56.5l22 122h65zM330 687q21 0 36 -15.5t15 -37.5t-15 -37.5t-36 -15.5t-37 15.5t-16 37.5
t16 37.5t37 15.5z" />
    <glyph glyph-name="copyright.up" horiz-adv-x="784" 
d="M417 139q-83 0 -137.5 54.5t-54.5 137.5q0 91 58.5 148.5t139.5 57.5q79 0 110 -53l15 47h44l-22 -124h-46q-15 79 -99 79q-60 0 -97.5 -43t-37.5 -111q0 -62 36 -101t94 -39q62 0 106 41l37 -38q-60 -56 -146 -56zM423 37q127 0 213.5 86t86.5 218q0 133 -86.5 219
t-213.5 86q-129 0 -216 -86t-87 -219q0 -132 87 -218t216 -86zM423 -7q-144 0 -246.5 99.5t-102.5 247.5q0 149 102 248.5t247 99.5q143 0 245 -99.5t102 -248.5q0 -147 -102 -247t-245 -100z" />
    <glyph glyph-name="at.up" horiz-adv-x="873" 
d="M438 -104q-168 0 -273 105.5t-105 269.5q0 181 119.5 299t292.5 118q166 0 269 -100.5t103 -257.5q0 -115 -50 -174t-122 -59q-98 0 -113 84q-23 -41 -59 -64t-79 -23q-77 0 -122 50t-45 129q0 88 55.5 147t132.5 59q50 0 85.5 -28t48.5 -73l19 91h59l-41 -227
q-8 -46 8.5 -70.5t55.5 -24.5q45 0 76 47.5t31 138.5q0 135 -84.5 220.5t-226.5 85.5q-150 0 -249.5 -105t-99.5 -262q0 -143 85.5 -234t228.5 -91q97 0 176 37l21 -46q-78 -42 -197 -42zM432 148q54 0 91 43.5t37 104.5q0 54 -31.5 91t-79.5 37q-55 0 -90 -42t-35 -110
q0 -57 29.5 -90.5t78.5 -33.5z" />
    <glyph glyph-name="A.sc" horiz-adv-x="570" 
d="M-2 0l9 54h48l215 395h-55l10 55h221l-9 -55h-52l78 -395h52l-9 -54h-185l10 54h65l-16 84h-214l-45 -84h62l-10 -54h-175zM191 188h180l-33 171q-13 67 -13 89l-3 -6q-3 -7 -7 -16.5t-9.5 -20t-11 -23t-10.5 -21.5z" />
    <glyph glyph-name="B.sc" horiz-adv-x="517" 
d="M14 0l10 54h63l69 395h-64l10 55h228q62 0 96.5 -34t34.5 -83q0 -96 -92 -122q40 -9 63.5 -37t23.5 -72q0 -71 -47.5 -113.5t-134.5 -42.5h-260zM154 55h117q116 0 116 103q0 37 -21 59t-64 22h-116zM195 290h109q43 0 67 24t24 64q0 30 -18.5 50t-55.5 20h-98z" />
    <glyph glyph-name="C.sc" horiz-adv-x="585" 
d="M307 -8q-107 0 -177 69t-70 176q0 121 78.5 198t189.5 77q57 0 97 -22t54 -52l19 66h50l-29 -166h-53q-14 117 -136 117q-85 0 -141.5 -61t-56.5 -154q0 -82 48 -136t129 -54q94 0 154 75l50 -39q-76 -94 -206 -94z" />
    <glyph glyph-name="D.sc" horiz-adv-x="574" 
d="M14 0l10 54h63l69 395h-64l10 55h195q109 0 171 -61.5t62 -165.5q0 -124 -78.5 -200.5t-211.5 -76.5h-226zM155 55h81q109 0 166 62t57 164q0 77 -42.5 122.5t-126.5 45.5h-66z" />
    <glyph glyph-name="E.sc" 
d="M14 0l10 54h63l69 395h-64l10 55h380l-23 -135h-49l4 79h-191l-30 -165h186l-9 -55h-186l-30 -172h204l25 82h50l-25 -138h-394z" />
    <glyph glyph-name="F.sc" horiz-adv-x="474" 
d="M14 0l10 54h63l69 395h-64l10 55h378l-24 -142h-49l4 86h-187l-32 -179h188l-10 -56h-188l-28 -159h78l-10 -54h-208z" />
    <glyph glyph-name="G.sc" horiz-adv-x="601" 
d="M513 345h-53q-16 110 -131 110q-85 0 -142.5 -63t-57.5 -156q0 -84 48.5 -136t126.5 -52q92 0 142 50l16 93h-137l9 52h203l-43 -243h-51l1 44q-54 -52 -149 -52q-104 0 -170.5 68t-66.5 174q0 120 80 199t190 79q52 0 90 -19.5t55 -51.5l19 63h49z" />
    <glyph glyph-name="H.sc" horiz-adv-x="615" 
d="M14 0l10 54h63l69 395h-64l10 55h193l-10 -55h-61l-30 -170h250l29 170h-61l9 55h194l-10 -55h-64l-70 -395h65l-9 -54h-194l9 54h62l30 172h-249l-31 -172h63l-10 -54h-193z" />
    <glyph glyph-name="I.sc" horiz-adv-x="301" 
d="M14 0l10 54h64l69 395h-65l10 55h199l-10 -55h-65l-69 -395h65l-9 -54h-199z" />
    <glyph glyph-name="J.sc" horiz-adv-x="402" 
d="M130 -8q-50 0 -85 24t-52 61l55 30q28 -58 82 -58q68 0 81 76l56 324h-79l9 55h213l-9 -55h-65l-57 -330q-22 -127 -149 -127z" />
    <glyph glyph-name="K.sc" horiz-adv-x="549" 
d="M357 451l9 53h190l-10 -55h-62l-172 -168l131 -227h54l-10 -54h-173l9 55h45l-105 183l-92 -88l-17 -96h63l-9 -54h-194l10 54h63l69 395h-64l10 55h194l-10 -53h-63l-27 -157q-9 -50 -23 -88q43 53 63 73l171 172h-50z" />
    <glyph glyph-name="L.sc" horiz-adv-x="452" 
d="M14 0l10 54h63l69 395h-64l10 55h204l-10 -55h-71l-69 -393h181l26 92h50l-26 -148h-373z" />
    <glyph glyph-name="M.sc" horiz-adv-x="712" 
d="M14 0l10 54h63l69 395h-64l10 55h132l121 -285l219 285h137l-9 -55h-65l-69 -395h65l-9 -54h-193l10 54h62l48 276q3 15 21 89q-21 -35 -52 -75l-165 -209h-26l-89 203q-27 53 -32 81q0 -35 -10 -88l-49 -277h63l-9 -54h-189z" />
    <glyph glyph-name="N.sc" horiz-adv-x="616" 
d="M14 0l10 54h63l69 395h-64l11 55h127l162 -317q28 -55 43 -92q0 46 11 104l45 250h-59l10 55h179l-10 -55h-57l-79 -453h-55l-178 348q-32 59 -34 69q0 -27 -9 -80l-49 -279h64l-9 -54h-191z" />
    <glyph glyph-name="O.sc" horiz-adv-x="625" 
d="M308 50q86 0 144 63t58 157q0 82 -49 133t-128 51q-86 0 -144 -62.5t-58 -155.5q0 -83 49 -134.5t128 -51.5zM304 -8q-104 0 -174 68.5t-70 174.5q0 120 81.5 198.5t195.5 78.5q103 0 173.5 -68t70.5 -174q0 -120 -81.5 -199t-195.5 -79z" />
    <glyph glyph-name="P.sc" horiz-adv-x="494" 
d="M14 0l10 54h63l69 395h-64l10 55h193q88 0 135.5 -39t47.5 -112q0 -85 -56 -129.5t-155 -44.5h-91l-22 -125h66l-9 -54h-197zM186 233h84q141 0 141 118q0 98 -122 98h-66z" />
    <glyph glyph-name="Q.sc" horiz-adv-x="627" 
d="M473 0l-28 33q-57 -41 -140 -41q-105 0 -175 68.5t-70 174.5q0 120 81.5 198.5t195.5 78.5q104 0 174 -68t70 -174q0 -122 -86 -203l11 -13h91l-9 -54h-115zM309 48q57 0 101 26l-75 89l47 37l74 -88q55 63 55 157q0 82 -50 133.5t-128 51.5q-86 0 -144.5 -62.5
t-58.5 -156.5q0 -82 50 -134.5t129 -52.5z" />
    <glyph glyph-name="R.sc" horiz-adv-x="530" 
d="M14 0l10 54h63l69 395h-64l10 55h202q85 0 131 -38.5t46 -109.5q0 -64 -35 -104t-97 -54l70 -144h65l-9 -54h-103l-91 190h-103l-24 -136h62l-9 -54h-193zM188 241h87q138 0 138 115q0 93 -115 93h-74z" />
    <glyph glyph-name="S.sc" horiz-adv-x="439" 
d="M222 -8q-106 0 -147 69l-18 -61h-44l26 153h49q12 -105 127 -105q49 0 75 22.5t26 59.5q0 30 -18 51t-59 45l-33 19q-53 30 -78.5 64t-25.5 78q0 55 40 90t101 35q81 0 111 -55l15 47h44l-22 -133h-49q-14 85 -95 85q-35 0 -58 -17t-23 -48q0 -26 16 -44.5t54 -40.5
l33 -19q59 -33 87 -69.5t28 -84.5q0 -63 -45 -102t-117 -39z" />
    <glyph glyph-name="T.sc" horiz-adv-x="504" 
d="M115 0l9 54h63l70 394h-115l-23 -79h-49l24 135h414l-23 -133h-48l5 77h-116l-70 -394h65l-9 -54h-197z" />
    <glyph glyph-name="U.sc" horiz-adv-x="583" 
d="M273 -7q-93 0 -141.5 53.5t-32.5 145.5l45 257h-63l9 55h193l-9 -55h-62l-46 -261q-12 -67 18.5 -102.5t89.5 -35.5q109 0 129 115l49 284h-61l10 55h189l-10 -55h-63l-51 -293q-29 -163 -193 -163z" />
    <glyph glyph-name="V.sc" horiz-adv-x="565" 
d="M220 0l-98 449h-56l10 55h196l-10 -55h-69l54 -273q12 -59 12 -100q25 63 43 94l154 279h-64l9 55h188l-10 -55h-55l-254 -449h-50z" />
    <glyph glyph-name="W.sc" horiz-adv-x="791" 
d="M178 0l-62 449h-50l10 55h189l-10 -55h-71l31 -240q7 -54 7 -108q7 35 43 100l160 303h39l53 -297q4 -23 7 -48.5t4.5 -40.5t1.5 -16q7 37 36 98l120 249h-65l10 55h184l-10 -55h-57l-213 -449h-45l-53 289q-12 65 -12 105l-3 -6q-2 -6 -6.5 -16t-9.5 -21.5t-12 -26
t-14 -27.5l-158 -297h-44z" />
    <glyph glyph-name="X.sc" horiz-adv-x="543" 
d="M-6 0l10 54h57l178 219l-85 176h-60l9 55h189l-10 -55h-56l42 -90l23 -62q17 32 39 60l73 92h-58l10 55h182l-10 -55h-58l-146 -181l102 -214h59l-9 -54h-194l9 54h62l-57 123l-24 64q-18 -31 -40 -60l-100 -127h60l-9 -54h-188z" />
    <glyph glyph-name="Y.sc" horiz-adv-x="520" 
d="M126 0l9 54h65l24 132l-104 263h-54l10 55h188l-10 -55h-63l54 -145l22 -74q22 38 46 73l101 146h-62l10 55h185l-11 -55h-53l-191 -265l-23 -130h64l-10 -54h-197z" />
    <glyph glyph-name="Z.sc" horiz-adv-x="486" 
d="M13 0l6 36l347 412h-203l-23 -82h-49l24 138h351l-6 -38l-349 -410h233l24 86h48l-24 -142h-379z" />
    <glyph glyph-name="Oslash.sc" horiz-adv-x="625" 
d="M81 -9l-35 37l62 58q-48 64 -48 149q0 120 81.5 198.5t195.5 78.5q96 0 163 -58l60 57l35 -36l-61 -58q47 -63 47 -147q0 -120 -81.5 -199t-195.5 -79q-96 0 -162 57zM130 236q0 -61 26 -105l299 281q-48 42 -121 42q-87 0 -145.5 -62t-58.5 -156zM308 50q86 0 145 63
t59 157q0 58 -25 103l-299 -282q47 -41 120 -41z" />
    <glyph glyph-name="AE.sc" horiz-adv-x="747" 
d="M-9 0l8 54h46l303 395h-55l10 55h428l-23 -135h-49l4 79h-191l-30 -165h186l-9 -55h-186l-30 -172h204l25 82h50l-25 -138h-389l10 54h58l14 83h-174l-63 -83h63l-9 -54h-176zM351 368l-136 -179h144l29 163l22 99q-19 -31 -59 -83z" />
    <glyph glyph-name="OE.sc" horiz-adv-x="768" 
d="M294 0q-109 0 -172.5 61t-63.5 165q0 125 80 201.5t211 76.5h406l-23 -135h-49l4 79h-191l-30 -165h186l-9 -55h-186l-30 -172h204l25 82h50l-25 -138h-387zM299 56h61l69 392h-76q-109 0 -167 -62t-58 -163q0 -77 43.5 -122t127.5 -45z" />
    <glyph glyph-name="Eth.sc" horiz-adv-x="574" 
d="M62 228l9 52h55l30 169h-64l10 55h195q109 0 171 -61.5t62 -165.5q0 -124 -78.5 -200.5t-211.5 -76.5h-226l10 54h63l30 174h-55zM154 55h82q109 0 166 62t57 164q0 77 -42.5 122.5t-126.5 45.5h-67l-30 -169h129l-9 -52h-129z" />
    <glyph glyph-name="Dcroat.sc" horiz-adv-x="574" 
d="M62 228l9 52h55l30 169h-64l10 55h195q109 0 171 -61.5t62 -165.5q0 -124 -78.5 -200.5t-211.5 -76.5h-226l10 54h63l30 174h-55zM154 55h82q109 0 166 62t57 164q0 77 -42.5 122.5t-126.5 45.5h-67l-30 -169h129l-9 -52h-129z" />
    <glyph glyph-name="dotlessi.sc" horiz-adv-x="301" 
d="M14 0l9 54h65l69 395h-65l10 55h199l-10 -55h-65l-69 -395h65l-9 -54h-199z" />
    <glyph glyph-name="Aacute.sc" horiz-adv-x="570" 
d="M-2 0l9 54h48l215 395h-55l10 55h221l-9 -55h-52l78 -395h52l-9 -54h-185l10 54h65l-16 84h-214l-45 -84h62l-10 -54h-175zM191 188h180l-33 171q-13 67 -13 89l-3 -6q-3 -7 -7 -16.5t-9.5 -20t-11 -23t-10.5 -21.5zM315 582l98 193h84l-127 -193h-55z" />
    <glyph glyph-name="Abreve.sc" horiz-adv-x="570" 
d="M-2 0l9 54h48l215 395h-55l10 55h221l-9 -55h-52l78 -395h52l-9 -54h-185l10 54h65l-16 84h-214l-45 -84h62l-10 -54h-175zM191 188h180l-33 171q-13 67 -13 89l-3 -6q-3 -7 -7 -16.5t-9.5 -20t-11 -23t-10.5 -21.5zM347 573q-54 0 -86 33.5t-36 83.5l56 9
q5 -34 19.5 -52.5t46.5 -18.5q61 0 79 71l56 -10q-11 -50 -46 -83t-89 -33z" />
    <glyph glyph-name="Acircumflex.sc" horiz-adv-x="570" 
d="M-2 0l9 54h48l215 395h-55l10 55h221l-9 -55h-52l78 -395h52l-9 -54h-185l10 54h65l-16 84h-214l-45 -84h62l-10 -54h-175zM191 188h180l-33 171q-13 67 -13 89l-3 -6q-3 -7 -7 -16.5t-9.5 -20t-11 -23t-10.5 -21.5zM212 580l159 193h9l96 -193h-57l-55 104l-91 -104h-61
z" />
    <glyph glyph-name="Adieresis.sc" horiz-adv-x="570" 
d="M-2 0l9 54h48l215 395h-55l10 55h221l-9 -55h-52l78 -395h52l-9 -54h-185l10 54h65l-16 84h-214l-45 -84h62l-10 -54h-175zM191 188h180l-33 171q-13 67 -13 89l-3 -6q-3 -7 -7 -16.5t-9.5 -20t-11 -23t-10.5 -21.5zM440 600q-18 0 -32 13.5t-14 32.5t14 32.5t32 13.5
q19 0 32.5 -13.5t13.5 -32.5t-13.5 -32.5t-32.5 -13.5zM268 600q-18 0 -32 13.5t-14 32.5t14 32.5t32 13.5q19 0 32.5 -13.5t13.5 -32.5t-13.5 -32.5t-32.5 -13.5z" />
    <glyph glyph-name="Agrave.sc" horiz-adv-x="570" 
d="M-2 0l9 54h48l215 395h-55l10 55h221l-9 -55h-52l78 -395h52l-9 -54h-185l10 54h65l-16 84h-214l-45 -84h62l-10 -54h-175zM191 188h180l-33 171q-13 67 -13 89l-3 -6q-3 -7 -7 -16.5t-9.5 -20t-11 -23t-10.5 -21.5zM322 582l-87 193h80l61 -193h-54z" />
    <glyph glyph-name="Amacron.sc" horiz-adv-x="570" 
d="M-2 0l9 54h48l215 395h-55l10 55h221l-9 -55h-52l78 -395h52l-9 -54h-185l10 54h65l-16 84h-214l-45 -84h62l-10 -54h-175zM191 188h180l-33 171q-13 67 -13 89l-3 -6q-3 -7 -7 -16.5t-9.5 -20t-11 -23t-10.5 -21.5zM243 600l10 54h210l-10 -54h-210z" />
    <glyph glyph-name="Aogonek.sc" horiz-adv-x="570" 
d="M-2 0l9 54h48l215 395h-55l10 55h221l-9 -55h-52l78 -395h52l-9 -54h-53q-57 -58 -73.5 -82t-16.5 -47q0 -18 11.5 -29t30.5 -11q29 0 50 32l40 -26q-31 -56 -97 -56q-40 0 -67 22.5t-27 62.5q0 33 20.5 61.5t69.5 72.5h-73l10 54h65l-16 84h-214l-45 -84h62l-10 -54
h-175zM191 188h180l-33 171q-13 67 -13 89l-3 -6q-3 -7 -7 -16.5t-9.5 -20t-11 -23t-10.5 -21.5z" />
    <glyph glyph-name="Aring.sc" horiz-adv-x="570" 
d="M-2 0l9 54h48l215 395h-55l10 55h221l-9 -55h-52l78 -395h52l-9 -54h-185l10 54h65l-16 84h-214l-45 -84h62l-10 -54h-175zM353 568q-44 0 -74.5 29.5t-30.5 70.5q0 42 30.5 71.5t74.5 29.5q43 0 73.5 -29.5t30.5 -71.5q0 -41 -30.5 -70.5t-73.5 -29.5zM191 188h180
l-33 171q-13 67 -13 89l-3 -6q-3 -7 -7 -16.5t-9.5 -20t-11 -23t-10.5 -21.5zM353 609q24 0 39.5 16t15.5 43t-15.5 43t-39.5 16q-25 0 -40.5 -16t-15.5 -43t15.5 -43t40.5 -16z" />
    <glyph glyph-name="Atilde.sc" horiz-adv-x="570" 
d="M-2 0l9 54h48l215 395h-55l10 55h221l-9 -55h-52l78 -395h52l-9 -54h-185l10 54h65l-16 84h-214l-45 -84h62l-10 -54h-175zM191 188h180l-33 171q-13 67 -13 89l-3 -6q-3 -7 -7 -16.5t-9.5 -20t-11 -23t-10.5 -21.5zM256 576l-51 6q19 110 93 110q28 0 63 -31
q3 -3 9.5 -8.5t9 -7.5t7 -5.5t7.5 -5t6.5 -2.5t7.5 -1q15 0 24 13t17 48l51 -7q-18 -110 -92 -110q-29 0 -64 31q-2 2 -7 6.5t-7 6.5t-5.5 5t-5.5 4t-5 3t-5.5 3t-5 1.5t-5.5 0.5q-14 0 -23.5 -13t-18.5 -47z" />
    <glyph glyph-name="Cacute.sc" horiz-adv-x="585" 
d="M324 582l98 193h84l-127 -193h-55zM307 -8q-107 0 -177 69t-70 176q0 121 78.5 198t189.5 77q57 0 97 -22t54 -52l19 66h50l-29 -166h-53q-14 117 -136 117q-85 0 -141.5 -61t-56.5 -154q0 -82 48 -136t129 -54q94 0 154 75l50 -39q-76 -94 -206 -94z" />
    <glyph glyph-name="Ccaron.sc" horiz-adv-x="585" 
d="M518 765l-159 -193h-9l-96 193h57l55 -104l91 104h61zM307 -8q-107 0 -177 69t-70 176q0 121 78.5 198t189.5 77q57 0 97 -22t54 -52l19 66h50l-29 -166h-53q-14 117 -136 117q-85 0 -141.5 -61t-56.5 -154q0 -82 48 -136t129 -54q94 0 154 75l50 -39q-76 -94 -206 -94z
" />
    <glyph glyph-name="Ccedilla.sc" horiz-adv-x="585" 
d="M307 -8q-9 0 -21 1l-8 -46q30 -5 51 -28.5t21 -58.5q0 -42 -28.5 -67t-68.5 -25q-38 0 -64.5 17t-36.5 43l41 23q17 -38 57 -38q22 0 35.5 13t13.5 35q0 21 -13.5 35t-39.5 14h-20l15 90q-81 20 -131 84t-50 153q0 121 78.5 198t189.5 77q57 0 97 -22t54 -52l19 66h50
l-29 -166h-53q-14 117 -136 117q-85 0 -141.5 -61t-56.5 -154q0 -82 48 -136t129 -54q94 0 154 75l50 -39q-76 -94 -206 -94z" />
    <glyph glyph-name="Ccircumflex.sc" horiz-adv-x="585" 
d="M216 580l159 193h9l96 -193h-57l-55 104l-91 -104h-61zM307 -8q-107 0 -177 69t-70 176q0 121 78.5 198t189.5 77q57 0 97 -22t54 -52l19 66h50l-29 -166h-53q-14 117 -136 117q-85 0 -141.5 -61t-56.5 -154q0 -82 48 -136t129 -54q94 0 154 75l50 -39q-76 -94 -206 -94z
" />
    <glyph glyph-name="Cdotaccent.sc" horiz-adv-x="585" 
d="M307 -8q-107 0 -177 69t-70 176q0 121 78.5 198t189.5 77q57 0 97 -22t54 -52l19 66h50l-29 -166h-53q-14 117 -136 117q-85 0 -141.5 -61t-56.5 -154q0 -82 48 -136t129 -54q94 0 154 75l50 -39q-76 -94 -206 -94zM352 600q-18 0 -32 13.5t-14 32.5t14 32.5t32 13.5
t31.5 -13.5t13.5 -32.5t-13.5 -32.5t-31.5 -13.5z" />
    <glyph glyph-name="Dcaron.sc" horiz-adv-x="574" 
d="M14 0l10 54h63l69 395h-64l10 55h195q109 0 171 -61.5t62 -165.5q0 -124 -78.5 -200.5t-211.5 -76.5h-226zM155 55h81q109 0 166 62t57 164q0 77 -42.5 122.5t-126.5 45.5h-66zM479 765l-159 -193h-9l-96 193h57l55 -104l91 104h61z" />
    <glyph glyph-name="Eacute.sc" 
d="M14 0l10 54h63l69 395h-64l10 55h380l-23 -135h-49l4 79h-191l-30 -165h186l-9 -55h-186l-30 -172h204l25 82h50l-25 -138h-394zM285 582l98 193h84l-127 -193h-55z" />
    <glyph glyph-name="Ebreve.sc" 
d="M14 0l10 54h63l69 395h-64l10 55h380l-23 -135h-49l4 79h-191l-30 -165h186l-9 -55h-186l-30 -172h204l25 82h50l-25 -138h-394zM314 573q-54 0 -86 33.5t-36 83.5l56 9q5 -34 19.5 -52.5t46.5 -18.5q61 0 79 71l56 -10q-11 -50 -46 -83t-89 -33z" />
    <glyph glyph-name="Ecaron.sc" 
d="M482 765l-159 -193h-9l-96 193h57l55 -104l91 104h61zM14 0l10 54h63l69 395h-64l10 55h380l-23 -135h-49l4 79h-191l-30 -165h186l-9 -55h-186l-30 -172h204l25 82h50l-25 -138h-394z" />
    <glyph glyph-name="Ecircumflex.sc" 
d="M180 580l159 193h9l96 -193h-57l-55 104l-91 -104h-61zM14 0l10 54h63l69 395h-64l10 55h380l-23 -135h-49l4 79h-191l-30 -165h186l-9 -55h-186l-30 -172h204l25 82h50l-25 -138h-394z" />
    <glyph glyph-name="Edieresis.sc" 
d="M411 600q-18 0 -32 13.5t-14 32.5t14 32.5t32 13.5q19 0 32.5 -13.5t13.5 -32.5t-13.5 -32.5t-32.5 -13.5zM239 600q-18 0 -32 13.5t-14 32.5t14 32.5t32 13.5q19 0 32.5 -13.5t13.5 -32.5t-13.5 -32.5t-32.5 -13.5zM14 0l10 54h63l69 395h-64l10 55h380l-23 -135h-49
l4 79h-191l-30 -165h186l-9 -55h-186l-30 -172h204l25 82h50l-25 -138h-394z" />
    <glyph glyph-name="Edotaccent.sc" 
d="M14 0l10 54h63l69 395h-64l10 55h380l-23 -135h-49l4 79h-191l-30 -165h186l-9 -55h-186l-30 -172h204l25 82h50l-25 -138h-394zM322 600q-18 0 -32 13.5t-14 32.5t14 32.5t32 13.5t31.5 -13.5t13.5 -32.5t-13.5 -32.5t-31.5 -13.5z" />
    <glyph glyph-name="Egrave.sc" 
d="M14 0l10 54h63l69 395h-64l10 55h380l-23 -135h-49l4 79h-191l-30 -165h186l-9 -55h-186l-30 -172h204l25 82h50l-25 -138h-394zM295 582l-87 193h80l61 -193h-54z" />
    <glyph glyph-name="Emacron.sc" 
d="M14 0l10 54h63l69 395h-64l10 55h380l-23 -135h-49l4 79h-191l-30 -165h186l-9 -55h-186l-30 -172h204l25 82h50l-25 -138h-394zM208 600l10 54h210l-10 -54h-210z" />
    <glyph glyph-name="Eogonek.sc" 
d="M14 0l10 54h63l69 395h-64l10 55h380l-23 -135h-49l4 79h-191l-30 -165h186l-9 -55h-186l-30 -172h204l25 82h50l-25 -138h-56q-57 -58 -73.5 -82t-16.5 -47q0 -18 11.5 -29t30.5 -11q29 0 50 32l40 -26q-31 -56 -97 -56q-40 0 -67 22.5t-27 62.5q0 33 20.5 61.5
t69.5 72.5h-279z" />
    <glyph glyph-name="Gbreve.sc" horiz-adv-x="601" 
d="M513 345h-53q-16 110 -131 110q-85 0 -142.5 -63t-57.5 -156q0 -84 48.5 -136t126.5 -52q92 0 142 50l16 93h-137l9 52h203l-43 -243h-51l1 44q-54 -52 -149 -52q-104 0 -170.5 68t-66.5 174q0 120 80 199t190 79q52 0 90 -19.5t55 -51.5l19 63h49zM348 573
q-54 0 -86 33.5t-36 83.5l56 9q5 -34 19.5 -52.5t46.5 -18.5q61 0 79 71l56 -10q-11 -50 -46 -83t-89 -33z" />
    <glyph glyph-name="Gcircumflex.sc" horiz-adv-x="601" 
d="M213 580l159 193h9l96 -193h-57l-55 104l-91 -104h-61zM513 345h-53q-16 110 -131 110q-85 0 -142.5 -63t-57.5 -156q0 -84 48.5 -136t126.5 -52q92 0 142 50l16 93h-137l9 52h203l-43 -243h-51l1 44q-54 -52 -149 -52q-104 0 -170.5 68t-66.5 174q0 120 80 199t190 79
q52 0 90 -19.5t55 -51.5l19 63h49z" />
    <glyph glyph-name="Gcommaaccent.sc" horiz-adv-x="601" 
d="M173 -256l48 102q-28 9 -28 45q0 21 15.5 35.5t34.5 14.5q22 0 36 -13.5t14 -35.5q0 -23 -17 -48l-65 -100h-38zM513 345h-53q-16 110 -131 110q-85 0 -142.5 -63t-57.5 -156q0 -84 48.5 -136t126.5 -52q92 0 142 50l16 93h-137l9 52h203l-43 -243h-51l1 44
q-54 -52 -149 -52q-104 0 -170.5 68t-66.5 174q0 120 80 199t190 79q52 0 90 -19.5t55 -51.5l19 63h49z" />
    <glyph glyph-name="Gdotaccent.sc" horiz-adv-x="601" 
d="M346 600q-18 0 -32 13.5t-14 32.5t14 32.5t32 13.5t31.5 -13.5t13.5 -32.5t-13.5 -32.5t-31.5 -13.5zM513 345h-53q-16 110 -131 110q-85 0 -142.5 -63t-57.5 -156q0 -84 48.5 -136t126.5 -52q92 0 142 50l16 93h-137l9 52h203l-43 -243h-51l1 44q-54 -52 -149 -52
q-104 0 -170.5 68t-66.5 174q0 120 80 199t190 79q52 0 90 -19.5t55 -51.5l19 63h49z" />
    <glyph glyph-name="Hbar.sc" horiz-adv-x="613" 
d="M68 342l9 43h68l11 64h-64l10 55h193l-10 -55h-61l-12 -64h250l11 64h-61l9 55h194l-10 -55h-64l-12 -64h70l-8 -43h-69l-51 -288h65l-9 -54h-194l9 54h62l30 167h-250l-30 -167h62l-9 -54h-193l9 54h64l50 288h-69zM193 273h250l12 69h-250z" />
    <glyph glyph-name="Hcircumflex.sc" horiz-adv-x="615" 
d="M233 580l159 193h9l96 -193h-57l-55 104l-91 -104h-61zM14 0l10 54h63l69 395h-64l10 55h193l-10 -55h-61l-30 -170h250l29 170h-61l9 55h194l-10 -55h-64l-70 -395h65l-9 -54h-194l9 54h62l30 172h-249l-31 -172h63l-10 -54h-193z" />
    <glyph glyph-name="Iacute.sc" horiz-adv-x="301" 
d="M185 582l98 193h84l-127 -193h-55zM14 0l10 54h64l69 395h-65l10 55h199l-10 -55h-65l-69 -395h65l-9 -54h-199z" />
    <glyph glyph-name="Icircumflex.sc" horiz-adv-x="301" 
d="M82 580l159 193h9l96 -193h-57l-55 104l-91 -104h-61zM14 0l10 54h64l69 395h-65l10 55h199l-10 -55h-65l-69 -395h65l-9 -54h-199z" />
    <glyph glyph-name="Idieresis.sc" horiz-adv-x="301" 
d="M312 600q-18 0 -32 13.5t-14 32.5t14 32.5t32 13.5q19 0 32.5 -13.5t13.5 -32.5t-13.5 -32.5t-32.5 -13.5zM140 600q-18 0 -32 13.5t-14 32.5t14 32.5t32 13.5q19 0 32.5 -13.5t13.5 -32.5t-13.5 -32.5t-32.5 -13.5zM14 0l10 54h64l69 395h-65l10 55h199l-10 -55h-65
l-69 -395h65l-9 -54h-199z" />
    <glyph glyph-name="Idotaccent.sc" horiz-adv-x="301" 
d="M14 0l10 54h64l69 395h-65l10 55h199l-10 -55h-65l-69 -395h65l-9 -54h-199zM219 600q-18 0 -32 13.5t-14 32.5t14 32.5t32 13.5t31.5 -13.5t13.5 -32.5t-13.5 -32.5t-31.5 -13.5z" />
    <glyph glyph-name="Igrave.sc" horiz-adv-x="301" 
d="M14 0l10 54h64l69 395h-65l10 55h199l-10 -55h-65l-69 -395h65l-9 -54h-199zM185 582l-87 193h80l61 -193h-54z" />
    <glyph glyph-name="Imacron.sc" horiz-adv-x="301" 
d="M113 600l10 54h210l-10 -54h-210zM14 0l10 54h64l69 395h-65l10 55h199l-10 -55h-65l-69 -395h65l-9 -54h-199z" />
    <glyph glyph-name="Iogonek.sc" horiz-adv-x="301" 
d="M14 0l10 54h64l69 395h-65l10 55h199l-10 -55h-65l-69 -395h65l-9 -54h-69q-57 -58 -73.5 -82t-16.5 -47q0 -18 11.5 -29t30.5 -11q29 0 50 32l40 -26q-31 -56 -97 -56q-40 0 -67 22.5t-27 62.5q0 33 20.5 61.5t69.5 72.5h-71z" />
    <glyph glyph-name="Jcircumflex.sc" horiz-adv-x="402" 
d="M183 580l159 193h9l96 -193h-57l-55 104l-91 -104h-61zM130 -8q-50 0 -85 24t-52 61l55 30q28 -58 82 -58q68 0 81 76l56 324h-79l9 55h213l-9 -55h-65l-57 -330q-22 -127 -149 -127z" />
    <glyph glyph-name="Kcommaaccent.sc" horiz-adv-x="549" 
d="M357 451l9 53h190l-10 -55h-62l-172 -168l131 -227h54l-10 -54h-173l9 55h45l-105 183l-92 -88l-17 -96h63l-9 -54h-194l10 54h63l69 395h-64l10 55h194l-10 -53h-63l-27 -157q-9 -50 -23 -88q43 53 63 73l171 172h-50zM179 -256l48 102q-28 9 -28 45q0 21 15.5 35.5
t34.5 14.5q22 0 36 -13.5t14 -35.5q0 -23 -17 -48l-65 -100h-38z" />
    <glyph glyph-name="Lacute.sc" horiz-adv-x="452" 
d="M14 0l10 54h63l69 395h-64l10 55h204l-10 -55h-71l-69 -393h181l26 92h50l-26 -148h-373zM187 582l98 193h84l-127 -193h-55z" />
    <glyph glyph-name="Lcaron.sc" horiz-adv-x="448" 
d="M360 317l47 103q-28 10 -28 46q0 21 15 35.5t35 14.5q22 0 36.5 -14t14.5 -36q0 -21 -18 -48l-64 -101h-38zM14 0l10 54h63l69 395h-64l10 55h204l-10 -55h-71l-69 -393h181l26 92h50l-26 -148h-373z" />
    <glyph glyph-name="Lcommaaccent.sc" horiz-adv-x="452" 
d="M14 0l10 54h63l69 395h-64l10 55h204l-10 -55h-71l-69 -393h181l26 92h50l-26 -148h-373zM132 -256l48 102q-28 9 -28 45q0 21 15.5 35.5t34.5 14.5q22 0 36 -13.5t14 -35.5q0 -23 -17 -48l-65 -100h-38z" />
    <glyph glyph-name="Lslash.sc" horiz-adv-x="452" 
d="M14 0l10 54h63l23 133l-73 -26l12 58l71 26l36 204h-64l10 55h204l-10 -55h-71l-31 -177l142 52l-11 -58l-141 -52l-28 -158h181l26 92h50l-26 -148h-373z" />
    <glyph glyph-name="Nacute.sc" horiz-adv-x="616" 
d="M14 0l10 54h63l69 395h-64l11 55h127l162 -317q28 -55 43 -92q0 46 11 104l45 250h-59l10 55h179l-10 -55h-57l-79 -453h-55l-178 348q-32 59 -34 69q0 -27 -9 -80l-49 -279h64l-9 -54h-191zM335 582l98 193h84l-127 -193h-55z" />
    <glyph glyph-name="Ncaron.sc" horiz-adv-x="616" 
d="M14 0l10 54h63l69 395h-64l11 55h127l162 -317q25 -50 43 -92q0 46 11 104l45 250h-59l10 55h179l-10 -55h-57l-79 -453h-55l-178 348q-32 59 -34 69q0 -27 -9 -80l-49 -279h64l-9 -54h-191zM526 765l-159 -193h-9l-96 193h57l55 -104l91 104h61z" />
    <glyph glyph-name="Ncommaaccent.sc" horiz-adv-x="616" 
d="M14 0l10 54h63l69 395h-64l11 55h127l162 -317q25 -50 43 -92q0 46 11 104l45 250h-59l10 55h179l-10 -55h-57l-79 -453h-55l-178 348q-32 59 -34 69q0 -27 -9 -80l-49 -279h64l-9 -54h-191zM190 -256l48 102q-28 9 -28 45q0 21 15.5 35.5t34.5 14.5q22 0 36 -13.5
t14 -35.5q0 -23 -17 -48l-65 -100h-38z" />
    <glyph glyph-name="Ntilde.sc" horiz-adv-x="616" 
d="M14 0l10 54h63l69 395h-64l11 55h127l162 -317l43 -92q3 62 11 104l45 250h-59l10 55h179l-10 -55h-57l-79 -453h-55l-178 348q-32 59 -34 69q0 -27 -9 -80l-49 -279h64l-9 -54h-191zM274 576l-51 6q19 110 93 110q28 0 63 -31q3 -3 9.5 -8.5t9 -7.5t7 -5.5t7.5 -5
t6.5 -2.5t7.5 -1q15 0 24 13t17 48l51 -7q-18 -110 -92 -110q-29 0 -64 31q-2 2 -7 6.5t-7 6.5t-5.5 5t-5.5 4t-5 3t-5.5 3t-5 1.5t-5.5 0.5q-14 0 -23.5 -13t-18.5 -47z" />
    <glyph glyph-name="Oacute.sc" horiz-adv-x="625" 
d="M325 582l98 193h84l-127 -193h-55zM308 50q86 0 144 63t58 157q0 82 -49 133t-128 51q-86 0 -144 -62.5t-58 -155.5q0 -83 49 -134.5t128 -51.5zM304 -8q-104 0 -174 68.5t-70 174.5q0 120 81.5 198.5t195.5 78.5q103 0 173.5 -68t70.5 -174q0 -120 -81.5 -199
t-195.5 -79z" />
    <glyph glyph-name="Ocircumflex.sc" horiz-adv-x="625" 
d="M223 580l159 193h9l96 -193h-57l-55 104l-91 -104h-61zM308 50q86 0 144 63t58 157q0 82 -49 133t-128 51q-86 0 -144 -62.5t-58 -155.5q0 -83 49 -134.5t128 -51.5zM304 -8q-104 0 -174 68.5t-70 174.5q0 120 81.5 198.5t195.5 78.5q103 0 173.5 -68t70.5 -174
q0 -120 -81.5 -199t-195.5 -79z" />
    <glyph glyph-name="Odieresis.sc" horiz-adv-x="625" 
d="M451 600q-18 0 -32 13.5t-14 32.5t14 32.5t32 13.5q19 0 32.5 -13.5t13.5 -32.5t-13.5 -32.5t-32.5 -13.5zM279 600q-18 0 -32 13.5t-14 32.5t14 32.5t32 13.5q19 0 32.5 -13.5t13.5 -32.5t-13.5 -32.5t-32.5 -13.5zM308 50q86 0 144 63t58 157q0 82 -49 133t-128 51
q-86 0 -144 -62.5t-58 -155.5q0 -83 49 -134.5t128 -51.5zM304 -8q-104 0 -174 68.5t-70 174.5q0 120 81.5 198.5t195.5 78.5q103 0 173.5 -68t70.5 -174q0 -120 -81.5 -199t-195.5 -79z" />
    <glyph glyph-name="Ograve.sc" horiz-adv-x="625" 
d="M334 582l-87 193h80l61 -193h-54zM308 50q86 0 144 63t58 157q0 82 -49 133t-128 51q-86 0 -144 -62.5t-58 -155.5q0 -83 49 -134.5t128 -51.5zM304 -8q-104 0 -174 68.5t-70 174.5q0 120 81.5 198.5t195.5 78.5q103 0 173.5 -68t70.5 -174q0 -120 -81.5 -199t-195.5 -79
z" />
    <glyph glyph-name="Ohungarumlaut.sc" horiz-adv-x="625" 
d="M254 582l100 193h77l-122 -193h-55zM391 582l101 193h76l-122 -193h-55zM308 50q86 0 144 63t58 157q0 82 -49 133t-128 51q-86 0 -144 -62.5t-58 -155.5q0 -83 49 -134.5t128 -51.5zM304 -8q-104 0 -174 68.5t-70 174.5q0 120 81.5 198.5t195.5 78.5q103 0 173.5 -68
t70.5 -174q0 -120 -81.5 -199t-195.5 -79z" />
    <glyph glyph-name="Omacron.sc" horiz-adv-x="625" 
d="M253 600l10 54h210l-10 -54h-210zM308 50q86 0 144 63t58 157q0 82 -49 133t-128 51q-86 0 -144 -62.5t-58 -155.5q0 -83 49 -134.5t128 -51.5zM304 -8q-104 0 -174 68.5t-70 174.5q0 120 81.5 198.5t195.5 78.5q103 0 173.5 -68t70.5 -174q0 -120 -81.5 -199t-195.5 -79
z" />
    <glyph glyph-name="Otilde.sc" horiz-adv-x="625" 
d="M308 50q86 0 144 63t58 157q0 82 -49 133t-128 51q-86 0 -144 -62.5t-58 -155.5q0 -83 49 -134.5t128 -51.5zM304 -8q-104 0 -174 68.5t-70 174.5q0 120 81.5 198.5t195.5 78.5q103 0 173.5 -68t70.5 -174q0 -120 -81.5 -199t-195.5 -79zM266 576l-51 6q19 110 93 110
q28 0 63 -31q3 -3 9.5 -8.5t9 -7.5t7 -5.5t7.5 -5t6.5 -2.5t7.5 -1q15 0 24 13t17 48l51 -7q-18 -110 -92 -110q-29 0 -64 31q-2 2 -7 6.5t-7 6.5t-5.5 5t-5.5 4t-5 3t-5.5 3t-5 1.5t-5.5 0.5q-14 0 -23.5 -13t-18.5 -47z" />
    <glyph glyph-name="Racute.sc" horiz-adv-x="530" 
d="M14 0l10 54h63l69 395h-64l10 55h202q85 0 131 -38.5t46 -109.5q0 -64 -35 -104t-97 -54l70 -144h65l-9 -54h-103l-91 190h-103l-24 -136h62l-9 -54h-193zM188 241h87q138 0 138 115q0 93 -115 93h-74zM274 582l98 193h84l-127 -193h-55z" />
    <glyph glyph-name="Rcaron.sc" horiz-adv-x="530" 
d="M14 0l10 54h63l69 395h-64l10 55h202q85 0 131 -38.5t46 -109.5q0 -64 -35 -104t-97 -54l70 -144h65l-9 -54h-103l-91 190h-103l-24 -136h62l-9 -54h-193zM188 241h87q138 0 138 115q0 93 -115 93h-74zM471 765l-159 -193h-9l-96 193h57l55 -104l91 104h61z" />
    <glyph glyph-name="Rcommaaccent.sc" horiz-adv-x="530" 
d="M14 0l10 54h63l69 395h-64l10 55h202q85 0 131 -38.5t46 -109.5q0 -64 -35 -104t-97 -54l70 -144h65l-9 -54h-103l-91 190h-103l-24 -136h62l-9 -54h-193zM188 241h87q138 0 138 115q0 93 -115 93h-74zM174 -256l48 102q-28 9 -28 45q0 21 15.5 35.5t34.5 14.5
q22 0 36 -13.5t14 -35.5q0 -23 -17 -48l-65 -100h-38z" />
    </font>
</defs>
</svg>
