<?xml version="1.0" standalone="no"?>
<!DOCTYPE svg PUBLIC "-//W3C//DTD SVG 1.1//EN" "http://www.w3.org/Graphics/SVG/1.1/DTD/svg11.dtd" >
<svg>
<metadata>
Created by FontForge 20110222 at Fri Sep 27 17:41:51 2013
 By Orthosie Webhosting
(C)2009 House Industries/Brand Design Co., Inc. All Rights Reserved.
</metadata>
<defs>
<font id="NeutrafaceSlabTextBoldItalic" horiz-adv-x="520" >
  <font-face 
    font-family="NeutrafaceSlabTextBoldItalic"
    font-weight="700"
    font-style="italic"
    font-stretch="normal"
    units-per-em="1000"
    panose-1="2 6 8 3 2 2 5 9 4 2"
    ascent="788"
    descent="-212"
    x-height="426"
    cap-height="680"
    bbox="-110 -283 1313 974"
    underline-thickness="50"
    underline-position="-50"
    slope="-12"
    unicode-range="U+0020-FB04"
  />
<missing-glyph horiz-adv-x="206" 
 />
    <glyph glyph-name="ff" unicode="ff" horiz-adv-x="640" 
d="M392 327h-161l-75 -424q-13 -73 -43.5 -94t-103.5 -21h-67l16 93h40q12 0 18 5t9 20l74 421h-70l17 99h70l24 132q14 78 53 117.5t111 39.5q60 0 98 -33l-55 -89q-17 14 -35 14q-31 0 -39 -42l-25 -139h161l27 152q28 157 169 157q79 0 125 -54l-75 -77q-16 23 -42 23
q-36 0 -44 -42l-28 -159h110l-17 -99h-110l-71 -399q-13 -73 -43.5 -94t-103.5 -21h-61l16 93h34q12 0 18 5t9 20z" />
    <glyph glyph-name="fi" unicode="fi" horiz-adv-x="560" 
d="M491 504q-32 0 -55 22t-23 56t22.5 55.5t54.5 21.5q33 0 56 -21.5t23 -55.5q0 -35 -22.5 -56.5t-55.5 -21.5zM231 327l-75 -424q-13 -73 -43.5 -94t-103.5 -21h-67l16 93h40q12 0 18 5t9 20l74 421h-70l17 99h70l27 152q14 78 53.5 117.5t112.5 39.5q68 0 117 -46
l-81 -78q-14 16 -26 16q-35 0 -43 -42l-28 -159h282l-54 -305q-4 -23 18 -23h30l-17 -98h-50q-75 0 -100.5 25t-12.5 98l36 204h-149z" />
    <glyph glyph-name="fl" unicode="fl" horiz-adv-x="576" 
d="M99 327h-70l17 99h70l20 113q16 91 68 137t148 46h240l-104 -601q-4 -23 18 -23h38l-17 -98h-58q-75 0 -100.5 25t-12.5 98l88 499h-97q-37 0 -54 -19t-25 -64l-20 -113h93l-17 -99h-93l-75 -424q-13 -73 -43.5 -94t-103.5 -21h-67l16 93h40q22 0 27 26z" />
    <glyph glyph-name="ffi" unicode="ffi" horiz-adv-x="853" 
d="M784 504q-32 0 -55 22t-23 56t22.5 55.5t54.5 21.5q33 0 56 -21.5t23 -55.5q0 -35 -22.5 -56.5t-55.5 -21.5zM524 327l-71 -399q-13 -73 -43.5 -94t-103.5 -21h-61l16 93h34q12 0 18 5t9 20l70 396h-161l-75 -424q-13 -73 -43.5 -94t-103.5 -21h-67l16 93h40q12 0 18 5
t9 20l74 421h-70l17 99h70l24 132q14 78 53 117.5t111 39.5q60 0 98 -33l-55 -89q-17 14 -35 14q-31 0 -39 -42l-25 -139h161l27 152q14 78 53 117.5t113 39.5q68 0 117 -46l-81 -78q-14 16 -26 16q-35 0 -43 -42l-28 -159h282l-54 -305q-4 -23 18 -23h30l-17 -98h-50
q-75 0 -100.5 25t-12.5 98l36 204h-149z" />
    <glyph glyph-name="ffl" unicode="ffl" horiz-adv-x="869" 
d="M524 327l-71 -399q-13 -73 -43.5 -94t-103.5 -21h-61l16 93h34q12 0 18 5t9 20l70 396h-161l-75 -424q-13 -73 -43.5 -94t-103.5 -21h-67l16 93h40q12 0 18 5t9 20l74 421h-70l17 99h70l24 132q14 78 53 117.5t111 39.5q60 0 98 -33l-55 -89q-17 14 -35 14q-31 0 -39 -42
l-25 -139h161l19 113q16 91 68.5 137t148.5 46h240l-104 -601q-4 -23 18 -23h38l-17 -98h-58q-75 0 -100.5 25t-12.5 98l88 499h-97q-37 0 -54 -19.5t-25 -65.5l-20 -111h110l-17 -99h-110z" />
    <glyph glyph-name="f_b" unicode="fb" horiz-adv-x="860" 
d="M592 722l-63 -357q50 70 130 70q70 0 118 -55t48 -149q0 -106 -61 -173t-141 -67q-104 0 -148 88l-28 -79h-112l109 622h-97q-37 0 -54 -19.5t-25 -65.5l-20 -111h93l-17 -99h-93l-75 -424q-13 -73 -43.5 -94t-103.5 -21h-69l18 92h40q12 0 18 5t9 20l74 422h-70l17 99
h70l19 113q16 91 68.5 137t148.5 46h240zM583 93q47 0 75.5 38.5t28.5 101.5q0 47 -22 73t-61 26q-45 0 -74.5 -36t-29.5 -93q0 -51 22 -80.5t61 -29.5z" />
    <glyph glyph-name="f_f_b" unicode="ffb" horiz-adv-x="1153" 
d="M524 327l-71 -399q-13 -73 -43.5 -94t-103.5 -21h-61l16 93h34q12 0 18 5t9 20l70 396h-161l-75 -424q-13 -73 -43.5 -94t-103.5 -21h-67l16 93h40q12 0 18 5t9 20l74 421h-70l17 99h70l24 132q14 78 53 117.5t111 39.5q60 0 98 -33l-55 -89q-17 14 -35 14q-31 0 -39 -42
l-25 -139h161l20 113q16 91 68 137t148 46h240l-63 -357q50 70 130 70q70 0 118 -55t48 -149q0 -106 -61 -173t-141 -67q-104 0 -148 88l-28 -79h-112l109 622h-97q-36 0 -53 -19.5t-26 -65.5l-20 -111h110l-17 -99h-110zM876 93q47 0 75.5 38.5t28.5 101.5q0 47 -22 73
t-61 26q-45 0 -74.5 -36t-29.5 -93q0 -51 22 -80.5t61 -29.5z" />
    <glyph glyph-name="f_f_f" unicode="fff" horiz-adv-x="933" 
d="M248 426h161l24 132q14 78 53 117.5t111 39.5q61 0 98 -33l-55 -89q-17 14 -35 14q-31 0 -39 -42l-25 -139h162l27 152q14 78 54 117.5t114 39.5q79 0 125 -54l-75 -77q-16 23 -42 23q-35 0 -43 -42l-28 -159h109l-17 -99h-109l-67 -376q-13 -73 -43.5 -94t-103.5 -21
h-61l16 93h34q12 0 18 5t9 20l66 373h-162l-71 -399q-13 -73 -43.5 -94t-103.5 -21h-61l16 93h34q12 0 18 5t9 20l70 396h-161l-75 -424q-13 -73 -43.5 -94t-103.5 -21h-67l16 93h40q12 0 18 5t9 20l74 421h-70l17 99h70l20 111q14 78 53 117.5t111 39.5q60 0 98 -33
l-55 -89q-17 14 -35 14q-31 0 -39 -42z" />
    <glyph glyph-name="f_f_f_i" unicode="fffi" horiz-adv-x="1145" 
d="M1076 504q-32 0 -55 22t-23 56t22.5 55.5t54.5 21.5q33 0 56 -21.5t23 -55.5q0 -35 -22.5 -56.5t-55.5 -21.5zM817 327l-67 -376q-13 -73 -43.5 -94t-103.5 -21h-61l16 93h34q12 0 18 5t9 20l66 373h-162l-71 -399q-13 -73 -43.5 -94t-103.5 -21h-61l16 93h34q12 0 18 5
t9 20l70 396h-161l-75 -424q-13 -73 -43.5 -94t-103.5 -21h-67l16 93h40q12 0 18 5t9 20l74 421h-70l17 99h70l20 111q14 78 53 117.5t111 39.5q61 0 98 -33l-55 -89q-17 14 -35 14q-31 0 -39 -42l-21 -118h161l24 132q14 78 53 117.5t111 39.5q60 0 98 -33l-55 -89
q-17 14 -35 14q-31 0 -39 -42l-25 -139h162l27 152q28 157 169 157q79 0 125 -54l-75 -77q-16 23 -42 23q-36 0 -44 -42l-28 -159h280l-53 -305q-4 -23 18 -23h30l-17 -98h-50q-75 0 -100.5 25t-12.5 98l36 204h-148z" />
    <glyph glyph-name="f_f_f_l" unicode="fffl" horiz-adv-x="1162" 
d="M817 327l-67 -376q-13 -73 -43.5 -94t-103.5 -21h-61l16 93h34q12 0 18 5t9 20l66 373h-162l-71 -399q-13 -73 -43.5 -94t-103.5 -21h-61l16 93h34q12 0 18 5t9 20l70 396h-161l-75 -424q-13 -73 -43.5 -94t-103.5 -21h-67l16 93h40q12 0 18 5t9 20l74 421h-70l17 99h70
l20 111q14 78 53 117.5t111 39.5q61 0 98 -33l-55 -89q-17 14 -35 14q-31 0 -39 -42l-21 -118h161l24 132q14 78 53 117.5t111 39.5q60 0 98 -33l-55 -89q-17 14 -35 14q-31 0 -39 -42l-25 -139h162l19 113q16 91 68.5 137t148.5 46h240l-104 -601q-4 -23 18 -23h38l-17 -98
h-58q-75 0 -100.5 25t-12.5 98l88 499h-97q-37 0 -54 -19.5t-25 -65.5l-20 -111h93l-17 -99h-93z" />
    <glyph glyph-name="f_f_h" unicode="ffh" horiz-adv-x="1142" 
d="M409 426l20 113q16 91 68 137t148 46h240l-66 -373q52 86 138 86q71 0 107.5 -55t20.5 -144l-20 -115q-4 -23 18 -23h30l-17 -98h-50q-76 0 -101 25t-12 98l21 119q15 86 -60 86q-76 0 -93 -97l-41 -231h-132l109 622h-97q-36 0 -53 -19.5t-26 -65.5l-20 -111h110
l-17 -99h-110l-71 -399q-13 -73 -43.5 -94t-103.5 -21h-61l16 93h34q12 0 18 5t9 20l70 396h-161l-75 -424q-13 -73 -43.5 -94t-103.5 -21h-67l16 93h40q12 0 18 5t9 20l74 421h-70l17 99h70l24 132q14 78 53 117.5t111 39.5q60 0 98 -33l-55 -89q-17 14 -35 14
q-31 0 -39 -42l-25 -139h161z" />
    <glyph glyph-name="f_f_iacute" unicode="ff&#xed;" horiz-adv-x="853" 
d="M710 500l80 188h158l-136 -188h-102zM409 426l27 152q28 157 169 157q79 0 125 -54l-75 -77q-16 23 -42 23q-36 0 -44 -42l-28 -159h282l-54 -305q-4 -23 18 -23h30l-17 -98h-50q-75 0 -100.5 25t-12.5 98l36 204h-149l-71 -399q-13 -73 -43.5 -94t-103.5 -21h-61l16 93
h34q12 0 18 5t9 20l70 396h-161l-75 -424q-13 -73 -43.5 -94t-103.5 -21h-67l16 93h40q12 0 18 5t9 20l74 421h-70l17 99h70l24 132q14 78 53 117.5t111 39.5q60 0 98 -33l-55 -89q-17 14 -35 14q-31 0 -39 -42l-25 -139h161z" />
    <glyph glyph-name="f_f_icircumflex" unicode="ff&#xee;" horiz-adv-x="853" 
d="M603 500l193 216h11l117 -216h-102l-43 72l-67 -72h-109zM524 327l-71 -399q-13 -73 -43.5 -94t-103.5 -21h-61l16 93h34q12 0 18 5t9 20l70 396h-161l-75 -424q-13 -73 -43.5 -94t-103.5 -21h-67l16 93h40q12 0 18 5t9 20l74 421h-70l17 99h70l24 132q14 78 53 117.5
t111 39.5q60 0 98 -33l-55 -89q-17 14 -35 14q-31 0 -39 -42l-25 -139h161l27 152q14 78 53 117.5t113 39.5q68 0 117 -46l-81 -78q-14 16 -26 16q-35 0 -43 -42l-28 -159h282l-54 -305q-4 -23 18 -23h30l-17 -98h-50q-75 0 -100.5 25t-12.5 98l36 204h-149z" />
    <glyph glyph-name="f_f_idieresis" unicode="ff&#xef;" horiz-adv-x="853" 
d="M879 484q-29 0 -50.5 20.5t-21.5 48.5t21.5 48.5t50.5 20.5q27 0 48 -20.5t21 -48.5t-21 -48.5t-48 -20.5zM703 484q-27 0 -48 20.5t-21 48.5t21 48.5t48 20.5q29 0 50.5 -20.5t21.5 -48.5t-21.5 -48.5t-50.5 -20.5zM524 327l-71 -399q-13 -73 -43.5 -94t-103.5 -21h-61
l16 93h34q12 0 18 5t9 20l70 396h-161l-75 -424q-13 -73 -43.5 -94t-103.5 -21h-67l16 93h40q12 0 18 5t9 20l74 421h-70l17 99h70l24 132q14 78 53 117.5t111 39.5q60 0 98 -33l-55 -89q-17 14 -35 14q-31 0 -39 -42l-25 -139h161l27 152q28 157 169 157q60 0 98 -29
l-63 -86q-10 7 -27 7q-36 0 -44 -42l-28 -159h280l-53 -305q-4 -23 18 -23h30l-17 -98h-50q-75 0 -100.5 25t-12.5 98l36 204h-148z" />
    <glyph glyph-name="f_f_j" unicode="ffj" horiz-adv-x="850" 
d="M793 504q-32 0 -55 22t-23 56t22.5 55.5t54.5 21.5q33 0 56 -21.5t23 -55.5q0 -35 -22.5 -56.5t-55.5 -21.5zM524 327l-71 -399q-13 -73 -43.5 -94t-103.5 -21h-61l16 93h34q12 0 18 5t9 20l70 396h-161l-75 -424q-13 -73 -43.5 -94t-103.5 -21h-67l16 93h40q12 0 18 5
t9 20l74 421h-70l17 99h70l24 132q14 78 53 117.5t111 39.5q60 0 98 -33l-55 -89q-17 14 -35 14q-31 0 -39 -42l-25 -139h161l27 152q14 78 53 117.5t113 39.5q68 0 117 -46l-81 -78q-14 16 -26 16q-35 0 -43 -42l-28 -159h290l-87 -494q-27 -154 -158 -154q-68 0 -111 45
l61 78q14 -18 36 -18q31 0 38 37l71 407h-157z" />
    <glyph glyph-name="f_f_k" unicode="ffk" horiz-adv-x="1107" 
d="M760 0h-132l107 622h-95q-36 0 -53 -19.5t-26 -65.5l-20 -111h110l-17 -99h-110l-71 -399q-13 -73 -43.5 -94t-103.5 -21h-61l16 93h34q12 0 18 5t9 20l70 396h-161l-75 -424q-13 -73 -43.5 -94t-103.5 -21h-67l16 93h40q12 0 18 5t9 20l74 421h-70l17 99h70l24 132
q14 78 53 117.5t111 39.5q60 0 98 -33l-55 -89q-17 14 -35 14q-31 0 -39 -42l-25 -139h161l20 113q16 91 68 137t148 46h240l-73 -418q-11 -60 -24 -99l135 123h-48l17 98h220l-17 -98h-41l-110 -104l54 -104q8 -14 14.5 -18t19.5 -4h31l-17 -98h-56q-47 0 -65 14.5
t-42 62.5l-37 74l-70 -60z" />
    <glyph glyph-name="f_f_t" unicode="fft" horiz-adv-x="945" 
d="M524 327l-71 -399q-13 -73 -43.5 -94t-103.5 -21h-61l16 93h34q12 0 18 5t9 20l70 396h-161l-75 -424q-13 -73 -43.5 -94t-103.5 -21h-67l16 93h40q12 0 18 5t9 20l74 421h-70l17 99h70l24 132q14 78 53 117.5t111 39.5q60 0 98 -33l-55 -89q-17 14 -35 14q-31 0 -39 -42
l-25 -139h161l27 152q28 157 169 157q79 0 125 -54l-75 -77q-16 23 -42 23q-36 0 -44 -42l-28 -159h161l27 152h131l-27 -152h103l-17 -99h-103l-30 -171q-12 -63 27 -63q17 0 42 15l44 -83q-46 -34 -118 -34q-68 0 -105 39t-21 130l30 167h-161z" />
    <glyph glyph-name="f_h" unicode="fh" horiz-adv-x="849" 
d="M352 722h240l-66 -373q52 86 138 86q71 0 107.5 -55t20.5 -144l-20 -115q-4 -23 18 -23h30l-17 -98h-50q-76 0 -101 25t-12 98l21 119q15 86 -60 86q-76 0 -93 -97l-41 -231h-132l108 622h-96q-37 0 -54 -19t-25 -64l-20 -113h93l-17 -99h-93l-75 -424q-13 -73 -43.5 -94
t-103.5 -21h-67l16 93h40q22 0 27 26l74 420h-70l17 99h70l20 113q16 91 68 137t148 46z" />
    <glyph glyph-name="f_iacute" unicode="f&#xed;" horiz-adv-x="560" 
d="M417 500l80 188h158l-136 -188h-102zM231 327l-75 -424q-13 -73 -43.5 -94t-103.5 -21h-67l16 93h40q12 0 18 5t9 20l74 421h-70l17 99h70l27 152q14 78 53.5 117.5t112.5 39.5q68 0 117 -46l-81 -78q-14 16 -26 16q-35 0 -43 -42l-28 -159h282l-54 -305q-4 -23 18 -23
h30l-17 -98h-50q-75 0 -100.5 25t-12.5 98l36 204h-149z" />
    <glyph glyph-name="f_icircumflex" unicode="f&#xee;" horiz-adv-x="560" 
d="M310 500l193 216h11l117 -216h-102l-43 72l-67 -72h-109zM231 327l-75 -424q-13 -73 -43.5 -94t-103.5 -21h-67l16 93h40q12 0 18 5t9 20l74 421h-70l17 99h70l27 152q14 78 53.5 117.5t112.5 39.5q68 0 117 -46l-81 -78q-14 16 -26 16q-35 0 -43 -42l-28 -159h282
l-54 -305q-4 -23 18 -23h30l-17 -98h-50q-75 0 -100.5 25t-12.5 98l36 204h-149z" />
    <glyph glyph-name="f_idieresis" unicode="f&#xef;" horiz-adv-x="560" 
d="M586 484q-29 0 -50.5 20.5t-21.5 48.5t21.5 48.5t50.5 20.5q27 0 48 -20.5t21 -48.5t-21 -48.5t-48 -20.5zM410 484q-27 0 -48 20.5t-21 48.5t21 48.5t48 20.5q29 0 50.5 -20.5t21.5 -48.5t-21.5 -48.5t-50.5 -20.5zM116 426l27 152q28 157 169 157q60 0 98 -29l-63 -86
q-10 7 -27 7q-36 0 -44 -42l-28 -159h282l-54 -305q-4 -23 18 -23h30l-17 -98h-50q-75 0 -100.5 25t-12.5 98l36 204h-149l-75 -424q-13 -73 -43.5 -94t-103.5 -21h-67l16 93h40q12 0 18 5t9 20l74 421h-70l17 99h70z" />
    <glyph glyph-name="f_j" unicode="fj" horiz-adv-x="557" 
d="M500 504q-32 0 -55 22t-23 56t22.5 55.5t54.5 21.5q33 0 56 -21.5t23 -55.5q0 -35 -22.5 -56.5t-55.5 -21.5zM388 327h-157l-75 -424q-13 -73 -43.5 -94t-103.5 -21h-69l18 92h40q12 0 18 6t10 26l73 415h-70l17 99h70l27 152q28 157 169 157q79 0 125 -54l-75 -77
q-16 23 -42 23q-36 0 -44 -42l-28 -159h290l-87 -494q-27 -154 -158 -154q-68 0 -111 45l61 78q14 -18 36 -18q31 0 38 37z" />
    <glyph glyph-name="f_k" unicode="fk" horiz-adv-x="812" 
d="M465 0h-132l107 622h-93q-37 0 -54 -19t-25 -64l-20 -113h93l-17 -99h-93l-75 -424q-13 -73 -43.5 -94t-103.5 -21h-67l16 93h40q22 0 27 26l74 420h-70l17 99h70l20 113q16 91 68 137t148 46h238l-73 -415q-10 -61 -24 -102l135 123h-48l17 98h220l-17 -98h-41
l-110 -104l54 -104q8 -14 14.5 -18t19.5 -4h31l-17 -98h-56q-47 0 -65 14.5t-42 62.5l-37 74l-70 -60z" />
    <glyph glyph-name="f_t" unicode="ft" horiz-adv-x="642" 
d="M478 -9q-68 0 -105 39t-21 130l30 167h-151l-75 -424q-13 -73 -43.5 -94t-103.5 -21h-67l16 93h40q12 0 18 5.5t10 25.5l73 415h-70l17 99h70l27 152q28 157 169 157q79 0 125 -54l-75 -77q-16 23 -42 23q-36 0 -44 -42l-28 -159h151l27 152h131l-27 -152h103l-17 -99
h-103l-30 -171q-12 -63 27 -63q17 0 42 15l44 -83q-46 -34 -118 -34z" />
    <glyph glyph-name=".notdef" horiz-adv-x="206" 
 />
    <glyph glyph-name=".null" horiz-adv-x="0" 
 />
    <glyph glyph-name="nonmarkingreturn" horiz-adv-x="333" 
 />
    <glyph glyph-name="space" unicode=" " horiz-adv-x="206" 
 />
    <glyph glyph-name="exclam" unicode="!" horiz-adv-x="269" 
d="M82 231l63 449h148l-109 -449h-102zM112 -6q-34 0 -57.5 23.5t-23.5 59.5q0 35 23.5 59t57.5 24t58 -24t24 -59q0 -36 -24 -59.5t-58 -23.5z" />
    <glyph glyph-name="quotedbl" unicode="&#x22;" horiz-adv-x="400" 
d="M276 433l30 247h139l-65 -247h-104zM92 433l31 247h137l-64 -247h-104z" />
    <glyph glyph-name="numbersign" unicode="#" horiz-adv-x="475" 
d="M140 426h-68l16 91h75l26 102h103l-26 -102h71l26 102h103l-26 -102h58l-16 -91h-65l-21 -87h70l-16 -91h-77l-26 -106h-103l26 106h-71l-26 -106h-103l26 106h-56l16 91h63zM314 426h-71l-21 -87h71z" />
    <glyph glyph-name="dollar" unicode="$" horiz-adv-x="476" 
d="M220 -116h-66l20 115q-41 12 -73 45l-20 -44h-74l28 161h78q19 -57 77 -72l22 130q-72 22 -108.5 58.5t-36.5 102.5q0 62 50 106.5t133 44.5q12 0 17 -1l18 101h66l-20 -115q26 -12 45 -32l19 38h76l-28 -158h-72q-14 48 -56 65l-19 -112l11 -3q151 -47 151 -161
q0 -79 -59 -121t-149 -42h-12zM335 143q0 17 -12.5 30.5t-47.5 25.5l-20 -116q41 3 60.5 20t19.5 40zM185 388q0 -32 48 -51l18 101q-66 -4 -66 -50z" />
    <glyph glyph-name="percent" unicode="%" horiz-adv-x="846" 
d="M213 227q-67 0 -110 43t-43 105q0 68 46 112t112 44q67 0 110 -41.5t43 -103.5q0 -69 -46 -114t-112 -45zM170 0l419 522h107l-419 -522h-107zM648 -10q-67 0 -110 43t-43 105q0 68 46 112t112 44q67 0 110 -41.5t43 -103.5q0 -69 -46 -114t-112 -45zM213 312q24 0 39 19
t15 49q0 31 -13 48t-35 17q-24 0 -39.5 -19.5t-15.5 -51.5q0 -30 13.5 -46t35.5 -16zM648 75q24 0 39 18.5t15 49.5t-12.5 48t-34.5 17q-24 0 -40 -19.5t-16 -51.5q0 -30 13.5 -46t35.5 -16z" />
    <glyph glyph-name="ampersand" unicode="&#x26;" horiz-adv-x="694" 
d="M503 403h196l-16 -96h-52q-24 -107 -93 -179l19 -30h78l-17 -98h-152l-29 45q-71 -54 -170 -54q-111 0 -173 54.5t-62 136.5q0 73 44 124.5t134 89.5l-9 17q-27 54 -27 109q0 74 52 120t138 46q75 0 123 -40.5t48 -108.5q0 -54 -38 -94t-116 -73l100 -157q36 48 45 92
h-40zM378 127l-123 194q-84 -45 -84 -125q0 -44 29.5 -71.5t81.5 -27.5q54 0 96 30zM304 528q0 -40 26 -79l4 -6q81 39 81 96q0 25 -13 41.5t-37 16.5q-28 0 -44.5 -19t-16.5 -50z" />
    <glyph glyph-name="quotesingle" unicode="'" horiz-adv-x="211" 
d="M90 433l31 247h137l-64 -247h-104z" />
    <glyph glyph-name="parenleft" unicode="(" horiz-adv-x="337" 
d="M179 -133q-50 65 -83.5 154.5t-33.5 190.5q0 97 23.5 180t65.5 144.5t82 102t92 80.5l62 -71q-196 -179 -196 -438q0 -151 76 -289z" />
    <glyph glyph-name="parenright" unicode=")" horiz-adv-x="327" 
d="M45 -133l-64 71q195 178 195 438q0 153 -75 289l88 54q50 -64 82.5 -153.5t32.5 -191.5q0 -79 -16.5 -149.5t-41 -121t-61 -98t-68.5 -77.5t-72 -61z" />
    <glyph glyph-name="asterisk" unicode="*" horiz-adv-x="414" 
d="M338 680l-46 -120l92 83l46 -105l-121 -20l116 -42l-66 -91l-75 93l23 -118h-117l47 120l-93 -83l-46 105l124 19l-119 43l66 91l75 -93l-23 118h117z" />
    <glyph glyph-name="plus" unicode="+" horiz-adv-x="403" 
d="M260 217l-21 -116h-110l21 116h-109l18 102h108l21 116h110l-21 -116h108l-18 -102h-107z" />
    <glyph glyph-name="comma" unicode="," horiz-adv-x="240" 
d="M-1 -114l62 119q-44 24 -44 74q0 34 23.5 57.5t57.5 23.5t57.5 -24t23.5 -59q0 -36 -35 -83l-79 -108h-66z" />
    <glyph glyph-name="hyphen" unicode="-" horiz-adv-x="292" 
d="M31 194l19 106h226l-19 -106h-226z" />
    <glyph glyph-name="period" unicode="." horiz-adv-x="240" 
d="M98 -6q-34 0 -57.5 23.5t-23.5 59.5q0 35 23.5 59t57.5 24t57.5 -24t23.5 -59q0 -36 -23.5 -59.5t-57.5 -23.5z" />
    <glyph glyph-name="slash" unicode="/" horiz-adv-x="396" 
d="M-69 -128l422 850h123l-422 -850h-123z" />
    <glyph glyph-name="zero" unicode="0" horiz-adv-x="628" 
d="M313 -9q-111 0 -187.5 74.5t-76.5 188.5q0 126 85.5 201.5t196.5 75.5t187.5 -74.5t76.5 -188.5q0 -126 -85.5 -201.5t-196.5 -75.5zM316 98q60 0 99.5 44.5t39.5 125.5q0 71 -35 113t-92 42q-60 0 -99.5 -45t-39.5 -124q0 -71 35 -113.5t92 -42.5z" />
    <glyph glyph-name="one" unicode="1" horiz-adv-x="420" 
d="M36 98h101l57 321h-109l18 103h246l-75 -424h97l-16 -98h-336z" />
    <glyph glyph-name="two" unicode="2" horiz-adv-x="495" 
d="M-5 0l16 77l228 169q89 66 89 120q0 23 -15.5 37.5t-40.5 14.5q-70 0 -90 -78l-119 30q22 83 82.5 122t135.5 39q95 0 140 -44.5t45 -112.5q0 -110 -151 -203l-74 -46q-7 -5 -58 -30q28 7 65 7h101l20 49h88l-27 -151h-435z" />
    <glyph glyph-name="three" unicode="3" horiz-adv-x="514" 
d="M155 196l-21 31l142 153q10 11 21 21.5t17 15.5l7 5q-34 -3 -62 -3h-91l-20 -61h-92l29 164h421l-13 -65l-128 -125q-38 -36 -43 -38q54 -8 100.5 -54.5t46.5 -123.5q0 -92 -69 -155.5t-184 -63.5q-86 0 -143 40.5t-82 99.5l116 53q33 -84 111 -84q51 0 82.5 30t31.5 76
q0 54 -28.5 79t-68.5 25q-43 0 -80 -20z" />
    <glyph glyph-name="four" unicode="4" horiz-adv-x="541" 
d="M220 -7h72l10 55h-294l14 83l394 397h93l-70 -389h70l-16 -91h-70l-10 -55h63l-15 -92h-258zM314 139l27 152q3 25 10 46q-22 -29 -33 -41l-124 -127q-7 -6 -15 -12.5t-13.5 -10.5t-11 -7.5t-6.5 -4.5q15 5 51 5h115z" />
    <glyph glyph-name="five" unicode="5" horiz-adv-x="504" 
d="M496 522l-28 -158h-87l-4 54h-164l-24 -135q37 23 89 23q85 0 132 -55.5t47 -133.5q0 -93 -67 -156.5t-180 -63.5q-82 0 -137.5 37.5t-78.5 97.5l118 51q11 -30 37 -53t64 -23q48 0 77.5 28.5t29.5 72.5q0 45 -26.5 70.5t-70.5 25.5q-74 0 -135 -51l-27 13l63 356h372z
" />
    <glyph glyph-name="six" unicode="6" horiz-adv-x="535" 
d="M266 -9q-96 0 -158.5 59t-62.5 152q0 96 100 208l178 199h154l-155 -171q-27 -30 -79 -58q48 16 75 16q74 0 128 -53.5t54 -137.5q0 -99 -66.5 -156.5t-167.5 -57.5zM266 90q42 0 69.5 32.5t27.5 79.5t-23 75.5t-64 28.5q-42 0 -69 -32t-27 -79t23 -76t63 -29z" />
    <glyph glyph-name="seven" unicode="7" horiz-adv-x="475" 
d="M26 -94l302 510h-166l-25 -65h-91l30 171h426l-13 -67l-328 -549h-135z" />
    <glyph glyph-name="eight" unicode="8" horiz-adv-x="529" 
d="M259 89q46 0 73 29.5t27 77.5q0 41 -22.5 67t-63.5 26q-43 0 -72 -29t-29 -78q0 -40 23 -66.5t64 -26.5zM253 -9q-96 0 -157 52.5t-61 130.5q0 52 36 97t104 66q-58 41 -58 110q0 74 57 122.5t150 48.5q92 0 141.5 -46t49.5 -112q0 -44 -27.5 -79.5t-75.5 -55.5
q83 -41 83 -134t-69.5 -146.5t-172.5 -53.5zM307 371q31 0 52 22t22 60q1 29 -15 48t-45 19q-32 0 -53 -21.5t-22 -59.5q-1 -29 15.5 -48.5t45.5 -19.5z" />
    <glyph glyph-name="nine" unicode="9" horiz-adv-x="533" 
d="M72 -94l151 166q30 34 83 69q-37 -16 -82 -16q-71 0 -122 53t-51 137q0 99 66.5 157.5t165.5 58.5q101 0 162 -56t61 -155q0 -104 -108 -224l-169 -190h-157zM276 215q44 0 69.5 31t25.5 78q0 46 -24 74t-65 28q-44 0 -69 -31.5t-25 -78.5q0 -45 23.5 -73t64.5 -28z" />
    <glyph glyph-name="colon" unicode=":" horiz-adv-x="246" 
d="M141 226q-34 0 -57.5 23.5t-23.5 59.5q0 35 24 59t57 24t57 -24t24 -59q0 -36 -23.5 -59.5t-57.5 -23.5zM101 -6q-34 0 -57.5 23.5t-23.5 59.5q0 35 24 59t57 24t57 -24t24 -59q0 -36 -23.5 -59.5t-57.5 -23.5z" />
    <glyph glyph-name="semicolon" unicode=";" horiz-adv-x="246" 
d="M141 226q-34 0 -57.5 23.5t-23.5 59.5q0 35 24 59t57 24t57 -24t24 -59q0 -36 -23.5 -59.5t-57.5 -23.5zM2 -114l62 119q-44 24 -44 74q0 34 23.5 57.5t57.5 23.5q33 0 57 -24t24 -59q0 -36 -35 -83l-79 -108h-66z" />
    <glyph glyph-name="less" unicode="&#x3c;" horiz-adv-x="351" 
d="M291 69l-260 166v18l322 165l-21 -121l-130 -59l108 -58z" />
    <glyph glyph-name="equal" unicode="=" horiz-adv-x="397" 
d="M49 282l19 109h327l-19 -109h-327zM20 118l20 109h327l-20 -109h-327z" />
    <glyph glyph-name="greater" unicode="&#x3e;" horiz-adv-x="351" 
d="M12 68l22 122l129 58l-108 58l19 111l260 -166v-17z" />
    <glyph glyph-name="question" unicode="?" horiz-adv-x="493" 
d="M181 231l26 149h35q59 0 89.5 31.5t30.5 77.5q0 40 -22.5 64.5t-63.5 24.5q-64 0 -101 -70l-100 59q27 53 82.5 87.5t124.5 34.5q101 0 156 -53t55 -139q0 -84 -52 -138.5t-126 -64.5l-11 -63h-123zM218 -6q-34 0 -57.5 23.5t-23.5 59.5q0 35 23.5 59t57.5 24t58 -24
t24 -59q0 -36 -24 -59.5t-58 -23.5z" />
    <glyph glyph-name="at" unicode="@" horiz-adv-x="902" 
d="M437 92q35 0 57.5 29t22.5 75q0 41 -17.5 66.5t-48.5 25.5q-33 0 -54.5 -29t-21.5 -78q0 -89 62 -89zM451 -207q-190 0 -301.5 109.5t-111.5 279.5q0 127 60 225.5t158 149.5t214 51q181 0 289 -104t108 -258q0 -124 -58 -187t-148 -63q-110 0 -128 79
q-20 -41 -53.5 -62.5t-71.5 -21.5q-80 0 -124 51t-44 137q0 93 58.5 152.5t132.5 59.5q45 0 73 -22t40 -56l14 68h113l-39 -219q-15 -78 43 -78q36 0 60 40t24 127q0 129 -80.5 200.5t-208.5 71.5q-138 0 -227 -95t-89 -248q0 -136 78.5 -216.5t222.5 -80.5q81 0 153 25
l33 -83q-75 -32 -190 -32z" />
    <glyph glyph-name="A" unicode="A" horiz-adv-x="705" 
d="M477 98l-11 74h-241l-39 -74h73l-17 -98h-251l17 98h49l260 484h-67l17 98h348l-17 -98h-64l83 -484h52l-17 -98h-262l17 98h70zM340 391l-64 -122h175l-18 124q-5 32 -8.5 72t-5.5 64l-2 24q-40 -91 -77 -162z" />
    <glyph glyph-name="B" unicode="B" horiz-adv-x="612" 
d="M77 98l83 484h-53l17 98h291q91 0 140.5 -47.5t49.5 -115.5q0 -133 -143 -167q124 -29 124 -148q0 -84 -68 -143t-187 -59h-322l17 98h51zM212 105h125q52 0 81.5 31.5t29.5 78.5q0 40 -24.5 63.5t-69.5 23.5h-108zM263 401h98q51 0 79 25.5t28 69.5q0 79 -83 79h-92z
" />
    <glyph glyph-name="C" unicode="C" horiz-adv-x="699" 
d="M60 316q0 158 103 265.5t248 107.5q118 0 175 -74l27 65h93l-38 -216h-100q-36 111 -157 111q-88 0 -148.5 -70t-60.5 -187q0 -99 49.5 -155t135.5 -56q102 0 164 87l103 -78q-106 -125 -270 -125q-149 0 -236.5 89t-87.5 236z" />
    <glyph glyph-name="D" unicode="D" horiz-adv-x="680" 
d="M216 107h75q118 0 183 72t65 185q0 95 -52 152t-151 57h-41zM124 680h247q133 0 219 -85.5t86 -221.5q0 -163 -104.5 -268t-266.5 -105h-296l17 98h51l83 484h-53z" />
    <glyph glyph-name="E" unicode="E" horiz-adv-x="589" 
d="M587 492h-102l-4 81h-184l-31 -178h238l-19 -106h-238l-31 -182h194l35 81h101l-32 -188h-505l16 98h53l85 484h-53l17 98h492z" />
    <glyph glyph-name="F" unicode="F" horiz-adv-x="574" 
d="M584 482h-104l-2 91h-181l-35 -199h238l-19 -106h-238l-29 -170h71l-16 -98h-260l16 98h53l85 484h-53l17 98h492z" />
    <glyph glyph-name="G" unicode="G" horiz-adv-x="738" 
d="M720 680l-37 -214h-100q-11 49 -55.5 79t-106.5 30q-97 0 -159 -72t-62 -185q0 -99 49 -157t132 -58q105 0 151 50l19 102h-158l20 112h289l-63 -367h-95l-4 58q-71 -67 -186 -67q-124 0 -209 88.5t-85 226.5q0 164 104.5 273.5t250.5 109.5q127 0 190 -74l22 65h93z" />
    <glyph glyph-name="H" unicode="H" horiz-adv-x="741" 
d="M497 98l31 179h-284l-30 -179h52l-16 -98h-241l17 98h51l83 484h-53l17 98h242l-17 -98h-52l-35 -197h284l34 197h-52l16 98h242l-17 -98h-52l-83 -484h52l-16 -98h-242l17 98h52z" />
    <glyph glyph-name="I" unicode="I" horiz-adv-x="322" 
d="M297 582l-81 -484h52l-16 -98h-243l17 98h51l83 484h-53l17 98h243l-17 -98h-53z" />
    <glyph glyph-name="J" unicode="J" horiz-adv-x="495" 
d="M189 -9q-76 0 -126.5 37t-72.5 92l116 63q26 -76 88 -76q66 0 81 82l69 393h-75l17 98h261l-17 -98h-52l-69 -395q-18 -105 -72 -150.5t-148 -45.5z" />
    <glyph glyph-name="K" unicode="K" horiz-adv-x="647" 
d="M668 582h-43l-200 -206l143 -278h56l-17 -98h-182l11 67l-110 218l-95 -91l-18 -102h52l-16 -92h-240l16 98h52l85 484h-52l17 98h237l-16 -93h-50l-23 -139q-14 -81 -27 -115q44 55 95 107l145 147h-45l16 93h226z" />
    <glyph glyph-name="L" unicode="L" horiz-adv-x="565" 
d="M545 216l-38 -216h-501l17 98h53l85 484h-54l17 98h248l-17 -98h-54l-83 -474h186l39 108h102z" />
    <glyph glyph-name="M" unicode="M" horiz-adv-x="856" 
d="M245 98l-17 -98h-219l16 98h52l83 484h-53l17 98h170l149 -354l260 354h198l-17 -98h-53l-83 -484h53l-17 -98h-240l17 98h52l36 219l32 163q-39 -62 -90 -130l-162 -215h-36l-87 205q-24 55 -53 142q0 -1 -3 -20t-9.5 -62t-12.5 -83l-36 -219h53z" />
    <glyph glyph-name="N" unicode="N" horiz-adv-x="740" 
d="M556 314l46 268h-61l17 98h231l-17 -98h-51l-100 -582h-105l-206 364q-27 47 -53 112q0 -22 -18 -127l-43 -251h58l-17 -98h-228l17 98h51l83 484h-63l17 98h167l211 -373q24 -43 50 -109q0 35 14 116z" />
    <glyph glyph-name="O" unicode="O" horiz-adv-x="756" 
d="M200 318q0 -96 52 -153t139 -57q91 0 154 72t63 184q0 96 -52 153.5t-139 57.5q-91 0 -154 -72.5t-63 -184.5zM60 306q0 166 105 274.5t261 108.5q136 0 228 -90t92 -226q0 -166 -103.5 -274t-262.5 -108q-136 0 -228 89.5t-92 225.5z" />
    <glyph glyph-name="P" unicode="P" horiz-adv-x="619" 
d="M25 98h53l85 484h-53l17 98h255q113 0 179 -53t67 -152q1 -109 -77.5 -178.5t-210.5 -69.5h-104l-22 -129h66l-17 -98h-254zM255 332h94q60 0 98.5 35.5t38.5 96.5q0 54 -33.5 81.5t-92.5 27.5h-63z" />
    <glyph glyph-name="Q" unicode="Q" horiz-adv-x="756" 
d="M60 306q0 166 105 274.5t261 108.5q136 0 228 -90t92 -225q0 -157 -96 -264l12 -12h75l-17 -98h-133l-36 37q-69 -46 -171 -46q-136 0 -228 89.5t-92 225.5zM200 318q0 -96 52 -154.5t139 -58.5q44 0 83 15l-91 98l91 74l91 -95q43 67 43 168q0 95 -52 152.5t-139 57.5
q-91 0 -154 -72.5t-63 -184.5z" />
    <glyph glyph-name="R" unicode="R" horiz-adv-x="649" 
d="M444 0l-114 247h-92l-25 -149h61l-17 -98h-248l16 98h53l85 484h-53l17 98h274q103 0 168.5 -53.5t65.5 -151.5q0 -74 -45 -129.5t-122 -81.5l81 -166h66l-17 -98h-154zM259 348h102q59 0 95.5 33t36.5 90q0 48 -28.5 75t-75.5 27h-91z" />
    <glyph glyph-name="S" unicode="S" horiz-adv-x="530" 
d="M554 680l-33 -187h-99q-17 88 -104 88q-39 0 -60 -19t-21 -47q0 -30 17.5 -49t69.5 -51l35 -22q78 -49 112 -93.5t34 -109.5q0 -90 -61 -144.5t-157 -54.5q-117 0 -170 72l-26 -63h-87l37 211h100q20 -112 131 -112q43 0 70.5 20.5t27.5 56.5q0 28 -23 51t-87 63l-43 27
q-111 70 -111 176q0 83 56.5 139t149.5 56q94 0 133 -61l21 53h88z" />
    <glyph glyph-name="T" unicode="T" horiz-adv-x="587" 
d="M166 481h-89l35 199h532l-35 -199h-89l1 92h-94l-83 -475h60l-17 -98h-256l17 98h60l83 475h-93z" />
    <glyph glyph-name="U" unicode="U" horiz-adv-x="682" 
d="M332 -9q-131 0 -200 75.5t-46 203.5l55 312h-52l17 98h247l-17 -98h-54l-59 -329q-13 -73 18 -112.5t101 -39.5q63 0 96.5 32.5t45.5 100.5l62 348h-53l17 98h232l-17 -98h-51l-63 -358q-42 -233 -279 -233z" />
    <glyph glyph-name="V" unicode="V" horiz-adv-x="700" 
d="M376 680l-17 -98h-71l42 -233q16 -89 16 -160q14 50 65 142l140 251h-76l17 98h261l-17 -98h-54l-333 -582h-77l-124 582h-51l17 98h262z" />
    <glyph glyph-name="W" unicode="W" horiz-adv-x="988" 
d="M1036 680l-17 -98h-54l-256 -582h-86l-58 304q-19 99 -19 154q0 -1 -4 -10.5t-10 -24t-13 -32t-16.5 -37.5t-18.5 -37l-167 -317h-82l-82 582h-51l17 98h258l-17 -98h-71l27 -206q9 -71 9 -154q5 20 69 150l155 308h58l64 -306q6 -29 11.5 -66.5t8.5 -61.5t3 -25
q10 40 56 150l86 211h-75l17 98h258z" />
    <glyph glyph-name="X" unicode="X" horiz-adv-x="689" 
d="M395 98h51l-52 98q-34 66 -41 92l-9 -12q-9 -13 -25 -34.5t-33 -42.5l-83 -101h59l-17 -98h-246l17 98h51l219 264l-118 220h-47l17 98h237l-17 -98h-42l37 -71q9 -18 18.5 -38t14.5 -33l6 -14q9 17 60 78l65 78h-45l16 98h232l-17 -98h-50l-200 -231l143 -253h48
l-16 -98h-250z" />
    <glyph glyph-name="Y" unicode="Y" horiz-adv-x="655" 
d="M714 680l-17 -98h-44l-257 -345l-24 -139h60l-17 -98h-256l17 98h60l27 156l-120 328h-50l17 98h257l-17 -98h-61l45 -134q8 -24 27 -100q6 19 58 94l98 140h-67l17 98h247z" />
    <glyph glyph-name="Z" unicode="Z" horiz-adv-x="586" 
d="M514 0h-515l12 69l425 511h-197l-35 -96h-101l34 196h497l-12 -67l-430 -513h221l35 101h101z" />
    <glyph glyph-name="bracketleft" unicode="[" horiz-adv-x="330" 
d="M0 -128l150 850h242l-18 -101h-110l-113 -648h110l-19 -101h-242z" />
    <glyph glyph-name="backslash" unicode="\" horiz-adv-x="396" 
d="M230 -128l-129 850h118l129 -850h-118z" />
    <glyph glyph-name="bracketright" unicode="]" horiz-adv-x="330" 
d="M-30 -128l19 101h110l113 648h-110l18 101h242l-150 -850h-242z" />
    <glyph glyph-name="asciicircum" unicode="^" horiz-adv-x="370" 
d="M66 447l199 240h10l115 -240h-102l-45 76l-69 -76h-108z" />
    <glyph glyph-name="underscore" unicode="_" horiz-adv-x="277" 
d="M-60 -124l19 109h281l-19 -109h-281z" />
    <glyph glyph-name="grave" unicode="`" horiz-adv-x="490" 
d="M226 500l-91 188h152l39 -188h-100z" />
    <glyph glyph-name="a" unicode="a" horiz-adv-x="554" 
d="M255 94q43 0 71 38.5t28 98.5q0 46 -21.5 73t-56.5 27q-45 0 -72 -38.5t-27 -101.5q0 -46 20.5 -71.5t57.5 -25.5zM202 -9q-72 0 -117 53.5t-45 138.5q0 117 64 184.5t147 67.5q90 0 128 -77l27 68h114l-53 -305q-4 -23 18 -23h30l-17 -98h-50q-66 0 -88 14.5t-28 44.5
l-1 5q-51 -73 -129 -73z" />
    <glyph glyph-name="b" unicode="b" horiz-adv-x="550" 
d="M282 722l-63 -357q50 70 130 70q70 0 118 -55t48 -149q0 -106 -61 -173t-141 -67q-104 0 -148 88l-28 -79h-112l107 624h-66l17 98h199zM273 93q47 0 75.5 38.5t28.5 101.5q0 47 -22 73t-61 26q-45 0 -74.5 -36t-29.5 -93q0 -51 22 -80.5t61 -29.5z" />
    <glyph glyph-name="c" unicode="c" horiz-adv-x="469" 
d="M438 270h-94q-13 61 -72 61q-48 0 -74.5 -37.5t-26.5 -92.5q0 -49 25 -77.5t70 -28.5q50 0 83 40l72 -82q-64 -62 -173 -62q-93 0 -153 56.5t-60 150.5q0 108 63.5 172.5t155.5 64.5q75 0 109 -50l18 41h83z" />
    <glyph glyph-name="d" unicode="d" horiz-adv-x="560" 
d="M386 358l48 266h-76l17 98h207l-105 -601q-4 -23 18 -23h30l-17 -98h-50q-66 0 -89 15t-27 46l-1 7q-43 -77 -135 -77q-72 0 -119 54t-47 138q0 119 62.5 185.5t151.5 66.5q96 0 132 -77zM261 94q44 0 72.5 36t30.5 92q2 50 -20.5 79.5t-63.5 29.5q-46 0 -73.5 -36
t-29.5 -95q-1 -49 21 -77.5t63 -28.5z" />
    <glyph glyph-name="e" unicode="e" horiz-adv-x="505" 
d="M169 173q2 -36 28.5 -58.5t70.5 -22.5q63 0 104 37l70 -80q-74 -58 -183 -58q-104 0 -164 58.5t-60 152.5q0 106 68.5 169.5t162.5 63.5q109 0 165 -74.5t40 -187.5h-302zM171 249h171q1 41 -20.5 64.5t-58.5 23.5q-35 0 -61.5 -24.5t-30.5 -63.5z" />
    <glyph glyph-name="f" unicode="f" horiz-adv-x="347" 
d="M99 327h-70l17 99h70l27 152q28 157 169 157q79 0 125 -54l-75 -77q-16 23 -42 23q-36 0 -44 -42l-28 -159h110l-17 -99h-110l-75 -424q-13 -73 -43.5 -94t-103.5 -21h-67l16 93h40q12 0 18 5.5t10 25.5z" />
    <glyph glyph-name="g" unicode="g" horiz-adv-x="549" 
d="M570 426l-17 -98h-44l-61 -345q-36 -205 -242 -205q-144 0 -213 82l84 81q52 -58 122 -58q97 0 118 108l12 66q-50 -66 -123 -66q-71 0 -118.5 53.5t-47.5 140.5q0 115 62.5 182.5t151.5 67.5q90 0 131 -77l9 68h176zM262 95q43 0 71 37.5t28 98.5q0 45 -20 72t-60 27
q-45 0 -74 -35.5t-29 -94.5q0 -105 84 -105z" />
    <glyph glyph-name="h" unicode="h" horiz-adv-x="544" 
d="M487 236l-20 -115q-4 -23 18 -23h30l-17 -98h-50q-77 0 -101.5 25t-11.5 98l21 119q15 86 -60 86q-76 0 -93 -97l-41 -231h-132l107 624h-66l17 98h199l-66 -373q52 86 138 86q71 0 107.5 -55t20.5 -144z" />
    <glyph glyph-name="i" unicode="i" horiz-adv-x="290" 
d="M213 500q-34 0 -58 23t-24 59q0 35 23.5 58t57.5 23t58.5 -23t24.5 -58q0 -36 -24 -59t-58 -23zM252 426l-54 -305q-4 -23 19 -23h29l-17 -98h-50q-75 0 -100 25t-13 98l36 205h-67l17 98h200z" />
    <glyph glyph-name="j" unicode="j" horiz-adv-x="274" 
d="M217 500q-34 0 -58 23t-24 59q0 35 23.5 58t57.5 23t58.5 -23t24.5 -58q0 -36 -24 -59t-58 -23zM34 -80l71 408h-66l17 98h199l-87 -494q-27 -154 -158 -154q-77 0 -120 48l65 77q20 -20 41 -20q31 0 38 37z" />
    <glyph glyph-name="k" unicode="k" horiz-adv-x="509" 
d="M277 328l17 98h220l-17 -98h-41l-110 -104l54 -104q8 -14 14.5 -18t19.5 -4h31l-17 -98h-56q-47 0 -65 14.5t-42 62.5l-37 74l-70 -60l-16 -91h-132l107 624h-66l17 98h199l-73 -415q-10 -61 -24 -102l135 123h-48z" />
    <glyph glyph-name="l" unicode="l" horiz-adv-x="268" 
d="M284 722l-105 -601q-4 -23 18 -23h38l-17 -98h-58q-75 0 -100.5 25t-12.5 98l87 501h-66l17 98h199z" />
    <glyph glyph-name="m" unicode="m" horiz-adv-x="807" 
d="M52 426h191l-13 -74q28 44 60 63.5t79 19.5q81 0 110 -80q53 80 147 80q71 0 105.5 -54.5t18.5 -144.5l-20 -115q-4 -23 18 -23h30l-17 -98h-50q-75 0 -100.5 25t-12.5 98l21 119q15 86 -49 86q-69 0 -86 -97l-41 -231h-132l43 242q15 86 -50 86q-70 0 -87 -97l-41 -231
h-132l57 328h-66z" />
    <glyph glyph-name="n" unicode="n" horiz-adv-x="558" 
d="M501 236l-20 -115q-4 -23 18 -23h30l-17 -98h-50q-77 0 -101.5 25t-11.5 98l21 119q15 86 -60 86t-93 -97l-41 -231h-132l57 328h-66l17 98h191l-13 -74q28 44 61 63.5t82 19.5q71 0 107.5 -55t20.5 -144z" />
    <glyph glyph-name="o" unicode="o" horiz-adv-x="533" 
d="M257 -9q-94 0 -158 60t-64 152q0 103 70 167.5t171 64.5q95 0 158.5 -60t63.5 -153q0 -103 -69.5 -167t-171.5 -64zM261 92q46 0 75 35.5t29 91.5q0 52 -24.5 82.5t-68.5 30.5q-46 0 -75 -35.5t-29 -91.5q0 -52 24 -82.5t69 -30.5z" />
    <glyph glyph-name="p" unicode="p" horiz-adv-x="569" 
d="M-51 -212l16 92h58l78 448h-66l17 98h191l-13 -72q52 81 135 81q73 0 121 -56t48 -148q0 -107 -60 -173.5t-142 -66.5q-99 0 -143 83l-34 -194h66l-16 -92h-256zM292 93q47 0 75.5 38.5t28.5 101.5q0 47 -22 73t-61 26q-45 0 -74.5 -36t-29.5 -93q0 -51 22 -80.5
t61 -29.5z" />
    <glyph glyph-name="q" unicode="q" horiz-adv-x="560" 
d="M261 93q47 0 75 37.5t28 100.5q0 45 -21.5 73t-60.5 28q-47 0 -74.5 -37t-27.5 -103q0 -45 21.5 -72t59.5 -27zM513 328l-75 -423q-4 -25 18 -25h30l-16 -92h-50q-75 0 -100.5 25t-12.5 98l26 146q-47 -66 -131 -66q-67 0 -114.5 54t-47.5 136q0 121 62.5 187.5
t157.5 66.5q90 0 129 -77l9 68h176l-17 -98h-44z" />
    <glyph glyph-name="r" unicode="r" horiz-adv-x="401" 
d="M242 426l-16 -93q49 102 134 102q36 0 54 -13l-39 -124q-26 19 -59 19q-42 0 -68 -26.5t-38 -95.5l-34 -195h-132l57 328h-66l17 98h190z" />
    <glyph glyph-name="s" unicode="s" horiz-adv-x="442" 
d="M309 295q-20 53 -77 53q-49 0 -49 -30q0 -13 15 -22t60 -25q70 -25 101 -55.5t31 -81.5q0 -67 -44 -105.5t-123 -38.5q-83 0 -121 46l-17 -36h-78l26 143h90q16 -65 87 -65q54 0 54 33q0 16 -16 26t-71 30q-59 22 -87.5 53t-28.5 79q0 64 43.5 100.5t105.5 36.5
q78 0 109 -42l17 32h77l-22 -131h-82z" />
    <glyph glyph-name="t" unicode="t" horiz-adv-x="357" 
d="M193 -9q-68 0 -105 39t-21 130l30 167h-62l17 99h62l27 152h131l-27 -152h103l-17 -99h-103l-30 -171q-12 -63 27 -63q17 0 42 15l44 -83q-46 -34 -118 -34z" />
    <glyph glyph-name="u" unicode="u" horiz-adv-x="569" 
d="M529 426l-53 -305q-4 -23 18 -23h30l-17 -98h-50q-67 0 -88 15t-27 54l-1 7q-56 -85 -141 -85q-70 0 -106.5 55t-22.5 138l25 144h-66l17 98h198l-43 -242q-7 -42 9.5 -64t51.5 -22q77 0 94 97l25 138h-78l15 93h210z" />
    <glyph glyph-name="v" unicode="v" horiz-adv-x="498" 
d="M294 328l18 98h198l-18 -98h-44l-206 -328h-69l-114 328h-44l17 98h210l-17 -98h-31l26 -87q3 -13 7 -32.5t6.5 -34t2.5 -15.5q15 44 37 82l53 87h-32z" />
    <glyph glyph-name="w" unicode="w" horiz-adv-x="701" 
d="M493 328l17 98h196l-17 -98h-41l-162 -328h-101l-27 148q-10 56 -10 107l-2 -7q-2 -6 -6 -16t-8.5 -22t-11 -26.5t-13.5 -27.5l-84 -156h-103l-60 328h-45l17 98h212l-17 -98h-47l13 -101q7 -49 7 -103q22 76 42 111l104 191h66l37 -197q8 -40 8 -105q19 76 38 114l45 90
h-47z" />
    <glyph glyph-name="x" unicode="x" horiz-adv-x="579" 
d="M356 335l16 91h200l-17 -98h-45l-114 -125l71 -105h50l-17 -98h-239l16 90h47l-24 38l-31 55q-17 -24 -37 -46l-43 -47h34l-16 -90h-200l17 98h44l131 135l-69 95h-51l17 98h229l-16 -91h-39l32 -50l19 -36q16 24 27 36l47 50h-39z" />
    <glyph glyph-name="y" unicode="y" horiz-adv-x="499" 
d="M295 328l18 98h198l-18 -98h-43l-327 -540h-158l20 92h64l97 158l-85 290h-46l17 98h207l-17 -98h-27l26 -95q4 -14 6 -35.5t3 -38t1 -17.5q15 44 39 86l59 100h-34z" />
    <glyph glyph-name="z" unicode="z" horiz-adv-x="483" 
d="M8 0l11 68l264 263h-117l-22 -65h-81l28 160h388l-13 -71l-267 -264h127l24 68h86l-28 -159h-400z" />
    <glyph glyph-name="braceleft" unicode="{" horiz-adv-x="406" 
d="M317 -128h-86q-153 0 -126 148l29 162q6 34 -3 49t-36 15h-62l18 99h59q30 0 43.5 12.5t19.5 46.5l33 189q12 69 48 99t99 30h114l-16 -93h-67q-22 0 -31.5 -8t-12.5 -27l-33 -195q-9 -52 -37 -74.5t-87 -30.5q103 -10 85 -114l-30 -169q-7 -43 28 -43h69z" />
    <glyph glyph-name="bar" unicode="|" horiz-adv-x="265" 
d="M20 -128l150 850h114l-150 -850h-114z" />
    <glyph glyph-name="braceright" unicode="}" horiz-adv-x="406" 
d="M117 722h86q153 0 126 -148l-30 -165q-6 -34 3 -49t36 -15h62l-18 -99h-59q-30 0 -43.5 -12.5t-19.5 -46.5l-32 -186q-12 -69 -48 -99t-99 -30h-114l16 93h67q22 0 31.5 8t12.5 27l32 192q9 52 37 74.5t87 30.5q-103 10 -85 114l31 172q7 43 -28 43h-69z" />
    <glyph glyph-name="asciitilde" unicode="~" horiz-adv-x="369" 
d="M115 205l-87 9q9 68 40 104t74 36q34 0 63 -20q5 -4 13.5 -10t12.5 -8.5t9 -4.5t10 -2q24 0 31 45l87 -9q-7 -68 -38.5 -104t-75.5 -36q-34 0 -63 20q-6 4 -14 9.5t-11.5 8.5t-9 5t-10.5 2q-24 0 -31 -45z" />
    <glyph glyph-name="uni00A0" unicode="&#xa0;" horiz-adv-x="178" 
 />
    <glyph glyph-name="exclamdown" unicode="&#xa1;" horiz-adv-x="269" 
d="M198 237l-63 -449h-148l109 449h102zM168 474q34 0 57.5 -23.5t23.5 -59.5q0 -35 -23.5 -59t-57.5 -24t-58 24t-24 59q0 36 24 59.5t58 23.5z" />
    <glyph glyph-name="cent" unicode="&#xa2;" horiz-adv-x="464" 
d="M232 -116h-63l20 114q-70 16 -112 69t-42 131q0 108 63.5 172.5t155.5 64.5h12l19 106h63l-22 -122q21 -11 37 -34l18 41h83l-26 -156h-91q-9 39 -37 55l-42 -234q52 3 82 41l71 -79q-62 -61 -170 -62zM164 201q0 -71 44 -97l40 230q-39 -7 -61.5 -44.5t-22.5 -88.5z" />
    <glyph glyph-name="sterling" unicode="&#xa3;" horiz-adv-x="575" 
d="M382 515q-43 0 -66.5 -24.5t-23.5 -69.5q0 -33 6 -83h138l-15 -87h-111q2 -32 2 -53q0 -36 -12 -75q40 -26 85 -26q51 0 86 45l74 -78q-60 -73 -162 -73q-80 0 -134 51q-47 -51 -122 -51q-58 0 -90.5 30.5t-32.5 74.5q0 51 34.5 79t85.5 28q41 0 73 -21q0 4 -0.5 11
t-0.5 10q-3 29 -7 48h-102l15 87h68q-10 41 -10 88q0 86 57 139t153 53q75 0 110 -47l19 39h82l-32 -184h-85q-11 89 -82 89zM187 99q-35 29 -59 29q-16 0 -25.5 -8.5t-9.5 -21.5q0 -32 35 -32q32 0 59 33z" />
    <glyph glyph-name="yen" unicode="&#xa5;" horiz-adv-x="573" 
d="M49 224h146l-14 36h-126l13 71h85l-35 91h-50l19 100h217l-19 -100h-35l19 -60q7 -22 12.5 -49.5t8.5 -45.5l2 -18q1 3 8.5 18.5t22 41.5t28.5 47l46 66h-42l29 100h211l-19 -100h-46l-69 -91h88l-13 -71h-129l-27 -36h148l-11 -71h-180l-10 -55h50l-18 -98h-224l17 98
h50l9 55h-175z" />
    <glyph glyph-name="section" unicode="&#xa7;" horiz-adv-x="530" 
d="M44 67h78q5 -37 31 -57.5t59 -20.5q36 0 55 13t19 34q0 29 -47 47l-80 33q-110 45 -110 139q0 52 31.5 87.5t77.5 45.5q-22 33 -22 78q0 61 51 106.5t123 45.5q78 0 107 -44l18 36h72l-27 -153h-76q-8 37 -31.5 54t-52.5 17q-30 0 -46 -14.5t-16 -36.5q0 -32 52 -53
l86 -35q104 -42 104 -128q0 -110 -106 -139q21 -32 21 -67q0 -72 -50 -115t-132 -43t-125 46l-17 -38h-76zM341 173q40 13 40 50q0 36 -44 54l-91 39q-21 7 -39 19q-40 -16 -40 -50q0 -37 45 -56l86 -36q19 -7 43 -20z" />
    <glyph glyph-name="dieresis" unicode="&#xa8;" horiz-adv-x="490" 
d="M417 508q-28 0 -50.5 22t-22.5 52t22.5 52t50.5 22q29 0 50.5 -22t21.5 -52t-21.5 -52t-50.5 -22zM207 508q-28 0 -50 22t-22 52t22 52t50 22q29 0 51 -22t22 -52t-22 -52t-51 -22z" />
    <glyph glyph-name="copyright" unicode="&#xa9;" horiz-adv-x="594" 
d="M299 -5q-110 0 -190 77t-80 191t80 191t190 77q109 0 187.5 -77t78.5 -191t-78.5 -191t-187.5 -77zM299 54q86 0 145 58t59 151t-59 151t-145 58q-88 0 -148 -58t-60 -151t60 -151t148 -58zM309 325q-25 0 -40 -17.5t-15 -47.5q0 -27 15.5 -45.5t39.5 -18.5q34 0 53 28
l63 -56q-46 -54 -122 -54q-69 0 -113.5 40.5t-44.5 106.5q0 64 41.5 106.5t97.5 42.5q59 0 80 -34l12 26h55l-18 -113h-59q-8 36 -45 36z" />
    <glyph glyph-name="ordfeminine" unicode="&#xaa;" horiz-adv-x="490" 
d="M229 245q35 0 58.5 31t23.5 75q0 40 -17.5 63.5t-50.5 23.5q-36 0 -59 -29.5t-23 -76.5q0 -39 17.5 -63t50.5 -24zM182 154q-61 0 -100.5 42.5t-39.5 119.5q0 95 54 155t128 60q78 0 110 -65l22 56h102l-46 -257q-4 -22 16 -22h25l-14 -81h-57q-47 0 -65 12t-24 38l-1 5
q-22 -32 -47 -47.5t-63 -15.5z" />
    <glyph glyph-name="guillemotleft" unicode="&#xab;" horiz-adv-x="508" 
d="M321 32l-72 164v8l123 169h130l-128 -175l73 -166h-126zM114 32l-72 164v8l123 169h130l-128 -175l73 -166h-126z" />
    <glyph glyph-name="registered" unicode="&#xae;" horiz-adv-x="505" 
d="M223 407l22 129h-19l8 44h108q39 0 59 -20.5t20 -47.5q0 -54 -49 -71l13 -34h22l-8 -44h-61l-24 70h-24l-4 -26h12l-8 -44h-94l8 44h19zM297 472h25q39 0 39 34q0 30 -34 30h-19zM308 253q-91 0 -153.5 61.5t-62.5 156.5t62.5 156.5t153.5 61.5t154.5 -61.5t63.5 -156.5
t-63.5 -156.5t-154.5 -61.5zM308 300q74 0 120.5 45.5t46.5 125.5t-46.5 125.5t-120.5 45.5q-73 0 -119 -45.5t-46 -125.5t46 -125.5t119 -45.5z" />
    <glyph glyph-name="macron" unicode="&#xaf;" horiz-adv-x="490" 
d="M182 529l17 96h243l-17 -96h-243z" />
    <glyph glyph-name="degree" unicode="&#xb0;" horiz-adv-x="325" 
d="M196 268q-56 0 -96 37.5t-40 92.5q0 58 41 95.5t99 37.5q56 0 95.5 -36t39.5 -91q0 -58 -40.5 -97t-98.5 -39zM197 341q22 0 36.5 17.5t14.5 44.5q0 26 -13.5 40.5t-35.5 14.5t-36.5 -17t-14.5 -44q0 -26 13.5 -41t35.5 -15z" />
    <glyph glyph-name="acute" unicode="&#xb4;" horiz-adv-x="490" 
d="M230 500l80 188h158l-136 -188h-102z" />
    <glyph glyph-name="paragraph" unicode="&#xb6;" horiz-adv-x="614" 
d="M228 0l49 274h-5q-87 0 -135.5 52t-48.5 133q0 93 63 157t170 64h296l-120 -680h-98l105 593h-73l-105 -593h-98z" />
    <glyph glyph-name="periodcentered" unicode="&#xb7;" horiz-adv-x="244" 
d="M131 173q-34 0 -58.5 24t-24.5 61q0 36 24.5 60t58.5 24t58.5 -24t24.5 -60q0 -37 -24.5 -61t-58.5 -24z" />
    <glyph glyph-name="cedilla" unicode="&#xb8;" horiz-adv-x="490" 
d="M200 -240q-86 0 -117 62l65 36q16 -28 44 -28q38 0 38 36q0 37 -42 37h-35l17 97h71l-7 -41q30 -5 52.5 -30t22.5 -64q0 -49 -32 -77t-77 -28z" />
    <glyph glyph-name="ordmasculine" unicode="&#xba;" horiz-adv-x="468" 
d="M233 152q-81 0 -134.5 52t-53.5 131q0 84 60.5 140t145.5 56q81 0 134.5 -52t53.5 -131q0 -84 -60.5 -140t-145.5 -56zM237 245q36 0 58 29.5t22 75.5q0 38 -18.5 62.5t-51.5 24.5q-37 0 -58.5 -29t-21.5 -76q0 -39 18.5 -63t51.5 -24z" />
    <glyph glyph-name="guillemotright" unicode="&#xbb;" horiz-adv-x="511" 
d="M224 32l128 175l-73 166h126l72 -164v-8l-123 -169h-130zM17 32l128 175l-73 166h126l72 -164v-8l-123 -169h-130z" />
    <glyph glyph-name="questiondown" unicode="&#xbf;" horiz-adv-x="493" 
d="M316 237l-26 -149h-35q-59 0 -89.5 -31.5t-30.5 -77.5q0 -40 22.5 -64.5t63.5 -24.5q64 0 101 70l100 -59q-27 -53 -82.5 -87.5t-124.5 -34.5q-101 0 -156 53t-55 139q0 84 52 138.5t126 64.5l11 63h123zM279 474q34 0 57.5 -23.5t23.5 -59.5q0 -35 -24 -59t-57 -24
q-34 0 -58 24t-24 59q0 36 24 59.5t58 23.5z" />
    <glyph glyph-name="Agrave" unicode="&#xc0;" horiz-adv-x="705" 
d="M477 98l-11 74h-241l-39 -74h73l-17 -98h-251l17 98h49l260 484h-67l17 98h348l-17 -98h-64l83 -484h52l-17 -98h-262l17 98h70zM340 391l-64 -122h175l-18 124q-5 32 -8.5 72t-5.5 64l-2 24q-40 -91 -77 -162zM402 758l-91 188h152l39 -188h-100z" />
    <glyph glyph-name="Aacute" unicode="&#xc1;" horiz-adv-x="705" 
d="M477 98l-11 74h-241l-39 -74h73l-17 -98h-251l17 98h49l260 484h-67l17 98h348l-17 -98h-64l83 -484h52l-17 -98h-262l17 98h70zM340 391l-64 -122h175l-18 124q-5 32 -8.5 72t-5.5 64l-2 24q-40 -91 -77 -162zM392 758l80 188h158l-136 -188h-102z" />
    <glyph glyph-name="Acircumflex" unicode="&#xc2;" horiz-adv-x="705" 
d="M477 98l-11 74h-241l-39 -74h73l-17 -98h-251l17 98h49l260 484h-67l17 98h348l-17 -98h-64l83 -484h52l-17 -98h-262l17 98h70zM340 391l-64 -122h175l-18 124q-5 32 -8.5 72t-5.5 64l-2 24q-40 -91 -77 -162zM284 758l193 216h11l117 -216h-102l-43 72l-67 -72h-109z
" />
    <glyph glyph-name="Atilde" unicode="&#xc3;" horiz-adv-x="705" 
d="M477 98l-11 74h-241l-39 -74h73l-17 -98h-251l17 98h49l260 484h-67l17 98h348l-17 -98h-64l83 -484h52l-17 -98h-262l17 98h70zM340 391l-64 -122h175l-18 124q-5 32 -8.5 72t-5.5 64l-2 24q-40 -91 -77 -162zM378 758l-87 9q9 68 40 104t74 36q34 0 63 -20
q5 -4 13.5 -10t12.5 -8.5t9 -4.5t10 -2q23 0 31 45l87 -9q-7 -68 -38.5 -104t-75.5 -36q-34 0 -63 20q-6 4 -14 9.5t-11.5 8.5t-9 5t-10.5 2q-23 0 -31 -45z" />
    <glyph glyph-name="Adieresis" unicode="&#xc4;" horiz-adv-x="705" 
d="M477 98l-11 74h-241l-39 -74h73l-17 -98h-251l17 98h49l260 484h-67l17 98h348l-17 -98h-64l83 -484h52l-17 -98h-262l17 98h70zM340 391l-64 -122h175l-18 124q-5 32 -8.5 72t-5.5 64l-2 24q-40 -91 -77 -162zM567 766q-28 0 -50.5 22t-22.5 52t22.5 52t50.5 22
q29 0 50.5 -22t21.5 -52t-21.5 -52t-50.5 -22zM357 766q-28 0 -50 22t-22 52t22 52t50 22q29 0 51 -22t22 -52t-22 -52t-51 -22z" />
    <glyph glyph-name="Aring" unicode="&#xc5;" horiz-adv-x="705" 
d="M477 98l-11 74h-241l-39 -74h73l-17 -98h-251l17 98h49l260 484h-67l17 98h348l-17 -98h-64l83 -484h52l-17 -98h-262l17 98h70zM340 391l-64 -122h175l-18 124q-5 32 -8.5 72t-5.5 64l-2 24q-40 -91 -77 -162zM459 732q-54 0 -90 35t-36 84t36 84t90 35t90 -35t36 -84
t-36 -84t-90 -35zM459 799q20 0 33.5 14t13.5 38t-13.5 38t-33.5 14t-33.5 -14t-13.5 -38t13.5 -38t33.5 -14z" />
    <glyph glyph-name="AE" unicode="&#xc6;" horiz-adv-x="968" 
d="M404 98h53l11 61h-228l-46 -61h81l-17 -98h-274l17 98h59l379 484h-61l17 98h603l-32 -188h-102l-4 81h-184l-31 -178h238l-19 -106h-238l-31 -182h193l36 81h101l-32 -188h-505zM477 469l-161 -211h169l34 190q4 25 11 55t12.5 52t5.5 24q-24 -49 -71 -110z" />
    <glyph glyph-name="Ccedilla" unicode="&#xc7;" horiz-adv-x="699" 
d="M60 316q0 158 103 265.5t248 107.5q118 0 175 -74l27 65h93l-38 -216h-100q-36 111 -157 111q-88 0 -148.5 -70t-60.5 -187q0 -99 49.5 -155t135.5 -56q102 0 164 87l103 -78q-106 -125 -270 -125q-12 0 -27 1l-5 -33q30 -5 52.5 -30t22.5 -64q0 -49 -32 -77t-77 -28
q-86 0 -117 62l65 36q16 -28 44 -28q38 0 38 36q0 37 -42 37h-35l17 99q-107 26 -167.5 109.5t-60.5 204.5z" />
    <glyph glyph-name="Egrave" unicode="&#xc8;" horiz-adv-x="589" 
d="M587 492h-102l-4 81h-184l-31 -178h238l-19 -106h-238l-31 -182h194l35 81h101l-32 -188h-505l16 98h53l85 484h-53l17 98h492zM338 758l-91 188h152l39 -188h-100z" />
    <glyph glyph-name="Eacute" unicode="&#xc9;" horiz-adv-x="589" 
d="M587 492h-102l-4 81h-184l-31 -178h238l-19 -106h-238l-31 -182h194l35 81h101l-32 -188h-505l16 98h53l85 484h-53l17 98h492zM336 758l80 188h158l-136 -188h-102z" />
    <glyph glyph-name="Ecircumflex" unicode="&#xca;" horiz-adv-x="589" 
d="M587 492h-102l-4 81h-184l-31 -178h238l-19 -106h-238l-31 -182h194l35 81h101l-32 -188h-505l16 98h53l85 484h-53l17 98h492zM223 758l193 216h11l117 -216h-102l-43 72l-67 -72h-109z" />
    <glyph glyph-name="Edieresis" unicode="&#xcb;" horiz-adv-x="589" 
d="M587 492h-102l-4 81h-184l-31 -178h238l-19 -106h-238l-31 -182h194l35 81h101l-32 -188h-505l16 98h53l85 484h-53l17 98h492zM505 766q-28 0 -50.5 22t-22.5 52t22.5 52t50.5 22q29 0 50.5 -22t21.5 -52t-21.5 -52t-50.5 -22zM295 766q-28 0 -50 22t-22 52t22 52t50 22
q29 0 51 -22t22 -52t-22 -52t-51 -22z" />
    <glyph glyph-name="Igrave" unicode="&#xcc;" horiz-adv-x="322" 
d="M297 582l-81 -484h52l-16 -98h-243l17 98h51l83 484h-53l17 98h243l-17 -98h-53zM212 758l-91 188h152l39 -188h-100z" />
    <glyph glyph-name="Iacute" unicode="&#xcd;" horiz-adv-x="322" 
d="M297 582l-81 -484h52l-16 -98h-243l17 98h51l83 484h-53l17 98h243l-17 -98h-53zM205 758l80 188h158l-136 -188h-102z" />
    <glyph glyph-name="Icircumflex" unicode="&#xce;" horiz-adv-x="322" 
d="M297 582l-81 -484h52l-16 -98h-243l17 98h51l83 484h-53l17 98h243l-17 -98h-53zM97 758l193 216h11l117 -216h-102l-43 72l-67 -72h-109z" />
    <glyph glyph-name="Idieresis" unicode="&#xcf;" horiz-adv-x="322" 
d="M297 582l-81 -484h52l-16 -98h-243l17 98h51l83 484h-53l17 98h243l-17 -98h-53zM377 766q-28 0 -50.5 22t-22.5 52t22.5 52t50.5 22q29 0 50.5 -22t21.5 -52t-21.5 -52t-50.5 -22zM167 766q-28 0 -50 22t-22 52t22 52t50 22q29 0 51 -22t22 -52t-22 -52t-51 -22z" />
    <glyph glyph-name="Eth" unicode="&#xd0;" horiz-adv-x="680" 
d="M124 680h247q133 0 219 -85.5t86 -221.5q0 -163 -104.5 -268t-266.5 -105h-296l17 98h51l33 194h-56l16 93h56l34 197h-53zM216 107h75q118 0 183 72t65 185q0 95 -52 152t-151 57h-41l-32 -188h152l-16 -93h-152z" />
    <glyph glyph-name="Ntilde" unicode="&#xd1;" horiz-adv-x="740" 
d="M556 314l46 268h-61l17 98h231l-17 -98h-51l-100 -582h-105l-206 364q-27 47 -53 112q0 -22 -18 -127l-43 -251h58l-17 -98h-228l17 98h51l83 484h-63l17 98h167l211 -373q24 -43 50 -109q0 35 14 116zM391 758l-87 9q9 68 40 104t74 36q34 0 63 -20q5 -4 13.5 -10
t12.5 -8.5t9 -4.5t10 -2q24 0 31 45l87 -9q-7 -68 -38.5 -104t-75.5 -36q-34 0 -63 20q-6 4 -14 9.5t-11.5 8.5t-9 5t-10.5 2q-24 0 -31 -45z" />
    <glyph glyph-name="Ograve" unicode="&#xd2;" horiz-adv-x="756" 
d="M200 318q0 -96 52 -153t139 -57q91 0 154 72t63 184q0 96 -52 153.5t-139 57.5q-91 0 -154 -72.5t-63 -184.5zM60 306q0 166 105 274.5t261 108.5q136 0 228 -90t92 -226q0 -166 -103.5 -274t-262.5 -108q-136 0 -228 89.5t-92 225.5zM403 758l-91 188h152l39 -188h-100z
" />
    <glyph glyph-name="Oacute" unicode="&#xd3;" horiz-adv-x="756" 
d="M200 318q0 -96 52 -153t139 -57q91 0 154 72t63 184q0 96 -52 153.5t-139 57.5q-91 0 -154 -72.5t-63 -184.5zM60 306q0 166 105 274.5t261 108.5q136 0 228 -90t92 -226q0 -166 -103.5 -274t-262.5 -108q-136 0 -228 89.5t-92 225.5zM404 758l80 188h158l-136 -188h-102
z" />
    <glyph glyph-name="Ocircumflex" unicode="&#xd4;" horiz-adv-x="756" 
d="M200 318q0 -96 52 -153t139 -57q91 0 154 72t63 184q0 96 -52 153.5t-139 57.5q-91 0 -154 -72.5t-63 -184.5zM60 306q0 166 105 274.5t261 108.5q136 0 228 -90t92 -226q0 -166 -103.5 -274t-262.5 -108q-136 0 -228 89.5t-92 225.5zM296 758l193 216h11l117 -216h-102
l-43 72l-67 -72h-109z" />
    <glyph glyph-name="Otilde" unicode="&#xd5;" horiz-adv-x="756" 
d="M200 318q0 -96 52 -153t139 -57q91 0 154 72t63 184q0 96 -52 153.5t-139 57.5q-91 0 -154 -72.5t-63 -184.5zM60 306q0 166 105 274.5t261 108.5q136 0 228 -90t92 -226q0 -166 -103.5 -274t-262.5 -108q-136 0 -228 89.5t-92 225.5zM377 758l-87 9q9 68 40 104t74 36
q34 0 63 -20q5 -4 13.5 -10t12.5 -8.5t9 -4.5t10 -2q24 0 31 45l87 -9q-7 -68 -38.5 -104t-75.5 -36q-34 0 -63 20q-6 4 -14 9.5t-11.5 8.5t-9 5t-10.5 2q-24 0 -31 -45z" />
    <glyph glyph-name="Odieresis" unicode="&#xd6;" horiz-adv-x="756" 
d="M200 318q0 -96 52 -153t139 -57q91 0 154 72t63 184q0 96 -52 153.5t-139 57.5q-91 0 -154 -72.5t-63 -184.5zM60 306q0 166 105 274.5t261 108.5q136 0 228 -90t92 -226q0 -166 -103.5 -274t-262.5 -108q-136 0 -228 89.5t-92 225.5zM567 766q-28 0 -50.5 22t-22.5 52
t22.5 52t50.5 22q29 0 50.5 -22t21.5 -52t-21.5 -52t-50.5 -22zM357 766q-28 0 -50 22t-22 52t22 52t50 22q29 0 51 -22t22 -52t-22 -52t-51 -22z" />
    <glyph glyph-name="multiply" unicode="&#xd7;" horiz-adv-x="410" 
d="M287 261l77 -92l-84 -72l-77 91l-105 -89l-69 80l106 90l-78 92l86 72l77 -92l108 93l68 -80z" />
    <glyph glyph-name="Oslash" unicode="&#xd8;" horiz-adv-x="756" 
d="M60 306q0 166 105 274.5t261 108.5q116 0 204 -69l76 69l72 -77l-78 -71q46 -76 46 -168q0 -166 -103.5 -274t-262.5 -108q-120 0 -206 69l-77 -70l-71 77l79 72q-45 74 -45 167zM611 364q0 43 -13 84l-330 -302q49 -38 123 -38q92 0 156 72.5t64 183.5zM197 318
q0 -47 12 -83l330 301q-50 39 -122 39q-92 0 -156 -73t-64 -184z" />
    <glyph glyph-name="Ugrave" unicode="&#xd9;" horiz-adv-x="682" 
d="M332 -9q-131 0 -200 75.5t-46 203.5l55 312h-52l17 98h247l-17 -98h-54l-59 -329q-13 -73 18 -112.5t101 -39.5q63 0 96.5 32.5t45.5 100.5l62 348h-53l17 98h232l-17 -98h-51l-63 -358q-42 -233 -279 -233zM382 758l-91 188h152l39 -188h-100z" />
    <glyph glyph-name="Uacute" unicode="&#xda;" horiz-adv-x="682" 
d="M332 -9q-131 0 -200 75.5t-46 203.5l55 312h-52l17 98h247l-17 -98h-54l-59 -329q-13 -73 18 -112.5t101 -39.5q63 0 96.5 32.5t45.5 100.5l62 348h-53l17 98h232l-17 -98h-51l-63 -358q-42 -233 -279 -233zM387 758l80 188h158l-136 -188h-102z" />
    <glyph glyph-name="Ucircumflex" unicode="&#xdb;" horiz-adv-x="682" 
d="M332 -9q-131 0 -200 75.5t-46 203.5l55 312h-52l17 98h247l-17 -98h-54l-59 -329q-13 -73 18 -112.5t101 -39.5q63 0 96.5 32.5t45.5 100.5l62 348h-53l17 98h232l-17 -98h-51l-63 -358q-42 -233 -279 -233zM276 758l193 216h11l117 -216h-102l-43 72l-67 -72h-109z" />
    <glyph glyph-name="Udieresis" unicode="&#xdc;" horiz-adv-x="682" 
d="M332 -9q-131 0 -200 75.5t-46 203.5l55 312h-52l17 98h247l-17 -98h-54l-59 -329q-13 -73 18 -112.5t101 -39.5q63 0 96.5 32.5t45.5 100.5l62 348h-53l17 98h232l-17 -98h-51l-63 -358q-42 -233 -279 -233zM550 766q-28 0 -50.5 22t-22.5 52t22.5 52t50.5 22
q29 0 50.5 -22t21.5 -52t-21.5 -52t-50.5 -22zM340 766q-28 0 -50 22t-22 52t22 52t50 22q29 0 51 -22t22 -52t-22 -52t-51 -22z" />
    <glyph glyph-name="Yacute" unicode="&#xdd;" horiz-adv-x="655" 
d="M714 680l-17 -98h-44l-257 -345l-24 -139h60l-17 -98h-256l17 98h60l27 156l-120 328h-50l17 98h257l-17 -98h-61l45 -134q8 -24 27 -100q6 19 58 94l98 140h-67l17 98h247zM366 758l80 188h158l-136 -188h-102z" />
    <glyph glyph-name="Thorn" unicode="&#xde;" horiz-adv-x="604" 
d="M367 680l-17 -94h-51l-8 -41h96q101 0 162.5 -48t61.5 -141q0 -102 -70.5 -157.5t-180.5 -55.5h-138l-8 -49h71l-17 -94h-258l16 98h51l83 484h-53l17 98h243zM237 240h112q53 0 87.5 27.5t34.5 85.5q0 46 -32 69t-80 23h-87z" />
    <glyph glyph-name="germandbls" unicode="&#xdf;" horiz-adv-x="588" 
d="M422 388q67 -16 101.5 -58t34.5 -104q0 -105 -62 -168.5t-166 -63.5q-66 0 -96 17l25 96q24 -11 58 -11q45 0 76 35.5t31 97.5q0 55 -27 81.5t-90 27.5l15 87q107 8 107 126q0 41 -19.5 62t-49.5 21q-77 0 -94 -101l-110 -630q-13 -73 -43.5 -94t-103.5 -21h-67l16 93h40
q12 0 18 5t9 20l74 421h-70l17 99h71l19 107q17 99 74 150.5t150 51.5q89 0 142 -47t53 -128q0 -67 -34 -111.5t-99 -60.5z" />
    <glyph glyph-name="agrave" unicode="&#xe0;" horiz-adv-x="554" 
d="M255 94q43 0 71 38.5t28 98.5q0 46 -21.5 73t-56.5 27q-45 0 -72 -38.5t-27 -101.5q0 -46 20.5 -71.5t57.5 -25.5zM202 -9q-72 0 -117 53.5t-45 138.5q0 117 64 184.5t147 67.5q90 0 128 -77l27 68h114l-53 -305q-4 -23 18 -23h30l-17 -98h-50q-66 0 -88 14.5t-28 44.5
l-1 5q-51 -73 -129 -73zM242 500l-91 188h152l39 -188h-100z" />
    <glyph glyph-name="aacute" unicode="&#xe1;" horiz-adv-x="554" 
d="M255 94q43 0 71 38.5t28 98.5q0 46 -21.5 73t-56.5 27q-45 0 -72 -38.5t-27 -101.5q0 -46 20.5 -71.5t57.5 -25.5zM202 -9q-72 0 -117 53.5t-45 138.5q0 117 64 184.5t147 67.5q90 0 128 -77l27 68h114l-53 -305q-4 -23 18 -23h30l-17 -98h-50q-66 0 -88 14.5t-28 44.5
l-1 5q-51 -73 -129 -73zM237 500l80 188h158l-136 -188h-102z" />
    <glyph glyph-name="acircumflex" unicode="&#xe2;" horiz-adv-x="554" 
d="M255 94q43 0 71 38.5t28 98.5q0 46 -21.5 73t-56.5 27q-45 0 -72 -38.5t-27 -101.5q0 -46 20.5 -71.5t57.5 -25.5zM202 -9q-72 0 -117 53.5t-45 138.5q0 117 64 184.5t147 67.5q90 0 128 -77l27 68h114l-53 -305q-4 -23 18 -23h30l-17 -98h-50q-66 0 -88 14.5t-28 44.5
l-1 5q-51 -73 -129 -73zM139 500l193 216h11l117 -216h-102l-43 72l-67 -72h-109z" />
    <glyph glyph-name="atilde" unicode="&#xe3;" horiz-adv-x="554" 
d="M255 94q43 0 71 38.5t28 98.5q0 46 -21.5 73t-56.5 27q-45 0 -72 -38.5t-27 -101.5q0 -46 20.5 -71.5t57.5 -25.5zM202 -9q-72 0 -117 53.5t-45 138.5q0 117 64 184.5t147 67.5q90 0 128 -77l27 68h114l-53 -305q-4 -23 18 -23h30l-17 -98h-50q-66 0 -88 14.5t-28 44.5
l-1 5q-51 -73 -129 -73zM232 500l-87 9q9 68 40 104t74 36q34 0 63 -20q5 -4 13.5 -10t12.5 -8.5t9 -4.5t10 -2q23 0 31 45l87 -9q-7 -68 -38.5 -104t-75.5 -36q-34 0 -63 20q-6 4 -14 9.5t-11.5 8.5t-9 5t-10.5 2q-23 0 -31 -45z" />
    <glyph glyph-name="adieresis" unicode="&#xe4;" horiz-adv-x="554" 
d="M255 94q43 0 71 38.5t28 98.5q0 46 -21.5 73t-56.5 27q-45 0 -72 -38.5t-27 -101.5q0 -46 20.5 -71.5t57.5 -25.5zM202 -9q-72 0 -117 53.5t-45 138.5q0 117 64 184.5t147 67.5q90 0 128 -77l27 68h114l-53 -305q-4 -23 18 -23h30l-17 -98h-50q-66 0 -88 14.5t-28 44.5
l-1 5q-51 -73 -129 -73zM426 508q-28 0 -50.5 22t-22.5 52t22.5 52t50.5 22q29 0 50.5 -22t21.5 -52t-21.5 -52t-50.5 -22zM216 508q-28 0 -50 22t-22 52t22 52t50 22q29 0 51 -22t22 -52t-22 -52t-51 -22z" />
    <glyph glyph-name="aring" unicode="&#xe5;" horiz-adv-x="554" 
d="M255 94q43 0 71 38.5t28 98.5q0 46 -21.5 73t-56.5 27q-45 0 -72 -38.5t-27 -101.5q0 -46 20.5 -71.5t57.5 -25.5zM202 -9q-72 0 -117 53.5t-45 138.5q0 117 64 184.5t147 67.5q90 0 128 -77l27 68h114l-53 -305q-4 -23 18 -23h30l-17 -98h-50q-66 0 -88 14.5t-28 44.5
l-1 5q-51 -73 -129 -73zM317 474q-54 0 -90 35t-36 84t36 84t90 35t90 -35t36 -84t-36 -84t-90 -35zM317 541q20 0 33.5 14t13.5 38t-13.5 38t-33.5 14t-33.5 -14t-13.5 -38t13.5 -38t33.5 -14z" />
    <glyph glyph-name="ae" unicode="&#xe6;" horiz-adv-x="772" 
d="M190 -9q-78 0 -124 33t-46 94q0 128 184 128h106l1 6q6 36 -11.5 58t-56.5 22q-58 0 -100 -36l-64 82q64 57 166 57q100 0 142 -57q57 57 147 57q109 0 164.5 -74t39.5 -187h-302q3 -35 28.5 -58t65.5 -23q64 0 106 40l73 -84q-75 -58 -178 -58q-122 0 -171 83
q-53 -83 -170 -83zM210 85q73 0 83 64l4 26h-95q-24 0 -39 -11.5t-15 -31.5q0 -47 62 -47zM438 246h175q1 42 -21.5 66.5t-59.5 24.5q-36 0 -62.5 -26t-31.5 -65z" />
    <glyph glyph-name="ccedilla" unicode="&#xe7;" horiz-adv-x="469" 
d="M438 270h-94q-13 61 -72 61q-48 0 -74.5 -37.5t-26.5 -92.5q0 -49 25 -77.5t70 -28.5q50 0 83 40l72 -82q-63 -61 -173 -61h-14l-6 -33q30 -5 52.5 -30t22.5 -64q0 -49 -32 -77t-77 -28q-86 0 -117 62l65 36q16 -28 44 -28q38 0 38 36q0 37 -42 37h-35l18 102
q-60 21 -95 71.5t-35 121.5q0 108 63.5 172.5t155.5 64.5q75 0 109 -50l18 41h83z" />
    <glyph glyph-name="egrave" unicode="&#xe8;" horiz-adv-x="505" 
d="M169 173q2 -36 28.5 -58.5t70.5 -22.5q63 0 104 37l70 -80q-74 -58 -183 -58q-104 0 -164 58.5t-60 152.5q0 106 68.5 169.5t162.5 63.5q109 0 165 -74.5t40 -187.5h-302zM171 249h171q1 41 -20.5 64.5t-58.5 23.5q-35 0 -61.5 -24.5t-30.5 -63.5zM237 500l-91 188h152
l39 -188h-100z" />
    <glyph glyph-name="eacute" unicode="&#xe9;" horiz-adv-x="505" 
d="M169 173q2 -36 28.5 -58.5t70.5 -22.5q63 0 104 37l70 -80q-74 -58 -183 -58q-104 0 -164 58.5t-60 152.5q0 106 68.5 169.5t162.5 63.5q109 0 165 -74.5t40 -187.5h-302zM171 249h171q1 41 -20.5 64.5t-58.5 23.5q-35 0 -61.5 -24.5t-30.5 -63.5zM241 500l80 188h158
l-136 -188h-102z" />
    <glyph glyph-name="ecircumflex" unicode="&#xea;" horiz-adv-x="505" 
d="M169 173q2 -36 28.5 -58.5t70.5 -22.5q63 0 104 37l70 -80q-74 -58 -183 -58q-104 0 -164 58.5t-60 152.5q0 106 68.5 169.5t162.5 63.5q109 0 165 -74.5t40 -187.5h-302zM171 249h171q1 41 -20.5 64.5t-58.5 23.5q-35 0 -61.5 -24.5t-30.5 -63.5zM123 500l193 216h11
l117 -216h-102l-43 72l-67 -72h-109z" />
    <glyph glyph-name="edieresis" unicode="&#xeb;" horiz-adv-x="505" 
d="M169 173q2 -36 28.5 -58.5t70.5 -22.5q63 0 104 37l70 -80q-74 -58 -183 -58q-104 0 -164 58.5t-60 152.5q0 106 68.5 169.5t162.5 63.5q109 0 165 -74.5t40 -187.5h-302zM171 249h171q1 41 -20.5 64.5t-58.5 23.5q-35 0 -61.5 -24.5t-30.5 -63.5zM403 508
q-28 0 -50.5 22t-22.5 52t22.5 52t50.5 22q29 0 50.5 -22t21.5 -52t-21.5 -52t-50.5 -22zM193 508q-28 0 -50 22t-22 52t22 52t50 22q29 0 51 -22t22 -52t-22 -52t-51 -22z" />
    <glyph glyph-name="igrave" unicode="&#xec;" horiz-adv-x="290" 
d="M252 426l-54 -305q-4 -23 19 -23h29l-17 -98h-50q-75 0 -100 25t-13 98l36 205h-67l17 98h200zM144 500l-91 188h152l39 -188h-100z" />
    <glyph glyph-name="iacute" unicode="&#xed;" horiz-adv-x="290" 
d="M252 426l-54 -305q-4 -23 19 -23h29l-17 -98h-50q-75 0 -100 25t-13 98l36 205h-67l17 98h200zM137 500l80 188h158l-136 -188h-102z" />
    <glyph glyph-name="icircumflex" unicode="&#xee;" horiz-adv-x="290" 
d="M252 426l-54 -305q-4 -23 19 -23h29l-17 -98h-50q-75 0 -100 25t-13 98l36 205h-67l17 98h200zM29 500l193 216h11l117 -216h-102l-43 72l-67 -72h-109z" />
    <glyph glyph-name="idieresis" unicode="&#xef;" horiz-adv-x="290" 
d="M252 426l-54 -305q-4 -23 19 -23h29l-17 -98h-50q-75 0 -100 25t-13 98l36 205h-67l17 98h200zM306 508q-28 0 -50.5 22t-22.5 52t22.5 52t50.5 22q29 0 50.5 -22t21.5 -52t-21.5 -52t-50.5 -22zM96 508q-28 0 -50 22t-22 52t22 52t50 22q29 0 51 -22t22 -52t-22 -52
t-51 -22z" />
    <glyph glyph-name="eth" unicode="&#xf0;" horiz-adv-x="534" 
d="M172 544l74 53q-25 32 -59 69l79 70q38 -32 74 -71l68 48l41 -60l-63 -45q113 -155 113 -329q0 -140 -63.5 -214t-177.5 -74q-95 0 -159 62.5t-64 160.5q0 99 64 160t143 61q69 0 107 -35q-16 69 -60 139l-77 -54zM260 90q46 0 73.5 37.5t27.5 95.5q0 52 -23.5 82.5
t-65.5 30.5q-46 0 -74 -34.5t-28 -91.5q0 -55 23.5 -87.5t66.5 -32.5z" />
    <glyph glyph-name="ntilde" unicode="&#xf1;" horiz-adv-x="558" 
d="M501 236l-20 -115q-4 -23 18 -23h30l-17 -98h-50q-77 0 -101.5 25t-11.5 98l21 119q15 86 -60 86t-93 -97l-41 -231h-132l57 328h-66l17 98h191l-13 -74q28 44 61 63.5t82 19.5q71 0 107.5 -55t20.5 -144zM247 500l-87 9q9 68 40 104t74 36q34 0 63 -20q5 -4 13.5 -10
t12.5 -8.5t9 -4.5t10 -2q24 0 31 45l87 -9q-7 -68 -38.5 -104t-75.5 -36q-34 0 -63 20q-6 4 -14 9.5t-11.5 8.5t-9 5t-10.5 2q-24 0 -31 -45z" />
    <glyph glyph-name="ograve" unicode="&#xf2;" horiz-adv-x="533" 
d="M257 -9q-94 0 -158 60t-64 152q0 103 70 167.5t171 64.5q95 0 158.5 -60t63.5 -153q0 -103 -69.5 -167t-171.5 -64zM261 92q46 0 75 35.5t29 91.5q0 52 -24.5 82.5t-68.5 30.5q-46 0 -75 -35.5t-29 -91.5q0 -52 24 -82.5t69 -30.5zM239 500l-91 188h152l39 -188h-100z
" />
    <glyph glyph-name="oacute" unicode="&#xf3;" horiz-adv-x="533" 
d="M257 -9q-94 0 -158 60t-64 152q0 103 70 167.5t171 64.5q95 0 158.5 -60t63.5 -153q0 -103 -69.5 -167t-171.5 -64zM261 92q46 0 75 35.5t29 91.5q0 52 -24.5 82.5t-68.5 30.5q-46 0 -75 -35.5t-29 -91.5q0 -52 24 -82.5t69 -30.5zM234 500l80 188h158l-136 -188h-102z
" />
    <glyph glyph-name="ocircumflex" unicode="&#xf4;" horiz-adv-x="533" 
d="M257 -9q-94 0 -158 60t-64 152q0 103 70 167.5t171 64.5q95 0 158.5 -60t63.5 -153q0 -103 -69.5 -167t-171.5 -64zM261 92q46 0 75 35.5t29 91.5q0 52 -24.5 82.5t-68.5 30.5q-46 0 -75 -35.5t-29 -91.5q0 -52 24 -82.5t69 -30.5zM134 500l193 216h11l117 -216h-102
l-43 72l-67 -72h-109z" />
    <glyph glyph-name="otilde" unicode="&#xf5;" horiz-adv-x="533" 
d="M257 -9q-94 0 -158 60t-64 152q0 103 70 167.5t171 64.5q95 0 158.5 -60t63.5 -153q0 -103 -69.5 -167t-171.5 -64zM261 92q46 0 75 35.5t29 91.5q0 52 -24.5 82.5t-68.5 30.5q-46 0 -75 -35.5t-29 -91.5q0 -52 24 -82.5t69 -30.5zM218 500l-87 9q9 68 40 104t74 36
q34 0 63 -20q5 -4 13.5 -10t12.5 -8.5t9 -4.5t10 -2q23 0 31 45l87 -9q-7 -68 -38.5 -104t-75.5 -36q-34 0 -63 20q-6 4 -14 9.5t-11.5 8.5t-9 5t-10.5 2q-23 0 -31 -45z" />
    <glyph glyph-name="odieresis" unicode="&#xf6;" horiz-adv-x="533" 
d="M257 -9q-94 0 -158 60t-64 152q0 103 70 167.5t171 64.5q95 0 158.5 -60t63.5 -153q0 -103 -69.5 -167t-171.5 -64zM261 92q46 0 75 35.5t29 91.5q0 52 -24.5 82.5t-68.5 30.5q-46 0 -75 -35.5t-29 -91.5q0 -52 24 -82.5t69 -30.5zM409 508q-28 0 -50.5 22t-22.5 52
t22.5 52t50.5 22q29 0 50.5 -22t21.5 -52t-21.5 -52t-50.5 -22zM199 508q-28 0 -50 22t-22 52t22 52t50 22q29 0 51 -22t22 -52t-22 -52t-51 -22z" />
    <glyph glyph-name="divide" unicode="&#xf7;" horiz-adv-x="403" 
d="M243 364q-32 0 -55 22.5t-23 57.5q0 34 23 56.5t55 22.5t55 -22.5t23 -56.5q0 -35 -23 -57.5t-55 -22.5zM183 13q-32 0 -55 22.5t-23 57.5q0 34 23 56.5t55 22.5t55 -22.5t23 -56.5q0 -35 -23 -57.5t-55 -22.5zM367 217h-326l18 102h326z" />
    <glyph glyph-name="oslash" unicode="&#xf8;" horiz-adv-x="533" 
d="M257 -9q-83 0 -143 49l-66 -54l-48 63l63 50q-28 48 -28 104q0 103 70 167.5t171 64.5q81 0 142 -48l66 53l46 -63l-61 -49q29 -50 29 -106q0 -103 -69.5 -167t-171.5 -64zM261 92q48 0 78 35.5t30 91.5q0 10 -2 26l-167 -135q22 -18 61 -18zM164 205q0 -16 1 -23
l165 133q-23 17 -58 17q-48 0 -78 -35.5t-30 -91.5z" />
    <glyph glyph-name="ugrave" unicode="&#xf9;" horiz-adv-x="569" 
d="M529 426l-53 -305q-4 -23 18 -23h30l-17 -98h-50q-67 0 -88 15t-27 54l-1 7q-56 -85 -141 -85q-70 0 -106.5 55t-22.5 138l25 144h-66l17 98h198l-43 -242q-7 -42 9.5 -64t51.5 -22q77 0 94 97l25 138h-78l15 93h210zM255 500l-91 188h152l39 -188h-100z" />
    <glyph glyph-name="uacute" unicode="&#xfa;" horiz-adv-x="569" 
d="M529 426l-53 -305q-4 -23 18 -23h30l-17 -98h-50q-67 0 -88 15t-27 54l-1 7q-56 -85 -141 -85q-70 0 -106.5 55t-22.5 138l25 144h-66l17 98h198l-43 -242q-7 -42 9.5 -64t51.5 -22q77 0 94 97l25 138h-78l15 93h210zM248 500l80 188h158l-136 -188h-102z" />
    <glyph glyph-name="ucircumflex" unicode="&#xfb;" horiz-adv-x="569" 
d="M529 426l-53 -305q-4 -23 18 -23h30l-17 -98h-50q-67 0 -88 15t-27 54l-1 7q-56 -85 -141 -85q-70 0 -106.5 55t-22.5 138l25 144h-66l17 98h198l-43 -242q-7 -42 9.5 -64t51.5 -22q77 0 94 97l25 138h-78l15 93h210zM142 500l193 216h11l117 -216h-102l-43 72l-67 -72
h-109z" />
    <glyph glyph-name="udieresis" unicode="&#xfc;" horiz-adv-x="569" 
d="M529 426l-53 -305q-4 -23 18 -23h30l-17 -98h-50q-67 0 -88 15t-27 54l-1 7q-56 -85 -141 -85q-70 0 -106.5 55t-22.5 138l25 144h-66l17 98h198l-43 -242q-7 -42 9.5 -64t51.5 -22q77 0 94 97l25 138h-78l15 93h210zM416 508q-28 0 -50.5 22t-22.5 52t22.5 52t50.5 22
q29 0 50.5 -22t21.5 -52t-21.5 -52t-50.5 -22zM206 508q-28 0 -50 22t-22 52t22 52t50 22q29 0 51 -22t22 -52t-22 -52t-51 -22z" />
    <glyph glyph-name="yacute" unicode="&#xfd;" horiz-adv-x="499" 
d="M295 328l18 98h198l-18 -98h-43l-327 -540h-158l20 92h64l97 158l-85 290h-46l17 98h207l-17 -98h-27l26 -95q4 -14 6 -35.5t3 -38t1 -17.5q15 44 39 86l59 100h-34zM232 500l80 188h158l-136 -188h-102z" />
    <glyph glyph-name="thorn" unicode="&#xfe;" horiz-adv-x="554" 
d="M278 93q47 0 75.5 38.5t28.5 101.5q0 47 -22 73t-61 26q-45 0 -74.5 -36t-29.5 -93q0 -51 22 -80.5t61 -29.5zM71 623l17 99h200l-63 -358q44 71 129 71q70 0 117.5 -54t47.5 -150q0 -107 -59.5 -173.5t-142.5 -66.5q-100 0 -143 91l-33 -202h66l-16 -92h-256l16 92h58
l130 743h-68z" />
    <glyph glyph-name="ydieresis" unicode="&#xff;" horiz-adv-x="499" 
d="M295 328l18 98h198l-18 -98h-43l-327 -540h-158l20 92h64l97 158l-85 290h-46l17 98h207l-17 -98h-27l26 -95q4 -14 6 -35.5t3 -38t1 -17.5q15 44 39 86l59 100h-34zM408 508q-28 0 -50.5 22t-22.5 52t22.5 52t50.5 22q29 0 50.5 -22t21.5 -52t-21.5 -52t-50.5 -22z
M198 508q-28 0 -50 22t-22 52t22 52t50 22q29 0 51 -22t22 -52t-22 -52t-51 -22z" />
    <glyph glyph-name="Amacron" unicode="&#x100;" horiz-adv-x="705" 
d="M477 98l-11 74h-241l-39 -74h73l-17 -98h-251l17 98h49l260 484h-67l17 98h348l-17 -98h-64l83 -484h52l-17 -98h-262l17 98h70zM340 391l-64 -122h175l-18 124q-5 32 -8.5 72t-5.5 64l-2 24q-40 -91 -77 -162zM330 787l17 96h243l-17 -96h-243z" />
    <glyph glyph-name="amacron" unicode="&#x101;" horiz-adv-x="554" 
d="M255 94q43 0 71 38.5t28 98.5q0 46 -21.5 73t-56.5 27q-45 0 -72 -38.5t-27 -101.5q0 -46 20.5 -71.5t57.5 -25.5zM202 -9q-72 0 -117 53.5t-45 138.5q0 117 64 184.5t147 67.5q90 0 128 -77l27 68h114l-53 -305q-4 -23 18 -23h30l-17 -98h-50q-66 0 -88 14.5t-28 44.5
l-1 5q-51 -73 -129 -73zM190 529l17 96h243l-17 -96h-243z" />
    <glyph glyph-name="Abreve" unicode="&#x102;" horiz-adv-x="705" 
d="M477 98l-11 74h-241l-39 -74h73l-17 -98h-251l17 98h49l260 484h-67l17 98h348l-17 -98h-64l83 -484h52l-17 -98h-262l17 98h70zM340 391l-64 -122h175l-18 124q-5 32 -8.5 72t-5.5 64l-2 24q-40 -91 -77 -162zM453 758q-69 0 -110 39t-44 101l101 15q5 -57 54 -57
q48 0 60 57l99 -15q-9 -62 -51 -101t-109 -39z" />
    <glyph glyph-name="abreve" unicode="&#x103;" horiz-adv-x="554" 
d="M255 94q43 0 71 38.5t28 98.5q0 46 -21.5 73t-56.5 27q-45 0 -72 -38.5t-27 -101.5q0 -46 20.5 -71.5t57.5 -25.5zM202 -9q-72 0 -117 53.5t-45 138.5q0 117 64 184.5t147 67.5q90 0 128 -77l27 68h114l-53 -305q-4 -23 18 -23h30l-17 -98h-50q-66 0 -88 14.5t-28 44.5
l-1 5q-51 -73 -129 -73zM317 500q-69 0 -110 39t-44 101l101 15q5 -57 54 -57q48 0 60 57l99 -15q-9 -62 -51 -101t-109 -39z" />
    <glyph glyph-name="Aogonek" unicode="&#x104;" horiz-adv-x="705" 
d="M545 -220q-49 0 -80.5 25t-31.5 71q0 61 83 124h-119l17 98h70l-11 74h-241l-39 -74h73l-17 -98h-251l17 98h49l260 484h-67l17 98h348l-17 -98h-64l83 -484h52l-17 -98h-41q-80 -81 -80 -109q0 -22 23 -22q18 0 31 17l64 -51q-39 -55 -111 -55zM347 391l-64 -122h175
l-18 124q-5 32 -8.5 72t-5.5 64l-2 24q-40 -91 -77 -162z" />
    <glyph glyph-name="aogonek" unicode="&#x105;" horiz-adv-x="554" 
d="M202 -9q-72 0 -117 53.5t-45 138.5q0 117 64 184.5t147 67.5q90 0 128 -77l27 68h114l-53 -305q-4 -23 18 -23h30l-17 -98h-40q-80 -81 -80 -109q0 -22 23 -22q18 0 31 17l64 -51q-39 -55 -111 -55q-49 0 -80.5 25t-31.5 71q0 64 97 134q-31 11 -38 49l-1 5
q-51 -73 -129 -73zM255 94q43 0 71 38.5t28 98.5q0 46 -21.5 73t-56.5 27q-45 0 -72 -38.5t-27 -101.5q0 -46 20.5 -71.5t57.5 -25.5z" />
    <glyph glyph-name="Cacute" unicode="&#x106;" horiz-adv-x="699" 
d="M60 316q0 158 103 265.5t248 107.5q118 0 175 -74l27 65h93l-38 -216h-100q-36 111 -157 111q-88 0 -148.5 -70t-60.5 -187q0 -99 49.5 -155t135.5 -56q102 0 164 87l103 -78q-106 -125 -270 -125q-149 0 -236.5 89t-87.5 236zM394 758l80 188h158l-136 -188h-102z" />
    <glyph glyph-name="cacute" unicode="&#x107;" horiz-adv-x="469" 
d="M438 270h-94q-13 61 -72 61q-48 0 -74.5 -37.5t-26.5 -92.5q0 -49 25 -77.5t70 -28.5q50 0 83 40l72 -82q-64 -62 -173 -62q-93 0 -153 56.5t-60 150.5q0 108 63.5 172.5t155.5 64.5q75 0 109 -50l18 41h83zM224 500l80 188h158l-136 -188h-102z" />
    <glyph glyph-name="Ccircumflex" unicode="&#x108;" horiz-adv-x="699" 
d="M60 316q0 158 103 265.5t248 107.5q118 0 175 -74l27 65h93l-38 -216h-100q-36 111 -157 111q-88 0 -148.5 -70t-60.5 -187q0 -99 49.5 -155t135.5 -56q102 0 164 87l103 -78q-106 -125 -270 -125q-149 0 -236.5 89t-87.5 236zM282 758l193 216h11l117 -216h-102l-43 72
l-67 -72h-109z" />
    <glyph glyph-name="ccircumflex" unicode="&#x109;" horiz-adv-x="469" 
d="M438 270h-94q-13 61 -72 61q-48 0 -74.5 -37.5t-26.5 -92.5q0 -49 25 -77.5t70 -28.5q50 0 83 40l72 -82q-64 -62 -173 -62q-93 0 -153 56.5t-60 150.5q0 108 63.5 172.5t155.5 64.5q75 0 109 -50l18 41h83zM126 500l193 216h11l117 -216h-102l-43 72l-67 -72h-109z" />
    <glyph glyph-name="Cdotaccent" unicode="&#x10a;" horiz-adv-x="699" 
d="M60 316q0 158 103 265.5t248 107.5q118 0 175 -74l27 65h93l-38 -216h-100q-36 111 -157 111q-88 0 -148.5 -70t-60.5 -187q0 -99 49.5 -155t135.5 -56q102 0 164 87l103 -78q-106 -125 -270 -125q-149 0 -236.5 89t-87.5 236zM443 756q-28 0 -50 22t-22 52t22 52t50 22
q29 0 51 -22t22 -52t-22 -52t-51 -22z" />
    <glyph glyph-name="cdotaccent" unicode="&#x10b;" horiz-adv-x="469" 
d="M438 270h-94q-13 61 -72 61q-48 0 -74.5 -37.5t-26.5 -92.5q0 -49 25 -77.5t70 -28.5q50 0 83 40l72 -82q-64 -62 -173 -62q-93 0 -153 56.5t-60 150.5q0 108 63.5 172.5t155.5 64.5q75 0 109 -50l18 41h83zM294 508q-28 0 -50 22t-22 52t22 52t50 22q29 0 51 -22t22 -52
t-22 -52t-51 -22z" />
    <glyph glyph-name="Ccaron" unicode="&#x10c;" horiz-adv-x="699" 
d="M60 316q0 158 103 265.5t248 107.5q118 0 175 -74l27 65h93l-38 -216h-100q-36 111 -157 111q-88 0 -148.5 -70t-60.5 -187q0 -99 49.5 -155t135.5 -56q102 0 164 87l103 -78q-106 -125 -270 -125q-149 0 -236.5 89t-87.5 236zM437 738l-117 217h102l43 -73l67 73h109
l-193 -217h-11z" />
    <glyph glyph-name="ccaron" unicode="&#x10d;" horiz-adv-x="469" 
d="M438 270h-94q-13 61 -72 61q-48 0 -74.5 -37.5t-26.5 -92.5q0 -49 25 -77.5t70 -28.5q50 0 83 40l72 -82q-64 -62 -173 -62q-93 0 -153 56.5t-60 150.5q0 108 63.5 172.5t155.5 64.5q75 0 109 -50l18 41h83zM283 480l-117 217h102l43 -73l67 73h109l-193 -217h-11z" />
    <glyph glyph-name="Dcaron" unicode="&#x10e;" horiz-adv-x="680" 
d="M216 107h75q118 0 183 72t65 185q0 95 -52 152t-151 57h-41zM124 680h247q133 0 219 -85.5t86 -221.5q0 -163 -104.5 -268t-266.5 -105h-296l17 98h51l83 484h-53zM378 738l-117 217h102l43 -73l67 73h109l-193 -217h-11z" />
    <glyph glyph-name="dcaron" unicode="&#x10f;" horiz-adv-x="560" 
d="M614 481l45 100q-41 24 -41 71q0 31 22.5 53t53.5 22q32 0 54.5 -22t22.5 -56q0 -35 -34 -84l-59 -84h-64zM386 358l48 266h-76l17 98h207l-105 -601q-4 -23 18 -23h30l-17 -98h-50q-66 0 -89 15t-27 46l-1 7q-43 -77 -135 -77q-72 0 -119 54t-47 138q0 119 62.5 185.5
t151.5 66.5q96 0 132 -77zM261 94q44 0 72.5 36t30.5 92q2 50 -20.5 79.5t-63.5 29.5q-46 0 -73.5 -36t-29.5 -95q-1 -49 21 -77.5t63 -28.5z" />
    <glyph glyph-name="Dcroat" unicode="&#x110;" horiz-adv-x="680" 
d="M124 680h247q133 0 219 -85.5t86 -221.5q0 -163 -104.5 -268t-266.5 -105h-296l17 98h51l33 194h-56l16 93h56l34 197h-53zM216 107h75q118 0 183 72t65 185q0 95 -52 152t-151 57h-41l-32 -188h152l-16 -93h-152z" />
    <glyph glyph-name="dcroat" unicode="&#x111;" horiz-adv-x="560" 
d="M386 358l24 134h-143l14 77h143l10 55h-76l17 98h207l-27 -153h65l-14 -77h-64l-65 -371q-4 -23 18 -23h30l-17 -98h-50q-66 0 -89 15t-27 46l-1 7q-43 -77 -135 -77q-72 0 -119 54t-47 138q0 119 62.5 185.5t151.5 66.5q96 0 132 -77zM261 94q44 0 72.5 36t30.5 92
q2 50 -20.5 79.5t-63.5 29.5q-46 0 -73.5 -36t-29.5 -95q-1 -49 21 -77.5t63 -28.5z" />
    <glyph glyph-name="Emacron" unicode="&#x112;" horiz-adv-x="589" 
d="M587 492h-102l-4 81h-184l-31 -178h238l-19 -106h-238l-31 -182h194l35 81h101l-32 -188h-505l16 98h53l85 484h-53l17 98h492zM273 787l17 96h243l-17 -96h-243z" />
    <glyph glyph-name="emacron" unicode="&#x113;" horiz-adv-x="505" 
d="M169 173q2 -36 28.5 -58.5t70.5 -22.5q63 0 104 37l70 -80q-74 -58 -183 -58q-104 0 -164 58.5t-60 152.5q0 106 68.5 169.5t162.5 63.5q109 0 165 -74.5t40 -187.5h-302zM171 249h171q1 41 -20.5 64.5t-58.5 23.5q-35 0 -61.5 -24.5t-30.5 -63.5zM164 529l17 96h243
l-17 -96h-243z" />
    <glyph glyph-name="Ebreve" unicode="&#x114;" horiz-adv-x="589" 
d="M587 492h-102l-4 81h-184l-31 -178h238l-19 -106h-238l-31 -182h194l35 81h101l-32 -188h-505l16 98h53l85 484h-53l17 98h492zM388 758q-69 0 -110 39t-44 101l101 15q5 -57 54 -57q48 0 60 57l99 -15q-9 -62 -51 -101t-109 -39z" />
    <glyph glyph-name="ebreve" unicode="&#x115;" horiz-adv-x="505" 
d="M169 173q2 -36 28.5 -58.5t70.5 -22.5q63 0 104 37l70 -80q-74 -58 -183 -58q-104 0 -164 58.5t-60 152.5q0 106 68.5 169.5t162.5 63.5q109 0 165 -74.5t40 -187.5h-302zM171 249h171q1 41 -20.5 64.5t-58.5 23.5q-35 0 -61.5 -24.5t-30.5 -63.5zM286 500q-69 0 -110 39
t-44 101l101 15q5 -57 54 -57q48 0 60 57l99 -15q-9 -62 -51 -101t-109 -39z" />
    <glyph glyph-name="Edotaccent" unicode="&#x116;" horiz-adv-x="589" 
d="M587 492h-102l-4 81h-184l-31 -178h238l-19 -106h-238l-31 -182h194l35 81h101l-32 -188h-505l16 98h53l85 484h-53l17 98h492zM400 756q-28 0 -50 22t-22 52t22 52t50 22q29 0 51 -22t22 -52t-22 -52t-51 -22z" />
    <glyph glyph-name="edotaccent" unicode="&#x117;" horiz-adv-x="505" 
d="M169 173q2 -36 28.5 -58.5t70.5 -22.5q63 0 104 37l70 -80q-74 -58 -183 -58q-104 0 -164 58.5t-60 152.5q0 106 68.5 169.5t162.5 63.5q109 0 165 -74.5t40 -187.5h-302zM171 249h171q1 41 -20.5 64.5t-58.5 23.5q-35 0 -61.5 -24.5t-30.5 -63.5zM287 508q-28 0 -50 22
t-22 52t22 52t50 22q29 0 51 -22t22 -52t-22 -52t-51 -22z" />
    <glyph glyph-name="Eogonek" unicode="&#x118;" horiz-adv-x="589" 
d="M587 492h-102l-4 81h-184l-31 -178h238l-19 -106h-238l-31 -182h194l35 81h101l-32 -188h-66q-80 -81 -80 -109q0 -22 23 -22q18 0 31 17l64 -51q-39 -55 -111 -55q-49 0 -80.5 25t-31.5 71q0 61 83 124h-337l16 98h53l85 484h-53l17 98h492z" />
    <glyph glyph-name="eogonek" unicode="&#x119;" horiz-adv-x="505" 
d="M169 174q3 -36 27 -58.5t64 -22.5q34 0 63 12.5t44 29.5l75 -86q-10 -9 -45.5 -31.5t-55.5 -42.5q-56 -56 -56 -84q0 -22 23 -22q18 0 31 17l64 -51q-39 -55 -111 -55q-49 0 -80.5 25t-31.5 71q0 60 80 115h-5q-99 0 -159.5 59.5t-60.5 151.5q0 106 66.5 169.5
t164.5 63.5q109 0 165 -74t40 -187h-302zM171 249h171q1 41 -20.5 64.5t-58.5 23.5q-35 0 -61.5 -24.5t-30.5 -63.5z" />
    <glyph glyph-name="Ecaron" unicode="&#x11a;" horiz-adv-x="589" 
d="M587 492h-102l-4 81h-184l-31 -178h238l-19 -106h-238l-31 -182h194l35 81h101l-32 -188h-505l16 98h53l85 484h-53l17 98h492zM379 738l-117 217h102l43 -73l67 73h109l-193 -217h-11z" />
    <glyph glyph-name="ecaron" unicode="&#x11b;" horiz-adv-x="505" 
d="M169 173q2 -36 28.5 -58.5t70.5 -22.5q63 0 104 37l70 -80q-74 -58 -183 -58q-104 0 -164 58.5t-60 152.5q0 106 68.5 169.5t162.5 63.5q109 0 165 -74.5t40 -187.5h-302zM171 249h171q1 41 -20.5 64.5t-58.5 23.5q-35 0 -61.5 -24.5t-30.5 -63.5zM277 480l-117 217h102
l43 -73l67 73h109l-193 -217h-11z" />
    <glyph glyph-name="Gcircumflex" unicode="&#x11c;" horiz-adv-x="738" 
d="M720 680l-37 -214h-100q-11 49 -55.5 79t-106.5 30q-97 0 -159 -72t-62 -185q0 -99 49 -157t132 -58q105 0 151 50l19 102h-158l20 112h289l-63 -367h-95l-4 58q-71 -67 -186 -67q-124 0 -209 88.5t-85 226.5q0 164 104.5 273.5t250.5 109.5q127 0 190 -74l22 65h93z
M284 758l193 216h11l117 -216h-102l-43 72l-67 -72h-109z" />
    <glyph glyph-name="gcircumflex" unicode="&#x11d;" horiz-adv-x="549" 
d="M570 426l-17 -98h-44l-61 -345q-36 -205 -242 -205q-144 0 -213 82l84 81q52 -58 122 -58q97 0 118 108l12 66q-50 -66 -123 -66q-71 0 -118.5 53.5t-47.5 140.5q0 115 62.5 182.5t151.5 67.5q90 0 131 -77l9 68h176zM262 95q43 0 71 37.5t28 98.5q0 45 -20 72t-60 27
q-45 0 -74 -35.5t-29 -94.5q0 -105 84 -105zM151 500l193 216h11l117 -216h-102l-43 72l-67 -72h-109z" />
    <glyph glyph-name="Gbreve" unicode="&#x11e;" horiz-adv-x="738" 
d="M720 680l-37 -214h-100q-11 49 -55.5 79t-106.5 30q-97 0 -159 -72t-62 -185q0 -99 49 -157t132 -58q105 0 151 50l19 102h-158l20 112h289l-63 -367h-95l-4 58q-71 -67 -186 -67q-124 0 -209 88.5t-85 226.5q0 164 104.5 273.5t250.5 109.5q127 0 190 -74l22 65h93z
M439 758q-69 0 -110 39t-44 101l101 15q5 -57 54 -57q48 0 60 57l99 -15q-9 -62 -51 -101t-109 -39z" />
    <glyph glyph-name="gbreve" unicode="&#x11f;" horiz-adv-x="549" 
d="M570 426l-17 -98h-44l-61 -345q-36 -205 -242 -205q-144 0 -213 82l84 81q52 -58 122 -58q97 0 118 108l12 66q-50 -66 -123 -66q-71 0 -118.5 53.5t-47.5 140.5q0 115 62.5 182.5t151.5 67.5q90 0 131 -77l9 68h176zM262 95q43 0 71 37.5t28 98.5q0 45 -20 72t-60 27
q-45 0 -74 -35.5t-29 -94.5q0 -105 84 -105zM313 500q-69 0 -110 39t-44 101l101 15q5 -57 54 -57q48 0 60 57l99 -15q-9 -62 -51 -101t-109 -39z" />
    <glyph glyph-name="Gdotaccent" unicode="&#x120;" horiz-adv-x="738" 
d="M720 680l-37 -214h-100q-11 49 -55.5 79t-106.5 30q-97 0 -159 -72t-62 -185q0 -99 49 -157t132 -58q105 0 151 50l19 102h-158l20 112h289l-63 -367h-95l-4 58q-71 -67 -186 -67q-124 0 -209 88.5t-85 226.5q0 164 104.5 273.5t250.5 109.5q127 0 190 -74l22 65h93z
M458 756q-28 0 -50 22t-22 52t22 52t50 22q29 0 51 -22t22 -52t-22 -52t-51 -22z" />
    <glyph glyph-name="gdotaccent" unicode="&#x121;" horiz-adv-x="549" 
d="M570 426l-17 -98h-44l-61 -345q-36 -205 -242 -205q-144 0 -213 82l84 81q52 -58 122 -58q97 0 118 108l12 66q-50 -66 -123 -66q-71 0 -118.5 53.5t-47.5 140.5q0 115 62.5 182.5t151.5 67.5q90 0 131 -77l9 68h176zM262 95q43 0 71 37.5t28 98.5q0 45 -20 72t-60 27
q-45 0 -74 -35.5t-29 -94.5q0 -105 84 -105zM321 508q-28 0 -50 22t-22 52t22 52t50 22q29 0 51 -22t22 -52t-22 -52t-51 -22z" />
    <glyph glyph-name="Gcommaaccent" unicode="&#x122;" horiz-adv-x="738" 
d="M254 -283l48 99q-40 21 -40 68q0 31 22.5 52.5t52.5 21.5q31 0 53.5 -21t22.5 -52q0 -39 -33 -85l-62 -83h-64zM720 680l-37 -214h-100q-11 49 -55.5 79t-106.5 30q-97 0 -159 -72t-62 -185q0 -99 49 -157t132 -58q105 0 151 50l19 102h-158l20 112h289l-63 -367h-95
l-4 58q-71 -67 -186 -67q-124 0 -209 88.5t-85 226.5q0 164 104.5 273.5t250.5 109.5q127 0 190 -74l22 65h93z" />
    <glyph glyph-name="gcommaaccent" unicode="&#x123;" horiz-adv-x="549" 
d="M398 747l-48 -99q40 -21 40 -68q0 -31 -22.5 -52.5t-52.5 -21.5q-31 0 -53.5 21t-22.5 52q0 39 33 85l62 83h64zM570 426l-17 -98h-44l-61 -345q-36 -205 -242 -205q-144 0 -213 82l84 81q52 -58 122 -58q97 0 118 108l12 66q-50 -66 -123 -66q-71 0 -118.5 53.5
t-47.5 140.5q0 115 62.5 182.5t151.5 67.5q90 0 131 -77l9 68h176zM262 95q43 0 71 37.5t28 98.5q0 45 -20 72t-60 27q-45 0 -74 -35.5t-29 -94.5q0 -105 84 -105z" />
    <glyph glyph-name="Hcircumflex" unicode="&#x124;" horiz-adv-x="741" 
d="M497 98l31 179h-284l-30 -179h52l-16 -98h-241l17 98h51l83 484h-53l17 98h242l-17 -98h-52l-35 -197h284l34 197h-52l16 98h242l-17 -98h-52l-83 -484h52l-16 -98h-242l17 98h52zM303 758l193 216h11l117 -216h-102l-43 72l-67 -72h-109z" />
    <glyph glyph-name="hcircumflex" unicode="&#x125;" horiz-adv-x="544" 
d="M176 750l193 216h11l117 -216h-102l-43 72l-67 -72h-109zM487 236l-20 -115q-4 -23 18 -23h30l-17 -98h-50q-77 0 -101.5 25t-11.5 98l21 119q15 86 -60 86q-76 0 -93 -97l-41 -231h-132l107 624h-66l17 98h199l-66 -373q52 86 138 86q71 0 107.5 -55t20.5 -144z" />
    <glyph glyph-name="Hbar" unicode="&#x126;" horiz-adv-x="741" 
d="M77 443l13 77h59l11 62h-53l17 98h242l-17 -98h-52l-11 -62h283l11 62h-52l16 98h242l-17 -98h-52l-11 -62h59l-13 -77h-59l-59 -345h52l-16 -98h-242l17 98h52l31 179h-284l-30 -179h52l-16 -98h-241l17 98h51l59 345h-59zM260 375h284l12 68h-284z" />
    <glyph glyph-name="hbar" unicode="&#x127;" horiz-adv-x="544" 
d="M487 236l-20 -115q-4 -23 18 -23h30l-17 -98h-50q-77 0 -101.5 25t-11.5 98l21 119q15 86 -60 86q-76 0 -93 -97l-41 -231h-132l84 492h-74l14 77h73l10 55h-66l17 98h199l-27 -153h133l-14 -77h-133l-25 -143q52 86 138 86q71 0 107.5 -55t20.5 -144z" />
    <glyph glyph-name="Imacron" unicode="&#x12a;" horiz-adv-x="322" 
d="M297 582l-81 -484h52l-16 -98h-243l17 98h51l83 484h-53l17 98h243l-17 -98h-53zM145 787l17 96h243l-17 -96h-243z" />
    <glyph glyph-name="imacron" unicode="&#x12b;" horiz-adv-x="290" 
d="M75 529l17 96h228l-17 -96h-228zM252 426l-54 -305q-4 -23 19 -23h29l-17 -98h-50q-75 0 -100 25t-13 98l36 205h-67l17 98h200z" />
    <glyph glyph-name="Iogonek" unicode="&#x12e;" horiz-adv-x="322" 
d="M124 -220q-49 0 -80.5 25t-31.5 71q0 61 83 124h-86l17 98h51l83 484h-53l17 98h243l-17 -98h-53l-81 -484h52l-16 -98h-55q-80 -81 -80 -109q0 -22 23 -22q18 0 31 17l64 -51q-39 -55 -111 -55z" />
    <glyph glyph-name="iogonek" unicode="&#x12f;" horiz-adv-x="290" 
d="M252 426l-54 -305q-4 -23 19 -23h29l-17 -98h-44q-80 -81 -80 -109q0 -22 23 -22q18 0 31 17l64 -51q-39 -55 -111 -55q-49 0 -80.5 25t-31.5 71q0 62 98 135q-48 22 -32 112l36 205h-67l17 98h200zM213 500q-34 0 -58 23t-24 59q0 35 23.5 58t57.5 23t58.5 -23t24.5 -58
q0 -36 -24 -59t-58 -23z" />
    <glyph glyph-name="Idotaccent" unicode="&#x130;" horiz-adv-x="322" 
d="M297 582l-81 -484h52l-16 -98h-243l17 98h51l83 484h-53l17 98h243l-17 -98h-53zM267 756q-28 0 -50 22t-22 52t22 52t50 22q29 0 51 -22t22 -52t-22 -52t-51 -22z" />
    <glyph glyph-name="dotlessi" unicode="&#x131;" horiz-adv-x="290" 
d="M252 426l-54 -305q-4 -23 19 -23h29l-17 -98h-50q-75 0 -100 25t-13 98l36 205h-67l17 98h200z" />
    <glyph glyph-name="Jcircumflex" unicode="&#x134;" horiz-adv-x="495" 
d="M189 -9q-76 0 -126.5 37t-72.5 92l116 63q26 -76 88 -76q66 0 81 82l69 393h-75l17 98h261l-17 -98h-52l-69 -395q-18 -105 -72 -150.5t-148 -45.5zM269 758l193 216h11l117 -216h-102l-43 72l-67 -72h-109z" />
    <glyph glyph-name="jcircumflex" unicode="&#x135;" horiz-adv-x="274" 
d="M34 -80l71 408h-66l17 98h199l-87 -494q-27 -154 -158 -154q-77 0 -120 48l65 77q20 -20 41 -20q31 0 38 37zM10 500l193 216h11l117 -216h-102l-43 72l-67 -72h-109z" />
    <glyph glyph-name="Kcommaaccent" unicode="&#x136;" horiz-adv-x="647" 
d="M668 582h-43l-200 -206l143 -278h56l-17 -98h-182l11 67l-110 218l-95 -91l-18 -102h52l-16 -92h-240l16 98h52l85 484h-52l17 98h237l-16 -93h-50l-23 -139q-14 -81 -27 -115q44 55 95 107l145 147h-45l16 93h226zM239 -283l48 99q-40 21 -40 68q0 31 22.5 52.5
t52.5 21.5q31 0 53.5 -21t22.5 -52q0 -39 -33 -85l-62 -83h-64z" />
    <glyph glyph-name="kcommaaccent" unicode="&#x137;" horiz-adv-x="509" 
d="M277 328l17 98h220l-17 -98h-41l-110 -104l54 -104q8 -14 14.5 -18t19.5 -4h31l-17 -98h-56q-47 0 -65 14.5t-42 62.5l-37 74l-70 -60l-16 -91h-132l107 624h-66l17 98h199l-73 -415q-10 -61 -24 -102l135 123h-48zM145 -283l48 99q-40 21 -40 68q0 31 22.5 52.5
t52.5 21.5q31 0 53.5 -21t22.5 -52q0 -39 -33 -85l-62 -83h-64z" />
    <glyph glyph-name="Lacute" unicode="&#x139;" horiz-adv-x="565" 
d="M204 748l80 188h158l-136 -188h-102zM545 216l-38 -216h-501l17 98h53l85 484h-54l17 98h248l-17 -98h-54l-83 -474h186l39 108h102z" />
    <glyph glyph-name="lacute" unicode="&#x13a;" horiz-adv-x="268" 
d="M164 768l80 188h158l-136 -188h-102zM284 722l-105 -601q-4 -23 18 -23h38l-17 -98h-58q-75 0 -100.5 25t-12.5 98l87 501h-66l17 98h199z" />
    <glyph glyph-name="Lcommaaccent" unicode="&#x13b;" horiz-adv-x="565" 
d="M185 -283l48 99q-40 21 -40 68q0 31 22.5 52.5t52.5 21.5q31 0 53.5 -21t22.5 -52q0 -39 -33 -85l-62 -83h-64zM545 216l-38 -216h-501l17 98h53l85 484h-54l17 98h248l-17 -98h-54l-83 -474h186l39 108h102z" />
    <glyph glyph-name="lcommaaccent" unicode="&#x13c;" horiz-adv-x="268" 
d="M284 722l-105 -601q-4 -23 18 -23h38l-17 -98h-58q-75 0 -100.5 25t-12.5 98l87 501h-66l17 98h199zM28 -283l48 99q-40 21 -40 68q0 31 22.5 52.5t52.5 21.5q31 0 53.5 -21t22.5 -52q0 -39 -33 -85l-62 -83h-64z" />
    <glyph glyph-name="Lcaron" unicode="&#x13d;" horiz-adv-x="555" 
d="M417 441l47 99q-42 24 -42 71q0 33 22.5 55t54.5 22t54.5 -22.5t22.5 -56.5q0 -38 -33 -83l-62 -85h-64zM545 216l-38 -216h-501l17 98h53l85 484h-54l17 98h248l-17 -98h-54l-83 -474h186l39 108h102z" />
    <glyph glyph-name="lcaron" unicode="&#x13e;" horiz-adv-x="268" 
d="M316 481l45 100q-41 24 -41 71q0 31 22.5 53t53.5 22q32 0 54.5 -22t22.5 -56q0 -35 -34 -84l-59 -84h-64zM284 722l-105 -601q-4 -23 18 -23h38l-17 -98h-58q-75 0 -100.5 25t-12.5 98l87 501h-66l17 98h199z" />
    <glyph glyph-name="Lslash" unicode="&#x141;" horiz-adv-x="565" 
d="M545 216l-38 -216h-501l17 98h53l23 134l-69 -24l17 100l70 24l44 250h-54l17 98h248l-17 -98h-54l-35 -198l165 58l-17 -100l-165 -58l-31 -176h186l39 108h102z" />
    <glyph glyph-name="lslash" unicode="&#x142;" horiz-adv-x="309" 
d="M300 722l-56 -318l69 36l-19 -113l-70 -37l-29 -169q-4 -23 18 -23h38l-17 -98h-58q-75 0 -100.5 25t-12.5 98l15 90l-61 -32l19 113l62 33l52 297h-66l17 98h199z" />
    <glyph glyph-name="Nacute" unicode="&#x143;" horiz-adv-x="740" 
d="M556 314l46 268h-61l17 98h231l-17 -98h-51l-100 -582h-105l-206 364q-27 47 -53 112q0 -22 -18 -127l-43 -251h58l-17 -98h-228l17 98h51l83 484h-63l17 98h167l211 -373q24 -43 50 -109q0 35 14 116zM404 758l80 188h158l-136 -188h-102z" />
    <glyph glyph-name="nacute" unicode="&#x144;" horiz-adv-x="558" 
d="M501 236l-20 -115q-4 -23 18 -23h30l-17 -98h-50q-77 0 -101.5 25t-11.5 98l21 119q15 86 -60 86t-93 -97l-41 -231h-132l57 328h-66l17 98h191l-13 -74q28 44 61 63.5t82 19.5q71 0 107.5 -55t20.5 -144zM270 500l80 188h158l-136 -188h-102z" />
    <glyph glyph-name="Ncommaaccent" unicode="&#x145;" horiz-adv-x="740" 
d="M556 314l46 268h-61l17 98h231l-17 -98h-51l-100 -582h-105l-206 364q-27 47 -53 112q0 -22 -18 -127l-43 -251h58l-17 -98h-228l17 98h51l83 484h-63l17 98h167l211 -373q24 -43 50 -109q0 35 14 116zM258 -283l48 99q-40 21 -40 68q0 31 22.5 52.5t52.5 21.5
q31 0 53.5 -21t22.5 -52q0 -39 -33 -85l-62 -83h-64z" />
    <glyph glyph-name="ncommaaccent" unicode="&#x146;" horiz-adv-x="558" 
d="M181 -283l48 99q-40 21 -40 68q0 31 22.5 52.5t52.5 21.5q31 0 53.5 -21t22.5 -52q0 -39 -33 -85l-62 -83h-64zM501 236l-20 -115q-4 -23 18 -23h30l-17 -98h-50q-77 0 -101.5 25t-11.5 98l21 119q15 86 -60 86t-93 -97l-41 -231h-132l57 328h-66l17 98h191l-13 -74
q28 44 61 63.5t82 19.5q71 0 107.5 -55t20.5 -144z" />
    <glyph glyph-name="Ncaron" unicode="&#x147;" horiz-adv-x="740" 
d="M556 314l46 268h-61l17 98h231l-17 -98h-51l-100 -582h-105l-206 364q-27 47 -53 112q0 -22 -18 -127l-43 -251h58l-17 -98h-228l17 98h51l83 484h-63l17 98h167l211 -373q24 -43 50 -109q0 35 14 116zM442 738l-117 217h102l43 -73l67 73h109l-193 -217h-11z" />
    <glyph glyph-name="ncaron" unicode="&#x148;" horiz-adv-x="558" 
d="M501 236l-20 -115q-4 -23 18 -23h30l-17 -98h-50q-77 0 -101.5 25t-11.5 98l21 119q15 86 -60 86t-93 -97l-41 -231h-132l57 328h-66l17 98h191l-13 -74q28 44 61 63.5t82 19.5q71 0 107.5 -55t20.5 -144zM309 480l-117 217h102l43 -73l67 73h109l-193 -217h-11z" />
    <glyph glyph-name="Omacron" unicode="&#x14c;" horiz-adv-x="756" 
d="M200 318q0 -96 52 -153t139 -57q91 0 154 72t63 184q0 96 -52 153.5t-139 57.5q-91 0 -154 -72.5t-63 -184.5zM60 306q0 166 105 274.5t261 108.5q136 0 228 -90t92 -226q0 -166 -103.5 -274t-262.5 -108q-136 0 -228 89.5t-92 225.5zM338 787l17 96h243l-17 -96h-243z
" />
    <glyph glyph-name="omacron" unicode="&#x14d;" horiz-adv-x="533" 
d="M257 -9q-94 0 -158 60t-64 152q0 103 70 167.5t171 64.5q95 0 158.5 -60t63.5 -153q0 -103 -69.5 -167t-171.5 -64zM261 92q46 0 75 35.5t29 91.5q0 52 -24.5 82.5t-68.5 30.5q-46 0 -75 -35.5t-29 -91.5q0 -52 24 -82.5t69 -30.5zM180 529l17 96h243l-17 -96h-243z" />
    <glyph glyph-name="Ohungarumlaut" unicode="&#x150;" horiz-adv-x="756" 
d="M200 318q0 -96 52 -153t139 -57q91 0 154 72t63 184q0 96 -52 153.5t-139 57.5q-91 0 -154 -72.5t-63 -184.5zM60 306q0 166 105 274.5t261 108.5q136 0 228 -90t92 -226q0 -166 -103.5 -274t-262.5 -108q-136 0 -228 89.5t-92 225.5zM488 758l86 188h138l-122 -188h-102
zM307 758l86 188h138l-122 -188h-102z" />
    <glyph glyph-name="ohungarumlaut" unicode="&#x151;" horiz-adv-x="533" 
d="M257 -9q-94 0 -158 60t-64 152q0 103 70 167.5t171 64.5q95 0 158.5 -60t63.5 -153q0 -103 -69.5 -167t-171.5 -64zM261 92q46 0 75 35.5t29 91.5q0 52 -24.5 82.5t-68.5 30.5q-46 0 -75 -35.5t-29 -91.5q0 -52 24 -82.5t69 -30.5zM333 500l86 188h138l-122 -188h-102z
M152 500l86 188h138l-122 -188h-102z" />
    <glyph glyph-name="OE" unicode="&#x152;" horiz-adv-x="960" 
d="M395 107h55l82 466h-87q-116 0 -179.5 -75.5t-63.5 -189.5q0 -90 48.5 -145.5t144.5 -55.5zM885 0h-506q-150 0 -234.5 85.5t-84.5 228.5q0 164 108.5 265t276.5 101h545l-32 -188h-102l-4 81h-184l-31 -178h238l-19 -106h-238l-31 -182h194l35 81h101z" />
    <glyph glyph-name="oe" unicode="&#x153;" horiz-adv-x="831" 
d="M255 -9q-94 0 -157 60t-63 152q0 103 69 167.5t170 64.5q99 0 158 -77q61 77 161 77q109 0 164.5 -74.5t39.5 -187.5h-302q2 -36 28.5 -58.5t69.5 -22.5q66 0 105 37l70 -80q-74 -58 -186 -58q-103 0 -159 77q-64 -77 -168 -77zM261 92q46 0 75 35.5t29 91.5
q0 52 -24.5 82.5t-68.5 30.5q-46 0 -75 -35.5t-29 -91.5q0 -52 24 -82.5t69 -30.5zM497 249h171q1 41 -20.5 64.5t-58.5 23.5q-35 0 -61.5 -24.5t-30.5 -63.5z" />
    <glyph glyph-name="Racute" unicode="&#x154;" horiz-adv-x="649" 
d="M444 0l-114 247h-92l-25 -149h61l-17 -98h-248l16 98h53l85 484h-53l17 98h274q103 0 168.5 -53.5t65.5 -151.5q0 -74 -45 -129.5t-122 -81.5l81 -166h66l-17 -98h-154zM259 348h102q59 0 95.5 33t36.5 90q0 48 -28.5 75t-75.5 27h-91zM339 758l80 188h158l-136 -188
h-102z" />
    <glyph glyph-name="racute" unicode="&#x155;" horiz-adv-x="401" 
d="M242 426l-16 -93q49 102 134 102q36 0 54 -13l-39 -124q-26 19 -59 19q-42 0 -68 -26.5t-38 -95.5l-34 -195h-132l57 328h-66l17 98h190zM214 500l80 188h158l-136 -188h-102z" />
    <glyph glyph-name="Rcommaaccent" unicode="&#x156;" horiz-adv-x="649" 
d="M245 -283l48 99q-40 21 -40 68q0 31 22.5 52.5t52.5 21.5q31 0 53.5 -21t22.5 -52q0 -39 -33 -85l-62 -83h-64zM444 0l-114 247h-92l-25 -149h61l-17 -98h-248l16 98h53l85 484h-53l17 98h274q103 0 168.5 -53.5t65.5 -151.5q0 -74 -45 -129.5t-122 -81.5l81 -166h66
l-17 -98h-154zM259 348h102q59 0 95.5 33t36.5 90q0 48 -28.5 75t-75.5 27h-91z" />
    <glyph glyph-name="rcommaaccent" unicode="&#x157;" horiz-adv-x="401" 
d="M11 -283l48 99q-40 21 -40 68q0 31 22.5 52.5t52.5 21.5q31 0 53.5 -21t22.5 -52q0 -39 -33 -85l-62 -83h-64zM242 426l-16 -93q49 102 134 102q36 0 54 -13l-39 -124q-26 19 -59 19q-42 0 -68 -26.5t-38 -95.5l-34 -195h-132l57 328h-66l17 98h190z" />
    <glyph glyph-name="Rcaron" unicode="&#x158;" horiz-adv-x="649" 
d="M444 0l-114 247h-92l-25 -149h61l-17 -98h-248l16 98h53l85 484h-53l17 98h274q103 0 168.5 -53.5t65.5 -151.5q0 -74 -45 -129.5t-122 -81.5l81 -166h66l-17 -98h-154zM259 348h102q59 0 95.5 33t36.5 90q0 48 -28.5 75t-75.5 27h-91zM381 738l-117 217h102l43 -73
l67 73h109l-193 -217h-11z" />
    <glyph glyph-name="rcaron" unicode="&#x159;" horiz-adv-x="401" 
d="M242 426l-16 -93q49 102 134 102q36 0 54 -13l-39 -124q-26 19 -59 19q-42 0 -68 -26.5t-38 -95.5l-34 -195h-132l57 328h-66l17 98h190zM258 480l-117 217h102l43 -73l67 73h109l-193 -217h-11z" />
    <glyph glyph-name="Sacute" unicode="&#x15a;" horiz-adv-x="530" 
d="M554 680l-33 -187h-99q-17 88 -104 88q-39 0 -60 -19t-21 -47q0 -30 17.5 -49t69.5 -51l35 -22q78 -49 112 -93.5t34 -109.5q0 -90 -61 -144.5t-157 -54.5q-117 0 -170 72l-26 -63h-87l37 211h100q20 -112 131 -112q43 0 70.5 20.5t27.5 56.5q0 28 -23 51t-87 63l-43 27
q-111 70 -111 176q0 83 56.5 139t149.5 56q94 0 133 -61l21 53h88zM290 758l80 188h158l-136 -188h-102z" />
    <glyph glyph-name="sacute" unicode="&#x15b;" horiz-adv-x="442" 
d="M309 295q-20 53 -77 53q-49 0 -49 -30q0 -13 15 -22t60 -25q70 -25 101 -55.5t31 -81.5q0 -67 -44 -105.5t-123 -38.5q-83 0 -121 46l-17 -36h-78l26 143h90q16 -65 87 -65q54 0 54 33q0 16 -16 26t-71 30q-59 22 -87.5 53t-28.5 79q0 64 43.5 100.5t105.5 36.5
q78 0 109 -42l17 32h77l-22 -131h-82zM202 500l80 188h158l-136 -188h-102z" />
    <glyph glyph-name="Scircumflex" unicode="&#x15c;" horiz-adv-x="530" 
d="M554 680l-33 -187h-99q-17 88 -104 88q-39 0 -60 -19t-21 -47q0 -30 17.5 -49t69.5 -51l35 -22q78 -49 112 -93.5t34 -109.5q0 -90 -61 -144.5t-157 -54.5q-117 0 -170 72l-26 -63h-87l37 211h100q20 -112 131 -112q43 0 70.5 20.5t27.5 56.5q0 28 -23 51t-87 63l-43 27
q-111 70 -111 176q0 83 56.5 139t149.5 56q94 0 133 -61l21 53h88zM186 758l193 216h11l117 -216h-102l-43 72l-67 -72h-109z" />
    <glyph glyph-name="scircumflex" unicode="&#x15d;" horiz-adv-x="442" 
d="M309 295q-20 53 -77 53q-49 0 -49 -30q0 -13 15 -22t60 -25q70 -25 101 -55.5t31 -81.5q0 -67 -44 -105.5t-123 -38.5q-83 0 -121 46l-17 -36h-78l26 143h90q16 -65 87 -65q54 0 54 33q0 16 -16 26t-71 30q-59 22 -87.5 53t-28.5 79q0 64 43.5 100.5t105.5 36.5
q78 0 109 -42l17 32h77l-22 -131h-82zM101 500l193 216h11l117 -216h-102l-43 72l-67 -72h-109z" />
    <glyph glyph-name="Scedilla" unicode="&#x15e;" horiz-adv-x="530" 
d="M554 680l-33 -187h-99q-17 88 -104 88q-39 0 -60 -19t-21 -47q0 -30 17.5 -49t69.5 -51l35 -22q78 -49 112 -93.5t34 -109.5q0 -90 -61 -144.5t-157 -54.5q-13 0 -28 1l-6 -33q30 -5 52.5 -30t22.5 -64q0 -49 -32 -77t-77 -28q-86 0 -117 62l65 36q16 -28 44 -28
q38 0 38 36q0 37 -42 37h-35l18 104q-45 17 -73 56l-26 -63h-87l37 211h100q20 -112 131 -112q43 0 70.5 20.5t27.5 56.5q0 28 -23 51t-87 63l-43 27q-111 70 -111 176q0 83 56.5 139t149.5 56q94 0 133 -61l21 53h88z" />
    <glyph glyph-name="scedilla" unicode="&#x15f;" horiz-adv-x="442" 
d="M309 295q-20 53 -77 53q-49 0 -49 -30q0 -13 15 -22t60 -25q70 -25 101 -55.5t31 -81.5q0 -67 -44 -105.5t-123 -38.5h-11l-5 -31q30 -5 52.5 -30t22.5 -64q0 -49 -32 -77t-77 -28q-86 0 -117 62l65 36q16 -28 44 -28q38 0 38 36q0 37 -42 37h-35l17 101q-23 11 -41 32
l-17 -36h-78l26 143h90q16 -65 87 -65q54 0 54 33q0 16 -16 26t-71 30q-59 22 -87.5 53t-28.5 79q0 64 43.5 100.5t105.5 36.5q78 0 109 -42l17 32h77l-22 -131h-82z" />
    <glyph glyph-name="Scaron" unicode="&#x160;" horiz-adv-x="530" 
d="M554 680l-33 -187h-99q-17 88 -104 88q-39 0 -60 -19t-21 -47q0 -30 17.5 -49t69.5 -51l35 -22q78 -49 112 -93.5t34 -109.5q0 -90 -61 -144.5t-157 -54.5q-117 0 -170 72l-26 -63h-87l37 211h100q20 -112 131 -112q43 0 70.5 20.5t27.5 56.5q0 28 -23 51t-87 63l-43 27
q-111 70 -111 176q0 83 56.5 139t149.5 56q94 0 133 -61l21 53h88zM340 738l-117 217h102l43 -73l67 73h109l-193 -217h-11z" />
    <glyph glyph-name="scaron" unicode="&#x161;" horiz-adv-x="442" 
d="M309 295q-20 53 -77 53q-49 0 -49 -30q0 -13 15 -22t60 -25q70 -25 101 -55.5t31 -81.5q0 -67 -44 -105.5t-123 -38.5q-83 0 -121 46l-17 -36h-78l26 143h90q16 -65 87 -65q54 0 54 33q0 16 -16 26t-71 30q-59 22 -87.5 53t-28.5 79q0 64 43.5 100.5t105.5 36.5
q78 0 109 -42l17 32h77l-22 -131h-82zM241 480l-117 217h102l43 -73l67 73h109l-193 -217h-11z" />
    <glyph glyph-name="Tcommaaccent" unicode="&#x162;" horiz-adv-x="587" 
d="M166 481h-89l35 199h532l-35 -199h-89l1 92h-94l-83 -475h60l-17 -98h-256l17 98h60l83 475h-93zM162 -283l48 99q-40 21 -40 68q0 31 22.5 52.5t52.5 21.5q31 0 53.5 -21t22.5 -52q0 -39 -33 -85l-62 -83h-64z" />
    <glyph glyph-name="tcommaaccent" unicode="&#x163;" horiz-adv-x="357" 
d="M193 -9q-68 0 -105 39t-21 130l30 167h-62l17 99h62l27 152h131l-27 -152h103l-17 -99h-103l-30 -171q-12 -63 27 -63q17 0 42 15l44 -83q-46 -34 -118 -34zM53 -283l48 99q-40 21 -40 68q0 31 22.5 52.5t52.5 21.5q31 0 53.5 -21t22.5 -52q0 -39 -33 -85l-62 -83h-64z
" />
    <glyph glyph-name="Tcaron" unicode="&#x164;" horiz-adv-x="587" 
d="M166 481h-89l35 199h532l-35 -199h-89l1 92h-94l-83 -475h60l-17 -98h-256l17 98h60l83 475h-93zM369 738l-117 217h102l43 -73l67 73h109l-193 -217h-11z" />
    <glyph glyph-name="tcaron" unicode="&#x165;" horiz-adv-x="357" 
d="M310 481l45 100q-41 24 -41 71q0 31 22.5 53t53.5 22q32 0 54.5 -22t22.5 -56q0 -35 -34 -84l-59 -84h-64zM193 -9q-68 0 -105 39t-21 130l30 167h-62l17 99h62l27 152h131l-27 -152h103l-17 -99h-103l-30 -171q-12 -63 27 -63q17 0 42 15l44 -83q-46 -34 -118 -34z" />
    <glyph glyph-name="Umacron" unicode="&#x16a;" horiz-adv-x="682" 
d="M332 -9q-131 0 -200 75.5t-46 203.5l55 312h-52l17 98h247l-17 -98h-54l-59 -329q-13 -73 18 -112.5t101 -39.5q63 0 96.5 32.5t45.5 100.5l62 348h-53l17 98h232l-17 -98h-51l-63 -358q-42 -233 -279 -233zM316 787l17 96h243l-17 -96h-243z" />
    <glyph glyph-name="umacron" unicode="&#x16b;" horiz-adv-x="569" 
d="M529 426l-53 -305q-4 -23 18 -23h30l-17 -98h-50q-67 0 -88 15t-27 54l-1 7q-56 -85 -141 -85q-70 0 -106.5 55t-22.5 138l25 144h-66l17 98h198l-43 -242q-7 -42 9.5 -64t51.5 -22q77 0 94 97l25 138h-78l15 93h210zM193 529l17 96h243l-17 -96h-243z" />
    <glyph glyph-name="Ubreve" unicode="&#x16c;" horiz-adv-x="682" 
d="M332 -9q-131 0 -200 75.5t-46 203.5l55 312h-52l17 98h247l-17 -98h-54l-59 -329q-13 -73 18 -112.5t101 -39.5q63 0 96.5 32.5t45.5 100.5l62 348h-53l17 98h232l-17 -98h-51l-63 -358q-42 -233 -279 -233zM441 758q-69 0 -110 39t-44 101l101 15q5 -57 54 -57
q48 0 60 57l99 -15q-9 -62 -51 -101t-109 -39z" />
    <glyph glyph-name="ubreve" unicode="&#x16d;" horiz-adv-x="569" 
d="M529 426l-53 -305q-4 -23 18 -23h30l-17 -98h-50q-67 0 -88 15t-27 54l-1 7q-56 -85 -141 -85q-70 0 -106.5 55t-22.5 138l25 144h-66l17 98h198l-43 -242q-7 -42 9.5 -64t51.5 -22q77 0 94 97l25 138h-78l15 93h210zM315 500q-69 0 -110 39t-44 101l101 15q5 -57 54 -57
q48 0 60 57l99 -15q-9 -62 -51 -101t-109 -39z" />
    <glyph glyph-name="Uring" unicode="&#x16e;" horiz-adv-x="682" 
d="M332 -9q-131 0 -200 75.5t-46 203.5l55 312h-52l17 98h247l-17 -98h-54l-59 -329q-13 -73 18 -112.5t101 -39.5q63 0 96.5 32.5t45.5 100.5l62 348h-53l17 98h232l-17 -98h-51l-63 -358q-42 -233 -279 -233zM445 732q-54 0 -90 35t-36 84t36 84t90 35t90 -35t36 -84
t-36 -84t-90 -35zM445 799q20 0 33.5 14t13.5 38t-13.5 38t-33.5 14t-33.5 -14t-13.5 -38t13.5 -38t33.5 -14z" />
    <glyph glyph-name="uring" unicode="&#x16f;" horiz-adv-x="569" 
d="M529 426l-53 -305q-4 -23 18 -23h30l-17 -98h-50q-67 0 -88 15t-27 54l-1 7q-56 -85 -141 -85q-70 0 -106.5 55t-22.5 138l25 144h-66l17 98h198l-43 -242q-7 -42 9.5 -64t51.5 -22q77 0 94 97l25 138h-78l15 93h210zM318 474q-54 0 -90 35t-36 84t36 84t90 35t90 -35
t36 -84t-36 -84t-90 -35zM318 541q20 0 33.5 14t13.5 38t-13.5 38t-33.5 14t-33.5 -14t-13.5 -38t13.5 -38t33.5 -14z" />
    <glyph glyph-name="Uhungarumlaut" unicode="&#x170;" horiz-adv-x="682" 
d="M332 -9q-131 0 -200 75.5t-46 203.5l55 312h-52l17 98h247l-17 -98h-54l-59 -329q-13 -73 18 -112.5t101 -39.5q63 0 96.5 32.5t45.5 100.5l62 348h-53l17 98h232l-17 -98h-51l-63 -358q-42 -233 -279 -233zM475 758l86 188h138l-122 -188h-102zM294 758l86 188h138
l-122 -188h-102z" />
    <glyph glyph-name="uhungarumlaut" unicode="&#x171;" horiz-adv-x="569" 
d="M529 426l-53 -305q-4 -23 18 -23h30l-17 -98h-50q-67 0 -88 15t-27 54l-1 7q-56 -85 -141 -85q-70 0 -106.5 55t-22.5 138l25 144h-66l17 98h198l-43 -242q-7 -42 9.5 -64t51.5 -22q77 0 94 97l25 138h-78l15 93h210zM346 500l86 188h138l-122 -188h-102zM165 500l86 188
h138l-122 -188h-102z" />
    <glyph glyph-name="Uogonek" unicode="&#x172;" horiz-adv-x="682" 
d="M313 -220q-49 0 -80.5 25t-31.5 71q0 60 76 119q-106 15 -159 88t-32 187l55 312h-52l17 98h247l-17 -98h-54l-59 -329q-13 -73 18 -112.5t101 -39.5q63 0 96.5 32.5t45.5 100.5l62 348h-53l17 98h232l-17 -98h-51l-63 -358q-37 -207 -231 -230q-74 -75 -74 -103
q0 -22 23 -22q18 0 31 17l64 -51q-39 -55 -111 -55z" />
    <glyph glyph-name="uogonek" unicode="&#x173;" horiz-adv-x="569" 
d="M529 426l-53 -305q-4 -23 18 -23h30l-17 -98h-40q-80 -81 -80 -109q0 -22 23 -22q18 0 31 17l64 -51q-39 -55 -111 -55q-49 0 -80.5 25t-31.5 71q0 64 97 134q-31 12 -37 59l-1 7q-56 -85 -141 -85q-70 0 -106.5 55t-22.5 138l25 144h-66l17 98h198l-43 -242
q-7 -42 9.5 -64t51.5 -22q77 0 94 97l25 138h-78l15 93h210z" />
    <glyph glyph-name="Ydieresis" unicode="&#x178;" horiz-adv-x="655" 
d="M714 680l-17 -98h-44l-257 -345l-24 -139h60l-17 -98h-256l17 98h60l27 156l-120 328h-50l17 98h257l-17 -98h-61l45 -134q8 -24 27 -100q6 19 58 94l98 140h-67l17 98h247zM540 766q-28 0 -50.5 22t-22.5 52t22.5 52t50.5 22q29 0 50.5 -22t21.5 -52t-21.5 -52
t-50.5 -22zM330 766q-28 0 -50 22t-22 52t22 52t50 22q29 0 51 -22t22 -52t-22 -52t-51 -22z" />
    <glyph glyph-name="Zacute" unicode="&#x179;" horiz-adv-x="586" 
d="M514 0h-515l12 69l425 511h-197l-35 -96h-101l34 196h497l-12 -67l-430 -513h221l35 101h101zM325 758l80 188h158l-136 -188h-102z" />
    <glyph glyph-name="zacute" unicode="&#x17a;" horiz-adv-x="483" 
d="M8 0l11 68l264 263h-117l-22 -65h-81l28 160h388l-13 -71l-267 -264h127l24 68h86l-28 -159h-400zM234 500l80 188h158l-136 -188h-102z" />
    <glyph glyph-name="Zdotaccent" unicode="&#x17b;" horiz-adv-x="586" 
d="M514 0h-515l12 69l425 511h-197l-35 -96h-101l34 196h497l-12 -67l-430 -513h221l35 101h101zM394 756q-28 0 -50 22t-22 52t22 52t50 22q29 0 51 -22t22 -52t-22 -52t-51 -22z" />
    <glyph glyph-name="zdotaccent" unicode="&#x17c;" horiz-adv-x="483" 
d="M8 0l11 68l264 263h-117l-22 -65h-81l28 160h388l-13 -71l-267 -264h127l24 68h86l-28 -159h-400zM305 508q-28 0 -50 22t-22 52t22 52t50 22q29 0 51 -22t22 -52t-22 -52t-51 -22z" />
    <glyph glyph-name="Zcaron" unicode="&#x17d;" horiz-adv-x="586" 
d="M514 0h-515l12 69l425 511h-197l-35 -96h-101l34 196h497l-12 -67l-430 -513h221l35 101h101zM374 738l-117 217h102l43 -73l67 73h109l-193 -217h-11z" />
    <glyph glyph-name="zcaron" unicode="&#x17e;" horiz-adv-x="483" 
d="M8 0l11 68l264 263h-117l-22 -65h-81l28 160h388l-13 -71l-267 -264h127l24 68h86l-28 -159h-400zM283 480l-117 217h102l43 -73l67 73h109l-193 -217h-11z" />
    <glyph glyph-name="florin" unicode="&#x192;" horiz-adv-x="400" 
d="M110 183h-70l19 106h70l32 183q26 146 159 146q86 0 132 -65l-82 -60q-16 24 -41 24q-32 0 -39 -43l-32 -185h105l-19 -106h-105l-69 -395h-129z" />
    <glyph glyph-name="Scommaaccent" unicode="&#x218;" horiz-adv-x="530" 
d="M554 680l-33 -187h-99q-17 88 -104 88q-39 0 -60 -19t-21 -47q0 -30 17.5 -49t69.5 -51l35 -22q78 -49 112 -93.5t34 -109.5q0 -90 -61 -144.5t-157 -54.5q-117 0 -170 72l-26 -63h-87l37 211h100q20 -112 131 -112q43 0 70.5 20.5t27.5 56.5q0 28 -23 51t-87 63l-43 27
q-111 70 -111 176q0 83 56.5 139t149.5 56q94 0 133 -61l21 53h88zM128 -283l48 99q-40 21 -40 68q0 31 22.5 52.5t52.5 21.5q31 0 53.5 -21t22.5 -52q0 -39 -33 -85l-62 -83h-64z" />
    <glyph glyph-name="scommaaccent" unicode="&#x219;" horiz-adv-x="442" 
d="M76 -283l48 99q-40 21 -40 68q0 31 22.5 52.5t52.5 21.5q31 0 53.5 -21t22.5 -52q0 -39 -33 -85l-62 -83h-64zM309 295q-20 53 -77 53q-49 0 -49 -30q0 -13 15 -22t60 -25q70 -25 101 -55.5t31 -81.5q0 -67 -44 -105.5t-123 -38.5q-83 0 -121 46l-17 -36h-78l26 143h90
q16 -65 87 -65q54 0 54 33q0 16 -16 26t-71 30q-59 22 -87.5 53t-28.5 79q0 64 43.5 100.5t105.5 36.5q78 0 109 -42l17 32h77l-22 -131h-82z" />
    <glyph glyph-name="uni021A" unicode="&#x21a;" horiz-adv-x="587" 
d="M253 -240q-86 0 -117 62l65 36q16 -28 44 -28q38 0 38 36q0 37 -42 37h-35l17 97h-92l17 98h60l83 475h-93l-32 -92h-89l35 199h532l-35 -199h-89l1 92h-94l-83 -475h60l-17 -98h-93l-7 -41q30 -5 52.5 -30t22.5 -64q0 -49 -32 -77t-77 -28z" />
    <glyph glyph-name="uni021B" unicode="&#x21b;" horiz-adv-x="357" 
d="M193 -9h-9l-5 -32q30 -5 52.5 -30t22.5 -64q0 -49 -32 -77t-77 -28q-86 0 -117 62l65 36q16 -28 44 -28q38 0 38 36q0 37 -42 37h-35l18 104q-69 38 -49 153l30 167h-62l17 99h62l27 152h131l-27 -152h103l-17 -99h-103l-30 -171q-12 -63 27 -63q17 0 42 15l44 -83
q-46 -34 -118 -34z" />
    <glyph glyph-name="uni0237" unicode="&#x237;" horiz-adv-x="274" 
d="M34 -80l71 408h-66l17 98h199l-87 -494q-27 -154 -158 -154q-77 0 -120 48l65 77q20 -20 41 -20q31 0 38 37z" />
    <glyph glyph-name="circumflex" unicode="&#x2c6;" horiz-adv-x="490" 
d="M136 500l193 216h11l117 -216h-102l-43 72l-67 -72h-109z" />
    <glyph glyph-name="caron" unicode="&#x2c7;" horiz-adv-x="490" 
d="M288 480l-117 217h102l43 -73l67 73h109l-193 -217h-11z" />
    <glyph glyph-name="breve" unicode="&#x2d8;" horiz-adv-x="490" 
d="M287 500q-69 0 -110 39t-44 101l101 15q5 -57 54 -57q48 0 60 57l99 -15q-9 -62 -51 -101t-109 -39z" />
    <glyph glyph-name="dotaccent" unicode="&#x2d9;" horiz-adv-x="490" 
d="M311 508q-28 0 -50 22t-22 52t22 52t50 22q29 0 51 -22t22 -52t-22 -52t-51 -22z" />
    <glyph glyph-name="ring" unicode="&#x2da;" horiz-adv-x="490" 
d="M314 474q-54 0 -90 35t-36 84t36 84t90 35t90 -35t36 -84t-36 -84t-90 -35zM314 541q20 0 33.5 14t13.5 38t-13.5 38t-33.5 14t-33.5 -14t-13.5 -38t13.5 -38t33.5 -14z" />
    <glyph glyph-name="ogonek" unicode="&#x2db;" horiz-adv-x="490" 
d="M202 -220q-49 0 -80.5 25t-31.5 71q0 61 83 124h102q-80 -81 -80 -109q0 -22 23 -22q18 0 31 17l64 -51q-39 -55 -111 -55z" />
    <glyph glyph-name="tilde" unicode="&#x2dc;" horiz-adv-x="490" 
d="M224 500l-87 9q9 68 40 104t74 36q34 0 63 -20q5 -4 13.5 -10t12.5 -8.5t9 -4.5t10 -2q23 0 31 45l87 -9q-7 -68 -38.5 -104t-75.5 -36q-34 0 -63 20q-6 4 -14 9.5t-11.5 8.5t-9 5t-10.5 2q-23 0 -31 -45z" />
    <glyph glyph-name="hungarumlaut" unicode="&#x2dd;" horiz-adv-x="490" 
d="M310 500l86 188h138l-122 -188h-102zM129 500l86 188h138l-122 -188h-102z" />
    <glyph glyph-name="uni2009" unicode="&#x2009;" horiz-adv-x="105" 
 />
    <glyph glyph-name="endash" unicode="&#x2013;" horiz-adv-x="398" 
d="M25 179l17 96h339l-17 -96h-339z" />
    <glyph glyph-name="emdash" unicode="&#x2014;" horiz-adv-x="644" 
d="M25 179l17 96h585l-17 -96h-585z" />
    <glyph glyph-name="quoteleft" unicode="&#x2018;" horiz-adv-x="239" 
d="M170 412q-32 0 -54.5 22.5t-22.5 56.5q0 36 33 83l74 106h64l-59 -120q42 -24 42 -71q0 -33 -22.5 -55t-54.5 -22z" />
    <glyph glyph-name="quoteright" unicode="&#x2019;" horiz-adv-x="239" 
d="M97 420l59 120q-42 24 -42 71q0 33 22.5 55t54.5 22t54.5 -22.5t22.5 -56.5q0 -36 -33 -83l-74 -106h-64z" />
    <glyph glyph-name="quotesinglbase" unicode="&#x201a;" horiz-adv-x="239" 
d="M5 -103l59 120q-42 24 -42 71q0 33 22.5 55t54.5 22t54.5 -22.5t22.5 -56.5q0 -36 -33 -83l-74 -106h-64z" />
    <glyph glyph-name="quotedblleft" unicode="&#x201c;" horiz-adv-x="452" 
d="M382 412q-32 0 -54.5 22.5t-22.5 56.5q0 36 33 83l74 106h64l-59 -120q42 -24 42 -71q0 -33 -22.5 -55t-54.5 -22zM170 412q-32 0 -54.5 22.5t-22.5 56.5q0 36 33 83l74 106h64l-59 -120q42 -24 42 -71q0 -33 -22.5 -55t-54.5 -22z" />
    <glyph glyph-name="quotedblright" unicode="&#x201d;" horiz-adv-x="451" 
d="M309 420l59 120q-42 24 -42 71q0 33 22.5 55t54.5 22t54.5 -22.5t22.5 -56.5q0 -36 -33 -83l-74 -106h-64zM97 420l59 120q-42 24 -42 71q0 33 22.5 55t54.5 22t54.5 -22.5t22.5 -56.5q0 -36 -33 -83l-74 -106h-64z" />
    <glyph glyph-name="quotedblbase" unicode="&#x201e;" horiz-adv-x="451" 
d="M217 -103l59 120q-42 24 -42 71q0 33 22.5 55t54.5 22t54.5 -22.5t22.5 -56.5q0 -36 -33 -83l-74 -106h-64zM5 -103l59 120q-42 24 -42 71q0 33 22.5 55t54.5 22t54.5 -22.5t22.5 -56.5q0 -36 -33 -83l-74 -106h-64z" />
    <glyph glyph-name="dagger" unicode="&#x2020;" horiz-adv-x="369" 
d="M136 241l42 240h-88l15 92h89l19 107h113l-19 -107h87l-15 -92h-88l-42 -240h-113z" />
    <glyph glyph-name="daggerdbl" unicode="&#x2021;" horiz-adv-x="369" 
d="M355 341h-89l-17 -100h-113l17 100h-87l15 92h88l10 55h-88l15 92h89l18 100h113l-18 -100h87l-15 -92h-88l-10 -55h88z" />
    <glyph glyph-name="bullet" unicode="&#x2022;" horiz-adv-x="268" 
d="M144 170q-42 0 -73 31.5t-31 76.5q0 46 31 77t73 31q43 0 74.5 -31t31.5 -77q0 -45 -31.5 -76.5t-74.5 -31.5z" />
    <glyph glyph-name="ellipsis" unicode="&#x2026;" horiz-adv-x="714" 
d="M572 -6q-34 0 -57.5 23.5t-23.5 59.5q0 35 23.5 59t57.5 24t57.5 -24t23.5 -59q0 -36 -23.5 -59.5t-57.5 -23.5zM335 -6q-34 0 -57.5 23.5t-23.5 59.5q0 35 24 59t57 24t57 -24t24 -59q0 -36 -23.5 -59.5t-57.5 -23.5zM98 -6q-34 0 -57.5 23.5t-23.5 59.5q0 35 23.5 59
t57.5 24t57.5 -24t23.5 -59q0 -36 -23.5 -59.5t-57.5 -23.5z" />
    <glyph glyph-name="perthousand" unicode="&#x2030;" horiz-adv-x="1201" 
d="M213 227q-67 0 -110 43t-43 105q0 68 46 112t112 44q67 0 110 -41.5t43 -103.5q0 -69 -46 -114t-112 -45zM170 0l419 522h107l-419 -522h-107zM648 0q-67 0 -110 43t-43 105q0 68 46 112t112 44q67 0 110 -41.5t43 -103.5q0 -69 -46 -114t-112 -45zM213 312
q23 0 38.5 19.5t15.5 50.5q0 63 -48 63q-24 0 -39.5 -18.5t-15.5 -50.5q0 -30 13.5 -47t35.5 -17zM648 85q24 0 39 19.5t15 50.5q0 63 -47 63q-24 0 -40 -18.5t-16 -50.5q0 -30 13.5 -47t35.5 -17zM1003 0q-67 0 -110 43t-43 105q0 68 46 112t112 44q67 0 110 -41.5
t43 -103.5q0 -69 -46 -114t-112 -45zM1003 85q24 0 39 19.5t15 50.5q0 63 -47 63q-24 0 -40 -18.5t-16 -50.5q0 -30 13.5 -47t35.5 -17z" />
    <glyph glyph-name="guilsinglleft" unicode="&#x2039;" horiz-adv-x="301" 
d="M114 32l-72 164v8l123 169h130l-128 -175l73 -166h-126z" />
    <glyph glyph-name="guilsinglright" unicode="&#x203a;" horiz-adv-x="301" 
d="M17 32l128 175l-73 166h126l72 -164v-8l-123 -169h-130z" />
    <glyph glyph-name="fraction" unicode="&#x2044;" horiz-adv-x="522" 
d="M-45 0l519 680h141l-519 -680h-141z" />
    <glyph glyph-name="Euro" unicode="&#x20ac;" horiz-adv-x="592" 
d="M367 172h-122q11 -38 43 -57.5t72 -19.5q61 0 108 54l89 -70q-70 -88 -197 -88q-89 0 -158 49.5t-91 131.5h-86l11 67h66q0 27 3 51h-60l11 67h64q28 78 97 126t148 48q75 0 121 -46l21 37h85l-29 -167h-97q-14 37 -35.5 55t-59.5 18q-39 0 -70.5 -19t-46.5 -52h144
l-11 -67h-152q-3 -22 -3 -51h146z" />
    <glyph glyph-name="trademark" unicode="&#x2122;" horiz-adv-x="716" 
d="M590 378l9 53h25l14 78l15 59l-97 -121h-22l-57 120q-1 -32 -6 -59l-14 -77h26l-9 -53h-115l9 53h31l34 192h-31l10 57h84l65 -143l119 143h96l-10 -57h-31l-34 -192h31l-9 -53h-133zM311 567l3 52h-37l-33 -188h40l-9 -53h-162l9 53h42l33 188h-37l-15 -52h-50l20 113
h266l-20 -113h-50z" />
    <glyph glyph-name="summation" unicode="&#x2211;" horiz-adv-x="612" 
d="M5 0l16 87l284 260l-197 250l14 83h511l-35 -188h-98l-5 81h-139q-23 0 -45 1.5t-33 3.5l-10 1q28 -29 60 -70l119 -154l-8 -37l-166 -154q-20 -19 -39.5 -35t-29.5 -23l-9 -6q59 7 109 7h129l25 81h104l-34 -188h-523z" />
    <glyph glyph-name="minus" unicode="&#x2212;" horiz-adv-x="403" 
d="M367 217h-326l18 102h326z" />
    <glyph glyph-name="space_uni0326" horiz-adv-x="500" 
d="M108 -283l48 99q-40 21 -40 68q0 31 22.5 52.5t52.5 21.5q31 0 53.5 -21t22.5 -52q0 -39 -33 -85l-62 -83h-64z" />
    <glyph glyph-name="idotaccent" horiz-adv-x="290" 
d="M213 500q-34 0 -58 23t-24 59q0 35 23.5 58t57.5 23t58.5 -23t24.5 -58q0 -36 -24 -59t-58 -23zM252 426l-54 -305q-4 -23 19 -23h29l-17 -98h-50q-75 0 -100 25t-13 98l36 205h-67l17 98h200z" />
    <glyph glyph-name="space.lining" horiz-adv-x="206" 
 />
    <glyph glyph-name="dollar.lining" horiz-adv-x="533" 
d="M549 680l-33 -187h-94q-11 54 -57 77l-30 -168l11 -6q85 -45 119.5 -90.5t34.5 -115.5q0 -91 -63 -145t-169 -54h-6l-19 -107h-63l20 116q-61 16 -94 63l-26 -63h-87l37 211h94q15 -88 95 -108l33 190l-37 20q-119 65 -119 180q0 84 57 139.5t153 55.5q11 0 17 -1l15 86
h63l-18 -100q37 -16 57 -46l21 53h88zM368 178q0 26 -13.5 44.5t-44.5 38.5l-29 -162q87 8 87 79zM225 513q0 -28 10.5 -45t41.5 -36l27 150q-38 -1 -58.5 -21t-20.5 -48z" />
    <glyph glyph-name="cent.lining" horiz-adv-x="464" 
d="M232 -116h-63l20 114q-70 16 -112 69t-42 131q0 108 63.5 172.5t155.5 64.5h12l19 106h63l-22 -122q21 -11 37 -34l18 41h83l-26 -156h-91q-9 39 -37 55l-42 -234q52 3 82 41l71 -79q-62 -61 -170 -62zM164 201q0 -71 44 -97l40 230q-39 -7 -61.5 -44.5t-22.5 -88.5z" />
    <glyph glyph-name="Euro.lining" horiz-adv-x="653" 
d="M425 688q55 0 89 -23.5t48 -50.5l24 66h93l-35 -203h-101q-7 42 -37.5 71t-74.5 29q-55 0 -93.5 -34t-58.5 -91h192l-17 -84h-200q-5 -32 -6 -60h197l-16 -84h-172q4 -56 38.5 -88t78.5 -32q47 0 79.5 22t65.5 70l102 -64q-46 -71 -106.5 -106t-146.5 -35
q-101 0 -171.5 64t-80.5 169h-83l16 84h60q0 20 5 60h-57l17 84h60q33 109 113 172.5t178 63.5z" />
    <glyph glyph-name="sterling.lining" horiz-adv-x="625" 
d="M395 582q-44 0 -70.5 -30t-26.5 -87q0 -13 2.5 -30.5t7 -40t5.5 -31.5h187l-16 -89h-158q5 -58 5 -69q0 -41 -14 -73q49 -32 88 -32q36 0 58 13.5t45 40.5l81 -76q-37 -45 -77 -66t-98 -21q-83 0 -144 59q-50 -59 -134 -59q-56 0 -94.5 33t-38.5 80q0 52 38 83.5t90 31.5
q42 0 76 -21v8q0 20 -11 68h-99l16 89h62q-16 83 -16 106q0 97 62 158t157 61q85 0 130 -56l20 48h90l-34 -197h-97q-14 99 -92 99zM195 115q-31 26 -60 26q-41 0 -41 -36q0 -14 10.5 -24.5t29.5 -10.5q42 0 61 45z" />
    <glyph glyph-name="yen.lining" horiz-adv-x="657" 
d="M67 234h198l4 20l-13 34h-180l15 84h134l-77 210h-50l17 98h248l-17 -98h-63l37 -107q8 -24 16 -59t12 -58l5 -23q43 81 77 132l77 115h-72l17 98h252l-17 -98h-53l-146 -210h133l-15 -84h-177l-24 -35l-4 -19h196l-15 -84h-196l-9 -52h59l-17 -98h-254l17 98h59l9 52
h-198z" />
    <glyph glyph-name="florin.lining" horiz-adv-x="400" 
d="M116 219h-70l20 105h69l37 211q27 153 167 153q69 0 118 -58l-75 -68q-16 24 -38 24q-35 0 -42 -43l-38 -219h106l-20 -105h-105l-75 -431h-129z" />
    <glyph glyph-name="zero.lining" horiz-adv-x="682" 
d="M340 -9q-121 0 -197 82t-76 220q0 171 95.5 283.5t231.5 112.5q121 0 197 -82t76 -220q0 -171 -94.5 -283.5t-232.5 -112.5zM348 107q79 0 127.5 84t48.5 206q0 85 -35.5 131.5t-100.5 46.5q-77 0 -127.5 -85.5t-50.5 -205.5q0 -85 36.5 -131t101.5 -46z" />
    <glyph glyph-name="one.lining" horiz-adv-x="406" 
d="M22 98h101l85 479h-109l18 103h246l-103 -582h97l-16 -98h-336z" />
    <glyph glyph-name="two.lining" horiz-adv-x="559" 
d="M-15 0l13 75l288 243q43 36 59.5 50.5t39 38t30 42.5t7.5 41q0 37 -21 59.5t-65 22.5q-90 0 -119 -116l-136 25q23 107 93.5 157.5t167.5 50.5q102 0 163.5 -54.5t61.5 -139.5q0 -46 -27.5 -91.5t-62.5 -78t-93 -76.5l-121 -97q-32 -25 -67 -42l27 2q27 3 39 3h149l28 79
h90l-35 -194h-509z" />
    <glyph glyph-name="three.lining" horiz-adv-x="554" 
d="M85 508l30 172h468l-5 -28l-170 -183q-32 -35 -53 -40q66 -9 118.5 -61t52.5 -138q0 -105 -74.5 -172t-190.5 -67q-101 0 -167 43.5t-94 116.5l122 56q41 -105 135 -105q59 0 92 37t33 89t-31.5 80t-84.5 28q-48 0 -83 -22l-27 39l164 170q10 10 23.5 22.5t23.5 20.5
t11 9l-13 -1q-13 -1 -30 -2t-27 -1h-108l-26 -63h-89z" />
    <glyph glyph-name="four.lining" horiz-adv-x="590" 
d="M245 95h77l12 65h-314l18 98l423 422h98l-74 -414h87l-19 -106h-87l-11 -65h75l-19 -95h-285zM352 262l25 144q1 5 21 86q-39 -52 -60 -73l-108 -111q-9 -9 -64 -53q35 7 77 7h109z" />
    <glyph glyph-name="five.lining" horiz-adv-x="556" 
d="M447 516l-6 47h-191l-25 -135q34 18 86 18q100 0 160 -59t60 -155q0 -106 -73 -173.5t-191 -67.5q-96 0 -165.5 43.5t-97.5 116.5l119 59q48 -105 144 -105q56 0 90 33t34 89q0 50 -34 79.5t-95 29.5q-83 0 -151 -57l-25 11l68 390h413l-29 -164h-91z" />
    <glyph glyph-name="six.lining" horiz-adv-x="584" 
d="M289 -9q-107 0 -177 67.5t-70 166.5q0 101 84 202l211 253h155l-129 -159q-12 -15 -30 -32t-29 -27l-12 -9q32 8 54 8q91 0 150.5 -62.5t59.5 -157.5q0 -110 -74.5 -180t-192.5 -70zM289 103q56 0 90.5 40t34.5 96t-27.5 89.5t-81.5 33.5q-56 0 -91 -39t-35 -92t28 -90.5
t82 -37.5z" />
    <glyph glyph-name="seven.lining" 
d="M58 507l30 173h492l-12 -67l-369 -613h-147l348 569h-228l-25 -62h-89z" />
    <glyph glyph-name="eight.lining" horiz-adv-x="580" 
d="M285 -9q-113 0 -178.5 55.5t-65.5 141.5q0 137 148 188q-28 17 -45 50.5t-17 70.5q0 82 66 136.5t157 54.5q89 0 146 -46.5t57 -121.5q0 -46 -27 -90.5t-76 -63.5q97 -50 97 -147q0 -98 -73 -163t-189 -65zM285 96q51 0 86 36t37 88q2 47 -26.5 76.5t-76.5 29.5
q-54 0 -88 -35t-36 -89q-2 -45 27.5 -75.5t76.5 -30.5zM333 420q38 0 61 24.5t24 63.5q1 35 -19 55.5t-52 20.5q-39 0 -62.5 -24t-23.5 -63q0 -34 19.5 -55.5t52.5 -21.5z" />
    <glyph glyph-name="nine.lining" horiz-adv-x="583" 
d="M134 0l128 152q36 43 73 71q-20 -5 -44 -5q-93 0 -153.5 62.5t-60.5 157.5q0 109 76.5 179.5t190.5 70.5q110 0 178.5 -65.5t68.5 -168.5q0 -100 -86 -202l-215 -252h-156zM328 319q54 0 89 39t35 93t-29 90t-83 36q-56 0 -89.5 -39.5t-33.5 -94.5q0 -56 28.5 -90
t82.5 -34z" />
    <glyph glyph-name="percent.lining" horiz-adv-x="928" 
d="M257 333q-75 0 -126 49.5t-51 125.5q0 79 56 129.5t132 50.5q75 0 127 -50t52 -125q0 -79 -56.5 -129.5t-133.5 -50.5zM165 0l529 680h117l-529 -680h-117zM260 427q31 0 51.5 21.5t20.5 62.5q0 39 -18.5 60t-47.5 21q-30 0 -50.5 -22t-20.5 -62q0 -39 17.5 -60t47.5 -21
zM706 -9q-75 0 -126 49.5t-51 125.5q0 79 56 129.5t132 50.5q75 0 127 -50t52 -125q0 -79 -56.5 -129.5t-133.5 -50.5zM709 85q31 0 51.5 21.5t20.5 62.5q0 39 -18.5 60t-47.5 21q-30 0 -50.5 -22t-20.5 -62q0 -39 17.5 -60t47.5 -21z" />
    <glyph glyph-name="perthousand.lining" horiz-adv-x="1345" 
d="M257 333q-75 0 -126 49.5t-51 125.5q0 79 56 129.5t132 50.5q75 0 127 -50t52 -125q0 -79 -56.5 -129.5t-133.5 -50.5zM165 0l529 680h117l-529 -680h-117zM260 427q31 0 51.5 21.5t20.5 62.5q0 39 -18.5 60t-47.5 21q-30 0 -50.5 -22t-20.5 -62q0 -39 17.5 -60t47.5 -21
zM706 -9q-75 0 -126 49.5t-51 125.5q0 79 56 129.5t132 50.5q75 0 127 -50t52 -125q0 -79 -56.5 -129.5t-133.5 -50.5zM709 85q31 0 51.5 21.5t20.5 62.5q0 39 -18.5 60t-47.5 21q-30 0 -50.5 -22t-20.5 -62q0 -39 17.5 -60t47.5 -21zM1123 -9q-75 0 -126 49.5t-51 125.5
q0 79 56 129.5t132 50.5q75 0 127 -50t52 -125q0 -79 -56.5 -129.5t-133.5 -50.5zM1126 85q31 0 51.5 21.5t20.5 62.5q0 39 -18.5 60t-47.5 21q-30 0 -50.5 -22t-20.5 -62q0 -39 17.5 -60t47.5 -21z" />
    <glyph glyph-name="plus.lining" horiz-adv-x="436" 
d="M284 264l-25 -137h-112l25 137h-123l18 105h123l24 136h112l-24 -136h125l-18 -105h-125z" />
    <glyph glyph-name="minus.lining" horiz-adv-x="436" 
d="M409 264h-360l18 105h360z" />
    <glyph glyph-name="multiply.lining" horiz-adv-x="450" 
d="M325 301l92 -109l-86 -74l-92 108l-126 -108l-71 82l127 109l-92 109l88 74l91 -109l127 109l70 -82z" />
    <glyph glyph-name="divide.lining" horiz-adv-x="436" 
d="M272 424q-33 0 -56.5 23.5t-23.5 58.5t23.5 58t56.5 23t56.5 -23t23.5 -58t-23.5 -58.5t-56.5 -23.5zM205 46q-33 0 -56.5 23.5t-23.5 58.5t23.5 58t56.5 23t56.5 -23t23.5 -58t-23.5 -58.5t-56.5 -23.5zM409 264h-360l18 105h360z" />
    <glyph glyph-name="equal.lining" horiz-adv-x="432" 
d="M58 333l19 109h362l-19 -109h-362zM26 155l21 109h362l-21 -109h-362z" />
    <glyph glyph-name="less.lining" horiz-adv-x="386" 
d="M336 122l-295 189v10l362 183l-22 -125l-154 -71l128 -73z" />
    <glyph glyph-name="greater.lining" horiz-adv-x="386" 
d="M22 122l22 125l154 71l-128 73l19 113l295 -189v-10z" />
    <glyph glyph-name="degree.lining" horiz-adv-x="363" 
d="M223 393q-62 0 -105.5 43t-43.5 103q0 63 46 106t109 43q62 0 106 -41.5t44 -100.5q0 -65 -46 -109t-110 -44zM224 471q27 0 44 20t17 52q0 30 -16 48.5t-41 18.5q-26 0 -43 -20t-17 -52q0 -29 15.5 -48t40.5 -19z" />
    <glyph glyph-name="period.lining" horiz-adv-x="240" 
d="M98 -6q-34 0 -57.5 23.5t-23.5 59.5q0 35 23.5 59t57.5 24t57.5 -24t23.5 -59q0 -36 -23.5 -59.5t-57.5 -23.5z" />
    <glyph glyph-name="comma.lining" horiz-adv-x="240" 
d="M-1 -114l62 119q-44 24 -44 74q0 34 23.5 57.5t57.5 23.5t57.5 -24t23.5 -59q0 -36 -35 -83l-79 -108h-66z" />
    <glyph glyph-name="colon.lining" horiz-adv-x="246" 
d="M141 226q-34 0 -57.5 23.5t-23.5 59.5q0 35 24 59t57 24t57 -24t24 -59q0 -36 -23.5 -59.5t-57.5 -23.5zM101 -6q-34 0 -57.5 23.5t-23.5 59.5q0 35 24 59t57 24t57 -24t24 -59q0 -36 -23.5 -59.5t-57.5 -23.5z" />
    <glyph glyph-name="semicolon.lining" horiz-adv-x="246" 
d="M141 226q-34 0 -57.5 23.5t-23.5 59.5q0 35 24 59t57 24t57 -24t24 -59q0 -36 -23.5 -59.5t-57.5 -23.5zM2 -114l62 119q-44 24 -44 74q0 34 23.5 57.5t57.5 23.5q33 0 57 -24t24 -59q0 -36 -35 -83l-79 -108h-66z" />
    <glyph glyph-name="parenleft.lining" horiz-adv-x="337" 
d="M179 -133q-50 65 -83.5 154.5t-33.5 190.5q0 97 23.5 180t65.5 144.5t82 102t92 80.5l62 -71q-196 -179 -196 -438q0 -151 76 -289z" />
    <glyph glyph-name="parenright.lining" horiz-adv-x="327" 
d="M45 -133l-64 71q195 178 195 438q0 153 -75 289l88 54q50 -64 82.5 -153.5t32.5 -191.5q0 -79 -16.5 -149.5t-41 -121t-61 -98t-68.5 -77.5t-72 -61z" />
    <glyph glyph-name="bracketleft.lining" horiz-adv-x="330" 
d="M0 -128l150 850h242l-18 -101h-110l-113 -648h110l-19 -101h-242z" />
    <glyph glyph-name="bracketright.lining" horiz-adv-x="330" 
d="M-30 -128l19 101h110l113 648h-110l18 101h242l-150 -850h-242z" />
    <glyph glyph-name="braceleft.lining" horiz-adv-x="406" 
d="M317 -128h-86q-153 0 -126 148l29 162q6 34 -3 49t-36 15h-62l18 99h59q30 0 43.5 12.5t19.5 46.5l33 189q12 69 48 99t99 30h114l-16 -93h-67q-22 0 -31.5 -8t-12.5 -27l-33 -195q-9 -52 -37 -74.5t-87 -30.5q103 -10 85 -114l-30 -169q-7 -43 28 -43h69z" />
    <glyph glyph-name="braceright.lining" horiz-adv-x="406" 
d="M117 722h86q153 0 126 -148l-30 -165q-6 -34 3 -49t36 -15h62l-18 -99h-59q-30 0 -43.5 -12.5t-19.5 -46.5l-32 -186q-12 -69 -48 -99t-99 -30h-114l16 93h67q22 0 31.5 8t12.5 27l32 192q9 52 37 74.5t87 30.5q-103 10 -85 114l31 172q7 43 -28 43h-69z" />
    <glyph glyph-name="section.lining" horiz-adv-x="562" 
d="M31 28h93q4 -52 32 -79.5t69 -27.5q38 0 58 19t20 46q0 25 -14.5 41t-45.5 30l-104 48q-105 49 -105 155q0 108 125 150q-34 40 -34 112q0 69 53.5 117.5t137.5 48.5q92 0 130 -59l22 51h83l-32 -180h-91q-6 42 -32.5 63t-62.5 21q-35 0 -54 -17.5t-19 -41.5
q0 -25 13.5 -41.5t45.5 -30.5l89 -40q126 -56 126 -160q0 -54 -34 -94.5t-90 -55.5q30 -47 30 -102q0 -81 -54.5 -131t-145.5 -50q-44 0 -81.5 15.5t-56.5 43.5l-22 -52h-84zM355 153q22 9 36 28t14 42q0 37 -54 62l-93 42q-24 10 -47 27q-49 -24 -49 -65q0 -42 54 -66
l92 -42q24 -11 47 -28z" />
    <glyph glyph-name="numbersign.lining" horiz-adv-x="475" 
d="M151 487h-68l16 91h75l26 102h103l-26 -102h71l26 102h103l-26 -102h58l-16 -91h-65l-21 -87h70l-16 -91h-77l-26 -106h-103l26 106h-71l-26 -106h-103l26 106h-56l16 91h63zM325 487h-71l-21 -87h71z" />
    <glyph glyph-name="ordfeminine.lining" horiz-adv-x="490" 
d="M257 403q35 0 58.5 31t23.5 75q0 40 -17.5 63.5t-50.5 23.5q-36 0 -59 -29.5t-23 -76.5q0 -39 17.5 -63t50.5 -24zM210 312q-61 0 -100.5 42.5t-39.5 119.5q0 95 54 155t128 60q78 0 110 -65l22 56h102l-46 -257q-4 -22 16 -22h25l-14 -81h-57q-47 0 -65 12t-24 38l-1 5
q-22 -32 -47 -47.5t-63 -15.5z" />
    <glyph glyph-name="ordmasculine.lining" horiz-adv-x="468" 
d="M261 310q-81 0 -134.5 52t-53.5 131q0 84 60.5 140t145.5 56q81 0 134.5 -52t53.5 -131q0 -84 -60.5 -140t-145.5 -56zM265 403q36 0 58 29.5t22 75.5q0 38 -18.5 62.5t-51.5 24.5q-37 0 -58.5 -29t-21.5 -76q0 -39 18.5 -63t51.5 -24z" />
    <glyph glyph-name="space.tab" horiz-adv-x="200" 
 />
    <glyph glyph-name="dollar.tab" 
d="M242 -116h-66l20 115q-41 12 -73 45l-20 -44h-74l28 161h78q19 -57 77 -72l22 130q-72 22 -108.5 58.5t-36.5 102.5q0 62 50 106.5t133 44.5q12 0 17 -1l18 101h66l-20 -115q26 -12 45 -32l19 38h76l-28 -158h-72q-14 48 -56 65l-19 -112l11 -3q151 -47 151 -161
q0 -79 -59 -121t-149 -42h-12zM357 143q0 17 -12.5 30.5t-47.5 25.5l-20 -116q41 3 60.5 20t19.5 40zM207 388q0 -32 48 -51l18 101q-66 -4 -66 -50z" />
    <glyph glyph-name="cent.tab" 
d="M259 -116h-63l20 114q-70 16 -112 69t-42 131q0 108 63.5 172.5t155.5 64.5h12l19 106h63l-22 -122q21 -11 37 -34l18 41h83l-26 -156h-91q-9 39 -37 55l-42 -234q52 3 82 41l71 -79q-62 -61 -170 -62zM191 201q0 -71 44 -97l40 230q-39 -7 -61.5 -44.5t-22.5 -88.5z" />
    <glyph glyph-name="Euro.tab" 
d="M319 169h-104q20 -74 90 -74q57 0 101 54l89 -70q-70 -88 -193 -88q-76 0 -138 43.5t-83 134.5h-74l11 67h54q0 39 1 51h-46l11 67h49q27 87 95 132t132 45q72 0 110 -44l21 35h85l-29 -167h-96q-15 73 -82 73q-70 0 -100 -74h127l-11 -67h-131q-2 -13 -2 -51h124z" />
    <glyph glyph-name="sterling.tab" 
d="M170 182q0 11 -1 16q-1 17 -7 53h-104l15 87h71q-12 50 -12 88q0 86 51.5 139t138.5 53q73 0 108 -47l19 39h82l-32 -184h-85q-4 41 -23.5 65t-51.5 24q-34 0 -54.5 -25t-20.5 -69q0 -33 8 -83h137l-15 -87h-111q2 -32 2 -53q0 -34 -12 -77q26 -24 64 -24q45 0 81 45
l74 -78q-59 -73 -159 -73q-64 0 -111 49q-45 -49 -119 -49q-54 0 -83.5 30t-29.5 75q0 51 33 79t82 28q40 0 65 -21zM109 65q29 0 55 33q-35 29 -57 29q-12 0 -20 -9t-8 -21q0 -32 30 -32z" />
    <glyph glyph-name="yen.tab" 
d="M516 422h-44l-68 -91h62l-13 -71h-102l-26 -36h120l-11 -71h-150l-10 -52h44l-19 -101h-221l18 101h45l9 52h-150l13 71h120l-13 36h-101l13 71h62l-37 91h-47l19 100h220l-19 -100h-39l23 -66q6 -19 11 -46.5t8 -46.5l3 -19q20 59 53 109l48 69h-36l19 100h215z" />
    <glyph glyph-name="florin.tab" 
d="M164 183h-93l20 106h92l27 152q32 177 177 177q100 0 149 -79l-87 -67q-16 42 -54 42q-43 0 -56 -70l-27 -155h131l-20 -106h-130l-69 -395h-129z" />
    <glyph glyph-name="zero.tab" 
d="M253 -9q-94 0 -152 64t-58 172q0 137 66.5 220.5t177.5 83.5q98 0 154 -64t56 -172q0 -137 -66.5 -220.5t-177.5 -83.5zM257 99q49 0 77 56t28 144q0 124 -78 124q-49 0 -77.5 -57.5t-28.5 -145.5q0 -121 79 -121z" />
    <glyph glyph-name="one.tab" 
d="M187 98l57 321h-105l18 103h240l-75 -424h106l-16 -98h-355l17 98h113z" />
    <glyph glyph-name="two.tab" 
d="M6 0l16 77l225 169q85 64 85 120q0 23 -15 37.5t-39 14.5q-68 0 -88 -78l-119 30q22 83 81.5 122t134.5 39q95 0 139 -44.5t44 -112.5q0 -105 -148 -203l-70 -46q-7 -5 -58 -30q28 7 65 7h94l20 49h88l-27 -151h-428z" />
    <glyph glyph-name="three.tab" 
d="M153 196l-21 31l142 153q10 11 21 21.5t17 15.5l7 5q-34 -3 -62 -3h-89l-20 -61h-92l29 164h416l-13 -65l-125 -125q-38 -36 -43 -38q54 -8 99 -54.5t45 -123.5q0 -93 -67.5 -156t-181.5 -63q-86 0 -142 40t-80 100l116 53q33 -84 108 -84q49 0 79.5 30t30.5 76
q0 55 -27 79.5t-67 24.5q-43 0 -80 -20z" />
    <glyph glyph-name="four.tab" 
d="M207 -7h72l10 55h-286l14 83l386 397h93l-70 -389h61l-16 -91h-61l-10 -55h63l-15 -92h-258zM301 139l25 142l11 56q-17 -25 -35 -44l-116 -120q-13 -13 -47 -39q15 5 51 5h111z" />
    <glyph glyph-name="five.tab" 
d="M486 522l-28 -158h-87l-4 54h-155l-24 -135q37 23 89 23q85 0 130 -55t45 -134q0 -93 -66.5 -156.5t-178.5 -63.5q-82 0 -136.5 37.5t-77.5 97.5l118 51q11 -30 36 -53t63 -23q48 0 76.5 28.5t28.5 72.5q0 45 -25.5 70.5t-69.5 25.5q-72 0 -133 -51l-27 13l63 356h363z
" />
    <glyph glyph-name="six.tab" 
d="M252 -9q-92 0 -152.5 57.5t-60.5 146.5q0 91 98 201l191 213h151l-159 -176q-12 -14 -33.5 -30.5t-36.5 -26.5l-16 -9q34 14 70 14q72 0 123.5 -51t51.5 -132q0 -96 -64.5 -151.5t-162.5 -55.5zM255 97q40 0 66 29.5t26 71.5q0 40 -22.5 66t-61.5 26q-41 0 -66.5 -27.5
t-25.5 -69.5q0 -41 23 -68.5t61 -27.5z" />
    <glyph glyph-name="seven.tab" 
d="M31 -94l302 510h-166l-25 -65h-91l30 171h426l-13 -67l-328 -549h-135z" />
    <glyph glyph-name="eight.tab" 
d="M253 89q45 0 71 29.5t26 77.5q0 41 -21.5 67t-61.5 26q-42 0 -70 -29t-28 -78q0 -40 22 -66.5t62 -26.5zM247 -9q-96 0 -155.5 52.5t-59.5 130.5q0 52 34.5 97t102.5 66q-55 39 -55 110q0 74 55.5 122.5t148.5 48.5q92 0 140 -45.5t48 -112.5q0 -44 -26 -79.5t-74 -55.5
q80 -39 80 -134q0 -94 -68 -147t-171 -53zM301 371q31 0 51 22t21 60q1 30 -14.5 48.5t-43.5 18.5q-32 0 -52 -21.5t-21 -59.5q-1 -30 15 -49t44 -19z" />
    <glyph glyph-name="nine.tab" 
d="M48 -94l164 180q34 39 81 68q-31 -14 -65 -14q-72 0 -124 51t-52 132q0 95 64 151.5t159 56.5q94 0 154.5 -56t60.5 -147q0 -96 -107 -216l-184 -206h-151zM268 233q42 0 66.5 28.5t24.5 71.5q0 41 -23.5 66.5t-63.5 25.5q-41 0 -64.5 -27.5t-23.5 -70.5q0 -42 22.5 -68
t61.5 -26z" />
    <glyph glyph-name="percent.tab" horiz-adv-x="750" 
d="M174 231q-65 0 -101.5 39.5t-36.5 98.5q0 69 46 115.5t107 46.5q65 0 101.5 -39.5t36.5 -98.5q0 -69 -46 -115.5t-107 -46.5zM652 522l-423 -522h-111l423 522h111zM176 313q21 0 35 24t14 58q0 56 -38 56q-21 0 -35 -24t-14 -58q0 -56 38 -56zM578 -9q-65 0 -101.5 39.5
t-36.5 98.5q0 69 46 115.5t107 46.5q65 0 101.5 -39.5t36.5 -98.5q0 -69 -46 -115.5t-107 -46.5zM580 73q21 0 35 24t14 58q0 56 -38 56q-21 0 -35 -24t-14 -58q0 -56 38 -56z" />
    <glyph glyph-name="perthousand.tab" horiz-adv-x="1100" 
d="M184 231q-65 0 -101.5 39.5t-36.5 98.5q0 69 46 115.5t107 46.5q65 0 101.5 -39.5t36.5 -98.5q0 -69 -46 -115.5t-107 -46.5zM662 522l-423 -522h-111l423 522h111zM186 313q21 0 35 24t14 58q0 56 -38 56q-21 0 -35 -24t-14 -58q0 -56 38 -56zM588 -9q-65 0 -101.5 39.5
t-36.5 98.5q0 69 46 115.5t107 46.5q65 0 101.5 -39.5t36.5 -98.5q0 -69 -46 -115.5t-107 -46.5zM590 73q21 0 35 24t14 58q0 56 -38 56q-21 0 -35 -24t-14 -58q0 -56 38 -56zM918 -9q-65 0 -101.5 39.5t-36.5 98.5q0 69 46 115.5t107 46.5q65 0 101.5 -39.5t36.5 -98.5
q0 -69 -46 -115.5t-107 -46.5zM920 73q21 0 35 24t14 58q0 56 -38 56q-21 0 -35 -24t-14 -58q0 -56 38 -56z" />
    <glyph glyph-name="plus.tab" 
d="M315 217l-23 -134h-111l23 134h-125l18 102h126l24 136h110l-24 -136h130l-18 -102h-130z" />
    <glyph glyph-name="minus.tab" 
d="M445 217h-366l18 102h366z" />
    <glyph glyph-name="multiply.tab" 
d="M347 262l92 -110l-84 -72l-92 109l-127 -109l-69 80l128 110l-93 110l86 72l92 -110l128 110l68 -80z" />
    <glyph glyph-name="divide.tab" 
d="M301 360q-32 0 -55 22.5t-23 57.5q0 34 23 56.5t55 22.5t55 -22.5t23 -56.5q0 -35 -23 -57.5t-55 -22.5zM79 217l18 102h366l-18 -102h-366zM240 17q-32 0 -55 22.5t-23 57.5q0 34 23 56.5t55 22.5t55 -22.5t23 -56.5q0 -35 -23 -57.5t-55 -22.5z" />
    <glyph glyph-name="equal.tab" 
d="M109 282l19 109h327l-19 -109h-327zM80 118l20 109h327l-20 -109h-327z" />
    <glyph glyph-name="less.tab" 
d="M395 54l-316 176v10l384 198l-23 -125l-166 -77l140 -76z" />
    <glyph glyph-name="greater.tab" 
d="M77 54l23 125l166 77l-140 76l19 106l316 -176v-10z" />
    <glyph glyph-name="degree.tab" horiz-adv-x="350" 
d="M208 268q-56 0 -96 37.5t-40 92.5q0 58 41 95.5t99 37.5q56 0 95.5 -36t39.5 -91q0 -58 -40.5 -97t-98.5 -39zM209 341q22 0 36.5 17.5t14.5 44.5q0 26 -13.5 40.5t-35.5 14.5t-36.5 -17t-14.5 -44q0 -26 13.5 -41t35.5 -15z" />
    <glyph glyph-name="period.tab" horiz-adv-x="200" 
d="M77 -6q-32 0 -55 22.5t-23 57.5q0 34 23 56.5t55 22.5t55 -22.5t23 -56.5q0 -35 -23 -57.5t-55 -22.5z" />
    <glyph glyph-name="comma.tab" horiz-adv-x="200" 
d="M-22 -115l63 120q-42 24 -42 71q0 33 22.5 55t55.5 22q32 0 55 -22.5t23 -56.5q0 -33 -34 -80l-80 -109h-63z" />
    <glyph glyph-name="colon.tab" horiz-adv-x="200" 
d="M117 229q-32 0 -54.5 22t-22.5 57q0 34 22.5 57t54.5 23q33 0 55.5 -23t22.5 -57q0 -35 -22.5 -57t-55.5 -22zM77 -6q-32 0 -55 22.5t-23 57.5q0 34 23 56.5t55 22.5t55 -22.5t23 -56.5q0 -35 -23 -57.5t-55 -22.5z" />
    <glyph glyph-name="semicolon.tab" horiz-adv-x="200" 
d="M117 229q-32 0 -54.5 22t-22.5 57q0 34 22.5 57t54.5 23q33 0 55.5 -23t22.5 -57q0 -35 -22.5 -57t-55.5 -22zM-22 -115l63 120q-42 24 -42 71q0 33 22.5 55t55.5 22q32 0 55 -22.5t23 -56.5q0 -33 -34 -80l-80 -109h-63z" />
    <glyph glyph-name="parenleft.tab" horiz-adv-x="300" 
d="M235 -82l-85 -46q-111 169 -111 347q0 76 15.5 144.5t39 118.5t58 97.5t64.5 77.5t67 61l66 -67q-84 -81 -133 -193t-49 -241q0 -163 68 -299z" />
    <glyph glyph-name="parenright.tab" horiz-adv-x="300" 
d="M50 -128l-66 67q84 81 133 193t49 241q0 163 -68 299l85 46q111 -169 111 -347q0 -76 -15.5 -144.5t-39 -118.5t-58 -97.5t-64.5 -77.5t-67 -61z" />
    <glyph glyph-name="bracketleft.tab" horiz-adv-x="300" 
d="M-13 -128l150 850h232l-18 -101h-100l-113 -648h100l-19 -101h-232z" />
    <glyph glyph-name="bracketright.tab" horiz-adv-x="300" 
d="M-37 -128l18 101h100l116 648h-100l16 101h232l-150 -850h-232z" />
    <glyph glyph-name="braceleft.tab" horiz-adv-x="300" 
d="M219 -128h-46q-153 0 -126 148l29 162q6 34 -3 49t-36 15h-22l18 99h19q30 0 43.5 12.5t19.5 46.5l33 189q12 69 48 99t99 30h74l-16 -93h-27q-22 0 -31.5 -8t-12.5 -27l-33 -195q-9 -52 -37 -74.5t-87 -30.5q103 -10 85 -114l-30 -169q-7 -43 28 -43h29z" />
    <glyph glyph-name="braceright.tab" horiz-adv-x="300" 
d="M114 722h47q153 0 126 -148l-30 -165q-6 -34 3 -49t36 -15h23l-18 -99h-20q-30 0 -43.5 -12.5t-19.5 -46.5l-32 -186q-12 -69 -48 -99t-99 -30h-75l16 93h28q22 0 31.5 8t12.5 27l32 192q9 52 37 74.5t87 30.5q-103 10 -85 114l31 172q7 43 -28 43h-30z" />
    <glyph glyph-name="section.tab" 
d="M39 67h78q5 -37 31 -57.5t59 -20.5q36 0 55 13t19 34q0 29 -47 47l-80 33q-110 45 -110 139q0 52 31.5 87.5t77.5 45.5q-22 33 -22 78q0 61 51 106.5t123 45.5q78 0 107 -44l18 36h72l-27 -153h-76q-8 37 -31.5 54t-52.5 17q-30 0 -46 -14.5t-16 -36.5q0 -32 52 -53
l86 -35q104 -42 104 -128q0 -110 -106 -139q21 -32 21 -67q0 -72 -50 -115t-132 -43t-125 46l-17 -38h-76zM336 173q40 13 40 50q0 36 -44 54l-91 39q-21 7 -39 19q-40 -16 -40 -50q0 -37 45 -56l86 -36q19 -7 43 -20z" />
    <glyph glyph-name="numbersign.tab" 
d="M162 426h-73l16 91h80l26 102h103l-26 -102h71l26 102h103l-26 -102h63l-16 -91h-70l-21 -87h75l-16 -91h-82l-26 -106h-103l26 106h-71l-26 -106h-103l26 106h-61l16 91h68zM336 426h-71l-21 -87h71z" />
    <glyph glyph-name="space.tablining" horiz-adv-x="200" 
 />
    <glyph glyph-name="dollar.tablining" horiz-adv-x="580" 
d="M569 680l-33 -187h-94q-11 54 -57 77l-30 -168l11 -6q85 -45 119.5 -90.5t34.5 -115.5q0 -91 -63 -145t-169 -54h-6l-19 -107h-63l20 116q-61 16 -94 63l-26 -63h-87l37 211h94q15 -88 95 -108l33 190l-37 20q-119 65 -119 180q0 84 57 139.5t153 55.5q11 0 17 -1l15 86
h63l-18 -100q37 -16 57 -46l21 53h88zM388 178q0 26 -13.5 44.5t-44.5 38.5l-29 -162q87 8 87 79zM245 513q0 -28 10.5 -45t41.5 -36l27 150q-38 -1 -58.5 -21t-20.5 -48z" />
    <glyph glyph-name="cent.tablining" horiz-adv-x="580" 
d="M290 -116h-63l20 114q-70 16 -112 69t-42 131q0 108 63.5 172.5t155.5 64.5h12l19 106h63l-22 -122q21 -11 37 -34l18 41h83l-26 -156h-91q-9 39 -37 55l-42 -234q52 3 82 41l71 -79q-62 -61 -170 -62zM222 201q0 -71 44 -97l40 230q-39 -7 -61.5 -44.5t-22.5 -88.5z" />
    <glyph glyph-name="Euro.tablining" horiz-adv-x="580" 
d="M384 688q88 0 118 -72l23 64h93l-35 -203h-102q-16 100 -93 100q-43 0 -77 -33.5t-53 -91.5h146l-15 -84h-155q-5 -30 -7 -60h151l-15 -84h-136q3 -52 27.5 -86t66.5 -34q39 0 68.5 26t55.5 79l112 -58q-81 -160 -240 -160q-94 0 -155.5 60.5t-74.5 172.5h-64l15 84h49
q2 30 7 60h-45l15 84h49q38 110 110 173t161 63z" />
    <glyph glyph-name="sterling.tablining" horiz-adv-x="580" 
d="M378 582q-43 0 -70 -29.5t-27 -79.5q0 -42 12 -110h172l-15 -89h-139q6 -35 6 -73q0 -35 -12 -74q43 -27 80 -27q50 0 91 53l80 -75q-37 -46 -73 -66.5t-90 -20.5q-75 0 -134 59q-48 -59 -126 -59q-55 0 -92.5 33t-37.5 79q0 53 36 84.5t89 31.5q42 0 70 -18v1
q0 21 -14 72h-107l15 89h65q-14 56 -14 106q0 99 59.5 159t161.5 60q79 0 119 -55l20 47h90l-34 -197h-97q-4 47 -25.5 73t-58.5 26zM188 115q-31 26 -53 26q-19 0 -30 -10t-11 -26q0 -14 11 -24.5t29 -10.5q38 0 54 45z" />
    <glyph glyph-name="yen.tablining" horiz-adv-x="580" 
d="M54 234h173l4 20l-11 34h-158l15 84h116l-66 210h-50l22 98h229l-18 -98h-48l33 -113q6 -19 11 -50.5t8 -55.5l3 -24q1 3 10 23.5t24.5 51.5t29.5 54l70 114h-56l16 98h232l-12 -98h-53l-135 -210h116l-15 -84h-155l-22 -35l-4 -19h172l-15 -84h-172l-9 -52h59l-17 -98
h-254l17 98h59l9 52h-174z" />
    <glyph glyph-name="florin.tablining" horiz-adv-x="580" 
d="M185 219h-91l18 105h91l33 187q32 177 179 177q103 0 152 -81l-88 -66q-22 44 -56 44q-24 0 -37.5 -15t-20.5 -56l-33 -190h132l-18 -105h-133l-75 -431h-129z" />
    <glyph glyph-name="zero.tablining" horiz-adv-x="580" 
d="M275 -9q-102 0 -163.5 69.5t-61.5 200.5q0 183 84.5 305.5t217.5 122.5q102 0 164 -69.5t62 -200.5q0 -183 -85 -305.5t-218 -122.5zM280 105q48 0 84.5 53t53.5 127.5t17 153.5q0 136 -88 136q-48 0 -84 -53t-53 -127.5t-17 -153.5q0 -136 87 -136z" />
    <glyph glyph-name="one.tablining" horiz-adv-x="580" 
d="M74 98h149l85 475h-142l18 107h281l-103 -582h147l-16 -98h-436z" />
    <glyph glyph-name="two.tablining" horiz-adv-x="580" 
d="M8 0l13 75l274 243q69 62 95.5 97.5t26.5 77.5q0 34 -21.5 56.5t-57.5 22.5q-83 0 -112 -116l-136 25q24 107 91 157.5t163 50.5q100 0 159 -52t59 -134q0 -36 -12.5 -70t-40 -67t-52 -57t-65.5 -60l-112 -97q-30 -25 -63 -42l27 2q27 3 39 3h123l28 79h90l-35 -194h-481
z" />
    <glyph glyph-name="three.tablining" horiz-adv-x="580" 
d="M99 508l30 172h468l-5 -28l-170 -183q-32 -35 -53 -40q66 -9 118.5 -61t52.5 -138q0 -105 -74.5 -172t-190.5 -67q-101 0 -167 43.5t-94 116.5l122 56q41 -105 135 -105q59 0 92 37t33 89t-31.5 80t-84.5 28q-48 0 -83 -22l-27 39l164 170q10 10 23.5 22.5t23.5 20.5
t11 9l-13 -1q-13 -1 -30 -2t-27 -1h-108l-26 -63h-89z" />
    <glyph glyph-name="four.tablining" horiz-adv-x="580" 
d="M256 95h77l12 65h-315l18 98l423 422h98l-74 -414h76l-19 -106h-76l-11 -65h75l-19 -95h-284zM363 262l25 144q1 7 21 87q-20 -33 -61 -74l-108 -111q-9 -9 -64 -53q35 7 77 7h110z" />
    <glyph glyph-name="five.tablining" horiz-adv-x="580" 
d="M447 516l-6 47h-184l-25 -135q34 18 83 18q99 0 156.5 -58.5t57.5 -155.5q0 -105 -72 -173t-186 -68q-95 0 -163.5 40.5t-96.5 116.5l119 59q43 -102 141 -102q53 0 85.5 33t32.5 89q0 51 -31.5 81t-91.5 30q-77 0 -148 -59l-25 11l68 390h406l-29 -164h-91z" />
    <glyph glyph-name="six.tablining" horiz-adv-x="580" 
d="M285 -9q-104 0 -171.5 65.5t-67.5 162.5q0 98 82 197l221 264h154l-132 -163q-38 -47 -77 -71q18 5 41 5q91 0 149.5 -61.5t58.5 -154.5q0 -108 -71.5 -176t-186.5 -68zM287 104q54 0 85.5 37t31.5 91t-27 87t-80 33q-55 0 -85.5 -37t-30.5 -91q0 -50 27 -85t79 -35z" />
    <glyph glyph-name="seven.tablining" horiz-adv-x="580" 
d="M89 507l30 173h492l-12 -67l-369 -613h-147l348 569h-228l-25 -62h-89z" />
    <glyph glyph-name="eight.tablining" horiz-adv-x="580" 
d="M287 -9q-113 0 -178.5 55.5t-65.5 141.5q0 137 148 188q-28 17 -45 50.5t-17 70.5q0 82 66 136.5t157 54.5q89 0 146 -46.5t57 -121.5q0 -46 -27 -90.5t-76 -63.5q97 -50 97 -147q0 -98 -73 -163t-189 -65zM287 96q51 0 86 36t37 88q2 47 -26.5 76.5t-76.5 29.5
q-54 0 -88 -35t-36 -89q-2 -45 27.5 -75.5t76.5 -30.5zM335 420q38 0 61 24.5t24 63.5q1 35 -19 55.5t-52 20.5q-39 0 -62.5 -24t-23.5 -63q0 -34 19.5 -55.5t52.5 -21.5z" />
    <glyph glyph-name="nine.tablining" horiz-adv-x="580" 
d="M122 0l138 169q33 42 74 66q-20 -5 -44 -5q-88 0 -146.5 61.5t-58.5 153.5q0 106 72 174.5t185 68.5q106 0 171.5 -63.5t65.5 -163.5q0 -101 -80 -196l-222 -265h-155zM329 332q52 0 83 36t31 89q0 51 -28 84.5t-79 33.5q-52 0 -82.5 -36.5t-30.5 -89.5q0 -54 27.5 -85.5
t78.5 -31.5z" />
    <glyph glyph-name="percent.tablining" horiz-adv-x="800" 
d="M211 322q-66 0 -109.5 47t-43.5 122q0 82 51 139.5t124 57.5q66 0 110 -47t44 -122q0 -82 -51.5 -139.5t-124.5 -57.5zM216 411q28 0 44.5 32t16.5 80q0 75 -47 75q-28 0 -44.5 -32t-16.5 -80q0 -75 47 -75zM614 -9q-66 0 -109.5 47t-43.5 122q0 82 51 139.5t124 57.5
q66 0 110 -47t44 -122q0 -82 -51.5 -139.5t-124.5 -57.5zM619 80q28 0 44.5 32t16.5 80q0 75 -47 75q-28 0 -44.5 -32t-16.5 -80q0 -75 47 -75zM101 0l529 680h117l-529 -680h-117z" />
    <glyph glyph-name="perthousand.tablining" horiz-adv-x="1160" 
d="M211 322q-66 0 -109.5 47t-43.5 122q0 82 51 139.5t124 57.5q66 0 110 -47t44 -122q0 -82 -51.5 -139.5t-124.5 -57.5zM216 411q28 0 44.5 32t16.5 80q0 75 -47 75q-28 0 -44.5 -32t-16.5 -80q0 -75 47 -75zM614 -9q-66 0 -109.5 47t-43.5 122q0 82 51 139.5t124 57.5
q66 0 110 -47t44 -122q0 -82 -51.5 -139.5t-124.5 -57.5zM619 80q28 0 44.5 32t16.5 80q0 75 -47 75q-28 0 -44.5 -32t-16.5 -80q0 -75 47 -75zM974 -9q-66 0 -109.5 47t-43.5 122q0 82 51 139.5t124 57.5q66 0 110 -47t44 -122q0 -82 -51.5 -139.5t-124.5 -57.5zM979 80
q28 0 44.5 32t16.5 80q0 75 -47 75q-28 0 -44.5 -32t-16.5 -80q0 -75 47 -75zM101 0l529 680h117l-529 -680h-117z" />
    <glyph glyph-name="plus.tablining" horiz-adv-x="580" 
d="M355 263l-28 -156h-112l28 156h-148l18 105h148l28 157h112l-28 -157h150l-18 -105h-150z" />
    <glyph glyph-name="minus.tablining" horiz-adv-x="580" 
d="M505 263h-410l18 105h410z" />
    <glyph glyph-name="multiply.tablining" horiz-adv-x="580" 
d="M386 301l92 -109l-86 -74l-92 108l-126 -108l-71 82l127 109l-92 109l88 74l91 -109l127 109l70 -82q-127 -109 -128 -109z" />
    <glyph glyph-name="divide.tablining" horiz-adv-x="580" 
d="M343 423q-33 0 -56.5 23.5t-23.5 58.5t23.5 58t56.5 23t56.5 -23t23.5 -58t-23.5 -58.5t-56.5 -23.5zM96 263l18 105h408l-18 -105h-408zM276 45q-33 0 -56.5 23.5t-23.5 58.5t23.5 58t56.5 23t56.5 -23t23.5 -58t-23.5 -58.5t-56.5 -23.5z" />
    <glyph glyph-name="equal.tablining" horiz-adv-x="580" 
d="M107 333l18 109h413l-19 -109h-412zM75 155l20 109h413l-20 -109h-413z" />
    <glyph glyph-name="less.tablining" horiz-adv-x="580" 
d="M436 109l-353 200v10l427 207l-23 -127l-204 -87l171 -100z" />
    <glyph glyph-name="greater.tablining" horiz-adv-x="580" 
d="M70 109l23 127l204 87l-171 100l18 103l353 -200v-10z" />
    <glyph glyph-name="degree.tablining" horiz-adv-x="400" 
d="M256 393q-62 0 -105.5 43t-43.5 103q0 63 46 106t109 43q62 0 106 -41.5t44 -100.5q0 -65 -46 -109t-110 -44zM257 471q27 0 44 20t17 52q0 30 -16 48.5t-41 18.5q-26 0 -43 -20t-17 -52q0 -29 15.5 -48t40.5 -19z" />
    <glyph glyph-name="period.tablining" horiz-adv-x="200" 
d="M77 -6q-32 0 -55 22.5t-23 57.5q0 34 23 56.5t55 22.5t55 -22.5t23 -56.5q0 -35 -23 -57.5t-55 -22.5z" />
    <glyph glyph-name="comma.tablining" horiz-adv-x="200" 
d="M-22 -115l63 120q-42 24 -42 71q0 33 22.5 55t55.5 22q32 0 55 -22.5t23 -56.5q0 -33 -34 -80l-80 -109h-63z" />
    <glyph glyph-name="colon.tablining" horiz-adv-x="200" 
d="M117 229q-32 0 -54.5 22t-22.5 57q0 34 22.5 57t54.5 23q33 0 55.5 -23t22.5 -57q0 -35 -22.5 -57t-55.5 -22zM77 -6q-32 0 -55 22.5t-23 57.5q0 34 23 56.5t55 22.5t55 -22.5t23 -56.5q0 -35 -23 -57.5t-55 -22.5z" />
    <glyph glyph-name="semicolon.tablining" horiz-adv-x="200" 
d="M117 229q-32 0 -54.5 22t-22.5 57q0 34 22.5 57t54.5 23q33 0 55.5 -23t22.5 -57q0 -35 -22.5 -57t-55.5 -22zM-22 -115l63 120q-42 24 -42 71q0 33 22.5 55t55.5 22q32 0 55 -22.5t23 -56.5q0 -33 -34 -80l-80 -109h-63z" />
    <glyph glyph-name="parenleft.tablining" horiz-adv-x="300" 
d="M235 -82l-85 -46q-111 169 -111 347q0 76 15.5 144.5t39 118.5t58 97.5t64.5 77.5t67 61l66 -67q-84 -81 -133 -193t-49 -241q0 -163 68 -299z" />
    <glyph glyph-name="parenright.tablining" horiz-adv-x="300" 
d="M50 -128l-66 67q84 81 133 193t49 241q0 163 -68 299l85 46q111 -169 111 -347q0 -76 -15.5 -144.5t-39 -118.5t-58 -97.5t-64.5 -77.5t-67 -61z" />
    <glyph glyph-name="bracketleft.tablining" horiz-adv-x="300" 
d="M-13 -128l150 850h232l-18 -101h-100l-113 -648h100l-19 -101h-232z" />
    <glyph glyph-name="bracketright.tablining" horiz-adv-x="300" 
d="M-37 -128l18 101h100l116 648h-100l16 101h232l-150 -850h-232z" />
    <glyph glyph-name="braceleft.tablining" horiz-adv-x="300" 
d="M219 -128h-46q-153 0 -126 148l29 162q6 34 -3 49t-36 15h-22l18 99h19q30 0 43.5 12.5t19.5 46.5l33 189q12 69 48 99t99 30h74l-16 -93h-27q-22 0 -31.5 -8t-12.5 -27l-33 -195q-9 -52 -37 -74.5t-87 -30.5q103 -10 85 -114l-30 -169q-7 -43 28 -43h29z" />
    <glyph glyph-name="braceright.tablining" horiz-adv-x="300" 
d="M114 722h47q153 0 126 -148l-30 -165q-6 -34 3 -49t36 -15h23l-18 -99h-20q-30 0 -43.5 -12.5t-19.5 -46.5l-32 -186q-12 -69 -48 -99t-99 -30h-75l16 93h28q22 0 31.5 8t12.5 27l32 192q9 52 37 74.5t87 30.5q-103 10 -85 114l31 172q7 43 -28 43h-30z" />
    <glyph glyph-name="section.tablining" horiz-adv-x="580" 
d="M43 28h93q4 -52 32 -79.5t69 -27.5q38 0 58 19t20 46q0 25 -14.5 41t-45.5 30l-104 48q-105 49 -105 155q0 108 125 150q-34 40 -34 112q0 69 53.5 117.5t137.5 48.5q92 0 130 -59l22 51h83l-32 -180h-91q-6 42 -32.5 63t-62.5 21q-35 0 -54 -17.5t-19 -41.5
q0 -25 13.5 -41.5t45.5 -30.5l89 -40q126 -56 126 -160q0 -54 -34 -94.5t-90 -55.5q30 -47 30 -102q0 -81 -54.5 -131t-145.5 -50q-44 0 -81.5 15.5t-56.5 43.5l-22 -52h-84zM367 153q22 9 36 28t14 42q0 37 -54 62l-93 42q-24 10 -47 27q-49 -24 -49 -65q0 -42 54 -66
l92 -42q24 -11 47 -28z" />
    <glyph glyph-name="numbersign.tablining" horiz-adv-x="580" 
d="M198 487h-88l16 91h95l26 102h103l-26 -102h81l26 102h103l-26 -102h78l-16 -91h-85l-21 -87h90l-16 -91h-97l-26 -106h-103l26 106h-81l-26 -106h-103l26 106h-76l16 91h83zM382 487h-81l-21 -87h81z" />
    <glyph glyph-name="zero.numerator" horiz-adv-x="542" 
d="M307 194q-101 0 -160 64t-59 170q0 115 69.5 187.5t170.5 72.5q99 0 158 -63.5t59 -169.5q0 -115 -69.5 -188t-168.5 -73zM309 299q46 0 76 43.5t30 115.5q0 62 -24 94t-67 32q-45 0 -75.5 -43.5t-30.5 -114.5q0 -63 24 -95t67 -32z" />
    <glyph glyph-name="one.numerator" horiz-adv-x="400" 
d="M75 302h104l49 275h-112l18 103h239l-67 -378h100l-16 -99h-332z" />
    <glyph glyph-name="two.numerator" horiz-adv-x="443" 
d="M36 203l14 80l209 160q75 57 75 97q0 20 -14.5 32.5t-37.5 12.5q-63 0 -88 -72l-111 30q24 70 77 108t124 38q88 0 133 -40t45 -101q0 -33 -18.5 -65t-38.5 -50.5t-51 -42.5l-63 -47q-22 -16 -42 -29.5t-29 -18.5l-9 -5q40 8 73 8h57l22 41h85l-23 -136h-389z" />
    <glyph glyph-name="three.numerator" horiz-adv-x="443" 
d="M182 425l-15 26l94 89q12 12 27.5 25.5t24.5 20.5l9 7q-41 -7 -84 -7h-36l-21 -51h-86l25 145h357l-11 -59l-70 -68q-13 -12 -28.5 -23t-24.5 -16l-9 -5q41 -8 78 -43.5t37 -97.5q0 -79 -54.5 -126t-149.5 -47q-148 0 -194 117l109 50q13 -31 32 -46t53 -15t55 20t21 51
q0 30 -18.5 49t-55.5 19t-65 -15z" />
    <glyph glyph-name="four.numerator" horiz-adv-x="505" 
d="M400 203h-120l12 71h-246l13 90l323 316h106l-58 -312h64l-19 -94h-62zM313 362l18 104q6 39 18 72q-11 -18 -53 -62l-76 -79l-44 -39q28 4 64 4h73z" />
    <glyph glyph-name="five.numerator" horiz-adv-x="438" 
d="M362 550l-4 36h-119l-14 -87q28 13 70 13q67 0 109.5 -36t42.5 -104q0 -85 -56.5 -131t-149.5 -46q-74 0 -122.5 31t-72.5 78l101 56q30 -62 95 -62q33 0 56.5 19t23.5 50q0 32 -20.5 50t-59.5 18q-66 0 -125 -44l-14 8l50 281h315l-22 -130h-84z" />
    <glyph glyph-name="six.numerator" horiz-adv-x="472" 
d="M266 195q-85 0 -139 49.5t-54 120.5q0 93 91 195l108 120h148l-87 -96q-11 -11 -25.5 -25t-25.5 -24.5t-12 -11.5q18 7 49 7q62 0 107 -41t45 -108q0 -87 -56.5 -136.5t-148.5 -49.5zM271 293q36 0 55 23t19 54q0 33 -19 55.5t-53 22.5q-35 0 -55 -23.5t-20 -58.5
q0 -32 18.5 -52.5t54.5 -20.5z" />
    <glyph glyph-name="seven.numerator" horiz-adv-x="453" 
d="M81 518l27 162h384l-10 -62l-248 -415h-134l225 376h-133l-22 -61h-89z" />
    <glyph glyph-name="eight.numerator" horiz-adv-x="469" 
d="M263 195q-85 0 -137 39t-52 103q0 46 30.5 81t82.5 52q-50 29 -50 84q0 56 45 95t127 39q77 0 117.5 -35t40.5 -90q0 -76 -77 -102q34 -16 53.5 -46t19.5 -66q0 -69 -56 -111.5t-144 -42.5zM266 291q33 0 53 20t20 51q0 28 -18.5 45t-49.5 17q-34 0 -54.5 -19.5
t-20.5 -52.5q0 -27 18.5 -44t51.5 -17zM302 498q21 0 36.5 14t15.5 35q0 23 -13.5 37t-35.5 14q-23 0 -39 -14t-16 -37t14 -36t38 -13z" />
    <glyph glyph-name="nine.numerator" horiz-adv-x="472" 
d="M292 688q85 0 139 -49.5t54 -120.5q0 -51 -20.5 -95t-70.5 -100l-114 -120h-148l92 96q45 47 63 58q-15 -4 -48 -4q-62 0 -107 41t-45 108q0 81 57.5 133.5t147.5 52.5zM287 589q-36 0 -55 -22t-19 -52q0 -32 18.5 -53.5t53.5 -21.5t55 22.5t20 56.5q0 31 -18.5 50.5
t-54.5 19.5z" />
    <glyph glyph-name="zero.denominator" horiz-adv-x="542" 
d="M270 -9q-101 0 -160 64t-59 170q0 115 69.5 187.5t170.5 72.5q99 0 158 -63.5t59 -169.5q0 -115 -69.5 -188t-168.5 -73zM272 96q46 0 76 43.5t30 115.5q0 62 -24 94t-67 32q-45 0 -75.5 -43.5t-30.5 -114.5q0 -63 24 -95t67 -32z" />
    <glyph glyph-name="one.denominator" horiz-adv-x="400" 
d="M38 99h104l49 275h-112l18 103h239l-67 -378h100l-16 -99h-332z" />
    <glyph glyph-name="two.denominator" horiz-adv-x="443" 
d="M-1 0l14 80l209 160q75 57 75 97q0 20 -14.5 32.5t-37.5 12.5q-63 0 -88 -72l-111 30q24 70 77 108t124 38q88 0 133 -40t45 -101q0 -33 -18.5 -65t-38.5 -50.5t-51 -42.5l-63 -47q-22 -16 -42 -29.5t-29 -18.5l-9 -5q40 8 73 8h57l22 41h85l-23 -136h-389z" />
    <glyph glyph-name="three.denominator" horiz-adv-x="443" 
d="M145 222l-15 26l94 89q12 12 27.5 25.5t24.5 20.5l9 7q-41 -7 -84 -7h-36l-21 -51h-86l25 145h357l-11 -59l-70 -68q-13 -12 -28.5 -23t-24.5 -16l-9 -5q41 -8 78 -43.5t37 -97.5q0 -79 -54.5 -126t-149.5 -47q-148 0 -194 117l109 50q13 -31 32 -46t53 -15t55 20t21 51
q0 30 -18.5 49t-55.5 19t-65 -15z" />
    <glyph glyph-name="four.denominator" horiz-adv-x="505" 
d="M363 0h-120l12 71h-246l13 90l323 316h106l-58 -312h64l-19 -94h-62zM276 159l18 104q8 46 18 72q-11 -18 -53 -62l-76 -79l-44 -39q28 4 64 4h73z" />
    <glyph glyph-name="five.denominator" horiz-adv-x="438" 
d="M325 347l-4 36h-119l-14 -87q28 13 70 13q67 0 109.5 -36t42.5 -104q0 -85 -56.5 -131t-149.5 -46q-140 0 -195 109l101 56q30 -62 95 -62q33 0 56.5 19t23.5 50q0 32 -20.5 50t-59.5 18q-66 0 -125 -44l-14 8l50 281h315l-22 -130h-84z" />
    <glyph glyph-name="six.denominator" horiz-adv-x="472" 
d="M229 -8q-85 0 -139 49.5t-54 120.5q0 93 91 195l108 120h148l-87 -96q-11 -11 -25.5 -25t-25.5 -24.5t-12 -11.5q18 7 49 7q62 0 107 -41t45 -108q0 -87 -56.5 -136.5t-148.5 -49.5zM234 90q36 0 55 23t19 54q0 33 -19 55.5t-53 22.5q-35 0 -55 -23.5t-20 -58.5
q0 -32 18.5 -52.5t54.5 -20.5z" />
    <glyph glyph-name="seven.denominator" horiz-adv-x="453" 
d="M44 315l27 162h384l-10 -62l-248 -415h-134l225 376h-133l-22 -61h-89z" />
    <glyph glyph-name="eight.denominator" horiz-adv-x="469" 
d="M226 -8q-85 0 -137 39t-52 103q0 46 30.5 81t82.5 52q-50 29 -50 84q0 56 45 95t127 39q77 0 117.5 -35t40.5 -90q0 -76 -77 -102q34 -16 53.5 -46t19.5 -66q0 -69 -56 -111.5t-144 -42.5zM229 88q33 0 53 20t20 51q0 28 -18.5 45t-49.5 17q-34 0 -54.5 -19.5
t-20.5 -52.5q0 -27 18.5 -44t51.5 -17zM265 295q21 0 36.5 14t15.5 35q0 23 -13.5 37t-35.5 14q-23 0 -39 -14t-16 -37t14 -36t38 -13z" />
    <glyph glyph-name="nine.denominator" horiz-adv-x="472" 
d="M255 485q85 0 139 -49.5t54 -120.5q0 -51 -20.5 -95t-70.5 -100l-114 -120h-148l92 96q45 47 63 58q-15 -4 -48 -4q-62 0 -107 41t-45 108q0 81 57.5 133.5t147.5 52.5zM250 386q-36 0 -55 -22t-19 -52q0 -32 18.5 -53.5t53.5 -21.5t55 22.5t20 56.5q0 31 -18.5 50.5
t-54.5 19.5z" />
    <glyph glyph-name="zero.subscript" horiz-adv-x="444" 
d="M182 -257q-81 0 -131 53t-50 140q0 99 61 163t144 64q81 0 131 -53t50 -141q0 -98 -61 -162t-144 -64zM186 -171q40 0 66.5 39.5t26.5 102.5q0 51 -21 78.5t-56 27.5q-40 0 -66.5 -39.5t-26.5 -102.5q0 -52 20.5 -79t56.5 -27z" />
    <glyph glyph-name="one.subscript" horiz-adv-x="298" 
d="M235 -163l-17 -87h-245l17 87h70l39 226h-77l16 92h184l-55 -318h68z" />
    <glyph glyph-name="two.subscript" horiz-adv-x="372" 
d="M-32 -250l11 62l153 121q42 35 60.5 57t18.5 43q0 18 -12 29.5t-31 11.5q-46 0 -84 -58l-80 47q52 99 170 99q65 0 103 -35t38 -85q0 -43 -29.5 -80.5t-80.5 -79.5l-37 -25q-24 -19 -61 -37q2 0 13 2t22.5 3.5t19.5 1.5h54l16 31h72l-20 -108h-316z" />
    <glyph glyph-name="three.subscript" horiz-adv-x="365" 
d="M136 -257q-67 0 -110 28t-60 71l92 42q19 -54 80 -54q28 0 46.5 18t18.5 44q0 29 -19 45.5t-52 16.5q-22 0 -48 -11l-13 20l79 71q13 12 28.5 24t24.5 18l9 6q-25 -5 -60 -5h-42l-19 -41h-70l21 119h298l-7 -43l-69 -69q-30 -29 -47 -32q39 -10 65.5 -41.5t26.5 -78.5
q0 -65 -46 -106.5t-127 -41.5z" />
    <glyph glyph-name="four.subscript" horiz-adv-x="406" 
d="M298 -112h56l-14 -78h-56l-11 -60h-98l10 60h-204l12 74l251 278h101zM201 -112l14 82q2 17 10 48.5t8 32.5q-24 -40 -48 -69l-46 -57q-8 -10 -20 -20.5t-21 -16.5l-8 -5q35 5 59 5h52z" />
    <glyph glyph-name="five.subscript" horiz-adv-x="380" 
d="M232 41l-6 35h-99l-12 -71q30 10 62 10q59 0 97 -31.5t38 -92.5q0 -65 -50.5 -106t-130.5 -41q-105 0 -154 91l86 46q29 -49 72 -49q29 0 49 16t20 40q0 26 -19 41.5t-50 15.5q-50 0 -95 -31l-21 13l39 228h260l-19 -114h-67z" />
    <glyph glyph-name="six.subscript" horiz-adv-x="391" 
d="M158 -257q-69 0 -115.5 42.5t-46.5 102.5q0 65 58 134l111 133h120l-66 -79q-8 -10 -19 -20t-18.5 -16t-15.5 -12l-9 -6q18 6 37 6q55 0 96.5 -38t41.5 -94q0 -69 -49 -111t-125 -42zM160 -173q27 0 47 19t20 49q0 27 -17 46t-45 19q-27 0 -46 -19t-19 -50
q0 -27 16 -45.5t44 -18.5z" />
    <glyph glyph-name="seven.subscript" horiz-adv-x="368" 
d="M-1 -250l208 324h-111l-20 -44h-72l23 125h317l-10 -54l-224 -351h-111z" />
    <glyph glyph-name="eight.subscript" horiz-adv-x="386" 
d="M155 -257q-72 0 -117.5 33t-45.5 87q0 40 25 69t69 44q-42 26 -42 73q0 46 39.5 80t108.5 34q65 0 101.5 -30t36.5 -77q0 -64 -69 -88q62 -33 62 -92t-48.5 -96t-119.5 -37zM157 -175q28 0 45.5 17t17.5 44q0 23 -16.5 38.5t-42.5 15.5q-29 0 -47.5 -18t-18.5 -45
q0 -24 17 -38t45 -14zM184 0q18 0 31.5 13t13.5 33q0 19 -12 32t-30 13q-20 0 -33 -12.5t-13 -32.5t12 -33t31 -13z" />
    <glyph glyph-name="nine.subscript" horiz-adv-x="391" 
d="M39 -250l72 79q26 29 60 52q-16 -4 -32 -4q-55 0 -96 38t-41 94q0 70 48 111.5t123 41.5q70 0 117.5 -43.5t47.5 -102.5q0 -69 -61 -136l-118 -130h-120zM169 -54q29 0 48 18.5t19 49.5q0 28 -17.5 46t-46.5 18t-48 -18.5t-19 -49.5q0 -28 17.5 -46t46.5 -18zM171 -119h2
h-2z" />
    <glyph glyph-name="zero.superscript" horiz-adv-x="444" 
d="M272 268q-81 0 -131 53t-50 140q0 99 61 163t144 64q81 0 131 -53t50 -141q0 -98 -61 -162t-144 -64zM276 354q40 0 66.5 39.5t26.5 102.5q0 51 -21 78.5t-56 27.5q-40 0 -66.5 -39.5t-26.5 -102.5q0 -52 20.5 -79t56.5 -27z" />
    <glyph glyph-name="one.superscript" horiz-adv-x="298" 
d="M325 362l-17 -87h-245l17 87h70l39 226h-77l16 92h184l-55 -318h68z" />
    <glyph glyph-name="two.superscript" horiz-adv-x="372" 
d="M58 275l11 62l153 121q42 35 60.5 57t18.5 43q0 18 -12 29.5t-31 11.5q-46 0 -84 -58l-80 47q52 99 170 99q65 0 103 -35t38 -85q0 -43 -29.5 -80.5t-80.5 -79.5l-37 -25q-30 -25 -59 -38q24 8 53 8h54l16 31h72l-20 -108h-316z" />
    <glyph glyph-name="three.superscript" horiz-adv-x="365" 
d="M226 268q-67 0 -110 28t-60 71l92 42q19 -54 80 -54q28 0 46.5 18t18.5 44q0 29 -19 45.5t-52 16.5q-22 0 -48 -11l-13 20l79 71q13 12 28.5 24t24.5 18l9 6q-25 -5 -60 -5h-42l-19 -41h-70l21 119h298l-7 -43l-69 -69q-30 -29 -47 -32q39 -10 65.5 -41.5t26.5 -78.5
q0 -65 -46 -106.5t-127 -41.5z" />
    <glyph glyph-name="four.superscript" horiz-adv-x="406" 
d="M388 413h56l-14 -78h-56l-11 -60h-98l10 60h-204l12 74l251 278h101zM291 413l14 82q2 17 10 48.5t8 32.5q-24 -40 -48 -69l-46 -57q-8 -10 -20 -20.5t-21 -15.5l-8 -6q35 5 59 5h52z" />
    <glyph glyph-name="five.superscript" horiz-adv-x="380" 
d="M322 566l-6 35h-99l-12 -71q30 10 62 10q59 0 97 -31.5t38 -92.5q0 -65 -50.5 -106t-130.5 -41q-105 0 -154 91l86 46q29 -49 72 -49q29 0 49 16t20 40q0 26 -19 41.5t-50 15.5q-50 0 -95 -31l-21 13l39 228h260l-19 -114h-67z" />
    <glyph glyph-name="six.superscript" horiz-adv-x="391" 
d="M248 268q-69 0 -115.5 42.5t-46.5 102.5q0 65 58 134l111 133h120l-66 -79q-8 -10 -19 -20t-18.5 -16t-15.5 -12l-9 -6q18 6 37 6q55 0 96.5 -38t41.5 -94q0 -69 -49 -111t-125 -42zM250 352q27 0 47 19t20 49q0 27 -17 46t-45 19q-27 0 -46 -19t-19 -50q0 -27 16 -45.5
t44 -18.5z" />
    <glyph glyph-name="seven.superscript" horiz-adv-x="368" 
d="M89 275l208 324h-111l-20 -44h-72l23 125h317l-10 -54l-224 -351h-111z" />
    <glyph glyph-name="eight.superscript" horiz-adv-x="386" 
d="M245 268q-72 0 -117.5 33t-45.5 87q0 40 25 69t69 44q-42 25 -42 73q0 46 39.5 80t108.5 34q65 0 101.5 -30t36.5 -77q0 -64 -69 -88q62 -33 62 -92t-48.5 -96t-119.5 -37zM247 350q28 0 45.5 17t17.5 44q0 23 -16.5 38.5t-42.5 15.5q-29 0 -47.5 -18t-18.5 -45
q0 -24 17 -38t45 -14zM274 525q18 0 31.5 13t13.5 33q0 19 -12 32t-30 13q-20 0 -33 -12.5t-13 -32.5t12 -33t31 -13z" />
    <glyph glyph-name="nine.superscript" horiz-adv-x="391" 
d="M129 275l72 79q29 31 62 52q-12 -4 -34 -4q-55 0 -96 38t-41 94q0 70 48 111.5t123 41.5q70 0 117.5 -43.5t47.5 -102.5q0 -69 -61 -136l-118 -130h-120zM259 471q29 0 48 18.5t19 49.5q0 28 -17.5 46t-46.5 18t-48 -18.5t-19 -49.5q0 -28 17.5 -46t46.5 -18z" />
    <glyph glyph-name="A.alt" horiz-adv-x="705" 
d="M477 98l-11 74h-241l-39 -74h73l-17 -98h-251l17 98h49l260 484h-78l17 98h261l100 -582h52l-17 -98h-262l17 98h70zM340 391l-64 -122h175l-18 124q-5 32 -8.5 72t-5.5 64l-2 24q-40 -91 -77 -162z" />
    <glyph glyph-name="G.alt" horiz-adv-x="769" 
d="M440 363h307q-1 -167 -87 -269.5t-257 -102.5q-152 0 -247.5 90.5t-95.5 238.5q0 160 105.5 264t261.5 104q143 0 196 -85l30 77h93l-37 -212h-102q-19 53 -66.5 79.5t-110.5 26.5q-103 0 -166.5 -70t-63.5 -180q0 -101 54.5 -158.5t152.5 -57.5q81 0 131.5 40t64.5 108
h-182z" />
    <glyph glyph-name="M.alt" horiz-adv-x="837" 
d="M411 143h-27l-84 220l-39 117q0 -1 -4 -27t-10.5 -62.5t-12.5 -59.5l-57 -233h53l-18 -98h-221l17 98h54l120 484h-73l17 98h177l105 -269q8 -20 14 -40.5t8 -30.5l2 -10q17 31 53 79l204 271h193l-17 -98h-74l-43 -484h51l-16 -98h-249l17 98h62l21 231q1 17 22 151
q-24 -47 -66 -103z" />
    <glyph glyph-name="Q.alt1" horiz-adv-x="756" 
d="M60 306q0 165 105 273.5t261 108.5q136 0 228 -89.5t92 -225.5q0 -154 -90.5 -258t-232.5 -119l-26 -150h-126l27 157q-106 25 -172 107t-66 196zM200 318q0 -76 31 -127.5t87 -71.5l21 117h125l-21 -122q73 19 119 86t46 164q0 96 -52 153t-139 57q-91 0 -154 -72
t-63 -184z" />
    <glyph glyph-name="Q.alt2" horiz-adv-x="756" 
d="M219 34q-33 0 -56.5 -18.5t-45.5 -52.5l-90 78q35 56 99 84q-66 77 -66 185q0 161 105.5 270t260.5 109q136 0 228 -90t92 -226q0 -143 -78.5 -238t-206.5 -119l15 -15q35 -32 82 -32q53 0 84 42l83 -81q-61 -83 -166 -83q-37 0 -69.5 9t-62.5 29t-50.5 37.5t-52.5 47.5
q-26 25 -36 33.5t-30 19.5t-39 11zM200 318q0 -96 52 -153t139 -57q91 0 154 72t63 184q0 96 -52 153.5t-139 57.5q-91 0 -154 -72.5t-63 -184.5z" />
    <glyph glyph-name="Aacute.alt" horiz-adv-x="705" 
d="M392 758l80 188h158l-136 -188h-102zM477 98l-11 74h-241l-39 -74h73l-17 -98h-251l17 98h49l260 484h-78l17 98h261l100 -582h52l-17 -98h-262l17 98h70zM340 391l-64 -122h175l-18 124q-5 32 -8.5 72t-5.5 64l-2 24q-40 -91 -77 -162z" />
    <glyph glyph-name="Abreve.alt" horiz-adv-x="705" 
d="M440 758q-69 0 -110 39t-44 101l101 15q5 -57 54 -57q48 0 60 57l99 -15q-9 -62 -51 -101t-109 -39zM477 98l-11 74h-241l-39 -74h73l-17 -98h-251l17 98h49l260 484h-78l17 98h261l100 -582h52l-17 -98h-262l17 98h70zM340 391l-64 -122h175l-18 124q-5 32 -8.5 72
t-5.5 64l-2 24q-40 -91 -77 -162z" />
    <glyph glyph-name="Acircumflex.alt" horiz-adv-x="705" 
d="M275 758l193 216h11l117 -216h-102l-43 72l-67 -72h-109zM477 98l-11 74h-241l-39 -74h73l-17 -98h-251l17 98h49l260 484h-78l17 98h261l100 -582h52l-17 -98h-262l17 98h70zM340 391l-64 -122h175l-18 124q-5 32 -8.5 72t-5.5 64l-2 24q-40 -91 -77 -162z" />
    <glyph glyph-name="Adieresis.alt" horiz-adv-x="705" 
d="M558 766q-28 0 -50.5 22t-22.5 52t22.5 52t50.5 22q29 0 50.5 -22t21.5 -52t-21.5 -52t-50.5 -22zM348 766q-28 0 -50 22t-22 52t22 52t50 22q29 0 51 -22t22 -52t-22 -52t-51 -22zM477 98l-11 74h-241l-39 -74h73l-17 -98h-251l17 98h49l260 484h-78l17 98h261l100 -582
h52l-17 -98h-262l17 98h70zM340 391l-64 -122h175l-18 124q-5 32 -8.5 72t-5.5 64l-2 24q-40 -91 -77 -162z" />
    <glyph glyph-name="Agrave.alt" horiz-adv-x="705" 
d="M394 758l-91 188h152l39 -188h-100zM477 98l-11 74h-241l-39 -74h73l-17 -98h-251l17 98h49l260 484h-78l17 98h261l100 -582h52l-17 -98h-262l17 98h70zM340 391l-64 -122h175l-18 124q-5 32 -8.5 72t-5.5 64l-2 24q-40 -91 -77 -162z" />
    <glyph glyph-name="Amacron.alt" horiz-adv-x="705" 
d="M318 787l17 96h243l-17 -96h-243zM477 98l-11 74h-241l-39 -74h73l-17 -98h-251l17 98h49l260 484h-78l17 98h261l100 -582h52l-17 -98h-262l17 98h70zM340 391l-64 -122h175l-18 124q-5 32 -8.5 72t-5.5 64l-2 24q-40 -91 -77 -162z" />
    <glyph glyph-name="Aogonek.alt" horiz-adv-x="705" 
d="M545 -220q-49 0 -80.5 25t-31.5 71q0 61 83 124h-119l17 98h70l-11 74h-241l-39 -74h73l-17 -98h-251l17 98h49l260 484h-78l17 98h261l100 -582h52l-17 -98h-41q-80 -81 -80 -109q0 -22 23 -22q18 0 31 17l64 -51q-39 -55 -111 -55zM347 391l-64 -122h175l-18 124
q-5 32 -8.5 72t-5.5 64l-2 24q-40 -91 -77 -162z" />
    <glyph glyph-name="Aring.alt" horiz-adv-x="705" 
d="M452 732q-54 0 -90 35t-36 84t36 84t90 35t90 -35t36 -84t-36 -84t-90 -35zM452 799q20 0 33.5 14t13.5 38t-13.5 38t-33.5 14t-33.5 -14t-13.5 -38t13.5 -38t33.5 -14zM477 98l-11 74h-241l-39 -74h73l-17 -98h-251l17 98h49l260 484h-78l17 98h261l100 -582h52l-17 -98
h-262l17 98h70zM340 391l-64 -122h175l-18 124q-5 32 -8.5 72t-5.5 64l-2 24q-40 -91 -77 -162z" />
    <glyph glyph-name="Atilde.alt" horiz-adv-x="705" 
d="M361 758l-87 9q9 68 40 104t74 36q34 0 63 -20q5 -4 13.5 -10t12.5 -8.5t9 -4.5t10 -2q24 0 31 45l87 -9q-7 -68 -38.5 -104t-75.5 -36q-34 0 -63 20q-6 4 -14 9.5t-11.5 8.5t-9 5t-10.5 2q-24 0 -31 -45zM477 98l-11 74h-241l-39 -74h73l-17 -98h-251l17 98h49l260 484
h-78l17 98h261l100 -582h52l-17 -98h-262l17 98h70zM340 391l-64 -122h175l-18 124q-5 32 -8.5 72t-5.5 64l-2 24q-40 -91 -77 -162z" />
    <glyph glyph-name="Gbreve.alt" horiz-adv-x="769" 
d="M440 363h307q-1 -167 -87 -269.5t-257 -102.5q-152 0 -247.5 90.5t-95.5 238.5q0 160 105.5 264t261.5 104q143 0 196 -85l30 77h93l-37 -212h-102q-19 53 -66.5 79.5t-110.5 26.5q-103 0 -166.5 -70t-63.5 -180q0 -101 54.5 -158.5t152.5 -57.5q81 0 131.5 40t64.5 108
h-182zM457 758q-69 0 -110 39t-44 101l101 15q5 -57 54 -57q48 0 60 57l99 -15q-9 -62 -51 -101t-109 -39z" />
    <glyph glyph-name="Gcircumflex.alt" horiz-adv-x="769" 
d="M440 363h307q-1 -167 -87 -269.5t-257 -102.5q-152 0 -247.5 90.5t-95.5 238.5q0 160 105.5 264t261.5 104q143 0 196 -85l30 77h93l-37 -212h-102q-19 53 -66.5 79.5t-110.5 26.5q-103 0 -166.5 -70t-63.5 -180q0 -101 54.5 -158.5t152.5 -57.5q81 0 131.5 40t64.5 108
h-182zM299 758l193 216h11l117 -216h-102l-43 72l-67 -72h-109z" />
    <glyph glyph-name="Gcommaaccent.alt" horiz-adv-x="769" 
d="M268 -283l48 99q-40 21 -40 68q0 31 22.5 52.5t52.5 21.5q31 0 53.5 -21t22.5 -52q0 -39 -33 -85l-62 -83h-64zM440 363h307q-1 -167 -87 -269.5t-257 -102.5q-152 0 -247.5 90.5t-95.5 238.5q0 160 105.5 264t261.5 104q143 0 196 -85l30 77h93l-37 -212h-102
q-19 53 -66.5 79.5t-110.5 26.5q-103 0 -166.5 -70t-63.5 -180q0 -101 54.5 -158.5t152.5 -57.5q81 0 131.5 40t64.5 108h-182z" />
    <glyph glyph-name="Gdotaccent.alt" horiz-adv-x="769" 
d="M440 363h307q-1 -167 -87 -269.5t-257 -102.5q-152 0 -247.5 90.5t-95.5 238.5q0 160 105.5 264t261.5 104q143 0 196 -85l30 77h93l-37 -212h-102q-19 53 -66.5 79.5t-110.5 26.5q-103 0 -166.5 -70t-63.5 -180q0 -101 54.5 -158.5t152.5 -57.5q81 0 131.5 40t64.5 108
h-182zM458 756q-28 0 -50 22t-22 52t22 52t50 22q29 0 51 -22t22 -52t-22 -52t-51 -22z" />
    <glyph glyph-name="e.alt" horiz-adv-x="505" 
d="M170 161q16 -69 98 -69q63 0 104 37l70 -80q-74 -58 -183 -58q-104 0 -164 58.5t-60 152.5q0 106 68.5 169.5t162.5 63.5q102 0 156 -65.5t56 -176.5zM169 237l173 19q-2 37 -22.5 59t-56.5 22q-37 0 -63.5 -27t-30.5 -73z" />
    <glyph glyph-name="eacute.alt" horiz-adv-x="505" 
d="M170 161q16 -69 98 -69q63 0 104 37l70 -80q-74 -58 -183 -58q-104 0 -164 58.5t-60 152.5q0 106 68.5 169.5t162.5 63.5q102 0 156 -65.5t56 -176.5zM169 237l173 19q-2 37 -22.5 59t-56.5 22q-37 0 -63.5 -27t-30.5 -73zM243 500l80 188h158l-136 -188h-102z" />
    <glyph glyph-name="ebreve.alt" horiz-adv-x="505" 
d="M170 161q16 -69 98 -69q63 0 104 37l70 -80q-74 -58 -183 -58q-104 0 -164 58.5t-60 152.5q0 106 68.5 169.5t162.5 63.5q102 0 156 -65.5t56 -176.5zM169 237l173 19q-2 37 -22.5 59t-56.5 22q-37 0 -63.5 -27t-30.5 -73zM284 500q-69 0 -110 39t-44 101l101 15
q5 -57 54 -57q48 0 60 57l99 -15q-9 -62 -51 -101t-109 -39z" />
    <glyph glyph-name="ecaron.alt" horiz-adv-x="505" 
d="M170 161q16 -69 98 -69q63 0 104 37l70 -80q-74 -58 -183 -58q-104 0 -164 58.5t-60 152.5q0 106 68.5 169.5t162.5 63.5q102 0 156 -65.5t56 -176.5zM169 237l173 19q-2 37 -22.5 59t-56.5 22q-37 0 -63.5 -27t-30.5 -73zM282 480l-117 217h102l43 -73l67 73h109
l-193 -217h-11z" />
    <glyph glyph-name="ecircumflex.alt" horiz-adv-x="505" 
d="M170 161q16 -69 98 -69q63 0 104 37l70 -80q-74 -58 -183 -58q-104 0 -164 58.5t-60 152.5q0 106 68.5 169.5t162.5 63.5q102 0 156 -65.5t56 -176.5zM169 237l173 19q-2 37 -22.5 59t-56.5 22q-37 0 -63.5 -27t-30.5 -73zM121 500l193 216h11l117 -216h-102l-43 72
l-67 -72h-109z" />
    <glyph glyph-name="edieresis.alt" horiz-adv-x="505" 
d="M170 161q16 -69 98 -69q63 0 104 37l70 -80q-74 -58 -183 -58q-104 0 -164 58.5t-60 152.5q0 106 68.5 169.5t162.5 63.5q102 0 156 -65.5t56 -176.5zM169 237l173 19q-2 37 -22.5 59t-56.5 22q-37 0 -63.5 -27t-30.5 -73zM415 508q-28 0 -50.5 22t-22.5 52t22.5 52
t50.5 22q29 0 50.5 -22t21.5 -52t-21.5 -52t-50.5 -22zM205 508q-28 0 -50 22t-22 52t22 52t50 22q29 0 51 -22t22 -52t-22 -52t-51 -22z" />
    <glyph glyph-name="edotaccent.alt" horiz-adv-x="505" 
d="M170 161q16 -69 98 -69q63 0 104 37l70 -80q-74 -58 -183 -58q-104 0 -164 58.5t-60 152.5q0 106 68.5 169.5t162.5 63.5q102 0 156 -65.5t56 -176.5zM169 237l173 19q-2 37 -22.5 59t-56.5 22q-37 0 -63.5 -27t-30.5 -73zM300 508q-28 0 -50 22t-22 52t22 52t50 22
q29 0 51 -22t22 -52t-22 -52t-51 -22z" />
    <glyph glyph-name="egrave.alt" horiz-adv-x="505" 
d="M170 161q16 -69 98 -69q63 0 104 37l70 -80q-74 -58 -183 -58q-104 0 -164 58.5t-60 152.5q0 106 68.5 169.5t162.5 63.5q102 0 156 -65.5t56 -176.5zM169 237l173 19q-2 37 -22.5 59t-56.5 22q-37 0 -63.5 -27t-30.5 -73zM235 500l-91 188h152l39 -188h-100z" />
    <glyph glyph-name="emacron.alt" horiz-adv-x="505" 
d="M170 161q16 -69 98 -69q63 0 104 37l70 -80q-74 -58 -183 -58q-104 0 -164 58.5t-60 152.5q0 106 68.5 169.5t162.5 63.5q102 0 156 -65.5t56 -176.5zM169 237l173 19q-2 37 -22.5 59t-56.5 22q-37 0 -63.5 -27t-30.5 -73zM169 529l17 96h243l-17 -96h-243z" />
    <glyph glyph-name="eogonek.alt" horiz-adv-x="505" 
d="M169 237l173 19q-2 37 -22.5 59t-56.5 22q-37 0 -63.5 -27t-30.5 -73zM260 -9h-5q-98 0 -159 59.5t-61 151.5q0 106 68.5 169.5t162.5 63.5q102 0 156 -65.5t56 -176.5l-308 -32q16 -69 98 -69q63 0 104 37l70 -80q-10 -9 -45.5 -31.5t-55.5 -42.5q-56 -56 -56 -84
q0 -22 23 -22q18 0 31 17l64 -51q-39 -55 -111 -55q-49 0 -80.5 25t-31.5 71q0 60 80 115z" />
    <glyph glyph-name="y.alt" horiz-adv-x="560" 
d="M530 426l-79 -450q-35 -198 -244 -198q-127 0 -193 82l87 84q42 -55 110 -55q91 0 110 102l14 76q-30 -40 -61 -58t-73 -18q-71 0 -107.5 54.5t-20.5 142.5l24 140h-66l17 98h198l-43 -242q-7 -42 9.5 -64t51.5 -22q77 0 94 97l25 138h-78l15 93h210z" />
    <glyph glyph-name="yacute.alt" horiz-adv-x="560" 
d="M530 426l-79 -450q-35 -198 -244 -198q-127 0 -193 82l87 84q42 -55 110 -55q91 0 110 102l14 76q-30 -40 -61 -58t-73 -18q-71 0 -107.5 54.5t-20.5 142.5l24 140h-66l17 98h198l-43 -242q-7 -42 9.5 -64t51.5 -22q77 0 94 97l25 138h-78l15 93h210zM249 500l80 188h158
l-136 -188h-102z" />
    <glyph glyph-name="ydieresis.alt" horiz-adv-x="560" 
d="M530 426l-79 -450q-35 -198 -244 -198q-127 0 -193 82l87 84q42 -55 110 -55q91 0 110 102l14 76q-30 -40 -61 -58t-73 -18q-71 0 -107.5 54.5t-20.5 142.5l24 140h-66l17 98h198l-43 -242q-7 -42 9.5 -64t51.5 -22q77 0 94 97l25 138h-78l15 93h210zM421 508
q-28 0 -50.5 22t-22.5 52t22.5 52t50.5 22q29 0 50.5 -22t21.5 -52t-21.5 -52t-50.5 -22zM211 508q-28 0 -50 22t-22 52t22 52t50 22q29 0 51 -22t22 -52t-22 -52t-51 -22z" />
    <glyph glyph-name="ae.alt" horiz-adv-x="773" 
d="M190 -9q-75 0 -122.5 32t-47.5 93q0 130 184 130h106l1 6q6 36 -11.5 58t-56.5 22q-58 0 -100 -36l-64 82q64 57 166 57q100 0 142 -57q57 57 147 57q102 0 156 -65.5t56 -176.5l-308 -32q16 -69 98 -69q63 0 104 37l70 -80q-74 -58 -179 -58q-122 0 -171 83
q-53 -83 -170 -83zM210 85q36 0 57 17.5t26 46.5l4 26h-95q-24 0 -39 -11.5t-15 -29.5q0 -49 62 -49zM437 237l173 19q-2 37 -22.5 59t-56.5 22q-37 0 -63.5 -27t-30.5 -73z" />
    <glyph glyph-name="oe.alt" horiz-adv-x="832" 
d="M261 92q46 0 75 35.5t29 91.5q0 52 -24.5 82.5t-68.5 30.5q-46 0 -75 -35.5t-29 -91.5q0 -52 24 -82.5t69 -30.5zM496 237l173 19q-2 37 -22.5 59t-56.5 22q-37 0 -63.5 -27t-30.5 -73zM497 161q16 -69 98 -69q63 0 104 37l70 -80q-74 -58 -179 -58q-110 0 -166 77
q-64 -77 -169 -77q-94 0 -157 60t-63 152q0 103 69 167.5t170 64.5q99 0 158 -77q62 77 165 77q100 0 153 -65.5t55 -176.5z" />
    <glyph glyph-name="f_b.alt" horiz-adv-x="860" 
d="M335 0l92 539q16 93 -65 93q-78 0 -94 -91l-20 -115h93l-17 -99h-93l-75 -424q-13 -73 -43.5 -94t-103.5 -21h-67l16 93h40q12 0 18 5t9 20l74 421h-70l17 99h70l23 127q33 182 230 182q108 0 157 -55t32 -149l-29 -166q50 70 130 70q70 0 118 -55t48 -149
q0 -106 -61 -173t-141 -67q-104 0 -148 88l-28 -79h-112zM583 93q47 0 75.5 38.5t28.5 101.5q0 47 -22 73t-61 26q-45 0 -74.5 -36t-29.5 -93q0 -51 22 -80.5t61 -29.5z" />
    <glyph glyph-name="f_f_b.alt" horiz-adv-x="1153" 
d="M876 93q47 0 75.5 38.5t28.5 101.5q0 47 -22 73t-61 26q-45 0 -74.5 -36t-29.5 -93q0 -51 22 -80.5t61 -29.5zM524 327l-71 -399q-13 -73 -43.5 -94t-103.5 -21h-61l16 93h34q12 0 18 5t9 20l70 396h-161l-75 -424q-13 -73 -43.5 -94t-103.5 -21h-67l16 93h40q12 0 18 5
t9 20l74 421h-70l17 99h70l24 132q14 78 53 117.5t111 39.5q60 0 98 -33l-55 -89q-17 14 -35 14q-31 0 -39 -42l-25 -139h161l23 127q33 182 230 182q108 0 157 -55t32 -149l-29 -166q50 70 130 70q70 0 118 -55t48 -149q0 -106 -61 -173t-141 -67q-104 0 -148 88l-28 -79
h-112l92 539q16 93 -65 93q-78 0 -94 -91l-20 -115h93l-17 -99h-93z" />
    <glyph glyph-name="f_f_f_l.alt" horiz-adv-x="1162" 
d="M834 426h93l-17 -99h-93l-67 -376q-13 -73 -43.5 -94t-103.5 -21h-61l16 93h34q12 0 18 5t9 20l66 373h-162l-71 -399q-13 -73 -43.5 -94t-103.5 -21h-61l16 93h34q12 0 18 5t9 20l70 396h-161l-75 -424q-13 -73 -43.5 -94t-103.5 -21h-67l16 93h40q12 0 18 5t9 20
l74 421h-70l17 99h70l20 111q14 78 53 117.5t111 39.5q61 0 98 -33l-55 -89q-17 14 -35 14q-31 0 -39 -42l-21 -118h161l24 132q14 78 53 117.5t111 39.5q60 0 98 -33l-55 -89q-17 14 -35 14q-31 0 -39 -42l-25 -139h162l23 127q33 182 230 182q108 0 157 -55t32 -149
l-71 -410q-4 -23 18 -23h38l-17 -98h-58q-75 0 -100 25t-13 98l72 416q16 93 -65 93q-78 0 -94 -91z" />
    <glyph glyph-name="f_f_h.alt" horiz-adv-x="1142" 
d="M851 531l-32 -182q52 86 138 86q71 0 107.5 -55t20.5 -144l-20 -115q-4 -23 18 -23h30l-17 -98h-50q-77 0 -101.5 25t-11.5 98l21 119q15 86 -60 86q-76 0 -93 -97l-41 -231h-132l92 539q16 93 -65 93q-78 0 -94 -91l-20 -115h93l-17 -99h-93l-71 -399q-13 -73 -43.5 -94
t-103.5 -21h-61l16 93h34q12 0 18 5t9 20l70 396h-161l-75 -424q-13 -73 -43.5 -94t-103.5 -21h-67l16 93h40q12 0 18 5t9 20l74 421h-70l17 99h70l24 132q14 78 53 117.5t111 39.5q60 0 98 -33l-55 -89q-17 14 -35 14q-31 0 -39 -42l-25 -139h161l23 127q33 182 230 182
q108 0 157 -55t32 -149z" />
    <glyph glyph-name="f_f_k.alt" horiz-adv-x="1105" 
d="M851 531l-39 -224q-10 -61 -24 -102l135 123h-48l17 98h220l-17 -98h-41l-110 -104l54 -104q8 -14 14.5 -18t19.5 -4h31l-17 -98h-56q-47 0 -65 14.5t-42 62.5l-37 74l-70 -60l-16 -91h-132l92 539q16 93 -65 93q-78 0 -94 -91l-20 -115h93l-17 -99h-93l-71 -399
q-13 -73 -43.5 -94t-103.5 -21h-61l16 93h34q12 0 18 5t9 20l70 396h-161l-75 -424q-13 -73 -43.5 -94t-103.5 -21h-67l16 93h40q12 0 18 5t9 20l74 421h-70l17 99h70l24 132q14 78 53 117.5t111 39.5q60 0 98 -33l-55 -89q-17 14 -35 14q-31 0 -39 -42l-25 -139h161l23 127
q33 182 230 182q108 0 156.5 -55t32.5 -149z" />
    <glyph glyph-name="ffl.alt" horiz-adv-x="869" 
d="M851 531l-70 -410q-4 -23 18 -23h38l-17 -98h-58q-75 0 -100 25t-13 98l71 416q16 93 -65 93q-78 0 -94 -91l-20 -115h93l-17 -99h-93l-71 -399q-13 -73 -43.5 -94t-103.5 -21h-61l16 93h34q12 0 18 5t9 20l70 396h-161l-75 -424q-13 -73 -43.5 -94t-103.5 -21h-67l16 93
h40q12 0 18 5t9 20l74 421h-70l17 99h70l24 132q14 78 53 117.5t111 39.5q60 0 98 -33l-55 -89q-17 14 -35 14q-31 0 -39 -42l-25 -139h161l23 127q33 182 230 182q108 0 156.5 -55t32.5 -149z" />
    <glyph glyph-name="f_h.alt" horiz-adv-x="849" 
d="M335 0l92 539q16 93 -65 93q-78 0 -94 -91l-20 -115h93l-17 -99h-93l-75 -424q-13 -73 -43.5 -94t-103.5 -21h-67l16 93h40q12 0 18 5t9 20l74 421h-70l17 99h70l23 127q33 182 230 182q108 0 157 -55t32 -149l-32 -182q52 86 138 86q71 0 107.5 -55t20.5 -144l-20 -115
q-4 -23 18 -23h30l-17 -98h-50q-77 0 -101.5 25t-11.5 98l21 119q15 86 -60 86q-76 0 -93 -97l-41 -231h-132z" />
    <glyph glyph-name="f_k.alt" horiz-adv-x="812" 
d="M558 531l-39 -224q-10 -61 -24 -102l135 123h-48l17 98h220l-17 -98h-41l-110 -104l54 -104q8 -14 14.5 -18t19.5 -4h31l-17 -98h-56q-47 0 -65 14.5t-42 62.5l-37 74l-70 -60l-16 -91h-132l92 539q16 93 -65 93q-78 0 -94 -91l-20 -115h93l-17 -99h-93l-75 -424
q-13 -73 -43.5 -94t-103.5 -21h-67l16 93h40q12 0 18 5t9 20l74 421h-70l17 99h70l23 127q33 182 230 182q108 0 157 -55t32 -149z" />
    <glyph glyph-name="fl.alt" horiz-adv-x="576" 
d="M558 531l-71 -410q-4 -23 18 -23h38l-17 -98h-58q-75 0 -100 25t-13 98l72 416q16 93 -65 93q-78 0 -94 -91l-20 -115h93l-17 -99h-93l-75 -424q-13 -73 -43.5 -94t-103.5 -21h-67l16 93h40q12 0 18 5t9 20l74 421h-70l17 99h70l23 127q33 182 230 182q108 0 157 -55
t32 -149z" />
    <glyph glyph-name="space.up" horiz-adv-x="206" 
 />
    <glyph glyph-name="hyphen.up" horiz-adv-x="312" 
d="M36 216l20 116h245l-20 -116h-245z" />
    <glyph glyph-name="endash.up" horiz-adv-x="450" 
d="M36 234l18 96h388l-18 -96h-388z" />
    <glyph glyph-name="emdash.up" horiz-adv-x="726" 
d="M36 234l18 96h664l-18 -96h-664z" />
    <glyph glyph-name="guilsinglleft.up" horiz-adv-x="301" 
d="M114 92l-72 164v8l123 169h130l-128 -175l73 -166h-126z" />
    <glyph glyph-name="guilsinglright.up" horiz-adv-x="290" 
d="M17 92l128 175l-73 166h126l72 -164v-8l-123 -169h-130z" />
    <glyph glyph-name="guillemotleft.up" horiz-adv-x="508" 
d="M321 92l-72 164v8l123 169h130l-128 -175l73 -166h-126zM114 92l-72 164v8l123 169h130l-128 -175l73 -166h-126z" />
    <glyph glyph-name="guillemotright.up" horiz-adv-x="500" 
d="M224 92l128 175l-73 166h126l72 -164v-8l-123 -169h-130zM17 92l128 175l-73 166h126l72 -164v-8l-123 -169h-130z" />
    <glyph glyph-name="exclamdown.up" horiz-adv-x="269" 
d="M234 449l-63 -449h-148l109 449h102zM204 686q34 0 57.5 -23.5t23.5 -59.5q0 -35 -23.5 -59t-57.5 -24t-58 24t-24 59q0 36 24 59.5t58 23.5z" />
    <glyph glyph-name="questiondown.up" horiz-adv-x="493" 
d="M352 449l-26 -149h-35q-59 0 -89.5 -31.5t-30.5 -77.5q0 -40 22.5 -64.5t63.5 -24.5q64 0 101 70l100 -59q-27 -53 -82.5 -87.5t-124.5 -34.5q-101 0 -156 53t-55 139q0 84 52 138.5t126 64.5l11 63h123zM315 686q34 0 57.5 -23.5t23.5 -59.5q0 -35 -24 -59t-57 -24
q-34 0 -58 24t-24 59q0 36 24 59.5t58 23.5z" />
    <glyph glyph-name="copyright.up" horiz-adv-x="753" 
d="M409 -5q-142 0 -245.5 99.5t-103.5 246.5q0 148 103.5 247.5t245.5 99.5q141 0 242.5 -99.5t101.5 -247.5q0 -147 -101.5 -246.5t-242.5 -99.5zM409 54q118 0 199.5 80t81.5 208t-81.5 208t-199.5 80q-121 0 -204 -80t-83 -208t83 -208t204 -80zM560 384h-82
q-10 54 -69 54q-36 0 -60 -30t-24 -77q0 -48 24.5 -74t66.5 -26q46 0 85 41l65 -67q-62 -67 -160 -67q-90 0 -145.5 51.5t-55.5 139.5q0 93 57.5 147t132.5 54q69 0 97 -43l20 39h73z" />
    <glyph glyph-name="at.up" horiz-adv-x="902" 
d="M448 172q35 0 57.5 29t22.5 75q0 41 -17.5 66.5t-48.5 25.5q-33 0 -54.5 -29t-21.5 -78q0 -89 62 -89zM462 -127q-190 0 -301.5 109.5t-111.5 279.5q0 127 60 225.5t158 149.5t214 51q181 0 289 -104t108 -258q0 -124 -58 -187t-148 -63q-110 0 -128 79
q-20 -41 -53.5 -62.5t-71.5 -21.5q-80 0 -124 51t-44 137q0 93 58.5 152.5t132.5 59.5q45 0 73 -22t40 -56l14 68h113l-39 -219q-15 -78 43 -78q36 0 60 40t24 127q0 129 -80.5 200.5t-208.5 71.5q-138 0 -227 -95t-89 -248q0 -136 78.5 -216.5t222.5 -80.5q81 0 153 25
l33 -83q-75 -32 -190 -32z" />
    <glyph glyph-name="A.sc" horiz-adv-x="567" 
d="M363 98l-7 45h-170l-22 -45h43l-18 -98h-204l16 98h42l175 324h-49l18 100h305l-18 -100h-44l58 -324h44l-16 -98h-210l18 98h39zM256 288l-30 -61h117l-9 61l-15 138q-40 -92 -63 -138z" />
    <glyph glyph-name="B.sc" horiz-adv-x="530" 
d="M85 422l18 100h236q80 0 120.5 -36t40.5 -91q0 -97 -104 -122q43 -9 69 -37.5t26 -70.5q0 -75 -54.5 -120t-152.5 -45h-271l16 98h52l57 324h-53zM208 100h78q34 0 55.5 19t21.5 51q0 26 -16 44t-45 18h-71zM245 311h68q27 0 44.5 16.5t17.5 41.5q0 52 -53 52h-58z" />
    <glyph glyph-name="C.sc" horiz-adv-x="595" 
d="M188 254q0 -69 34.5 -111.5t103.5 -42.5q75 0 121 67l99 -70q-74 -106 -224 -106q-121 0 -197 70t-76 183q0 133 83 210t192 77q98 0 137 -56l22 47h88l-32 -196h-93q-17 98 -115 98q-61 0 -102 -47t-41 -123z" />
    <glyph glyph-name="D.sc" horiz-adv-x="607" 
d="M85 422l18 100h223q111 0 180 -64.5t69 -181.5q0 -121 -83.5 -198.5t-208.5 -77.5h-270l16 98h52l57 324h-53zM211 102h67q76 0 117.5 50.5t41.5 131.5q0 65 -33 100.5t-93 35.5h-43z" />
    <glyph glyph-name="E.sc" horiz-adv-x="521" 
d="M405 359l-7 62h-133l-20 -110h162l-17 -95h-161l-20 -114h143l29 65h87l-29 -167h-426l16 98h52l57 324h-53l18 100h415l-28 -163h-85z" />
    <glyph glyph-name="F.sc" horiz-adv-x="501" 
d="M406 359l-7 62h-131l-23 -128h172l-16 -95h-173l-18 -100h59l-16 -98h-240l16 98h52l57 324h-53l18 100h416l-28 -163h-85z" />
    <glyph glyph-name="G.sc" horiz-adv-x="615" 
d="M532 342h-92q-19 84 -101 84q-68 0 -112 -51.5t-44 -131.5q0 -64 34 -106.5t92 -42.5q67 0 110 30l11 64h-106l15 92h233l-49 -280h-92l-5 41q-48 -50 -143 -50q-106 0 -172.5 73t-66.5 179q0 127 86.5 207.5t200.5 80.5q85 0 126 -48l19 39h87z" />
    <glyph glyph-name="H.sc" horiz-adv-x="653" 
d="M345 0l15 98h45l21 114h-195l-21 -114h45l-16 -98h-226l16 98h52l57 324h-53l18 100h226l-18 -100h-43l-20 -112h195l20 112h-46l18 100h228l-18 -100h-52l-57 -324h53l-16 -98h-228z" />
    <glyph glyph-name="I.sc" horiz-adv-x="337" 
d="M85 422l18 100h244l-18 -100h-54l-57 -324h55l-16 -98h-244l16 98h54l57 324h-55z" />
    <glyph glyph-name="J.sc" horiz-adv-x="431" 
d="M193 422l18 100h247l-18 -100h-50l-48 -272q-15 -87 -61 -123t-126 -36q-126 0 -168 113l105 53q21 -61 62 -61q44 0 54 58l47 268h-62z" />
    <glyph glyph-name="K.sc" horiz-adv-x="595" 
d="M368 427l17 95h230l-18 -100h-48l-152 -131l101 -193h53l-16 -98h-184l13 82l-66 129l-79 -66l-9 -47h45l-16 -98h-226l16 98h52l57 324h-53l18 100h227l-18 -95h-46l-9 -50q-14 -77 -36 -135q49 60 109 113l83 72h-45z" />
    <glyph glyph-name="L.sc" horiz-adv-x="487" 
d="M85 422l18 100h238l-18 -100h-51l-57 -320h137l31 75h87l-31 -177h-426l16 98h52l57 324h-53z" />
    <glyph glyph-name="M.sc" horiz-adv-x="728" 
d="M424 0l16 98h47l22 118l30 125q-34 -55 -72 -104l-103 -133h-32l-67 137q-23 46 -36 98q0 -50 -13 -126l-20 -115h45l-16 -98h-212l16 98h52l57 324h-53l18 100h145l127 -266l197 266h166l-18 -100h-52l-57 -324h53l-16 -98h-224z" />
    <glyph glyph-name="N.sc" horiz-adv-x="605" 
d="M399 422l18 100h213l-18 -100h-52l-75 -422h-83l-135 230q-25 40 -44 88q0 -61 -9 -106l-21 -114h45l-16 -98h-209l16 98h52l57 324h-53l18 100h132l131 -222q22 -38 51 -110q0 75 9 126l19 106h-46z" />
    <glyph glyph-name="O.sc" horiz-adv-x="636" 
d="M307 -9q-111 0 -184.5 72.5t-73.5 183.5q0 128 88 206t208 78q111 0 185 -72.5t74 -182.5q0 -128 -88.5 -206.5t-208.5 -78.5zM318 100q63 0 105 48t42 125q0 70 -34.5 110t-94.5 40q-63 0 -105.5 -48t-42.5 -125q0 -71 34.5 -110.5t95.5 -39.5z" />
    <glyph glyph-name="P.sc" horiz-adv-x="532" 
d="M85 422l18 100h221q93 0 147 -40.5t54 -123.5q0 -99 -61 -146.5t-166 -47.5h-76l-12 -66h57l-16 -98h-238l16 98h52l57 324h-53zM240 264h63q45 0 68.5 22.5t23.5 62.5q0 33 -21.5 53t-60.5 20h-46z" />
    <glyph glyph-name="Q.sc" horiz-adv-x="643" 
d="M604 276q0 -106 -70 -188h91l-16 -88h-142l-25 25q-50 -34 -132 -34q-116 0 -188.5 72t-72.5 184q0 129 87.5 206.5t207.5 77.5q112 0 186 -72.5t74 -182.5zM378 245l72 -75q19 43 19 101q0 69 -37 110.5t-97 41.5q-63 0 -107 -49.5t-44 -126.5q0 -69 38 -110.5t99 -41.5
q23 0 46 5l-71 73z" />
    <glyph glyph-name="R.sc" horiz-adv-x="565" 
d="M369 0l-81 176h-64l-14 -78h45l-16 -98h-226l16 98h52l57 324h-53l18 100h231q94 0 147.5 -42.5t53.5 -122.5q0 -63 -34.5 -104.5t-88.5 -59.5l45 -95h62l-16 -98h-134zM241 268h58q107 0 107 86q0 33 -23 50.5t-63 17.5h-52z" />
    <glyph glyph-name="S.sc" horiz-adv-x="469" 
d="M454 522l-26 -152h-80q-15 63 -79 63q-60 0 -60 -40q0 -27 51 -54l24 -13q79 -43 107.5 -82.5t28.5 -92.5q0 -78 -49.5 -119.5t-125.5 -41.5q-99 0 -143 57l-21 -47h-73l28 163h82q21 -75 110 -75q34 0 51 14.5t17 36.5q0 20 -13 35t-49 35l-24 13q-65 35 -93 71.5
t-28 90.5q0 59 43.5 103t127.5 44q70 0 103 -45l18 36h73z" />
    <glyph glyph-name="T.sc" horiz-adv-x="510" 
d="M425 353l-4 67h-61l-56 -322h52l-16 -98h-239l16 98h52l57 322h-62l-27 -67h-86l30 169h458l-30 -169h-84z" />
    <glyph glyph-name="U.sc" horiz-adv-x="612" 
d="M394 422l18 100h220l-18 -100h-51l-44 -248q-32 -183 -226 -183q-116 0 -171 62t-37 162l36 207h-52l18 100h227l-18 -100h-45l-39 -220q-8 -48 15 -77t72 -29q46 0 69 25t32 74l40 227h-46z" />
    <glyph glyph-name="V.sc" horiz-adv-x="573" 
d="M377 422l18 100h212l-18 -100h-40l-251 -422h-87l-108 422h-43l18 100h231l-18 -100h-49l25 -121q17 -80 17 -151q17 60 62 137l78 135h-47z" />
    <glyph glyph-name="W.sc" horiz-adv-x="765" 
d="M804 522l-18 -100h-36l-214 -422h-59l-44 179q-25 97 -25 148q-20 -59 -68 -138l-115 -189h-55l-76 422h-37l18 100h214l-18 -100h-44l12 -88q7 -46 7 -142q15 52 59 130l114 200h47l47 -188q22 -91 22 -142q21 64 49 124l50 106h-44l18 100h196z" />
    <glyph glyph-name="X.sc" horiz-adv-x="565" 
d="M271 0l16 98h46l-24 45q-32 59 -39 86q-16 -31 -47 -77l-38 -54h44l-16 -98h-220l16 98h53l148 185l-78 139h-50l18 100h220l-18 -100h-32l17 -33q20 -39 32 -75q21 41 45 72l27 36h-31l18 100h200l-18 -100h-51l-127 -157l91 -167h50l-16 -98h-236z" />
    <glyph glyph-name="Y.sc" horiz-adv-x="517" 
d="M340 422l18 100h199l-22 -100h-34l-172 -237l-16 -87h53l-16 -98h-239l16 98h52l16 93l-101 231h-37l18 100h211l-18 -100h-39l22 -58q15 -39 30 -100q6 19 63 104l36 54h-40z" />
    <glyph glyph-name="Z.sc" horiz-adv-x="510" 
d="M77 359l29 163h409l-9 -54l-306 -369h142l30 78h88l-30 -177h-427l9 54l304 369h-125l-26 -64h-88z" />
    <glyph glyph-name="Oslash.sc" horiz-adv-x="636" 
d="M307 -9q-96 0 -165 55l-68 -58l-55 64l67 58q-37 60 -37 137q0 128 88 206t208 78q94 0 165 -55l64 55l55 -64l-63 -55q38 -62 38 -136q0 -128 -88.5 -206.5t-208.5 -78.5zM318 100q65 0 108.5 48t43.5 125q0 28 -6 52l-232 -201q31 -24 86 -24zM183 250q0 -33 5 -52
l232 200q-34 25 -84 25q-66 0 -109.5 -48t-43.5 -125z" />
    <glyph glyph-name="AE.sc" horiz-adv-x="799" 
d="M717 0h-413l15 98h40l8 45h-157l-34 -45h41l-17 -98h-212l16 98h46l260 324h-53l18 100h521l-28 -163h-85l-7 62h-133l-20 -110h162l-17 -95h-161l-20 -114h143l29 65h87zM358 336l-84 -109h108l16 92q14 79 22 108q-16 -32 -62 -91z" />
    <glyph glyph-name="OE.sc" horiz-adv-x="793" 
d="M343 522h447l-28 -163h-85l-7 62h-133l-20 -110h162l-17 -95h-161l-20 -114h143l29 65h87l-29 -167h-411q-111 0 -181 64.5t-70 181.5q0 121 84.5 198.5t209.5 77.5zM410 421h-62q-76 0 -118.5 -51t-42.5 -132q0 -65 34 -100.5t94 -35.5h38z" />
    <glyph glyph-name="Eth.sc" horiz-adv-x="607" 
d="M71 306h46l21 116h-53l18 100h223q111 0 180 -64.5t69 -181.5q0 -121 -83.5 -198.5t-208.5 -77.5h-270l16 98h52l20 117h-46zM265 420l-21 -114h109l-16 -91h-109l-20 -113h70q76 0 117.5 50.5t41.5 131.5q0 65 -33 100.5t-93 35.5h-46z" />
    <glyph glyph-name="Dcroat.sc" horiz-adv-x="607" 
d="M71 306h46l21 116h-53l18 100h223q111 0 180 -64.5t69 -181.5q0 -121 -83.5 -198.5t-208.5 -77.5h-270l16 98h52l20 117h-46zM265 420l-21 -114h109l-16 -91h-109l-20 -113h70q76 0 117.5 50.5t41.5 131.5q0 65 -33 100.5t-93 35.5h-46z" />
    <glyph glyph-name="dotlessi.sc" horiz-adv-x="337" 
d="M85 422l18 100h244l-18 -100h-54l-57 -324h55l-16 -98h-244l16 98h54l57 324h-55z" />
    <glyph glyph-name="Aacute.sc" horiz-adv-x="567" 
d="M363 98l-7 45h-170l-22 -45h43l-18 -98h-204l16 98h42l175 324h-49l18 100h305l-18 -100h-44l58 -324h44l-16 -98h-210l18 98h39zM256 288l-30 -61h117l-9 61l-15 138q-40 -92 -63 -138zM289 584l80 188h158l-136 -188h-102z" />
    <glyph glyph-name="Abreve.sc" horiz-adv-x="567" 
d="M363 98l-7 45h-170l-22 -45h43l-18 -98h-204l16 98h42l175 324h-49l18 100h305l-18 -100h-44l58 -324h44l-16 -98h-210l18 98h39zM256 288l-30 -61h117l-9 61l-15 138q-40 -92 -63 -138zM354 584q-69 0 -110 39t-44 101l101 15q5 -57 54 -57q48 0 60 57l99 -15
q-9 -62 -51 -101t-109 -39z" />
    <glyph glyph-name="Acircumflex.sc" horiz-adv-x="567" 
d="M363 98l-7 45h-170l-22 -45h43l-18 -98h-204l16 98h42l175 324h-49l18 100h305l-18 -100h-44l58 -324h44l-16 -98h-210l18 98h39zM256 288l-30 -61h117l-9 61l-15 138q-40 -92 -63 -138zM182 584l193 216h11l117 -216h-102l-43 72l-67 -72h-109z" />
    <glyph glyph-name="Adieresis.sc" horiz-adv-x="567" 
d="M363 98l-7 45h-170l-22 -45h43l-18 -98h-204l16 98h42l175 324h-49l18 100h305l-18 -100h-44l58 -324h44l-16 -98h-210l18 98h39zM256 288l-30 -61h117l-9 61l-15 138q-40 -92 -63 -138zM464 592q-28 0 -50.5 22t-22.5 52t22.5 52t50.5 22q29 0 50.5 -22t21.5 -52
t-21.5 -52t-50.5 -22zM254 592q-28 0 -50 22t-22 52t22 52t50 22q29 0 51 -22t22 -52t-22 -52t-51 -22z" />
    <glyph glyph-name="Agrave.sc" horiz-adv-x="567" 
d="M363 98l-7 45h-170l-22 -45h43l-18 -98h-204l16 98h42l175 324h-49l18 100h305l-18 -100h-44l58 -324h44l-16 -98h-210l18 98h39zM256 288l-30 -61h117l-9 61l-15 138q-40 -92 -63 -138zM296 584l-91 188h152l39 -188h-100z" />
    <glyph glyph-name="Amacron.sc" horiz-adv-x="567" 
d="M363 98l-7 45h-170l-22 -45h43l-18 -98h-204l16 98h42l175 324h-49l18 100h305l-18 -100h-44l58 -324h44l-16 -98h-210l18 98h39zM256 288l-30 -61h117l-9 61l-15 138q-40 -92 -63 -138zM229 613l17 96h243l-17 -96h-243z" />
    <glyph glyph-name="Aogonek.sc" horiz-adv-x="567" 
d="M402 -220q-49 0 -80.5 25t-31.5 71q0 61 83 124h-67l18 98h39l-7 45h-170l-22 -45h43l-18 -98h-204l16 98h42l175 324h-49l18 100h305l-18 -100h-44l58 -324h44l-16 -98h-41q-80 -81 -80 -109q0 -22 23 -22q18 0 31 17l64 -51q-39 -55 -111 -55zM256 288l-30 -61h117
l-9 61l-15 138q-40 -92 -63 -138z" />
    <glyph glyph-name="Aring.sc" horiz-adv-x="567" 
d="M363 98l-7 45h-170l-22 -45h43l-18 -98h-204l16 98h42l175 324h-49l18 100h305l-18 -100h-44l58 -324h44l-16 -98h-210l18 98h39zM256 288l-30 -61h117l-9 61l-15 138q-40 -92 -63 -138zM349 558q-54 0 -90 35t-36 84t36 84t90 35t90 -35t36 -84t-36 -84t-90 -35z
M349 625q20 0 33.5 14t13.5 38t-13.5 38t-33.5 14t-33.5 -14t-13.5 -38t13.5 -38t33.5 -14z" />
    <glyph glyph-name="Atilde.sc" horiz-adv-x="567" 
d="M363 98l-7 45h-170l-22 -45h43l-18 -98h-204l16 98h42l175 324h-49l18 100h305l-18 -100h-44l58 -324h44l-16 -98h-210l18 98h39zM256 288l-30 -61h117l-9 61l-15 138q-40 -92 -63 -138zM268 584l-87 9q9 68 40 104t74 36q34 0 63 -20q5 -4 13.5 -10t12.5 -8.5t9 -4.5
t10 -2q23 0 31 45l87 -9q-7 -68 -38.5 -104t-75.5 -36q-34 0 -63 20q-6 4 -14 9.5t-11.5 8.5t-9 5t-10.5 2q-23 0 -31 -45z" />
    <glyph glyph-name="Cacute.sc" horiz-adv-x="595" 
d="M188 254q0 -69 34.5 -111.5t103.5 -42.5q75 0 121 67l99 -70q-74 -106 -224 -106q-121 0 -197 70t-76 183q0 133 83 210t192 77q98 0 137 -56l22 47h88l-32 -196h-93q-17 98 -115 98q-61 0 -102 -47t-41 -123zM291 584l80 188h158l-136 -188h-102z" />
    <glyph glyph-name="Ccaron.sc" horiz-adv-x="595" 
d="M188 254q0 -69 34.5 -111.5t103.5 -42.5q75 0 121 67l99 -70q-74 -106 -224 -106q-121 0 -197 70t-76 183q0 133 83 210t192 77q98 0 137 -56l22 47h88l-32 -196h-93q-17 98 -115 98q-61 0 -102 -47t-41 -123zM341 564l-117 217h102l43 -73l67 73h109l-193 -217h-11z" />
    <glyph glyph-name="Ccedilla.sc" horiz-adv-x="595" 
d="M188 254q0 -69 34.5 -111.5t103.5 -42.5q75 0 121 67l99 -70q-74 -106 -224 -106q-8 0 -19 1l-5 -33q30 -5 52.5 -30t22.5 -64q0 -49 -32 -77t-77 -28q-86 0 -117 62l65 36q16 -28 44 -28q38 0 38 36q0 37 -42 37h-35l17 99q-85 24 -135 88t-50 154q0 133 83 210t192 77
q98 0 137 -56l22 47h88l-32 -196h-93q-17 98 -115 98q-61 0 -102 -47t-41 -123z" />
    <glyph glyph-name="Ccircumflex.sc" horiz-adv-x="595" 
d="M188 254q0 -69 34.5 -111.5t103.5 -42.5q75 0 121 67l99 -70q-74 -106 -224 -106q-121 0 -197 70t-76 183q0 133 83 210t192 77q98 0 137 -56l22 47h88l-32 -196h-93q-17 98 -115 98q-61 0 -102 -47t-41 -123zM184 584l193 216h11l117 -216h-102l-43 72l-67 -72h-109z
" />
    <glyph glyph-name="Cdotaccent.sc" horiz-adv-x="595" 
d="M188 254q0 -69 34.5 -111.5t103.5 -42.5q75 0 121 67l99 -70q-74 -106 -224 -106q-121 0 -197 70t-76 183q0 133 83 210t192 77q98 0 137 -56l22 47h88l-32 -196h-93q-17 98 -115 98q-61 0 -102 -47t-41 -123zM352 592q-28 0 -50 22t-22 52t22 52t50 22q29 0 51 -22
t22 -52t-22 -52t-51 -22z" />
    <glyph glyph-name="Dcaron.sc" horiz-adv-x="607" 
d="M85 422l18 100h223q111 0 180 -64.5t69 -181.5q0 -121 -83.5 -198.5t-208.5 -77.5h-270l16 98h52l57 324h-53zM211 102h67q76 0 117.5 50.5t41.5 131.5q0 65 -33 100.5t-93 35.5h-43zM319 564l-117 217h102l43 -73l67 73h109l-193 -217h-11z" />
    <glyph glyph-name="Eacute.sc" horiz-adv-x="521" 
d="M405 359l-7 62h-133l-20 -110h162l-17 -95h-161l-20 -114h143l29 65h87l-29 -167h-426l16 98h52l57 324h-53l18 100h415l-28 -163h-85zM273 584l80 188h158l-136 -188h-102z" />
    <glyph glyph-name="Ebreve.sc" horiz-adv-x="521" 
d="M405 359l-7 62h-133l-20 -110h162l-17 -95h-161l-20 -114h143l29 65h87l-29 -167h-426l16 98h52l57 324h-53l18 100h415l-28 -163h-85zM323 584q-69 0 -110 39t-44 101l101 15q5 -57 54 -57q48 0 60 57l99 -15q-9 -62 -51 -101t-109 -39z" />
    <glyph glyph-name="Ecaron.sc" horiz-adv-x="521" 
d="M405 359l-7 62h-133l-20 -110h162l-17 -95h-161l-20 -114h143l29 65h87l-29 -167h-426l16 98h52l57 324h-53l18 100h415l-28 -163h-85zM326 564l-117 217h102l43 -73l67 73h109l-193 -217h-11z" />
    <glyph glyph-name="Ecircumflex.sc" horiz-adv-x="521" 
d="M405 359l-7 62h-133l-20 -110h162l-17 -95h-161l-20 -114h143l29 65h87l-29 -167h-426l16 98h52l57 324h-53l18 100h415l-28 -163h-85zM162 584l193 216h11l117 -216h-102l-43 72l-67 -72h-109z" />
    <glyph glyph-name="Edieresis.sc" horiz-adv-x="521" 
d="M405 359l-7 62h-133l-20 -110h162l-17 -95h-161l-20 -114h143l29 65h87l-29 -167h-426l16 98h52l57 324h-53l18 100h415l-28 -163h-85zM437 592q-28 0 -50.5 22t-22.5 52t22.5 52t50.5 22q29 0 50.5 -22t21.5 -52t-21.5 -52t-50.5 -22zM227 592q-28 0 -50 22t-22 52
t22 52t50 22q29 0 51 -22t22 -52t-22 -52t-51 -22z" />
    <glyph glyph-name="Edotaccent.sc" horiz-adv-x="521" 
d="M405 359l-7 62h-133l-20 -110h162l-17 -95h-161l-20 -114h143l29 65h87l-29 -167h-426l16 98h52l57 324h-53l18 100h415l-28 -163h-85zM330 592q-28 0 -50 22t-22 52t22 52t50 22q29 0 51 -22t22 -52t-22 -52t-51 -22z" />
    <glyph glyph-name="Egrave.sc" horiz-adv-x="521" 
d="M405 359l-7 62h-133l-20 -110h162l-17 -95h-161l-20 -114h143l29 65h87l-29 -167h-426l16 98h52l57 324h-53l18 100h415l-28 -163h-85zM284 584l-91 188h152l39 -188h-100z" />
    <glyph glyph-name="Emacron.sc" horiz-adv-x="521" 
d="M405 359l-7 62h-133l-20 -110h162l-17 -95h-161l-20 -114h143l29 65h87l-29 -167h-426l16 98h52l57 324h-53l18 100h415l-28 -163h-85zM203 613l17 96h243l-17 -96h-243z" />
    <glyph glyph-name="Eogonek.sc" horiz-adv-x="521" 
d="M310 -220q-49 0 -80.5 25t-31.5 71q0 61 83 124h-268l16 98h52l57 324h-53l18 100h415l-28 -163h-85l-7 62h-133l-20 -110h162l-17 -95h-161l-20 -114h143l29 65h87l-29 -167h-56q-80 -81 -80 -109q0 -22 23 -22q18 0 31 17l64 -51q-39 -55 -111 -55z" />
    <glyph glyph-name="Gbreve.sc" horiz-adv-x="615" 
d="M532 342h-92q-19 84 -101 84q-68 0 -112 -51.5t-44 -131.5q0 -64 34 -106.5t92 -42.5q67 0 110 30l11 64h-106l15 92h233l-49 -280h-92l-5 41q-48 -50 -143 -50q-106 0 -172.5 73t-66.5 179q0 127 86.5 207.5t200.5 80.5q85 0 126 -48l19 39h87zM341 584q-69 0 -110 39
t-44 101l101 15q5 -57 54 -57q48 0 60 57l99 -15q-9 -62 -51 -101t-109 -39z" />
    <glyph glyph-name="Gcircumflex.sc" horiz-adv-x="615" 
d="M532 342h-92q-19 84 -101 84q-68 0 -112 -51.5t-44 -131.5q0 -64 34 -106.5t92 -42.5q67 0 110 30l11 64h-106l15 92h233l-49 -280h-92l-5 41q-48 -50 -143 -50q-106 0 -172.5 73t-66.5 179q0 127 86.5 207.5t200.5 80.5q85 0 126 -48l19 39h87zM179 584l193 216h11
l117 -216h-102l-43 72l-67 -72h-109z" />
    <glyph glyph-name="Gcommaaccent.sc" horiz-adv-x="615" 
d="M532 342h-92q-19 84 -101 84q-68 0 -112 -51.5t-44 -131.5q0 -64 34 -106.5t92 -42.5q67 0 110 30l11 64h-106l15 92h233l-49 -280h-92l-5 41q-48 -50 -143 -50q-106 0 -172.5 73t-66.5 179q0 127 86.5 207.5t200.5 80.5q85 0 126 -48l19 39h87zM172 -283l48 99
q-40 21 -40 68q0 31 22.5 52.5t52.5 21.5q31 0 53.5 -21t22.5 -52q0 -39 -33 -85l-62 -83h-64z" />
    <glyph glyph-name="Gdotaccent.sc" horiz-adv-x="615" 
d="M532 342h-92q-19 84 -101 84q-68 0 -112 -51.5t-44 -131.5q0 -64 34 -106.5t92 -42.5q67 0 110 30l11 64h-106l15 92h233l-49 -280h-92l-5 41q-48 -50 -143 -50q-106 0 -172.5 73t-66.5 179q0 127 86.5 207.5t200.5 80.5q85 0 126 -48l19 39h87zM347 592q-28 0 -50 22
t-22 52t22 52t50 22q29 0 51 -22t22 -52t-22 -52t-51 -22z" />
    <glyph glyph-name="Hbar.sc" horiz-adv-x="648" 
d="M65 328l10 58h56l7 36h-53l18 100h226l-18 -100h-43l-7 -36h195l7 36h-46l18 100h228l-18 -100h-52l-7 -36h58l-10 -58h-58l-40 -230h53l-16 -98h-228l15 98h45l19 100h-195l-19 -100h45l-16 -98h-226l16 98h52l40 230h-56zM245 289h195l6 39h-195z" />
    <glyph glyph-name="Hcircumflex.sc" horiz-adv-x="653" 
d="M224 584l193 216h11l117 -216h-102l-43 72l-67 -72h-109zM345 0l15 98h45l21 114h-195l-21 -114h45l-16 -98h-226l16 98h52l57 324h-53l18 100h226l-18 -100h-43l-20 -112h195l20 112h-46l18 100h228l-18 -100h-52l-57 -324h53l-16 -98h-228z" />
    <glyph glyph-name="Iacute.sc" horiz-adv-x="337" 
d="M85 422l18 100h244l-18 -100h-54l-57 -324h55l-16 -98h-244l16 98h54l57 324h-55zM181 584l80 188h158l-136 -188h-102z" />
    <glyph glyph-name="Icircumflex.sc" horiz-adv-x="337" 
d="M85 422l18 100h244l-18 -100h-54l-57 -324h55l-16 -98h-244l16 98h54l57 324h-55zM68 584l193 216h11l117 -216h-102l-43 72l-67 -72h-109z" />
    <glyph glyph-name="Idieresis.sc" horiz-adv-x="337" 
d="M85 422l18 100h244l-18 -100h-54l-57 -324h55l-16 -98h-244l16 98h54l57 324h-55zM352 592q-28 0 -50.5 22t-22.5 52t22.5 52t50.5 22q29 0 50.5 -22t21.5 -52t-21.5 -52t-50.5 -22zM142 592q-28 0 -50 22t-22 52t22 52t50 22q29 0 51 -22t22 -52t-22 -52t-51 -22z" />
    <glyph glyph-name="Idotaccent.sc" horiz-adv-x="337" 
d="M85 422l18 100h244l-18 -100h-54l-57 -324h55l-16 -98h-244l16 98h54l57 324h-55zM241 594q-28 0 -50 22t-22 52t22 52t50 22q29 0 51 -22t22 -52t-22 -52t-51 -22z" />
    <glyph glyph-name="Igrave.sc" horiz-adv-x="337" 
d="M85 422l18 100h244l-18 -100h-54l-57 -324h55l-16 -98h-244l16 98h54l57 324h-55zM183 584l-91 188h152l39 -188h-100z" />
    <glyph glyph-name="Imacron.sc" horiz-adv-x="337" 
d="M85 422l18 100h244l-18 -100h-54l-57 -324h55l-16 -98h-244l16 98h54l57 324h-55zM117 613l17 96h243l-17 -96h-243z" />
    <glyph glyph-name="Iogonek.sc" horiz-adv-x="337" 
d="M83 422l18 100h244l-18 -100h-54l-57 -324h55l-16 -98h-62q-80 -81 -80 -109q0 -22 23 -22q18 0 31 17l64 -51q-39 -55 -111 -55q-49 0 -80.5 25t-31.5 71q0 61 83 124h-80l16 98h54l57 324h-55z" />
    <glyph glyph-name="Jcircumflex.sc" horiz-adv-x="431" 
d="M193 422l18 100h247l-18 -100h-50l-48 -272q-15 -87 -61 -123t-126 -36q-126 0 -168 113l105 53q21 -61 62 -61q44 0 54 58l47 268h-62zM184 584l193 216h11l117 -216h-102l-43 72l-67 -72h-109z" />
    <glyph glyph-name="Kcommaaccent.sc" horiz-adv-x="595" 
d="M368 427l17 95h230l-18 -100h-48l-152 -131l101 -193h53l-16 -98h-184l13 82l-66 129l-79 -66l-9 -47h45l-16 -98h-226l16 98h52l57 324h-53l18 100h227l-18 -95h-46l-9 -50q-14 -77 -36 -135q49 60 109 113l83 72h-45zM194 -283l48 99q-40 21 -40 68q0 31 22.5 52.5
t52.5 21.5q31 0 53.5 -21t22.5 -52q0 -39 -33 -85l-62 -83h-64z" />
    <glyph glyph-name="Lacute.sc" horiz-adv-x="487" 
d="M85 422l18 100h238l-18 -100h-51l-57 -320h137l31 75h87l-31 -177h-426l16 98h52l57 324h-53zM176 586l80 188h158l-136 -188h-102z" />
    <glyph glyph-name="Lcaron.sc" horiz-adv-x="487" 
d="M378 293l45 100q-41 24 -41 71q0 31 22.5 53t53.5 22q32 0 54.5 -22t22.5 -56q0 -35 -34 -84l-59 -84h-64zM85 422l18 100h238l-18 -100h-51l-57 -320h137l31 75h87l-31 -177h-426l16 98h52l57 324h-53z" />
    <glyph glyph-name="Lcommaaccent.sc" horiz-adv-x="487" 
d="M85 422l18 100h238l-18 -100h-51l-57 -320h137l31 75h87l-31 -177h-426l16 98h52l57 324h-53zM139 -283l48 99q-40 21 -40 68q0 31 22.5 52.5t52.5 21.5q31 0 53.5 -21t22.5 -52q0 -39 -33 -85l-62 -83h-64z" />
    <glyph glyph-name="Lslash.sc" horiz-adv-x="487" 
d="M85 422l18 100h238l-18 -100h-51l-20 -112l129 42l-17 -88l-128 -42l-21 -120h137l31 75h87l-31 -177h-426l16 98h52l14 78l-60 -19l17 88l58 19l28 158h-53z" />
    <glyph glyph-name="Nacute.sc" horiz-adv-x="605" 
d="M399 422l18 100h213l-18 -100h-52l-75 -422h-83l-135 230q-25 40 -44 88q0 -61 -9 -106l-21 -114h45l-16 -98h-209l16 98h52l57 324h-53l18 100h132l131 -222q22 -38 51 -110q0 75 9 126l19 106h-46zM309 584l80 188h158l-136 -188h-102z" />
    <glyph glyph-name="Ncaron.sc" horiz-adv-x="605" 
d="M399 422l18 100h213l-18 -100h-52l-75 -422h-83l-135 230q-25 40 -44 88q0 -61 -9 -106l-21 -114h45l-16 -98h-209l16 98h52l57 324h-53l18 100h132l131 -222q15 -26 28 -53.5t18 -42.5l5 -14q0 75 9 126l19 106h-46zM350 564l-117 217h102l43 -73l67 73h109l-193 -217
h-11z" />
    <glyph glyph-name="Ncommaaccent.sc" horiz-adv-x="605" 
d="M399 422l18 100h213l-18 -100h-52l-75 -422h-83l-135 230q-25 40 -44 88q0 -61 -9 -106l-21 -114h45l-16 -98h-209l16 98h52l57 324h-53l18 100h132l131 -222q22 -38 51 -110q0 75 9 126l19 106h-46zM183 -283l48 99q-40 21 -40 68q0 31 22.5 52.5t52.5 21.5
q31 0 53.5 -21t22.5 -52q0 -39 -33 -85l-62 -83h-64z" />
    <glyph glyph-name="Ntilde.sc" horiz-adv-x="605" 
d="M399 422l18 100h213l-18 -100h-52l-75 -422h-83l-135 230q-25 40 -44 88q0 -61 -9 -106l-21 -114h45l-16 -98h-209l16 98h52l57 324h-53l18 100h132l131 -222q22 -38 51 -110q0 75 9 126l19 106h-46zM291 584l-87 9q9 68 40 104t74 36q34 0 63 -20q5 -4 13.5 -10
t12.5 -8.5t9 -4.5t10 -2q24 0 31 45l87 -9q-7 -68 -38.5 -104t-75.5 -36q-34 0 -63 20q-6 4 -14 9.5t-11.5 8.5t-9 5t-10.5 2q-24 0 -31 -45z" />
    <glyph glyph-name="Oacute.sc" horiz-adv-x="636" 
d="M307 -9q-111 0 -184.5 72.5t-73.5 183.5q0 128 88 206t208 78q111 0 185 -72.5t74 -182.5q0 -128 -88.5 -206.5t-208.5 -78.5zM318 100q63 0 105 48t42 125q0 70 -34.5 110t-94.5 40q-63 0 -105.5 -48t-42.5 -125q0 -71 34.5 -110.5t95.5 -39.5zM305 584l80 188h158
l-136 -188h-102z" />
    <glyph glyph-name="Ocircumflex.sc" horiz-adv-x="636" 
d="M307 -9q-111 0 -184.5 72.5t-73.5 183.5q0 128 88 206t208 78q111 0 185 -72.5t74 -182.5q0 -128 -88.5 -206.5t-208.5 -78.5zM318 100q63 0 105 48t42 125q0 70 -34.5 110t-94.5 40q-63 0 -105.5 -48t-42.5 -125q0 -71 34.5 -110.5t95.5 -39.5zM199 584l193 216h11
l117 -216h-102l-43 72l-67 -72h-109z" />
    <glyph glyph-name="Odieresis.sc" horiz-adv-x="636" 
d="M307 -9q-111 0 -184.5 72.5t-73.5 183.5q0 128 88 206t208 78q111 0 185 -72.5t74 -182.5q0 -128 -88.5 -206.5t-208.5 -78.5zM318 100q63 0 105 48t42 125q0 70 -34.5 110t-94.5 40q-63 0 -105.5 -48t-42.5 -125q0 -71 34.5 -110.5t95.5 -39.5zM475 592q-28 0 -50.5 22
t-22.5 52t22.5 52t50.5 22q29 0 50.5 -22t21.5 -52t-21.5 -52t-50.5 -22zM265 592q-28 0 -50 22t-22 52t22 52t50 22q29 0 51 -22t22 -52t-22 -52t-51 -22z" />
    <glyph glyph-name="Ograve.sc" horiz-adv-x="636" 
d="M307 -9q-111 0 -184.5 72.5t-73.5 183.5q0 128 88 206t208 78q111 0 185 -72.5t74 -182.5q0 -128 -88.5 -206.5t-208.5 -78.5zM318 100q63 0 105 48t42 125q0 70 -34.5 110t-94.5 40q-63 0 -105.5 -48t-42.5 -125q0 -71 34.5 -110.5t95.5 -39.5zM314 584l-91 188h152
l39 -188h-100z" />
    <glyph glyph-name="Ohungarumlaut.sc" horiz-adv-x="636" 
d="M307 -9q-111 0 -184.5 72.5t-73.5 183.5q0 128 88 206t208 78q111 0 185 -72.5t74 -182.5q0 -128 -88.5 -206.5t-208.5 -78.5zM318 100q63 0 105 48t42 125q0 70 -34.5 110t-94.5 40q-63 0 -105.5 -48t-42.5 -125q0 -71 34.5 -110.5t95.5 -39.5zM395 584l86 188h138
l-122 -188h-102zM214 584l86 188h138l-122 -188h-102z" />
    <glyph glyph-name="Omacron.sc" horiz-adv-x="636" 
d="M307 -9q-111 0 -184.5 72.5t-73.5 183.5q0 128 88 206t208 78q111 0 185 -72.5t74 -182.5q0 -128 -88.5 -206.5t-208.5 -78.5zM318 100q63 0 105 48t42 125q0 70 -34.5 110t-94.5 40q-63 0 -105.5 -48t-42.5 -125q0 -71 34.5 -110.5t95.5 -39.5zM243 613l17 96h243
l-17 -96h-243z" />
    <glyph glyph-name="Otilde.sc" horiz-adv-x="636" 
d="M307 -9q-111 0 -184.5 72.5t-73.5 183.5q0 128 88 206t208 78q111 0 185 -72.5t74 -182.5q0 -128 -88.5 -206.5t-208.5 -78.5zM318 100q63 0 105 48t42 125q0 70 -34.5 110t-94.5 40q-63 0 -105.5 -48t-42.5 -125q0 -71 34.5 -110.5t95.5 -39.5zM284 584l-87 9
q9 68 40 104t74 36q34 0 63 -20q5 -4 13.5 -10t12.5 -8.5t9 -4.5t10 -2q23 0 31 45l87 -9q-7 -68 -38.5 -104t-75.5 -36q-34 0 -63 20q-6 4 -14 9.5t-11.5 8.5t-9 5t-10.5 2q-23 0 -31 -45z" />
    <glyph glyph-name="Racute.sc" horiz-adv-x="565" 
d="M369 0l-81 176h-64l-14 -78h45l-16 -98h-226l16 98h52l57 324h-53l18 100h231q94 0 147.5 -42.5t53.5 -122.5q0 -63 -34.5 -104.5t-88.5 -59.5l45 -95h62l-16 -98h-134zM271 584l80 188h158l-136 -188h-102zM241 268h58q107 0 107 86q0 33 -23 50.5t-63 17.5h-52z" />
    <glyph glyph-name="Rcaron.sc" horiz-adv-x="565" 
d="M369 0l-81 176h-64l-14 -78h45l-16 -98h-226l16 98h52l57 324h-53l18 100h231q94 0 147.5 -42.5t53.5 -122.5q0 -63 -34.5 -104.5t-88.5 -59.5l45 -95h62l-16 -98h-134zM317 564l-117 217h102l43 -73l67 73h109l-193 -217h-11zM241 268h58q107 0 107 86q0 33 -23 50.5
t-63 17.5h-52z" />
    <glyph glyph-name="Rcommaaccent.sc" horiz-adv-x="565" 
d="M369 0l-81 176h-64l-14 -78h45l-16 -98h-226l16 98h52l57 324h-53l18 100h231q94 0 147.5 -42.5t53.5 -122.5q0 -63 -34.5 -104.5t-88.5 -59.5l45 -95h62l-16 -98h-134zM179 -283l48 99q-40 21 -40 68q0 31 22.5 52.5t52.5 21.5q31 0 53.5 -21t22.5 -52q0 -39 -33 -85
l-62 -83h-64zM241 268h58q107 0 107 86q0 33 -23 50.5t-63 17.5h-52z" />
    <glyph glyph-name="Sacute.sc" horiz-adv-x="469" 
d="M454 522l-26 -152h-80q-15 63 -79 63q-60 0 -60 -40q0 -27 51 -54l24 -13q79 -43 107.5 -82.5t28.5 -92.5q0 -78 -49.5 -119.5t-125.5 -41.5q-99 0 -143 57l-21 -47h-73l28 163h82q21 -75 110 -75q34 0 51 14.5t17 36.5q0 20 -13 35t-49 35l-24 13q-65 35 -93 71.5
t-28 90.5q0 59 43.5 103t127.5 44q70 0 103 -45l18 36h73zM226 584l80 188h158l-136 -188h-102z" />
    <glyph glyph-name="Scaron.sc" horiz-adv-x="469" 
d="M454 522l-26 -152h-80q-15 63 -79 63q-60 0 -60 -40q0 -27 51 -54l24 -13q79 -43 107.5 -82.5t28.5 -92.5q0 -78 -49.5 -119.5t-125.5 -41.5q-99 0 -143 57l-21 -47h-73l28 163h82q21 -75 110 -75q34 0 51 14.5t17 36.5q0 20 -13 35t-49 35l-24 13q-65 35 -93 71.5
t-28 90.5q0 59 43.5 103t127.5 44q70 0 103 -45l18 36h73zM273 564l-117 217h102l43 -73l67 73h109l-193 -217h-11z" />
    <glyph glyph-name="Scedilla.sc" horiz-adv-x="469" 
d="M454 522l-26 -152h-80q-15 63 -79 63q-60 0 -60 -40q0 -27 51 -54l24 -13q79 -43 107.5 -82.5t28.5 -92.5q0 -78 -49.5 -119.5t-125.5 -41.5h-7l-5 -31q30 -5 52.5 -30t22.5 -64q0 -49 -32 -77t-77 -28q-86 0 -117 62l65 36q16 -28 44 -28q38 0 38 36q0 37 -42 37h-35
l17 99q-43 14 -67 45l-21 -47h-73l28 163h82q21 -75 110 -75q34 0 51 14.5t17 36.5q0 20 -13 35t-49 35l-24 13q-65 35 -93 71.5t-28 90.5q0 59 43.5 103t127.5 44q70 0 103 -45l18 36h73z" />
    <glyph glyph-name="Scircumflex.sc" horiz-adv-x="469" 
d="M454 522l-26 -152h-80q-15 63 -79 63q-60 0 -60 -40q0 -27 51 -54l24 -13q79 -43 107.5 -82.5t28.5 -92.5q0 -78 -49.5 -119.5t-125.5 -41.5q-99 0 -143 57l-21 -47h-73l28 163h82q21 -75 110 -75q34 0 51 14.5t17 36.5q0 20 -13 35t-49 35l-24 13q-65 35 -93 71.5
t-28 90.5q0 59 43.5 103t127.5 44q70 0 103 -45l18 36h73zM130 584l193 216h11l117 -216h-102l-43 72l-67 -72h-109z" />
    <glyph glyph-name="Scommaaccent.sc" horiz-adv-x="469" 
d="M120 -283l48 99q-40 21 -40 68q0 31 22.5 52.5t52.5 21.5q31 0 53.5 -21t22.5 -52q0 -39 -33 -85l-62 -83h-64zM454 522l-26 -152h-80q-15 63 -79 63q-60 0 -60 -40q0 -27 51 -54l24 -13q79 -43 107.5 -82.5t28.5 -92.5q0 -78 -49.5 -119.5t-125.5 -41.5q-99 0 -143 57
l-21 -47h-73l28 163h82q21 -75 110 -75q34 0 51 14.5t17 36.5q0 20 -13 35t-49 35l-24 13q-65 35 -93 71.5t-28 90.5q0 59 43.5 103t127.5 44q70 0 103 -45l18 36h73z" />
    <glyph glyph-name="Tcaron.sc" horiz-adv-x="510" 
d="M425 353l-4 67h-61l-56 -322h52l-16 -98h-239l16 98h52l57 322h-62l-27 -67h-86l30 169h458l-30 -169h-84zM298 564l-117 217h102l43 -73l67 73h109l-193 -217h-11z" />
    <glyph glyph-name="uni021A.sc" horiz-adv-x="510" 
d="M214 -240q-86 0 -117 62l65 36q16 -28 44 -28q38 0 38 36q0 37 -42 37h-35l17 97h-83l16 98h52l57 322h-62l-27 -67h-86l30 169h458l-30 -169h-84l-4 67h-61l-56 -322h52l-16 -98h-85l-7 -41q30 -5 52.5 -30t22.5 -64q0 -49 -32 -77t-77 -28z" />
    <glyph glyph-name="Tcommaaccent.sc" horiz-adv-x="510" 
d="M425 353l-4 67h-61l-56 -322h52l-16 -98h-239l16 98h52l57 322h-62l-27 -67h-86l30 169h458l-30 -169h-84zM123 -283l48 99q-40 21 -40 68q0 31 22.5 52.5t52.5 21.5q31 0 53.5 -21t22.5 -52q0 -39 -33 -85l-62 -83h-64z" />
    <glyph glyph-name="Thorn.sc" horiz-adv-x="524" 
d="M85 422l18 100h231l-17 -94h-48l-6 -33h95q68 0 108 -29.5t40 -90.5q0 -72 -48 -108t-124 -36h-118l-7 -39h52l-16 -92h-232l16 98h52l57 324h-53zM324 304h-78l-15 -87h84q27 0 41.5 13t14.5 35q0 17 -12.5 28t-34.5 11z" />
    <glyph glyph-name="Uacute.sc" horiz-adv-x="612" 
d="M394 422l18 100h220l-18 -100h-51l-44 -248q-32 -183 -226 -183q-116 0 -171 62t-37 162l36 207h-52l18 100h227l-18 -100h-45l-39 -220q-8 -48 15 -77t72 -29q46 0 69 25t32 74l40 227h-46zM317 584l80 188h158l-136 -188h-102z" />
    <glyph glyph-name="Ubreve.sc" horiz-adv-x="612" 
d="M394 422l18 100h220l-18 -100h-51l-44 -248q-32 -183 -226 -183q-116 0 -171 62t-37 162l36 207h-52l18 100h227l-18 -100h-45l-39 -220q-8 -48 15 -77t72 -29q46 0 69 25t32 74l40 227h-46zM370 584q-69 0 -110 39t-44 101l101 15q5 -57 54 -57q48 0 60 57l99 -15
q-9 -62 -51 -101t-109 -39z" />
    <glyph glyph-name="Ucircumflex.sc" horiz-adv-x="612" 
d="M394 422l18 100h220l-18 -100h-51l-44 -248q-32 -183 -226 -183q-116 0 -171 62t-37 162l36 207h-52l18 100h227l-18 -100h-45l-39 -220q-8 -48 15 -77t72 -29q46 0 69 25t32 74l40 227h-46zM209 584l193 216h11l117 -216h-102l-43 72l-67 -72h-109z" />
    </font>
</defs>
</svg>
