<?xml version="1.0" standalone="no"?>
<!DOCTYPE svg PUBLIC "-//W3C//DTD SVG 1.1//EN" "http://www.w3.org/Graphics/SVG/1.1/DTD/svg11.dtd" >
<svg>
<metadata>
Created by FontForge 20110222 at Fri Sep 27 17:41:31 2013
 By Orthosie Webhosting
(C)2009 House Industries/Brand Design Co., Inc. All Rights Reserved.
</metadata>
<defs>
<font id="NeutrafaceSlabTextDemi" horiz-adv-x="520" >
  <font-face 
    font-family="NeutrafaceSlabTextDemi"
    font-weight="600"
    font-stretch="normal"
    units-per-em="1000"
    panose-1="2 6 7 3 2 2 5 2 4 2"
    ascent="788"
    descent="-212"
    x-height="420"
    cap-height="680"
    bbox="-43 -269 1196 966"
    underline-thickness="50"
    underline-position="-50"
    unicode-range="U+0020-FB04"
  />
<missing-glyph horiz-adv-x="325" 
 />
    <glyph glyph-name="ff" unicode="ff" horiz-adv-x="611" 
d="M370 420v155q0 160 135 160q74 0 117 -52l-56 -60q-19 28 -49 28q-46 0 -46 -61v-170h106v-78h-106v-267h75v-75h-234v75h58v267h-182v-267h57v-75h-212v75h54v267h-65v78h65v146q0 74 35 111.5t100 37.5q58 0 99 -43l-43 -63q-18 22 -43 22q-47 0 -47 -61v-150h182z" />
    <glyph glyph-name="fi" unicode="fi" horiz-adv-x="554" 
d="M418 516q-27 0 -47 19t-20 48q0 28 20 47t47 19q28 0 47.5 -19t19.5 -47q0 -29 -19.5 -48t-47.5 -19zM87 75v267h-65v78h65v166q0 74 35 111.5t100 37.5t105 -42l-48 -64q-18 22 -44 22q-47 0 -47 -61v-170h283v-345h55v-75h-214v75h58v267h-182v-267h57v-75h-212v75h54z
" />
    <glyph glyph-name="fl" unicode="fl" horiz-adv-x="555" 
d="M368 643h-80q-51 0 -75.5 -26t-24.5 -90v-107h98v-78h-98v-267h57v-75h-212v75h54v267h-65v78h65v107q0 196 201 196h182v-648h55v-75h-214v75h57v568z" />
    <glyph glyph-name="ffi" unicode="ffi" horiz-adv-x="837" 
d="M701 516q-27 0 -47 19t-20 48q0 28 20 47t47 19t47 -19t20 -47q0 -29 -19.5 -48t-47.5 -19zM370 342h-182v-267h61v-75h-216v75h54v267h-65v78h65v146q0 74 35 111.5t100 37.5q58 0 99 -43l-43 -63q-18 22 -43 22q-47 0 -47 -61v-150h182v166q0 74 35 111.5t100 37.5
t105 -42l-48 -64q-18 22 -44 22q-47 0 -47 -61v-170h283v-345h55v-75h-214v75h57v267h-181v-267h57v-75h-212v75h54v267z" />
    <glyph glyph-name="ffl" unicode="ffl" horiz-adv-x="840" 
d="M86 420v146q0 149 136 149q61 0 101 -42l-44 -64q-20 22 -44 22q-47 0 -47 -61v-150h181v107q0 196 201 196h182v-648h58v-75h-216v75h57v568h-80q-51 0 -75.5 -26t-24.5 -90v-107h97v-78h-97v-267h55v-75h-214v75h57v267h-181v-267h56v-75h-211v75h53v267h-64v78h64z
" />
    <glyph glyph-name="f_b" unicode="fb" horiz-adv-x="851" 
d="M370 643h-82q-50 0 -75 -26.5t-25 -89.5v-107h98v-78h-98v-267h57v-75h-212v75h54v267h-65v78h64v107q0 196 202 196h183v-376q49 82 148 82q82 0 138 -62t56 -156t-57 -156.5t-139 -62.5q-106 0 -149 84v-76h-155v75h57v568zM590 74q54 0 86 37.5t32 99.5q0 60 -32 97.5
t-86 37.5q-55 0 -89 -37.5t-34 -97.5q0 -62 33.5 -99.5t89.5 -37.5z" />
    <glyph glyph-name="f_f_b" unicode="ffb" horiz-adv-x="1136" 
d="M87 420v146q0 74 35 111.5t100 37.5q58 0 100 -42l-43 -64q-18 22 -44 22q-47 0 -47 -61v-150h183v107q0 196 201 196h183v-376q49 82 148 82q82 0 138 -62t56 -156t-57 -156.5t-139 -62.5q-52 0 -90.5 22.5t-57.5 61.5v-76h-156v75h57v568h-82q-50 0 -75 -26.5
t-25 -89.5v-107h98v-78h-98v-267h55v-75h-213v75h57v267h-183v-267h57v-75h-212v75h54v267h-65v78h65zM874 74q54 0 86 37.5t32 99.5q0 60 -32 97.5t-86 37.5q-55 0 -88.5 -37.5t-33.5 -97.5q0 -62 33.5 -99.5t88.5 -37.5z" />
    <glyph glyph-name="f_f_f" unicode="fff" horiz-adv-x="897" 
d="M371 342h-183v-267h57v-75h-212v75h54v267h-65v78h65v146q0 74 35 111.5t100 37.5q58 0 99 -43l-43 -63q-18 22 -43 22q-47 0 -47 -61v-150h183v156q0 74 35 111.5t100 37.5q59 0 100 -43l-44 -63q-18 22 -43 22q-47 0 -47 -61v-160h183v155q0 160 136 160q74 0 117 -52
l-56 -60q-20 28 -49 28q-47 0 -47 -61v-170h107v-78h-107v-267h75v-75h-233v75h57v267h-183v-267h55v-75h-213v75h57v267z" />
    <glyph glyph-name="f_f_f_i" unicode="fffi" horiz-adv-x="1124" 
d="M655 342h-183v-267h55v-75h-213v75h57v267h-183v-267h57v-75h-212v75h54v267h-65v78h65v146q0 74 35 111.5t100 37.5q58 0 99 -43l-43 -63q-18 22 -43 22q-47 0 -47 -61v-150h183v156q0 74 35 111.5t100 37.5q59 0 100 -43l-44 -63q-18 22 -43 22q-47 0 -47 -61v-160h183
v166q0 149 136 149q63 0 104 -43l-48 -63q-18 22 -44 22q-47 0 -47 -61v-170h285v-345h55v-75h-214v75h57v267h-183v-267h56v-75h-214v75h57v267zM988 516q-27 0 -47 19t-20 48q0 28 20 47t47 19t47 -19t20 -47q0 -29 -19.5 -48t-47.5 -19z" />
    <glyph glyph-name="f_f_f_l" unicode="fffl" horiz-adv-x="1124" 
d="M371 420v156q0 74 35 111.5t100 37.5q58 0 100 -42l-43 -64q-18 22 -44 22q-47 0 -47 -61v-160h183v107q0 196 202 196h182v-648h55v-75h-213v75h57v568h-82q-50 0 -75 -26.5t-25 -89.5v-107h98v-78h-98v-267h55v-75h-213v75h57v267h-183v-267h55v-75h-214v75h58v267
h-183v-267h56v-75h-211v75h53v267h-64v78h64v146q0 149 136 149q59 0 99 -42l-42 -64q-20 22 -44 22q-47 0 -47 -61v-150h183z" />
    <glyph glyph-name="f_f_h" unicode="ffh" horiz-adv-x="1127" 
d="M87 420v146q0 74 35 111.5t100 37.5q58 0 100 -42l-43 -64q-18 22 -44 22q-47 0 -47 -61v-150h183v107q0 196 201 196h183v-378q44 84 140 84q71 0 114.5 -48t43.5 -132v-174h52v-75h-207v75h53v170q0 100 -87 100q-50 0 -79.5 -29.5t-29.5 -83.5v-157h54v-75h-212v75h57
v568h-82q-50 0 -75 -26.5t-25 -89.5v-107h98v-78h-98v-267h55v-75h-213v75h57v267h-183v-267h57v-75h-212v75h54v267h-65v78h65z" />
    <glyph glyph-name="f_f_iacute" unicode="ff&#xed;" horiz-adv-x="840" 
d="M664 499l60 191h116l-98 -191h-78zM371 342h-183v-267h61v-75h-216v75h54v267h-65v78h65v146q0 74 35 111.5t100 37.5q58 0 100 -42l-43 -64q-18 22 -44 22q-47 0 -47 -61v-150h183v166q0 149 136 149q64 0 104 -42l-48 -64q-18 22 -44 22q-47 0 -47 -61v-170h284v-345
h56v-75h-214v75h57v267h-183v-267h57v-75h-211v75h53v267z" />
    <glyph glyph-name="f_f_icircumflex" unicode="ff&#xee;" horiz-adv-x="840" 
d="M557 498l143 204h10l143 -204h-82l-66 84l-66 -84h-82zM371 342h-183v-267h61v-75h-216v75h54v267h-65v78h65v146q0 74 35 111.5t100 37.5q58 0 100 -42l-43 -64q-18 22 -44 22q-47 0 -47 -61v-150h183v166q0 149 136 149q64 0 104 -42l-48 -64q-18 22 -44 22
q-47 0 -47 -61v-170h284v-345h56v-75h-214v75h57v267h-183v-267h57v-75h-211v75h53v267z" />
    <glyph glyph-name="f_f_idieresis" unicode="ff&#xef;" horiz-adv-x="840" 
d="M801 495q-24 0 -42 17t-18 41t18 41t42 17q23 0 40.5 -17t17.5 -41t-17.5 -41t-40.5 -17zM628 495q-23 0 -40.5 17t-17.5 41t17.5 41t40.5 17q24 0 42 -17t18 -41t-18 -41t-42 -17zM371 342h-183v-267h61v-75h-216v75h54v267h-65v78h65v146q0 74 35 111.5t100 37.5
q58 0 100 -42l-43 -64q-18 22 -44 22q-47 0 -47 -61v-150h183v166q0 149 136 149q64 0 104 -42l-48 -64q-18 22 -44 22q-47 0 -47 -61v-170h284v-345h56v-75h-214v75h57v267h-183v-267h57v-75h-211v75h53v267z" />
    <glyph glyph-name="f_f_j" unicode="ffj" horiz-adv-x="828" 
d="M704 516q-28 0 -47.5 19t-19.5 48q0 28 20 47t47 19t47 -19t20 -47q0 -29 -19.5 -48t-47.5 -19zM371 342h-183v-267h61v-75h-216v75h54v267h-65v78h65v146q0 74 35 111.5t100 37.5q58 0 99 -43l-43 -63q-18 22 -43 22q-47 0 -47 -61v-150h183v166q0 149 136 149
q64 0 104 -42l-48 -64q-18 22 -44 22q-47 0 -47 -61v-170h285v-503q0 -67 -34.5 -103t-96.5 -36q-65 0 -103 46l52 60q21 -19 42 -19q39 0 39 49v428h-184v-267h57v-75h-211v75h53v267z" />
    <glyph glyph-name="f_f_k" unicode="ffk" horiz-adv-x="1100" 
d="M87 420v146q0 74 35 111.5t100 37.5q58 0 100 -42l-43 -64q-18 22 -44 22q-47 0 -47 -61v-150h183v107q0 196 201 196h183v-446q0 -46 -4 -70l152 138h-52v75h204v-78h-58l-101 -94l132 -173h53v-75h-211v74h42l-90 116l-67 -57v-58h50v-75h-208v75h57v568h-82
q-50 0 -75 -26.5t-25 -89.5v-107h98v-78h-98v-267h55v-75h-213v75h57v267h-183v-267h57v-75h-212v75h54v267h-65v78h65z" />
    <glyph glyph-name="f_f_t" unicode="fft" horiz-adv-x="910" 
d="M371 342h-183v-267h61v-75h-216v75h54v267h-65v78h65v146q0 74 35 111.5t100 37.5q58 0 99 -43l-43 -63q-18 22 -43 22q-47 0 -47 -61v-150h183v166q0 73 37.5 111t98.5 38q64 0 104 -42l-48 -64q-18 24 -45 24q-46 0 -46 -63v-170h178v149h101v-149h112v-78h-112v-209
q0 -63 44 -63q28 0 53 25l40 -65q-42 -40 -109 -40q-129 0 -129 149v203h-178v-267h77v-75h-231v75h53v267z" />
    <glyph glyph-name="f_h" unicode="fh" horiz-adv-x="849" 
d="M370 643h-82q-50 0 -75 -26.5t-25 -89.5v-107h98v-78h-98v-267h57v-75h-212v75h54v267h-65v78h64v107q0 196 202 196h183v-378q42 84 140 84q71 0 114 -48t43 -132v-174h52v-75h-206v75h53v170q0 100 -88 100q-50 0 -79 -29.5t-29 -83.5v-157h54v-75h-213v75h58v568z" />
    <glyph glyph-name="f_iacute" unicode="f&#xed;" horiz-adv-x="556" 
d="M379 499l60 191h116l-98 -191h-78zM87 75v267h-65v78h65v166q0 74 35 111.5t100 37.5t105 -42l-48 -64q-18 22 -44 22q-47 0 -47 -61v-170h284v-345h55v-75h-213v75h57v267h-183v-267h56v-75h-211v75h54z" />
    <glyph glyph-name="f_icircumflex" unicode="f&#xee;" horiz-adv-x="556" 
d="M273 498l142 204h11l143 -204h-83l-65 84l-66 -84h-82zM87 75v267h-65v78h65v166q0 74 35 111.5t100 37.5t105 -42l-48 -64q-18 22 -44 22q-47 0 -47 -61v-170h284v-345h55v-75h-214v75h58v267h-183v-267h57v-75h-212v75h54z" />
    <glyph glyph-name="f_idieresis" unicode="f&#xef;" horiz-adv-x="556" 
d="M516 495q-24 0 -41.5 17t-17.5 41t17.5 41t41.5 17t41.5 -17t17.5 -41t-17.5 -41t-41.5 -17zM344 495q-23 0 -40.5 17t-17.5 41t17.5 41t40.5 17q24 0 42 -17t18 -41t-18 -41t-42 -17zM87 75v267h-65v78h65v166q0 74 35 111.5t100 37.5t105 -42l-48 -64q-18 22 -44 22
q-47 0 -47 -61v-170h284v-345h55v-75h-213v75h57v267h-183v-267h56v-75h-211v75h54z" />
    <glyph glyph-name="f_j" unicode="fj" horiz-adv-x="544" 
d="M420 516q-28 0 -48 19t-20 48q0 28 20 47t48 19q27 0 47 -19t20 -47q0 -29 -19.5 -48t-47.5 -19zM372 342h-184v-267h57v-75h-212v75h54v267h-65v78h65v166q0 74 35 111.5t100 37.5t105 -42l-48 -64q-18 22 -44 22q-47 0 -47 -61v-170h285v-503q0 -67 -34.5 -103
t-96.5 -36q-65 0 -103 46l52 60q21 -19 42 -19q39 0 39 49v428z" />
    <glyph glyph-name="f_k" unicode="fk" horiz-adv-x="816" 
d="M370 643h-82q-50 0 -75 -26.5t-25 -89.5v-107h98v-78h-98v-267h57v-75h-212v75h54v267h-65v78h64v107q0 196 202 196h183v-446q0 -46 -4 -70l152 138h-53v75h205v-78h-58l-101 -94l132 -173h53v-75h-211v74h42l-90 116l-67 -57v-58h50v-75h-208v75h57v568z" />
    <glyph glyph-name="f_t" unicode="ft" horiz-adv-x="626" 
d="M188 420h178v149h101v-149h112v-78h-112v-209q0 -63 44 -63q28 0 53 25l40 -65q-42 -40 -109 -40q-129 0 -129 149v203h-178v-267h76v-75h-231v75h54v267h-65v78h65v166q0 73 37.5 111t97.5 38q65 0 105 -42l-48 -64q-18 24 -45 24q-46 0 -46 -63v-170z" />
    <glyph glyph-name=".notdef" horiz-adv-x="325" 
 />
    <glyph glyph-name=".null" horiz-adv-x="0" 
 />
    <glyph glyph-name="nonmarkingreturn" horiz-adv-x="333" 
 />
    <glyph glyph-name="space" unicode=" " horiz-adv-x="232" 
 />
    <glyph glyph-name="exclam" unicode="!" horiz-adv-x="272" 
d="M96 210l-17 470h113l-16 -470h-80zM136 -7q-28 0 -48.5 20t-20.5 49t20.5 49t48.5 20t48 -20t20 -49t-20 -49t-48 -20z" />
    <glyph glyph-name="quotedbl" unicode="&#x22;" horiz-adv-x="341" 
d="M52 452l-11 228h104l-12 -228h-81zM208 452l-11 228h104l-12 -228h-81z" />
    <glyph glyph-name="numbersign" unicode="#" horiz-adv-x="496" 
d="M68 160l27 107h-63v71h80l25 99h-66v72h84l27 107h79l-27 -107h87l28 107h78l-27 -107h64v-72h-81l-25 -99h66v-71h-84l-26 -107h-80l27 107h-88l-26 -107h-79zM191 338h88l25 99h-87z" />
    <glyph glyph-name="dollar" unicode="$" horiz-adv-x="477" 
d="M210 -118v112q-63 10 -95 50l-8 -44h-58v162h63q10 -49 34.5 -70.5t63.5 -26.5v158l-13 3q-147 39 -147 154q0 60 45 99t119 42v103h58v-109q47 -10 70 -42l7 40h60v-152h-59q-10 72 -78 83v-139l14 -4q78 -22 116.5 -60t38.5 -99q0 -67 -47 -105.5t-126 -43.5v-111h-58z
M347 133q0 28 -17 44.5t-62 30.5v-143q79 11 79 68zM143 387q0 -25 16 -40t55 -27v127q-71 -8 -71 -60z" />
    <glyph glyph-name="percent" unicode="%" horiz-adv-x="795" 
d="M189 223q-63 0 -108.5 42.5t-45.5 106.5t45.5 106.5t108.5 42.5t108 -42.5t45 -106.5t-45 -106.5t-108 -42.5zM196 0l322 513h81l-322 -513h-81zM189 291q30 0 49.5 22.5t19.5 58.5q0 37 -19.5 59t-49.5 22t-50 -22t-20 -59q0 -36 20 -58.5t50 -22.5zM607 -3
q-64 0 -109 42.5t-45 106.5t45 106.5t109 42.5q63 0 108 -43t45 -106q0 -64 -45 -106.5t-108 -42.5zM607 65q30 0 49.5 22t19.5 59t-19.5 59t-49.5 22q-31 0 -50.5 -22t-19.5 -59t19.5 -59t50.5 -22z" />
    <glyph glyph-name="ampersand" unicode="&#x26;" horiz-adv-x="689" 
d="M656 0h-137l-53 66q-79 -74 -189 -74q-111 0 -175.5 52.5t-64.5 139.5q0 74 40.5 120t126.5 90l-10 11q-49 67 -49 133q0 65 44.5 107.5t124.5 42.5q68 0 111.5 -40.5t43.5 -102.5q0 -52 -33 -90.5t-98 -73.5l145 -182q28 55 38 122h-51v75h186v-75h-53
q-14 -104 -68 -185l47 -60h74v-76zM417 128l-169 210q-52 -29 -78.5 -63t-26.5 -84q0 -53 36.5 -85.5t101.5 -32.5q76 0 136 55zM296 434q83 49 83 112q0 31 -19 50.5t-47 19.5q-32 0 -52 -19.5t-20 -51.5q0 -45 43 -97z" />
    <glyph glyph-name="quotesingle" unicode="'" horiz-adv-x="184" 
d="M51 452l-11 228h104l-11 -228h-82z" />
    <glyph glyph-name="parenleft" unicode="(" horiz-adv-x="318" 
d="M231 -136q-176 176 -176 427t176 427l61 -49q-138 -164 -138 -378t138 -378z" />
    <glyph glyph-name="parenright" unicode=")" horiz-adv-x="318" 
d="M86 -136l-60 49q138 164 138 378t-138 378l60 49q176 -174 176 -427t-176 -427z" />
    <glyph glyph-name="asterisk" unicode="*" horiz-adv-x="393" 
d="M151 368l26 124l-94 -83l-44 76l122 39l-122 39l44 77l94 -84l-26 124h90l-25 -124l94 84l44 -77l-124 -39l124 -39l-44 -76l-94 83l25 -124h-90z" />
    <glyph glyph-name="plus" unicode="+" horiz-adv-x="404" 
d="M158 96v121h-113v84h113v120h88v-120h113v-84h-113v-121h-88z" />
    <glyph glyph-name="comma" unicode="," horiz-adv-x="234" 
d="M53 -113l38 115q-43 17 -43 62q0 28 21 48t48 20q28 0 48.5 -20t20.5 -49q0 -22 -21 -62l-60 -114h-52z" />
    <glyph glyph-name="hyphen" unicode="-" horiz-adv-x="308" 
d="M48 195v83h211v-83h-211z" />
    <glyph glyph-name="period" unicode="." horiz-adv-x="234" 
d="M117 -7q-28 0 -48.5 20.5t-20.5 49.5t20.5 49t48.5 20t48.5 -20t20.5 -49q0 -30 -20.5 -50t-48.5 -20z" />
    <glyph glyph-name="slash" unicode="/" horiz-adv-x="414" 
d="M3 -128l291 850h90l-291 -850h-90z" />
    <glyph glyph-name="zero" unicode="0" horiz-adv-x="625" 
d="M312 -8q-112 0 -191 75t-79 190q0 114 80.5 189t189.5 75q112 0 191.5 -74t79.5 -190q0 -113 -80.5 -189t-190.5 -76zM312 77q70 0 117 50.5t47 129.5q0 80 -47 129.5t-117 49.5t-116.5 -49.5t-46.5 -129.5q0 -79 47 -129.5t116 -50.5z" />
    <glyph glyph-name="one" unicode="1" horiz-adv-x="356" 
d="M135 76v357h-99v80h202v-437h84v-76h-280v76h93z" />
    <glyph glyph-name="two" unicode="2" horiz-adv-x="488" 
d="M25 0v61l195 154q59 47 84 78t25 64q0 35 -22 56t-60 21q-84 0 -109 -92l-93 23q18 74 73 115t133 41q85 0 133.5 -43.5t48.5 -107.5q0 -102 -126 -192l-88 -64q-45 -30 -64 -40q1 0 12 1t25.5 2.5t26.5 1.5h147l8 55h68v-134h-417z" />
    <glyph glyph-name="three" unicode="3" horiz-adv-x="515" 
d="M55 370v143h397v-52l-130 -146q-21 -24 -38 -32q78 -2 131.5 -47t53.5 -130q0 -93 -64 -151t-162 -58q-85 0 -140.5 38.5t-81.5 98.5l88 36q35 -89 132 -89q54 0 89 31.5t35 89.5q0 55 -34.5 85.5t-91.5 30.5q-44 0 -84 -22l-18 23l161 184l33 34q-33 -4 -58 -4h-138
l-9 -63h-71z" />
    <glyph glyph-name="four" unicode="4" horiz-adv-x="537" 
d="M268 -26h69v72h-314v63l341 408h69v-398h72v-73h-72v-72h64v-71h-229v71zM340 119v200q0 53 5 63l-5 -8q-5 -8 -14 -20.5t-17 -22.5l-151 -182l-34 -34l3 1q3 0 7.5 0.5t10.5 1t14.5 1t16.5 0.5h164z" />
    <glyph glyph-name="five" unicode="5" horiz-adv-x="517" 
d="M370 374l-7 57h-196v-163q39 30 103 30q90 0 144 -54.5t54 -140.5q0 -87 -62 -146.5t-166 -59.5q-76 0 -129 34t-77 89l86 37q35 -76 120 -76q52 0 88 32t36 86t-33 86t-87 32q-80 0 -139 -55l-21 9v342h356v-139h-70z" />
    <glyph glyph-name="six" unicode="6" horiz-adv-x="531" 
d="M261 -8q-92 0 -155 55.5t-63 150.5q0 47 18.5 88.5t56.5 95.5l159 228h113l-133 -190q-6 -8 -15 -18t-16 -16.5t-15 -14t-9 -8.5q41 30 90 30q84 0 139.5 -54t55.5 -141q0 -92 -64 -149t-162 -57zM264 69q55 0 86.5 35t31.5 91q0 58 -30.5 92.5t-86.5 34.5
q-55 0 -86.5 -36t-31.5 -91q0 -56 31 -91t86 -35z" />
    <glyph glyph-name="seven" unicode="7" horiz-adv-x="477" 
d="M36 362v151h401v-53l-258 -554h-105l250 524h-208l-10 -68h-70z" />
    <glyph glyph-name="eight" unicode="8" horiz-adv-x="539" 
d="M269 -8q-98 0 -161.5 52t-63.5 135q0 56 33 97t91 60q-86 37 -86 128q0 65 51 109.5t137 44.5q87 0 137.5 -44.5t50.5 -109.5q0 -93 -86 -129q58 -18 90.5 -59t32.5 -97q0 -83 -63.5 -135t-162.5 -52zM269 70q55 0 88.5 30.5t33.5 82.5q0 53 -33.5 84.5t-88.5 31.5
q-54 0 -87 -31.5t-33 -84.5q0 -52 33 -82.5t87 -30.5zM269 369q38 0 62 23.5t24 62.5t-23.5 62.5t-62.5 23.5q-38 0 -62.5 -23.5t-24.5 -62.5t24.5 -62.5t62.5 -23.5z" />
    <glyph glyph-name="nine" unicode="9" horiz-adv-x="533" 
d="M150 -94l128 186q9 13 44 48q-32 -23 -79 -23q-85 0 -142 54.5t-57 142.5q0 91 64 149t158 58q102 0 163 -57.5t61 -147.5q0 -47 -18 -89t-58 -99l-151 -222h-113zM266 188q56 0 88 36t32 90q0 55 -32 90t-87 35t-87 -35t-32 -90q0 -57 31.5 -91.5t86.5 -34.5z" />
    <glyph glyph-name="colon" unicode=":" horiz-adv-x="244" 
d="M122 220q-28 0 -48.5 20.5t-20.5 49.5t20.5 49t48.5 20t48.5 -20t20.5 -49q0 -30 -20.5 -50t-48.5 -20zM122 -7q-28 0 -48.5 20.5t-20.5 49.5t20.5 49t48.5 20t48.5 -20t20.5 -49q0 -30 -20.5 -50t-48.5 -20z" />
    <glyph glyph-name="semicolon" unicode=";" horiz-adv-x="244" 
d="M122 220q-28 0 -48.5 20.5t-20.5 49.5t20.5 49t48.5 20t48.5 -20t20.5 -49q0 -30 -20.5 -50t-48.5 -20zM58 -113l38 115q-43 17 -43 62q0 28 21 48t48 20q28 0 48.5 -20t20.5 -49q0 -22 -21 -62l-60 -114h-52z" />
    <glyph glyph-name="less" unicode="&#x3c;" horiz-adv-x="368" 
d="M315 79l-284 156v18l284 154v-90l-146 -73l146 -75v-90z" />
    <glyph glyph-name="equal" unicode="=" horiz-adv-x="399" 
d="M45 283v81h309v-81h-309zM45 138v80h309v-80h-309z" />
    <glyph glyph-name="greater" unicode="&#x3e;" horiz-adv-x="368" 
d="M53 407l284 -156v-18l-284 -154v90l146 73l-146 75v90z" />
    <glyph glyph-name="question" unicode="?" horiz-adv-x="495" 
d="M176 208v164h38q63 0 96.5 33.5t33.5 85.5q0 49 -29.5 81t-77.5 32q-45 0 -74 -20t-51 -63l-79 46q52 121 204 121q95 0 152 -56t57 -141q0 -80 -47 -131.5t-128 -60.5v-91h-95zM223 -7q-28 0 -48.5 20t-20.5 49t20.5 49t48.5 20q27 0 47 -19.5t20 -49.5t-20 -49.5
t-47 -19.5z" />
    <glyph glyph-name="at" unicode="@" horiz-adv-x="908" 
d="M461 -206q-182 0 -298.5 107.5t-116.5 291.5q0 119 57.5 212.5t151.5 142.5t205 49q178 0 290 -102t112 -269q0 -111 -47.5 -172.5t-123.5 -61.5q-106 0 -125 99q-36 -99 -141 -99q-74 0 -124.5 54.5t-50.5 139.5t50.5 141.5t124.5 56.5q88 0 125 -74l9 64h82v-237
q0 -78 54 -78q41 0 65 43t24 124q0 140 -87.5 222t-236.5 82q-146 0 -238 -95.5t-92 -241.5q0 -147 88 -239t242 -92q89 0 165 37l30 -65q-84 -40 -194 -40zM451 71q40 0 66.5 33.5t26.5 81.5q0 49 -26.5 83t-66.5 34q-43 0 -70 -33t-27 -84q0 -50 27 -82.5t70 -32.5z" />
    <glyph glyph-name="A" unicode="A" horiz-adv-x="701" 
d="M211 604v76h282v-76h-64l197 -528h53v-76h-227v76h67l-38 101h-271l-38 -101h84v-76h-233v76h53l202 528h-67zM308 441l-70 -185h216l-69 185q-13 32 -24.5 75.5t-12.5 54.5q-27 -95 -40 -130z" />
    <glyph glyph-name="B" unicode="B" horiz-adv-x="628" 
d="M48 680h301q98 0 150 -49.5t52 -127.5q0 -53 -27.5 -90.5t-82.5 -51.5q141 -31 141 -168q0 -86 -56.5 -139.5t-159.5 -53.5h-318v78h59v524h-59v78zM210 82h144q122 0 122 118q0 57 -33 86.5t-91 29.5h-142v-234zM210 393h126q110 0 110 102q0 103 -112 103h-124v-205z
" />
    <glyph glyph-name="C" unicode="C" horiz-adv-x="718" 
d="M650 477h-79q-15 59 -62 91.5t-117 32.5q-106 0 -171 -75.5t-65 -183.5q0 -111 66 -186.5t175 -75.5q128 0 198 110l78 -52q-100 -146 -281 -146q-149 0 -247 96t-98 247q0 154 98 253.5t241 99.5q125 0 185 -75l8 67h71v-203z" />
    <glyph glyph-name="D" unicode="D" horiz-adv-x="705" 
d="M213 83h75q129 0 194.5 69t65.5 188t-65.5 188t-194.5 69h-75v-514zM48 680h246q164 0 263.5 -92.5t99.5 -247.5t-99 -247.5t-264 -92.5h-246v76h59v528h-59v76z" />
    <glyph glyph-name="E" unicode="E" horiz-adv-x="604" 
d="M553 0h-505v76h59v528h-59v76h491v-167h-77l-15 84h-234v-214h246v-83h-246v-217h248l15 90h77v-173z" />
    <glyph glyph-name="F" unicode="F" horiz-adv-x="581" 
d="M537 506h-78l-14 91h-232v-233h255v-83h-255v-205h72v-76h-237v76h59v528h-59v76h489v-174z" />
    <glyph glyph-name="G" unicode="G" horiz-adv-x="753" 
d="M675 0h-73l-10 56q-80 -64 -202 -64q-148 0 -245.5 96.5t-97.5 248.5q0 155 99.5 253t244.5 98q128 0 181 -76l8 68h71v-203h-79q-15 62 -62 93t-113 31q-110 0 -175.5 -76t-65.5 -185q0 -114 64 -188.5t180 -74.5q107 0 173 52v130h-178v85h280v-344z" />
    <glyph glyph-name="H" unicode="H" horiz-adv-x="754" 
d="M541 76v213h-328v-213h63v-76h-228v76h59v528h-59v76h228v-76h-63v-231h328v231h-63v76h227v-76h-59v-528h59v-76h-227v76h63z" />
    <glyph glyph-name="I" unicode="I" horiz-adv-x="322" 
d="M214 604v-528h60v-76h-226v76h61v528h-61v76h226v-76h-60z" />
    <glyph glyph-name="J" unicode="J" horiz-adv-x="500" 
d="M216 604v76h241v-76h-59v-414q0 -98 -53.5 -148t-145.5 -50q-136 0 -186 122l84 43q28 -78 99 -78q97 0 97 111v414h-77z" />
    <glyph glyph-name="K" unicode="K" horiz-adv-x="662" 
d="M614 604h-53l-190 -227l208 -301h57v-76h-236v73h59l-159 231l-87 -100v-131h63v-73h-228v76h59v528h-59v76h228v-74h-63v-211q0 -63 -4 -90q21 37 57 78l191 223h-56v74h213v-76z" />
    <glyph glyph-name="L" unicode="L" horiz-adv-x="568" 
d="M48 0v76h59v528h-59v76h228v-76h-63v-521h222l15 108h78v-191h-480z" />
    <glyph glyph-name="M" unicode="M" horiz-adv-x="858" 
d="M196 76h63v-76h-211v76h59v528h-59v76h153l230 -391l218 391h160v-76h-59v-528h59v-76h-224v76h63v321q0 12 0.5 30.5t1 36t1 33t1.5 25.5v10q0 -1 -9 -20.5t-22 -46t-22 -42.5l-159 -276h-31l-165 276q-8 12 -17.5 31t-16.5 34t-13 28.5t-6 14.5l1 -10q0 -10 1 -25.5
t1.5 -32.5t1 -35.5t0.5 -30.5v-321z" />
    <glyph glyph-name="N" unicode="N" horiz-adv-x="758" 
d="M562 260v344h-68v76h217v-76h-59v-604h-77l-332 453q-25 32 -49 81v-7q1 -7 1.5 -18.5t1 -24.5t1 -28.5t0.5 -27.5v-352h67v-76h-217v76h59v528h-59v76h151l323 -441q7 -9 15.5 -22.5t15 -24.5t11.5 -20l6 -9l-2 17q-2 17 -4 40.5t-2 39.5z" />
    <glyph glyph-name="O" unicode="O" horiz-adv-x="796" 
d="M398 -8q-149 0 -250 98.5t-101 249.5t101 249.5t250 98.5t250 -98.5t101 -249.5t-101 -249.5t-250 -98.5zM398 79q106 0 174 73t68 188t-68 188t-174 73t-174 -73t-68 -188t68 -188t174 -73z" />
    <glyph glyph-name="P" unicode="P" horiz-adv-x="606" 
d="M213 325h109q67 0 105 34.5t38 101.5q0 68 -38 102t-105 34h-109v-272zM48 680h278q112 0 180 -55.5t68 -163.5q0 -107 -68.5 -162.5t-179.5 -55.5h-113v-167h72v-76h-237v76h59v528h-59v76z" />
    <glyph glyph-name="Q" unicode="Q" horiz-adv-x="799" 
d="M398 -8q-149 0 -250 98.5t-101 249.5t101 249.5t250 98.5t250 -98.5t101 -249.5q0 -139 -94 -239l24 -25h87v-76h-139l-43 43q-84 -51 -186 -51zM419 212l67 62l103 -105q51 69 51 171q0 115 -68 188t-174 73t-174 -73t-68 -188t68 -189.5t174 -74.5q70 0 123 32z" />
    <glyph glyph-name="R" unicode="R" horiz-adv-x="658" 
d="M48 680h287q112 0 179.5 -53.5t67.5 -160.5q0 -144 -138 -190l114 -200h69v-76h-141l-147 259q-5 -1 -22 -1h-104v-182h66v-76h-231v76h59v528h-59v76zM213 337h118q143 0 143 129q0 131 -143 131h-118v-260z" />
    <glyph glyph-name="S" unicode="S" horiz-adv-x="535" 
d="M460 504h-82q-7 47 -38.5 74t-77.5 27q-45 0 -72 -23.5t-27 -62.5q0 -37 23.5 -60t80.5 -46l49 -20q90 -34 134 -83.5t44 -125.5q0 -93 -60 -142.5t-150 -49.5q-113 0 -162 69l-10 -61h-68v200h82q8 -58 46 -91t100 -33q53 0 86.5 27t33.5 73q0 41 -28 69t-92 54l-49 20
q-82 32 -120.5 76t-38.5 119q0 76 53.5 125t131.5 49q92 0 134 -62l8 54h69v-176z" />
    <glyph glyph-name="T" unicode="T" horiz-adv-x="601" 
d="M110 502h-70v178h521v-178h-70l-14 95h-124v-521h66v-76h-238v76h67v521h-124z" />
    <glyph glyph-name="U" unicode="U" horiz-adv-x="716" 
d="M615 604v-365q0 -121 -70.5 -184t-188.5 -63q-116 0 -185.5 61t-69.5 181v370h-59v76h227v-76h-63v-369q0 -159 154 -159q75 0 116 39.5t41 119.5v369h-63v76h220v-76h-59z" />
    <glyph glyph-name="V" unicode="V" horiz-adv-x="699" 
d="M255 680v-76h-67l136 -360q6 -16 13 -41t11 -43l5 -18q0 1 4.5 18t12 42t13.5 41l141 361h-72v76h224v-76h-55l-244 -604h-63l-236 604h-55v76h232z" />
    <glyph glyph-name="W" unicode="W" horiz-adv-x="965" 
d="M937 680v-76h-48l-182 -604h-56l-137 402q-18 47 -31 114l-6 -23q-6 -23 -13.5 -49.5t-12.5 -41.5l-140 -402h-50l-185 604h-48v76h220v-76h-67l93 -315q6 -21 24 -110q8 57 29 109l137 392h49l137 -397q5 -15 11.5 -41t12 -47.5t5.5 -22.5q0 3 3.5 22.5t9 46.5t10.5 43
l92 320h-72v76h215z" />
    <glyph glyph-name="X" unicode="X" horiz-adv-x="693" 
d="M432 0v76h50l-112 166q-8 11 -15.5 24t-12.5 22l-4 8q0 -4 -34 -54l-113 -166h53v-76h-209v76h56l198 287l-167 241h-55v76h218v-76h-43l84 -124l33 -55q13 24 31 50l88 129h-47v76h200v-76h-56l-168 -244l196 -284h56v-76h-227z" />
    <glyph glyph-name="Y" unicode="Y" horiz-adv-x="652" 
d="M628 680v-76h-55l-187 -352v-176h67v-76h-239v76h66v170l-196 358h-60v76h229v-76h-56l108 -200q28 -53 35 -74q6 24 34 76l103 198h-66v76h217z" />
    <glyph glyph-name="Z" unicode="Z" horiz-adv-x="582" 
d="M145 508h-78v172h473v-53l-376 -548h286l11 102h78v-181h-508v56l377 545h-251z" />
    <glyph glyph-name="bracketleft" unicode="[" horiz-adv-x="317" 
d="M73 -128v850h219v-78h-117v-694h117v-78h-219z" />
    <glyph glyph-name="backslash" unicode="\" horiz-adv-x="414" 
d="M320 -128l-290 850h90l290 -850h-90z" />
    <glyph glyph-name="bracketright" unicode="]" horiz-adv-x="317" 
d="M24 -128v78h118v694h-118v78h220v-850h-220z" />
    <glyph glyph-name="asciicircum" unicode="^" horiz-adv-x="431" 
d="M63 455l147 233h10l148 -233h-82l-71 100l-70 -100h-82z" />
    <glyph glyph-name="underscore" unicode="_" horiz-adv-x="272" 
d="M0 -126v84h273v-84h-273z" />
    <glyph glyph-name="grave" unicode="`" horiz-adv-x="478" 
d="M209 499l-98 191h116l60 -191h-78z" />
    <glyph glyph-name="a" unicode="a" horiz-adv-x="496" 
d="M470 0h-153v60q-45 -68 -131 -68q-67 0 -109.5 32t-42.5 98q0 63 45 94.5t120 31.5h115v14q0 87 -84 87q-69 0 -112 -52l-56 57q65 75 177 75q79 0 127.5 -46t48.5 -135v-173h55v-75zM314 182h-108q-72 0 -72 -57q0 -60 79 -60q45 0 73 20.5t28 54.5v42z" />
    <glyph glyph-name="b" unicode="b" horiz-adv-x="568" 
d="M187 0h-154v75h55v572h-63v75h164v-375q49 82 148 82q82 0 138 -62t56 -156t-56.5 -156.5t-139.5 -62.5q-52 0 -90.5 22.5t-57.5 61.5v-76zM308 74q55 0 87 37.5t32 99.5q0 61 -32.5 98t-86.5 37q-55 0 -88.5 -37.5t-33.5 -97.5q0 -62 33.5 -99.5t88.5 -37.5z" />
    <glyph glyph-name="c" unicode="c" horiz-adv-x="481" 
d="M432 277h-72q-25 71 -96 71q-55 0 -89.5 -38.5t-34.5 -98.5q0 -63 35 -100.5t93 -37.5q65 0 109 51l65 -56q-65 -76 -177 -76q-101 0 -165 60.5t-64 157.5q0 98 61.5 158.5t145.5 60.5q82 0 117 -49l6 40h66v-143z" />
    <glyph glyph-name="d" unicode="d" horiz-adv-x="566" 
d="M380 647h-65v75h167v-647h54v-75h-153v79q-18 -41 -57.5 -64t-91.5 -23q-82 0 -139 62.5t-57 156.5t56.5 156t138.5 62q105 0 147 -85v303zM261 346q-54 0 -86.5 -37.5t-32.5 -99.5q0 -60 32.5 -97.5t86.5 -37.5q55 0 88.5 37.5t33.5 97.5q0 62 -33.5 99.5t-88.5 37.5z
" />
    <glyph glyph-name="e" unicode="e" horiz-adv-x="506" 
d="M139 178q6 -50 39.5 -79t90.5 -29q69 0 118 47l56 -58q-69 -67 -176 -67q-108 0 -170 61t-62 157q0 94 63 156.5t158 62.5q105 0 162 -71t52 -180h-331zM138 247h229q-2 46 -31.5 75t-78.5 29t-81 -28.5t-38 -75.5z" />
    <glyph glyph-name="f" unicode="f" horiz-adv-x="328" 
d="M87 342h-65v78h65v155q0 160 135 160q74 0 117 -52l-56 -60q-19 28 -48 28q-47 0 -47 -61v-170h106v-78h-106v-267h80v-75h-235v75h54v267z" />
    <glyph glyph-name="g" unicode="g" horiz-adv-x="480" 
d="M301 420h157v-70h-75q30 -28 30 -76q0 -66 -48.5 -107.5t-125.5 -41.5q-51 0 -84 18q-25 -11 -25 -35q0 -36 50 -39l106 -6q176 -12 176 -133q0 -70 -57.5 -111.5t-168.5 -41.5q-105 0 -162.5 36t-57.5 96q0 75 85 101q-52 25 -52 82q0 59 58 84q-44 34 -44 101
t49.5 109.5t126.5 42.5q35 0 62 -9zM238 195q38 0 59 22.5t21 59.5q0 36 -21.5 58.5t-58.5 22.5q-38 0 -59.5 -22.5t-21.5 -58.5q0 -37 21.5 -59.5t59.5 -22.5zM163 -18q-21 -7 -34.5 -23.5t-13.5 -37.5q0 -71 121 -71q127 0 127 69q0 28 -21.5 40.5t-76.5 15.5z" />
    <glyph glyph-name="h" unicode="h" horiz-adv-x="567" 
d="M88 647h-63v75h164v-377q20 39 56.5 61.5t83.5 22.5q71 0 114 -48t43 -132v-174h53v-75h-207v75h53v170q0 100 -88 100q-50 0 -79 -29.5t-29 -83.5v-157h54v-75h-210v75h55v572z" />
    <glyph glyph-name="i" unicode="i" horiz-adv-x="279" 
d="M141 518q-27 0 -46.5 18.5t-19.5 46.5t19.5 46t46.5 18t45.5 -18t18.5 -46q0 -29 -18.5 -47t-45.5 -18zM196 420v-345h55v-75h-212v75h56v267h-57v78h158z" />
    <glyph glyph-name="j" unicode="j" horiz-adv-x="261" 
d="M191 420v-503q0 -67 -34.5 -103t-97.5 -36q-64 0 -102 46l52 60q21 -19 42 -19q38 0 38 49v428h-56v78h158zM136 518q-27 0 -46 18t-19 47q0 28 19 46t46 18t46 -18t19 -46q0 -29 -18.5 -47t-46.5 -18z" />
    <glyph glyph-name="k" unicode="k" horiz-adv-x="534" 
d="M284 345v75h205v-78h-58l-101 -94l132 -173h53v-75h-211v74h42l-91 116l-66 -57v-58h50v-75h-206v75h55v572h-63v75h164v-434q0 -56 -4 -80l150 137h-51z" />
    <glyph glyph-name="l" unicode="l" horiz-adv-x="278" 
d="M90 75v572h-65v75h166v-647h57v-75h-215v75h57z" />
    <glyph glyph-name="m" unicode="m" horiz-adv-x="817" 
d="M313 0v75h49v179q0 46 -18 68.5t-60 22.5q-46 0 -70.5 -27t-24.5 -80v-163h52v-75h-208v75h55v267h-56v78h154v-76q39 85 130 85q93 0 128 -85q43 85 135 85q74 0 116 -46t42 -127v-181h51v-75h-203v75h51v179q0 46 -18.5 68.5t-60.5 22.5q-45 0 -69.5 -27t-24.5 -80
v-163h51v-75h-201z" />
    <glyph glyph-name="n" unicode="n" horiz-adv-x="567" 
d="M33 0v75h55v267h-56v78h154v-78q19 41 57 64t86 23q71 0 114 -48t43 -132v-174h53v-75h-207v75h53v170q0 100 -88 100q-50 0 -79 -29.5t-29 -83.5v-157h54v-75h-210z" />
    <glyph glyph-name="o" unicode="o" horiz-adv-x="524" 
d="M262 -8q-96 0 -161.5 62t-65.5 155q0 94 65.5 157t161.5 63t161.5 -63t65.5 -157q0 -93 -65.5 -155t-161.5 -62zM262 70q56 0 89.5 39t33.5 100t-33.5 100t-89.5 39q-55 0 -89 -39t-34 -100t34 -100t89 -39z" />
    <glyph glyph-name="p" unicode="p" horiz-adv-x="568" 
d="M308 74q54 0 86 37.5t32 99.5q0 60 -32 97.5t-86 37.5q-55 0 -89 -37.5t-34 -97.5q0 -62 33.5 -99.5t89.5 -37.5zM186 420v-80q21 42 60 65.5t91 23.5q82 0 138 -62t56 -156t-57 -156.5t-139 -62.5q-51 0 -89 22t-57 58v-212h70v-72h-226v72h55v482h-56v78h154z" />
    <glyph glyph-name="q" unicode="q" horiz-adv-x="566" 
d="M310 -212v72h70v212q-43 -80 -147 -80q-82 0 -139 62.5t-57 156.5t56.5 156t138.5 62q102 0 151 -89v80h151v-78h-53v-482h54v-72h-225zM260 346q-54 0 -86 -37.5t-32 -99.5q0 -60 32 -97.5t86 -37.5q55 0 89 37.5t34 97.5q0 62 -33.5 99.5t-89.5 37.5z" />
    <glyph glyph-name="r" unicode="r" horiz-adv-x="391" 
d="M189 75h71v-75h-227v75h55v267h-56v78h154v-84q36 92 124 92q42 0 68 -16l-34 -91q-25 18 -59 18q-96 0 -96 -130v-134z" />
    <glyph glyph-name="s" unicode="s" horiz-adv-x="412" 
d="M291 300q-23 58 -91 58q-27 0 -44.5 -11.5t-17.5 -32.5t18.5 -33t66.5 -24q80 -20 116 -50.5t36 -85.5q0 -57 -39.5 -93.5t-116.5 -36.5q-75 0 -114 46l-7 -37h-62v134h71q7 -33 32.5 -52t63.5 -19q74 0 74 46q0 24 -18.5 34.5t-75.5 25.5q-67 19 -102.5 47.5t-35.5 87.5
q0 57 41 91t102 34t99 -42l9 33h61v-120h-66z" />
    <glyph glyph-name="t" unicode="t" horiz-adv-x="341" 
d="M210 -10q-130 0 -130 149v203h-63v78h63v149h101v-149h112v-78h-112v-209q0 -63 44 -63q28 0 53 25l40 -65q-40 -40 -108 -40z" />
    <glyph glyph-name="u" unicode="u" horiz-adv-x="550" 
d="M465 75h55v-75h-154v80q-17 -40 -54 -64.5t-88 -24.5q-70 0 -113 47.5t-43 131.5v172h-54v78h155v-253q0 -95 87 -95q50 0 78.5 29t28.5 80v161h-53v78h155v-345z" />
    <glyph glyph-name="v" unicode="v" horiz-adv-x="509" 
d="M22 342v78h195v-78h-47l66 -154q7 -15 14 -36t11 -35l4 -14q13 51 30 85l66 154h-48v78h175v-78h-40l-156 -342h-68l-157 342h-45z" />
    <glyph glyph-name="w" unicode="w" horiz-adv-x="717" 
d="M521 344v76h174v-78h-43l-115 -342h-79l-72 201q-8 20 -24 83l-10 -34q-11 -35 -16 -49l-74 -201h-77l-119 342h-44v78h193v-76h-54l52 -155q4 -11 8.5 -30t7.5 -35.5t4 -18.5q12 62 22 86l86 229h52l85 -232q5 -12 10.5 -33t8.5 -36l3 -15q13 56 23 86l49 154h-51z" />
    <glyph glyph-name="x" unicode="x" horiz-adv-x="531" 
d="M285 0v70h50l-50 69q-15 18 -29 47q-12 -24 -30 -47l-53 -69h50v-70h-195v75h54l115 145l-99 122h-51v78h201v-73h-38l44 -57q14 -18 25 -40q10 19 26 40l44 57h-36v73h171v-78h-48l-100 -127l113 -140h53v-75h-217z" />
    <glyph glyph-name="y" unicode="y" horiz-adv-x="512" 
d="M22 342v78h195v-78h-46l67 -146q6 -14 13.5 -33t12.5 -32l4 -13q16 46 30 78l63 146h-46v78h175v-78h-40l-255 -554h-137v75h78l78 170l-146 309h-46z" />
    <glyph glyph-name="z" unicode="z" horiz-adv-x="439" 
d="M42 275v145h363v-55l-250 -293h176l11 74h67v-146h-382v54l245 291h-156l-11 -70h-63z" />
    <glyph glyph-name="braceleft" unicode="{" horiz-adv-x="393" 
d="M289 -128q-145 0 -145 144v175q0 37 -14 52.5t-43 15.5h-58v77h58q29 0 43 15.5t14 52.5v174q0 144 145 144h71v-75h-63q-27 0 -38.5 -13.5t-11.5 -46.5v-183q0 -53 -23 -75.5t-74 -29.5q50 -6 73.5 -30.5t23.5 -77.5v-184q0 -33 11.5 -46.5t38.5 -13.5h63v-75h-71z" />
    <glyph glyph-name="bar" unicode="|" horiz-adv-x="255" 
d="M84 -128v850h87v-850h-87z" />
    <glyph glyph-name="braceright" unicode="}" horiz-adv-x="392" 
d="M104 722q144 0 144 -144v-174q0 -36 14.5 -52t43.5 -16h57v-77h-57q-29 0 -43.5 -16t-14.5 -52v-175q0 -144 -144 -144h-71v75h62q27 0 39 13.5t12 46.5v184q0 54 23 77.5t73 29.5q-50 7 -73 30t-23 77v182q0 33 -12 46.5t-39 13.5h-62v75h71z" />
    <glyph glyph-name="asciitilde" unicode="~" horiz-adv-x="403" 
d="M115 215l-72 7q4 60 30.5 92.5t68.5 32.5q30 0 66 -27q4 -3 10.5 -7.5t9.5 -6.5l7.5 -5t7 -4t6 -2t7.5 -1q27 0 33 52l71 -7q-4 -61 -30 -93t-69 -32q-31 0 -65 27q-38 24 -49 26q-28 0 -32 -52z" />
    <glyph glyph-name="uni00A0" unicode="&#xa0;" horiz-adv-x="207" 
 />
    <glyph glyph-name="exclamdown" unicode="&#xa1;" horiz-adv-x="272" 
d="M135 467q28 0 48.5 -20t20.5 -49t-20.5 -49t-48.5 -20t-48 20t-20 49t20 49t48 20zM176 250l16 -470h-113l17 470h80z" />
    <glyph glyph-name="cent" unicode="&#xa2;" horiz-adv-x="481" 
d="M432 277h-65q-21 57 -77 71v-276q56 8 87 52l65 -56q-56 -66 -152 -75v-109h-58v110q-88 9 -142 68t-54 148q0 93 58 152.5t138 65.5v107h58v-113q46 -9 72 -43l8 41h62v-143zM138 211q0 -53 26 -90.5t68 -48.5v277q-43 -11 -68.5 -47.5t-25.5 -90.5z" />
    <glyph glyph-name="sterling" unicode="&#xa3;" horiz-adv-x="560" 
d="M496 610v-177h-69q-10 50 -40.5 77.5t-73.5 27.5q-45 0 -73.5 -26t-28.5 -71q0 -36 29 -116h156v-69h-131q27 -69 27 -126v-14q60 -43 103 -43q51 0 88 45l58 -58q-52 -68 -142 -68q-68 0 -141 55q-45 -55 -116 -55q-53 0 -85 27.5t-32 72.5q0 43 30.5 68.5t75.5 25.5
q34 0 72 -18q-4 25 -30 88h-98v69h67q-30 77 -30 125q0 71 54 119.5t137 48.5q79 0 120 -54l8 46h65zM199 94q-37 30 -62 30q-18 0 -29 -10t-11 -26q0 -15 11.5 -25t29.5 -10q46 0 61 41z" />
    <glyph glyph-name="yen" unicode="&#xa5;" horiz-adv-x="558" 
d="M348 434v79h184v-79h-58l-68 -115h90v-60h-125l-29 -50h154v-61h-170v-73h52v-75h-200v75h51v73h-170v61h154l-29 50h-125v60h91l-66 115h-57v79h201v-79h-39l62 -115q8 -16 16 -36t12.5 -33.5t4.5 -14.5q20 59 34 84l64 115h-34z" />
    <glyph glyph-name="section" unicode="&#xa7;" horiz-adv-x="529" 
d="M128 75q6 -52 37 -80t81 -28q41 0 65 17t24 44q0 22 -15 37t-52 30l-91 35q-71 27 -104 62.5t-33 86.5q0 41 24 70.5t62 40.5q-25 37 -25 84q0 63 45.5 103.5t111.5 41.5q72 0 114 -49l7 41h59v-158h-62q-8 48 -36.5 71t-66.5 23q-39 0 -60 -18t-21 -48q0 -48 60 -71
l100 -39q137 -51 137 -147q0 -40 -23 -67.5t-64 -39.5q29 -34 29 -83q0 -63 -46 -100t-124 -37q-87 0 -132 54l-5 -45h-61v169h65zM361 153q39 16 39 54q0 24 -16 41t-54 32l-110 43q-35 13 -55 32q-36 -17 -36 -58q0 -25 15.5 -42.5t52.5 -32.5l103 -39q35 -13 61 -30z" />
    <glyph glyph-name="dieresis" unicode="&#xa8;" horiz-adv-x="503" 
d="M349 511q-24 0 -42.5 18t-18.5 43q0 24 18.5 42t42.5 18t42 -17.5t18 -42.5t-18 -43t-42 -18zM154 511q-24 0 -42.5 18t-18.5 43q0 24 18.5 42t42.5 18t42 -17.5t18 -42.5t-18 -43t-42 -18z" />
    <glyph glyph-name="copyright" unicode="&#xa9;" horiz-adv-x="599" 
d="M301 -6q-109 0 -187 75.5t-78 187.5q0 113 78 188.5t187 75.5q108 0 185 -75.5t77 -188.5q0 -112 -77 -187.5t-185 -75.5zM301 43q89 0 149.5 60t60.5 154t-60.5 154.5t-149.5 60.5q-91 0 -152.5 -60t-61.5 -155q0 -94 61.5 -154t152.5 -60zM309 339q-31 0 -51 -23
t-20 -61q0 -34 20.5 -58t51.5 -24q42 0 67 34l49 -45q-45 -54 -120 -54q-66 0 -109.5 41.5t-43.5 106.5q0 63 41 106t97 43t77 -35l6 29h45v-105h-49q-12 45 -61 45z" />
    <glyph glyph-name="ordfeminine" unicode="&#xaa;" horiz-adv-x="446" 
d="M272 369v7q-1 40 -18.5 56.5t-53.5 16.5q-53 0 -92 -41l-53 47q54 66 157 66q68 0 110.5 -38t42.5 -116v-145h48v-64h-139v45q-38 -54 -109 -54q-57 0 -93.5 28.5t-36.5 82.5t39.5 81.5t103.5 27.5h94zM272 313h-83q-62 0 -62 -45q0 -46 62 -46q38 0 60.5 16.5t22.5 45.5
v29z" />
    <glyph glyph-name="guillemotleft" unicode="&#xab;" horiz-adv-x="451" 
d="M314 35l-94 163v8l94 161h98l-97 -165l97 -167h-98zM132 35l-94 163v8l94 161h98l-97 -165l97 -167h-98z" />
    <glyph glyph-name="registered" unicode="&#xae;" horiz-adv-x="511" 
d="M174 402v148h-21v38h111q42 0 66 -20.5t24 -53.5q0 -48 -46 -68l26 -44h23v-37h-60l-40 76h-30v-39h16v-37h-89v37h20zM254 259q-91 0 -155 61.5t-64 154.5q0 94 64 155.5t155 61.5q93 0 158 -61.5t65 -155.5q0 -93 -65 -154.5t-158 -61.5zM254 300q77 0 126.5 48
t49.5 126q0 80 -49.5 128t-126.5 48q-76 0 -124.5 -48t-48.5 -128q0 -78 49 -126t124 -48zM227 477h32q40 0 40 37q0 35 -40 35h-32v-72z" />
    <glyph glyph-name="macron" unicode="&#xaf;" horiz-adv-x="503" 
d="M138 520v77h227v-77h-227z" />
    <glyph glyph-name="degree" unicode="&#xb0;" horiz-adv-x="331" 
d="M165 277q-52 0 -90 36t-38 86q0 52 37.5 87t90.5 35q54 0 91.5 -35t37.5 -87q0 -50 -38 -86t-91 -36zM165 335q27 0 42.5 18t15.5 46q0 29 -15.5 46.5t-42.5 17.5q-26 0 -41.5 -17.5t-15.5 -46.5q0 -28 15.5 -46t41.5 -18z" />
    <glyph glyph-name="acute" unicode="&#xb4;" horiz-adv-x="478" 
d="M191 499l60 191h116l-98 -191h-78z" />
    <glyph glyph-name="paragraph" unicode="&#xb6;" horiz-adv-x="597" 
d="M268 0v294h-19q-93 0 -146 55t-53 137q0 81 55.5 137.5t148.5 56.5h250v-680h-78v610h-79v-610h-79z" />
    <glyph glyph-name="periodcentered" unicode="&#xb7;" horiz-adv-x="234" 
d="M117 181q-28 0 -48.5 20.5t-20.5 49.5t20.5 48.5t48.5 19.5t48.5 -19.5t20.5 -48.5q0 -30 -20.5 -50t-48.5 -20z" />
    <glyph glyph-name="cedilla" unicode="&#xb8;" horiz-adv-x="503" 
d="M259 -236q-76 0 -110 60l53 32q16 -33 49 -33q40 0 40 39q0 18 -12.5 29t-34.5 11h-28v98h59v-46q37 -6 61.5 -31.5t24.5 -66.5t-30.5 -66.5t-71.5 -25.5z" />
    <glyph glyph-name="ordmasculine" unicode="&#xba;" horiz-adv-x="457" 
d="M229 149q-81 0 -137 53t-56 133q0 79 56 132.5t137 53.5q80 0 136 -53.5t56 -132.5q0 -80 -56 -133t-136 -53zM229 221q45 0 72 31.5t27 82.5t-27 82t-72 31t-72 -31t-27 -82t27 -82.5t72 -31.5z" />
    <glyph glyph-name="guillemotright" unicode="&#xbb;" horiz-adv-x="451" 
d="M221 35l97 165l-97 167h98l94 -163v-8l-94 -161h-98zM39 35l97 165l-97 167h97l94 -163v-8l-94 -161h-97z" />
    <glyph glyph-name="questiondown" unicode="&#xbf;" horiz-adv-x="500" 
d="M321 258v-162h-38q-63 0 -96.5 -34.5t-33.5 -86.5q0 -49 29.5 -80.5t77.5 -31.5q46 0 74.5 19.5t49.5 62.5l81 -46q-53 -122 -205 -122q-95 0 -152 57t-57 141q0 80 47 131.5t128 60.5v91h95zM274 472q28 0 48.5 -19.5t20.5 -48.5t-20.5 -48.5t-48.5 -19.5
q-27 0 -47 19.5t-20 48.5t19.5 48.5t47.5 19.5z" />
    <glyph glyph-name="Agrave" unicode="&#xc0;" horiz-adv-x="701" 
d="M211 604v76h282v-76h-64l197 -528h53v-76h-227v76h67l-38 101h-271l-38 -101h84v-76h-233v76h53l202 528h-67zM308 441l-70 -185h216l-69 185q-13 32 -24.5 75.5t-12.5 54.5q-27 -95 -40 -130zM314 757l-98 191h116l60 -191h-78z" />
    <glyph glyph-name="Aacute" unicode="&#xc1;" horiz-adv-x="701" 
d="M211 604v76h282v-76h-64l197 -528h53v-76h-227v76h67l-38 101h-271l-38 -101h84v-76h-233v76h53l202 528h-67zM308 441l-70 -185h216l-69 185q-13 32 -24.5 75.5t-12.5 54.5q-27 -95 -40 -130zM307 757l60 191h116l-98 -191h-78z" />
    <glyph glyph-name="Acircumflex" unicode="&#xc2;" horiz-adv-x="701" 
d="M211 604v76h282v-76h-64l197 -528h53v-76h-227v76h67l-38 101h-271l-38 -101h84v-76h-233v76h53l202 528h-67zM308 441l-70 -185h216l-69 185q-13 32 -24.5 75.5t-12.5 54.5q-27 -95 -40 -130zM202 756l143 204h10l143 -204h-86l-65 84l-66 -84h-79z" />
    <glyph glyph-name="Atilde" unicode="&#xc3;" horiz-adv-x="701" 
d="M211 604v76h282v-76h-64l197 -528h53v-76h-227v76h67l-38 101h-271l-38 -101h84v-76h-233v76h53l202 528h-67zM308 441l-70 -185h216l-69 185q-13 32 -24.5 75.5t-12.5 54.5q-27 -95 -40 -130zM262 754l-71 7q4 60 31 92.5t68 32.5q34 0 67 -26q36 -27 48 -27q27 0 31 52
l72 -7q-4 -60 -30.5 -92.5t-68.5 -32.5q-33 0 -67 27q-4 3 -11 8t-9 7t-7 5t-7.5 4t-6 2t-7.5 1q-26 0 -32 -53z" />
    <glyph glyph-name="Adieresis" unicode="&#xc4;" horiz-adv-x="701" 
d="M211 604v76h282v-76h-64l197 -528h53v-76h-227v76h67l-38 101h-271l-38 -101h84v-76h-233v76h53l202 528h-67zM308 441l-70 -185h216l-69 185q-13 32 -24.5 75.5t-12.5 54.5q-27 -95 -40 -130zM447 769q-24 0 -42.5 18t-18.5 43q0 24 18.5 42t42.5 18t42 -17.5t18 -42.5
t-18 -43t-42 -18zM252 769q-24 0 -42.5 18t-18.5 43q0 24 18.5 42t42.5 18t42 -17.5t18 -42.5t-18 -43t-42 -18z" />
    <glyph glyph-name="Aring" unicode="&#xc5;" horiz-adv-x="701" 
d="M211 604v76h282v-76h-64l197 -528h53v-76h-227v76h67l-38 101h-271l-38 -101h84v-76h-233v76h53l202 528h-67zM350 737q-49 0 -83 32t-34 77q0 46 34 78t83 32t82.5 -32t33.5 -78q0 -45 -34 -77t-82 -32zM308 441l-70 -185h216l-69 185q-13 32 -24.5 75.5t-12.5 54.5
q-27 -95 -40 -130zM350 791q23 0 37.5 15t14.5 40q0 26 -14.5 40.5t-37.5 14.5q-24 0 -38.5 -14.5t-14.5 -40.5q0 -25 14.5 -40t38.5 -15z" />
    <glyph glyph-name="AE" unicode="&#xc6;" horiz-adv-x="962" 
d="M400 0v76h61v84h-244l-49 -84h79v-76h-236v76h56l317 528h-61v76h569v-167h-77l-15 84h-234v-214h246v-83h-246v-217h248l15 90h77v-173h-506zM263 237h199l-1 257q0 55 6 106q-11 -37 -35 -77z" />
    <glyph glyph-name="Ccedilla" unicode="&#xc7;" horiz-adv-x="718" 
d="M385 -236q-76 0 -110 60l53 32q16 -33 49 -33q40 0 40 39q0 18 -12.5 29t-34.5 11h-28v93q-131 16 -213 109t-82 231q0 154 98 253.5t241 99.5q125 0 185 -75l8 67h71v-203h-79q-15 59 -62 91.5t-117 32.5q-106 0 -171 -75.5t-65 -183.5q0 -111 66 -186.5t175 -75.5
q128 0 198 110l78 -52q-98 -142 -272 -146v-38q37 -6 61.5 -31.5t24.5 -66.5t-30.5 -66.5t-71.5 -25.5z" />
    <glyph glyph-name="Egrave" unicode="&#xc8;" horiz-adv-x="604" 
d="M553 0h-505v76h59v528h-59v76h491v-167h-77l-15 84h-234v-214h246v-83h-246v-217h248l15 90h77v-173zM282 757l-98 191h116l60 -191h-78z" />
    <glyph glyph-name="Eacute" unicode="&#xc9;" horiz-adv-x="604" 
d="M275 757l60 191h116l-98 -191h-78zM553 0h-505v76h59v528h-59v76h491v-167h-77l-15 84h-234v-214h246v-83h-246v-217h248l15 90h77v-173z" />
    <glyph glyph-name="Ecircumflex" unicode="&#xca;" horiz-adv-x="604" 
d="M171 756l143 204h10l143 -204h-86l-65 84l-66 -84h-79zM553 0h-505v76h59v528h-59v76h491v-167h-77l-15 84h-234v-214h246v-83h-246v-217h248l15 90h77v-173z" />
    <glyph glyph-name="Edieresis" unicode="&#xcb;" horiz-adv-x="604" 
d="M410 769q-24 0 -42.5 18t-18.5 43q0 24 18.5 42t42.5 18t42 -17.5t18 -42.5t-18 -43t-42 -18zM215 769q-24 0 -42.5 18t-18.5 43q0 24 18.5 42t42.5 18t42 -17.5t18 -42.5t-18 -43t-42 -18zM553 0h-505v76h59v528h-59v76h491v-167h-77l-15 84h-234v-214h246v-83h-246
v-217h248l15 90h77v-173z" />
    <glyph glyph-name="Igrave" unicode="&#xcc;" horiz-adv-x="322" 
d="M214 604v-528h60v-76h-226v76h61v528h-61v76h226v-76h-60zM125 757l-98 191h116l60 -191h-78z" />
    <glyph glyph-name="Iacute" unicode="&#xcd;" horiz-adv-x="322" 
d="M214 604v-528h60v-76h-226v76h61v528h-61v76h226v-76h-60zM119 757l60 191h116l-98 -191h-78z" />
    <glyph glyph-name="Icircumflex" unicode="&#xce;" horiz-adv-x="322" 
d="M214 604v-528h60v-76h-226v76h61v528h-61v76h226v-76h-60zM14 756l143 204h10l143 -204h-86l-65 84l-66 -84h-79z" />
    <glyph glyph-name="Idieresis" unicode="&#xcf;" horiz-adv-x="322" 
d="M214 604v-528h60v-76h-226v76h61v528h-61v76h226v-76h-60zM259 769q-24 0 -42.5 18t-18.5 43q0 24 18.5 42t42.5 18t42 -17.5t18 -42.5t-18 -43t-42 -18zM64 769q-24 0 -42.5 18t-18.5 43q0 24 18.5 42t42.5 18t42 -17.5t18 -42.5t-18 -43t-42 -18z" />
    <glyph glyph-name="Eth" unicode="&#xd0;" horiz-adv-x="705" 
d="M48 680h246q164 0 263.5 -92.5t99.5 -247.5t-99 -247.5t-264 -92.5h-246v76h59v226h-68v75h68v227h-59v76zM213 83h75q129 0 194.5 69t65.5 188t-65.5 188t-194.5 69h-75v-220h167v-75h-167v-219z" />
    <glyph glyph-name="Ntilde" unicode="&#xd1;" horiz-adv-x="758" 
d="M562 260v344h-68v76h217v-76h-59v-604h-77l-332 453q-25 32 -49 81v-7q1 -7 1.5 -18.5t1 -24.5t1 -28.5t0.5 -27.5v-352h67v-76h-217v76h59v528h-59v76h151l323 -441q7 -9 15.5 -22.5t15 -24.5t11.5 -20l6 -9l-2 17q-2 17 -4 40.5t-2 39.5zM292 754l-71 7q4 60 31 92.5
t68 32.5q34 0 67 -26q36 -27 48 -27q27 0 31 52l72 -7q-4 -60 -30.5 -92.5t-68.5 -32.5q-33 0 -67 27q-4 3 -11 8t-9 7t-7 5t-7.5 4t-6 2t-7.5 1q-26 0 -32 -53z" />
    <glyph glyph-name="Ograve" unicode="&#xd2;" horiz-adv-x="796" 
d="M398 -8q-149 0 -250 98.5t-101 249.5t101 249.5t250 98.5t250 -98.5t101 -249.5t-101 -249.5t-250 -98.5zM398 79q106 0 174 73t68 188t-68 188t-174 73t-174 -73t-68 -188t68 -188t174 -73zM361 757l-98 191h116l60 -191h-78z" />
    <glyph glyph-name="Oacute" unicode="&#xd3;" horiz-adv-x="796" 
d="M355 757l60 191h116l-98 -191h-78zM398 -8q-149 0 -250 98.5t-101 249.5t101 249.5t250 98.5t250 -98.5t101 -249.5t-101 -249.5t-250 -98.5zM398 79q106 0 174 73t68 188t-68 188t-174 73t-174 -73t-68 -188t68 -188t174 -73z" />
    <glyph glyph-name="Ocircumflex" unicode="&#xd4;" horiz-adv-x="796" 
d="M250 756l143 204h10l143 -204h-86l-65 84l-66 -84h-79zM398 -8q-149 0 -250 98.5t-101 249.5t101 249.5t250 98.5t250 -98.5t101 -249.5t-101 -249.5t-250 -98.5zM398 79q106 0 174 73t68 188t-68 188t-174 73t-174 -73t-68 -188t68 -188t174 -73z" />
    <glyph glyph-name="Otilde" unicode="&#xd5;" horiz-adv-x="796" 
d="M398 -8q-149 0 -250 98.5t-101 249.5t101 249.5t250 98.5t250 -98.5t101 -249.5t-101 -249.5t-250 -98.5zM398 79q106 0 174 73t68 188t-68 188t-174 73t-174 -73t-68 -188t68 -188t174 -73zM310 754l-71 7q4 60 31 92.5t68 32.5q34 0 67 -26q36 -27 48 -27q27 0 31 52
l72 -7q-4 -60 -30.5 -92.5t-68.5 -32.5q-33 0 -67 27q-4 3 -11 8t-9 7t-7 5t-7.5 4t-6 2t-7.5 1q-26 0 -32 -53z" />
    <glyph glyph-name="Odieresis" unicode="&#xd6;" horiz-adv-x="796" 
d="M495 769q-24 0 -42.5 18t-18.5 43q0 24 18.5 42t42.5 18t42 -17.5t18 -42.5t-18 -43t-42 -18zM300 769q-24 0 -42.5 18t-18.5 43q0 24 18.5 42t42.5 18t42 -17.5t18 -42.5t-18 -43t-42 -18zM398 -8q-149 0 -250 98.5t-101 249.5t101 249.5t250 98.5t250 -98.5t101 -249.5
t-101 -249.5t-250 -98.5zM398 79q106 0 174 73t68 188t-68 188t-174 73t-174 -73t-68 -188t68 -188t174 -73z" />
    <glyph glyph-name="multiply" unicode="&#xd7;" horiz-adv-x="391" 
d="M196 196l-95 -95l-62 63l94 94l-94 95l62 62l95 -94l94 94l62 -62l-94 -95l94 -94l-62 -63z" />
    <glyph glyph-name="Oslash" unicode="&#xd8;" horiz-adv-x="796" 
d="M398 -8q-128 0 -221 73l-77 -75l-60 58l78 76q-71 92 -71 216q0 151 101 249.5t250 98.5q127 0 221 -74l77 75l60 -58l-78 -76q71 -94 71 -215q0 -151 -101 -249.5t-250 -98.5zM154 340q0 -82 36 -145l362 353q-64 53 -154 53q-107 0 -175.5 -73t-68.5 -188zM398 79
q107 0 175.5 73t68.5 188q0 81 -36 144l-362 -353q65 -52 154 -52z" />
    <glyph glyph-name="Ugrave" unicode="&#xd9;" horiz-adv-x="716" 
d="M615 604v-365q0 -121 -70.5 -184t-188.5 -63q-116 0 -185.5 61t-69.5 181v370h-59v76h227v-76h-63v-369q0 -159 154 -159q75 0 116 39.5t41 119.5v369h-63v76h220v-76h-59zM321 757l-98 191h116l60 -191h-78z" />
    <glyph glyph-name="Uacute" unicode="&#xda;" horiz-adv-x="716" 
d="M314 757l60 191h116l-98 -191h-78zM615 604v-365q0 -121 -70.5 -184t-188.5 -63q-116 0 -185.5 61t-69.5 181v370h-59v76h227v-76h-63v-369q0 -159 154 -159q75 0 116 39.5t41 119.5v369h-63v76h220v-76h-59z" />
    <glyph glyph-name="Ucircumflex" unicode="&#xdb;" horiz-adv-x="716" 
d="M210 756l143 204h10l143 -204h-86l-65 84l-66 -84h-79zM615 604v-365q0 -121 -70.5 -184t-188.5 -63q-116 0 -185.5 61t-69.5 181v370h-59v76h227v-76h-63v-369q0 -159 154 -159q75 0 116 39.5t41 119.5v369h-63v76h220v-76h-59z" />
    <glyph glyph-name="Udieresis" unicode="&#xdc;" horiz-adv-x="716" 
d="M455 769q-24 0 -42.5 18t-18.5 43q0 24 18.5 42t42.5 18t42 -17.5t18 -42.5t-18 -43t-42 -18zM260 769q-24 0 -42.5 18t-18.5 43q0 24 18.5 42t42.5 18t42 -17.5t18 -42.5t-18 -43t-42 -18zM615 604v-365q0 -121 -70.5 -184t-188.5 -63q-116 0 -185.5 61t-69.5 181v370
h-59v76h227v-76h-63v-369q0 -159 154 -159q75 0 116 39.5t41 119.5v369h-63v76h220v-76h-59z" />
    <glyph glyph-name="Yacute" unicode="&#xdd;" horiz-adv-x="652" 
d="M628 680v-76h-55l-187 -352v-176h67v-76h-239v76h66v170l-196 358h-60v76h229v-76h-56l108 -200q20 -38 35 -74q4 21 34 76l103 198h-66v76h217zM290 757l60 191h116l-98 -191h-78z" />
    <glyph glyph-name="Thorn" unicode="&#xde;" horiz-adv-x="610" 
d="M212 141v-67h67v-74h-233v76h60v528h-60v76h225v-74h-59v-60h113q112 0 180 -51.5t68 -151.5q0 -98 -68.5 -150t-179.5 -52h-113zM212 219h109q143 0 143 124t-143 124h-109v-248z" />
    <glyph glyph-name="germandbls" unicode="&#xdf;" horiz-adv-x="580" 
d="M188 0h-155v75h54v267h-55v78h55v112q0 98 55 150.5t142 52.5q86 0 137 -49.5t51 -134.5q0 -106 -97 -146q79 -18 122 -68t43 -128q0 -96 -56.5 -155t-156.5 -59q-48 0 -80 12l13 80q24 -9 52 -9q61 0 92.5 35.5t31.5 98.5q0 139 -163 139v73q47 3 74.5 34t27.5 90
q0 54 -25.5 81t-65.5 27q-44 0 -70 -29.5t-26 -89.5v-537z" />
    <glyph glyph-name="agrave" unicode="&#xe0;" horiz-adv-x="496" 
d="M470 0h-153v60q-45 -68 -131 -68q-67 0 -109.5 32t-42.5 98q0 63 45 94.5t120 31.5h115v14q0 87 -84 87q-69 0 -112 -52l-56 57q65 75 177 75q79 0 127.5 -46t48.5 -135v-173h55v-75zM314 182h-108q-72 0 -72 -57q0 -60 79 -60q45 0 73 20.5t28 54.5v42zM200 499l-98 191
h116l60 -191h-78z" />
    <glyph glyph-name="aacute" unicode="&#xe1;" horiz-adv-x="496" 
d="M470 0h-153v60q-45 -68 -131 -68q-67 0 -109.5 32t-42.5 98q0 63 45 94.5t120 31.5h115v14q0 87 -84 87q-69 0 -112 -52l-56 57q65 75 177 75q79 0 127.5 -46t48.5 -135v-173h55v-75zM314 182h-108q-72 0 -72 -57q0 -60 79 -60q45 0 73 20.5t28 54.5v42zM197 499l60 191
h116l-98 -191h-78z" />
    <glyph glyph-name="acircumflex" unicode="&#xe2;" horiz-adv-x="496" 
d="M470 0h-153v60q-45 -68 -131 -68q-67 0 -109.5 32t-42.5 98q0 63 45 94.5t120 31.5h115v14q0 87 -84 87q-69 0 -112 -52l-56 57q65 75 177 75q79 0 127.5 -46t48.5 -135v-173h55v-75zM314 182h-108q-72 0 -72 -57q0 -60 79 -60q45 0 73 20.5t28 54.5v42zM92 498l143 204
h10l143 -204h-86l-65 84l-66 -84h-79z" />
    <glyph glyph-name="atilde" unicode="&#xe3;" horiz-adv-x="496" 
d="M470 0h-153v60q-45 -68 -131 -68q-67 0 -109.5 32t-42.5 98q0 63 45 94.5t120 31.5h115v14q0 87 -84 87q-69 0 -112 -52l-56 57q65 75 177 75q79 0 127.5 -46t48.5 -135v-173h55v-75zM314 182h-108q-72 0 -72 -57q0 -60 79 -60q45 0 73 20.5t28 54.5v42zM152 496l-71 7
q4 60 31 92.5t68 32.5q34 0 67 -26q36 -27 48 -27q27 0 31 52l72 -7q-4 -60 -30.5 -92.5t-68.5 -32.5q-33 0 -67 27q-4 3 -11 8t-9 7t-7 5t-7.5 4t-6 2t-7.5 1q-26 0 -32 -53z" />
    <glyph glyph-name="adieresis" unicode="&#xe4;" horiz-adv-x="496" 
d="M470 0h-153v60q-45 -68 -131 -68q-67 0 -109.5 32t-42.5 98q0 63 45 94.5t120 31.5h115v14q0 87 -84 87q-69 0 -112 -52l-56 57q65 75 177 75q79 0 127.5 -46t48.5 -135v-173h55v-75zM314 182h-108q-72 0 -72 -57q0 -60 79 -60q45 0 73 20.5t28 54.5v42zM339 511
q-24 0 -42.5 18t-18.5 43q0 24 18.5 42t42.5 18t42 -17.5t18 -42.5t-18 -43t-42 -18zM144 511q-24 0 -42.5 18t-18.5 43q0 24 18.5 42t42.5 18t42 -17.5t18 -42.5t-18 -43t-42 -18z" />
    <glyph glyph-name="aring" unicode="&#xe5;" horiz-adv-x="496" 
d="M470 0h-153v60q-45 -68 -131 -68q-67 0 -109.5 32t-42.5 98q0 63 45 94.5t120 31.5h115v14q0 87 -84 87q-69 0 -112 -52l-56 57q65 75 177 75q79 0 127.5 -46t48.5 -135v-173h55v-75zM314 182h-108q-72 0 -72 -57q0 -60 79 -60q45 0 73 20.5t28 54.5v42zM241 479
q-49 0 -83 32t-34 77q0 46 34 78t83 32t82.5 -32t33.5 -78q0 -45 -34 -77t-82 -32zM241 533q23 0 37.5 15t14.5 40q0 26 -14.5 40.5t-37.5 14.5q-24 0 -38.5 -14.5t-14.5 -40.5q0 -25 14.5 -40t38.5 -15z" />
    <glyph glyph-name="ae" unicode="&#xe6;" horiz-adv-x="788" 
d="M365 80q-47 -88 -171 -88q-71 0 -115.5 32t-44.5 97q0 63 45 94t120 31h115v10q0 93 -84 93q-70 0 -112 -52l-56 57q65 75 177 75q99 0 134 -81q28 38 70 59.5t89 21.5q105 0 162 -69.5t52 -177.5h-331q5 -50 39.5 -81t90.5 -31q70 0 119 47l56 -58q-67 -67 -174 -67
q-122 0 -181 88zM414 245h236q-5 48 -34 77.5t-80 29.5q-50 0 -82 -29t-40 -78zM314 183h-108q-34 0 -53 -15t-19 -44q0 -59 79 -59q45 0 73 20.5t28 54.5v43z" />
    <glyph glyph-name="ccedilla" unicode="&#xe7;" horiz-adv-x="481" 
d="M242 -236q-76 0 -110 60l53 32q17 -33 49 -33q40 0 40 39q0 18 -12.5 29t-34.5 11h-28v98q-75 18 -119 74t-44 136q0 98 61.5 158.5t145.5 60.5q82 0 117 -49l6 40h66v-143h-72q-25 71 -96 71q-55 0 -89.5 -38.5t-34.5 -98.5q0 -63 35 -100.5t93 -37.5q65 0 109 51
l65 -56q-65 -76 -177 -76h-7v-38q37 -6 61.5 -31.5t24.5 -66.5t-30.5 -66.5t-71.5 -25.5z" />
    <glyph glyph-name="egrave" unicode="&#xe8;" horiz-adv-x="506" 
d="M139 178q6 -50 39.5 -79t90.5 -29q69 0 118 47l56 -58q-69 -67 -176 -67q-108 0 -170 61t-62 157q0 94 63 156.5t158 62.5q105 0 162 -71t52 -180h-331zM138 247h229q-2 46 -31.5 75t-78.5 29t-81 -28.5t-38 -75.5zM215 499l-98 191h116l60 -191h-78z" />
    <glyph glyph-name="eacute" unicode="&#xe9;" horiz-adv-x="506" 
d="M210 499l60 191h116l-98 -191h-78zM139 178q6 -50 39.5 -79t90.5 -29q69 0 118 47l56 -58q-69 -67 -176 -67q-108 0 -170 61t-62 157q0 94 63 156.5t158 62.5q105 0 162 -71t52 -180h-331zM138 247h229q-2 46 -31.5 75t-78.5 29t-81 -28.5t-38 -75.5z" />
    <glyph glyph-name="ecircumflex" unicode="&#xea;" horiz-adv-x="506" 
d="M104 498l143 204h10l143 -204h-86l-65 84l-66 -84h-79zM139 178q6 -50 39.5 -79t90.5 -29q69 0 118 47l56 -58q-69 -67 -176 -67q-108 0 -170 61t-62 157q0 94 63 156.5t158 62.5q105 0 162 -71t52 -180h-331zM138 247h229q-2 46 -31.5 75t-78.5 29t-81 -28.5t-38 -75.5z
" />
    <glyph glyph-name="edieresis" unicode="&#xeb;" horiz-adv-x="506" 
d="M350 511q-24 0 -42.5 18t-18.5 43q0 24 18.5 42t42.5 18t42 -17.5t18 -42.5t-18 -43t-42 -18zM155 511q-24 0 -42.5 18t-18.5 43q0 24 18.5 42t42.5 18t42 -17.5t18 -42.5t-18 -43t-42 -18zM139 178q6 -50 39.5 -79t90.5 -29q69 0 118 47l56 -58q-69 -67 -176 -67
q-108 0 -170 61t-62 157q0 94 63 156.5t158 62.5q105 0 162 -71t52 -180h-331zM138 247h229q-2 46 -31.5 75t-78.5 29t-81 -28.5t-38 -75.5z" />
    <glyph glyph-name="igrave" unicode="&#xec;" horiz-adv-x="279" 
d="M196 420v-345h55v-75h-212v75h56v267h-57v78h158zM110 499l-98 191h116l60 -191h-78z" />
    <glyph glyph-name="iacute" unicode="&#xed;" horiz-adv-x="279" 
d="M104 499l60 191h116l-98 -191h-78zM196 420v-345h55v-75h-212v75h56v267h-57v78h158z" />
    <glyph glyph-name="icircumflex" unicode="&#xee;" horiz-adv-x="279" 
d="M-1 498l143 204h10l143 -204h-86l-65 84l-66 -84h-79zM196 420v-345h55v-75h-212v75h56v267h-57v78h158z" />
    <glyph glyph-name="idieresis" unicode="&#xef;" horiz-adv-x="279" 
d="M244 511q-24 0 -42.5 18t-18.5 43q0 24 18.5 42t42.5 18t42 -17.5t18 -42.5t-18 -43t-42 -18zM49 511q-24 0 -42.5 18t-18.5 43q0 24 18.5 42t42.5 18t42 -17.5t18 -42.5t-18 -43t-42 -18zM196 420v-345h55v-75h-212v75h56v267h-57v78h158z" />
    <glyph glyph-name="eth" unicode="&#xf0;" horiz-adv-x="529" 
d="M262 558l-63 -62l-43 42l67 65q-41 43 -78 74l53 61q46 -36 88 -75l61 60l43 -42l-62 -60q162 -187 162 -373q0 -122 -63 -189t-163 -67q-96 0 -162 62t-66 155t62 156.5t146 63.5q76 0 121 -56q-29 98 -103 185zM264 70q56 0 89 38.5t33 104.5q0 64 -33 101t-89 37
t-90 -38t-34 -102q0 -65 33.5 -103t90.5 -38z" />
    <glyph glyph-name="ntilde" unicode="&#xf1;" horiz-adv-x="567" 
d="M33 0v75h55v267h-56v78h154v-78q19 41 57 64t86 23q71 0 114 -48t43 -132v-174h53v-75h-207v75h53v170q0 100 -88 100q-50 0 -79 -29.5t-29 -83.5v-157h54v-75h-210zM189 496l-71 7q4 60 31 92.5t68 32.5q34 0 67 -26q36 -27 48 -27q27 0 31 52l72 -7q-4 -60 -30.5 -92.5
t-68.5 -32.5q-33 0 -67 27q-4 3 -11 8t-9 7t-7 5t-7.5 4t-6 2t-7.5 1q-26 0 -32 -53z" />
    <glyph glyph-name="ograve" unicode="&#xf2;" horiz-adv-x="524" 
d="M262 -8q-96 0 -161.5 62t-65.5 155q0 94 65.5 157t161.5 63t161.5 -63t65.5 -157q0 -93 -65.5 -155t-161.5 -62zM262 70q56 0 89.5 39t33.5 100t-33.5 100t-89.5 39q-55 0 -89 -39t-34 -100t34 -100t89 -39zM225 499l-98 191h116l60 -191h-78z" />
    <glyph glyph-name="oacute" unicode="&#xf3;" horiz-adv-x="524" 
d="M218 499l60 191h116l-98 -191h-78zM262 -8q-96 0 -161.5 62t-65.5 155q0 94 65.5 157t161.5 63t161.5 -63t65.5 -157q0 -93 -65.5 -155t-161.5 -62zM262 70q56 0 89.5 39t33.5 100t-33.5 100t-89.5 39q-55 0 -89 -39t-34 -100t34 -100t89 -39z" />
    <glyph glyph-name="ocircumflex" unicode="&#xf4;" horiz-adv-x="524" 
d="M113 498l143 204h10l143 -204h-86l-65 84l-66 -84h-79zM262 -8q-96 0 -161.5 62t-65.5 155q0 94 65.5 157t161.5 63t161.5 -63t65.5 -157q0 -93 -65.5 -155t-161.5 -62zM262 70q56 0 89.5 39t33.5 100t-33.5 100t-89.5 39q-55 0 -89 -39t-34 -100t34 -100t89 -39z" />
    <glyph glyph-name="otilde" unicode="&#xf5;" horiz-adv-x="524" 
d="M262 -8q-96 0 -161.5 62t-65.5 155q0 94 65.5 157t161.5 63t161.5 -63t65.5 -157q0 -93 -65.5 -155t-161.5 -62zM262 70q56 0 89.5 39t33.5 100t-33.5 100t-89.5 39q-55 0 -89 -39t-34 -100t34 -100t89 -39zM172 496l-71 7q4 60 31 92.5t68 32.5q34 0 67 -26
q36 -27 48 -27q27 0 31 52l72 -7q-4 -60 -30.5 -92.5t-68.5 -32.5q-33 0 -67 27q-4 3 -11 8t-9 7t-7 5t-7.5 4t-6 2t-7.5 1q-26 0 -32 -53z" />
    <glyph glyph-name="odieresis" unicode="&#xf6;" horiz-adv-x="524" 
d="M358 511q-24 0 -42.5 18t-18.5 43q0 24 18.5 42t42.5 18t42 -17.5t18 -42.5t-18 -43t-42 -18zM163 511q-24 0 -42.5 18t-18.5 43q0 24 18.5 42t42.5 18t42 -17.5t18 -42.5t-18 -43t-42 -18zM262 -8q-96 0 -161.5 62t-65.5 155q0 94 65.5 157t161.5 63t161.5 -63
t65.5 -157q0 -93 -65.5 -155t-161.5 -62zM262 70q56 0 89.5 39t33.5 100t-33.5 100t-89.5 39q-55 0 -89 -39t-34 -100t34 -100t89 -39z" />
    <glyph glyph-name="divide" unicode="&#xf7;" horiz-adv-x="404" 
d="M201 351q-27 0 -46.5 19t-19.5 47t19.5 46.5t46.5 18.5t46 -18t19 -47q0 -28 -19 -47t-46 -19zM201 35q-27 0 -46.5 19t-19.5 47t19.5 46.5t46.5 18.5t46 -18.5t19 -46.5t-19 -47t-46 -19zM359 217h-314v84h314v-84z" />
    <glyph glyph-name="oslash" unicode="&#xf8;" horiz-adv-x="526" 
d="M262 -8q-84 0 -145 47l-59 -52l-42 48l57 51q-38 54 -38 123q0 94 65.5 157t161.5 63q83 0 145 -49l59 53l42 -49l-57 -50q38 -55 38 -125q0 -93 -65.5 -155t-161.5 -62zM262 70q57 0 92 39t35 100q0 32 -11 60l-195 -172q33 -27 79 -27zM135 209q0 -34 10 -60l195 173
q-34 26 -78 26q-57 0 -92 -39t-35 -100z" />
    <glyph glyph-name="ugrave" unicode="&#xf9;" horiz-adv-x="550" 
d="M465 75h55v-75h-154v80q-17 -40 -54 -64.5t-88 -24.5q-70 0 -113 47.5t-43 131.5v172h-54v78h155v-253q0 -95 87 -95q50 0 78.5 29t28.5 80v161h-53v78h155v-345zM221 499l-98 191h116l60 -191h-78z" />
    <glyph glyph-name="uacute" unicode="&#xfa;" horiz-adv-x="550" 
d="M214 499l60 191h116l-98 -191h-78zM465 75h55v-75h-154v80q-17 -40 -54 -64.5t-88 -24.5q-70 0 -113 47.5t-43 131.5v172h-54v78h155v-253q0 -95 87 -95q50 0 78.5 29t28.5 80v161h-53v78h155v-345z" />
    <glyph glyph-name="ucircumflex" unicode="&#xfb;" horiz-adv-x="550" 
d="M109 498l143 204h10l143 -204h-86l-65 84l-66 -84h-79zM465 75h55v-75h-154v80q-17 -40 -54 -64.5t-88 -24.5q-70 0 -113 47.5t-43 131.5v172h-54v78h155v-253q0 -95 87 -95q50 0 78.5 29t28.5 80v161h-53v78h155v-345z" />
    <glyph glyph-name="udieresis" unicode="&#xfc;" horiz-adv-x="550" 
d="M355 511q-24 0 -42.5 18t-18.5 43q0 24 18.5 42t42.5 18t42 -17.5t18 -42.5t-18 -43t-42 -18zM160 511q-24 0 -42.5 18t-18.5 43q0 24 18.5 42t42.5 18t42 -17.5t18 -42.5t-18 -43t-42 -18zM465 75h55v-75h-154v80q-17 -40 -54 -64.5t-88 -24.5q-70 0 -113 47.5
t-43 131.5v172h-54v78h155v-253q0 -95 87 -95q50 0 78.5 29t28.5 80v161h-53v78h155v-345z" />
    <glyph glyph-name="yacute" unicode="&#xfd;" horiz-adv-x="512" 
d="M22 342v78h195v-78h-46l67 -146q6 -14 13.5 -33t12.5 -32l4 -13q16 46 30 78l63 146h-46v78h175v-78h-40l-255 -554h-137v75h78l78 170l-146 309h-46zM222 499l60 191h116l-98 -191h-78z" />
    <glyph glyph-name="thorn" unicode="&#xfe;" horiz-adv-x="561" 
d="M300 74q54 0 86 37.5t32 99.5q0 60 -32 97.5t-86 37.5q-55 0 -88.5 -37.5t-33.5 -97.5q0 -62 33.5 -99.5t88.5 -37.5zM80 647h-63v75h164v-375q49 82 148 82q82 0 138 -62t56 -156t-57 -156.5t-139 -62.5q-103 0 -146 80v-212h71v-72h-227v72h55v787z" />
    <glyph glyph-name="ydieresis" unicode="&#xff;" horiz-adv-x="512" 
d="M22 342v78h195v-78h-46l67 -146q6 -14 13.5 -33t12.5 -32l4 -13q16 46 30 78l63 146h-46v78h175v-78h-40l-255 -554h-137v75h78l78 170l-146 309h-46zM363 511q-24 0 -42.5 18t-18.5 43q0 24 18.5 42t42.5 18t42 -17.5t18 -42.5t-18 -43t-42 -18zM168 511q-24 0 -42.5 18
t-18.5 43q0 24 18.5 42t42.5 18t42 -17.5t18 -42.5t-18 -43t-42 -18z" />
    <glyph glyph-name="Amacron" unicode="&#x100;" horiz-adv-x="701" 
d="M211 604v76h282v-76h-64l197 -528h53v-76h-227v76h67l-38 101h-271l-38 -101h84v-76h-233v76h53l202 528h-67zM308 441l-70 -185h216l-69 185q-13 32 -24.5 75.5t-12.5 54.5q-27 -95 -40 -130zM236 778v77h227v-77h-227z" />
    <glyph glyph-name="amacron" unicode="&#x101;" horiz-adv-x="496" 
d="M470 0h-153v60q-45 -68 -131 -68q-67 0 -109.5 32t-42.5 98q0 63 45 94.5t120 31.5h115v14q0 87 -84 87q-69 0 -112 -52l-56 57q65 75 177 75q79 0 127.5 -46t48.5 -135v-173h55v-75zM314 182h-108q-72 0 -72 -57q0 -60 79 -60q45 0 73 20.5t28 54.5v42zM122 520v77h227
v-77h-227z" />
    <glyph glyph-name="Abreve" unicode="&#x102;" horiz-adv-x="701" 
d="M211 604v76h282v-76h-64l197 -528h53v-76h-227v76h67l-38 101h-271l-38 -101h84v-76h-233v76h53l202 528h-67zM308 441l-70 -185h216l-69 185q-13 32 -24.5 75.5t-12.5 54.5q-27 -95 -40 -130zM350 752q-63 0 -101.5 35.5t-45.5 92.5l79 12q12 -64 68 -64q54 0 66 64
l80 -12q-7 -57 -45.5 -92.5t-100.5 -35.5z" />
    <glyph glyph-name="abreve" unicode="&#x103;" horiz-adv-x="496" 
d="M470 0h-153v60q-45 -68 -131 -68q-67 0 -109.5 32t-42.5 98q0 63 45 94.5t120 31.5h115v14q0 87 -84 87q-69 0 -112 -52l-56 57q65 75 177 75q79 0 127.5 -46t48.5 -135v-173h55v-75zM314 182h-108q-72 0 -72 -57q0 -60 79 -60q45 0 73 20.5t28 54.5v42zM236 494
q-63 0 -101.5 35.5t-45.5 92.5l79 12q12 -64 68 -64q54 0 66 64l80 -12q-7 -57 -45.5 -92.5t-100.5 -35.5z" />
    <glyph glyph-name="Aogonek" unicode="&#x104;" horiz-adv-x="701" 
d="M586 -219q-44 0 -73 24t-29 70q0 49 68 125h-100v76h67l-38 101h-271l-38 -101h84v-76h-233v76h53l202 528h-67v76h282v-76h-64l197 -528h53v-76h-50q-63 -86 -63 -117q0 -33 32 -33q22 0 37 25l55 -35q-33 -59 -104 -59zM308 441l-70 -185h216l-69 185
q-13 32 -24.5 75.5t-12.5 54.5q-27 -95 -40 -130z" />
    <glyph glyph-name="aogonek" unicode="&#x105;" horiz-adv-x="496" 
d="M351 -219q-44 0 -73 24t-29 70q0 49 68 125v60q-45 -68 -131 -68q-67 0 -109.5 32t-42.5 98q0 63 45 94.5t120 31.5h115v14q0 87 -84 87q-69 0 -112 -52l-56 57q65 75 177 75q79 0 127.5 -46t48.5 -135v-173h55v-75h-76q-63 -86 -63 -117q0 -33 32 -33q22 0 37 25l55 -35
q-33 -59 -104 -59zM314 182h-108q-72 0 -72 -57q0 -60 79 -60q45 0 73 20.5t28 54.5v42z" />
    <glyph glyph-name="Cacute" unicode="&#x106;" horiz-adv-x="718" 
d="M351 757l60 191h116l-98 -191h-78zM650 477h-79q-15 59 -62 91.5t-117 32.5q-106 0 -171 -75.5t-65 -183.5q0 -111 66 -186.5t175 -75.5q128 0 198 110l78 -52q-100 -146 -281 -146q-149 0 -247 96t-98 247q0 154 98 253.5t241 99.5q125 0 185 -75l8 67h71v-203z" />
    <glyph glyph-name="cacute" unicode="&#x107;" horiz-adv-x="481" 
d="M222 499l60 191h116l-98 -191h-78zM432 277h-72q-25 71 -96 71q-55 0 -89.5 -38.5t-34.5 -98.5q0 -63 35 -100.5t93 -37.5q65 0 109 51l65 -56q-65 -76 -177 -76q-101 0 -165 60.5t-64 157.5q0 98 61.5 158.5t145.5 60.5q82 0 117 -49l6 40h66v-143z" />
    <glyph glyph-name="Ccircumflex" unicode="&#x108;" horiz-adv-x="718" 
d="M246 756l143 204h10l143 -204h-86l-65 84l-66 -84h-79zM650 477h-79q-15 59 -62 91.5t-117 32.5q-106 0 -171 -75.5t-65 -183.5q0 -111 66 -186.5t175 -75.5q128 0 198 110l78 -52q-100 -146 -281 -146q-149 0 -247 96t-98 247q0 154 98 253.5t241 99.5q125 0 185 -75
l8 67h71v-203z" />
    <glyph glyph-name="ccircumflex" unicode="&#x109;" horiz-adv-x="481" 
d="M117 498l143 204h10l143 -204h-86l-65 84l-66 -84h-79zM432 277h-72q-25 71 -96 71q-55 0 -89.5 -38.5t-34.5 -98.5q0 -63 35 -100.5t93 -37.5q65 0 109 51l65 -56q-65 -76 -177 -76q-101 0 -165 60.5t-64 157.5q0 98 61.5 158.5t145.5 60.5q82 0 117 -49l6 40h66v-143z
" />
    <glyph glyph-name="Cdotaccent" unicode="&#x10a;" horiz-adv-x="718" 
d="M650 477h-79q-15 59 -62 91.5t-117 32.5q-106 0 -171 -75.5t-65 -183.5q0 -111 66 -186.5t175 -75.5q128 0 198 110l78 -52q-100 -146 -281 -146q-149 0 -247 96t-98 247q0 154 98 253.5t241 99.5q125 0 185 -75l8 67h71v-203zM394 769q-25 0 -43.5 17.5t-18.5 43.5
q0 25 19 43t43 18t42 -18t18 -43q0 -26 -18 -43.5t-42 -17.5z" />
    <glyph glyph-name="cdotaccent" unicode="&#x10b;" horiz-adv-x="481" 
d="M432 277h-72q-25 71 -96 71q-55 0 -89.5 -38.5t-34.5 -98.5q0 -63 35 -100.5t93 -37.5q65 0 109 51l65 -56q-65 -76 -177 -76q-101 0 -165 60.5t-64 157.5q0 98 61.5 158.5t145.5 60.5q82 0 117 -49l6 40h66v-143zM265 511q-25 0 -43.5 17.5t-18.5 43.5q0 25 19 43t43 18
t42 -18t18 -43q0 -26 -18 -43.5t-42 -17.5z" />
    <glyph glyph-name="Ccaron" unicode="&#x10c;" horiz-adv-x="718" 
d="M389 743l-143 204h88l64 -84l67 84h77l-143 -204h-10zM650 477h-79q-15 59 -62 91.5t-117 32.5q-106 0 -171 -75.5t-65 -183.5q0 -111 66 -186.5t175 -75.5q128 0 198 110l78 -52q-100 -146 -281 -146q-149 0 -247 96t-98 247q0 154 98 253.5t241 99.5q125 0 185 -75
l8 67h71v-203z" />
    <glyph glyph-name="ccaron" unicode="&#x10d;" horiz-adv-x="481" 
d="M260 485l-143 204h88l64 -84l67 84h77l-143 -204h-10zM432 277h-72q-25 71 -96 71q-55 0 -89.5 -38.5t-34.5 -98.5q0 -63 35 -100.5t93 -37.5q65 0 109 51l65 -56q-65 -76 -177 -76q-101 0 -165 60.5t-64 157.5q0 98 61.5 158.5t145.5 60.5q82 0 117 -49l6 40h66v-143z
" />
    <glyph glyph-name="Dcaron" unicode="&#x10e;" horiz-adv-x="705" 
d="M307 743l-143 204h88l64 -84l67 84h77l-143 -204h-10zM213 83h75q129 0 194.5 69t65.5 188t-65.5 188t-194.5 69h-75v-514zM48 680h246q164 0 263.5 -92.5t99.5 -247.5t-99 -247.5t-264 -92.5h-246v76h59v528h-59v76z" />
    <glyph glyph-name="dcaron" unicode="&#x10f;" horiz-adv-x="566" 
d="M547 505l34 100q-16 6 -27 22t-11 35q0 27 19 45.5t44 18.5q27 0 45.5 -17t18.5 -44q0 -24 -20 -62l-53 -98h-50zM380 647h-65v75h167v-647h54v-75h-153v79q-18 -41 -57.5 -64t-91.5 -23q-82 0 -139 62.5t-57 156.5t56.5 156t138.5 62q105 0 147 -85v303zM261 346
q-54 0 -86.5 -37.5t-32.5 -99.5q0 -60 32.5 -97.5t86.5 -37.5q55 0 88.5 37.5t33.5 97.5q0 62 -33.5 99.5t-88.5 37.5z" />
    <glyph glyph-name="Dcroat" unicode="&#x110;" horiz-adv-x="705" 
d="M48 680h246q164 0 263.5 -92.5t99.5 -247.5t-99 -247.5t-264 -92.5h-246v76h59v226h-68v75h68v227h-59v76zM213 83h75q129 0 194.5 69t65.5 188t-65.5 188t-194.5 69h-75v-220h167v-75h-167v-219z" />
    <glyph glyph-name="dcroat" unicode="&#x111;" horiz-adv-x="566" 
d="M380 647h-65v75h167v-146h68v-65h-68v-436h54v-75h-153v79q-18 -41 -57.5 -64t-91.5 -23q-82 0 -139 62.5t-57 156.5t56.5 156t138.5 62q105 0 147 -85v167h-146v65h146v71zM261 346q-54 0 -86.5 -37.5t-32.5 -99.5q0 -60 32.5 -97.5t86.5 -37.5q55 0 88.5 37.5
t33.5 97.5q0 62 -33.5 99.5t-88.5 37.5z" />
    <glyph glyph-name="Emacron" unicode="&#x112;" horiz-adv-x="604" 
d="M553 0h-505v76h59v528h-59v76h491v-167h-77l-15 84h-234v-214h246v-83h-246v-217h248l15 90h77v-173zM193 778v77h227v-77h-227z" />
    <glyph glyph-name="emacron" unicode="&#x113;" horiz-adv-x="506" 
d="M139 178q6 -50 39.5 -79t90.5 -29q69 0 118 47l56 -58q-69 -67 -176 -67q-108 0 -170 61t-62 157q0 94 63 156.5t158 62.5q105 0 162 -71t52 -180h-331zM138 247h229q-2 46 -31.5 75t-78.5 29t-81 -28.5t-38 -75.5zM139 520v77h227v-77h-227z" />
    <glyph glyph-name="Ebreve" unicode="&#x114;" horiz-adv-x="604" 
d="M553 0h-505v76h59v528h-59v76h491v-167h-77l-15 84h-234v-214h246v-83h-246v-217h248l15 90h77v-173zM313 752q-63 0 -101.5 35.5t-45.5 92.5l79 12q12 -64 68 -64q54 0 66 64l80 -12q-7 -57 -45.5 -92.5t-100.5 -35.5z" />
    <glyph glyph-name="ebreve" unicode="&#x115;" horiz-adv-x="506" 
d="M139 178q6 -50 39.5 -79t90.5 -29q69 0 118 47l56 -58q-69 -67 -176 -67q-108 0 -170 61t-62 157q0 94 63 156.5t158 62.5q105 0 162 -71t52 -180h-331zM138 247h229q-2 46 -31.5 75t-78.5 29t-81 -28.5t-38 -75.5zM253 494q-63 0 -101.5 35.5t-45.5 92.5l79 12
q12 -64 68 -64q54 0 66 64l80 -12q-7 -57 -45.5 -92.5t-100.5 -35.5z" />
    <glyph glyph-name="Edotaccent" unicode="&#x116;" horiz-adv-x="604" 
d="M553 0h-505v76h59v528h-59v76h491v-167h-77l-15 84h-234v-214h246v-83h-246v-217h248l15 90h77v-173zM315 769q-25 0 -43.5 17.5t-18.5 43.5q0 25 19 43t43 18t42 -18t18 -43q0 -26 -18 -43.5t-42 -17.5z" />
    <glyph glyph-name="edotaccent" unicode="&#x117;" horiz-adv-x="506" 
d="M139 178q6 -50 39.5 -79t90.5 -29q69 0 118 47l56 -58q-69 -67 -176 -67q-108 0 -170 61t-62 157q0 94 63 156.5t158 62.5q105 0 162 -71t52 -180h-331zM138 247h229q-2 46 -31.5 75t-78.5 29t-81 -28.5t-38 -75.5zM253 511q-25 0 -43.5 17.5t-18.5 43.5q0 25 19 43
t43 18t42 -18t18 -43q0 -26 -18 -43.5t-42 -17.5z" />
    <glyph glyph-name="Eogonek" unicode="&#x118;" horiz-adv-x="604" 
d="M553 0h-50q-63 -86 -63 -117q0 -33 32 -33q22 0 37 25l55 -35q-33 -59 -104 -59q-44 0 -73 24t-29 70q0 49 68 125h-378v76h59v528h-59v76h491v-167h-77l-15 84h-234v-214h246v-83h-246v-217h248l15 90h77v-173z" />
    <glyph glyph-name="eogonek" unicode="&#x119;" horiz-adv-x="506" 
d="M324 -219q-45 0 -74 24t-29 69q0 54 73 119q-9 -1 -27 -1q-108 0 -170 61t-62 157q0 94 63 156.5t158 62.5q105 0 162 -70.5t52 -178.5h-331q6 -51 39.5 -80.5t90.5 -29.5q69 0 118 47l56 -58q-12 -13 -44 -39t-45 -42q-51 -60 -51 -95q0 -33 32 -33q22 0 37 25l56 -35
q-33 -59 -104 -59zM138 242h229q-2 49 -31 79.5t-79 30.5q-49 0 -81 -29.5t-38 -80.5z" />
    <glyph glyph-name="Ecaron" unicode="&#x11a;" horiz-adv-x="604" 
d="M307 743l-143 204h88l64 -84l67 84h77l-143 -204h-10zM553 0h-505v76h59v528h-59v76h491v-167h-77l-15 84h-234v-214h246v-83h-246v-217h248l15 90h77v-173z" />
    <glyph glyph-name="ecaron" unicode="&#x11b;" horiz-adv-x="506" 
d="M248 485l-143 204h88l64 -84l67 84h77l-143 -204h-10zM139 178q6 -50 39.5 -79t90.5 -29q69 0 118 47l56 -58q-69 -67 -176 -67q-108 0 -170 61t-62 157q0 94 63 156.5t158 62.5q105 0 162 -71t52 -180h-331zM138 247h229q-2 46 -31.5 75t-78.5 29t-81 -28.5t-38 -75.5z
" />
    <glyph glyph-name="Gcircumflex" unicode="&#x11c;" horiz-adv-x="753" 
d="M245 756l143 204h10l143 -204h-86l-65 84l-66 -84h-79zM675 0h-73l-10 56q-80 -64 -202 -64q-148 0 -245.5 96.5t-97.5 248.5q0 155 99.5 253t244.5 98q128 0 181 -76l8 68h71v-203h-79q-15 62 -62 93t-113 31q-110 0 -175.5 -76t-65.5 -185q0 -114 64 -188.5t180 -74.5
q107 0 173 52v130h-178v85h280v-344z" />
    <glyph glyph-name="gcircumflex" unicode="&#x11d;" horiz-adv-x="480" 
d="M92 498l143 204h10l143 -204h-86l-65 84l-66 -84h-79zM301 420h157v-70h-75q30 -28 30 -76q0 -66 -48.5 -107.5t-125.5 -41.5q-51 0 -84 18q-25 -11 -25 -35q0 -36 50 -39l106 -6q176 -12 176 -133q0 -70 -57.5 -111.5t-168.5 -41.5q-105 0 -162.5 36t-57.5 96
q0 75 85 101q-52 25 -52 82q0 59 58 84q-44 34 -44 101t49.5 109.5t126.5 42.5q35 0 62 -9zM238 195q38 0 59 22.5t21 59.5q0 36 -21.5 58.5t-58.5 22.5q-38 0 -59.5 -22.5t-21.5 -58.5q0 -37 21.5 -59.5t59.5 -22.5zM163 -18q-21 -7 -34.5 -23.5t-13.5 -37.5q0 -71 121 -71
q127 0 127 69q0 28 -21.5 40.5t-76.5 15.5z" />
    <glyph glyph-name="Gbreve" unicode="&#x11e;" horiz-adv-x="753" 
d="M675 0h-73l-10 56q-80 -64 -202 -64q-148 0 -245.5 96.5t-97.5 248.5q0 155 99.5 253t244.5 98q128 0 181 -76l8 68h71v-203h-79q-15 62 -62 93t-113 31q-110 0 -175.5 -76t-65.5 -185q0 -114 64 -188.5t180 -74.5q107 0 173 52v130h-178v85h280v-344zM392 752
q-63 0 -101.5 35.5t-45.5 92.5l79 12q12 -64 68 -64q54 0 66 64l80 -12q-7 -57 -45.5 -92.5t-100.5 -35.5z" />
    <glyph glyph-name="gbreve" unicode="&#x11f;" horiz-adv-x="480" 
d="M301 420h157v-70h-75q30 -28 30 -76q0 -66 -48.5 -107.5t-125.5 -41.5q-51 0 -84 18q-25 -11 -25 -35q0 -36 50 -39l106 -6q176 -12 176 -133q0 -70 -57.5 -111.5t-168.5 -41.5q-105 0 -162.5 36t-57.5 96q0 75 85 101q-52 25 -52 82q0 59 58 84q-44 34 -44 101
t49.5 109.5t126.5 42.5q35 0 62 -9zM238 195q38 0 59 22.5t21 59.5q0 36 -21.5 58.5t-58.5 22.5q-38 0 -59.5 -22.5t-21.5 -58.5q0 -37 21.5 -59.5t59.5 -22.5zM163 -18q-21 -7 -34.5 -23.5t-13.5 -37.5q0 -71 121 -71q127 0 127 69q0 28 -21.5 40.5t-76.5 15.5zM240 494
q-63 0 -101.5 35.5t-45.5 92.5l79 12q12 -64 68 -64q54 0 66 64l80 -12q-7 -57 -45.5 -92.5t-100.5 -35.5z" />
    <glyph glyph-name="Gdotaccent" unicode="&#x120;" horiz-adv-x="753" 
d="M675 0h-73l-10 56q-80 -64 -202 -64q-148 0 -245.5 96.5t-97.5 248.5q0 155 99.5 253t244.5 98q128 0 181 -76l8 68h71v-203h-79q-15 62 -62 93t-113 31q-110 0 -175.5 -76t-65.5 -185q0 -114 64 -188.5t180 -74.5q107 0 173 52v130h-178v85h280v-344zM392 769
q-25 0 -43.5 17.5t-18.5 43.5q0 25 19 43t43 18t42 -18t18 -43q0 -26 -18 -43.5t-42 -17.5z" />
    <glyph glyph-name="gdotaccent" unicode="&#x121;" horiz-adv-x="480" 
d="M301 420h157v-70h-75q30 -28 30 -76q0 -66 -48.5 -107.5t-125.5 -41.5q-51 0 -84 18q-25 -11 -25 -35q0 -36 50 -39l106 -6q176 -12 176 -133q0 -70 -57.5 -111.5t-168.5 -41.5q-105 0 -162.5 36t-57.5 96q0 75 85 101q-52 25 -52 82q0 59 58 84q-44 34 -44 101
t49.5 109.5t126.5 42.5q35 0 62 -9zM238 195q38 0 59 22.5t21 59.5q0 36 -21.5 58.5t-58.5 22.5q-38 0 -59.5 -22.5t-21.5 -58.5q0 -37 21.5 -59.5t59.5 -22.5zM163 -18q-21 -7 -34.5 -23.5t-13.5 -37.5q0 -71 121 -71q127 0 127 69q0 28 -21.5 40.5t-76.5 15.5zM240 511
q-25 0 -43.5 17.5t-18.5 43.5q0 25 19 43t43 18t42 -18t18 -43q0 -26 -18 -43.5t-42 -17.5z" />
    <glyph glyph-name="Gcommaaccent" unicode="&#x122;" horiz-adv-x="753" 
d="M335 -269l31 98q-15 6 -25.5 22t-10.5 36q0 27 19 45t45 18q25 0 44.5 -18.5t19.5 -44.5q0 -28 -19 -60l-52 -96h-52zM675 0h-73l-10 56q-80 -64 -202 -64q-148 0 -245.5 96.5t-97.5 248.5q0 155 99.5 253t244.5 98q128 0 181 -76l8 68h71v-203h-79q-15 62 -62 93
t-113 31q-110 0 -175.5 -76t-65.5 -185q0 -114 64 -188.5t180 -74.5q107 0 173 52v130h-178v85h280v-344z" />
    <glyph glyph-name="gcommaaccent" unicode="&#x123;" horiz-adv-x="480" 
d="M296 727l-31 -98q15 -6 25.5 -22t10.5 -36q0 -27 -19 -45t-45 -18q-25 0 -44.5 18.5t-19.5 44.5q0 28 19 60l52 96h52zM301 420h157v-70h-75q30 -28 30 -76q0 -66 -48.5 -107.5t-125.5 -41.5q-51 0 -84 18q-25 -11 -25 -35q0 -36 50 -39l106 -6q176 -12 176 -133
q0 -70 -57.5 -111.5t-168.5 -41.5q-105 0 -162.5 36t-57.5 96q0 75 85 101q-52 25 -52 82q0 59 58 84q-44 34 -44 101t49.5 109.5t126.5 42.5q35 0 62 -9zM238 195q38 0 59 22.5t21 59.5q0 36 -21.5 58.5t-58.5 22.5q-38 0 -59.5 -22.5t-21.5 -58.5q0 -37 21.5 -59.5
t59.5 -22.5zM163 -18q-21 -7 -34.5 -23.5t-13.5 -37.5q0 -71 121 -71q127 0 127 69q0 28 -21.5 40.5t-76.5 15.5z" />
    <glyph glyph-name="Hcircumflex" unicode="&#x124;" horiz-adv-x="754" 
d="M228 756l143 204h10l143 -204h-86l-65 84l-66 -84h-79zM541 76v213h-328v-213h63v-76h-228v76h59v528h-59v76h228v-76h-63v-231h328v231h-63v76h227v-76h-59v-528h59v-76h-227v76h63z" />
    <glyph glyph-name="hcircumflex" unicode="&#x125;" horiz-adv-x="567" 
d="M147 762l143 204h10l143 -204h-86l-65 84l-66 -84h-79zM88 647h-63v75h164v-377q20 39 56.5 61.5t83.5 22.5q71 0 114 -48t43 -132v-174h53v-75h-207v75h53v170q0 100 -88 100q-50 0 -79 -29.5t-29 -83.5v-157h54v-75h-210v75h55v572z" />
    <glyph glyph-name="Hbar" unicode="&#x126;" horiz-adv-x="754" 
d="M48 456v65h59v83h-59v76h228v-76h-63v-83h328v83h-63v76h227v-76h-59v-83h60v-65h-60v-380h59v-76h-227v76h63v213h-328v-213h63v-76h-228v76h59v380h-59zM213 366h328v90h-328v-90z" />
    <glyph glyph-name="hbar" unicode="&#x127;" horiz-adv-x="567" 
d="M88 647h-63v75h164v-146h148v-65h-148v-166q20 39 56.5 61.5t83.5 22.5q71 0 114 -48t43 -132v-174h53v-75h-207v75h53v170q0 100 -88 100q-50 0 -79 -29.5t-29 -83.5v-157h54v-75h-210v75h55v436h-67v65h67v71z" />
    <glyph glyph-name="Imacron" unicode="&#x12a;" horiz-adv-x="322" 
d="M214 604v-528h60v-76h-226v76h61v528h-61v76h226v-76h-60zM48 778v77h227v-77h-227z" />
    <glyph glyph-name="imacron" unicode="&#x12b;" horiz-adv-x="279" 
d="M32 520v77h205v-77h-205zM196 420v-345h55v-75h-212v75h56v267h-57v78h158z" />
    <glyph glyph-name="Iogonek" unicode="&#x12e;" horiz-adv-x="322" 
d="M214 604v-528h60v-76h-65q-58 -84 -58 -117t32 -33q23 0 36 25l56 -35q-33 -59 -104 -59q-45 0 -73.5 24t-28.5 70q0 49 64 125h-85v76h61v528h-61v76h226v-76h-60z" />
    <glyph glyph-name="iogonek" unicode="&#x12f;" horiz-adv-x="279" 
d="M196 420v-345h55v-75h-57q-59 -84 -59 -117t32 -33q22 0 37 25l55 -35q-33 -59 -104 -59q-44 0 -73 24t-29 70q0 49 64 125h-78v75h56v267h-57v78h158zM141 518q-27 0 -46.5 18.5t-19.5 46.5t19.5 46t46.5 18t45.5 -18t18.5 -46q0 -29 -18.5 -47t-45.5 -18z" />
    <glyph glyph-name="Idotaccent" unicode="&#x130;" horiz-adv-x="322" 
d="M214 604v-528h60v-76h-226v76h61v528h-61v76h226v-76h-60zM162 769q-25 0 -43.5 17.5t-18.5 43.5q0 25 19 43t43 18t42 -18t18 -43q0 -26 -18 -43.5t-42 -17.5z" />
    <glyph glyph-name="dotlessi" unicode="&#x131;" horiz-adv-x="279" 
d="M196 420v-345h55v-75h-212v75h56v267h-57v78h158z" />
    <glyph glyph-name="Jcircumflex" unicode="&#x134;" horiz-adv-x="500" 
d="M196 756l143 204h10l143 -204h-86l-65 84l-66 -84h-79zM216 604v76h241v-76h-59v-414q0 -98 -53.5 -148t-145.5 -50q-136 0 -186 122l84 43q28 -78 99 -78q97 0 97 111v414h-77z" />
    <glyph glyph-name="jcircumflex" unicode="&#x135;" horiz-adv-x="261" 
d="M191 420v-503q0 -67 -34.5 -103t-97.5 -36q-64 0 -102 46l52 60q21 -19 42 -19q38 0 38 49v428h-56v78h158zM-6 498l143 204h10l143 -204h-86l-65 84l-66 -84h-79z" />
    <glyph glyph-name="Kcommaaccent" unicode="&#x136;" horiz-adv-x="662" 
d="M614 604h-53l-190 -227l208 -301h57v-76h-236v73h59l-159 231l-87 -100v-131h63v-73h-228v76h59v528h-59v76h228v-74h-63v-211q0 -63 -4 -90q21 37 57 78l191 223h-56v74h213v-76zM278 -269l31 98q-15 6 -25.5 22t-10.5 36q0 27 19 45t45 18q25 0 44.5 -18.5t19.5 -44.5
q0 -28 -19 -60l-52 -96h-52z" />
    <glyph glyph-name="kcommaaccent" unicode="&#x137;" horiz-adv-x="534" 
d="M210 -269l31 98q-15 6 -25.5 22t-10.5 36q0 27 19 45t45 18q25 0 44.5 -18.5t19.5 -44.5q0 -28 -19 -60l-52 -96h-52zM284 345v75h205v-78h-58l-101 -94l132 -173h53v-75h-211v74h42l-91 116l-66 -57v-58h50v-75h-206v75h55v572h-63v75h164v-434q0 -56 -4 -80l150 137
h-51z" />
    <glyph glyph-name="Lacute" unicode="&#x139;" horiz-adv-x="568" 
d="M128 750l60 191h116l-98 -191h-78zM48 0v76h59v528h-59v76h228v-76h-63v-521h222l15 108h78v-191h-480z" />
    <glyph glyph-name="lacute" unicode="&#x13a;" horiz-adv-x="278" 
d="M105 770l60 191h116l-98 -191h-78zM90 75v572h-65v75h166v-647h57v-75h-215v75h57z" />
    <glyph glyph-name="Lcommaaccent" unicode="&#x13b;" horiz-adv-x="568" 
d="M228 -269l31 98q-15 6 -25.5 22t-10.5 36q0 27 19 45t45 18q25 0 44.5 -18.5t19.5 -44.5q0 -28 -19 -60l-52 -96h-52zM48 0v76h59v528h-59v76h228v-76h-63v-521h222l15 108h78v-191h-480z" />
    <glyph glyph-name="lcommaaccent" unicode="&#x13c;" horiz-adv-x="277" 
d="M75 -269l31 98q-15 6 -25.5 22t-10.5 36q0 27 19 45t45 18q25 0 44.5 -18.5t19.5 -44.5q0 -28 -19 -60l-52 -96h-52zM90 75v572h-65v75h166v-647h57v-75h-215v75h57z" />
    <glyph glyph-name="Lcaron" unicode="&#x13d;" horiz-adv-x="568" 
d="M348 466l34 100q-16 6 -27 22t-11 35q0 27 19 45.5t44 18.5q26 0 45 -17.5t19 -43.5q0 -25 -21 -62l-52 -98h-50zM48 0v76h59v528h-59v76h228v-76h-63v-521h222l15 108h78v-191h-480z" />
    <glyph glyph-name="lcaron" unicode="&#x13e;" horiz-adv-x="277" 
d="M255 505l34 100q-16 6 -26.5 21.5t-10.5 35.5q0 27 19 45.5t44 18.5q26 0 45 -17.5t19 -43.5q0 -25 -21 -62l-53 -98h-50zM90 75v572h-65v75h166v-647h57v-75h-215v75h57z" />
    <glyph glyph-name="Lslash" unicode="&#x141;" horiz-adv-x="568" 
d="M48 0v76h59v172l-67 -24v77l67 24v279h-59v76h228v-76h-63v-240l190 70v-77l-190 -70v-204h222l15 108h78v-191h-480z" />
    <glyph glyph-name="lslash" unicode="&#x142;" horiz-adv-x="290" 
d="M39 0v75h56v171l-75 -44v83l75 45v317h-68v75h169v-335l79 46v-84l-79 -46v-228h57v-75h-214z" />
    <glyph glyph-name="Nacute" unicode="&#x143;" horiz-adv-x="758" 
d="M336 757l60 191h116l-98 -191h-78zM562 260v344h-68v76h217v-76h-59v-604h-77l-332 453q-25 32 -49 81v-7q1 -7 1.5 -18.5t1 -24.5t1 -28.5t0.5 -27.5v-352h67v-76h-217v76h59v528h-59v76h151l323 -441q7 -9 15.5 -22.5t15 -24.5t11.5 -20l6 -9l-2 17q-2 17 -4 40.5
t-2 39.5z" />
    <glyph glyph-name="nacute" unicode="&#x144;" horiz-adv-x="567" 
d="M251 499l60 191h116l-98 -191h-78zM33 0v75h55v267h-56v78h154v-78q19 41 57 64t86 23q71 0 114 -48t43 -132v-174h53v-75h-207v75h53v170q0 100 -88 100q-50 0 -79 -29.5t-29 -83.5v-157h54v-75h-210z" />
    <glyph glyph-name="Ncommaaccent" unicode="&#x145;" horiz-adv-x="758" 
d="M320 -269l31 98q-15 6 -25.5 22t-10.5 36q0 27 19 45t45 18q25 0 44.5 -18.5t19.5 -44.5q0 -28 -19 -60l-52 -96h-52zM562 260v344h-68v76h217v-76h-59v-604h-77l-332 453q-25 32 -49 81v-7q1 -7 1.5 -18.5t1 -24.5t1 -28.5t0.5 -27.5v-352h67v-76h-217v76h59v528h-59v76
h151l323 -441q7 -9 15.5 -22.5t15 -24.5t11.5 -20l6 -9l-2 17q-2 17 -4 40.5t-2 39.5z" />
    <glyph glyph-name="ncommaaccent" unicode="&#x146;" horiz-adv-x="567" 
d="M231 -269l31 98q-15 6 -25.5 22t-10.5 36q0 27 19 45t45 18q25 0 44.5 -18.5t19.5 -44.5q0 -28 -19 -60l-52 -96h-52zM33 0v75h55v267h-56v78h154v-78q19 41 57 64t86 23q71 0 114 -48t43 -132v-174h53v-75h-207v75h53v170q0 100 -88 100q-50 0 -79 -29.5t-29 -83.5v-157
h54v-75h-210z" />
    <glyph glyph-name="Ncaron" unicode="&#x147;" horiz-adv-x="758" 
d="M375 743l-143 204h88l64 -84l67 84h77l-143 -204h-10zM562 260v344h-68v76h217v-76h-59v-604h-77l-332 453q-25 32 -49 81v-7q1 -7 1.5 -18.5t1 -24.5t1 -28.5t0.5 -27.5v-352h67v-76h-217v76h59v528h-59v76h151l323 -441q7 -9 15.5 -22.5t15 -24.5t11.5 -20l6 -9l-2 17
q-2 17 -4 40.5t-2 39.5z" />
    <glyph glyph-name="ncaron" unicode="&#x148;" horiz-adv-x="567" 
d="M278 485l-143 204h88l64 -84l67 84h77l-143 -204h-10zM33 0v75h55v267h-56v78h154v-78q19 41 57 64t86 23q71 0 114 -48t43 -132v-174h53v-75h-207v75h53v170q0 100 -88 100q-50 0 -79 -29.5t-29 -83.5v-157h54v-75h-210z" />
    <glyph glyph-name="Omacron" unicode="&#x14c;" horiz-adv-x="796" 
d="M284 778v77h227v-77h-227zM398 -8q-149 0 -250 98.5t-101 249.5t101 249.5t250 98.5t250 -98.5t101 -249.5t-101 -249.5t-250 -98.5zM398 79q106 0 174 73t68 188t-68 188t-174 73t-174 -73t-68 -188t68 -188t174 -73z" />
    <glyph glyph-name="omacron" unicode="&#x14d;" horiz-adv-x="524" 
d="M147 520v77h227v-77h-227zM262 -8q-96 0 -161.5 62t-65.5 155q0 94 65.5 157t161.5 63t161.5 -63t65.5 -157q0 -93 -65.5 -155t-161.5 -62zM262 70q56 0 89.5 39t33.5 100t-33.5 100t-89.5 39q-55 0 -89 -39t-34 -100t34 -100t89 -39z" />
    <glyph glyph-name="Ohungarumlaut" unicode="&#x150;" horiz-adv-x="796" 
d="M434 757l59 191h107l-88 -191h-78zM273 757l59 191h107l-89 -191h-77zM398 -8q-149 0 -250 98.5t-101 249.5t101 249.5t250 98.5t250 -98.5t101 -249.5t-101 -249.5t-250 -98.5zM398 79q106 0 174 73t68 188t-68 188t-174 73t-174 -73t-68 -188t68 -188t174 -73z" />
    <glyph glyph-name="ohungarumlaut" unicode="&#x151;" horiz-adv-x="524" 
d="M297 499l59 191h107l-88 -191h-78zM136 499l59 191h107l-89 -191h-77zM262 -8q-96 0 -161.5 62t-65.5 155q0 94 65.5 157t161.5 63t161.5 -63t65.5 -157q0 -93 -65.5 -155t-161.5 -62zM262 70q56 0 89.5 39t33.5 100t-33.5 100t-89.5 39q-55 0 -89 -39t-34 -100t34 -100
t89 -39z" />
    <glyph glyph-name="OE" unicode="&#x152;" horiz-adv-x="985" 
d="M916 513h-77l-15 84h-235v-214h246v-83h-246v-217h249l15 90h77v-173h-510q-169 0 -271 94t-102 246t101.5 246t271.5 94h496v-167zM484 83v514h-59q-132 0 -200.5 -71t-68.5 -186t68.5 -186t200.5 -71h59z" />
    <glyph glyph-name="oe" unicode="&#x153;" horiz-adv-x="860" 
d="M486 180q7 -50 40.5 -80t91.5 -30q74 0 123 47l56 -58q-67 -67 -178 -67q-127 0 -183 95q-25 -44 -69.5 -69.5t-104.5 -25.5q-96 0 -161.5 62t-65.5 155q0 94 65.5 157t161.5 63q121 0 173 -95q55 95 172 95q105 0 163.5 -70.5t53.5 -178.5h-338zM262 70q56 0 89.5 39
t33.5 100t-33.5 100t-89.5 39q-55 0 -89 -39t-34 -100t34 -100t89 -39zM485 242h237q-5 51 -34 80.5t-80 29.5q-50 0 -82.5 -29t-40.5 -81z" />
    <glyph glyph-name="Racute" unicode="&#x154;" horiz-adv-x="658" 
d="M266 757l60 191h116l-98 -191h-78zM48 680h287q112 0 179.5 -53.5t67.5 -160.5q0 -144 -138 -190l114 -200h69v-76h-141l-147 259q-5 -1 -22 -1h-104v-182h66v-76h-231v76h59v528h-59v76zM213 337h118q143 0 143 129q0 131 -143 131h-118v-260z" />
    <glyph glyph-name="racute" unicode="&#x155;" horiz-adv-x="391" 
d="M165 499l60 191h116l-98 -191h-78zM189 75h71v-75h-227v75h55v267h-56v78h154v-84q36 92 124 92q42 0 68 -16l-34 -91q-25 18 -59 18q-96 0 -96 -130v-134z" />
    <glyph glyph-name="Rcommaaccent" unicode="&#x156;" horiz-adv-x="658" 
d="M295 -269l31 98q-15 6 -25.5 22t-10.5 36q0 27 19 45t45 18q25 0 44.5 -18.5t19.5 -44.5q0 -28 -19 -60l-52 -96h-52zM48 680h287q112 0 179.5 -53.5t67.5 -160.5q0 -144 -138 -190l114 -200h69v-76h-141l-147 259q-5 -1 -22 -1h-104v-182h66v-76h-231v76h59v528h-59v76z
M213 337h118q143 0 143 129q0 131 -143 131h-118v-260z" />
    <glyph glyph-name="rcommaaccent" unicode="&#x157;" horiz-adv-x="391" 
d="M81 -269l31 98q-15 6 -25.5 22t-10.5 36q0 27 19 45t45 18q25 0 44.5 -18.5t19.5 -44.5q0 -28 -19 -60l-52 -96h-52zM189 75h71v-75h-227v75h55v267h-56v78h154v-84q36 92 124 92q42 0 68 -16l-34 -91q-25 18 -59 18q-96 0 -96 -130v-134z" />
    <glyph glyph-name="Rcaron" unicode="&#x158;" horiz-adv-x="658" 
d="M304 743l-143 204h88l64 -84l67 84h77l-143 -204h-10zM48 680h287q112 0 179.5 -53.5t67.5 -160.5q0 -144 -138 -190l114 -200h69v-76h-141l-147 259q-5 -1 -22 -1h-104v-182h66v-76h-231v76h59v528h-59v76zM213 337h118q143 0 143 129q0 131 -143 131h-118v-260z" />
    <glyph glyph-name="rcaron" unicode="&#x159;" horiz-adv-x="391" 
d="M201 485l-143 204h88l64 -84l67 84h77l-143 -204h-10zM189 75h71v-75h-227v75h55v267h-56v78h154v-84q36 92 124 92q42 0 68 -16l-34 -91q-25 18 -59 18q-96 0 -96 -130v-134z" />
    <glyph glyph-name="Sacute" unicode="&#x15a;" horiz-adv-x="535" 
d="M225 757l60 191h116l-98 -191h-78zM460 504h-82q-7 47 -38.5 74t-77.5 27q-45 0 -72 -23.5t-27 -62.5q0 -37 23.5 -60t80.5 -46l49 -20q90 -34 134 -83.5t44 -125.5q0 -93 -60 -142.5t-150 -49.5q-113 0 -162 69l-10 -61h-68v200h82q8 -58 46 -91t100 -33q53 0 86.5 27
t33.5 73q0 41 -28 69t-92 54l-49 20q-82 32 -120.5 76t-38.5 119q0 76 53.5 125t131.5 49q92 0 134 -62l8 54h69v-176z" />
    <glyph glyph-name="sacute" unicode="&#x15b;" horiz-adv-x="412" 
d="M163 499l60 191h116l-98 -191h-78zM291 300q-23 58 -91 58q-27 0 -44.5 -11.5t-17.5 -32.5t18.5 -33t66.5 -24q80 -20 116 -50.5t36 -85.5q0 -57 -39.5 -93.5t-116.5 -36.5q-75 0 -114 46l-7 -37h-62v134h71q7 -33 32.5 -52t63.5 -19q74 0 74 46q0 24 -18.5 34.5
t-75.5 25.5q-67 19 -102.5 47.5t-35.5 87.5q0 57 41 91t102 34t99 -42l9 33h61v-120h-66z" />
    <glyph glyph-name="Scircumflex" unicode="&#x15c;" horiz-adv-x="535" 
d="M120 756l143 204h10l143 -204h-86l-65 84l-66 -84h-79zM460 504h-82q-7 47 -38.5 74t-77.5 27q-45 0 -72 -23.5t-27 -62.5q0 -37 23.5 -60t80.5 -46l49 -20q90 -34 134 -83.5t44 -125.5q0 -93 -60 -142.5t-150 -49.5q-113 0 -162 69l-10 -61h-68v200h82q8 -58 46 -91
t100 -33q53 0 86.5 27t33.5 73q0 41 -28 69t-92 54l-49 20q-82 32 -120.5 76t-38.5 119q0 76 53.5 125t131.5 49q92 0 134 -62l8 54h69v-176z" />
    <glyph glyph-name="scircumflex" unicode="&#x15d;" horiz-adv-x="412" 
d="M61 498l143 204h10l143 -204h-86l-65 84l-66 -84h-79zM291 300q-23 58 -91 58q-27 0 -44.5 -11.5t-17.5 -32.5t18.5 -33t66.5 -24q80 -20 116 -50.5t36 -85.5q0 -57 -39.5 -93.5t-116.5 -36.5q-75 0 -114 46l-7 -37h-62v134h71q7 -33 32.5 -52t63.5 -19q74 0 74 46
q0 24 -18.5 34.5t-75.5 25.5q-67 19 -102.5 47.5t-35.5 87.5q0 57 41 91t102 34t99 -42l9 33h61v-120h-66z" />
    <glyph glyph-name="Scedilla" unicode="&#x15e;" horiz-adv-x="535" 
d="M272 -236q-76 0 -110 60l53 32q17 -33 49 -33q40 0 40 39q0 18 -12.5 29t-34.5 11h-28v95q-72 14 -107 64l-10 -61h-68v200h82q8 -58 46 -91t100 -33q53 0 86.5 27t33.5 73q0 41 -28 69t-92 54l-49 20q-82 32 -120.5 76t-38.5 119q0 76 53.5 125t131.5 49q92 0 134 -62
l8 54h69v-176h-82q-7 47 -38.5 74t-77.5 27q-45 0 -72 -23.5t-27 -62.5q0 -37 23.5 -60t80.5 -46l49 -20q90 -34 134 -83.5t44 -125.5q0 -92 -59 -141t-147 -51v-38q37 -6 61.5 -31.5t24.5 -66.5t-30.5 -66.5t-71.5 -25.5z" />
    <glyph glyph-name="scedilla" unicode="&#x15f;" horiz-adv-x="412" 
d="M209 -236q-76 0 -110 60l53 32q16 -33 49 -33q40 0 40 39q0 18 -12.5 29t-34.5 11h-28v96q-36 9 -61 39l-7 -37h-62v134h71q7 -33 32.5 -52t63.5 -19q74 0 74 46q0 24 -18.5 34.5t-75.5 25.5q-67 19 -102.5 47.5t-35.5 87.5q0 57 41 91t102 34t99 -42l9 33h61v-120h-66
q-23 58 -91 58q-27 0 -44.5 -11.5t-17.5 -32.5t18.5 -33t66.5 -24q80 -20 116 -50.5t36 -85.5q0 -56 -38 -92.5t-112 -37.5v-37q37 -6 61.5 -31.5t24.5 -66.5t-30.5 -66.5t-71.5 -25.5z" />
    <glyph glyph-name="Scaron" unicode="&#x160;" horiz-adv-x="535" 
d="M263 743l-143 204h88l64 -84l67 84h77l-143 -204h-10zM460 504h-82q-7 47 -38.5 74t-77.5 27q-45 0 -72 -23.5t-27 -62.5q0 -37 23.5 -60t80.5 -46l49 -20q90 -34 134 -83.5t44 -125.5q0 -93 -60 -142.5t-150 -49.5q-113 0 -162 69l-10 -61h-68v200h82q8 -58 46 -91
t100 -33q53 0 86.5 27t33.5 73q0 41 -28 69t-92 54l-49 20q-82 32 -120.5 76t-38.5 119q0 76 53.5 125t131.5 49q92 0 134 -62l8 54h69v-176z" />
    <glyph glyph-name="scaron" unicode="&#x161;" horiz-adv-x="412" 
d="M201 485l-143 204h88l64 -84l67 84h77l-143 -204h-10zM291 300q-23 58 -91 58q-27 0 -44.5 -11.5t-17.5 -32.5t18.5 -33t66.5 -24q80 -20 116 -50.5t36 -85.5q0 -57 -39.5 -93.5t-116.5 -36.5q-75 0 -114 46l-7 -37h-62v134h71q7 -33 32.5 -52t63.5 -19q74 0 74 46
q0 24 -18.5 34.5t-75.5 25.5q-67 19 -102.5 47.5t-35.5 87.5q0 57 41 91t102 34t99 -42l9 33h61v-120h-66z" />
    <glyph glyph-name="Tcommaaccent" unicode="&#x162;" horiz-adv-x="601" 
d="M240 -269l31 98q-15 6 -25.5 22t-10.5 36q0 27 19 45t45 18q25 0 44.5 -18.5t19.5 -44.5q0 -28 -19 -60l-52 -96h-52zM110 502h-70v178h521v-178h-70l-14 95h-124v-521h66v-76h-238v76h67v521h-124z" />
    <glyph glyph-name="tcommaaccent" unicode="&#x163;" horiz-adv-x="341" 
d="M120 -269l31 98q-15 6 -25.5 22t-10.5 36q0 27 19 45t45 18q25 0 44.5 -18.5t19.5 -44.5q0 -28 -19 -60l-52 -96h-52zM210 -10q-130 0 -130 149v203h-63v78h63v149h101v-149h112v-78h-112v-209q0 -63 44 -63q28 0 53 25l40 -65q-40 -40 -108 -40z" />
    <glyph glyph-name="Tcaron" unicode="&#x164;" horiz-adv-x="601" 
d="M295 743l-143 204h88l64 -84l67 84h77l-143 -204h-10zM110 502h-70v178h521v-178h-70l-14 95h-124v-521h66v-76h-238v76h67v521h-124z" />
    <glyph glyph-name="tcaron" unicode="&#x165;" horiz-adv-x="341" 
d="M257 505l34 100q-16 6 -26.5 21.5t-10.5 35.5q0 27 19 45.5t44 18.5q26 0 45 -17.5t19 -43.5q0 -25 -21 -62l-53 -98h-50zM210 -10q-130 0 -130 149v203h-63v78h63v149h101v-149h112v-78h-112v-209q0 -63 44 -63q28 0 53 25l40 -65q-40 -40 -108 -40z" />
    <glyph glyph-name="Umacron" unicode="&#x16a;" horiz-adv-x="716" 
d="M615 604v-365q0 -121 -70.5 -184t-188.5 -63q-116 0 -185.5 61t-69.5 181v370h-59v76h227v-76h-63v-369q0 -159 154 -159q75 0 116 39.5t41 119.5v369h-63v76h220v-76h-59zM244 778v77h227v-77h-227z" />
    <glyph glyph-name="umacron" unicode="&#x16b;" horiz-adv-x="550" 
d="M465 75h55v-75h-154v80q-17 -40 -54 -64.5t-88 -24.5q-70 0 -113 47.5t-43 131.5v172h-54v78h155v-253q0 -95 87 -95q50 0 78.5 29t28.5 80v161h-53v78h155v-345zM144 520v77h227v-77h-227z" />
    <glyph glyph-name="Ubreve" unicode="&#x16c;" horiz-adv-x="716" 
d="M615 604v-365q0 -121 -70.5 -184t-188.5 -63q-116 0 -185.5 61t-69.5 181v370h-59v76h227v-76h-63v-369q0 -159 154 -159q75 0 116 39.5t41 119.5v369h-63v76h220v-76h-59zM358 752q-63 0 -101.5 35.5t-45.5 92.5l79 12q12 -64 68 -64q54 0 66 64l80 -12
q-7 -57 -45.5 -92.5t-100.5 -35.5z" />
    <glyph glyph-name="ubreve" unicode="&#x16d;" horiz-adv-x="550" 
d="M465 75h55v-75h-154v80q-17 -40 -54 -64.5t-88 -24.5q-70 0 -113 47.5t-43 131.5v172h-54v78h155v-253q0 -95 87 -95q50 0 78.5 29t28.5 80v161h-53v78h155v-345zM258 494q-63 0 -101.5 35.5t-45.5 92.5l79 12q12 -64 68 -64q54 0 66 64l80 -12q-7 -57 -45.5 -92.5
t-100.5 -35.5z" />
    <glyph glyph-name="Uring" unicode="&#x16e;" horiz-adv-x="716" 
d="M358 737q-49 0 -83 32t-34 77q0 46 34 78t83 32t82.5 -32t33.5 -78q0 -45 -34 -77t-82 -32zM358 791q23 0 37.5 15t14.5 40q0 26 -14.5 40.5t-37.5 14.5q-24 0 -38.5 -14.5t-14.5 -40.5q0 -25 14.5 -40t38.5 -15zM615 604v-365q0 -121 -70.5 -184t-188.5 -63
q-116 0 -185.5 61t-69.5 181v370h-59v76h227v-76h-63v-369q0 -159 154 -159q75 0 116 39.5t41 119.5v369h-63v76h220v-76h-59z" />
    <glyph glyph-name="uring" unicode="&#x16f;" horiz-adv-x="550" 
d="M258 479q-49 0 -83 32t-34 77q0 46 34 78t83 32t82.5 -32t33.5 -78q0 -45 -34 -77t-82 -32zM258 533q23 0 37.5 15t14.5 40q0 26 -14.5 40.5t-37.5 14.5q-24 0 -38.5 -14.5t-14.5 -40.5q0 -25 14.5 -40t38.5 -15zM465 75h55v-75h-154v80q-17 -40 -54 -64.5t-88 -24.5
q-70 0 -113 47.5t-43 131.5v172h-54v78h155v-253q0 -95 87 -95q50 0 78.5 29t28.5 80v161h-53v78h155v-345z" />
    <glyph glyph-name="Uhungarumlaut" unicode="&#x170;" horiz-adv-x="716" 
d="M615 604v-365q0 -121 -70.5 -184t-188.5 -63q-116 0 -185.5 61t-69.5 181v370h-59v76h227v-76h-63v-369q0 -159 154 -159q75 0 116 39.5t41 119.5v369h-63v76h220v-76h-59zM394 757l59 191h107l-88 -191h-78zM233 757l59 191h107l-89 -191h-77z" />
    <glyph glyph-name="uhungarumlaut" unicode="&#x171;" horiz-adv-x="550" 
d="M465 75h55v-75h-154v80q-17 -40 -54 -64.5t-88 -24.5q-70 0 -113 47.5t-43 131.5v172h-54v78h155v-253q0 -95 87 -95q50 0 78.5 29t28.5 80v161h-53v78h155v-345zM294 499l59 191h107l-88 -191h-78zM133 499l59 191h107l-89 -191h-77z" />
    <glyph glyph-name="Uogonek" unicode="&#x172;" horiz-adv-x="716" 
d="M615 604v-365q0 -101 -50 -162t-138 -78q-62 -85 -62 -116q0 -33 32 -33q22 0 37 25l55 -35q-33 -59 -104 -59q-44 0 -73 24t-29 70q0 48 60 117q-111 4 -176.5 64.5t-65.5 177.5v370h-59v76h227v-76h-63v-369q0 -159 154 -159q75 0 116 39.5t41 119.5v369h-63v76h220
v-76h-59z" />
    <glyph glyph-name="uogonek" unicode="&#x173;" horiz-adv-x="550" 
d="M465 75h55v-75h-77q-63 -86 -63 -117q0 -33 32 -33q22 0 37 25l55 -35q-33 -59 -104 -59q-44 0 -73 24t-29 70q0 49 68 125v80q-17 -40 -54 -64.5t-88 -24.5q-70 0 -113 47.5t-43 131.5v172h-54v78h155v-253q0 -95 87 -95q50 0 78.5 29t28.5 80v161h-53v78h155v-345z" />
    <glyph glyph-name="Ydieresis" unicode="&#x178;" horiz-adv-x="652" 
d="M628 680v-76h-55l-187 -352v-176h67v-76h-239v76h66v170l-196 358h-60v76h229v-76h-56l108 -200q28 -53 35 -74q6 24 34 76l103 198h-66v76h217zM431 769q-24 0 -42.5 18t-18.5 43q0 24 18.5 42t42.5 18t42 -17.5t18 -42.5t-18 -43t-42 -18zM236 769q-24 0 -42.5 18
t-18.5 43q0 24 18.5 42t42.5 18t42 -17.5t18 -42.5t-18 -43t-42 -18z" />
    <glyph glyph-name="Zacute" unicode="&#x179;" horiz-adv-x="582" 
d="M258 757l60 191h116l-98 -191h-78zM145 508h-78v172h473v-53l-376 -548h286l11 102h78v-181h-508v56l377 545h-251z" />
    <glyph glyph-name="zacute" unicode="&#x17a;" horiz-adv-x="439" 
d="M183 499l60 191h116l-98 -191h-78zM42 275v145h363v-55l-250 -293h176l11 74h67v-146h-382v54l245 291h-156l-11 -70h-63z" />
    <glyph glyph-name="Zdotaccent" unicode="&#x17b;" horiz-adv-x="582" 
d="M145 508h-78v172h473v-53l-376 -548h286l11 102h78v-181h-508v56l377 545h-251zM302 769q-25 0 -43.5 17.5t-18.5 43.5q0 25 19 43t43 18t42 -18t18 -43q0 -26 -18 -43.5t-42 -17.5z" />
    <glyph glyph-name="zdotaccent" unicode="&#x17c;" horiz-adv-x="439" 
d="M42 275v145h363v-55l-250 -293h176l11 74h67v-146h-382v54l245 291h-156l-11 -70h-63zM227 511q-25 0 -43.5 17.5t-18.5 43.5q0 25 19 43t43 18t42 -18t18 -43q0 -26 -18 -43.5t-42 -17.5z" />
    <glyph glyph-name="Zcaron" unicode="&#x17d;" horiz-adv-x="582" 
d="M297 743l-143 204h88l64 -84l67 84h77l-143 -204h-10zM145 508h-78v172h473v-53l-376 -548h286l11 102h78v-181h-508v56l377 545h-251z" />
    <glyph glyph-name="zcaron" unicode="&#x17e;" horiz-adv-x="439" 
d="M222 485l-143 204h88l64 -84l67 84h77l-143 -204h-10zM42 275v145h363v-55l-250 -293h176l11 74h67v-146h-382v54l245 291h-156l-11 -70h-63z" />
    <glyph glyph-name="florin" unicode="&#x192;" horiz-adv-x="390" 
d="M55 -212l46 404h-64v82h73l22 194q17 150 145 150q75 0 114 -57l-56 -53q-21 32 -52 32q-43 0 -50 -58l-24 -208h100v-82h-109l-46 -404h-99z" />
    <glyph glyph-name="Scommaaccent" unicode="&#x218;" horiz-adv-x="535" 
d="M208 -269l31 98q-15 6 -25.5 22t-10.5 36q0 27 19 45t45 18q25 0 44.5 -18.5t19.5 -44.5q0 -28 -19 -60l-52 -96h-52zM460 504h-82q-7 47 -38.5 74t-77.5 27q-45 0 -72 -23.5t-27 -62.5q0 -37 23.5 -60t80.5 -46l49 -20q90 -34 134 -83.5t44 -125.5q0 -93 -60 -142.5
t-150 -49.5q-113 0 -162 69l-10 -61h-68v200h82q8 -58 46 -91t100 -33q53 0 86.5 27t33.5 73q0 41 -28 69t-92 54l-49 20q-82 32 -120.5 76t-38.5 119q0 76 53.5 125t131.5 49q92 0 134 -62l8 54h69v-176z" />
    <glyph glyph-name="scommaaccent" unicode="&#x219;" horiz-adv-x="412" 
d="M146 -269l31 98q-15 6 -25.5 22t-10.5 36q0 27 19 45t45 18q25 0 44.5 -18.5t19.5 -44.5q0 -28 -19 -60l-52 -96h-52zM291 300q-23 58 -91 58q-27 0 -44.5 -11.5t-17.5 -32.5t18.5 -33t66.5 -24q80 -20 116 -50.5t36 -85.5q0 -57 -39.5 -93.5t-116.5 -36.5q-75 0 -114 46
l-7 -37h-62v134h71q7 -33 32.5 -52t63.5 -19q74 0 74 46q0 24 -18.5 34.5t-75.5 25.5q-67 19 -102.5 47.5t-35.5 87.5q0 57 41 91t102 34t99 -42l9 33h61v-120h-66z" />
    <glyph glyph-name="uni021A" unicode="&#x21a;" horiz-adv-x="601" 
d="M315 -236q-76 0 -110 60l53 32q16 -33 49 -33q40 0 40 39q0 18 -12.5 29t-34.5 11h-28v98h-91v76h67v521h-124l-14 -95h-70v178h521v-178h-70l-14 95h-124v-521h66v-76h-88v-46q37 -6 61.5 -31.5t24.5 -66.5t-30.5 -66.5t-71.5 -25.5z" />
    <glyph glyph-name="uni021B" unicode="&#x21b;" horiz-adv-x="341" 
d="M206 -236q-76 0 -110 60l53 32q17 -33 49 -33q40 0 40 39q0 18 -12.5 29t-34.5 11h-28v94q-83 23 -83 143v203h-63v78h63v149h101v-149h112v-78h-112v-209q0 -63 44 -63q28 0 53 25l40 -65q-36 -36 -96 -40v-36q37 -6 61.5 -31.5t24.5 -66.5t-30.5 -66.5t-71.5 -25.5z
" />
    <glyph glyph-name="uni0237" unicode="&#x237;" horiz-adv-x="261" 
d="M191 420v-503q0 -67 -34.5 -103t-97.5 -36q-64 0 -102 46l52 60q21 -19 42 -19q38 0 38 49v428h-56v78h158z" />
    <glyph glyph-name="circumflex" unicode="&#x2c6;" horiz-adv-x="503" 
d="M103 498l143 204h10l143 -204h-86l-65 84l-66 -84h-79z" />
    <glyph glyph-name="caron" unicode="&#x2c7;" horiz-adv-x="503" 
d="M247 485l-143 204h88l64 -84l67 84h77l-143 -204h-10z" />
    <glyph glyph-name="breve" unicode="&#x2d8;" horiz-adv-x="503" 
d="M252 494q-63 0 -101.5 35.5t-45.5 92.5l79 12q12 -64 68 -64q54 0 66 64l80 -12q-7 -57 -45.5 -92.5t-100.5 -35.5z" />
    <glyph glyph-name="dotaccent" unicode="&#x2d9;" horiz-adv-x="503" 
d="M252 511q-25 0 -43.5 17.5t-18.5 43.5q0 25 19 43t43 18t42 -18t18 -43q0 -26 -18 -43.5t-42 -17.5z" />
    <glyph glyph-name="ring" unicode="&#x2da;" horiz-adv-x="503" 
d="M252 479q-49 0 -83 32t-34 77q0 46 34 78t83 32t82.5 -32t33.5 -78q0 -45 -34 -77t-82 -32zM252 533q23 0 37.5 15t14.5 40q0 26 -14.5 40.5t-37.5 14.5q-24 0 -38.5 -14.5t-14.5 -40.5q0 -25 14.5 -40t38.5 -15z" />
    <glyph glyph-name="ogonek" unicode="&#x2db;" horiz-adv-x="503" 
d="M256 -219q-44 0 -73 24t-29 70q0 49 68 125h77q-63 -86 -63 -117q0 -33 32 -33q22 0 37 25l55 -35q-33 -59 -104 -59z" />
    <glyph glyph-name="tilde" unicode="&#x2dc;" horiz-adv-x="503" 
d="M164 496l-71 7q4 60 31 92.5t68 32.5q34 0 67 -26q36 -27 48 -27q27 0 31 52l72 -7q-4 -60 -30.5 -92.5t-68.5 -32.5q-33 0 -67 27q-4 3 -11 8t-9 7t-7 5t-7.5 4t-6 2t-7.5 1q-26 0 -32 -53z" />
    <glyph glyph-name="hungarumlaut" unicode="&#x2dd;" horiz-adv-x="503" 
d="M292 499l59 191h107l-88 -191h-78zM131 499l59 191h107l-89 -191h-77z" />
    <glyph glyph-name="uni2009" unicode="&#x2009;" horiz-adv-x="105" 
 />
    <glyph glyph-name="endash" unicode="&#x2013;" horiz-adv-x="406" 
d="M36 171v77h334v-77h-334z" />
    <glyph glyph-name="emdash" unicode="&#x2014;" horiz-adv-x="646" 
d="M36 171v77h574v-77h-574z" />
    <glyph glyph-name="quoteleft" unicode="&#x2018;" horiz-adv-x="229" 
d="M115 445q-27 0 -47 19t-20 46q0 23 21 63l58 107h51l-36 -109q16 -6 27.5 -22.5t11.5 -37.5q0 -28 -20 -47t-46 -19z" />
    <glyph glyph-name="quoteright" unicode="&#x2019;" horiz-adv-x="229" 
d="M51 452l36 109q-16 6 -27.5 22.5t-11.5 37.5q0 28 20 47t46 19q27 0 47 -19t20 -46q0 -23 -21 -63l-58 -107h-51z" />
    <glyph glyph-name="quotesinglbase" unicode="&#x201a;" horiz-adv-x="229" 
d="M51 -103l36 110q-16 6 -27.5 22.5t-11.5 37.5q0 27 20 46.5t46 19.5q27 0 47 -19.5t20 -46.5q0 -24 -21 -62l-58 -108h-51z" />
    <glyph glyph-name="quotedblleft" unicode="&#x201c;" horiz-adv-x="416" 
d="M302 445q-27 0 -47 19t-20 46q0 26 21 63l58 107h51l-36 -109q16 -6 27.5 -22.5t11.5 -37.5q0 -28 -20 -47t-46 -19zM115 445q-27 0 -47 19t-20 46q0 23 21 63l58 107h51l-36 -109q16 -6 27.5 -22.5t11.5 -37.5q0 -28 -20 -47t-46 -19z" />
    <glyph glyph-name="quotedblright" unicode="&#x201d;" horiz-adv-x="416" 
d="M238 452l36 109q-16 6 -27.5 22.5t-11.5 37.5q0 28 19.5 47t45.5 19q27 0 47.5 -19t20.5 -46q0 -24 -22 -63l-57 -107h-51zM51 452l36 109q-16 6 -27.5 22.5t-11.5 37.5q0 28 20 47t46 19q27 0 47 -19t20 -46q0 -23 -21 -63l-58 -107h-51z" />
    <glyph glyph-name="quotedblbase" unicode="&#x201e;" horiz-adv-x="416" 
d="M238 -103l36 110q-16 6 -27.5 22.5t-11.5 37.5q0 27 19.5 46.5t45.5 19.5q27 0 47.5 -19.5t20.5 -46.5q0 -25 -22 -62l-57 -108h-51zM51 -103l36 110q-16 6 -27.5 22.5t-11.5 37.5q0 27 20 46.5t46 19.5q27 0 47 -19.5t20 -46.5q0 -24 -21 -62l-58 -108h-51z" />
    <glyph glyph-name="dagger" unicode="&#x2020;" horiz-adv-x="353" 
d="M133 261v240h-94v72h94v107h87v-107h94v-72h-94v-240h-87z" />
    <glyph glyph-name="daggerdbl" unicode="&#x2021;" horiz-adv-x="353" 
d="M133 261v103h-94v72h94v70h-94v71h94v103h87v-103h94v-71h-94v-70h94v-72h-94v-103h-87z" />
    <glyph glyph-name="bullet" unicode="&#x2022;" horiz-adv-x="287" 
d="M143 169q-41 0 -71 29.5t-30 71.5q0 43 30 72t71 29t71 -29t30 -72q0 -42 -30 -71.5t-71 -29.5z" />
    <glyph glyph-name="ellipsis" unicode="&#x2026;" horiz-adv-x="685" 
d="M568 -7q-28 0 -48.5 20t-20.5 50q0 29 20.5 49t48.5 20t48.5 -20t20.5 -49q0 -30 -20.5 -50t-48.5 -20zM343 -7q-28 0 -48.5 20t-20.5 50q0 29 20.5 49t48.5 20t48 -20t20 -49t-20.5 -49.5t-47.5 -20.5zM117 -7q-28 0 -48.5 20.5t-20.5 49.5t20.5 49t48.5 20t48.5 -20
t20.5 -49q0 -30 -20.5 -50t-48.5 -20z" />
    <glyph glyph-name="perthousand" unicode="&#x2030;" horiz-adv-x="1144" 
d="M189 223q-63 0 -108.5 42.5t-45.5 106.5t45.5 106.5t108.5 42.5t108 -42.5t45 -106.5t-45 -106.5t-108 -42.5zM196 0l322 513h81l-322 -513h-81zM189 291q30 0 49.5 22.5t19.5 58.5q0 37 -19.5 59t-49.5 22t-50 -22t-20 -59q0 -36 20 -58.5t50 -22.5zM607 -3
q-64 0 -109 42.5t-45 106.5t45 106.5t109 42.5q63 0 108 -43t45 -106q0 -64 -45 -106.5t-108 -42.5zM607 65q30 0 49.5 22t19.5 59t-19.5 59t-49.5 22q-31 0 -50.5 -22t-19.5 -59t19.5 -59t50.5 -22zM956 -3q-63 0 -108 42.5t-45 106.5t45 106.5t108 42.5t108 -42.5
t45 -106.5t-45 -106.5t-108 -42.5zM956 65q31 0 50.5 22t19.5 59t-19.5 59t-50.5 22q-30 0 -49.5 -22t-19.5 -59t19.5 -59t49.5 -22z" />
    <glyph glyph-name="guilsinglleft" unicode="&#x2039;" horiz-adv-x="267" 
d="M131 35l-94 163v8l94 161h97l-97 -165l97 -167h-97z" />
    <glyph glyph-name="guilsinglright" unicode="&#x203a;" horiz-adv-x="267" 
d="M38 35l97 165l-97 167h97l95 -163v-8l-95 -161h-97z" />
    <glyph glyph-name="fraction" unicode="&#x2044;" horiz-adv-x="457" 
d="M-14 0l411 680h102l-411 -680h-102z" />
    <glyph glyph-name="Euro" unicode="&#x20ac;" horiz-adv-x="626" 
d="M499 144l72 -51q-70 -101 -216 -101q-89 0 -155 49t-91 130h-77v57h66q-3 29 0 60h-66v58h79q26 78 92 126.5t149 48.5q93 0 131 -57l9 49h66v-163h-75q-21 93 -126 93q-52 0 -89.5 -26.5t-54.5 -70.5h176v-58h-192q-2 -29 0 -60h192v-57h-177q17 -46 55 -73t91 -27
q95 0 141 73z" />
    <glyph glyph-name="trademark" unicode="&#x2122;" horiz-adv-x="745" 
d="M578 381v45h32v96l4 66l-89 -135h-16l-89 135q3 -32 3 -67v-95h32v-45h-119v45h36v206h-35v48h87l97 -148l101 148h84v-48h-33v-206h34v-45h-129zM257 580l-5 49h-52v-203h41v-45h-149v45h43v203h-53l-5 -49h-42v100h264v-100h-42z" />
    <glyph glyph-name="summation" unicode="&#x2211;" horiz-adv-x="615" 
d="M542 513h-80l-12 84h-187l-72 3q34 -31 57 -56l161 -182v-32l-174 -195l-60 -58q66 6 99 6h190l12 90h80v-173h-510v62l252 283l-254 276v59h498v-167z" />
    <glyph glyph-name="minus" unicode="&#x2212;" horiz-adv-x="404" 
d="M359 217h-314v84h314v-84z" />
    <glyph glyph-name="space_uni0326" horiz-adv-x="503" 
d="M193 -269l31 98q-15 6 -25.5 22t-10.5 36q0 27 19 45t45 18q25 0 44.5 -18.5t19.5 -44.5q0 -28 -19 -60l-52 -96h-52z" />
    <glyph glyph-name="idotaccent" horiz-adv-x="279" 
d="M141 518q-27 0 -46.5 18.5t-19.5 46.5t19.5 46t46.5 18t45.5 -18t18.5 -46q0 -29 -18.5 -47t-45.5 -18zM196 420v-345h55v-75h-212v75h56v267h-57v78h158z" />
    <glyph glyph-name="space.lining" horiz-adv-x="235" 
 />
    <glyph glyph-name="dollar.lining" horiz-adv-x="544" 
d="M244 -116v110q-86 12 -125 70l-10 -64h-67v200h76q24 -108 126 -125v235l-15 7q-83 32 -124 77.5t-41 119.5q0 72 52 120.5t128 52.5v86h59v-92q53 -12 85 -55l8 54h69v-176h-77q-8 81 -85 97v-203l18 -6q87 -34 133 -83.5t46 -124.5q0 -85 -55.5 -136t-141.5 -56v-108
h-59zM403 173q0 37 -23.5 63t-76.5 51v-212q44 5 72 31t28 67zM159 521q0 -35 19.5 -57t65.5 -41v180q-42 -5 -63.5 -27t-21.5 -55z" />
    <glyph glyph-name="cent.lining" horiz-adv-x="483" 
d="M434 277h-65q-21 57 -77 71v-276q56 8 87 52l64 -56q-56 -66 -151 -75v-109h-58v110q-88 9 -142 68t-54 148q0 93 58 152.5t138 65.5v107h58v-113q47 -10 71 -43l9 41h62v-143zM140 211q0 -53 26 -90.5t68 -48.5v277q-43 -11 -68.5 -47.5t-25.5 -90.5z" />
    <glyph glyph-name="Euro.lining" horiz-adv-x="659" 
d="M30 376v70h76q25 109 96 175.5t173 66.5q56 0 95 -21.5t57 -52.5l7 66h72v-194h-77q-13 54 -51.5 85.5t-95.5 31.5q-68 0 -110.5 -42.5t-59.5 -114.5h230v-70h-240q-3 -35 1 -73h239v-70h-228q18 -74 61 -114.5t109 -40.5q104 0 158 112l85 -43q-70 -155 -244 -155
q-108 0 -180 65t-97 176h-76v70h66q-3 34 0 73h-66z" />
    <glyph glyph-name="sterling.lining" horiz-adv-x="619" 
d="M544 493h-76q-8 57 -42 85t-80 28q-52 0 -84.5 -32t-32.5 -88q0 -53 35 -135h199v-72h-170q22 -64 22 -115q0 -23 -8 -44q68 -45 123 -45q57 0 101 54l64 -57q-36 -44 -72 -62t-93 -18q-78 0 -154 62q-49 -62 -133 -62q-50 0 -83.5 28.5t-33.5 74.5t34 75t87 29
q38 0 75 -21q-5 45 -29 101h-104v72h68q-34 72 -34 135q0 88 60 145t154 57q88 0 131 -61l6 53h70v-187zM217 106q-37 28 -66 28q-22 0 -34.5 -10.5t-12.5 -27.5q0 -18 12.5 -28t33.5 -10q44 0 67 48z" />
    <glyph glyph-name="yen.lining" horiz-adv-x="645" 
d="M74 232h200v29l-22 40h-178v70h138l-130 233h-61v76h230v-76h-56l96 -182q11 -20 21.5 -44.5t15.5 -39.5l5 -14q18 52 40 98l92 182h-57v76h215v-76h-63l-122 -233h141v-70h-179l-20 -40v-29h199v-70h-199v-89h66v-73h-238v73h66v89h-200v70z" />
    <glyph glyph-name="florin.lining" horiz-adv-x="402" 
d="M58 -212l51 449h-68v81h77l25 220q17 150 145 150q74 0 113 -57l-56 -53q-20 32 -51 32q-43 0 -51 -58l-26 -234h103v-81h-112l-51 -449h-99z" />
    <glyph glyph-name="zero.lining" horiz-adv-x="668" 
d="M334 -8q-57 0 -107 21t-90.5 62.5t-64.5 109.5t-24 155t24 155t64.5 109.5t90.5 62.5t107 21q56 0 106.5 -21t90.5 -62.5t64 -109.5t24 -155t-24 -155t-64 -109.5t-90.5 -62.5t-106.5 -21zM334 79q79 0 128 65.5t49 195.5t-49 195.5t-128 65.5q-80 0 -129 -65.5
t-49 -195.5t49 -195.5t129 -65.5z" />
    <glyph glyph-name="one.lining" horiz-adv-x="385" 
d="M53 77h96v520h-109v83h215v-603h93v-77h-295v77z" />
    <glyph glyph-name="two.lining" horiz-adv-x="581" 
d="M30 0v61l275 248q56 51 80 91.5t24 86.5q0 50 -30.5 80.5t-84.5 30.5q-112 0 -142 -132l-96 22q19 91 80.5 145.5t161.5 54.5t160 -55.5t60 -143.5q0 -63 -32.5 -118.5t-102.5 -116.5l-148 -133l-54 -40q41 7 69 7h195l10 83h70v-171h-495z" />
    <glyph glyph-name="three.lining" horiz-adv-x="583" 
d="M68 523v157h449v-27l-144 -178l-43 -47q89 -1 149 -58.5t60 -149.5q0 -102 -72.5 -165t-182.5 -63q-89 0 -155.5 40.5t-97.5 107.5l92 42q55 -105 160 -105q66 0 107 38.5t41 100.5q0 63 -40 100.5t-106 37.5q-47 0 -82 -20l-26 29l161 198l35 39q-31 -4 -55 -4h-169
l-11 -73h-70z" />
    <glyph glyph-name="four.lining" horiz-adv-x="605" 
d="M300 74h77v79h-356v73l395 455h67v-446h89v-82h-88v-79h72v-74h-256v74zM379 232v224q0 21 6 75q-17 -30 -43 -59l-175 -206q-18 -22 -42 -41q25 7 68 7h186z" />
    <glyph glyph-name="five.lining" horiz-adv-x="574" 
d="M421 528l-10 63h-236v-181q52 30 121 30q103 0 168 -58.5t65 -158.5q0 -104 -73 -167.5t-186 -63.5q-89 0 -152 38t-97 102l90 47q51 -101 159 -101q67 0 108.5 38t41.5 101t-38.5 100t-107.5 37q-100 0 -167 -63l-21 6v383h404v-152h-69z" />
    <glyph glyph-name="six.lining" horiz-adv-x="584" 
d="M292 -8q-109 0 -179.5 67t-70.5 165q0 83 62 174l194 282h117l-126 -182q-29 -42 -59 -67q41 24 86 24q97 0 161.5 -64.5t64.5 -162.5q0 -100 -70 -168t-180 -68zM291 78q65 0 103.5 42.5t38.5 105.5t-38 106.5t-104 43.5q-64 0 -103 -43.5t-39 -106.5q0 -62 39.5 -105
t102.5 -43z" />
    <glyph glyph-name="seven.lining" horiz-adv-x="538" 
d="M22 522v158h479v-57l-313 -623h-104l300 594h-282l-11 -72h-69z" />
    <glyph glyph-name="eight.lining" horiz-adv-x="578" 
d="M289 -8q-110 0 -177.5 56.5t-67.5 147.5q0 65 35 110.5t99 65.5q-90 39 -90 144q0 72 59 122t144 50t144 -50t59 -122q0 -106 -91 -144q62 -21 96.5 -66.5t34.5 -109.5q0 -91 -67.5 -147.5t-177.5 -56.5zM289 73q63 0 101.5 35.5t38.5 93.5q0 59 -38.5 94.5t-101.5 35.5
t-101.5 -35.5t-38.5 -94.5q0 -58 38.5 -93.5t101.5 -35.5zM291 408q46 0 74 28.5t28 72.5q0 43 -28 70.5t-74 27.5q-47 0 -75 -27.5t-28 -70.5q0 -44 27.5 -72.5t75.5 -28.5z" />
    <glyph glyph-name="nine.lining" horiz-adv-x="587" 
d="M178 0l123 181q9 15 22 31t21 24l8 9q-35 -23 -85 -23q-96 0 -160.5 65t-64.5 164q0 100 70.5 168.5t180.5 68.5t181 -67.5t71 -165.5q0 -81 -62 -175l-190 -280h-115zM293 303q66 0 106.5 43.5t40.5 106.5q0 61 -40.5 104t-106.5 43q-67 0 -106.5 -42.5t-39.5 -104.5
q0 -63 39 -106.5t107 -43.5z" />
    <glyph glyph-name="percent.lining" horiz-adv-x="835" 
d="M210 344q-71 0 -123 49.5t-52 122.5q0 74 52 123t123 49t123.5 -49.5t52.5 -122.5t-52.5 -122.5t-123.5 -49.5zM162 0l427 680h85l-427 -680h-85zM210 421q37 0 61.5 26.5t24.5 68.5q0 43 -24.5 69.5t-61.5 26.5t-61.5 -26.5t-24.5 -69.5q0 -42 24.5 -68.5t61.5 -26.5z
M624 -8q-71 0 -123 49t-52 122t52 122.5t123 49.5t123.5 -49.5t52.5 -122.5t-52.5 -122t-123.5 -49zM624 67q37 0 62 27t25 69q0 43 -25 69.5t-62 26.5t-61.5 -26.5t-24.5 -69.5q0 -42 25 -69t61 -27z" />
    <glyph glyph-name="perthousand.lining" horiz-adv-x="1231" 
d="M210 344q-71 0 -123 49.5t-52 122.5q0 74 52 123t123 49t123.5 -49.5t52.5 -122.5t-52.5 -122.5t-123.5 -49.5zM162 0l427 680h85l-427 -680h-85zM210 421q37 0 61.5 26.5t24.5 68.5q0 43 -24.5 69.5t-61.5 26.5t-61.5 -26.5t-24.5 -69.5q0 -42 24.5 -68.5t61.5 -26.5z
M624 -8q-71 0 -123 49t-52 122t52 122.5t123 49.5t123.5 -49.5t52.5 -122.5t-52.5 -122t-123.5 -49zM624 67q37 0 62 27t25 69q0 43 -25 69.5t-62 26.5t-61.5 -26.5t-24.5 -69.5q0 -42 25 -69t61 -27zM1021 -8q-71 0 -123.5 49t-52.5 122t52.5 122.5t123.5 49.5t123 -49.5
t52 -122.5t-52 -122t-123 -49zM1021 67q36 0 61 27t25 69q0 43 -24.5 69.5t-61.5 26.5t-62 -26.5t-25 -69.5q0 -42 25 -69t62 -27z" />
    <glyph glyph-name="plus.lining" horiz-adv-x="441" 
d="M176 137v140h-132v84h132v140h88v-140h133v-84h-133v-140h-88z" />
    <glyph glyph-name="minus.lining" horiz-adv-x="437" 
d="M395 276h-353v86h353v-86z" />
    <glyph glyph-name="multiply.lining" horiz-adv-x="432" 
d="M216 252l-114 -113l-60 60l114 113l-114 114l60 60l114 -114l114 115l60 -60l-115 -115l115 -114l-60 -60z" />
    <glyph glyph-name="divide.lining" horiz-adv-x="437" 
d="M395 275h-353v89h353v-89zM219 423q-28 0 -48.5 20t-20.5 49t20.5 48.5t48.5 19.5t48 -19.5t20 -48.5t-20 -49t-48 -20zM219 78q-28 0 -48.5 20t-20.5 49t20.5 48.5t48.5 19.5t48 -19.5t20 -48.5t-20 -49t-48 -20z" />
    <glyph glyph-name="equal.lining" horiz-adv-x="437" 
d="M44 340v88h349v-88h-349zM44 180v87h349v-87h-349z" />
    <glyph glyph-name="less.lining" horiz-adv-x="400" 
d="M354 136l-322 177v10l322 174v-90l-175 -90l175 -91v-90z" />
    <glyph glyph-name="greater.lining" horiz-adv-x="400" 
d="M46 136v90l175 90l-175 91v90l322 -177v-10z" />
    <glyph glyph-name="degree.lining" horiz-adv-x="376" 
d="M189 408q-61 0 -104.5 41t-43.5 99q0 59 43.5 99.5t104.5 40.5t103.5 -40.5t42.5 -99.5q0 -58 -43 -99t-103 -41zM189 472q31 0 50.5 21.5t19.5 54.5q0 34 -19.5 55t-50.5 21q-32 0 -52 -21t-20 -55q0 -33 20 -54.5t52 -21.5z" />
    <glyph glyph-name="period.lining" horiz-adv-x="237" 
d="M119 -7q-28 0 -49 20.5t-21 49.5t21 49t49 20t48 -20t20 -49t-20.5 -49.5t-47.5 -20.5z" />
    <glyph glyph-name="comma.lining" horiz-adv-x="237" 
d="M54 -113l38 115q-43 17 -43 62q0 28 21 48t49 20q27 0 47.5 -20t20.5 -49q0 -24 -20 -62l-60 -114h-53z" />
    <glyph glyph-name="colon.lining" horiz-adv-x="247" 
d="M124 220q-28 0 -49 20.5t-21 49.5t21 49t49 20t48 -20t20 -49q0 -30 -20 -50t-48 -20zM124 -7q-28 0 -49 20.5t-21 49.5t21 49t49 20t48 -20t20 -49t-20 -49.5t-48 -20.5z" />
    <glyph glyph-name="semicolon.lining" horiz-adv-x="247" 
d="M124 220q-28 0 -49 20.5t-21 49.5t21 49t49 20t48 -20t20 -49q0 -30 -20 -50t-48 -20zM59 -113l38 115q-43 17 -43 62q0 28 21 48t49 20q27 0 47.5 -20t20.5 -49q0 -24 -20 -62l-60 -114h-53z" />
    <glyph glyph-name="parenleft.lining" horiz-adv-x="320" 
d="M233 -136q-176 174 -176 427t176 427l60 -49q-138 -164 -138 -378t138 -378z" />
    <glyph glyph-name="parenright.lining" horiz-adv-x="320" 
d="M88 -136l-60 49q137 165 137 378t-137 378l60 49q176 -176 176 -427t-176 -427z" />
    <glyph glyph-name="bracketleft.lining" horiz-adv-x="320" 
d="M74 -128v850h220v-78h-118v-694h118v-78h-220z" />
    <glyph glyph-name="bracketright.lining" horiz-adv-x="320" 
d="M26 -128v78h117v694h-117v78h219v-850h-219z" />
    <glyph glyph-name="braceleft.lining" horiz-adv-x="395" 
d="M291 -128q-145 0 -145 144v175q0 36 -14.5 52t-43.5 16h-58v77h58q29 0 43.5 16t14.5 52v174q0 144 145 144h70v-75h-62q-27 0 -39 -13.5t-12 -46.5v-183q0 -53 -23 -75.5t-73 -29.5q49 -6 72.5 -30.5t23.5 -77.5v-184q0 -33 12 -46.5t39 -13.5h62v-75h-70z" />
    <glyph glyph-name="braceright.lining" horiz-adv-x="395" 
d="M105 722q144 0 144 -144v-174q0 -36 14.5 -52t43.5 -16h58v-77h-58q-29 0 -43.5 -16t-14.5 -52v-175q0 -144 -144 -144h-71v75h63q27 0 38.5 13.5t11.5 46.5v184q0 54 23.5 77.5t73.5 29.5q-50 7 -73.5 30t-23.5 77v182q0 33 -11.5 46.5t-38.5 13.5h-63v75h71z" />
    <glyph glyph-name="section.lining" horiz-adv-x="569" 
d="M473 507h-72q-7 48 -37 74t-73 26t-69 -22.5t-26 -59.5q0 -35 20 -55.5t70 -44.5l102 -46q76 -34 109.5 -74t33.5 -94q0 -94 -97 -127q40 -48 40 -106q0 -71 -51.5 -114.5t-140.5 -43.5q-105 0 -162 67l-8 -59h-67v193h74q10 -56 48.5 -89t99.5 -33q102 0 102 75
q0 29 -19 48t-62 40l-127 58q-63 30 -93 66.5t-30 91.5q0 95 95 128q-37 43 -37 111q0 71 52.5 121.5t130.5 50.5q79 0 120 -53l8 44h66v-173zM386 126q49 19 49 64q0 31 -19 50t-66 41l-119 54q-37 17 -50 30q-46 -21 -46 -67q0 -30 17 -48t58 -36l118 -55q35 -14 58 -33z
" />
    <glyph glyph-name="numbersign.lining" horiz-adv-x="494" 
d="M68 224l26 108h-63v71h81l25 99h-66v71h83l28 107h78l-27 -107h87l28 107h78l-27 -107h64v-71h-80l-26 -99h66v-71h-84l-26 -108h-79l26 108h-87l-27 -108h-78zM191 403h88l25 99h-88z" />
    <glyph glyph-name="ordfeminine.lining" horiz-adv-x="446" 
d="M272 536v8q-1 40 -18.5 56.5t-53.5 16.5q-52 0 -92 -42l-53 47q54 66 157 66q68 0 110.5 -38t42.5 -116v-144h48v-65h-139v46q-37 -54 -109 -54q-57 0 -93.5 28.5t-36.5 82.5q0 53 40 80.5t103 27.5h94zM272 480h-83q-62 0 -62 -45q0 -46 62 -46q38 0 60.5 16.5
t22.5 45.5v29z" />
    <glyph glyph-name="ordmasculine.lining" horiz-adv-x="457" 
d="M229 316q-81 0 -137 53.5t-56 133.5q0 79 56 132t137 53q80 0 136 -53t56 -132q0 -80 -56 -133.5t-136 -53.5zM229 389q45 0 72 31.5t27 82.5q0 50 -27 81t-72 31t-72 -30.5t-27 -81.5t27 -82.5t72 -31.5z" />
    <glyph glyph-name="space.tab" horiz-adv-x="200" 
 />
    <glyph glyph-name="dollar.tab" 
d="M231 -118v112q-63 10 -95 50l-8 -44h-58v162h63q11 -49 35.5 -70.5t62.5 -26.5v158l-13 3q-72 19 -109 56t-37 98q0 60 44.5 99t118.5 42v103h58v-109q48 -11 71 -42l7 40h60v-152h-59q-10 72 -79 83v-139l15 -4q77 -22 116 -60t39 -99q0 -67 -47 -105.5t-127 -43.5v-111
h-58zM368 133q0 28 -17 44.5t-62 30.5v-143q79 11 79 68zM165 387q0 -25 15.5 -40t54.5 -27v127q-70 -8 -70 -60z" />
    <glyph glyph-name="cent.tab" 
d="M456 277h-65q-21 57 -77 71v-276q56 8 87 52l65 -56q-56 -66 -152 -75v-109h-58v110q-88 9 -142 68t-54 148q0 93 58 152.5t138 65.5v107h58v-113q46 -9 72 -43l8 41h62v-143zM162 211q0 -53 26 -90.5t68 -48.5v277q-43 -11 -68.5 -47.5t-25.5 -90.5z" />
    <glyph glyph-name="Euro.tab" 
d="M428 145l74 -50q-66 -103 -194 -103q-83 0 -141 49t-80 132h-65v54h55q-1 31 0 62h-55v55h66q21 80 78 128.5t133 48.5q81 0 113 -57l9 49h68v-163h-73q-19 93 -111 93q-88 0 -117 -99h153v-55h-164q-3 -30 0 -62h164v-54h-154q14 -46 45 -74t79 -28q79 0 117 74z" />
    <glyph glyph-name="sterling.tab" 
d="M471 610v-177h-69q-9 50 -39.5 77.5t-72.5 27.5q-43 0 -70 -25t-27 -72q0 -35 27 -116h159v-69h-134q26 -72 26 -126v-14q58 -43 100 -43q50 0 83 41l56 -57q-48 -65 -136 -65q-66 0 -137 55q-45 -55 -113 -55q-51 0 -82 27.5t-31 72.5q0 43 29 68.5t74 25.5q33 0 69 -18
q-4 29 -28 88h-96v69h66q-30 77 -30 125q0 71 52.5 119.5t133.5 48.5q77 0 117 -54l8 46h65zM183 94q-35 30 -60 30q-18 0 -28.5 -9.5t-10.5 -26.5q0 -15 10.5 -25t28.5 -10q45 0 60 41z" />
    <glyph glyph-name="yen.tab" 
d="M320 434v79h179v-79h-54l-64 -116h86v-60h-116l-30 -55h150v-60h-165v-68h52v-75h-200v75h51v68h-165v60h151l-29 55h-122v60h92l-63 116h-53v79h196v-79h-43l57 -115q7 -16 14.5 -36.5t11.5 -33.5t5 -14q0 1 4 14t12 33.5t16 36.5l61 115h-34z" />
    <glyph glyph-name="florin.tab" 
d="M170 192h-92v82h101l21 178q9 82 50.5 124t107.5 42q95 0 139 -77l-70 -42q-20 41 -62 41q-56 0 -65 -78l-21 -188h130v-82h-140l-11 -101l-22 -202l-12 -101h-99q3 26 7.5 67.5t14.5 130t17 147.5z" />
    <glyph glyph-name="zero.tab" 
d="M259 -8q-98 0 -161.5 73.5t-63.5 191.5t63.5 191t161.5 73q100 0 163.5 -72.5t63.5 -191.5q0 -118 -63.5 -191.5t-163.5 -73.5zM259 77q57 0 89 47.5t32 132.5t-32 132t-89 47q-56 0 -88 -47t-32 -132q0 -84 32 -132t88 -48z" />
    <glyph glyph-name="one.tab" 
d="M215 76v357h-117v80h219v-437h122v-76h-356v76h132z" />
    <glyph glyph-name="two.tab" 
d="M38 0v61l195 154q59 47 84 78t25 64q0 35 -22.5 56t-60.5 21q-84 0 -108 -92l-93 23q18 74 72.5 115t133.5 41q85 0 133 -43t48 -108q0 -101 -125 -192l-88 -64q-45 -30 -64 -40q1 0 11.5 1t25.5 2.5t27 1.5h146l9 55h68v-134h-417z" />
    <glyph glyph-name="three.tab" 
d="M58 370v143h397v-52l-130 -146q-21 -24 -38 -32q78 -2 132 -47t54 -130q0 -93 -65 -151t-163 -58q-84 0 -139.5 38.5t-81.5 98.5l88 36q35 -89 131 -89q52 0 88 32t36 89q0 55 -34.5 85t-93.5 30q-43 0 -81 -21l-18 23l161 184l33 34q-33 -4 -58 -4h-138l-9 -63h-71z" />
    <glyph glyph-name="four.tab" 
d="M251 -26h72v72h-297v63l322 408h71v-398h69v-73h-69v-72h61v-71h-229v71zM327 119v199q0 6 0.5 15t1.5 17.5t1.5 16t1.5 12.5v5q-18 -31 -36 -54l-143 -179q-21 -27 -34 -36l8 1q8 1 20 2t23 1h157z" />
    <glyph glyph-name="five.tab" 
d="M376 374l-7 57h-196v-163q39 30 103 30q90 0 144 -54.5t54 -140.5q0 -87 -62 -146.5t-166 -59.5q-76 0 -129 34t-77 89l86 37q35 -76 120 -76q52 0 88 32t36 86t-33 86t-87 32q-80 0 -139 -55l-21 9v342h356v-139h-70z" />
    <glyph glyph-name="six.tab" 
d="M262 -8q-90 0 -151.5 54.5t-61.5 143.5q0 80 70 181l164 239h114l-137 -198q-12 -17 -55 -55q40 27 79 27q81 0 135.5 -53.5t54.5 -138.5q0 -89 -60.5 -144.5t-151.5 -55.5zM261 74q51 0 82 33.5t31 84.5q0 52 -30.5 85.5t-81.5 33.5t-82 -35t-31 -84q0 -51 30.5 -84.5
t81.5 -33.5z" />
    <glyph glyph-name="seven.tab" 
d="M48 362v151h412v-53l-258 -554h-104l249 524h-219l-9 -68h-71z" />
    <glyph glyph-name="eight.tab" 
d="M260 -8q-93 0 -155 52.5t-62 134.5q0 56 31.5 97t87.5 60q-40 17 -62 50.5t-22 77.5q0 65 50 109.5t133 44.5t132.5 -44.5t49.5 -109.5q0 -93 -84 -129q56 -18 87.5 -59t31.5 -97q0 -83 -61.5 -135t-156.5 -52zM260 71q52 0 84 30.5t32 81.5q0 53 -32 84.5t-84 31.5
t-83.5 -31.5t-31.5 -84.5q0 -52 31.5 -82t83.5 -30zM260 369q36 0 59 23.5t23 62.5t-23 62.5t-59 23.5q-37 0 -60 -23.5t-23 -62.5t23 -62.5t60 -23.5z" />
    <glyph glyph-name="nine.tab" 
d="M125 -94l136 196q18 24 47 48q-34 -21 -72 -21q-81 0 -135.5 53.5t-54.5 138.5q0 88 61 144t152 56q89 0 150.5 -55t61.5 -143q0 -82 -70 -182l-164 -235h-112zM258 203q52 0 82.5 34t30.5 84q0 51 -30.5 84.5t-81.5 33.5t-82 -33.5t-31 -84.5q0 -52 30 -85t82 -33z" />
    <glyph glyph-name="percent.tab" horiz-adv-x="750" 
d="M176 227q-61 0 -103 41.5t-42 105.5q0 63 42 105t103 42q60 0 102 -42t42 -105q0 -64 -42 -105.5t-102 -41.5zM168 0l329 513h84l-329 -513h-84zM176 293q28 0 46 22.5t18 58.5q0 37 -18 59t-46 22q-29 0 -47 -22t-18 -59q0 -36 18 -58.5t47 -22.5zM575 -8q-61 0 -103 41
t-42 105t42 106t103 42t102.5 -42t41.5 -106t-41.5 -105t-102.5 -41zM575 58q29 0 46.5 22t17.5 58q0 37 -17.5 59t-46.5 22t-46.5 -22t-17.5 -59q0 -36 17.5 -58t46.5 -22z" />
    <glyph glyph-name="perthousand.tab" horiz-adv-x="1100" 
d="M184 227q-61 0 -103 41.5t-42 105.5q0 63 42 105t103 42q60 0 102 -42t42 -105q0 -64 -42 -105.5t-102 -41.5zM178 0l329 513h84l-329 -513h-84zM184 293q28 0 46 22.5t18 58.5q0 37 -18 59t-46 22q-29 0 -47 -22t-18 -59q0 -36 18 -58.5t47 -22.5zM587 -8q-61 0 -103 41
t-42 105t42 106t103 42t102.5 -42t41.5 -106t-41.5 -105t-102.5 -41zM587 58q29 0 46.5 22t17.5 58q0 37 -17.5 59t-46.5 22t-46.5 -22t-17.5 -59q0 -36 17.5 -58t46.5 -22zM917 -8q-61 0 -103 41t-42 105t42 106t103 42t102.5 -42t41.5 -106t-41.5 -105t-102.5 -41zM917 58
q29 0 46.5 22t17.5 58q0 37 -17.5 59t-46.5 22t-46.5 -22t-17.5 -59q0 -36 17.5 -58t46.5 -22z" />
    <glyph glyph-name="plus.tab" 
d="M216 73v144h-136v83h136v145h88v-145h136v-83h-136v-144h-88z" />
    <glyph glyph-name="minus.tab" 
d="M440 217h-360v83h360v-83z" />
    <glyph glyph-name="multiply.tab" 
d="M261 196l-104 -103l-62 62l103 103l-103 103l62 63l104 -103l102 103l63 -63l-103 -103l103 -103l-63 -62z" />
    <glyph glyph-name="divide.tab" 
d="M79 217v84h361v-84h-361zM260 351q-27 0 -46.5 19t-19.5 47t19.5 46.5t46.5 18.5t46 -18t19 -47q0 -28 -19 -47t-46 -19zM260 35q-27 0 -46.5 19t-19.5 47t19.5 46.5t46.5 18.5t46 -18.5t19 -46.5t-19 -47t-46 -19z" />
    <glyph glyph-name="equal.tab" 
d="M63 283v81h365v-81h-365zM63 138v80h365v-80h-365z" />
    <glyph glyph-name="less.tab" 
d="M411 61l-334 176v14l334 174v-90l-186 -92l186 -93v-89z" />
    <glyph glyph-name="greater.tab" 
d="M109 61v90l186 92l-186 93v89l334 -176v-14z" />
    <glyph glyph-name="degree.tab" horiz-adv-x="350" 
d="M175 277q-53 0 -90.5 36t-37.5 86q0 52 37.5 87t90.5 35t90.5 -35t37.5 -87q0 -50 -37.5 -86t-90.5 -36zM175 335q26 0 41.5 18t15.5 46q0 29 -15.5 46.5t-41.5 17.5t-42 -17.5t-16 -46.5q0 -28 16 -46t42 -18z" />
    <glyph glyph-name="period.tab" horiz-adv-x="200" 
d="M100 -7q-27 0 -47 19.5t-20 47.5q0 29 19.5 47.5t47.5 18.5q27 0 46.5 -18.5t19.5 -47.5q0 -28 -19.5 -47.5t-46.5 -19.5z" />
    <glyph glyph-name="comma.tab" horiz-adv-x="200" 
d="M36 -113l39 115q-42 17 -42 60q0 27 20 45.5t47 18.5t46.5 -19t19.5 -47q0 -23 -20 -59l-59 -114h-51z" />
    <glyph glyph-name="colon.tab" horiz-adv-x="200" 
d="M100 223q-28 0 -47.5 19t-19.5 48q0 28 20 47t47 19t46.5 -19t19.5 -47q0 -29 -19.5 -48t-46.5 -19zM100 -7q-27 0 -47 19.5t-20 47.5q0 29 19.5 48t47.5 19q27 0 46.5 -19t19.5 -48q0 -28 -19.5 -47.5t-46.5 -19.5z" />
    <glyph glyph-name="semicolon.tab" horiz-adv-x="200" 
d="M100 223q-28 0 -47.5 19t-19.5 48q0 28 20 47t47 19t46.5 -19t19.5 -47q0 -29 -19.5 -48t-46.5 -19zM36 -113l39 115q-42 17 -42 60q0 27 20 45.5t47 18.5t46.5 -19t19.5 -47q0 -23 -20 -59l-59 -114h-51z" />
    <glyph glyph-name="parenleft.tab" horiz-adv-x="300" 
d="M209 -135q-161 181 -161 426t161 426l64 -47q-62 -78 -94.5 -168t-32.5 -211q0 -219 127 -379z" />
    <glyph glyph-name="parenright.tab" horiz-adv-x="300" 
d="M26 670l64 47q161 -181 161 -426t-161 -426l-64 47q62 78 94.5 168t32.5 211q0 219 -127 379z" />
    <glyph glyph-name="bracketleft.tab" horiz-adv-x="300" 
d="M57 -128v850h213v-78h-111v-694h111v-78h-213z" />
    <glyph glyph-name="bracketright.tab" horiz-adv-x="300" 
d="M29 -128v78h111v694h-111v78h214v-850h-214z" />
    <glyph glyph-name="braceleft.tab" horiz-adv-x="300" 
d="M228 -128q-145 0 -145 144v173q0 36 -14 51.5t-43 15.5h-26v83h26q29 0 43 15.5t14 52.5v171q0 144 145 144h43v-75h-34q-27 0 -39 -13.5t-12 -46.5v-181q0 -53 -22 -76.5t-65 -30.5q43 -7 65 -30.5t22 -76.5v-185q0 -33 12 -46.5t39 -13.5h34v-75h-43z" />
    <glyph glyph-name="braceright.tab" horiz-adv-x="300" 
d="M29 722h42q145 0 145 -146v-169q0 -36 14.5 -52t43.5 -16h25v-83h-25q-30 0 -44 -15.5t-14 -51.5v-175q0 -142 -145 -142h-42v75h34q27 0 39 13.5t12 46.5v183q0 53 21.5 77t65.5 30q-44 7 -65.5 30.5t-21.5 76.5v183q0 33 -12 46.5t-39 13.5h-34v75z" />
    <glyph glyph-name="section.tab" 
d="M125 75q6 -52 37 -80t81 -28q41 0 65 17t24 44q0 22 -15 37t-52 30l-91 35q-72 27 -105 62.5t-33 86.5q0 41 24.5 70.5t62.5 40.5q-26 36 -26 84q0 63 46 103.5t112 41.5q73 0 113 -49l8 41h58v-158h-61q-8 48 -37 71t-67 23q-39 0 -60 -18.5t-21 -47.5q0 -48 60 -71
l101 -39q137 -52 137 -147q0 -80 -87 -107q28 -34 28 -83q0 -62 -45.5 -99.5t-123.5 -37.5q-87 0 -132 54l-5 -45h-61v169h65zM357 153q39 16 39 54q0 25 -15.5 41.5t-54.5 31.5l-110 43q-36 15 -55 32q-35 -17 -35 -58q0 -25 15 -42.5t52 -32.5l104 -39q36 -13 60 -30z" />
    <glyph glyph-name="numbersign.tab" 
d="M78 160l27 107h-64v71h80l26 99h-66v72h83l27 107h79l-27 -107h93l28 107h78l-27 -107h64v-72h-81l-25 -99h66v-71h-84l-26 -107h-80l27 107h-93l-27 -107h-78zM201 338h93l25 99h-93z" />
    <glyph glyph-name="space.tablining" horiz-adv-x="206" 
 />
    <glyph glyph-name="dollar.tablining" horiz-adv-x="586" 
d="M260 -116v110q-85 12 -126 70l-10 -64h-66v200h76q22 -108 126 -125v235l-16 7q-82 32 -123 77.5t-41 119.5q0 72 52 120.5t128 52.5v86h59v-92q51 -11 85 -55l7 54h70v-176h-77q-9 81 -85 97v-203l17 -6q88 -34 134 -83.5t46 -124.5q0 -85 -55.5 -136t-141.5 -56v-108
h-59zM419 173q0 37 -23.5 63t-76.5 51v-212q44 5 72 31t28 67zM175 521q0 -35 19.5 -57t65.5 -41v180q-42 -5 -63.5 -27t-21.5 -55z" />
    <glyph glyph-name="cent.tablining" 
d="M456 277h-65q-21 57 -77 71v-276q56 8 87 52l65 -56q-56 -66 -152 -75v-109h-58v110q-88 9 -142 68t-54 148q0 93 58 152.5t138 65.5v107h58v-113q46 -9 72 -43l8 41h62v-143zM162 211q0 -53 26 -90.5t68 -48.5v277q-43 -11 -68.5 -47.5t-25.5 -90.5z" />
    <glyph glyph-name="Euro.tablining" horiz-adv-x="586" 
d="M482 191l84 -37q-62 -162 -228 -162q-104 0 -167.5 64t-84.5 177h-67v69h59q-3 36 0 74h-59v70h67q23 111 88.5 176.5t159.5 65.5q50 0 84.5 -21t49.5 -52l7 65h71v-194h-75q-27 117 -128 117q-117 0 -151 -157h183v-70h-190q-3 -38 0 -74h190v-69h-181q30 -153 144 -153
q100 0 144 111z" />
    <glyph glyph-name="sterling.tablining" horiz-adv-x="586" 
d="M198 108q-35 26 -62 26q-20 0 -32.5 -10.5t-12.5 -27.5q0 -18 12.5 -28.5t32.5 -10.5q46 0 62 51zM246 351h189v-72h-160q21 -61 21 -115q0 -20 -7 -44q68 -44 115 -44q58 0 100 52l64 -57q-61 -79 -156 -79q-81 0 -153 65q-44 -65 -126 -65q-48 0 -82.5 28.5t-34.5 74.5
t33 75t83 29q40 0 76 -21q-6 47 -28 101h-105v72h68q-35 70 -35 135q0 88 58 145t152 57q88 0 128 -57l6 49h71v-187h-74q-9 58 -42 85.5t-78 27.5q-52 0 -85 -31t-33 -86q0 -56 35 -138z" />
    <glyph glyph-name="yen.tablining" horiz-adv-x="586" 
d="M55 232h187v29l-21 40h-166v70h132l-118 233h-51v76h217v-76h-59l90 -182q7 -16 14.5 -40t12.5 -41l5 -17q0 1 4.5 16.5t13 40t16.5 41.5l88 182h-58v76h204v-76h-52l-116 -233h132v-70h-166l-20 -40v-29h186v-70h-186v-89h64v-73h-232v73h66v89h-187v70z" />
    <glyph glyph-name="florin.tablining" horiz-adv-x="586" 
d="M205 237h-93v81h102l23 204q10 82 51.5 124t107.5 42q93 0 139 -77l-66 -49q-13 24 -27 36t-39 12q-56 0 -66 -79l-24 -213h130v-81h-139l-51 -449h-99z" />
    <glyph glyph-name="zero.tablining" horiz-adv-x="586" 
d="M293 -8q-113 0 -182.5 92t-69.5 256t69.5 256t182.5 92t182 -92t69 -256t-69 -256t-182 -92zM293 79q71 0 107.5 70t36.5 191t-36.5 191t-107.5 70t-107.5 -70t-36.5 -191t36.5 -191t107.5 -70z" />
    <glyph glyph-name="one.tablining" horiz-adv-x="586" 
d="M110 77h162v520h-156v83h262v-603h140v-77h-408v77z" />
    <glyph glyph-name="two.tablining" horiz-adv-x="586" 
d="M45 0v61l260 249q52 49 75.5 90.5t23.5 86.5q0 48 -30 79.5t-83 31.5q-107 0 -137 -132l-96 22q19 91 80 145.5t161 54.5q99 0 156 -56t57 -139q0 -65 -32.5 -120.5t-107.5 -124.5l-134 -126q-26 -22 -52 -41q1 0 13 1.5t27.5 3.5t27.5 2h184l10 83h71v-171h-474z" />
    <glyph glyph-name="three.tablining" horiz-adv-x="586" 
d="M72 523v157h441v-27l-143 -179q-11 -13 -22 -24.5t-16 -16.5l-6 -5q89 -1 148.5 -58.5t59.5 -149.5q0 -103 -71.5 -165.5t-181.5 -62.5q-89 0 -155 40.5t-97 107.5l92 42q57 -105 158 -105q66 0 106.5 38.5t40.5 100.5q0 64 -38.5 101t-105.5 37q-46 0 -81 -20l-27 29
l160 198l35 39q-31 -4 -55 -4h-162l-10 -73h-70z" />
    <glyph glyph-name="four.tablining" horiz-adv-x="586" 
d="M283 74h83v79h-330v73l362 455h69v-446h81v-82h-80v-79h67v-74h-252v74zM366 232v225q0 12 1.5 30.5t2.5 31.5t2 14l-6 -11q-7 -12 -16.5 -27t-16.5 -23l-154 -203l-41 -44q38 7 66 7h162z" />
    <glyph glyph-name="five.tablining" horiz-adv-x="586" 
d="M420 528l-9 63h-222v-179q47 28 112 28q101 0 164.5 -59.5t63.5 -157.5q0 -107 -70.5 -169t-181.5 -62q-171 0 -243 140l87 46q52 -100 156 -100q62 0 102.5 39t40.5 101q0 64 -38.5 100t-106.5 36q-86 0 -151 -63l-23 6v383h389v-152h-70z" />
    <glyph glyph-name="six.tablining" horiz-adv-x="586" 
d="M293 -8q-106 0 -174 65.5t-68 161.5q0 87 57 172l198 289h117l-132 -195q-29 -43 -54 -61q39 22 76 22q95 0 158 -63t63 -160q0 -98 -67 -164.5t-174 -66.5zM293 76q61 0 98 42.5t37 103.5q0 62 -36.5 104.5t-98.5 42.5q-61 0 -98 -42t-37 -105q0 -61 37 -103.5t98 -42.5
z" />
    <glyph glyph-name="seven.tablining" horiz-adv-x="586" 
d="M47 522v158h474v-57l-307 -623h-105l295 594h-277l-11 -72h-69z" />
    <glyph glyph-name="eight.tablining" horiz-adv-x="586" 
d="M293 -8q-110 0 -178 56.5t-68 147.5q0 64 35.5 109.5t98.5 66.5q-90 39 -90 144q0 72 59 122t144 50t144 -50t59 -122q0 -106 -91 -144q62 -21 96.5 -66.5t34.5 -109.5q0 -91 -67.5 -147.5t-176.5 -56.5zM293 73q62 0 100.5 35.5t38.5 93.5q0 59 -38 94.5t-101 35.5
t-101.5 -35.5t-38.5 -94.5q0 -58 38.5 -93.5t101.5 -35.5zM294 408q47 0 74.5 28.5t27.5 72.5q0 43 -27.5 70.5t-74.5 27.5q-46 0 -74 -27.5t-28 -70.5q0 -44 27.5 -72.5t74.5 -28.5z" />
    <glyph glyph-name="nine.tablining" horiz-adv-x="586" 
d="M165 0l134 194q25 36 50 58q-36 -21 -77 -21q-97 0 -160 63.5t-63 160.5q0 99 68 166t176 67q106 0 174.5 -66t68.5 -163q0 -86 -60 -174l-196 -285h-115zM293 312q63 0 101.5 42.5t38.5 104.5q0 60 -38.5 102t-101.5 42q-64 0 -102.5 -42t-38.5 -102q0 -62 37.5 -104.5
t103.5 -42.5z" />
    <glyph glyph-name="percent.tablining" horiz-adv-x="806" 
d="M195 338q-67 0 -114.5 49.5t-47.5 125.5t47.5 125.5t114.5 49.5t114.5 -49.5t47.5 -125.5t-47.5 -125.5t-114.5 -49.5zM611 -8q-67 0 -114.5 49t-47.5 125t47.5 125.5t114.5 49.5t114.5 -49.5t47.5 -125.5t-47.5 -125t-114.5 -49zM195 411q35 0 56.5 28.5t21.5 73.5
q0 46 -21.5 74t-56.5 28t-56 -28t-21 -74q0 -45 21 -73.5t56 -28.5zM611 64q35 0 56 28.5t21 73.5q0 46 -21 74.5t-56 28.5t-56.5 -28.5t-21.5 -74.5q0 -45 21.5 -73.5t56.5 -28.5zM148 0l426 680h86l-427 -680h-85z" />
    <glyph glyph-name="perthousand.tablining" horiz-adv-x="1166" 
d="M195 338q-67 0 -114.5 49.5t-47.5 125.5t47.5 125.5t114.5 49.5t114.5 -49.5t47.5 -125.5t-47.5 -125.5t-114.5 -49.5zM605 -8q-67 0 -114.5 49t-47.5 125t47.5 125.5t114.5 49.5t114 -49t47 -126q0 -76 -47 -125t-114 -49zM195 411q35 0 56.5 28.5t21.5 73.5
q0 46 -21.5 74t-56.5 28t-56 -28t-21 -74q0 -45 21 -73.5t56 -28.5zM605 64q34 0 55.5 28.5t21.5 73.5q0 46 -21.5 74.5t-55.5 28.5q-35 0 -56.5 -28.5t-21.5 -74.5q0 -45 21.5 -73.5t56.5 -28.5zM144 0l427 680h86l-427 -680h-86zM971 -8q-67 0 -114.5 49t-47.5 125
t47.5 125.5t114.5 49.5t114.5 -49.5t47.5 -125.5t-47.5 -125t-114.5 -49zM971 64q35 0 56 28.5t21 73.5q0 46 -21 74.5t-56 28.5t-56.5 -28.5t-21.5 -74.5q0 -45 21.5 -73.5t56.5 -28.5z" />
    <glyph glyph-name="plus.tablining" horiz-adv-x="586" 
d="M337 277v-160h-89v160h-153v84h153v160h89v-160h152v-84h-152z" />
    <glyph glyph-name="minus.tablining" horiz-adv-x="586" 
d="M95 276v86h394v-86h-394z" />
    <glyph glyph-name="multiply.tablining" horiz-adv-x="586" 
d="M293 252l-117 -117l-60 60l117 117l-118 118l60 59l118 -117l118 118l60 -60l-118 -118l117 -117l-60 -60z" />
    <glyph glyph-name="divide.tablining" horiz-adv-x="586" 
d="M293 423q-28 0 -48.5 20t-20.5 49t20.5 48.5t48.5 19.5t48 -19.5t20 -48.5t-20 -49t-48 -20zM95 275v89h394v-89h-394zM293 78q-28 0 -48.5 20t-20.5 49t20.5 48.5t48.5 19.5t48 -19.5t20 -48.5t-20 -49t-48 -20z" />
    <glyph glyph-name="equal.tablining" horiz-adv-x="586" 
d="M95 340v88h394v-88h-394zM95 180v87h394v-87h-394z" />
    <glyph glyph-name="less.tablining" horiz-adv-x="586" 
d="M466 119l-372 194v10l372 190v-89l-215 -107l215 -108v-90z" />
    <glyph glyph-name="greater.tablining" horiz-adv-x="586" 
d="M119 119v90l215 108l-215 107v89l372 -190v-10z" />
    <glyph glyph-name="degree.tablining" horiz-adv-x="393" 
d="M197 408q-61 0 -104 41t-43 99q0 60 43 100t104 40t103.5 -40t42.5 -100q0 -58 -42.5 -99t-103.5 -41zM197 472q31 0 51 21.5t20 54.5q0 34 -19.5 55t-51.5 21t-52 -21t-20 -55q0 -33 20 -54.5t52 -21.5z" />
    <glyph glyph-name="period.tablining" horiz-adv-x="206" 
d="M103 -7q-27 0 -47 19.5t-20 47.5q0 29 19.5 47.5t47.5 18.5q27 0 46.5 -18.5t19.5 -47.5q0 -28 -19.5 -47.5t-46.5 -19.5z" />
    <glyph glyph-name="comma.tablining" horiz-adv-x="206" 
d="M39 -113l38 115q-41 17 -41 60q0 27 20 45.5t47 18.5t46.5 -19t19.5 -47q0 -21 -21 -59l-59 -114h-50z" />
    <glyph glyph-name="colon.tablining" horiz-adv-x="206" 
d="M103 223q-28 0 -47.5 19t-19.5 48q0 28 20 47t47 19t46.5 -19t19.5 -47q0 -29 -19.5 -48t-46.5 -19zM103 -7q-27 0 -47 19.5t-20 47.5q0 29 19.5 48t47.5 19q27 0 46.5 -19t19.5 -48q0 -28 -19.5 -47.5t-46.5 -19.5z" />
    <glyph glyph-name="semicolon.tablining" horiz-adv-x="206" 
d="M103 223q-28 0 -47.5 19t-19.5 48q0 28 20 47t47 19t46.5 -19t19.5 -47q0 -29 -19.5 -48t-46.5 -19zM39 -113l38 115q-41 17 -41 60q0 27 20 45.5t47 18.5t46.5 -19t19.5 -47q0 -21 -21 -59l-59 -114h-50z" />
    <glyph glyph-name="parenleft.tablining" horiz-adv-x="306" 
d="M212 -135q-162 180 -162 426t162 426l63 -47q-63 -78 -95.5 -168t-32.5 -211q0 -220 128 -379z" />
    <glyph glyph-name="parenright.tablining" horiz-adv-x="306" 
d="M30 670l63 47q162 -182 162 -426t-162 -426l-63 47q128 159 128 379t-128 379z" />
    <glyph glyph-name="bracketleft.tablining" horiz-adv-x="306" 
d="M60 -128v850h213v-78h-111v-694h111v-78h-213z" />
    <glyph glyph-name="bracketright.tablining" horiz-adv-x="306" 
d="M32 -128v78h111v694h-111v78h213v-850h-213z" />
    <glyph glyph-name="braceleft.tablining" horiz-adv-x="306" 
d="M231 -128q-145 0 -145 144v173q0 37 -14 52t-44 15h-25v83h25q30 0 44 15.5t14 52.5v171q0 144 145 144h43v-75h-35q-27 0 -38.5 -13.5t-11.5 -46.5v-181q0 -53 -22 -76.5t-66 -30.5q44 -7 66 -30.5t22 -76.5v-185q0 -33 11.5 -46.5t38.5 -13.5h35v-75h-43z" />
    <glyph glyph-name="braceright.tablining" horiz-adv-x="306" 
d="M31 722h43q145 0 145 -146v-169q0 -37 14 -52.5t44 -15.5h26v-83h-26q-30 0 -44 -15t-14 -52v-175q0 -142 -145 -142h-43v75h35q27 0 39 13.5t12 46.5v183q0 53 21.5 77t65.5 30q-44 7 -65.5 30.5t-21.5 76.5v183q0 33 -12 46.5t-39 13.5h-35v75z" />
    <glyph glyph-name="section.tablining" horiz-adv-x="586" 
d="M481 507h-71q-7 48 -37 74t-73 26t-69 -22.5t-26 -59.5q0 -35 19.5 -56t69.5 -44l102 -46q76 -34 109.5 -74t33.5 -94q0 -94 -97 -127q40 -48 40 -106q0 -71 -51.5 -114.5t-140.5 -43.5q-105 0 -162 67l-8 -59h-66v193h73q11 -56 49.5 -89t98.5 -33q102 0 102 75
q0 29 -19 48t-62 40l-127 58q-63 30 -93 66.5t-30 91.5q0 95 95 128q-37 43 -37 111q0 71 52.5 121.5t130.5 50.5q80 0 121 -53l7 44h66v-173zM394 126q49 19 49 64q0 31 -19 50t-66 41l-119 54q-38 17 -49 30q-47 -21 -47 -67q0 -30 17.5 -48t58.5 -36l117 -55
q34 -13 58 -33z" />
    <glyph glyph-name="numbersign.tablining" horiz-adv-x="586" 
d="M112 220l28 110h-80v71h97l25 99h-83v71h100l28 109h80l-27 -109h85l28 109h80l-27 -109h78v-71h-94l-26 -99h81v-71h-99l-27 -110h-81l28 110h-86l-28 -110h-80zM238 401h86l25 99h-86z" />
    <glyph glyph-name="zero.numerator" horiz-adv-x="519" 
d="M259 210q-94 0 -154.5 67.5t-60.5 171.5q0 105 60.5 172t154.5 67q95 0 155.5 -67t60.5 -172t-60.5 -172t-155.5 -67zM259 291q55 0 86 42.5t31 115.5q0 74 -31 116t-86 42q-54 0 -85.5 -42.5t-31.5 -115.5t31.5 -115.5t85.5 -42.5z" />
    <glyph glyph-name="one.numerator" horiz-adv-x="330" 
d="M45 295h86v306h-93v79h187v-385h77v-77h-257v77z" />
    <glyph glyph-name="two.numerator" horiz-adv-x="427" 
d="M28 218v61l170 147q44 39 61.5 65t17.5 53q0 28 -19 46.5t-50 18.5q-38 0 -61.5 -24t-32.5 -55l-81 28q17 61 65.5 95.5t112.5 34.5q75 0 119.5 -40t44.5 -98q0 -46 -29 -84.5t-79 -81.5l-56 -50q-32 -29 -63 -46q24 4 63 4h97l8 50h65v-124h-353z" />
    <glyph glyph-name="three.numerator" horiz-adv-x="425" 
d="M136 440l-13 17l95 107q9 11 21 23t19 18l7 6q-49 -5 -74 -5h-70l-8 -50h-68v124h327v-46l-73 -87q-24 -29 -44 -37q54 -5 91.5 -40.5t37.5 -101.5q0 -75 -51 -116.5t-130 -41.5q-130 0 -182 106l82 39q30 -63 98 -63q39 0 63 21.5t24 60.5q0 37 -27 57.5t-68 20.5
q-33 0 -57 -12z" />
    <glyph glyph-name="four.numerator" horiz-adv-x="464" 
d="M368 375h58v-75h-58v-82h-93v82h-238v69l255 310h76v-304zM278 371v133l3 62q-18 -29 -38 -54l-82 -104q-7 -9 -17 -19.5t-16 -16.5l-6 -5q24 4 50 4h106z" />
    <glyph glyph-name="five.numerator" horiz-adv-x="437" 
d="M296 564l-6 43h-139v-107q34 17 78 17q73 0 118.5 -39t45.5 -109t-49 -114.5t-130 -44.5q-69 0 -116 29.5t-69 72.5l76 42q39 -64 103 -64q41 0 65.5 20.5t24.5 58.5t-25.5 58.5t-69.5 20.5q-67 0 -120 -41l-11 7v266h290v-116h-66z" />
    <glyph glyph-name="six.numerator" horiz-adv-x="448" 
d="M225 210q-80 0 -131.5 46.5t-51.5 116.5q0 62 55 140l123 167h104l-68 -94q-15 -19 -35 -38.5t-28 -24.5q24 11 51 11q73 0 118.5 -43.5t45.5 -113.5t-51 -118.5t-132 -48.5zM225 287q41 0 64.5 25.5t23.5 64.5t-23.5 65t-64.5 26q-40 0 -64 -26.5t-24 -64.5
q0 -39 24 -64.5t64 -25.5z" />
    <glyph glyph-name="seven.numerator" horiz-adv-x="419" 
d="M37 540v140h353v-50l-211 -412h-99l196 384h-161l-9 -62h-69z" />
    <glyph glyph-name="eight.numerator" horiz-adv-x="437" 
d="M218 210q-76 0 -127 39.5t-51 102.5q0 41 24 71.5t65 45.5q-62 29 -62 95q0 54 41.5 89t109.5 35q70 0 111 -35t41 -89q0 -66 -62 -95q89 -32 89 -117q0 -64 -50.5 -103t-128.5 -39zM218 285q39 0 62 20t23 54q0 35 -23 55.5t-62 20.5q-38 0 -61.5 -20.5t-23.5 -55.5
q0 -34 23 -54t62 -20zM220 497q28 0 45 16.5t17 42.5q0 28 -17.5 44.5t-46.5 16.5t-46 -16.5t-17 -44.5q0 -26 18 -42.5t47 -16.5z" />
    <glyph glyph-name="nine.numerator" horiz-adv-x="447" 
d="M122 218l74 99q28 37 57 58q-19 -10 -46 -10q-73 0 -120.5 44t-47.5 113q0 70 51 118t133 48q81 0 131.5 -46.5t50.5 -115.5q0 -66 -48 -130l-131 -178h-104zM223 434q40 0 63.5 25.5t23.5 63.5q0 36 -23.5 62t-63.5 26q-41 0 -65 -25.5t-24 -62.5q0 -38 24 -63.5
t65 -25.5z" />
    <glyph glyph-name="zero.denominator" horiz-adv-x="519" 
d="M259 -8q-94 0 -154.5 67.5t-60.5 171.5q0 105 60.5 172t154.5 67q95 0 155.5 -67t60.5 -172t-60.5 -172t-155.5 -67zM259 73q55 0 86 42t31 116q0 73 -31 115t-86 42q-54 0 -85.5 -42t-31.5 -115t31.5 -115.5t85.5 -42.5z" />
    <glyph glyph-name="one.denominator" horiz-adv-x="330" 
d="M45 76h86v306h-93v80h187v-386h77v-76h-257v76z" />
    <glyph glyph-name="two.denominator" horiz-adv-x="427" 
d="M28 0v61l170 147q44 39 61.5 64.5t17.5 52.5q0 28 -18.5 46.5t-50.5 18.5q-38 0 -61.5 -24t-32.5 -55l-81 29q17 61 65.5 95.5t112.5 34.5q75 0 119.5 -40.5t44.5 -97.5q0 -33 -18.5 -66t-38 -52.5t-51.5 -47.5l-56 -50q-20 -18 -64 -47q12 4 64 4h97l8 50h65v-123h-353z
" />
    <glyph glyph-name="three.denominator" horiz-adv-x="425" 
d="M136 222l-13 17l95 107q9 11 21 22.5t19 17.5l7 6q-49 -5 -74 -5h-70l-8 -50h-68v125h327v-47l-73 -87q-25 -30 -44 -37q54 -5 91.5 -40.5t37.5 -101.5q0 -74 -51 -115.5t-130 -41.5q-131 0 -182 106l82 39q29 -63 98 -63q39 0 63 21.5t24 60.5q0 37 -27 57.5t-68 20.5
q-33 0 -57 -12z" />
    <glyph glyph-name="four.denominator" horiz-adv-x="464" 
d="M368 157h58v-76h-58v-81h-93v81h-238v70l255 310h76v-304zM278 153v133l3 61q-18 -29 -38 -54l-82 -103q-7 -9 -17 -19.5t-16 -16.5l-6 -5q24 4 50 4h106z" />
    <glyph glyph-name="five.denominator" horiz-adv-x="437" 
d="M296 345l-6 43h-139v-106q32 16 78 16q73 0 118.5 -38.5t45.5 -108.5t-49 -114.5t-130 -44.5q-69 0 -116 29t-69 73l76 42q19 -32 42.5 -48.5t60.5 -16.5q41 0 65.5 21t24.5 59q0 37 -25.5 58t-69.5 21q-65 0 -120 -41l-11 6v267h290v-117h-66z" />
    <glyph glyph-name="six.denominator" horiz-adv-x="448" 
d="M225 -8q-80 0 -131.5 46.5t-51.5 116.5q0 61 55 139l123 168h104l-68 -94q-20 -28 -63 -65q24 13 51 13q73 0 118.5 -43.5t45.5 -113.5t-51 -118.5t-132 -48.5zM225 68q41 0 64.5 26t23.5 65q0 38 -23.5 64t-64.5 26q-40 0 -64 -26t-24 -64q0 -39 24 -65t64 -26z" />
    <glyph glyph-name="seven.denominator" horiz-adv-x="419" 
d="M37 322v140h353v-50l-211 -412h-99l196 383h-161l-9 -61h-69z" />
    <glyph glyph-name="eight.denominator" horiz-adv-x="437" 
d="M218 -9q-76 0 -127 39.5t-51 103.5q0 84 89 117q-62 27 -62 94q0 54 41.5 89.5t109.5 35.5q70 0 111 -35.5t41 -89.5q0 -67 -62 -94q89 -32 89 -117q0 -64 -50.5 -103.5t-128.5 -39.5zM218 67q39 0 62 20t23 54q0 35 -23 55.5t-62 20.5q-38 0 -61.5 -20.5t-23.5 -55.5
q0 -34 23 -54t62 -20zM220 279q28 0 45 16t17 43q0 28 -17.5 44.5t-46.5 16.5t-46 -16.5t-17 -44.5q0 -27 18 -43t47 -16z" />
    <glyph glyph-name="nine.denominator" horiz-adv-x="447" 
d="M122 0l74 98q19 27 57 59q-18 -11 -46 -11q-73 0 -120.5 44t-47.5 114t51 118t133 48q81 0 131.5 -46.5t50.5 -115.5q0 -67 -48 -130l-131 -178h-104zM223 215q40 0 63.5 26t23.5 63t-23.5 62.5t-63.5 25.5q-41 0 -65 -25.5t-24 -62.5t24 -63t65 -26z" />
    <glyph glyph-name="zero.subscript" horiz-adv-x="443" 
d="M221 -257q-80 0 -131.5 57.5t-51.5 145.5q0 90 51.5 147t131.5 57t132 -57t52 -147q0 -88 -51.5 -145.5t-132.5 -57.5zM221 -189q46 0 73 36.5t27 98.5q0 63 -26.5 99t-73.5 36q-46 0 -72.5 -36t-26.5 -99q0 -62 26.5 -98.5t72.5 -36.5z" />
    <glyph glyph-name="one.subscript" horiz-adv-x="276" 
d="M35 -184h74v256h-77v70h159v-326h63v-66h-219v66z" />
    <glyph glyph-name="two.subscript" horiz-adv-x="367" 
d="M26 -250v50l152 130q33 28 47 48t14 45t-15.5 41.5t-44.5 16.5q-55 0 -80 -66l-70 23q16 52 55.5 81.5t95.5 29.5q64 0 102.5 -33.5t38.5 -84.5q0 -39 -21.5 -70.5t-63.5 -68.5l-59 -51q-29 -23 -49 -34q1 0 23.5 1.5t36.5 1.5h72l6 41h55v-101h-295z" />
    <glyph glyph-name="three.subscript" horiz-adv-x="357" 
d="M39 39v104h277v-37l-71 -77q-22 -24 -33 -29q48 -6 80 -38t32 -85q0 -63 -44 -98.5t-111 -35.5q-112 0 -153 87l69 36q26 -55 82 -55q34 0 55 19t21 53q0 32 -22.5 49t-60.5 17q-26 0 -44 -9l-12 14l79 90l40 40q-33 -4 -54 -4h-68l-6 -41h-56z" />
    <glyph glyph-name="four.subscript" horiz-adv-x="393" 
d="M314 -118h50v-63h-50v-69h-77v69h-204v58l211 268h70v-263zM237 -119v110q0 44 2 60q-26 -43 -34 -54l-62 -81l-36 -38q19 3 45 3h85z" />
    <glyph glyph-name="five.subscript" horiz-adv-x="377" 
d="M254 42l-7 38h-117v-88q28 13 64 13q63 0 102 -35t39 -91q0 -60 -41.5 -98t-111.5 -38q-56 0 -95.5 23.5t-58.5 63.5l66 34q28 -53 83 -53q34 0 55 18.5t21 50.5q0 33 -21 50.5t-57 17.5q-56 0 -98 -33l-14 8v219h245v-100h-54z" />
    <glyph glyph-name="six.subscript" horiz-adv-x="384" 
d="M192 -257q-68 0 -111.5 39.5t-43.5 99.5q0 53 47 118l104 143h89l-58 -80q-18 -26 -53 -55q19 10 41 10q62 0 102 -37t40 -96q0 -60 -43.5 -101t-113.5 -41zM193 -192q35 0 55 22t20 55q0 34 -20 56t-55 22q-34 0 -54.5 -22.5t-20.5 -54.5q0 -33 20.5 -55.5t54.5 -22.5z
" />
    <glyph glyph-name="seven.subscript" horiz-adv-x="361" 
d="M35 29v113h300v-44l-180 -348h-84l170 328h-141l-9 -49h-56z" />
    <glyph glyph-name="eight.subscript" horiz-adv-x="377" 
d="M188 -258q-65 0 -108 33.5t-43 87.5q0 74 78 101q-55 22 -55 81q0 45 35 75t93 30q60 0 94.5 -30t34.5 -75q0 -59 -54 -81q77 -27 77 -101q0 -54 -42.5 -87.5t-109.5 -33.5zM188 -193q33 0 53 17t20 47q0 31 -20 48.5t-53 17.5t-52.5 -18t-19.5 -48t19.5 -47t52.5 -17z
M189 -13q25 0 39.5 14t14.5 38t-15 38t-40 14t-39 -14t-14 -38q0 -23 14.5 -37.5t39.5 -14.5z" />
    <glyph glyph-name="nine.subscript" horiz-adv-x="383" 
d="M105 -250l63 84q26 35 49 49q-21 -9 -39 -9q-62 0 -102.5 37.5t-40.5 96.5t43 100t113 41q69 0 112 -39.5t43 -98.5q0 -56 -41 -110l-111 -151h-89zM191 -69q35 0 55 22t20 54t-20 54t-55 22t-55 -21.5t-20 -54.5q0 -32 20 -54t55 -22z" />
    <glyph glyph-name="zero.superscript" horiz-adv-x="443" 
d="M221 281q-80 0 -131.5 57t-51.5 146t51.5 146t131.5 57t132 -57t52 -146t-51.5 -146t-132.5 -57zM221 349q46 0 73 36.5t27 98.5q0 63 -26.5 99t-73.5 36q-46 0 -72.5 -36t-26.5 -99q0 -62 26.5 -98.5t72.5 -36.5z" />
    <glyph glyph-name="one.superscript" horiz-adv-x="276" 
d="M35 354h74v256h-77v70h159v-326h63v-66h-219v66z" />
    <glyph glyph-name="two.superscript" horiz-adv-x="367" 
d="M26 288v50l152 130q33 28 47 48t14 45t-15.5 41.5t-44.5 16.5q-55 0 -80 -67l-70 24q16 52 55.5 81.5t95.5 29.5q64 0 102.5 -33.5t38.5 -84.5q0 -39 -21.5 -70.5t-63.5 -68.5l-59 -51q-29 -25 -48 -35q32 4 59 4h72l6 41h55v-101h-295z" />
    <glyph glyph-name="three.superscript" horiz-adv-x="357" 
d="M39 576v104h277v-36l-71 -77q-4 -5 -9 -10t-9 -8.5t-7.5 -6t-5.5 -4.5l-2 -1q48 -5 80 -37t32 -85q0 -63 -44 -98.5t-111 -35.5q-113 0 -153 87l69 36q26 -55 82 -55q34 0 55 19t21 53q0 32 -22.5 49t-60.5 17q-26 0 -44 -9l-12 14l79 90l40 39q-33 -3 -54 -3h-68l-6 -42
h-56z" />
    <glyph glyph-name="four.superscript" horiz-adv-x="393" 
d="M314 420h50v-63h-50v-69h-77v69h-204v58l211 268h70v-263zM237 419v109q0 46 2 60q-22 -37 -34 -53l-62 -81l-36 -38q19 3 45 3h85z" />
    <glyph glyph-name="five.superscript" horiz-adv-x="377" 
d="M254 579l-7 39h-117v-89q26 14 64 14q63 0 102 -35t39 -91q0 -60 -41.5 -98t-111.5 -38q-56 0 -95.5 23.5t-58.5 63.5l66 34q28 -53 83 -53q34 0 55 18.5t21 50.5q0 33 -21 50.5t-57 17.5q-54 0 -98 -33l-14 8v219h245v-101h-54z" />
    <glyph glyph-name="six.superscript" horiz-adv-x="384" 
d="M192 281q-68 0 -111.5 39.5t-43.5 99.5q0 53 47 118l104 142h89l-58 -79q-18 -26 -53 -55q22 10 41 10q62 0 102 -37t40 -96q0 -60 -43.5 -101t-113.5 -41zM193 346q35 0 55 22t20 55t-20 55t-55 22q-34 0 -54.5 -22t-20.5 -54q0 -33 20.5 -55.5t54.5 -22.5z" />
    <glyph glyph-name="seven.superscript" horiz-adv-x="361" 
d="M35 567v113h300v-44l-180 -348h-84l170 328h-141l-9 -49h-56z" />
    <glyph glyph-name="eight.superscript" horiz-adv-x="377" 
d="M188 280q-65 0 -108 33.5t-43 87.5q0 74 78 101q-55 22 -55 81q0 45 35 74.5t93 29.5q60 0 94.5 -29.5t34.5 -74.5q0 -59 -54 -81q77 -27 77 -101q0 -54 -42.5 -87.5t-109.5 -33.5zM188 345q33 0 53 17t20 47q0 31 -20 48.5t-53 17.5t-52.5 -18t-19.5 -48t19.5 -47
t52.5 -17zM189 524q25 0 39.5 14.5t14.5 38.5t-15 38t-40 14t-39 -14t-14 -38q0 -23 14.5 -38t39.5 -15z" />
    <glyph glyph-name="nine.superscript" horiz-adv-x="383" 
d="M105 288l63 83q25 32 49 50q-21 -9 -39 -9q-62 0 -102.5 37.5t-40.5 96.5t43 100t113 41q69 0 112 -39.5t43 -98.5q0 -56 -41 -110l-111 -151h-89zM191 468q34 0 54.5 22.5t20.5 54.5t-20 54t-55 22t-55 -22t-20 -54t20 -54.5t55 -22.5z" />
    <glyph glyph-name="A.alt" horiz-adv-x="701" 
d="M206 604v76h194l226 -604h53v-76h-227v76h67l-38 101h-272l-37 -101h84v-76h-233v76h53l202 528h-72zM308 441l-70 -185h216l-69 185q-12 32 -23.5 75.5t-12.5 54.5q-24 -83 -41 -130z" />
    <glyph glyph-name="G.alt" horiz-adv-x="774" 
d="M401 601q-108 0 -177.5 -74t-69.5 -185t69 -186.5t176 -75.5q97 0 153.5 50.5t72.5 129.5h-210v83h316q3 -161 -85 -256t-246 -95q-152 0 -252.5 98.5t-100.5 249.5t101.5 249.5t249.5 98.5q139 0 200 -84l9 76h72v-203h-79q-16 59 -70.5 91.5t-128.5 32.5z" />
    <glyph glyph-name="M.alt" horiz-adv-x="860" 
d="M601 0v76h68l-27 331q-1 15 -1 114q-30 -70 -47 -100l-160 -290h-24l-153 281q-6 10 -13.5 25t-14 29t-12 26.5t-9.5 21.5l-3 8q3 -79 -1 -123l-26 -323h70v-76h-214v76h54l43 528h-79v76h159l184 -335l9.5 -19t10 -20.5t8 -18t5.5 -13.5l3 -6q0 1 5.5 13.5t14 31.5
t16.5 32l183 335h160v-76h-81l44 -528h53v-76h-225z" />
    <glyph glyph-name="Q.alt1" horiz-adv-x="796" 
d="M350 -158v154q-132 16 -217.5 111t-85.5 233q0 151 101 249.5t250 98.5t250 -98.5t101 -249.5q0 -138 -85.5 -233t-217.5 -111v-154h-96zM156 340q0 -100 53.5 -171t140.5 -87v135h96v-135q87 16 140.5 87t53.5 171q0 115 -68 188t-174 73t-174 -73t-68 -188z" />
    <glyph glyph-name="Q.alt2" horiz-adv-x="797" 
d="M451 6q4 -4 24 -19q52 -37 100 -37q53 0 91 44l69 -61q-58 -76 -159 -76q-32 0 -61 8t-59.5 28.5t-43 30.5t-45.5 38q-25 21 -40.5 32t-39.5 21t-47 10q-66 0 -113 -71l-70 59q38 60 99 78q-109 96 -109 249q0 151 101.5 249.5t249.5 98.5t249.5 -98.5t101.5 -249.5
q0 -135 -84.5 -227t-213.5 -107zM398 79q106 0 174 73t68 188t-68 188t-174 73t-174 -73t-68 -188t68 -188t174 -73z" />
    <glyph glyph-name="a.alt" horiz-adv-x="575" 
d="M480 75h54v-75h-153v79q-19 -41 -57.5 -64t-90.5 -23q-82 0 -139 62.5t-57 156.5t56.5 156t137.5 62q104 0 151 -89l-1 80h155v-78h-56v-267zM260 346q-54 0 -86 -37.5t-32 -99.5q0 -60 32 -97.5t86 -37.5q55 0 88.5 37t33.5 97q0 63 -33.5 100.5t-88.5 37.5z" />
    <glyph glyph-name="g.alt" horiz-adv-x="566" 
d="M44 -112l71 51q52 -81 140 -81q125 0 125 135v83q-44 -84 -147 -84q-82 0 -139 62.5t-57 156.5t56.5 156t138.5 62q104 0 151 -89v80h152v-78h-54v-339q0 -116 -61 -171t-161 -55q-141 0 -215 111zM260 346q-54 0 -86 -37.5t-32 -99.5q0 -60 32 -97.5t86 -37.5
q55 0 89 37.5t34 97.5q0 62 -33.5 99.5t-89.5 37.5z" />
    <glyph glyph-name="Aacute.alt" horiz-adv-x="701" 
d="M206 604v76h194l226 -604h53v-76h-227v76h67l-38 101h-272l-37 -101h84v-76h-233v76h53l202 528h-72zM308 441l-70 -185h216l-69 185q-12 32 -23.5 75.5t-12.5 54.5q-24 -83 -41 -130zM303 757l60 191h116l-98 -191h-78z" />
    <glyph glyph-name="Abreve.alt" horiz-adv-x="701" 
d="M206 604v76h194l226 -604h53v-76h-227v76h67l-38 101h-272l-37 -101h84v-76h-233v76h53l202 528h-72zM308 441l-70 -185h216l-69 185q-12 32 -23.5 75.5t-12.5 54.5q-24 -83 -41 -130zM338 752q-63 0 -101.5 35.5t-45.5 92.5l79 12q12 -64 68 -64q54 0 66 64l80 -12
q-7 -57 -45.5 -92.5t-100.5 -35.5z" />
    <glyph glyph-name="Acircumflex.alt" horiz-adv-x="701" 
d="M206 604v76h194l226 -604h53v-76h-227v76h67l-38 101h-272l-37 -101h84v-76h-233v76h53l202 528h-72zM308 441l-70 -185h216l-69 185q-12 32 -23.5 75.5t-12.5 54.5q-24 -83 -41 -130zM193 756l143 204h10l143 -204h-86l-65 84l-66 -84h-79z" />
    <glyph glyph-name="Adieresis.alt" horiz-adv-x="701" 
d="M206 604v76h194l226 -604h53v-76h-227v76h67l-38 101h-272l-37 -101h84v-76h-233v76h53l202 528h-72zM308 441l-70 -185h216l-69 185q-12 32 -23.5 75.5t-12.5 54.5q-24 -83 -41 -130zM438 769q-24 0 -42.5 18t-18.5 43q0 24 18.5 42t42.5 18t42 -17.5t18 -42.5t-18 -43
t-42 -18zM243 769q-24 0 -42.5 18t-18.5 43q0 24 18.5 42t42.5 18t42 -17.5t18 -42.5t-18 -43t-42 -18z" />
    <glyph glyph-name="Agrave.alt" horiz-adv-x="701" 
d="M206 604v76h194l226 -604h53v-76h-227v76h67l-38 101h-272l-37 -101h84v-76h-233v76h53l202 528h-72zM308 441l-70 -185h216l-69 185q-12 32 -23.5 75.5t-12.5 54.5q-24 -83 -41 -130zM302 757l-98 191h116l60 -191h-78z" />
    <glyph glyph-name="Amacron.alt" horiz-adv-x="701" 
d="M206 604v76h194l226 -604h53v-76h-227v76h67l-38 101h-272l-37 -101h84v-76h-233v76h53l202 528h-72zM308 441l-70 -185h216l-69 185q-12 32 -23.5 75.5t-12.5 54.5q-24 -83 -41 -130zM226 778v77h227v-77h-227z" />
    <glyph glyph-name="Aogonek.alt" horiz-adv-x="701" 
d="M587 -219q-44 0 -73 24t-29 70q0 49 68 125h-101v76h67l-38 101h-272l-37 -101h84v-76h-233v76h53l202 528h-72v76h194l226 -604h53v-76h-49q-63 -86 -63 -117q0 -33 32 -33q22 0 37 25l55 -35q-33 -59 -104 -59zM308 441l-70 -185h216l-69 185q-12 32 -23.5 75.5
t-12.5 54.5q-24 -83 -41 -130z" />
    <glyph glyph-name="Aring.alt" horiz-adv-x="701" 
d="M206 604v76h194l226 -604h53v-76h-227v76h67l-38 101h-272l-37 -101h84v-76h-233v76h53l202 528h-72zM338 737q-49 0 -83 32t-34 77q0 46 34 78t83 32t82.5 -32t33.5 -78q0 -45 -34 -77t-82 -32zM308 441l-70 -185h216l-69 185q-12 32 -23.5 75.5t-12.5 54.5
q-24 -83 -41 -130zM338 791q23 0 37.5 15t14.5 40q0 26 -14.5 40.5t-37.5 14.5q-24 0 -38.5 -14.5t-14.5 -40.5q0 -25 14.5 -40t38.5 -15z" />
    <glyph glyph-name="Atilde.alt" horiz-adv-x="701" 
d="M206 604v76h194l226 -604h53v-76h-227v76h67l-38 101h-272l-37 -101h84v-76h-233v76h53l202 528h-72zM308 441l-70 -185h216l-69 185q-12 32 -23.5 75.5t-12.5 54.5q-24 -83 -41 -130zM253 754l-71 7q4 60 31 92.5t68 32.5q34 0 67 -26q36 -27 48 -27q27 0 31 52l72 -7
q-4 -60 -30.5 -92.5t-68.5 -32.5q-33 0 -67 27q-4 3 -11 8t-9 7t-7 5t-7.5 4t-6 2t-7.5 1q-26 0 -32 -53z" />
    <glyph glyph-name="Gbreve.alt" horiz-adv-x="774" 
d="M401 601q-108 0 -177.5 -74t-69.5 -185t69 -186.5t176 -75.5q97 0 153.5 50.5t72.5 129.5h-210v83h316q3 -161 -85 -256t-246 -95q-152 0 -252.5 98.5t-100.5 249.5t101.5 249.5t249.5 98.5q139 0 200 -84l9 76h72v-203h-79q-16 59 -70.5 91.5t-128.5 32.5zM394 752
q-63 0 -101.5 35.5t-45.5 92.5l79 12q12 -64 68 -64q54 0 66 64l80 -12q-7 -57 -45.5 -92.5t-100.5 -35.5z" />
    <glyph glyph-name="Gcircumflex.alt" horiz-adv-x="774" 
d="M245 756l143 204h10l143 -204h-86l-65 84l-66 -84h-79zM401 601q-108 0 -177.5 -74t-69.5 -185t69 -186.5t176 -75.5q97 0 153.5 50.5t72.5 129.5h-210v83h316q3 -161 -85 -256t-246 -95q-152 0 -252.5 98.5t-100.5 249.5t101.5 249.5t249.5 98.5q139 0 200 -84l9 76h72
v-203h-79q-16 59 -70.5 91.5t-128.5 32.5z" />
    <glyph glyph-name="Gcommaaccent.alt" horiz-adv-x="774" 
d="M329 -269l31 98q-15 6 -25.5 22t-10.5 36q0 27 19 45t45 18q25 0 44.5 -18.5t19.5 -44.5q0 -28 -19 -60l-52 -96h-52zM401 601q-108 0 -177.5 -74t-69.5 -185t69 -186.5t176 -75.5q97 0 153.5 50.5t72.5 129.5h-210v83h316q3 -161 -85 -256t-246 -95q-152 0 -252.5 98.5
t-100.5 249.5t101.5 249.5t249.5 98.5q139 0 200 -84l9 76h72v-203h-79q-16 59 -70.5 91.5t-128.5 32.5z" />
    <glyph glyph-name="Gdotaccent.alt" horiz-adv-x="774" 
d="M401 601q-108 0 -177.5 -74t-69.5 -185t69 -186.5t176 -75.5q97 0 153.5 50.5t72.5 129.5h-210v83h316q3 -161 -85 -256t-246 -95q-152 0 -252.5 98.5t-100.5 249.5t101.5 249.5t249.5 98.5q139 0 200 -84l9 76h72v-203h-79q-16 59 -70.5 91.5t-128.5 32.5zM391 769
q-25 0 -43.5 17.5t-18.5 43.5q0 25 19 43t43 18t42 -18t18 -43q0 -26 -18 -43.5t-42 -17.5z" />
    <glyph glyph-name="aacute.alt" horiz-adv-x="575" 
d="M222 499l60 191h116l-98 -191h-78zM480 75h54v-75h-153v79q-19 -41 -57.5 -64t-90.5 -23q-82 0 -139 62.5t-57 156.5t56.5 156t137.5 62q104 0 151 -89l-1 80h155v-78h-56v-267zM260 346q-54 0 -86 -37.5t-32 -99.5q0 -60 32 -97.5t86 -37.5q55 0 88.5 37t33.5 97
q0 63 -33.5 100.5t-88.5 37.5z" />
    <glyph glyph-name="abreve.alt" horiz-adv-x="575" 
d="M480 75h54v-75h-153v79q-19 -41 -57.5 -64t-90.5 -23q-82 0 -139 62.5t-57 156.5t56.5 156t137.5 62q104 0 151 -89l-1 80h155v-78h-56v-267zM260 346q-54 0 -86 -37.5t-32 -99.5q0 -60 32 -97.5t86 -37.5q55 0 88.5 37t33.5 97q0 63 -33.5 100.5t-88.5 37.5zM266 494
q-63 0 -101.5 35.5t-45.5 92.5l79 12q12 -64 68 -64q54 0 66 64l80 -12q-7 -57 -45.5 -92.5t-100.5 -35.5z" />
    <glyph glyph-name="acircumflex.alt" horiz-adv-x="575" 
d="M118 498l143 204h10l143 -204h-86l-65 84l-66 -84h-79zM480 75h54v-75h-153v79q-19 -41 -57.5 -64t-90.5 -23q-82 0 -139 62.5t-57 156.5t56.5 156t137.5 62q104 0 151 -89l-1 80h155v-78h-56v-267zM260 346q-54 0 -86 -37.5t-32 -99.5q0 -60 32 -97.5t86 -37.5
q55 0 88.5 37t33.5 97q0 63 -33.5 100.5t-88.5 37.5z" />
    <glyph glyph-name="adieresis.alt" horiz-adv-x="575" 
d="M369 511q-24 0 -42.5 18t-18.5 43q0 24 18.5 42t42.5 18t42 -17.5t18 -42.5t-18 -43t-42 -18zM174 511q-24 0 -42.5 18t-18.5 43q0 24 18.5 42t42.5 18t42 -17.5t18 -42.5t-18 -43t-42 -18zM480 75h54v-75h-153v79q-19 -41 -57.5 -64t-90.5 -23q-82 0 -139 62.5
t-57 156.5t56.5 156t137.5 62q104 0 151 -89l-1 80h155v-78h-56v-267zM260 346q-54 0 -86 -37.5t-32 -99.5q0 -60 32 -97.5t86 -37.5q55 0 88.5 37t33.5 97q0 63 -33.5 100.5t-88.5 37.5z" />
    <glyph glyph-name="agrave.alt" horiz-adv-x="575" 
d="M480 75h54v-75h-153v79q-19 -41 -57.5 -64t-90.5 -23q-82 0 -139 62.5t-57 156.5t56.5 156t137.5 62q104 0 151 -89l-1 80h155v-78h-56v-267zM260 346q-54 0 -86 -37.5t-32 -99.5q0 -60 32 -97.5t86 -37.5q55 0 88.5 37t33.5 97q0 63 -33.5 100.5t-88.5 37.5zM229 499
l-98 191h116l60 -191h-78z" />
    <glyph glyph-name="amacron.alt" horiz-adv-x="575" 
d="M480 75h54v-75h-153v79q-19 -41 -57.5 -64t-90.5 -23q-82 0 -139 62.5t-57 156.5t56.5 156t137.5 62q104 0 151 -89l-1 80h155v-78h-56v-267zM260 346q-54 0 -86 -37.5t-32 -99.5q0 -60 32 -97.5t86 -37.5q55 0 88.5 37t33.5 97q0 63 -33.5 100.5t-88.5 37.5zM152 520v77
h227v-77h-227z" />
    <glyph glyph-name="aogonek.alt" horiz-adv-x="575" 
d="M414 -219q-44 0 -73 24t-29 70q0 49 68 125h1v79q-19 -41 -57.5 -64t-90.5 -23q-82 0 -139 62.5t-57 156.5t56.5 156t137.5 62q104 0 151 -89l-1 80h155v-78h-56v-267h54v-75h-77q-63 -86 -63 -117q0 -33 32 -33q22 0 37 25l55 -35q-33 -59 -104 -59zM260 346
q-54 0 -86 -37.5t-32 -99.5q0 -60 32 -97.5t86 -37.5q55 0 88.5 37t33.5 97q0 63 -33.5 100.5t-88.5 37.5z" />
    <glyph glyph-name="aring.alt" horiz-adv-x="575" 
d="M268 479q-49 0 -83 32t-34 77q0 46 34 78t83 32t82.5 -32t33.5 -78q0 -45 -34 -77t-82 -32zM268 533q23 0 37.5 15t14.5 40q0 26 -14.5 40.5t-37.5 14.5q-24 0 -38.5 -14.5t-14.5 -40.5q0 -25 14.5 -40t38.5 -15zM480 75h54v-75h-153v79q-19 -41 -57.5 -64t-90.5 -23
q-82 0 -139 62.5t-57 156.5t56.5 156t137.5 62q104 0 151 -89l-1 80h155v-78h-56v-267zM260 346q-54 0 -86 -37.5t-32 -99.5q0 -60 32 -97.5t86 -37.5q55 0 88.5 37t33.5 97q0 63 -33.5 100.5t-88.5 37.5z" />
    <glyph glyph-name="atilde.alt" horiz-adv-x="575" 
d="M480 75h54v-75h-153v79q-19 -41 -57.5 -64t-90.5 -23q-82 0 -139 62.5t-57 156.5t56.5 156t137.5 62q104 0 151 -89l-1 80h155v-78h-56v-267zM260 346q-54 0 -86 -37.5t-32 -99.5q0 -60 32 -97.5t86 -37.5q55 0 88.5 37t33.5 97q0 63 -33.5 100.5t-88.5 37.5zM185 496
l-71 7q4 60 31 92.5t68 32.5q34 0 67 -26q36 -27 48 -27q27 0 31 52l72 -7q-4 -60 -30.5 -92.5t-68.5 -32.5q-33 0 -67 27q-4 3 -11 8t-9 7t-7 5t-7.5 4t-6 2t-7.5 1q-26 0 -32 -53z" />
    <glyph glyph-name="gbreve.alt" horiz-adv-x="566" 
d="M44 -112l71 51q52 -81 140 -81q125 0 125 135v83q-44 -84 -147 -84q-82 0 -139 62.5t-57 156.5t56.5 156t138.5 62q104 0 151 -89v80h152v-78h-54v-339q0 -116 -61 -171t-161 -55q-141 0 -215 111zM260 346q-54 0 -86 -37.5t-32 -99.5q0 -60 32 -97.5t86 -37.5
q55 0 89 37.5t34 97.5q0 62 -33.5 99.5t-89.5 37.5zM262 494q-63 0 -101.5 35.5t-45.5 92.5l79 12q12 -64 68 -64q54 0 66 64l80 -12q-7 -57 -45.5 -92.5t-100.5 -35.5z" />
    <glyph glyph-name="gcircumflex.alt" horiz-adv-x="566" 
d="M114 498l143 204h10l143 -204h-86l-65 84l-66 -84h-79zM44 -112l71 51q52 -81 140 -81q125 0 125 135v83q-44 -84 -147 -84q-82 0 -139 62.5t-57 156.5t56.5 156t138.5 62q104 0 151 -89v80h152v-78h-54v-339q0 -116 -61 -171t-161 -55q-141 0 -215 111zM260 346
q-54 0 -86 -37.5t-32 -99.5q0 -60 32 -97.5t86 -37.5q55 0 89 37.5t34 97.5q0 62 -33.5 99.5t-89.5 37.5z" />
    <glyph glyph-name="gcommaaccent.alt" horiz-adv-x="566" 
d="M320 727l-31 -98q15 -6 25.5 -22t10.5 -36q0 -27 -19 -45t-45 -18q-25 0 -44.5 18.5t-19.5 44.5q0 28 19 60l52 96h52zM44 -112l71 51q52 -81 140 -81q125 0 125 135v83q-44 -84 -147 -84q-82 0 -139 62.5t-57 156.5t56.5 156t138.5 62q104 0 151 -89v80h152v-78h-54
v-339q0 -116 -61 -171t-161 -55q-141 0 -215 111zM260 346q-54 0 -86 -37.5t-32 -99.5q0 -60 32 -97.5t86 -37.5q55 0 89 37.5t34 97.5q0 62 -33.5 99.5t-89.5 37.5z" />
    <glyph glyph-name="gdotaccent.alt" horiz-adv-x="566" 
d="M44 -112l71 51q52 -81 140 -81q125 0 125 135v83q-44 -84 -147 -84q-82 0 -139 62.5t-57 156.5t56.5 156t138.5 62q104 0 151 -89v80h152v-78h-54v-339q0 -116 -61 -171t-161 -55q-141 0 -215 111zM260 346q-54 0 -86 -37.5t-32 -99.5q0 -60 32 -97.5t86 -37.5
q55 0 89 37.5t34 97.5q0 62 -33.5 99.5t-89.5 37.5zM262 511q-25 0 -43.5 17.5t-18.5 43.5q0 25 19 43t43 18t42 -18t18 -43q0 -26 -18 -43.5t-42 -17.5z" />
    <glyph glyph-name="f_b.alt" horiz-adv-x="851" 
d="M471 551v-204q49 82 148 82q82 0 138 -62t56 -156t-57 -156.5t-139 -62.5q-106 0 -149 84v-76h-155v75h57v476q0 51 -25.5 77t-65.5 26t-65.5 -26.5t-25.5 -76.5v-131h98v-78h-98v-267h57v-75h-212v75h54v267h-65v78h65v124q0 93 55 142t137 49q83 0 137.5 -45.5
t54.5 -138.5zM590 74q54 0 86 37.5t32 99.5q0 60 -32 97.5t-86 37.5q-55 0 -89 -37.5t-34 -97.5q0 -62 33.5 -99.5t89.5 -37.5z" />
    <glyph glyph-name="f_f_b.alt" horiz-adv-x="1136" 
d="M755 552v-205q49 82 148 82q82 0 138 -62t56 -156t-57 -156.5t-139 -62.5q-52 0 -90.5 22.5t-57.5 61.5v-76h-156v75h57v476q0 51 -25.5 77t-64.5 26q-40 0 -66 -26.5t-26 -76.5v-131h98v-78h-98v-267h55v-75h-213v75h57v267h-183v-267h57v-75h-212v75h54v267h-65v78h65
v146q0 74 35 111.5t100 37.5q58 0 99 -43l-43 -63q-18 22 -43 22q-47 0 -47 -61v-150h183v124q0 93 55.5 142t137.5 49t136.5 -45.5t54.5 -137.5zM874 74q54 0 86 37.5t32 99.5q0 60 -32 97.5t-86 37.5q-55 0 -88.5 -37.5t-33.5 -97.5q0 -62 33.5 -99.5t88.5 -37.5z" />
    <glyph glyph-name="f_f_f_l.alt" horiz-adv-x="1124" 
d="M655 342h-183v-267h55v-75h-213v75h57v267h-183v-267h57v-75h-212v75h54v267h-65v78h65v146q0 74 35 111.5t100 37.5q58 0 99 -43l-43 -63q-18 22 -43 22q-47 0 -47 -61v-150h183v156q0 74 35 111.5t100 37.5q59 0 100 -43l-44 -63q-18 22 -43 22q-47 0 -47 -61v-160h183
v124q0 93 55.5 142t137.5 49q83 0 137 -45.5t54 -138.5v-476h55v-75h-213v75h57v476q0 51 -25.5 77t-64.5 26q-40 0 -66 -26.5t-26 -76.5v-131h99v-78h-99v-267h55v-75h-213v75h57v267z" />
    <glyph glyph-name="f_f_h.alt" horiz-adv-x="1133" 
d="M755 552v-207q44 84 140 84q71 0 114.5 -48t43.5 -132v-174h52v-75h-207v75h53v170q0 100 -87 100q-50 0 -79.5 -29.5t-29.5 -83.5v-157h54v-75h-212v75h57v476q0 51 -25.5 77t-64.5 26q-40 0 -66 -26.5t-26 -76.5v-131h98v-78h-98v-267h56v-75h-214v75h57v267h-183v-267
h57v-75h-212v75h54v267h-65v78h65v146q0 74 35 111.5t100 37.5q58 0 99 -43l-43 -63q-18 22 -43 22q-47 0 -47 -61v-150h183v124q0 93 55.5 142t137.5 49t136.5 -45.5t54.5 -137.5z" />
    <glyph glyph-name="f_f_k.alt" horiz-adv-x="1100" 
d="M654 75v476q0 51 -25.5 77t-64.5 26q-40 0 -66 -26.5t-26 -76.5v-131h98v-78h-98v-267h55v-75h-213v75h57v267h-183v-267h57v-75h-212v75h54v267h-65v78h65v146q0 74 35 111.5t100 37.5q58 0 99 -43l-43 -63q-18 22 -43 22q-47 0 -47 -61v-150h183v124q0 93 55.5 142
t137.5 49t136.5 -45.5t54.5 -137.5v-275q0 -46 -4 -70l152 138h-52v75h204v-78h-58l-101 -94l132 -173h53v-75h-211v74h42l-90 116l-67 -57v-58h50v-75h-208v75h57z" />
    <glyph glyph-name="ffl.alt" horiz-adv-x="843" 
d="M371 342h-183v-267h57v-75h-212v75h54v267h-65v78h65v146q0 74 35 111.5t100 37.5q58 0 99 -43l-43 -63q-18 22 -43 22q-47 0 -47 -61v-150h183v124q0 93 55.5 142t137.5 49q83 0 137 -45.5t54 -138.5v-476h58v-75h-216v75h57v476q0 51 -25.5 77t-64.5 26
q-40 0 -66 -26.5t-26 -76.5v-131h98v-78h-98v-267h55v-75h-213v75h57v267z" />
    <glyph glyph-name="f_h.alt" horiz-adv-x="849" 
d="M471 551v-206q42 84 140 84q71 0 114 -48t43 -132v-174h52v-75h-206v75h53v170q0 100 -88 100q-50 0 -79 -29.5t-29 -83.5v-157h54v-75h-212v75h57v476q0 51 -25.5 77t-65.5 26t-65.5 -26.5t-25.5 -76.5v-131h98v-78h-98v-267h57v-75h-212v75h54v267h-65v78h65v124
q0 93 55 142t137 49q83 0 137.5 -45.5t54.5 -138.5z" />
    <glyph glyph-name="f_k.alt" horiz-adv-x="816" 
d="M471 551v-274q0 -46 -4 -70l152 138h-53v75h205v-78h-58l-101 -94l132 -173h53v-75h-211v74h42l-90 116l-67 -57v-58h50v-75h-208v75h57v476q0 51 -25.5 77t-65.5 26t-65.5 -26.5t-25.5 -76.5v-131h98v-78h-98v-267h57v-75h-212v75h54v267h-65v78h65v124q0 93 55 142
t137 49q83 0 137.5 -45.5t54.5 -138.5z" />
    <glyph glyph-name="fl.alt" horiz-adv-x="557" 
d="M471 75h56v-75h-215v75h58v476q0 51 -25.5 77t-65.5 26t-65.5 -26.5t-25.5 -76.5v-131h98v-78h-98v-267h57v-75h-212v75h54v267h-65v78h65v124q0 93 55 142t137 49q83 0 137.5 -45.5t54.5 -138.5v-476z" />
    <glyph glyph-name="space.up" horiz-adv-x="235" 
 />
    <glyph glyph-name="hyphen.up" horiz-adv-x="320" 
d="M44 223v91h231v-91h-231z" />
    <glyph glyph-name="endash.up" horiz-adv-x="468" 
d="M44 237v77h380v-77h-380z" />
    <glyph glyph-name="emdash.up" horiz-adv-x="734" 
d="M44 237v77h646v-77h-646z" />
    <glyph glyph-name="guilsinglleft.up" horiz-adv-x="262" 
d="M130 88l-95 163v8l95 161h97l-97 -165l97 -167h-97z" />
    <glyph glyph-name="guilsinglright.up" horiz-adv-x="264" 
d="M37 88l97 165l-97 167h97l94 -163v-8l-94 -161h-97z" />
    <glyph glyph-name="guillemotleft.up" horiz-adv-x="448" 
d="M313 88l-94 163v8l94 161h98l-97 -165l97 -167h-98zM131 88l-94 163v8l94 161h97l-97 -165l97 -167h-97z" />
    <glyph glyph-name="guillemotright.up" horiz-adv-x="448" 
d="M219 88l97 165l-97 167h98l94 -163v-8l-94 -161h-98zM37 88l97 165l-97 167h98l94 -163v-8l-94 -161h-98z" />
    <glyph glyph-name="exclamdown.up" horiz-adv-x="272" 
d="M135 687q28 0 48.5 -20t20.5 -49t-20.5 -49t-48.5 -20t-48 20t-20 49t20 49t48 20zM176 470l16 -470h-113l17 470h80z" />
    <glyph glyph-name="questiondown.up" horiz-adv-x="500" 
d="M321 472v-163h-38q-63 0 -96.5 -34t-33.5 -86q0 -49 29.5 -81t77.5 -32q46 0 74.5 20t49.5 63l81 -46q-52 -121 -205 -121q-95 0 -152 56t-57 141q0 80 47 131.5t128 60.5v91h95zM274 687q28 0 48.5 -20t20.5 -49t-20.5 -49t-48.5 -20t-47.5 19.5t-19.5 49.5t19.5 49.5
t47.5 19.5z" />
    <glyph glyph-name="copyright.up" horiz-adv-x="790" 
d="M396 -6q-143 0 -246 99.5t-103 246.5q0 148 103 248t246 100t244.5 -99.5t101.5 -248.5q0 -147 -102 -246.5t-244 -99.5zM396 45q123 0 207.5 83t84.5 213q0 131 -84.5 214t-207.5 83q-125 0 -209.5 -83t-84.5 -214q0 -130 85 -213t209 -83zM552 397h-65q-22 65 -88 65
q-51 0 -81.5 -34.5t-30.5 -89.5q0 -58 31.5 -92.5t84.5 -34.5q59 0 99 46l58 -49q-58 -69 -162 -69q-90 0 -147 55t-57 143t57 142.5t132 54.5q72 0 103 -45l8 40h58v-132z" />
    <glyph glyph-name="at.up" horiz-adv-x="908" 
d="M461 -115q-182 0 -298.5 107.5t-116.5 291.5q0 119 57.5 212.5t151.5 142.5t205 49q178 0 290 -102t112 -269q0 -111 -47.5 -172.5t-123.5 -61.5q-106 0 -125 99q-36 -99 -141 -99q-74 0 -124.5 54.5t-50.5 139.5t50.5 141.5t124.5 56.5q88 0 125 -74l9 64h82v-237
q0 -78 54 -78q41 0 65 43t24 124q0 140 -87.5 222t-236.5 82q-146 0 -238 -95.5t-92 -241.5q0 -147 88 -239t242 -92q89 0 165 37l30 -65q-84 -40 -194 -40zM451 162q40 0 66.5 33.5t26.5 81.5q0 49 -26.5 83t-66.5 34q-43 0 -70 -33t-27 -84q0 -50 27 -82.5t70 -32.5z" />
    <glyph glyph-name="A.sc" horiz-adv-x="587" 
d="M165 513h262v-77h-48l133 -361h52v-75h-209v75h53l-22 63h-194l-22 -63h47v-75h-194v75h57l136 361h-51v77zM263 336l-46 -128h144l-44 128q-24 68 -27 91q-6 -25 -27 -91z" />
    <glyph glyph-name="B.sc" horiz-adv-x="538" 
d="M208 78h104q38 0 59 21.5t21 56.5q0 34 -21.5 56t-58.5 22h-104v-156zM208 302h95q30 0 47 17.5t17 48.5q0 30 -18 47.5t-50 17.5h-91v-131zM53 513h258q73 0 113.5 -38t40.5 -94q0 -82 -78 -107q106 -27 106 -131q0 -66 -45.5 -104.5t-125.5 -38.5h-269v75h56v361h-56
v77z" />
    <glyph glyph-name="C.sc" horiz-adv-x="574" 
d="M521 334h-74q-8 48 -47 76.5t-92 28.5q-72 0 -116 -52t-44 -133q0 -77 44.5 -128t118.5 -51q94 0 147 82l78 -45q-71 -120 -226 -120q-119 0 -193.5 74t-74.5 189q0 118 73.5 192t182.5 74q105 0 147 -56l8 48h68v-179z" />
    <glyph glyph-name="D.sc" horiz-adv-x="584" 
d="M271 0h-218v75h56v361h-56v77h218q120 0 195 -70.5t75 -186.5q0 -115 -75 -185.5t-195 -70.5zM210 79h54q87 0 130 47t43 130t-43 130t-130 47h-54v-354z" />
    <glyph glyph-name="E.sc" horiz-adv-x="523" 
d="M389 364l-14 69h-166v-136h183v-76h-183v-142h176l14 73h67v-152h-413v75h56v361h-56v77h403v-149h-67z" />
    <glyph glyph-name="F.sc" horiz-adv-x="493" 
d="M385 358l-16 75h-158v-153h178v-76h-178v-129h67v-75h-225v75h56v361h-56v77h399v-155h-67z" />
    <glyph glyph-name="G.sc" horiz-adv-x="592" 
d="M515 345h-74q-23 95 -128 95q-77 0 -122 -53t-45 -131q0 -84 48.5 -135t125.5 -51t115 40v79h-123v73h220v-262h-71l-10 40q-53 -48 -152 -48q-108 0 -182.5 72t-74.5 189q0 115 76.5 191.5t188.5 76.5q89 0 132 -54l7 46h69v-168z" />
    <glyph glyph-name="H.sc" horiz-adv-x="649" 
d="M109 436h-56v77h218v-77h-60v-141h226v141h-59v77h218v-77h-56v-361h56v-75h-218v75h59v143h-226v-143h60v-75h-218v75h56v361z" />
    <glyph glyph-name="I.sc" horiz-adv-x="320" 
d="M211 436v-361h56v-75h-214v75h56v361h-56v77h214v-77h-56z" />
    <glyph glyph-name="J.sc" horiz-adv-x="426" 
d="M396 436h-56v-287q0 -79 -43.5 -118t-116.5 -39q-122 0 -160 101l80 43q24 -63 77 -63q61 0 61 68v295h-72v77h230v-77z" />
    <glyph glyph-name="K.sc" horiz-adv-x="575" 
d="M53 0v75h56v361h-56v77h207v-75h-49v-108q0 -53 -9 -109q34 55 71 95l104 122h-44v75h197v-77h-51l-131 -149l147 -212h53v-75h-213v75h45l-100 143l-69 -74v-69h56v-75h-214z" />
    <glyph glyph-name="L.sc" horiz-adv-x="482" 
d="M361 79l14 83h68v-162h-390v75h56v361h-56v77h218v-77h-60v-357h150z" />
    <glyph glyph-name="M.sc" horiz-adv-x="726" 
d="M53 0v75h56v361h-56v77h146l163 -271l162 271h149v-77h-56v-361h56v-75h-210v75h55v194q0 77 7 109q-1 -1 -9.5 -17t-20 -36.5t-20.5 -35.5l-104 -169h-32l-102 168q-29 45 -50 93q0 -1 1.5 -20.5t3 -46t1.5 -45.5v-194h56v-75h-196z" />
    <glyph glyph-name="N.sc" horiz-adv-x="649" 
d="M450 256v180h-56v77h204v-77h-56v-436h-73l-215 287q-9 12 -18 24.5t-16 23t-12 19t-8 14.5l-4 5q0 -1 1 -19t2.5 -44.5t1.5 -46.5v-188h57v-75h-205v75h56v361h-56v77h144l204 -271q36 -50 54 -86q-5 10 -5 100z" />
    <glyph glyph-name="O.sc" horiz-adv-x="630" 
d="M315 -8q-116 0 -194.5 75t-78.5 189q0 115 78.5 190t194.5 75t194.5 -75t78.5 -190q0 -114 -78.5 -189t-194.5 -75zM315 76q74 0 121 50.5t47 129.5q0 80 -47 130.5t-121 50.5t-120.5 -50.5t-46.5 -130.5q0 -79 46.5 -129.5t120.5 -50.5z" />
    <glyph glyph-name="P.sc" horiz-adv-x="529" 
d="M211 249h70q104 0 104 93t-104 93h-70v-186zM53 513h231q96 0 151 -43.5t55 -128.5q0 -84 -55 -127.5t-151 -43.5h-73v-95h59v-75h-217v75h56v361h-56v77z" />
    <glyph glyph-name="Q.sc" horiz-adv-x="635" 
d="M308 -8q-111 0 -188.5 75.5t-77.5 188.5q0 114 79 189.5t194 75.5t194 -75.5t79 -189.5q0 -106 -81 -181l4 -4h96v-71h-146l-24 26q-50 -34 -129 -34zM312 166l66 55l75 -85q32 47 32 120q0 79 -48 130.5t-122 51.5t-121 -51t-47 -131q0 -79 47 -131.5t121 -52.5
q40 0 70 12z" />
    <glyph glyph-name="R.sc" horiz-adv-x="564" 
d="M53 513h233q96 0 151.5 -43.5t55.5 -126.5q0 -108 -106 -147l74 -121h64v-75h-134l-109 183h-71v-108h44v-75h-202v75h56v361h-56v77zM211 255h70q108 0 108 90q0 43 -27.5 66.5t-80.5 23.5h-70v-180z" />
    <glyph glyph-name="S.sc" horiz-adv-x="461" 
d="M47 0v156h64q16 -87 116 -87q42 0 64.5 17.5t22.5 46.5q0 28 -18.5 44t-71.5 37l-40 15q-62 24 -92.5 58t-30.5 92q0 62 43 102t105 40q70 1 109 -43l8 35h58v-141h-64q-15 71 -94 71q-35 0 -54 -15.5t-19 -40.5t17 -39.5t63 -32.5l38 -14q78 -29 109 -65t31 -93
q0 -69 -47.5 -110.5t-125.5 -41.5q-85 0 -124 52l-8 -43h-59z" />
    <glyph glyph-name="T.sc" horiz-adv-x="515" 
d="M399 433h-89v-358h57v-75h-215v75h56v358h-89l-13 -71h-67v151h441v-151h-67z" />
    <glyph glyph-name="U.sc" horiz-adv-x="605" 
d="M563 436h-56v-245q0 -98 -54 -148.5t-150 -50.5q-98 0 -151.5 50.5t-53.5 148.5v245h-56v77h216v-77h-57v-252q0 -54 27 -82.5t79 -28.5t80 29t28 82v252h-59v77h207v-77z" />
    <glyph glyph-name="V.sc" horiz-adv-x="558" 
d="M232 513v-77h-56l77 -208q5 -12 10.5 -32t10 -36.5t8 -31.5t3.5 -16q22 86 34 117l79 207h-57v77h194v-77h-46l-177 -436h-68l-175 436h-45v77h208z" />
    <glyph glyph-name="W.sc" horiz-adv-x="780" 
d="M756 513v-77h-45l-138 -436h-53l-94 248q-19 46 -36 114q0 -1 -3.5 -13t-7.5 -26.5t-11 -35.5t-15 -39l-95 -248h-50l-141 436h-43v77h203v-77h-57l53 -182q2 -7 23 -102q12 53 31 103l96 258h43l95 -258q17 -45 34 -104q12 61 24 104l53 181h-56v77h190z" />
    <glyph glyph-name="X.sc" horiz-adv-x="558" 
d="M312 75h49l-59 87q-26 34 -35 60q-23 -47 -33 -60l-56 -87h48v-75h-194v75h53l134 196l-116 165h-53v77h214v-77h-49l43 -63q8 -12 16.5 -27.5t12.5 -25.5l4 -9q14 34 31 59l42 66h-45v77h187v-77h-52l-112 -169l135 -192h49v-75h-214v75z" />
    <glyph glyph-name="Y.sc" horiz-adv-x="531" 
d="M509 513v-77h-51l-139 -242v-119h56v-75h-215v75h57v111l-144 250h-51v77h208v-77h-50l60 -108q9 -17 17 -35.5t12 -29t4 -11.5l1 5l5 12.5t6.5 16.5t9 20.5t11.5 21.5l60 108h-48v77h191z" />
    <glyph glyph-name="Z.sc" horiz-adv-x="493" 
d="M65 363v150h383v-45l-272 -390h192l12 81h67v-159h-406v45l272 390h-168l-12 -72h-68z" />
    <glyph glyph-name="Oslash.sc" horiz-adv-x="630" 
d="M315 -8q-95 0 -170 54l-58 -55l-49 51l57 54q-53 67 -53 160q0 115 78.5 190t194.5 75q98 0 170 -55l58 55l49 -51l-56 -53q52 -69 52 -161q0 -114 -78.5 -189t-194.5 -75zM145 256q0 -52 21 -93l253 240q-43 34 -104 34q-75 0 -122.5 -50.5t-47.5 -130.5zM315 76
q76 0 123.5 50.5t47.5 129.5q0 51 -22 93l-253 -240q44 -33 104 -33z" />
    <glyph glyph-name="AE.sc" horiz-adv-x="774" 
d="M640 364l-13 69h-162v-136h177v-76h-177v-142h172l13 73h68v-152h-402v75h49v63h-163l-37 -63h51v-75h-192v75h49l218 361h-52v77h469v-149h-68zM339 366l-94 -158h120v140q0 49 6 85q-17 -43 -32 -67z" />
    <glyph glyph-name="OE.sc" horiz-adv-x="778" 
d="M313 0q-120 0 -195.5 70.5t-75.5 185.5q0 116 75.5 186.5t195.5 70.5h398v-149h-67l-14 69h-159v-136h174v-76h-174v-142h169l14 73h67v-152h-408zM322 81h46v350h-46q-86 0 -130.5 -47.5t-44.5 -127.5t44.5 -127.5t130.5 -47.5z" />
    <glyph glyph-name="Eth.sc" horiz-adv-x="584" 
d="M56 293h53v143h-56v77h218q120 0 195 -70.5t75 -186.5q0 -115 -75 -185.5t-195 -70.5h-218v75h56v145h-53v73zM210 79h54q87 0 130 47t43 130t-43 130t-130 47h-54v-140h113v-73h-113v-141z" />
    <glyph glyph-name="Dcroat.sc" horiz-adv-x="584" 
d="M56 293h53v143h-56v77h218q120 0 195 -70.5t75 -186.5q0 -115 -75 -185.5t-195 -70.5h-218v75h56v145h-53v73zM210 79h54q87 0 130 47t43 130t-43 130t-130 47h-54v-140h113v-73h-113v-141z" />
    <glyph glyph-name="dotlessi.sc" horiz-adv-x="320" 
d="M211 436v-361h56v-75h-214v75h56v361h-56v77h214v-77h-56z" />
    <glyph glyph-name="Aacute.sc" horiz-adv-x="587" 
d="M165 513h262v-77h-48l133 -361h52v-75h-209v75h53l-22 63h-194l-22 -63h47v-75h-194v75h57l136 361h-51v77zM250 583l60 191h116l-98 -191h-78zM263 336l-46 -128h144l-44 128q-24 68 -27 91q-6 -25 -27 -91z" />
    <glyph glyph-name="Abreve.sc" horiz-adv-x="587" 
d="M165 513h262v-77h-48l133 -361h52v-75h-209v75h53l-22 63h-194l-22 -63h47v-75h-194v75h57l136 361h-51v77zM293 578q-63 0 -101.5 35.5t-45.5 92.5l79 12q12 -64 68 -64q54 0 66 64l80 -12q-7 -57 -45.5 -92.5t-100.5 -35.5zM263 336l-46 -128h144l-44 128
q-24 68 -27 91q-6 -25 -27 -91z" />
    <glyph glyph-name="Acircumflex.sc" horiz-adv-x="587" 
d="M165 513h262v-77h-48l133 -361h52v-75h-209v75h53l-22 63h-194l-22 -63h47v-75h-194v75h57l136 361h-51v77zM145 582l143 204h10l143 -204h-86l-65 84l-66 -84h-79zM263 336l-46 -128h144l-44 128q-24 68 -27 91q-6 -25 -27 -91z" />
    <glyph glyph-name="Adieresis.sc" horiz-adv-x="587" 
d="M165 513h262v-77h-48l133 -361h52v-75h-209v75h53l-22 63h-194l-22 -63h47v-75h-194v75h57l136 361h-51v77zM263 336l-46 -128h144l-44 128q-24 68 -27 91q-6 -25 -27 -91zM390 595q-24 0 -42.5 18t-18.5 43q0 24 18.5 42t42.5 18t42 -17.5t18 -42.5t-18 -43t-42 -18z
M195 595q-24 0 -42.5 18t-18.5 43q0 24 18.5 42t42.5 18t42 -17.5t18 -42.5t-18 -43t-42 -18z" />
    <glyph glyph-name="Agrave.sc" horiz-adv-x="587" 
d="M165 513h262v-77h-48l133 -361h52v-75h-209v75h53l-22 63h-194l-22 -63h47v-75h-194v75h57l136 361h-51v77zM257 583l-98 191h116l60 -191h-78zM263 336l-46 -128h144l-44 128q-24 68 -27 91q-6 -25 -27 -91z" />
    <glyph glyph-name="Amacron.sc" horiz-adv-x="587" 
d="M165 513h262v-77h-48l133 -361h52v-75h-209v75h53l-22 63h-194l-22 -63h47v-75h-194v75h57l136 361h-51v77zM179 604v77h227v-77h-227zM263 336l-46 -128h144l-44 128q-24 68 -27 91q-6 -25 -27 -91z" />
    <glyph glyph-name="Aogonek.sc" horiz-adv-x="587" 
d="M165 513h262v-77h-48l133 -361h52v-75h-48q-63 -86 -63 -117q0 -33 32 -33q22 0 37 25l55 -35q-33 -59 -104 -59q-44 0 -73 24t-29 70q0 49 68 125h-84v75h53l-22 63h-194l-22 -63h47v-75h-194v75h57l136 361h-51v77zM263 336l-46 -128h144l-44 128q-24 68 -27 91
q-6 -25 -27 -91z" />
    <glyph glyph-name="Aring.sc" horiz-adv-x="587" 
d="M165 513h262v-77h-48l133 -361h52v-75h-209v75h53l-22 63h-194l-22 -63h47v-75h-194v75h57l136 361h-51v77zM293 563q-49 0 -83 32t-34 77q0 46 34 78t83 32t82.5 -32t33.5 -78q0 -45 -34 -77t-82 -32zM263 336l-46 -128h144l-44 128q-24 68 -27 91q-6 -25 -27 -91z
M293 617q23 0 37.5 15t14.5 40q0 26 -14.5 40.5t-37.5 14.5q-24 0 -38.5 -14.5t-14.5 -40.5q0 -25 14.5 -40t38.5 -15z" />
    <glyph glyph-name="Atilde.sc" horiz-adv-x="587" 
d="M165 513h262v-77h-48l133 -361h52v-75h-209v75h53l-22 63h-194l-22 -63h47v-75h-194v75h57l136 361h-51v77zM205 580l-71 7q4 60 31 92.5t68 32.5q34 0 67 -26q36 -27 48 -27q27 0 31 52l72 -7q-4 -60 -30.5 -92.5t-68.5 -32.5q-33 0 -67 27q-4 3 -11 8t-9 7t-7 5t-7.5 4
t-6 2t-7.5 1q-26 0 -32 -53zM263 336l-46 -128h144l-44 128q-24 68 -27 91q-6 -25 -27 -91z" />
    <glyph glyph-name="Cacute.sc" horiz-adv-x="574" 
d="M247 583l60 191h116l-98 -191h-78zM521 334h-74q-8 48 -47 76.5t-92 28.5q-72 0 -116 -52t-44 -133q0 -77 44.5 -128t118.5 -51q94 0 147 82l78 -45q-71 -120 -226 -120q-119 0 -193.5 74t-74.5 189q0 118 73.5 192t182.5 74q105 0 147 -56l8 48h68v-179z" />
    <glyph glyph-name="Ccaron.sc" horiz-adv-x="574" 
d="M293 569l-143 204h88l64 -84l67 84h77l-143 -204h-10zM521 334h-74q-8 48 -47 76.5t-92 28.5q-72 0 -116 -52t-44 -133q0 -77 44.5 -128t118.5 -51q94 0 147 82l78 -45q-71 -120 -226 -120q-119 0 -193.5 74t-74.5 189q0 118 73.5 192t182.5 74q105 0 147 -56l8 48h68
v-179z" />
    <glyph glyph-name="Ccedilla.sc" horiz-adv-x="574" 
d="M301 -236q-76 0 -110 60l53 32q16 -33 49 -33q40 0 40 39q0 18 -12.5 29t-34.5 11h-28v95q-98 16 -157 86.5t-59 171.5q0 118 73.5 192t182.5 74q105 0 147 -56l8 48h68v-179h-74q-8 48 -47 76.5t-92 28.5q-72 0 -116 -52t-44 -133q0 -77 44.5 -128t118.5 -51
q94 0 147 82l78 -45q-68 -117 -219 -120v-38q37 -6 61.5 -31.5t24.5 -66.5t-30.5 -66.5t-71.5 -25.5z" />
    <glyph glyph-name="Ccircumflex.sc" horiz-adv-x="574" 
d="M163 582l143 204h10l143 -204h-86l-65 84l-66 -84h-79zM521 334h-74q-8 48 -47 76.5t-92 28.5q-72 0 -116 -52t-44 -133q0 -77 44.5 -128t118.5 -51q94 0 147 82l78 -45q-71 -120 -226 -120q-119 0 -193.5 74t-74.5 189q0 118 73.5 192t182.5 74q105 0 147 -56l8 48h68
v-179z" />
    <glyph glyph-name="Cdotaccent.sc" horiz-adv-x="574" 
d="M521 334h-74q-8 48 -47 76.5t-92 28.5q-72 0 -116 -52t-44 -133q0 -77 44.5 -128t118.5 -51q94 0 147 82l78 -45q-71 -120 -226 -120q-119 0 -193.5 74t-74.5 189q0 118 73.5 192t182.5 74q105 0 147 -56l8 48h68v-179zM311 595q-25 0 -43.5 17.5t-18.5 43.5q0 25 19 43
t43 18t42 -18t18 -43q0 -26 -18 -43.5t-42 -17.5z" />
    <glyph glyph-name="Dcaron.sc" horiz-adv-x="584" 
d="M271 0h-218v75h56v361h-56v77h218q120 0 195 -70.5t75 -186.5q0 -115 -75 -185.5t-195 -70.5zM210 79h54q87 0 130 47t43 130t-43 130t-130 47h-54v-354zM263 569l-143 204h88l64 -84l67 84h77l-143 -204h-10z" />
    <glyph glyph-name="Eacute.sc" horiz-adv-x="523" 
d="M389 364l-14 69h-166v-136h183v-76h-183v-142h176l14 73h67v-152h-413v75h56v361h-56v77h403v-149h-67zM240 583l60 191h116l-98 -191h-78z" />
    <glyph glyph-name="Ebreve.sc" horiz-adv-x="523" 
d="M389 364l-14 69h-166v-136h183v-76h-183v-142h176l14 73h67v-152h-413v75h56v361h-56v77h403v-149h-67zM268 578q-63 0 -101.5 35.5t-45.5 92.5l79 12q12 -64 68 -64q54 0 66 64l80 -12q-7 -57 -45.5 -92.5t-100.5 -35.5z" />
    <glyph glyph-name="Ecaron.sc" horiz-adv-x="523" 
d="M278 569l-143 204h88l64 -84l67 84h77l-143 -204h-10zM389 364l-14 69h-166v-136h183v-76h-183v-142h176l14 73h67v-152h-413v75h56v361h-56v77h403v-149h-67z" />
    <glyph glyph-name="Ecircumflex.sc" horiz-adv-x="523" 
d="M135 582l143 204h10l143 -204h-86l-65 84l-66 -84h-79zM389 364l-14 69h-166v-136h183v-76h-183v-142h176l14 73h67v-152h-413v75h56v361h-56v77h403v-149h-67z" />
    <glyph glyph-name="Edieresis.sc" horiz-adv-x="523" 
d="M380 595q-24 0 -42.5 18t-18.5 43q0 24 18.5 42t42.5 18t42 -17.5t18 -42.5t-18 -43t-42 -18zM185 595q-24 0 -42.5 18t-18.5 43q0 24 18.5 42t42.5 18t42 -17.5t18 -42.5t-18 -43t-42 -18zM389 364l-14 69h-166v-136h183v-76h-183v-142h176l14 73h67v-152h-413v75h56
v361h-56v77h403v-149h-67z" />
    <glyph glyph-name="Edotaccent.sc" horiz-adv-x="523" 
d="M389 364l-14 69h-166v-136h183v-76h-183v-142h176l14 73h67v-152h-413v75h56v361h-56v77h403v-149h-67zM283 595q-25 0 -43.5 17.5t-18.5 43.5q0 25 19 43t43 18t42 -18t18 -43q0 -26 -18 -43.5t-42 -17.5z" />
    <glyph glyph-name="Egrave.sc" horiz-adv-x="523" 
d="M389 364l-14 69h-166v-136h183v-76h-183v-142h176l14 73h67v-152h-413v75h56v361h-56v77h403v-149h-67zM247 583l-98 191h116l60 -191h-78z" />
    <glyph glyph-name="Emacron.sc" horiz-adv-x="523" 
d="M389 364l-14 69h-166v-136h183v-76h-183v-142h176l14 73h67v-152h-413v75h56v361h-56v77h403v-149h-67zM169 604v77h227v-77h-227z" />
    <glyph glyph-name="Eogonek.sc" horiz-adv-x="523" 
d="M376 -219q-44 0 -73 24t-29 70q0 49 68 125h-289v75h56v361h-56v77h403v-149h-67l-14 69h-166v-136h183v-76h-183v-142h176l14 73h67v-152h-47q-63 -86 -63 -117q0 -33 32 -33q22 0 37 25l55 -35q-33 -59 -104 -59z" />
    <glyph glyph-name="Gbreve.sc" horiz-adv-x="592" 
d="M515 345h-74q-23 95 -128 95q-77 0 -122 -53t-45 -131q0 -84 48.5 -135t125.5 -51t115 40v79h-123v73h220v-262h-71l-10 40q-53 -48 -152 -48q-108 0 -182.5 72t-74.5 189q0 115 76.5 191.5t188.5 76.5q89 0 132 -54l7 46h69v-168zM305 578q-63 0 -101.5 35.5t-45.5 92.5
l79 12q12 -64 68 -64q54 0 66 64l80 -12q-7 -57 -45.5 -92.5t-100.5 -35.5z" />
    <glyph glyph-name="Gcircumflex.sc" horiz-adv-x="592" 
d="M162 582l143 204h10l143 -204h-86l-65 84l-66 -84h-79zM515 345h-74q-23 95 -128 95q-77 0 -122 -53t-45 -131q0 -84 48.5 -135t125.5 -51t115 40v79h-123v73h220v-262h-71l-10 40q-53 -48 -152 -48q-108 0 -182.5 72t-74.5 189q0 115 76.5 191.5t188.5 76.5
q89 0 132 -54l7 46h69v-168z" />
    <glyph glyph-name="Gcommaaccent.sc" horiz-adv-x="592" 
d="M246 -269l31 98q-15 6 -25.5 22t-10.5 36q0 27 19 45t45 18q25 0 44.5 -18.5t19.5 -44.5q0 -28 -19 -60l-52 -96h-52zM515 345h-74q-23 95 -128 95q-77 0 -122 -53t-45 -131q0 -84 48.5 -135t125.5 -51t115 40v79h-123v73h220v-262h-71l-10 40q-53 -48 -152 -48
q-108 0 -182.5 72t-74.5 189q0 115 76.5 191.5t188.5 76.5q89 0 132 -54l7 46h69v-168z" />
    <glyph glyph-name="Gdotaccent.sc" horiz-adv-x="592" 
d="M302 595q-25 0 -43.5 17.5t-18.5 43.5q0 25 19 43t43 18t42 -18t18 -43q0 -26 -18 -43.5t-42 -17.5zM515 345h-74q-23 95 -128 95q-77 0 -122 -53t-45 -131q0 -84 48.5 -135t125.5 -51t115 40v79h-123v73h220v-262h-71l-10 40q-53 -48 -152 -48q-108 0 -182.5 72
t-74.5 189q0 115 76.5 191.5t188.5 76.5q89 0 132 -54l7 46h69v-168z" />
    <glyph glyph-name="Hbar.sc" horiz-adv-x="649" 
d="M53 0v75h56v259h-56v52h56v50h-56v77h218v-77h-60v-50h226v50h-59v77h218v-77h-56v-50h56v-52h-56v-259h56v-75h-218v75h59v135h-226v-135h60v-75h-218zM211 282h226v52h-226v-52z" />
    <glyph glyph-name="Hcircumflex.sc" horiz-adv-x="649" 
d="M176 582l143 204h10l143 -204h-86l-65 84l-66 -84h-79zM109 436h-56v77h218v-77h-60v-141h226v141h-59v77h218v-77h-56v-361h56v-75h-218v75h59v143h-226v-143h60v-75h-218v75h56v361z" />
    <glyph glyph-name="Iacute.sc" horiz-adv-x="320" 
d="M118 583l60 191h116l-98 -191h-78zM211 436v-361h56v-75h-214v75h56v361h-56v77h214v-77h-56z" />
    <glyph glyph-name="Icircumflex.sc" horiz-adv-x="320" 
d="M13 582l143 204h10l143 -204h-86l-65 84l-66 -84h-79zM211 436v-361h56v-75h-214v75h56v361h-56v77h214v-77h-56z" />
    <glyph glyph-name="Idieresis.sc" horiz-adv-x="320" 
d="M258 595q-24 0 -42.5 18t-18.5 43q0 24 18.5 42t42.5 18t42 -17.5t18 -42.5t-18 -43t-42 -18zM63 595q-24 0 -42.5 18t-18.5 43q0 24 18.5 42t42.5 18t42 -17.5t18 -42.5t-18 -43t-42 -18zM211 436v-361h56v-75h-214v75h56v361h-56v77h214v-77h-56z" />
    <glyph glyph-name="Idotaccent.sc" horiz-adv-x="320" 
d="M211 436v-361h56v-75h-214v75h56v361h-56v77h214v-77h-56zM161 595q-25 0 -43.5 17.5t-18.5 43.5q0 25 19 43t43 18t42 -18t18 -43q0 -26 -18 -43.5t-42 -17.5z" />
    <glyph glyph-name="Igrave.sc" horiz-adv-x="320" 
d="M211 436v-361h56v-75h-214v75h56v361h-56v77h214v-77h-56zM125 583l-98 191h116l60 -191h-78z" />
    <glyph glyph-name="Imacron.sc" horiz-adv-x="320" 
d="M47 604v77h227v-77h-227zM211 436v-361h56v-75h-214v75h56v361h-56v77h214v-77h-56z" />
    <glyph glyph-name="Iogonek.sc" horiz-adv-x="320" 
d="M211 436v-361h56v-75h-57q-58 -84 -58 -117t32 -33q24 0 37 25l55 -35q-31 -59 -103 -59q-45 0 -74 24t-29 70q0 48 63 125h-80v75h56v361h-56v77h214v-77h-56z" />
    <glyph glyph-name="Jcircumflex.sc" horiz-adv-x="426" 
d="M140 582l143 204h10l143 -204h-86l-65 84l-66 -84h-79zM396 436h-56v-287q0 -79 -43.5 -118t-116.5 -39q-122 0 -160 101l80 43q24 -63 77 -63q61 0 61 68v295h-72v77h230v-77z" />
    <glyph glyph-name="Kcommaaccent.sc" horiz-adv-x="575" 
d="M53 0v75h56v361h-56v77h207v-75h-49v-108q0 -53 -9 -109q34 55 71 95l104 122h-44v75h197v-77h-51l-131 -149l147 -212h53v-75h-213v75h45l-100 143l-69 -74v-69h56v-75h-214zM238 -269l31 98q-15 6 -25.5 22t-10.5 36q0 27 19 45t45 18q25 0 44.5 -18.5t19.5 -44.5
q0 -28 -19 -60l-52 -96h-52z" />
    <glyph glyph-name="Lacute.sc" horiz-adv-x="482" 
d="M361 79l14 83h68v-162h-390v75h56v361h-56v77h218v-77h-60v-357h150zM126 583l60 191h116l-98 -191h-78z" />
    <glyph glyph-name="Lcaron.sc" horiz-adv-x="482" 
d="M348 305l34 100q-37 17 -37 59q0 26 19 44.5t44 18.5q26 0 45 -17.5t19 -43.5q0 -25 -21 -61l-52 -100h-51zM361 79l14 83h68v-162h-390v75h56v361h-56v77h218v-77h-60v-357h150z" />
    <glyph glyph-name="Lcommaaccent.sc" horiz-adv-x="482" 
d="M361 79l14 83h68v-162h-390v75h56v361h-56v77h218v-77h-60v-357h150zM189 -269l31 98q-15 6 -25.5 22t-10.5 36q0 27 19 45t45 18q25 0 44.5 -18.5t19.5 -44.5q0 -28 -19 -60l-52 -96h-52z" />
    <glyph glyph-name="Lslash.sc" horiz-adv-x="482" 
d="M361 79l14 83h68v-162h-390v75h56v110l-64 -23v69l64 23v182h-56v77h218v-77h-60v-146l141 51v-69l-141 -51v-142h150z" />
    <glyph glyph-name="Nacute.sc" horiz-adv-x="649" 
d="M282 583l60 191h116l-98 -191h-78zM450 256v180h-56v77h204v-77h-56v-436h-73l-215 287q-9 12 -18 24.5t-16 23t-12 19t-8 14.5l-4 5q0 -1 1 -19t2.5 -44.5t1.5 -46.5v-188h57v-75h-205v75h56v361h-56v77h144l204 -271q36 -50 54 -86q-5 10 -5 100z" />
    <glyph glyph-name="Ncaron.sc" horiz-adv-x="649" 
d="M320 569l-143 204h88l64 -84l67 84h77l-143 -204h-10zM450 256v180h-56v77h204v-77h-56v-436h-73l-215 287q-9 12 -18 24.5t-16 23t-12 19t-8 14.5l-4 5q0 -1 1 -19t2.5 -44.5t1.5 -46.5v-188h57v-75h-205v75h56v361h-56v77h144l204 -271q36 -50 54 -86q-5 10 -5 100z
" />
    <glyph glyph-name="Ncommaaccent.sc" horiz-adv-x="649" 
d="M265 -269l31 98q-15 6 -25.5 22t-10.5 36q0 27 19 45t45 18q25 0 44.5 -18.5t19.5 -44.5q0 -28 -19 -60l-52 -96h-52zM450 256v180h-56v77h204v-77h-56v-436h-73l-215 287q-9 12 -18 24.5t-16 23t-12 19t-8 14.5l-4 5q0 -1 1 -19t2.5 -44.5t1.5 -46.5v-188h57v-75h-205
v75h56v361h-56v77h144l204 -271q36 -50 54 -86q-5 10 -5 100z" />
    <glyph glyph-name="Ntilde.sc" horiz-adv-x="649" 
d="M450 256v180h-56v77h204v-77h-56v-436h-73l-215 287q-9 12 -18 24.5t-16 23t-12 19t-8 14.5l-4 5q0 -1 1 -19t2.5 -44.5t1.5 -46.5v-188h57v-75h-205v75h56v361h-56v77h144l204 -271q36 -50 54 -86q-5 10 -5 100zM237 580l-71 7q4 60 31 92.5t68 32.5q34 0 67 -26
q36 -27 48 -27q27 0 31 52l72 -7q-4 -60 -30.5 -92.5t-68.5 -32.5q-33 0 -67 27q-4 3 -11 8t-9 7t-7 5t-7.5 4t-6 2t-7.5 1q-26 0 -32 -53z" />
    <glyph glyph-name="Oacute.sc" horiz-adv-x="630" 
d="M272 583l60 191h116l-98 -191h-78zM315 -8q-116 0 -194.5 75t-78.5 189q0 115 78.5 190t194.5 75t194.5 -75t78.5 -190q0 -114 -78.5 -189t-194.5 -75zM315 76q74 0 121 50.5t47 129.5q0 80 -47 130.5t-121 50.5t-120.5 -50.5t-46.5 -130.5q0 -79 46.5 -129.5
t120.5 -50.5z" />
    <glyph glyph-name="Ocircumflex.sc" horiz-adv-x="630" 
d="M167 582l143 204h10l143 -204h-86l-65 84l-66 -84h-79zM315 -8q-116 0 -194.5 75t-78.5 189q0 115 78.5 190t194.5 75t194.5 -75t78.5 -190q0 -114 -78.5 -189t-194.5 -75zM315 76q74 0 121 50.5t47 129.5q0 80 -47 130.5t-121 50.5t-120.5 -50.5t-46.5 -130.5
q0 -79 46.5 -129.5t120.5 -50.5z" />
    <glyph glyph-name="Odieresis.sc" horiz-adv-x="630" 
d="M412 595q-24 0 -42.5 18t-18.5 43q0 24 18.5 42t42.5 18t42 -17.5t18 -42.5t-18 -43t-42 -18zM217 595q-24 0 -42.5 18t-18.5 43q0 24 18.5 42t42.5 18t42 -17.5t18 -42.5t-18 -43t-42 -18zM315 -8q-116 0 -194.5 75t-78.5 189q0 115 78.5 190t194.5 75t194.5 -75
t78.5 -190q0 -114 -78.5 -189t-194.5 -75zM315 76q74 0 121 50.5t47 129.5q0 80 -47 130.5t-121 50.5t-120.5 -50.5t-46.5 -130.5q0 -79 46.5 -129.5t120.5 -50.5z" />
    <glyph glyph-name="Ograve.sc" horiz-adv-x="630" 
d="M278 583l-98 191h116l60 -191h-78zM315 -8q-116 0 -194.5 75t-78.5 189q0 115 78.5 190t194.5 75t194.5 -75t78.5 -190q0 -114 -78.5 -189t-194.5 -75zM315 76q74 0 121 50.5t47 129.5q0 80 -47 130.5t-121 50.5t-120.5 -50.5t-46.5 -130.5q0 -79 46.5 -129.5
t120.5 -50.5z" />
    <glyph glyph-name="Ohungarumlaut.sc" horiz-adv-x="630" 
d="M351 583l59 191h107l-88 -191h-78zM190 583l59 191h107l-89 -191h-77zM315 -8q-116 0 -194.5 75t-78.5 189q0 115 78.5 190t194.5 75t194.5 -75t78.5 -190q0 -114 -78.5 -189t-194.5 -75zM315 76q74 0 121 50.5t47 129.5q0 80 -47 130.5t-121 50.5t-120.5 -50.5
t-46.5 -130.5q0 -79 46.5 -129.5t120.5 -50.5z" />
    <glyph glyph-name="Omacron.sc" horiz-adv-x="630" 
d="M201 604v77h227v-77h-227zM315 -8q-116 0 -194.5 75t-78.5 189q0 115 78.5 190t194.5 75t194.5 -75t78.5 -190q0 -114 -78.5 -189t-194.5 -75zM315 76q74 0 121 50.5t47 129.5q0 80 -47 130.5t-121 50.5t-120.5 -50.5t-46.5 -130.5q0 -79 46.5 -129.5t120.5 -50.5z" />
    <glyph glyph-name="Otilde.sc" horiz-adv-x="630" 
d="M315 -8q-116 0 -194.5 75t-78.5 189q0 115 78.5 190t194.5 75t194.5 -75t78.5 -190q0 -114 -78.5 -189t-194.5 -75zM315 76q74 0 121 50.5t47 129.5q0 80 -47 130.5t-121 50.5t-120.5 -50.5t-46.5 -130.5q0 -79 46.5 -129.5t120.5 -50.5zM227 580l-71 7q4 60 31 92.5
t68 32.5q34 0 67 -26q36 -27 48 -27q27 0 31 52l72 -7q-4 -60 -30.5 -92.5t-68.5 -32.5q-33 0 -67 27q-4 3 -11 8t-9 7t-7 5t-7.5 4t-6 2t-7.5 1q-26 0 -32 -53z" />
    <glyph glyph-name="Racute.sc" horiz-adv-x="564" 
d="M53 513h233q96 0 151.5 -43.5t55.5 -126.5q0 -108 -106 -147l74 -121h64v-75h-134l-109 183h-71v-108h44v-75h-202v75h56v361h-56v77zM211 255h70q108 0 108 90q0 43 -27.5 66.5t-80.5 23.5h-70v-180zM231 583l60 191h116l-98 -191h-78z" />
    <glyph glyph-name="Rcaron.sc" horiz-adv-x="564" 
d="M53 513h233q96 0 151.5 -43.5t55.5 -126.5q0 -108 -106 -147l74 -121h64v-75h-134l-109 183h-71v-108h44v-75h-202v75h56v361h-56v77zM211 255h70q108 0 108 90q0 43 -27.5 66.5t-80.5 23.5h-70v-180zM269 569l-143 204h88l64 -84l67 84h77l-143 -204h-10z" />
    <glyph glyph-name="Rcommaaccent.sc" horiz-adv-x="564" 
d="M53 513h233q96 0 151.5 -43.5t55.5 -126.5q0 -108 -106 -147l74 -121h64v-75h-134l-109 183h-71v-108h44v-75h-202v75h56v361h-56v77zM211 255h70q108 0 108 90q0 43 -27.5 66.5t-80.5 23.5h-70v-180zM243 -269l31 98q-15 6 -25.5 22t-10.5 36q0 27 19 45t45 18
q25 0 44.5 -18.5t19.5 -44.5q0 -28 -19 -60l-52 -96h-52z" />
    <glyph glyph-name="Sacute.sc" horiz-adv-x="461" 
d="M186 583l60 191h116l-98 -191h-78zM47 0v156h64q16 -87 116 -87q42 0 64.5 17.5t22.5 46.5q0 28 -18.5 44t-71.5 37l-40 15q-62 24 -92.5 58t-30.5 92q0 62 43 102t105 40q70 1 109 -43l8 35h58v-141h-64q-15 71 -94 71q-35 0 -54 -15.5t-19 -40.5t17 -39.5t63 -32.5
l38 -14q78 -29 109 -65t31 -93q0 -69 -47.5 -110.5t-125.5 -41.5q-85 0 -124 52l-8 -43h-59z" />
    <glyph glyph-name="Scaron.sc" horiz-adv-x="461" 
d="M228 569l-143 204h88l64 -84l67 84h77l-143 -204h-10zM47 0v156h64q16 -87 116 -87q42 0 64.5 17.5t22.5 46.5q0 28 -18.5 44t-71.5 37l-40 15q-62 24 -92.5 58t-30.5 92q0 62 43 102t105 40q70 1 109 -43l8 35h58v-141h-64q-15 71 -94 71q-35 0 -54 -15.5t-19 -40.5
t17 -39.5t63 -32.5l38 -14q78 -29 109 -65t31 -93q0 -69 -47.5 -110.5t-125.5 -41.5q-85 0 -124 52l-8 -43h-59z" />
    <glyph glyph-name="Scedilla.sc" horiz-adv-x="461" 
d="M233 -236q-76 0 -110 60l53 32q16 -33 49 -33q40 0 40 39q0 18 -12.5 29t-34.5 11h-28v95q-52 13 -76 46l-8 -43h-59v156h64q16 -87 116 -87q42 0 64.5 17.5t22.5 46.5q0 28 -18.5 44t-71.5 37l-40 15q-62 24 -92.5 58t-30.5 92q0 62 43 102t105 40q70 1 109 -43l8 35h58
v-141h-64q-15 71 -94 71q-35 0 -54 -15.5t-19 -40.5t17 -39.5t63 -32.5l38 -14q78 -29 109 -65t31 -93q0 -66 -44.5 -107.5t-117.5 -44.5v-37q37 -6 61.5 -31.5t24.5 -66.5t-30.5 -66.5t-71.5 -25.5z" />
    <glyph glyph-name="Scircumflex.sc" horiz-adv-x="461" 
d="M85 582l143 204h10l143 -204h-86l-65 84l-66 -84h-79zM47 0v156h64q16 -87 116 -87q42 0 64.5 17.5t22.5 46.5q0 28 -18.5 44t-71.5 37l-40 15q-62 24 -92.5 58t-30.5 92q0 62 43 102t105 40q70 1 109 -43l8 35h58v-141h-64q-15 71 -94 71q-35 0 -54 -15.5t-19 -40.5
t17 -39.5t63 -32.5l38 -14q78 -29 109 -65t31 -93q0 -69 -47.5 -110.5t-125.5 -41.5q-85 0 -124 52l-8 -43h-59z" />
    <glyph glyph-name="Scommaaccent.sc" horiz-adv-x="461" 
d="M170 -269l31 98q-15 6 -25.5 22t-10.5 36q0 27 19 45t45 18q25 0 44.5 -18.5t19.5 -44.5q0 -28 -19 -60l-52 -96h-52zM47 0v156h64q16 -87 116 -87q42 0 64.5 17.5t22.5 46.5q0 28 -18.5 44t-71.5 37l-40 15q-62 24 -92.5 58t-30.5 92q0 62 43 102t105 40q70 1 109 -43
l8 35h58v-141h-64q-15 71 -94 71q-35 0 -54 -15.5t-19 -40.5t17 -39.5t63 -32.5l38 -14q78 -29 109 -65t31 -93q0 -69 -47.5 -110.5t-125.5 -41.5q-85 0 -124 52l-8 -43h-59z" />
    <glyph glyph-name="Tcaron.sc" horiz-adv-x="515" 
d="M399 433h-89v-358h57v-75h-215v75h56v358h-89l-13 -71h-67v151h441v-151h-67zM254 569l-143 204h88l64 -84l67 84h77l-143 -204h-10z" />
    <glyph glyph-name="uni021A.sc" horiz-adv-x="515" 
d="M274 -236q-76 0 -110 60l53 32q17 -33 49 -33q40 0 40 39q0 18 -12.5 29t-34.5 11h-28v98h-79v75h56v358h-89l-13 -71h-67v151h441v-151h-67l-14 71h-89v-358h57v-75h-77v-46q37 -6 61.5 -31.5t24.5 -66.5t-30.5 -66.5t-71.5 -25.5z" />
    <glyph glyph-name="Tcommaaccent.sc" horiz-adv-x="515" 
d="M399 433h-89v-358h57v-75h-215v75h56v358h-89l-13 -71h-67v151h441v-151h-67zM199 -269l31 98q-15 6 -25.5 22t-10.5 36q0 27 19 45t45 18q25 0 44.5 -18.5t19.5 -44.5q0 -28 -19 -60l-52 -96h-52z" />
    <glyph glyph-name="Thorn.sc" horiz-adv-x="529" 
d="M210 194h91q84 0 84 67q0 65 -84 65h-91v-132zM53 513h214v-73h-57v-41h109q81 0 126 -35.5t45 -102.5t-45 -102t-126 -35h-109v-53h60v-71h-217v75h56v361h-56v77z" />
    <glyph glyph-name="Uacute.sc" horiz-adv-x="605" 
d="M563 436h-56v-245q0 -98 -54 -148.5t-150 -50.5q-98 0 -151.5 50.5t-53.5 148.5v245h-56v77h216v-77h-57v-252q0 -54 27 -82.5t79 -28.5t80 29t28 82v252h-59v77h207v-77zM259 583l60 191h116l-98 -191h-78z" />
    <glyph glyph-name="Ubreve.sc" horiz-adv-x="605" 
d="M563 436h-56v-245q0 -98 -54 -148.5t-150 -50.5q-98 0 -151.5 50.5t-53.5 148.5v245h-56v77h216v-77h-57v-252q0 -54 27 -82.5t79 -28.5t80 29t28 82v252h-59v77h207v-77zM302 578q-63 0 -101.5 35.5t-45.5 92.5l79 12q12 -64 68 -64q54 0 66 64l80 -12
q-7 -57 -45.5 -92.5t-100.5 -35.5z" />
    <glyph glyph-name="Ucircumflex.sc" horiz-adv-x="605" 
d="M154 582l143 204h10l143 -204h-86l-65 84l-66 -84h-79zM563 436h-56v-245q0 -98 -54 -148.5t-150 -50.5q-98 0 -151.5 50.5t-53.5 148.5v245h-56v77h216v-77h-57v-252q0 -54 27 -82.5t79 -28.5t80 29t28 82v252h-59v77h207v-77z" />
    <glyph glyph-name="Udieresis.sc" horiz-adv-x="605" 
d="M399 595q-24 0 -42.5 18t-18.5 43q0 24 18.5 42t42.5 18t42 -17.5t18 -42.5t-18 -43t-42 -18zM204 595q-24 0 -42.5 18t-18.5 43q0 24 18.5 42t42.5 18t42 -17.5t18 -42.5t-18 -43t-42 -18zM563 436h-56v-245q0 -98 -54 -148.5t-150 -50.5q-98 0 -151.5 50.5t-53.5 148.5
v245h-56v77h216v-77h-57v-252q0 -54 27 -82.5t79 -28.5t80 29t28 82v252h-59v77h207v-77z" />
    <glyph glyph-name="Ugrave.sc" horiz-adv-x="605" 
d="M563 436h-56v-245q0 -98 -54 -148.5t-150 -50.5q-98 0 -151.5 50.5t-53.5 148.5v245h-56v77h216v-77h-57v-252q0 -54 27 -82.5t79 -28.5t80 29t28 82v252h-59v77h207v-77zM266 583l-98 191h116l60 -191h-78z" />
    <glyph glyph-name="Uhungarumlaut.sc" horiz-adv-x="605" 
d="M563 436h-56v-245q0 -98 -54 -148.5t-150 -50.5q-98 0 -151.5 50.5t-53.5 148.5v245h-56v77h216v-77h-57v-252q0 -54 27 -82.5t79 -28.5t80 29t28 82v252h-59v77h207v-77zM338 583l59 191h107l-88 -191h-78zM177 583l59 191h107l-89 -191h-77z" />
    <glyph glyph-name="Umacron.sc" horiz-adv-x="605" 
d="M563 436h-56v-245q0 -98 -54 -148.5t-150 -50.5q-98 0 -151.5 50.5t-53.5 148.5v245h-56v77h216v-77h-57v-252q0 -54 27 -82.5t79 -28.5t80 29t28 82v252h-59v77h207v-77zM188 604v77h227v-77h-227z" />
    <glyph glyph-name="Uogonek.sc" horiz-adv-x="605" 
d="M327 -219q-44 0 -73 24t-29 70q0 48 61 118q-90 4 -139 54t-49 144v245h-56v77h216v-77h-57v-252q0 -54 27 -82.5t79 -28.5t80 29t28 82v252h-59v77h207v-77h-56v-245q0 -160 -138 -192q-62 -85 -62 -116q0 -33 32 -33q22 0 37 25l55 -35q-33 -59 -104 -59z" />
    <glyph glyph-name="Uring.sc" horiz-adv-x="605" 
d="M563 436h-56v-245q0 -98 -54 -148.5t-150 -50.5q-98 0 -151.5 50.5t-53.5 148.5v245h-56v77h216v-77h-57v-252q0 -54 27 -82.5t79 -28.5t80 29t28 82v252h-59v77h207v-77zM302 563q-49 0 -83 32t-34 77q0 46 34 78t83 32t82.5 -32t33.5 -78q0 -45 -34 -77t-82 -32z
M302 617q23 0 37.5 15t14.5 40q0 26 -14.5 40.5t-37.5 14.5q-24 0 -38.5 -14.5t-14.5 -40.5q0 -25 14.5 -40t38.5 -15z" />
    <glyph glyph-name="Yacute.sc" horiz-adv-x="531" 
d="M231 583l60 191h116l-98 -191h-78zM509 513v-77h-51l-139 -242v-119h56v-75h-215v75h57v111l-144 250h-51v77h208v-77h-50l60 -108q9 -17 17 -35.5t12 -29t4 -11.5l1 5l5 12.5t6.5 16.5t9 20.5t11.5 21.5l60 108h-48v77h191z" />
    <glyph glyph-name="Ydieresis.sc" horiz-adv-x="531" 
d="M371 595q-24 0 -42.5 18t-18.5 43q0 24 18.5 42t42.5 18t42 -17.5t18 -42.5t-18 -43t-42 -18zM176 595q-24 0 -42.5 18t-18.5 43q0 24 18.5 42t42.5 18t42 -17.5t18 -42.5t-18 -43t-42 -18zM509 513v-77h-51l-139 -242v-119h56v-75h-215v75h57v111l-144 250h-51v77h208
v-77h-50l60 -108q9 -17 17 -35.5t12 -29t4 -11.5l1 5l5 12.5t6.5 16.5t9 20.5t11.5 21.5l60 108h-48v77h191z" />
    <glyph glyph-name="Zacute.sc" horiz-adv-x="493" 
d="M215 583l60 191h116l-98 -191h-78zM65 363v150h383v-45l-272 -390h192l12 81h67v-159h-406v45l272 390h-168l-12 -72h-68z" />
    <glyph glyph-name="Zcaron.sc" horiz-adv-x="493" 
d="M253 569l-143 204h88l64 -84l67 84h77l-143 -204h-10zM65 363v150h383v-45l-272 -390h192l12 81h67v-159h-406v45l272 390h-168l-12 -72h-68z" />
    <glyph glyph-name="Zdotaccent.sc" horiz-adv-x="493" 
d="M65 363v150h383v-45l-272 -390h192l12 81h67v-159h-406v45l272 390h-168l-12 -72h-68zM258 595q-25 0 -43.5 17.5t-18.5 43.5q0 25 19 43t43 18t42 -18t18 -43q0 -26 -18 -43.5t-42 -17.5z" />
    <glyph glyph-name="germandbls.sc" horiz-adv-x="923" 
d="M47 0v156h64q16 -87 116 -87q42 0 64.5 17.5t22.5 46.5q0 28 -18.5 44t-71.5 37l-40 15q-62 24 -92.5 58t-30.5 92q0 62 43 102t105 40q70 1 109 -43l8 35h58v-141h-64q-15 71 -94 71q-35 0 -54 -15.5t-19 -40.5t17 -39.5t63 -32.5l38 -14q78 -29 109 -65t31 -93
q0 -69 -47.5 -110.5t-125.5 -41.5q-85 0 -124 52l-8 -43h-59zM508 0v156h64q16 -87 116 -87q42 0 64.5 17.5t22.5 46.5q0 28 -18.5 44t-71.5 37l-40 15q-62 24 -92.5 58t-30.5 92q0 62 43 102t105 40q70 1 109 -43l8 35h58v-141h-64q-15 71 -94 71q-35 0 -54 -15.5
t-19 -40.5t17 -39.5t63 -32.5l38 -14q78 -29 109 -65t31 -93q0 -69 -47.5 -110.5t-125.5 -41.5q-85 0 -124 52l-8 -43h-59z" />
    <glyph glyph-name="space.sc" horiz-adv-x="241" 
 />
    <glyph glyph-name="dollar.sc" horiz-adv-x="492" 
d="M214 -118v112q-65 11 -97 52l-8 -46h-58v153h62q24 -78 101 -87v157l-13 4q-74 21 -110 55t-36 96q0 61 45 100.5t118 41.5v104h59v-109q44 -9 68 -41l7 39h61v-147h-60q-14 66 -76 79v-139l12 -4q156 -44 156 -160q0 -68 -47 -106.5t-125 -42.5v-111h-59zM351 132
q0 28 -17 45t-61 31v-143q36 4 57 22t21 45zM148 387q0 -26 15.5 -40.5t54.5 -26.5v127q-70 -8 -70 -60z" />
    <glyph glyph-name="cent.sc" horiz-adv-x="586" 
d="M485 277h-65q-21 57 -77 71v-276q56 8 87 52l64 -56q-56 -66 -151 -75v-109h-58v110q-88 9 -142 68t-54 148q0 93 58 152.5t138 65.5v107h58v-113q47 -10 71 -43l9 41h62v-143zM191 211q0 -53 26 -90.5t68 -48.5v277q-43 -11 -68.5 -47.5t-25.5 -90.5z" />
    <glyph glyph-name="Euro.sc" horiz-adv-x="552" 
d="M446 150l76 -45q-31 -56 -77.5 -84.5t-120.5 -28.5q-80 0 -141 48t-82 130h-63v57h54q-1 29 0 58h-54v57h60q19 81 77.5 130t137.5 49q82 0 119 -54l9 46h66v-159h-75q-21 89 -109 89q-45 0 -77 -26.5t-44 -74.5h155v-57h-162q-2 -33 1 -58h161v-57h-152q13 -46 45 -71.5
t77 -25.5q76 0 119 77z" />
    <glyph glyph-name="sterling.sc" horiz-adv-x="524" 
d="M406 359q-16 84 -102 84q-41 0 -65 -21.5t-24 -58.5q0 -34 22 -81h152v-69h-125q15 -42 15 -80q0 -7 -2 -23q52 -31 89 -31q45 0 77 40l61 -62q-27 -35 -58 -50t-77 -15q-58 0 -125 50q-34 -50 -108 -50q-44 0 -72 24t-28 63q0 38 26.5 62t68.5 24q28 0 61 -18
q-4 23 -21 66h-90v69h57q-22 42 -22 87q0 67 45.5 109.5t121.5 42.5q80 0 118 -48l7 40h64v-154h-66zM188 86q-29 20 -49 20q-15 0 -24 -8t-9 -20t9.5 -20.5t23.5 -8.5q37 0 49 37z" />
    <glyph glyph-name="yen.sc" horiz-adv-x="555" 
d="M490 127h-164v-52h53v-75h-201v75h52v52h-164v60h156l-29 53h-127v60h93l-74 135h-60v78h215v-78h-51l63 -125q24 -46 31 -82q20 61 32 82l64 125h-45v78h196v-78h-60l-74 -135h94v-60h-127l-29 -53h156v-60z" />
    <glyph glyph-name="florin.sc" horiz-adv-x="398" 
d="M74 -94l34 297h-65v79h74l10 89q17 150 144 150q74 0 114 -57l-57 -52q-20 31 -51 31q-42 0 -50 -58l-12 -103h93v-79h-102l-33 -297h-99z" />
    <glyph glyph-name="zero.sc" horiz-adv-x="574" 
d="M287 -8q-102 0 -168.5 74t-66.5 190q0 117 66.5 191t168.5 74t168.5 -74t66.5 -191q0 -116 -66.5 -190t-168.5 -74zM287 75q60 0 94.5 48t34.5 133q0 86 -34.5 134t-94.5 48t-94.5 -48t-34.5 -134q0 -85 34.5 -133t94.5 -48z" />
    <glyph glyph-name="one.sc" horiz-adv-x="363" 
d="M141 76v357h-98v80h201v-437h81v-76h-272v76h88z" />
    <glyph glyph-name="two.sc" horiz-adv-x="475" 
d="M38 0v60l192 174q46 42 65.5 72t19.5 61q0 32 -20 52t-56 20q-41 0 -66.5 -24.5t-35.5 -63.5l-90 18q15 71 68.5 113.5t126.5 42.5q82 0 129.5 -44.5t47.5 -109.5q0 -53 -28 -94t-82 -90l-77 -69q-28 -26 -65 -48l12 2q12 2 30.5 3.5t34.5 1.5h106l7 59h69v-136h-388z
" />
    <glyph glyph-name="three.sc" horiz-adv-x="483" 
d="M164 249l-15 20l110 127q8 9 19.5 20t19.5 18l7 6q-45 -5 -70 -5h-94l-8 -55h-68v133h354v-42l-84 -102q-12 -14 -25.5 -25.5t-21.5 -16.5l-8 -5q64 -1 109.5 -41t45.5 -115q0 -80 -57.5 -127t-144.5 -47q-72 0 -124.5 32.5t-77.5 86.5l87 38q35 -75 114 -75
q46 0 73.5 26t27.5 70t-29.5 67t-78.5 23q-35 0 -61 -11z" />
    <glyph glyph-name="four.sc" horiz-adv-x="515" 
d="M236 69h68v67h-264v63l287 317h74v-307h70v-73h-70v-67h68v-69h-233v69zM133 202q28 5 55 5h119v131q0 12 0.5 27.5t1.5 26.5t1 12q-16 -32 -41 -59l-93 -105z" />
    <glyph glyph-name="five.sc" horiz-adv-x="482" 
d="M333 384l-9 48h-157v-123q33 22 89 22q78 0 127.5 -45t49.5 -122q0 -79 -53.5 -125.5t-144.5 -46.5q-74 0 -124 30.5t-75 79.5l83 45q40 -74 113 -74q47 0 75 24.5t28 67.5q0 44 -28 68.5t-79 24.5q-75 0 -127 -46l-17 7v294h316v-129h-67z" />
    <glyph glyph-name="six.sc" horiz-adv-x="500" 
d="M251 -8q-87 0 -143 52.5t-56 131.5q0 63 50 136l139 201h111l-84 -119q-16 -23 -54 -61q30 17 66 17q71 0 120.5 -49t49.5 -125q0 -78 -55.5 -131t-143.5 -53zM251 71q47 0 72.5 30t25.5 74q0 45 -25.5 74.5t-72.5 29.5q-46 0 -73 -30t-27 -74q0 -43 27 -73.5t73 -30.5z
" />
    <glyph glyph-name="seven.sc" horiz-adv-x="458" 
d="M34 365v148h386v-52l-234 -461h-103l219 430h-189l-9 -65h-70z" />
    <glyph glyph-name="eight.sc" horiz-adv-x="493" 
d="M247 -8q-87 0 -143 43.5t-56 112.5q0 94 103 128q-74 31 -74 111q0 57 46 95.5t124 38.5t123.5 -38.5t45.5 -95.5q0 -81 -73 -111q102 -33 102 -128q0 -69 -55.5 -112.5t-142.5 -43.5zM247 70q43 0 70 23.5t27 62.5q0 41 -26 64.5t-71 23.5t-71.5 -23.5t-26.5 -64.5
q0 -40 27 -63t71 -23zM248 310q32 0 52 19t20 51t-20.5 50t-53.5 18t-53 -18t-20 -50t21 -51t54 -19z" />
    <glyph glyph-name="nine.sc" horiz-adv-x="502" 
d="M143 0l93 124q19 28 49 53q-24 -15 -57 -15q-75 0 -126.5 49.5t-51.5 125.5q0 77 56.5 130.5t144.5 53.5q87 0 142.5 -53t55.5 -131q0 -69 -52 -142l-144 -195h-110zM252 235q44 0 70.5 29.5t26.5 72.5q0 42 -26.5 72.5t-70.5 30.5q-47 0 -73.5 -30t-26.5 -73
q0 -44 26 -73t74 -29z" />
    <glyph glyph-name="percent.sc" horiz-adv-x="791" 
d="M189 228q-62 0 -106.5 42t-44.5 105q0 62 44.5 104t106.5 42t106.5 -42t44.5 -104q0 -63 -44 -105t-107 -42zM190 0l322 513h88l-322 -513h-88zM602 -8q-63 0 -107 41.5t-44 104.5q0 62 44.5 104t106.5 42t106 -42t44 -104q0 -63 -44 -104.5t-106 -41.5zM189 300
q29 0 50 21t21 54t-21 53.5t-50 20.5q-28 0 -49 -20.5t-21 -53.5t21 -54t49 -21zM602 63q29 0 49.5 21t20.5 54t-20.5 53.5t-49.5 20.5t-50 -20.5t-21 -53.5t21 -54t50 -21z" />
    <glyph glyph-name="perthousand.sc" horiz-adv-x="1142" 
d="M189 228q-62 0 -106.5 42t-44.5 105q0 62 44.5 104t106.5 42t106.5 -42t44.5 -104q0 -63 -44 -105t-107 -42zM190 0l322 513h88l-322 -513h-88zM602 -8q-63 0 -107 41.5t-44 104.5q0 62 44.5 104t106.5 42t106 -42t44 -104q0 -63 -44 -104.5t-106 -41.5zM189 300
q29 0 50 21t21 54t-21 53.5t-50 20.5q-28 0 -49 -20.5t-21 -53.5t21 -54t49 -21zM602 63q29 0 49.5 21t20.5 54t-20.5 53.5t-49.5 20.5t-50 -20.5t-21 -53.5t21 -54t50 -21zM954 -8q-63 0 -107.5 41.5t-44.5 104.5q0 62 44.5 104t107.5 42q62 0 106 -42t44 -104
q0 -63 -44 -104.5t-106 -41.5zM954 63q29 0 49.5 21t20.5 54t-20.5 53.5t-49.5 20.5t-50 -20.5t-21 -53.5t21 -54t50 -21z" />
    <glyph glyph-name="plus.sc" horiz-adv-x="410" 
d="M159 96v118h-110v89h110v118h92v-118h111v-89h-111v-118h-92z" />
    <glyph glyph-name="minus.sc" horiz-adv-x="410" 
d="M362 214h-313v89h313v-89z" />
    <glyph glyph-name="multiply.sc" horiz-adv-x="407" 
d="M204 196l-95 -95l-62 63l94 94l-94 95l62 62l95 -94l94 94l62 -62l-94 -95l94 -94l-62 -63z" />
    <glyph glyph-name="divide.sc" horiz-adv-x="410" 
d="M362 214h-313v89h313v-89zM205 351q-27 0 -46.5 19t-19.5 47t19.5 46.5t46.5 18.5t46 -18t19 -47q0 -28 -19 -47t-46 -19zM205 35q-27 0 -46.5 19t-19.5 47t19.5 46.5t46.5 18.5t46 -18.5t19 -46.5t-19 -47t-46 -19z" />
    <glyph glyph-name="equal.sc" horiz-adv-x="406" 
d="M49 281v87h309v-87h-309zM49 134v88h309v-88h-309z" />
    <glyph glyph-name="less.sc" horiz-adv-x="375" 
d="M323 83l-284 156v10l284 154v-90l-138 -69l138 -70v-91z" />
    <glyph glyph-name="greater.sc" horiz-adv-x="375" 
d="M53 83v90l138 69l-138 70v91l284 -156v-10z" />
    <glyph glyph-name="degree.sc" horiz-adv-x="347" 
d="M173 277q-52 0 -90 36t-38 86q0 52 37.5 87t90.5 35q54 0 91.5 -35t37.5 -87q0 -50 -38 -86t-91 -36zM173 340q26 0 42 16.5t16 42.5q0 27 -16 43.5t-42 16.5q-25 0 -41 -16.5t-16 -43.5q0 -26 16 -42.5t41 -16.5z" />
    <glyph glyph-name="period.sc" horiz-adv-x="243" 
d="M122 -7q-28 0 -48.5 20t-20.5 50q0 29 20.5 49t48.5 20t48.5 -20t20.5 -49q0 -30 -20.5 -50t-48.5 -20z" />
    <glyph glyph-name="comma.sc" horiz-adv-x="243" 
d="M57 -113l38 115q-42 18 -42 62q0 28 20.5 48t48.5 20t48.5 -20t20.5 -49q0 -22 -21 -62l-60 -114h-53z" />
    <glyph glyph-name="colon.sc" horiz-adv-x="253" 
d="M127 220q-28 0 -48.5 20t-20.5 50q0 29 20.5 49t48.5 20t48.5 -20t20.5 -49q0 -30 -20.5 -50t-48.5 -20zM127 -7q-28 0 -48.5 20t-20.5 50q0 29 20.5 49t48.5 20t48.5 -20t20.5 -49q0 -30 -20.5 -50t-48.5 -20z" />
    </font>
</defs>
</svg>
