<?xml version="1.0" standalone="no"?>
<!DOCTYPE svg PUBLIC "-//W3C//DTD SVG 1.1//EN" "http://www.w3.org/Graphics/SVG/1.1/DTD/svg11.dtd" >
<svg>
<metadata>
Created by FontForge 20110222 at Fri Sep 27 17:41:43 2013
 By Orthosie Webhosting
(C)2009 House Industries/Brand Design Co., Inc. All Rights Reserved.
</metadata>
<defs>
<font id="NeutrafaceSlabTextLight" horiz-adv-x="520" >
  <font-face 
    font-family="NeutrafaceSlabTextLight"
    font-weight="300"
    font-stretch="normal"
    units-per-em="1000"
    panose-1="2 6 3 3 2 2 5 2 4 2"
    ascent="788"
    descent="-212"
    x-height="408"
    cap-height="680"
    bbox="-30 -258 1115 970"
    underline-thickness="50"
    underline-position="-50"
    unicode-range="U+0020-FB04"
  />
<missing-glyph horiz-adv-x="0" 
 />
    <glyph glyph-name="ff" unicode="ff" horiz-adv-x="543" 
d="M356 408v210q0 59 26.5 88t68.5 29q61 0 90 -50l-30 -20q-23 35 -59 35q-57 0 -57 -83v-209h109v-33h-109v-342h66v-33h-178v33h73v342h-216v-342h71v-33h-172v33h62v342h-67v33h67v190q0 59 26.5 88t68.5 29q61 0 90 -50l-30 -20q-23 35 -59 35q-57 0 -57 -83v-189h216z
" />
    <glyph glyph-name="fi" unicode="fi" horiz-adv-x="495" 
d="M375 551q-13 0 -23 9.5t-10 23.5t10 23.5t23 9.5t23 -9.5t10 -23.5t-10 -23.5t-23 -9.5zM101 33v342h-67v33h67v210q0 59 27 88t69 29q58 0 91 -48l-29 -22q-13 19 -25.5 27t-35.5 8q-58 0 -58 -83v-209h255v-375h66v-33h-178v33h73v342h-216v-342h71v-33h-172v33h62z
" />
    <glyph glyph-name="fl" unicode="fl" horiz-adv-x="495" 
d="M356 690h-91q-69 0 -97 -33t-28 -122v-127h109v-33h-109v-342h71v-33h-172v33h62v342h-67v33h67v128q0 96 38.5 142t126.5 46h129v-691h66v-33h-178v33h73v657z" />
    <glyph glyph-name="ffi" unicode="ffi" horiz-adv-x="750" 
d="M630 551q-13 0 -23 9.5t-10 23.5t10 23.5t23 9.5t23 -9.5t10 -23.5t-10 -23.5t-23 -9.5zM356 375h-216v-342h83v-33h-184v33h62v342h-67v33h67v190q0 59 26.5 88t68.5 29q61 0 90 -50l-30 -20q-23 35 -59 35q-57 0 -57 -83v-189h216v210q0 59 27 88t69 29q58 0 91 -48
l-29 -22q-13 19 -25.5 27t-35.5 8q-58 0 -58 -83v-209h255v-375h66v-33h-178v33h73v342h-216v-342h71v-33h-172v33h62v342z" />
    <glyph glyph-name="ffl" unicode="ffl" horiz-adv-x="756" 
d="M100 408v190q0 59 27 88t69 29q63 0 96 -48l-34 -22q-13 19 -25.5 27t-35.5 8q-58 0 -58 -83v-189h216v128q0 96 38.5 142t125.5 46h130v-691h73v-33h-184v33h72v657h-90q-69 0 -97.5 -33t-28.5 -122v-127h109v-33h-109v-342h67v-33h-178v33h72v342h-216v-342h71v-33
h-173v33h63v342h-66v33h66z" />
    <glyph glyph-name="f_b" unicode="fb" horiz-adv-x="822" 
d="M356 690h-90q-69 0 -97 -33t-28 -122l-1 -127h109v-33h-109v-342h71v-33h-172v33h62v342h-67v33h66v128q0 96 38.5 142t126.5 46h130v-413q24 48 68.5 77t104.5 29q87 0 144.5 -61t57.5 -151q0 -91 -57.5 -152t-144.5 -61q-58 0 -105.5 30.5t-69.5 79.5v-102h-109v33h72
v657zM563 27q75 0 120.5 50.5t45.5 127.5t-45.5 127t-120.5 50q-76 0 -123.5 -50t-47.5 -127t47.5 -127.5t123.5 -50.5z" />
    <glyph glyph-name="f_f_b" unicode="ffb" horiz-adv-x="1077" 
d="M101 408v190q0 59 27 88t69 29q58 0 91 -48l-29 -22q-13 19 -25.5 27t-35.5 8q-58 0 -58 -83v-189h216v128q0 96 38.5 142t125.5 46h130v-413q24 48 68.5 77t104.5 29q87 0 144.5 -61t57.5 -151q0 -91 -57.5 -152t-144.5 -61q-58 0 -105.5 30.5t-69.5 79.5v-102h-109v33
h72v657h-90q-69 0 -97.5 -33t-28.5 -122v-127h109v-33h-109v-342h66v-33h-178v33h73v342h-216v-342h71v-33h-172v33h62v342h-67v33h67zM818 27q75 0 120.5 50.5t45.5 127.5t-45.5 127t-120.5 50q-76 0 -123.5 -50t-47.5 -127t47.5 -127.5t123.5 -50.5z" />
    <glyph glyph-name="f_f_f" unicode="fff" horiz-adv-x="798" 
d="M356 375h-216v-342h71v-33h-172v33h62v342h-67v33h67v190q0 59 26.5 88t68.5 29q61 0 90 -50l-30 -20q-23 35 -59 35q-57 0 -57 -83v-189h216v200q0 59 26.5 88t68.5 29q61 0 90 -50l-30 -20q-23 35 -59 35q-57 0 -57 -83v-199h216v210q0 59 26.5 88t68.5 29q61 0 90 -50
l-30 -20q-23 35 -59 35q-57 0 -57 -83v-209h109v-33h-109v-342h66v-33h-177v33h72v342h-216v-342h66v-33h-178v33h73v342z" />
    <glyph glyph-name="f_f_f_i" unicode="fffi" horiz-adv-x="1005" 
d="M611 375h-216v-342h66v-33h-177v33h72v342h-216v-342h71v-33h-172v33h62v342h-67v33h67v190q0 59 26.5 88t68.5 29q61 0 90 -50l-30 -20q-23 35 -59 35q-57 0 -57 -83v-189h216v200q0 59 26.5 88t68.5 29q61 0 90 -50l-30 -20q-23 35 -59 35q-57 0 -57 -83v-199h216v210
q0 59 26.5 88t68.5 29q61 0 90 -50l-30 -20q-23 35 -59 35q-57 0 -57 -83v-209h255v-375h66v-33h-178v33h73v342h-216v-342h66v-33h-177v33h72v342zM885 551q-13 0 -23 9.5t-10 23.5t10 23.5t23 9.5t23 -9.5t10 -23.5t-10 -23.5t-23 -9.5z" />
    <glyph glyph-name="f_f_f_l" unicode="fffl" horiz-adv-x="1004" 
d="M355 408v200q0 59 27 88t69 29q58 0 91 -48l-29 -22q-13 19 -25.5 27t-35.5 8q-58 0 -58 -83v-199h216v128q0 96 39 142t127 46h128v-691h66v-33h-178v33h73v657h-90q-69 0 -97.5 -33t-28.5 -122v-127h109v-33h-109v-342h66v-33h-177v33h72v342h-216v-342h66v-33h-178v33
h73v342h-216v-342h71v-33h-172v33h62v342h-66v33h66v190q0 59 27 88t69 29q58 0 91 -48l-29 -22q-13 19 -25.5 27t-35.5 8q-58 0 -58 -83v-189h216z" />
    <glyph glyph-name="f_f_h" unicode="ffh" horiz-adv-x="1052" 
d="M101 408v190q0 59 27 88t69 29q58 0 91 -48l-29 -22q-13 19 -25.5 27t-35.5 8q-58 0 -58 -83v-189h216v128q0 96 38.5 142t125.5 46h130v-403q21 44 61.5 70t93.5 26q69 0 110.5 -43.5t41.5 -118.5v-222h65v-33h-177v33h73v215q0 64 -30 98.5t-88 34.5
q-67 0 -108.5 -41.5t-41.5 -111.5v-195h73v-33h-184v33h72v657h-90q-69 0 -97.5 -33t-28.5 -122v-127h109v-33h-109v-342h67v-33h-178v33h72v342h-216v-342h71v-33h-172v33h62v342h-67v33h67z" />
    <glyph glyph-name="f_f_iacute" unicode="ff&#xed;" horiz-adv-x="750" 
d="M613 497l75 195h46l-88 -195h-33zM356 375h-216v-342h83v-33h-184v33h62v342h-67v33h67v190q0 59 27 88t69 29q58 0 91 -48l-29 -22q-13 19 -25.5 27t-35.5 8q-58 0 -58 -83v-189h216v210q0 59 27 88t69 29q58 0 91 -48l-29 -22q-13 19 -25.5 27t-35.5 8q-58 0 -58 -83
v-209h255v-375h66v-33h-179v33h74v342h-216v-342h71v-33h-172v33h62v342z" />
    <glyph glyph-name="f_f_icircumflex" unicode="ff&#xee;" horiz-adv-x="750" 
d="M512 494l113 182h9l113 -182h-35l-82 119l-83 -119h-35zM356 375h-216v-342h83v-33h-184v33h62v342h-67v33h67v190q0 59 27 88t69 29q58 0 91 -48l-29 -22q-13 19 -25.5 27t-35.5 8q-58 0 -58 -83v-189h216v210q0 59 27 88t69 29q58 0 91 -48l-29 -22q-13 19 -25.5 27
t-35.5 8q-58 0 -58 -83v-209h255v-375h66v-33h-179v33h74v342h-216v-342h71v-33h-172v33h62v342z" />
    <glyph glyph-name="f_f_idieresis" unicode="ff&#xef;" horiz-adv-x="750" 
d="M706 521q-13 0 -22.5 9.5t-9.5 22.5t9.5 22.5t22.5 9.5t22.5 -9.5t9.5 -22.5t-9.5 -22.5t-22.5 -9.5zM554 521q-13 0 -22.5 9.5t-9.5 22.5t9.5 22.5t22.5 9.5t22.5 -9.5t9.5 -22.5t-9.5 -22.5t-22.5 -9.5zM356 375h-216v-342h83v-33h-184v33h62v342h-67v33h67v190
q0 59 27 88t69 29q58 0 91 -48l-29 -22q-13 19 -25.5 27t-35.5 8q-58 0 -58 -83v-189h216v210q0 59 27 88t69 29q58 0 91 -48l-29 -22q-13 19 -25.5 27t-35.5 8q-58 0 -58 -83v-209h255v-375h66v-33h-179v33h74v342h-216v-342h71v-33h-172v33h62v342z" />
    <glyph glyph-name="f_f_j" unicode="ffj" horiz-adv-x="743" 
d="M630 551q-13 0 -23 9.5t-10 23.5t10 23.5t23 9.5t23 -9.5t10 -23.5t-10 -23.5t-23 -9.5zM356 375h-216v-342h83v-33h-184v33h62v342h-67v33h67v190q0 59 26.5 88t68.5 29q61 0 90 -50l-30 -20q-23 35 -59 35q-57 0 -57 -83v-189h216v210q0 59 27 88t69 29q58 0 91 -48
l-29 -22q-13 19 -25.5 27t-35.5 8q-58 0 -58 -83v-209h255v-520q0 -54 -25.5 -82t-65.5 -28q-53 0 -83 36l24 25q25 -27 57 -27q54 0 54 77v486h-216v-342h71v-33h-172v33h62v342z" />
    <glyph glyph-name="f_f_k" unicode="ffk" horiz-adv-x="990" 
d="M101 408v190q0 59 27 88t69 29q58 0 91 -48l-29 -22q-13 19 -25.5 27t-35.5 8q-58 0 -58 -83v-189h216v128q0 96 38.5 142t125.5 46h130v-512q0 -14 -3 -44l194 206h-55v34h151v-34h-50l-132 -139l167 -202h50v-33h-163v33h65l-146 176l-78 -82v-94h73v-33h-185v33h73
v657h-90q-69 0 -97.5 -33t-28.5 -122v-127h109v-33h-109v-342h67v-33h-178v33h72v342h-216v-342h71v-33h-172v33h62v342h-67v33h67z" />
    <glyph glyph-name="f_f_t" unicode="fft" horiz-adv-x="805" 
d="M356 375h-216v-342h83v-33h-184v33h62v342h-67v33h67v190q0 59 26.5 88t68.5 29q61 0 90 -50l-30 -20q-23 35 -59 35q-57 0 -57 -83v-189h216v210q0 59 27 88t69 29q58 0 91 -48l-29 -22q-13 19 -25.5 27t-35.5 8q-58 0 -58 -83v-209h196v143h39v-143h118v-33h-118v-266
q0 -82 55 -82q37 0 65 30l25 -24q-36 -41 -90 -41q-42 0 -68 28.5t-26 87.5v267h-196v-342h71v-33h-172v33h62v342z" />
    <glyph glyph-name="f_h" unicode="fh" horiz-adv-x="797" 
d="M356 690h-90q-69 0 -97 -33t-28 -122l-1 -127h109v-33h-109v-342h71v-33h-172v33h62v342h-67v33h66v128q0 96 38.5 142t126.5 46h130v-403q21 44 61.5 70t93.5 26q69 0 110.5 -43.5t41.5 -118.5v-222h65v-33h-177v33h73v215q0 64 -30 98.5t-88 34.5q-67 0 -108.5 -41.5
t-41.5 -111.5v-195h73v-33h-185v33h73v657z" />
    <glyph glyph-name="f_iacute" unicode="f&#xed;" horiz-adv-x="495" 
d="M357 497l75 195h46l-88 -195h-33zM101 33v342h-67v33h67v210q0 59 27 88t69 29q58 0 91 -48l-29 -22q-13 19 -25.5 27t-35.5 8q-58 0 -58 -83v-209h255v-375h66v-33h-178v33h73v342h-216v-342h70v-33h-172v33h63z" />
    <glyph glyph-name="f_icircumflex" unicode="f&#xee;" horiz-adv-x="495" 
d="M257 494l113 182h9l113 -182h-35l-82 119l-83 -119h-35zM101 33v342h-67v33h67v210q0 59 27 88t69 29q58 0 91 -48l-29 -22q-13 19 -25.5 27t-35.5 8q-58 0 -58 -83v-209h255v-375h66v-33h-179v33h74v342h-216v-342h71v-33h-172v33h62z" />
    <glyph glyph-name="f_idieresis" unicode="f&#xef;" horiz-adv-x="495" 
d="M451 521q-13 0 -22.5 9.5t-9.5 22.5t9.5 22.5t22.5 9.5t22.5 -9.5t9.5 -22.5t-9.5 -22.5t-22.5 -9.5zM299 521q-13 0 -22.5 9.5t-9.5 22.5t9.5 22.5t22.5 9.5t22.5 -9.5t9.5 -22.5t-9.5 -22.5t-22.5 -9.5zM101 33v342h-67v33h67v210q0 59 27 88t69 29q58 0 91 -48
l-29 -22q-13 19 -25.5 27t-35.5 8q-58 0 -58 -83v-209h255v-375h66v-33h-178v33h73v342h-216v-342h70v-33h-172v33h63z" />
    <glyph glyph-name="f_j" unicode="fj" horiz-adv-x="488" 
d="M375 551q-13 0 -23 9.5t-10 23.5t10 23.5t23 9.5t23 -9.5t10 -23.5t-10 -23.5t-23 -9.5zM356 375h-216v-342h71v-33h-172v33h62v342h-67v33h67v210q0 59 27 88t69 29q58 0 91 -48l-29 -22q-13 19 -25.5 27t-35.5 8q-58 0 -58 -83v-209h255v-520q0 -54 -25.5 -82
t-65.5 -28q-53 0 -83 36l24 25q25 -27 57 -27q54 0 54 77v486z" />
    <glyph glyph-name="f_k" unicode="fk" horiz-adv-x="735" 
d="M356 690h-90q-69 0 -97 -33t-28 -122l-1 -127h109v-33h-109v-342h71v-33h-172v33h62v342h-67v33h66v128q0 96 38.5 142t126.5 46h130v-512q0 -14 -3 -44l194 206h-55v34h151v-34h-50l-132 -139l167 -202h50v-33h-163v33h65l-146 176l-78 -82v-94h73v-33h-184v33h72v657z
" />
    <glyph glyph-name="f_t" unicode="ft" horiz-adv-x="550" 
d="M140 408h196v143h39v-143h118v-33h-118v-266q0 -82 55 -82q37 0 65 30l25 -24q-36 -41 -90 -41q-42 0 -68 28.5t-26 87.5v267h-196v-342h71v-33h-172v33h62v342h-67v33h67v210q0 59 27 88t69 29q58 0 91 -48l-29 -22q-13 19 -25.5 27t-35.5 8q-58 0 -58 -83v-209z" />
    <glyph glyph-name=".notdef" horiz-adv-x="0" 
 />
    <glyph glyph-name=".null" horiz-adv-x="0" 
 />
    <glyph glyph-name="nonmarkingreturn" horiz-adv-x="333" 
 />
    <glyph glyph-name="space" unicode=" " horiz-adv-x="252" 
 />
    <glyph glyph-name="exclam" unicode="!" horiz-adv-x="250" 
d="M110 170l-7 510h44l-7 -510h-30zM125 -7q-15 0 -26.5 11.5t-11.5 26.5q0 16 11.5 27.5t26.5 11.5t26.5 -11.5t11.5 -27.5t-11.5 -27t-26.5 -11z" />
    <glyph glyph-name="quotedbl" unicode="&#x22;" horiz-adv-x="233" 
d="M51 487l-5 193h41l-5 -193h-31zM151 487l-5 193h41l-5 -193h-31z" />
    <glyph glyph-name="numbersign" unicode="#" horiz-adv-x="439" 
d="M76 192l28 111h-72v34h80l31 124h-80v34h88l29 115h36l-29 -115h111l29 115h36l-29 -115h73v-34h-81l-31 -124h80v-34h-89l-27 -111h-37l28 111h-111l-27 -111h-36zM148 337h111l31 124h-111z" />
    <glyph glyph-name="dollar" unicode="$" horiz-adv-x="432" 
d="M197 -120v113q-88 11 -116 61l-3 -54h-31v165h34q2 -40 12.5 -68t28.5 -41.5t35 -19.5t40 -9v219l-12 4q-63 21 -94.5 51t-31.5 81t39.5 84t98.5 37v107h34v-108q72 -8 101 -54l3 47h31v-140h-34q-2 53 -29 81.5t-72 31.5v-195l19 -6q72 -25 104 -57t32 -86
q0 -57 -42 -93t-113 -39v-112h-34zM347 124q0 43 -25 65.5t-91 44.5v-208q54 3 85 29t31 69zM98 383q0 -38 22.5 -59t76.5 -39v184q-45 -3 -72 -25t-27 -61z" />
    <glyph glyph-name="percent" unicode="%" horiz-adv-x="731" 
d="M177 219q-58 0 -100.5 40.5t-42.5 101.5q0 60 42.5 101t100.5 41q57 0 99.5 -41t42.5 -101q0 -61 -42.5 -101.5t-99.5 -40.5zM192 0l308 495h40l-308 -495h-40zM177 252q44 0 74.5 30.5t30.5 78.5t-30.5 78t-74.5 30q-45 0 -75.5 -30t-30.5 -78t31 -78.5t75 -30.5z
M555 -8q-58 0 -100 40.5t-42 101.5q0 60 42.5 101t99.5 41t99.5 -41t42.5 -101q0 -61 -42 -101.5t-100 -40.5zM555 25q44 0 74.5 30.5t30.5 78.5q0 47 -30.5 77.5t-74.5 30.5t-74.5 -30.5t-30.5 -77.5q0 -48 30.5 -78.5t74.5 -30.5z" />
    <glyph glyph-name="ampersand" unicode="&#x26;" horiz-adv-x="687" 
d="M638 0h-85l-81 102q-83 -110 -209 -110q-96 0 -152 48t-56 131q0 43 14 77.5t45 63t54.5 44.5t69.5 43l-20 26q-55 70 -55 133q0 56 37.5 93t95.5 37q56 0 91 -37.5t35 -92.5q0 -87 -128 -167l177 -224q39 74 59 180h-66v36h166v-36h-62q-22 -126 -73 -211l80 -100h63
v-36zM449 132l-189 239q-40 -23 -63 -38.5t-49.5 -40t-38.5 -54.5t-12 -67q0 -66 44 -104t122 -38q114 0 186 103zM272 419q53 33 81.5 65t28.5 74t-23.5 67.5t-62.5 25.5q-41 0 -67 -25t-26 -68q0 -52 43 -106z" />
    <glyph glyph-name="quotesingle" unicode="'" horiz-adv-x="133" 
d="M51 487l-5 193h41l-5 -193h-31z" />
    <glyph glyph-name="parenleft" unicode="(" horiz-adv-x="269" 
d="M219 -136q-165 175 -165 427t165 427l26 -23q-150 -171 -150 -404t150 -404z" />
    <glyph glyph-name="parenright" unicode=")" horiz-adv-x="269" 
d="M50 -136l-26 23q149 170 149 404t-149 404l26 23q165 -177 165 -427t-165 -427z" />
    <glyph glyph-name="asterisk" unicode="*" horiz-adv-x="371" 
d="M167 382l8 131l-106 -68l-18 32l119 55l-119 55l18 32l106 -68l-8 129h37l-8 -129l106 68l18 -32l-119 -55l118 -55l-17 -32l-106 68l8 -131h-37z" />
    <glyph glyph-name="plus" unicode="+" horiz-adv-x="375" 
d="M168 95v132h-119v36h119v132h38v-132h120v-36h-120v-132h-38z" />
    <glyph glyph-name="comma" unicode="," horiz-adv-x="206" 
d="M53 -111l39 107q-29 7 -29 37q0 16 12.5 28t27.5 12q16 0 28 -12t12 -28q0 -11 -4 -19l-61 -125h-25z" />
    <glyph glyph-name="hyphen" unicode="-" horiz-adv-x="304" 
d="M64 208v36h175v-36h-175z" />
    <glyph glyph-name="period" unicode="." horiz-adv-x="206" 
d="M103 -7q-15 0 -27.5 12t-12.5 28q0 17 12 28.5t28 11.5t28 -11.5t12 -28.5q0 -16 -12 -28t-28 -12z" />
    <glyph glyph-name="slash" unicode="/" horiz-adv-x="450" 
d="M34 -128l311 850h41l-311 -850h-41z" />
    <glyph glyph-name="zero" unicode="0" horiz-adv-x="625" 
d="M312 -8q-106 0 -182 74t-76 182q0 109 75.5 182t182.5 73t183 -73t76 -182q0 -108 -76 -182t-183 -74zM312 28q92 0 155 63.5t63 156.5q0 94 -63 156.5t-155 62.5t-154.5 -62t-62.5 -157q0 -94 62.5 -157t154.5 -63z" />
    <glyph glyph-name="one" unicode="1" horiz-adv-x="298" 
d="M143 34v426h-97v35h137v-461h80v-34h-209v34h89z" />
    <glyph glyph-name="two" unicode="2" horiz-adv-x="492" 
d="M46 0v26l205 155q117 89 117 176q0 50 -31.5 80t-83.5 30q-105 0 -142 -113l-35 10q17 65 64.5 102t112.5 37q66 0 110.5 -39.5t44.5 -106.5q0 -101 -129 -199l-123 -94q-38 -28 -48 -31q1 0 24 1.5t34 1.5h222l5 67h31v-103h-378z" />
    <glyph glyph-name="three" unicode="3" horiz-adv-x="499" 
d="M77 393v102h342v-26l-162 -178q-21 -23 -34 -29q98 6 160.5 -42t62.5 -134q0 -89 -59 -139t-145 -50q-70 0 -125.5 33t-81.5 92l34 17q53 -107 173 -107q70 0 117 40t47 114q0 72 -45 107.5t-126 35.5q-39 0 -79 -17l-8 10l195 212l27 28h-3q-3 0 -7 -0.5t-9 -1t-11 -0.5
h-11h-214l-5 -67h-33z" />
    <glyph glyph-name="four" unicode="4" horiz-adv-x="532" 
d="M288 -61h81v103h-330v24l344 429h26v-419h77v-34h-77v-103h78v-33h-199v33zM369 76v308q0 39 4 47l-4 -5q-4 -6 -11.5 -16t-14.5 -20l-225 -280l-33 -36q15 2 45 2h239z" />
    <glyph glyph-name="five" unicode="5" horiz-adv-x="501" 
d="M386 394l-5 66h-253v-212q51 34 121 34q89 0 143 -52.5t54 -138.5t-59 -140t-147 -54q-65 0 -114 26.5t-75 71.5l31 20q51 -82 158 -82q74 0 119.5 43t45.5 115q0 74 -40 114.5t-119 40.5q-94 0 -143 -57l-11 4v302h326v-101h-32z" />
    <glyph glyph-name="six" unicode="6" horiz-adv-x="517" 
d="M259 -8q-88 0 -146 55.5t-58 142.5q0 59 57 147l181 273h44l-144 -218q-23 -31 -34 -43q47 40 105 40q86 0 142 -56.5t56 -142.5q0 -84 -57.5 -141t-145.5 -57zM258 28q71 0 117.5 45.5t46.5 116.5q0 75 -43.5 119t-119.5 44q-73 0 -118.5 -47.5t-45.5 -115.5
q0 -72 44.5 -117t118.5 -45z" />
    <glyph glyph-name="seven" unicode="7" horiz-adv-x="460" 
d="M48 384v111h364v-25l-278 -564h-41l274 554h-282l-4 -76h-33z" />
    <glyph glyph-name="eight" unicode="8" horiz-adv-x="531" 
d="M265 -8q-95 0 -154 51t-59 132q0 62 39 106.5t104 60.5q-43 15 -68.5 48.5t-25.5 80.5q0 64 47.5 105.5t116.5 41.5q70 0 118 -41.5t48 -105.5q0 -47 -26 -80t-69 -49q65 -16 104 -60.5t39 -106.5q0 -81 -58.5 -132t-155.5 -51zM265 29q78 0 125.5 40t47.5 106
q0 67 -48 107.5t-125 40.5t-124.5 -40.5t-47.5 -107.5t47 -106.5t125 -39.5zM265 359q57 0 91.5 31t34.5 81q0 49 -35.5 80.5t-90.5 31.5q-56 0 -90.5 -31.5t-34.5 -80.5q0 -51 34 -81.5t91 -30.5z" />
    <glyph glyph-name="nine" unicode="9" horiz-adv-x="525" 
d="M208 -94l130 198q7 10 30 37q-45 -40 -110 -40q-88 0 -145.5 57t-57.5 144q0 84 59.5 142.5t148.5 58.5t148 -57t59 -144q0 -59 -58 -150l-160 -246h-44zM262 136q74 0 121 48t47 118q0 72 -46.5 118.5t-120.5 46.5t-121 -46t-47 -119q0 -76 45.5 -121t121.5 -45z" />
    <glyph glyph-name="colon" unicode=":" horiz-adv-x="216" 
d="M108 214q-15 0 -27.5 12t-12.5 28q0 17 12.5 29t27.5 12q16 0 28 -12t12 -29q0 -16 -12 -28t-28 -12zM108 -7q-15 0 -27.5 12t-12.5 28q0 17 12.5 29t27.5 12q16 0 28 -12t12 -29q0 -16 -12 -28t-28 -12z" />
    <glyph glyph-name="semicolon" unicode=";" horiz-adv-x="216" 
d="M108 214q-15 0 -27.5 12t-12.5 28q0 17 12.5 29t27.5 12q16 0 28 -12t12 -29q0 -16 -12 -28t-28 -12zM58 -111l39 107q-29 7 -29 37q0 16 12.5 28t27.5 12q16 0 28 -12t12 -28q0 -11 -4 -19l-61 -125h-25z" />
    <glyph glyph-name="less" unicode="&#x3c;" horiz-adv-x="363" 
d="M304 105l-258 134v10l258 132v-39l-196 -98l196 -99v-40z" />
    <glyph glyph-name="equal" unicode="=" horiz-adv-x="373" 
d="M54 283v36h265v-36h-265zM54 170v36h265v-36h-265z" />
    <glyph glyph-name="greater" unicode="&#x3e;" horiz-adv-x="363" 
d="M59 381l258 -134v-10l-258 -132v39l196 98l-196 99v40z" />
    <glyph glyph-name="question" unicode="?" horiz-adv-x="475" 
d="M187 166v185h27q68 0 111 43.5t43 107.5q0 71 -40 110t-105 39q-55 0 -91 -23.5t-61 -77.5l-34 17q23 58 72 89.5t114 31.5q82 0 134 -49.5t52 -136.5q0 -78 -52.5 -130t-131.5 -55v-151h-38zM205 -7q-15 0 -26.5 11.5t-11.5 26.5q0 16 11.5 27.5t26.5 11.5t26.5 -11.5
t11.5 -27.5t-11.5 -27t-26.5 -11z" />
    <glyph glyph-name="at" unicode="@" horiz-adv-x="876" 
d="M439 -206q-161 0 -271 110.5t-110 280.5q0 165 111 278t270 113q161 0 270 -107t109 -261q0 -108 -40 -161t-101 -53q-46 0 -73.5 26.5t-31.5 74.5q-44 -103 -148 -103q-74 0 -124.5 53.5t-50.5 133.5q0 82 50.5 136.5t124.5 54.5q100 0 145 -98l4 89h33v-235
q0 -99 71 -99q46 0 74.5 44.5t28.5 136.5q0 138 -94 236t-247 98q-149 0 -245.5 -104t-96.5 -253q0 -152 96 -254.5t246 -102.5q95 0 167 45l18 -30q-79 -49 -185 -49zM427 26q60 0 100.5 45t40.5 108q0 65 -40.5 111t-100.5 46t-99 -45.5t-39 -111.5q0 -64 39 -108.5
t99 -44.5z" />
    <glyph glyph-name="A" unicode="A" horiz-adv-x="689" 
d="M249 644v36h189v-36h-62l236 -608h52v-36h-169v36h75l-58 151h-337l-58 -151h77v-36h-169v36h52l235 608h-63zM324 578l-136 -355h311l-135 354q-3 8 -6.5 19.5t-6.5 20t-5 15.5t-2 8l-2 -8q-2 -7 -5 -15.5t-6.5 -19.5t-6.5 -19z" />
    <glyph glyph-name="B" unicode="B" horiz-adv-x="626" 
d="M60 680h278q93 0 141 -47t48 -122q0 -114 -96 -148q133 -28 133 -174q0 -87 -50.5 -138t-155.5 -51h-298v36h69v608h-69v36zM170 36h183q170 0 170 153t-173 153h-180v-306zM170 378h182q70 0 102 36t32 97t-36.5 97t-115.5 36h-164v-266z" />
    <glyph glyph-name="C" unicode="C" horiz-adv-x="749" 
d="M668 493h-37q-14 76 -74 117t-146 41q-131 0 -218.5 -89t-87.5 -222t87.5 -222t218.5 -89q162 0 247 121l31 -22q-45 -65 -117.5 -100.5t-160.5 -35.5q-147 0 -247.5 97.5t-100.5 250.5t100.5 250.5t247.5 97.5q150 0 220 -106l3 98h34v-187z" />
    <glyph glyph-name="D" unicode="D" horiz-adv-x="709" 
d="M170 37h99q164 0 249 82.5t85 220.5t-85 220.5t-249 82.5h-99v-606zM60 680h214q175 0 273.5 -91t98.5 -249t-98 -249t-274 -91h-214v36h69v608h-69v36z" />
    <glyph glyph-name="E" unicode="E" horiz-adv-x="596" 
d="M540 0h-480v36h69v608h-69v36h466v-129h-34l-7 93h-315v-284h279v-36h-279v-288h329l7 109h34v-145z" />
    <glyph glyph-name="F" unicode="F" horiz-adv-x="575" 
d="M525 551h-34l-7 93h-314v-299h292v-37h-292v-272h79v-36h-189v36h69v608h-69v36h465v-129z" />
    <glyph glyph-name="G" unicode="G" horiz-adv-x="767" 
d="M685 0h-34l-5 64q-92 -72 -232 -72q-148 0 -249.5 97.5t-101.5 250.5t101.5 250.5t249.5 97.5q69 0 128 -29.5t80 -73.5l3 95h34v-187h-38q-6 56 -39 93t-75.5 51t-92.5 14q-133 0 -221 -88.5t-88 -222.5q0 -133 88.5 -222t220.5 -89q145 0 231 80v158h-219v36h259v-303z
" />
    <glyph glyph-name="H" unicode="H" horiz-adv-x="736" 
d="M566 36v277h-396v-277h79v-36h-189v36h69v608h-69v36h189v-36h-79v-294h396v294h-79v36h189v-36h-69v-608h69v-36h-189v36h79z" />
    <glyph glyph-name="I" unicode="I" horiz-adv-x="303" 
d="M174 644v-608h69v-36h-183v36h73v608h-73v36h183v-36h-69z" />
    <glyph glyph-name="J" unicode="J" horiz-adv-x="465" 
d="M227 644v36h183v-36h-69v-476q0 -84 -47 -130t-122 -46q-107 0 -160 90l33 22q44 -75 126 -75q59 0 94 36t35 105v474h-73z" />
    <glyph glyph-name="K" unicode="K" horiz-adv-x="638" 
d="M578 644h-58l-221 -267l244 -341h60v-36h-184v36h76l-222 312l-103 -124v-188h79v-36h-189v36h69v608h-69v36h189v-36h-79v-307q0 -17 -4 -77q31 52 41 64l267 320h-75v36h179v-36z" />
    <glyph glyph-name="L" unicode="L" horiz-adv-x="543" 
d="M60 0v36h69v608h-69v36h189v-36h-79v-608h286l7 109h34v-145h-437z" />
    <glyph glyph-name="M" unicode="M" horiz-adv-x="892" 
d="M167 36h81v-36h-188v36h69v608h-69v36h118l267 -459l267 459h120v-36h-69v-608h69v-36h-188v36h79v534v15.5t0.5 18t1 16.5t0.5 13v5q-28 -57 -39 -75l-231 -394h-23l-231 394q-13 21 -36 74l1 -13q0 -12 0.5 -28t0.5 -26v-534z" />
    <glyph glyph-name="N" unicode="N" horiz-adv-x="764" 
d="M604 121v523h-82v36h189v-36h-69v-644h-32l-415 594l-31 46q3 -31 3 -51v-553h82v-36h-189v36h69v608h-69v36h121l395 -564l31 -46q-3 31 -3 51z" />
    <glyph glyph-name="O" unicode="O" horiz-adv-x="822" 
d="M411 -8q-147 0 -247.5 97.5t-100.5 250.5t100.5 250.5t247.5 97.5t247.5 -97.5t100.5 -250.5t-100.5 -250.5t-247.5 -97.5zM411 29q131 0 218.5 89t87.5 222t-87.5 222t-218.5 89t-218.5 -89t-87.5 -222t87.5 -222t218.5 -89z" />
    <glyph glyph-name="P" unicode="P" horiz-adv-x="592" 
d="M170 311h135q200 0 200 166q0 167 -200 167h-135v-333zM60 680h249q113 0 175.5 -52.5t62.5 -150.5q0 -96 -62.5 -149t-175.5 -53h-139v-239h79v-36h-189v36h69v608h-69v36z" />
    <glyph glyph-name="Q" unicode="Q" horiz-adv-x="831" 
d="M411 -8q-147 0 -247.5 97.5t-100.5 250.5t100.5 250.5t247.5 97.5t247.5 -97.5t100.5 -250.5q0 -155 -104 -254l47 -50h89v-36h-107l-59 61q-93 -69 -214 -69zM486 207l29 26l112 -118q90 90 90 225q0 133 -87.5 222t-218.5 89t-218.5 -89t-87.5 -222t87.5 -222
t218.5 -89q107 0 187 61z" />
    <glyph glyph-name="R" unicode="R" horiz-adv-x="650" 
d="M60 680h251q110 0 173 -51.5t63 -148.5q0 -73 -38.5 -121.5t-108.5 -67.5l144 -255h75v-36h-100l-160 283q-15 -2 -48 -2h-141v-245h79v-36h-189v36h69v608h-69v36zM170 317h137q198 0 198 163q0 164 -198 164h-137v-327z" />
    <glyph glyph-name="S" unicode="S" horiz-adv-x="533" 
d="M433 524h-37q-5 62 -44.5 95t-95.5 33q-59 0 -93 -31.5t-34 -83.5q0 -50 26.5 -80t91.5 -60l63 -29q84 -38 123.5 -85.5t39.5 -116.5q0 -78 -55.5 -126t-141.5 -48q-67 0 -113 25.5t-66 64.5l-3 -82h-34v181h38q11 -76 56.5 -114.5t120.5 -38.5q66 0 112 38t46 100
q0 57 -32.5 94t-106.5 71l-63 29q-74 34 -108 74t-34 102q0 69 48 110.5t119 41.5q50 0 87 -20.5t53 -53.5l3 66h34v-156z" />
    <glyph glyph-name="T" unicode="T" horiz-adv-x="601" 
d="M88 541h-34v139h493v-139h-34l-7 103h-185v-608h78v-36h-197v36h78v608h-185z" />
    <glyph glyph-name="U" unicode="U" horiz-adv-x="701" 
d="M580 644v-418q0 -111 -64.5 -172.5t-165.5 -61.5q-102 0 -165.5 61.5t-63.5 172.5v418h-69v36h189v-36h-79v-415q0 -96 51 -148.5t137 -52.5t137.5 52.5t51.5 148.5v415h-79v36h189v-36h-69z" />
    <glyph glyph-name="V" unicode="V" horiz-adv-x="679" 
d="M189 680v-36h-71l204 -536q9 -23 19 -64q10 41 19 64l203 536h-73v36h169v-36h-55l-246 -644h-36l-248 644h-54v36h169z" />
    <glyph glyph-name="W" unicode="W" horiz-adv-x="951" 
d="M926 680v-36h-47l-182 -644h-35l-176 571q-5 14 -11 52q0 -1 -2 -10.5t-4.5 -21.5t-5.5 -20l-177 -571h-35l-183 644h-43v36h164v-36h-78l148 -527l11 -52l13 52l175 563h34l175 -563l12 -52q0 1 2 11t5 21.5t5 19.5l148 527h-78v36h165z" />
    <glyph glyph-name="X" unicode="X" horiz-adv-x="681" 
d="M472 0v36h62l-182 279q-8 11 -12 24l-2 -5l-5 -10t-5 -9l-183 -279h64v-36h-169v36h61l217 332l-180 276h-59v36h164v-36h-58l145 -221q6 -11 11 -25q0 4 13 25l145 221h-63v36h165v-36h-58l-180 -275l218 -333h60v-36h-169z" />
    <glyph glyph-name="Y" unicode="Y" horiz-adv-x="650" 
d="M622 680v-36h-61l-215 -395v-213h78v-36h-198v36h78v214l-216 394h-60v36h169v-36h-63l175 -321q4 -8 17 -40q0 9 18 41l174 320h-65v36h169z" />
    <glyph glyph-name="Z" unicode="Z" horiz-adv-x="582" 
d="M133 551h-35v129h421v-25l-420 -619h389l7 109h35v-145h-485v27l421 617h-326z" />
    <glyph glyph-name="bracketleft" unicode="[" horiz-adv-x="288" 
d="M97 -128v850h168v-35h-128v-780h128v-35h-168z" />
    <glyph glyph-name="backslash" unicode="\" horiz-adv-x="450" 
d="M375 -128l-311 850h41l311 -850h-41z" />
    <glyph glyph-name="bracketright" unicode="]" horiz-adv-x="289" 
d="M23 -128v35h128v780h-128v35h169v-850h-169z" />
    <glyph glyph-name="asciicircum" unicode="^" horiz-adv-x="415" 
d="M79 471l124 217h9l124 -217h-34l-94 151l-95 -151h-34z" />
    <glyph glyph-name="underscore" unicode="_" horiz-adv-x="252" 
d="M2 -128v34h248v-34h-248z" />
    <glyph glyph-name="grave" unicode="`" horiz-adv-x="437" 
d="M230 497l-88 195h46l75 -195h-33z" />
    <glyph glyph-name="a" unicode="a" horiz-adv-x="477" 
d="M447 0h-102v63q-47 -71 -141 -71q-71 0 -112.5 32.5t-41.5 92.5q0 58 43 88.5t106 30.5h144v20q0 127 -109 127q-87 0 -133 -70l-28 20q54 84 162 84q66 0 106.5 -40t40.5 -117v-227h65v-33zM343 204h-139q-51 0 -83 -21t-32 -65q0 -91 119 -91q54 0 94.5 29t40.5 74v74z
" />
    <glyph glyph-name="b" unicode="b" horiz-adv-x="568" 
d="M142 0h-103v33h66v655h-71v34h110v-411q24 48 68.5 77t104.5 29q87 0 144.5 -61t57.5 -151q0 -91 -57.5 -152t-144.5 -61q-58 0 -105.5 30.5t-69.5 79.5v-102zM312 27q75 0 120.5 50.5t45.5 127.5t-45.5 127t-120.5 50q-76 0 -123.5 -50t-47.5 -127t47.5 -127.5
t123.5 -50.5z" />
    <glyph glyph-name="c" unicode="c" horiz-adv-x="476" 
d="M414 291h-32q-25 91 -121 91q-76 0 -122 -50.5t-46 -127.5q0 -76 46 -126.5t120 -50.5q89 0 137 61l28 -23q-59 -73 -165 -73q-87 0 -147 62t-60 150q0 89 60 151t149 62q82 0 119 -56l3 47h31v-117z" />
    <glyph glyph-name="d" unicode="d" horiz-adv-x="565" 
d="M427 688h-74v34h113v-689h65v-33h-102v102q-22 -49 -69.5 -79.5t-105.5 -30.5q-87 0 -144.5 61t-57.5 152q0 90 57.5 151t144.5 61q60 0 104.5 -29t68.5 -77v377zM259 382q-75 0 -120.5 -50t-45.5 -127t45.5 -127.5t120.5 -50.5q76 0 123.5 50.5t47.5 127.5t-47.5 127
t-123.5 50z" />
    <glyph glyph-name="e" unicode="e" horiz-adv-x="506" 
d="M89 196q2 -75 48.5 -122t124.5 -47q91 0 143 64l26 -23q-61 -76 -169 -76q-95 0 -154 61t-59 151q0 88 59.5 150.5t145.5 62.5q91 0 146.5 -63t53.5 -158h-365zM90 228h324q-5 67 -46 111t-114 44q-68 0 -112 -43.5t-52 -111.5z" />
    <glyph glyph-name="f" unicode="f" horiz-adv-x="288" 
d="M101 375h-67v33h67v210q0 59 26.5 88t68.5 29q61 0 90 -50l-30 -20q-23 35 -59 35q-57 0 -57 -83v-209h109v-33h-109v-342h83v-33h-184v33h62v342z" />
    <glyph glyph-name="g" unicode="g" horiz-adv-x="469" 
d="M291 408h145v-33h-92q44 -39 44 -100q0 -62 -43 -102.5t-110 -40.5q-47 0 -81 19q-23 -4 -35.5 -17t-12.5 -32q0 -44 59 -49l106 -10q92 -9 131.5 -37t39.5 -87q0 -66 -59.5 -104t-153.5 -38q-93 0 -148.5 35.5t-55.5 98.5q0 83 106 114q-60 16 -60 73q0 25 15.5 44.5
t40.5 27.5q-48 40 -48 105q0 62 44 102t112 40q31 0 56 -9zM235 165q53 0 84 30t31 80t-31 79.5t-84 29.5q-54 0 -85.5 -29.5t-31.5 -79.5t31.5 -80t85.5 -30zM180 14q-115 -23 -115 -102q0 -49 42 -75t122 -26q77 0 125.5 28t48.5 80q0 43 -29.5 63t-107.5 26z" />
    <glyph glyph-name="h" unicode="h" horiz-adv-x="545" 
d="M104 688h-70v34h109v-401q21 44 61.5 70t93.5 26q69 0 110.5 -43.5t41.5 -118.5v-222h65v-33h-177v33h73v215q0 64 -30 98.5t-88 34.5q-67 0 -108.5 -41.5t-41.5 -111.5v-195h73v-33h-177v33h65v655z" />
    <glyph glyph-name="i" unicode="i" horiz-adv-x="245" 
d="M125 551q-13 0 -23 9.5t-10 23.5t10 23.5t23 9.5t23 -9.5t10 -23.5t-10 -23.5t-23 -9.5zM145 408v-375h66v-33h-172v33h67v341h-72v34h111z" />
    <glyph glyph-name="j" unicode="j" horiz-adv-x="237" 
d="M124 551q-13 0 -23 9.5t-10 23.5t10 23.5t23 9.5t23 -9.5t10 -23.5t-10 -23.5t-23 -9.5zM144 408v-520q0 -54 -25.5 -82t-65.5 -28q-53 0 -83 36l24 25q25 -27 57 -27q54 0 54 77v485h-71v34h110z" />
    <glyph glyph-name="k" unicode="k" horiz-adv-x="483" 
d="M279 374v34h151v-34h-50l-132 -139l167 -202h50v-33h-163v33h65l-146 176l-78 -82v-94h73v-33h-177v33h65v655h-70v34h109v-478q0 -46 -3 -76l194 206h-55z" />
    <glyph glyph-name="l" unicode="l" horiz-adv-x="254" 
d="M110 33v655h-76v34h115v-689h71v-33h-181v33h71z" />
    <glyph glyph-name="m" unicode="m" horiz-adv-x="777" 
d="M306 0v33h68v233q0 115 -102 115q-56 0 -92.5 -39.5t-36.5 -107.5v-201h73v-33h-177v33h65v341h-70v34h108v-83q19 43 54 67.5t80 24.5q50 0 83 -25.5t44 -67.5q22 45 60 69t83 24q62 0 99 -38.5t37 -105.5v-240h65v-33h-177v33h73v233q0 115 -101 115q-56 0 -92.5 -39.5
t-36.5 -107.5v-201h70v-33h-177z" />
    <glyph glyph-name="n" unicode="n" horiz-adv-x="545" 
d="M39 0v33h65v341h-70v34h108v-91q20 47 61 73.5t95 26.5q69 0 110.5 -43.5t41.5 -118.5v-222h65v-33h-177v33h73v215q0 64 -30 98.5t-88 34.5q-67 0 -108.5 -41.5t-41.5 -111.5v-195h73v-33h-177z" />
    <glyph glyph-name="o" unicode="o" horiz-adv-x="522" 
d="M262 -8q-89 0 -151 62.5t-62 150.5t62 150t151 62t150 -62t61 -150t-61 -150.5t-150 -62.5zM262 27q76 0 123.5 50.5t47.5 127.5t-47.5 127t-123.5 50t-124.5 -50.5t-48.5 -126.5t48.5 -127t124.5 -51z" />
    <glyph glyph-name="p" unicode="p" horiz-adv-x="567" 
d="M311 27q75 0 120.5 50.5t45.5 127.5t-45.5 127t-120.5 50q-76 0 -123.5 -50t-47.5 -127t47.5 -127.5t123.5 -50.5zM141 408v-100q23 49 69 79t106 30q87 0 144.5 -61t57.5 -151q0 -91 -57.5 -152t-144.5 -61q-57 0 -103.5 30t-69.5 77l1 -278h72v-33h-177v33h65v553h-70
v34h107z" />
    <glyph glyph-name="q" unicode="q" horiz-adv-x="562" 
d="M351 -212v33h73v278q-23 -47 -69.5 -77t-103.5 -30q-87 0 -144.5 61t-57.5 152q0 90 57.5 151t144.5 61q60 0 105.5 -30t69.5 -79v100h99v-34h-62v-553h65v-33h-177zM256 382q-75 0 -120.5 -50t-45.5 -127t45.5 -127.5t120.5 -50.5q76 0 123.5 50.5t47.5 127.5t-47.5 127
t-123.5 50z" />
    <glyph glyph-name="r" unicode="r" horiz-adv-x="361" 
d="M143 33h73v-33h-177v33h65v341h-70v34h108v-82q35 90 119 90q46 0 74 -21l-19 -32q-23 17 -60 17q-47 0 -80 -39t-33 -109v-199z" />
    <glyph glyph-name="s" unicode="s" horiz-adv-x="394" 
d="M289 307q-18 76 -102 76q-39 0 -62 -18.5t-23 -48.5q0 -34 21.5 -51t83.5 -36q67 -20 101.5 -45.5t34.5 -77.5q0 -50 -37 -82t-103 -32q-83 0 -120 62l-3 -54h-32v121h34q7 -45 39.5 -70t81.5 -25q48 0 74.5 21t26.5 58t-22.5 52.5t-82.5 33.5q-7 2 -10 3
q-64 20 -94.5 45t-30.5 75q0 44 35.5 73.5t87.5 29.5q65 0 100 -50l3 41h31v-101h-32z" />
    <glyph glyph-name="t" unicode="t" horiz-adv-x="308" 
d="M188 -8q-42 0 -68 28.5t-26 87.5v267h-64v33h64v143h39v-143h118v-33h-118v-266q0 -82 55 -82q37 0 65 30l25 -24q-36 -41 -90 -41z" />
    <glyph glyph-name="u" unicode="u" horiz-adv-x="529" 
d="M429 33h66v-33h-104v90q-21 -46 -61.5 -72.5t-93.5 -26.5q-69 0 -110.5 43t-41.5 117v223h-70v34h109v-251q0 -130 117 -130q67 0 108.5 41.5t41.5 111.5v194h-70v34h109v-375z" />
    <glyph glyph-name="v" unicode="v" horiz-adv-x="484" 
d="M24 374v34h142v-34h-57l118 -280q12 -29 18 -52q0 14 17 52l115 280h-57v34h140v-34h-43l-158 -374h-30l-162 374h-43z" />
    <glyph glyph-name="w" unicode="w" horiz-adv-x="693" 
d="M529 374v34h140v-34h-42l-127 -374h-30l-109 306q-13 38 -15 46l-14 -46l-111 -306h-30l-127 374h-40v34h142v-34h-61l88 -270l15 -49q0 1 2.5 8.5l6.5 19.5l7 21l107 304h29l109 -303q3 -8 6.5 -19t6.5 -19.5t4 -10.5q0 9 14 49l88 269h-59z" />
    <glyph glyph-name="x" unicode="x" horiz-adv-x="490" 
d="M283 0v33h76l-95 132q-16 19 -20 32l-4 -6q-3 -6 -7.5 -13.5t-8.5 -12.5l-97 -132h80v-33h-177v33h54l138 185l-118 156h-47v34h138v-34h-44l75 -99q4 -5 8.5 -12.5t7.5 -13.5t4 -7q14 27 18 33l76 99h-45v34h134v-34h-46l-116 -153l139 -188h54v-33h-177z" />
    <glyph glyph-name="y" unicode="y" horiz-adv-x="490" 
d="M24 374v34h142v-34h-55l127 -268q4 -10 10 -27.5t6 -18.5q0 16 15 46l114 268h-57v34h140v-34h-43l-252 -586h-103v33h77l89 209l-165 344h-45z" />
    <glyph glyph-name="z" unicode="z" horiz-adv-x="419" 
d="M67 311v97h304v-25l-277 -349h241l7 69h31v-103h-329v25l275 349h-214l-7 -63h-31z" />
    <glyph glyph-name="braceleft" unicode="{" horiz-adv-x="353" 
d="M271 -128q-121 0 -121 144v198q0 40 -14.5 55.5t-44.5 15.5h-57v35h57q30 0 44.5 15.5t14.5 55.5v187q0 144 121 144h44v-35h-43q-40 0 -61 -24t-21 -85v-190q0 -71 -52 -85q52 -13 52 -86v-201q0 -61 21 -85t61 -24h43v-35h-44z" />
    <glyph glyph-name="bar" unicode="|" horiz-adv-x="226" 
d="M94 -128v850h38v-850h-38z" />
    <glyph glyph-name="braceright" unicode="}" horiz-adv-x="352" 
d="M82 722q120 0 120 -144v-186q0 -40 15 -56t45 -16h56v-35h-56q-30 0 -45 -15.5t-15 -54.5v-199q0 -144 -120 -144h-44v35h43q40 0 60.5 24t20.5 85v201q0 73 53 85q-53 12 -53 87v189q0 61 -20.5 85t-60.5 24h-43v35h44z" />
    <glyph glyph-name="asciitilde" unicode="~" horiz-adv-x="394" 
d="M97 233l-34 3q2 46 22 71.5t53 25.5q20 0 35 -8.5t36 -29.5q20 -20 28.5 -25t20.5 -5q33 0 39 65l34 -3q-5 -96 -74 -96q-20 0 -34.5 9t-36.5 30q-20 19 -28 24t-21 5q-34 0 -40 -66z" />
    <glyph glyph-name="uni00A0" unicode="&#xa0;" horiz-adv-x="252" 
 />
    <glyph glyph-name="exclamdown" unicode="&#xa1;" horiz-adv-x="250" 
d="M125 467q15 0 26.5 -11.5t11.5 -26.5q0 -16 -11.5 -27.5t-26.5 -11.5t-26.5 11.5t-11.5 27.5t11.5 27t26.5 11zM140 290l7 -510h-44l7 510h30z" />
    <glyph glyph-name="cent" unicode="&#xa2;" horiz-adv-x="476" 
d="M414 291h-32q-24 87 -112 91v-355q79 3 126 61l28 -23q-55 -69 -154 -73v-108h-34v109q-79 8 -131.5 68t-52.5 143q0 82 52 143t132 70v106h34v-106q75 -4 110 -56l3 47h31v-117zM93 204q0 -70 39 -119t104 -57v354q-66 -9 -104.5 -58.5t-38.5 -119.5z" />
    <glyph glyph-name="sterling" unicode="&#xa3;" horiz-adv-x="536" 
d="M206 85q-48 39 -79 39q-26 0 -41 -13.5t-15 -36.5t15 -37t41 -14q29 0 51.5 17.5t27.5 44.5zM467 610v-167h-35q-6 68 -45.5 103.5t-96.5 35.5q-62 0 -98.5 -34.5t-36.5 -94.5q0 -56 36 -153h167v-33h-154q33 -90 37 -150q1 -5 1 -17q62 -50 92 -62q24 -10 47 -10
q56 0 96 45l25 -25q-49 -56 -121 -56q-65 0 -146 69q-13 -31 -42 -50t-66 -19q-41 0 -66 23t-25 59t25 58.5t66 22.5q36 0 80 -28q-5 51 -42 140h-94v33h81q-38 95 -38 154q0 70 50 117t126 47q102 0 142 -78l3 70h32z" />
    <glyph glyph-name="yen" unicode="&#xa5;" horiz-adv-x="546" 
d="M365 461v34h142v-34h-52l-96 -164h102v-33h-122l-49 -84h171v-33h-172v-114h67v-33h-177v33h69v114h-172v33h170l-47 84h-123v33h105l-91 164h-51v34h142v-34h-45l113 -209q5 -10 10.5 -22t8.5 -20l3 -9q6 22 22 51l120 209h-48z" />
    <glyph glyph-name="section" unicode="&#xa7;" horiz-adv-x="509" 
d="M90 91q7 -159 156 -159q57 0 88.5 26t31.5 70q0 37 -24 60.5t-78 44.5l-87 34q-68 27 -98.5 60t-30.5 84q0 72 76 108q-15 30 -15 65q0 59 41.5 96.5t104.5 38.5q96 0 133 -75l3 67h31v-165h-35q-6 68 -40 102.5t-89 34.5q-49 0 -79 -26t-30 -72q0 -40 20 -64.5t67 -44.5
l96 -39q69 -28 99 -62t30 -80q0 -33 -21 -58.5t-56 -39.5q22 -30 22 -69q0 -58 -42 -94.5t-115 -36.5q-115 0 -161 84l-3 -75h-32v185h37zM363 121q59 21 59 72q0 37 -21.5 60t-81.5 47l-96 39q-55 22 -83 56q-52 -25 -52 -82q0 -40 22 -63t79 -46l87 -34q55 -21 87 -49z
" />
    <glyph glyph-name="dieresis" unicode="&#xa8;" horiz-adv-x="508" 
d="M330 521q-13 0 -22.5 9.5t-9.5 22.5t9.5 22.5t22.5 9.5t22.5 -9.5t9.5 -22.5t-9.5 -22.5t-22.5 -9.5zM178 521q-13 0 -22.5 9.5t-9.5 22.5t9.5 22.5t22.5 9.5t22.5 -9.5t9.5 -22.5t-9.5 -22.5t-22.5 -9.5z" />
    <glyph glyph-name="copyright" unicode="&#xa9;" horiz-adv-x="608" 
d="M304 -8q-106 0 -181 73.5t-75 181.5q0 110 75 183t181 73t181 -73t75 -183q0 -108 -75 -181.5t-181 -73.5zM304 23q95 0 159 64t64 160q0 97 -64 161t-159 64t-159 -64t-64 -161q0 -96 64 -160t159 -64zM307 364q-44 0 -74.5 -33.5t-30.5 -83.5q0 -49 29.5 -82.5
t74.5 -33.5q57 0 93 44l25 -23q-45 -54 -118 -54q-62 0 -103 43t-41 106t42.5 106.5t99.5 43.5q64 0 88 -40l2 31h26v-85h-28q-19 61 -85 61z" />
    <glyph glyph-name="ordfeminine" unicode="&#xaa;" horiz-adv-x="420" 
d="M296 354v5q0 63 -23.5 87t-69.5 24q-67 0 -111 -58l-25 19q45 72 136 72q60 0 95.5 -33.5t35.5 -106.5v-179h57v-34h-95v47q-38 -55 -119 -55q-59 0 -96 28t-37 80q0 51 39 77.5t97 26.5h116zM296 322h-111q-102 0 -102 -72q0 -75 100 -75q47 0 80 23t33 67v57z" />
    <glyph glyph-name="guillemotleft" unicode="&#xab;" horiz-adv-x="363" 
d="M269 40l-93 154v8l93 154h43l-95 -158l95 -158h-43zM142 40l-93 154v8l93 154h43l-95 -158l95 -158h-43z" />
    <glyph glyph-name="registered" unicode="&#xae;" horiz-adv-x="527" 
d="M190 394v183h-27v27h106q42 0 66 -20t24 -53q0 -54 -55 -71l42 -66h23v-27h-43l-56 90h-46v-63h23v-27h-80v27h23zM262 270q-90 0 -153 61t-63 152t63 152.5t153 61.5q91 0 155 -61.5t64 -152.5t-64 -152t-155 -61zM262 299q81 0 133 51.5t52 132.5q0 82 -52 133.5
t-133 51.5q-79 0 -130 -51.5t-51 -133.5q0 -81 51 -132.5t130 -51.5zM224 485h43q56 0 56 46q0 45 -56 45h-43v-91z" />
    <glyph glyph-name="macron" unicode="&#xaf;" horiz-adv-x="508" 
d="M157 510v34h194v-34h-194z" />
    <glyph glyph-name="degree" unicode="&#xb0;" horiz-adv-x="330" 
d="M165 294q-44 0 -75 30.5t-31 73.5q0 44 31 74.5t75 30.5t75 -30.5t31 -74.5q0 -43 -31 -73.5t-75 -30.5zM165 324q32 0 51.5 21t19.5 53q0 33 -19.5 54t-51.5 21t-52 -21t-20 -54q0 -32 20 -53t52 -21z" />
    <glyph glyph-name="acute" unicode="&#xb4;" horiz-adv-x="437" 
d="M174 497l75 195h46l-88 -195h-33z" />
    <glyph glyph-name="paragraph" unicode="&#xb6;" horiz-adv-x="544" 
d="M270 0v332h-30q-79 0 -127.5 50t-48.5 124t48.5 124t127.5 50h196v-680h-39v644h-87v-644h-40z" />
    <glyph glyph-name="periodcentered" unicode="&#xb7;" horiz-adv-x="206" 
d="M103 197q-15 0 -27.5 12t-12.5 28q0 17 12 28.5t28 11.5t28 -11.5t12 -28.5q0 -16 -12 -28t-28 -12z" />
    <glyph glyph-name="cedilla" unicode="&#xb8;" horiz-adv-x="508" 
d="M259 -228q-68 0 -94 58l30 18q21 -43 63 -43q22 0 37 14t15 38t-15.5 39.5t-46.5 15.5h-15v88h36v-59q33 -4 56.5 -27t23.5 -58q0 -39 -26.5 -61.5t-63.5 -22.5z" />
    <glyph glyph-name="ordmasculine" unicode="&#xba;" horiz-adv-x="450" 
d="M225 143q-74 0 -126 51.5t-52 128.5q0 76 52 128t126 52t126 -52t52 -128q0 -77 -52 -128.5t-126 -51.5zM225 176q61 0 100 41.5t39 105.5t-39 105.5t-100 41.5t-100 -41.5t-39 -105.5t39 -105.5t100 -41.5z" />
    <glyph glyph-name="guillemotright" unicode="&#xbb;" horiz-adv-x="363" 
d="M178 40l95 158l-95 158h43l93 -154v-8l-93 -154h-43zM51 40l95 158l-95 158h43l93 -154v-8l-93 -154h-43z" />
    <glyph glyph-name="questiondown" unicode="&#xbf;" horiz-adv-x="475" 
d="M288 299v-185h-27q-68 0 -111 -43.5t-43 -107.5q0 -71 40 -110t105 -39q55 0 91 23.5t61 77.5l34 -17q-23 -58 -72 -89.5t-114 -31.5q-82 0 -134 49.5t-52 136.5q0 78 52.5 130t131.5 55v151h38zM270 472q15 0 26.5 -11.5t11.5 -26.5q0 -16 -11.5 -27.5t-26.5 -11.5
t-26.5 11.5t-11.5 27.5t11.5 27t26.5 11z" />
    <glyph glyph-name="Agrave" unicode="&#xc0;" horiz-adv-x="689" 
d="M249 644v36h189v-36h-62l236 -608h52v-36h-169v36h75l-58 151h-337l-58 -151h77v-36h-169v36h52l235 608h-63zM324 578l-136 -355h311l-135 354q-3 8 -6.5 19.5t-6.5 20t-5 15.5t-2 8l-2 -8q-2 -7 -5 -15.5t-6.5 -19.5t-6.5 -19zM329 755l-88 195h46l75 -195h-33z" />
    <glyph glyph-name="Aacute" unicode="&#xc1;" horiz-adv-x="689" 
d="M249 644v36h189v-36h-62l236 -608h52v-36h-169v36h75l-58 151h-337l-58 -151h77v-36h-169v36h52l235 608h-63zM324 578l-136 -355h311l-135 354q-3 8 -6.5 19.5t-6.5 20t-5 15.5t-2 8l-2 -8q-2 -7 -5 -15.5t-6.5 -19.5t-6.5 -19zM324 755l75 195h46l-88 -195h-33z" />
    <glyph glyph-name="Acircumflex" unicode="&#xc2;" horiz-adv-x="689" 
d="M249 644v36h189v-36h-62l236 -608h52v-36h-169v36h75l-58 151h-337l-58 -151h77v-36h-169v36h52l235 608h-63zM324 578l-136 -355h311l-135 354q-3 8 -6.5 19.5t-6.5 20t-5 15.5t-2 8l-2 -8q-2 -7 -5 -15.5t-6.5 -19.5t-6.5 -19zM227 752l113 182h9l113 -182h-35l-82 119
l-83 -119h-35z" />
    <glyph glyph-name="Atilde" unicode="&#xc3;" horiz-adv-x="689" 
d="M249 644v36h189v-36h-62l236 -608h52v-36h-169v36h75l-58 151h-337l-58 -151h77v-36h-169v36h52l235 608h-63zM324 578l-136 -355h311l-135 354q-3 8 -6.5 19.5t-6.5 20t-5 15.5t-2 8l-2 -8q-2 -7 -5 -15.5t-6.5 -19.5t-6.5 -19zM244 747l-34 3q2 46 22 71.5t53 25.5
q20 0 35 -8.5t36 -29.5q20 -20 28.5 -25t20.5 -5q33 0 39 65l34 -3q-5 -96 -74 -96q-20 0 -34.5 9t-36.5 30q-20 19 -28 24t-21 5q-34 0 -40 -66z" />
    <glyph glyph-name="Adieresis" unicode="&#xc4;" horiz-adv-x="689" 
d="M249 644v36h189v-36h-62l236 -608h52v-36h-169v36h75l-58 151h-337l-58 -151h77v-36h-169v36h52l235 608h-63zM324 578l-136 -355h311l-135 354q-3 8 -6.5 19.5t-6.5 20t-5 15.5t-2 8l-2 -8q-2 -7 -5 -15.5t-6.5 -19.5t-6.5 -19zM420 779q-13 0 -22.5 9.5t-9.5 22.5
t9.5 22.5t22.5 9.5t22.5 -9.5t9.5 -22.5t-9.5 -22.5t-22.5 -9.5zM268 779q-13 0 -22.5 9.5t-9.5 22.5t9.5 22.5t22.5 9.5t22.5 -9.5t9.5 -22.5t-9.5 -22.5t-22.5 -9.5z" />
    <glyph glyph-name="Aring" unicode="&#xc5;" horiz-adv-x="689" 
d="M249 644v36h189v-36h-62l236 -608h52v-36h-169v36h75l-58 151h-337l-58 -151h77v-36h-169v36h52l235 608h-63zM324 578l-136 -355h311l-135 354q-3 8 -6.5 19.5t-6.5 20t-5 15.5t-2 8l-2 -8q-2 -7 -5 -15.5t-6.5 -19.5t-6.5 -19zM344 746q-39 0 -66.5 27t-27.5 65
t27.5 65t66.5 27t66.5 -27t27.5 -65t-27.5 -65t-66.5 -27zM344 777q26 0 42 16.5t16 44.5t-16 44.5t-42 16.5t-42 -16.5t-16 -44.5t16 -44.5t42 -16.5z" />
    <glyph glyph-name="AE" unicode="&#xc6;" horiz-adv-x="942" 
d="M390 0v36h74v126h-272l-73 -126h76v-36h-175v36h53l364 608h-51v36h475v-129h-34l-7 93h-315v-284h279v-36h-279v-288h329l7 109h34v-145h-485zM214 198h250v358q0 39 8 92q-20 -47 -34 -71z" />
    <glyph glyph-name="Ccedilla" unicode="&#xc7;" horiz-adv-x="749" 
d="M400 -228q-68 0 -94 58l30 18q21 -43 63 -43q22 0 37 14t15 38t-15.5 39.5t-46.5 15.5h-15v82q-134 13 -222.5 108t-88.5 238q0 153 100.5 250.5t247.5 97.5q150 0 220 -106l3 98h34v-187h-37q-14 76 -74 117t-146 41q-131 0 -218.5 -89t-87.5 -222t87.5 -222t218.5 -89
q162 0 247 121l31 -22q-45 -65 -117.5 -100.5t-160.5 -35.5h-1v-51q33 -4 56.5 -27t23.5 -58q0 -39 -26.5 -61.5t-63.5 -22.5z" />
    <glyph glyph-name="Egrave" unicode="&#xc8;" horiz-adv-x="596" 
d="M540 0h-480v36h69v608h-69v36h466v-129h-34l-7 93h-315v-284h279v-36h-279v-288h329l7 109h34v-145zM308 755l-88 195h46l75 -195h-33z" />
    <glyph glyph-name="Eacute" unicode="&#xc9;" horiz-adv-x="596" 
d="M540 0h-480v36h69v608h-69v36h466v-129h-34l-7 93h-315v-284h279v-36h-279v-288h329l7 109h34v-145zM303 755l75 195h46l-88 -195h-33z" />
    <glyph glyph-name="Ecircumflex" unicode="&#xca;" horiz-adv-x="596" 
d="M540 0h-480v36h69v608h-69v36h466v-129h-34l-7 93h-315v-284h279v-36h-279v-288h329l7 109h34v-145zM206 752l113 182h9l113 -182h-35l-82 119l-83 -119h-35z" />
    <glyph glyph-name="Edieresis" unicode="&#xcb;" horiz-adv-x="596" 
d="M540 0h-480v36h69v608h-69v36h466v-129h-34l-7 93h-315v-284h279v-36h-279v-288h329l7 109h34v-145zM399 779q-13 0 -22.5 9.5t-9.5 22.5t9.5 22.5t22.5 9.5t22.5 -9.5t9.5 -22.5t-9.5 -22.5t-22.5 -9.5zM247 779q-13 0 -22.5 9.5t-9.5 22.5t9.5 22.5t22.5 9.5t22.5 -9.5
t9.5 -22.5t-9.5 -22.5t-22.5 -9.5z" />
    <glyph glyph-name="Igrave" unicode="&#xcc;" horiz-adv-x="303" 
d="M174 644v-608h69v-36h-183v36h73v608h-73v36h183v-36h-69zM136 755l-88 195h46l75 -195h-33z" />
    <glyph glyph-name="Iacute" unicode="&#xcd;" horiz-adv-x="303" 
d="M174 644v-608h69v-36h-183v36h73v608h-73v36h183v-36h-69zM131 755l75 195h46l-88 -195h-33z" />
    <glyph glyph-name="Icircumflex" unicode="&#xce;" horiz-adv-x="303" 
d="M174 644v-608h69v-36h-183v36h73v608h-73v36h183v-36h-69zM34 752l113 182h9l113 -182h-35l-82 119l-83 -119h-35z" />
    <glyph glyph-name="Idieresis" unicode="&#xcf;" horiz-adv-x="303" 
d="M174 644v-608h69v-36h-183v36h73v608h-73v36h183v-36h-69zM227 779q-13 0 -22.5 9.5t-9.5 22.5t9.5 22.5t22.5 9.5t22.5 -9.5t9.5 -22.5t-9.5 -22.5t-22.5 -9.5zM75 779q-13 0 -22.5 9.5t-9.5 22.5t9.5 22.5t22.5 9.5t22.5 -9.5t9.5 -22.5t-9.5 -22.5t-22.5 -9.5z" />
    <glyph glyph-name="Eth" unicode="&#xd0;" horiz-adv-x="709" 
d="M60 680h214q175 0 273.5 -91t98.5 -249t-98 -249t-274 -91h-214v36h69v288h-88v36h88v284h-69v36zM170 37h99q164 0 249 82.5t85 220.5t-85 220.5t-249 82.5h-99v-283h198v-36h-198v-287z" />
    <glyph glyph-name="Ntilde" unicode="&#xd1;" horiz-adv-x="764" 
d="M604 121v523h-82v36h189v-36h-69v-644h-32l-415 594l-31 46q3 -31 3 -51v-553h82v-36h-189v36h69v608h-69v36h121l395 -564l31 -46q-3 31 -3 51zM285 747l-34 3q2 46 22 71.5t53 25.5q20 0 35 -8.5t36 -29.5q20 -20 28.5 -25t20.5 -5q33 0 39 65l34 -3q-5 -96 -74 -96
q-20 0 -34.5 9t-36.5 30q-20 19 -28 24t-21 5q-34 0 -40 -66z" />
    <glyph glyph-name="Ograve" unicode="&#xd2;" horiz-adv-x="822" 
d="M411 -8q-147 0 -247.5 97.5t-100.5 250.5t100.5 250.5t247.5 97.5t247.5 -97.5t100.5 -250.5t-100.5 -250.5t-247.5 -97.5zM411 29q131 0 218.5 89t87.5 222t-87.5 222t-218.5 89t-218.5 -89t-87.5 -222t87.5 -222t218.5 -89zM396 755l-88 195h46l75 -195h-33z" />
    <glyph glyph-name="Oacute" unicode="&#xd3;" horiz-adv-x="822" 
d="M411 -8q-147 0 -247.5 97.5t-100.5 250.5t100.5 250.5t247.5 97.5t247.5 -97.5t100.5 -250.5t-100.5 -250.5t-247.5 -97.5zM411 29q131 0 218.5 89t87.5 222t-87.5 222t-218.5 89t-218.5 -89t-87.5 -222t87.5 -222t218.5 -89zM391 755l75 195h46l-88 -195h-33z" />
    <glyph glyph-name="Ocircumflex" unicode="&#xd4;" horiz-adv-x="822" 
d="M411 -8q-147 0 -247.5 97.5t-100.5 250.5t100.5 250.5t247.5 97.5t247.5 -97.5t100.5 -250.5t-100.5 -250.5t-247.5 -97.5zM411 29q131 0 218.5 89t87.5 222t-87.5 222t-218.5 89t-218.5 -89t-87.5 -222t87.5 -222t218.5 -89zM294 752l113 182h9l113 -182h-35l-82 119
l-83 -119h-35z" />
    <glyph glyph-name="Otilde" unicode="&#xd5;" horiz-adv-x="822" 
d="M411 -8q-147 0 -247.5 97.5t-100.5 250.5t100.5 250.5t247.5 97.5t247.5 -97.5t100.5 -250.5t-100.5 -250.5t-247.5 -97.5zM411 29q131 0 218.5 89t87.5 222t-87.5 222t-218.5 89t-218.5 -89t-87.5 -222t87.5 -222t218.5 -89zM311 747l-34 3q2 46 22 71.5t53 25.5
q20 0 35 -8.5t36 -29.5q20 -20 28.5 -25t20.5 -5q33 0 39 65l34 -3q-5 -96 -74 -96q-20 0 -34.5 9t-36.5 30q-20 19 -28 24t-21 5q-34 0 -40 -66z" />
    <glyph glyph-name="Odieresis" unicode="&#xd6;" horiz-adv-x="822" 
d="M411 -8q-147 0 -247.5 97.5t-100.5 250.5t100.5 250.5t247.5 97.5t247.5 -97.5t100.5 -250.5t-100.5 -250.5t-247.5 -97.5zM411 29q131 0 218.5 89t87.5 222t-87.5 222t-218.5 89t-218.5 -89t-87.5 -222t87.5 -222t218.5 -89zM487 779q-13 0 -22.5 9.5t-9.5 22.5
t9.5 22.5t22.5 9.5t22.5 -9.5t9.5 -22.5t-9.5 -22.5t-22.5 -9.5zM335 779q-13 0 -22.5 9.5t-9.5 22.5t9.5 22.5t22.5 9.5t22.5 -9.5t9.5 -22.5t-9.5 -22.5t-22.5 -9.5z" />
    <glyph glyph-name="multiply" unicode="&#xd7;" horiz-adv-x="360" 
d="M180 218l-105 -105l-26 26l105 105l-105 105l26 26l105 -105l105 105l26 -26l-105 -105l105 -105l-26 -26z" />
    <glyph glyph-name="Oslash" unicode="&#xd8;" horiz-adv-x="822" 
d="M731 689l25 -24l-87 -88q90 -98 90 -237q0 -149 -101 -248.5t-247 -99.5q-137 0 -233 87l-88 -89l-25 24l88 89q-90 98 -90 237q0 149 101 248.5t247 99.5q135 0 233 -87zM105 340q0 -123 75 -209l437 443q-85 77 -206 77q-131 0 -218.5 -89t-87.5 -222zM411 29
q131 0 218.5 89t87.5 222q0 123 -75 209l-438 -443q87 -77 207 -77z" />
    <glyph glyph-name="Ugrave" unicode="&#xd9;" horiz-adv-x="701" 
d="M580 644v-418q0 -111 -64.5 -172.5t-165.5 -61.5q-102 0 -165.5 61.5t-63.5 172.5v418h-69v36h189v-36h-79v-415q0 -96 51 -148.5t137 -52.5t137.5 52.5t51.5 148.5v415h-79v36h189v-36h-69zM335 755l-88 195h46l75 -195h-33z" />
    <glyph glyph-name="Uacute" unicode="&#xda;" horiz-adv-x="701" 
d="M580 644v-418q0 -111 -64.5 -172.5t-165.5 -61.5q-102 0 -165.5 61.5t-63.5 172.5v418h-69v36h189v-36h-79v-415q0 -96 51 -148.5t137 -52.5t137.5 52.5t51.5 148.5v415h-79v36h189v-36h-69zM330 755l75 195h46l-88 -195h-33z" />
    <glyph glyph-name="Ucircumflex" unicode="&#xdb;" horiz-adv-x="701" 
d="M580 644v-418q0 -111 -64.5 -172.5t-165.5 -61.5q-102 0 -165.5 61.5t-63.5 172.5v418h-69v36h189v-36h-79v-415q0 -96 51 -148.5t137 -52.5t137.5 52.5t51.5 148.5v415h-79v36h189v-36h-69zM233 752l113 182h9l113 -182h-35l-82 119l-83 -119h-35z" />
    <glyph glyph-name="Udieresis" unicode="&#xdc;" horiz-adv-x="701" 
d="M580 644v-418q0 -111 -64.5 -172.5t-165.5 -61.5q-102 0 -165.5 61.5t-63.5 172.5v418h-69v36h189v-36h-79v-415q0 -96 51 -148.5t137 -52.5t137.5 52.5t51.5 148.5v415h-79v36h189v-36h-69zM426 779q-13 0 -22.5 9.5t-9.5 22.5t9.5 22.5t22.5 9.5t22.5 -9.5t9.5 -22.5
t-9.5 -22.5t-22.5 -9.5zM274 779q-13 0 -22.5 9.5t-9.5 22.5t9.5 22.5t22.5 9.5t22.5 -9.5t9.5 -22.5t-9.5 -22.5t-22.5 -9.5z" />
    <glyph glyph-name="Yacute" unicode="&#xdd;" horiz-adv-x="650" 
d="M622 680v-36h-61l-215 -395v-213h78v-36h-198v36h78v214l-216 394h-60v36h169v-36h-63l175 -321q4 -8 17 -40q0 9 18 41l174 320h-65v36h169zM305 755l75 195h46l-88 -195h-33z" />
    <glyph glyph-name="Thorn" unicode="&#xde;" horiz-adv-x="599" 
d="M167 141v-105h79v-36h-193v36h73v608h-73v36h183v-36h-69v-98h139q113 0 175.5 -52.5t62.5 -150.5q0 -96 -62.5 -149t-175.5 -53h-139zM167 177h135q200 0 200 166q0 167 -200 167h-135v-333z" />
    <glyph glyph-name="germandbls" unicode="&#xdf;" horiz-adv-x="534" 
d="M140 0h-101v33h62v342h-67v33h67v152q0 88 46.5 131.5t112.5 43.5q63 0 109 -43t46 -123q0 -56 -26 -98.5t-79 -62.5q79 -12 127 -65.5t48 -134.5q0 -93 -54.5 -152.5t-150.5 -59.5q-38 0 -69 13l11 33q27 -11 58 -11q79 0 121.5 49t42.5 128q0 81 -51.5 129t-145.5 47
v36q61 6 96 46t35 102q0 66 -34 99t-84 33q-52 0 -86 -34t-34 -109v-557z" />
    <glyph glyph-name="agrave" unicode="&#xe0;" horiz-adv-x="477" 
d="M447 0h-102v63q-47 -71 -141 -71q-71 0 -112.5 32.5t-41.5 92.5q0 58 43 88.5t106 30.5h144v20q0 127 -109 127q-87 0 -133 -70l-28 20q54 84 162 84q66 0 106.5 -40t40.5 -117v-227h65v-33zM343 204h-139q-51 0 -83 -21t-32 -65q0 -91 119 -91q54 0 94.5 29t40.5 74v74z
M219 497l-88 195h46l75 -195h-33z" />
    <glyph glyph-name="aacute" unicode="&#xe1;" horiz-adv-x="477" 
d="M447 0h-102v63q-47 -71 -141 -71q-71 0 -112.5 32.5t-41.5 92.5q0 58 43 88.5t106 30.5h144v20q0 127 -109 127q-87 0 -133 -70l-28 20q54 84 162 84q66 0 106.5 -40t40.5 -117v-227h65v-33zM343 204h-139q-51 0 -83 -21t-32 -65q0 -91 119 -91q54 0 94.5 29t40.5 74v74z
M214 497l75 195h46l-88 -195h-33z" />
    <glyph glyph-name="acircumflex" unicode="&#xe2;" horiz-adv-x="477" 
d="M447 0h-102v63q-47 -71 -141 -71q-71 0 -112.5 32.5t-41.5 92.5q0 58 43 88.5t106 30.5h144v20q0 127 -109 127q-87 0 -133 -70l-28 20q54 84 162 84q66 0 106.5 -40t40.5 -117v-227h65v-33zM343 204h-139q-51 0 -83 -21t-32 -65q0 -91 119 -91q54 0 94.5 29t40.5 74v74z
M117 494l113 182h9l113 -182h-35l-82 119l-83 -119h-35z" />
    <glyph glyph-name="atilde" unicode="&#xe3;" horiz-adv-x="477" 
d="M447 0h-102v63q-47 -71 -141 -71q-71 0 -112.5 32.5t-41.5 92.5q0 58 43 88.5t106 30.5h144v20q0 127 -109 127q-87 0 -133 -70l-28 20q54 84 162 84q66 0 106.5 -40t40.5 -117v-227h65v-33zM343 204h-139q-51 0 -83 -21t-32 -65q0 -91 119 -91q54 0 94.5 29t40.5 74v74z
M134 489l-34 3q2 46 22 71.5t53 25.5q20 0 35 -8.5t36 -29.5q20 -20 28.5 -25t20.5 -5q33 0 39 65l34 -3q-5 -96 -74 -96q-20 0 -34.5 9t-36.5 30q-20 19 -28 24t-21 5q-34 0 -40 -66z" />
    <glyph glyph-name="adieresis" unicode="&#xe4;" horiz-adv-x="477" 
d="M447 0h-102v63q-47 -71 -141 -71q-71 0 -112.5 32.5t-41.5 92.5q0 58 43 88.5t106 30.5h144v20q0 127 -109 127q-87 0 -133 -70l-28 20q54 84 162 84q66 0 106.5 -40t40.5 -117v-227h65v-33zM343 204h-139q-51 0 -83 -21t-32 -65q0 -91 119 -91q54 0 94.5 29t40.5 74v74z
M310 521q-13 0 -22.5 9.5t-9.5 22.5t9.5 22.5t22.5 9.5t22.5 -9.5t9.5 -22.5t-9.5 -22.5t-22.5 -9.5zM158 521q-13 0 -22.5 9.5t-9.5 22.5t9.5 22.5t22.5 9.5t22.5 -9.5t9.5 -22.5t-9.5 -22.5t-22.5 -9.5z" />
    <glyph glyph-name="aring" unicode="&#xe5;" horiz-adv-x="477" 
d="M447 0h-102v63q-47 -71 -141 -71q-71 0 -112.5 32.5t-41.5 92.5q0 58 43 88.5t106 30.5h144v20q0 127 -109 127q-87 0 -133 -70l-28 20q54 84 162 84q66 0 106.5 -40t40.5 -117v-227h65v-33zM343 204h-139q-51 0 -83 -21t-32 -65q0 -91 119 -91q54 0 94.5 29t40.5 74v74z
M234 488q-39 0 -66.5 27t-27.5 65t27.5 65t66.5 27t66.5 -27t27.5 -65t-27.5 -65t-66.5 -27zM234 519q26 0 42 16.5t16 44.5t-16 44.5t-42 16.5t-42 -16.5t-16 -44.5t16 -44.5t42 -16.5z" />
    <glyph glyph-name="ae" unicode="&#xe6;" horiz-adv-x="799" 
d="M371 105q-11 -54 -60.5 -83.5t-106.5 -29.5q-69 0 -111.5 32t-42.5 91q0 56 44 86.5t105 30.5h144v24q0 127 -109 127q-87 0 -133 -70l-28 20q54 84 162 84q55 0 91 -29t45 -85q25 52 71 83t104 31q91 0 146.5 -62.5t53.5 -154.5h-365q2 -74 48.5 -123.5t124.5 -49.5
q91 0 143 64l26 -23q-61 -76 -169 -76q-63 0 -110.5 30.5t-72.5 82.5zM383 232h323q-5 64 -46 107.5t-114 43.5q-66 0 -110.5 -43.5t-52.5 -107.5zM343 200h-139q-51 0 -83 -20.5t-32 -63.5q0 -89 119 -89q54 0 94.5 29t40.5 74v70z" />
    <glyph glyph-name="ccedilla" unicode="&#xe7;" horiz-adv-x="476" 
d="M240 -228q-68 0 -94 58l30 18q21 -43 63 -43q22 0 37 14t15 38t-15.5 39.5t-46.5 15.5h-15v85q-72 16 -117 73.5t-45 133.5q0 89 60 151t149 62q82 0 119 -56l3 47h31v-117h-32q-25 91 -121 91q-76 0 -122 -50.5t-46 -127.5q0 -76 46 -126.5t120 -50.5q89 0 137 61
l28 -23q-59 -73 -165 -73h-9v-51q33 -4 56.5 -27t23.5 -58q0 -39 -26.5 -61.5t-63.5 -22.5z" />
    <glyph glyph-name="egrave" unicode="&#xe8;" horiz-adv-x="506" 
d="M89 196q2 -75 48.5 -122t124.5 -47q91 0 143 64l26 -23q-61 -76 -169 -76q-95 0 -154 61t-59 151q0 88 59.5 150.5t145.5 62.5q91 0 146.5 -63t53.5 -158h-365zM90 228h324q-5 67 -46 111t-114 44q-68 0 -112 -43.5t-52 -111.5zM236 497l-88 195h46l75 -195h-33z" />
    <glyph glyph-name="eacute" unicode="&#xe9;" horiz-adv-x="506" 
d="M89 196q2 -75 48.5 -122t124.5 -47q91 0 143 64l26 -23q-61 -76 -169 -76q-95 0 -154 61t-59 151q0 88 59.5 150.5t145.5 62.5q91 0 146.5 -63t53.5 -158h-365zM90 228h324q-5 67 -46 111t-114 44q-68 0 -112 -43.5t-52 -111.5zM231 497l75 195h46l-88 -195h-33z" />
    <glyph glyph-name="ecircumflex" unicode="&#xea;" horiz-adv-x="506" 
d="M89 196q2 -75 48.5 -122t124.5 -47q91 0 143 64l26 -23q-61 -76 -169 -76q-95 0 -154 61t-59 151q0 88 59.5 150.5t145.5 62.5q91 0 146.5 -63t53.5 -158h-365zM90 228h324q-5 67 -46 111t-114 44q-68 0 -112 -43.5t-52 -111.5zM135 494l113 182h9l113 -182h-35l-82 119
l-83 -119h-35z" />
    <glyph glyph-name="edieresis" unicode="&#xeb;" horiz-adv-x="506" 
d="M89 196q2 -75 48.5 -122t124.5 -47q91 0 143 64l26 -23q-61 -76 -169 -76q-95 0 -154 61t-59 151q0 88 59.5 150.5t145.5 62.5q91 0 146.5 -63t53.5 -158h-365zM90 228h324q-5 67 -46 111t-114 44q-68 0 -112 -43.5t-52 -111.5zM328 521q-13 0 -22.5 9.5t-9.5 22.5
t9.5 22.5t22.5 9.5t22.5 -9.5t9.5 -22.5t-9.5 -22.5t-22.5 -9.5zM176 521q-13 0 -22.5 9.5t-9.5 22.5t9.5 22.5t22.5 9.5t22.5 -9.5t9.5 -22.5t-9.5 -22.5t-22.5 -9.5z" />
    <glyph glyph-name="igrave" unicode="&#xec;" horiz-adv-x="245" 
d="M145 408v-375h66v-33h-172v33h67v341h-72v34h111zM111 497l-88 195h46l75 -195h-33z" />
    <glyph glyph-name="iacute" unicode="&#xed;" horiz-adv-x="245" 
d="M145 408v-375h66v-33h-172v33h67v341h-72v34h111zM106 497l75 195h46l-88 -195h-33z" />
    <glyph glyph-name="icircumflex" unicode="&#xee;" horiz-adv-x="245" 
d="M145 408v-375h66v-33h-172v33h67v341h-72v34h111zM9 494l113 182h9l113 -182h-35l-82 119l-83 -119h-35z" />
    <glyph glyph-name="idieresis" unicode="&#xef;" horiz-adv-x="245" 
d="M145 408v-375h66v-33h-172v33h67v341h-72v34h111zM202 521q-13 0 -22.5 9.5t-9.5 22.5t9.5 22.5t22.5 9.5t22.5 -9.5t9.5 -22.5t-9.5 -22.5t-22.5 -9.5zM50 521q-13 0 -22.5 9.5t-9.5 22.5t9.5 22.5t22.5 9.5t22.5 -9.5t9.5 -22.5t-9.5 -22.5t-22.5 -9.5z" />
    <glyph glyph-name="eth" unicode="&#xf0;" horiz-adv-x="528" 
d="M282 598l-73 -71l-23 23l74 73q-47 53 -91 91l24 24q47 -37 93 -89l73 72l24 -24l-75 -74q73 -88 120.5 -193t47.5 -207q0 -98 -60 -164.5t-151 -66.5q-89 0 -151 62.5t-62 150.5t62 150t151 62q100 0 157 -84q-32 132 -140 265zM265 27q76 0 123.5 52t47.5 132
q0 74 -47.5 122.5t-123.5 48.5t-124.5 -50.5t-48.5 -126.5t48.5 -127t124.5 -51z" />
    <glyph glyph-name="ntilde" unicode="&#xf1;" horiz-adv-x="545" 
d="M39 0v33h65v341h-70v34h108v-91q20 47 61 73.5t95 26.5q69 0 110.5 -43.5t41.5 -118.5v-222h65v-33h-177v33h73v215q0 64 -30 98.5t-88 34.5q-67 0 -108.5 -41.5t-41.5 -111.5v-195h73v-33h-177zM161 489l-34 3q2 46 22 71.5t53 25.5q20 0 35 -8.5t36 -29.5
q20 -20 28.5 -25t20.5 -5q33 0 39 65l34 -3q-5 -96 -74 -96q-20 0 -34.5 9t-36.5 30q-20 19 -28 24t-21 5q-34 0 -40 -66z" />
    <glyph glyph-name="ograve" unicode="&#xf2;" horiz-adv-x="522" 
d="M262 -8q-89 0 -151 62.5t-62 150.5t62 150t151 62t150 -62t61 -150t-61 -150.5t-150 -62.5zM262 27q76 0 123.5 50.5t47.5 127.5t-47.5 127t-123.5 50t-124.5 -50.5t-48.5 -126.5t48.5 -127t124.5 -51zM246 497l-88 195h46l75 -195h-33z" />
    <glyph glyph-name="oacute" unicode="&#xf3;" horiz-adv-x="522" 
d="M262 -8q-89 0 -151 62.5t-62 150.5t62 150t151 62t150 -62t61 -150t-61 -150.5t-150 -62.5zM262 27q76 0 123.5 50.5t47.5 127.5t-47.5 127t-123.5 50t-124.5 -50.5t-48.5 -126.5t48.5 -127t124.5 -51zM241 497l75 195h46l-88 -195h-33z" />
    <glyph glyph-name="ocircumflex" unicode="&#xf4;" horiz-adv-x="522" 
d="M262 -8q-89 0 -151 62.5t-62 150.5t62 150t151 62t150 -62t61 -150t-61 -150.5t-150 -62.5zM262 27q76 0 123.5 50.5t47.5 127.5t-47.5 127t-123.5 50t-124.5 -50.5t-48.5 -126.5t48.5 -127t124.5 -51zM144 494l113 182h9l113 -182h-35l-82 119l-83 -119h-35z" />
    <glyph glyph-name="otilde" unicode="&#xf5;" horiz-adv-x="522" 
d="M262 -8q-89 0 -151 62.5t-62 150.5t62 150t151 62t150 -62t61 -150t-61 -150.5t-150 -62.5zM262 27q76 0 123.5 50.5t47.5 127.5t-47.5 127t-123.5 50t-124.5 -50.5t-48.5 -126.5t48.5 -127t124.5 -51zM157 489l-34 3q2 46 22 71.5t53 25.5q20 0 35 -8.5t36 -29.5
q20 -20 28.5 -25t20.5 -5q33 0 39 65l34 -3q-5 -96 -74 -96q-20 0 -34.5 9t-36.5 30q-20 19 -28 24t-21 5q-34 0 -40 -66z" />
    <glyph glyph-name="odieresis" unicode="&#xf6;" horiz-adv-x="522" 
d="M262 -8q-89 0 -151 62.5t-62 150.5t62 150t151 62t150 -62t61 -150t-61 -150.5t-150 -62.5zM262 27q76 0 123.5 50.5t47.5 127.5t-47.5 127t-123.5 50t-124.5 -50.5t-48.5 -126.5t48.5 -127t124.5 -51zM337 521q-13 0 -22.5 9.5t-9.5 22.5t9.5 22.5t22.5 9.5t22.5 -9.5
t9.5 -22.5t-9.5 -22.5t-22.5 -9.5zM185 521q-13 0 -22.5 9.5t-9.5 22.5t9.5 22.5t22.5 9.5t22.5 -9.5t9.5 -22.5t-9.5 -22.5t-22.5 -9.5z" />
    <glyph glyph-name="divide" unicode="&#xf7;" horiz-adv-x="363" 
d="M320 227h-277v36h277v-36zM181 335q-15 0 -26.5 11.5t-11.5 26.5q0 16 11.5 27t26.5 11t26.5 -11t11.5 -27t-11.5 -27t-26.5 -11zM181 79q-15 0 -26.5 11.5t-11.5 26.5q0 16 11.5 27t26.5 11t26.5 -11t11.5 -27t-11.5 -27t-26.5 -11z" />
    <glyph glyph-name="oslash" unicode="&#xf8;" horiz-adv-x="522" 
d="M460 420l22 -24l-57 -55q48 -59 48 -136q0 -88 -61 -150.5t-150 -62.5q-80 0 -141 53l-59 -57l-23 23l59 57q-49 60 -49 137q0 88 62 150t151 62q82 0 141 -53zM262 27q76 0 123.5 50.5t47.5 127.5q0 65 -34 110l-253 -246q48 -42 116 -42zM89 205q0 -63 35 -112l253 246
q-46 43 -115 43q-76 0 -124.5 -50.5t-48.5 -126.5z" />
    <glyph glyph-name="ugrave" unicode="&#xf9;" horiz-adv-x="529" 
d="M429 33h66v-33h-104v90q-21 -46 -61.5 -72.5t-93.5 -26.5q-69 0 -110.5 43t-41.5 117v223h-70v34h109v-251q0 -130 117 -130q67 0 108.5 41.5t41.5 111.5v194h-70v34h109v-375zM232 497l-88 195h46l75 -195h-33z" />
    <glyph glyph-name="uacute" unicode="&#xfa;" horiz-adv-x="529" 
d="M429 33h66v-33h-104v90q-21 -46 -61.5 -72.5t-93.5 -26.5q-69 0 -110.5 43t-41.5 117v223h-70v34h109v-251q0 -130 117 -130q67 0 108.5 41.5t41.5 111.5v194h-70v34h109v-375zM227 497l75 195h46l-88 -195h-33z" />
    <glyph glyph-name="ucircumflex" unicode="&#xfb;" horiz-adv-x="529" 
d="M429 33h66v-33h-104v90q-21 -46 -61.5 -72.5t-93.5 -26.5q-69 0 -110.5 43t-41.5 117v223h-70v34h109v-251q0 -130 117 -130q67 0 108.5 41.5t41.5 111.5v194h-70v34h109v-375zM130 494l113 182h9l113 -182h-35l-82 119l-83 -119h-35z" />
    <glyph glyph-name="udieresis" unicode="&#xfc;" horiz-adv-x="529" 
d="M429 33h66v-33h-104v90q-21 -46 -61.5 -72.5t-93.5 -26.5q-69 0 -110.5 43t-41.5 117v223h-70v34h109v-251q0 -130 117 -130q67 0 108.5 41.5t41.5 111.5v194h-70v34h109v-375zM323 521q-13 0 -22.5 9.5t-9.5 22.5t9.5 22.5t22.5 9.5t22.5 -9.5t9.5 -22.5t-9.5 -22.5
t-22.5 -9.5zM171 521q-13 0 -22.5 9.5t-9.5 22.5t9.5 22.5t22.5 9.5t22.5 -9.5t9.5 -22.5t-9.5 -22.5t-22.5 -9.5z" />
    <glyph glyph-name="yacute" unicode="&#xfd;" horiz-adv-x="490" 
d="M24 374v34h142v-34h-55l127 -268q10 -22 16 -47q0 15 15 47l114 268h-57v34h140v-34h-43l-252 -586h-103v33h77l89 209l-165 344h-45zM233 497l75 195h46l-88 -195h-33z" />
    <glyph glyph-name="thorn" unicode="&#xfe;" horiz-adv-x="567" 
d="M311 27q75 0 120.5 50.5t45.5 127.5t-45.5 127t-120.5 50q-76 0 -123.5 -50t-47.5 -127t47.5 -127.5t123.5 -50.5zM104 688h-71v34h110v-411q24 48 68.5 77t104.5 29q87 0 144.5 -61t57.5 -151q0 -91 -57.5 -152t-144.5 -61q-57 0 -103.5 30t-69.5 77v-278h73v-33h-177
v33h65v867z" />
    <glyph glyph-name="ydieresis" unicode="&#xff;" horiz-adv-x="490" 
d="M24 374v34h142v-34h-55l127 -268q4 -10 10 -27.5t6 -18.5q0 16 15 46l114 268h-57v34h140v-34h-43l-252 -586h-103v33h77l89 209l-165 344h-45zM177 521q-13 0 -22.5 9.5t-9.5 22.5t9.5 22.5t22.5 9.5t22.5 -9.5t9.5 -22.5t-9.5 -22.5t-22.5 -9.5zM329 521
q-13 0 -22.5 9.5t-9.5 22.5t9.5 22.5t22.5 9.5t22.5 -9.5t9.5 -22.5t-9.5 -22.5t-22.5 -9.5z" />
    <glyph glyph-name="Amacron" unicode="&#x100;" horiz-adv-x="689" 
d="M249 644v36h189v-36h-62l236 -608h52v-36h-169v36h75l-58 151h-337l-58 -151h77v-36h-169v36h52l235 608h-63zM324 578l-136 -355h311l-135 354q-3 8 -6.5 19.5t-6.5 20t-5 15.5t-2 8l-2 -8q-2 -7 -5 -15.5t-6.5 -19.5t-6.5 -19zM247 768v34h194v-34h-194z" />
    <glyph glyph-name="amacron" unicode="&#x101;" horiz-adv-x="477" 
d="M447 0h-102v63q-47 -71 -141 -71q-71 0 -112.5 32.5t-41.5 92.5q0 58 43 88.5t106 30.5h144v20q0 127 -109 127q-87 0 -133 -70l-28 20q54 84 162 84q66 0 106.5 -40t40.5 -117v-227h65v-33zM343 204h-139q-51 0 -83 -21t-32 -65q0 -91 119 -91q54 0 94.5 29t40.5 74v74z
M137 510v34h194v-34h-194z" />
    <glyph glyph-name="Abreve" unicode="&#x102;" horiz-adv-x="689" 
d="M249 644v36h189v-36h-62l236 -608h52v-36h-169v36h75l-58 151h-337l-58 -151h77v-36h-169v36h52l235 608h-63zM324 578l-136 -355h311l-135 354q-3 8 -6.5 19.5t-6.5 20t-5 15.5t-2 8l-2 -8q-2 -7 -5 -15.5t-6.5 -19.5t-6.5 -19zM344 742q-49 0 -78.5 29t-38.5 76l35 7
q10 -36 28 -56.5t54 -20.5t54 20.5t28 56.5l35 -7q-9 -47 -38.5 -76t-78.5 -29z" />
    <glyph glyph-name="abreve" unicode="&#x103;" horiz-adv-x="477" 
d="M447 0h-102v63q-47 -71 -141 -71q-71 0 -112.5 32.5t-41.5 92.5q0 58 43 88.5t106 30.5h144v20q0 127 -109 127q-87 0 -133 -70l-28 20q54 84 162 84q66 0 106.5 -40t40.5 -117v-227h65v-33zM343 204h-139q-51 0 -83 -21t-32 -65q0 -91 119 -91q54 0 94.5 29t40.5 74v74z
M234 484q-49 0 -78.5 29t-38.5 76l35 7q10 -36 28 -56.5t54 -20.5t54 20.5t28 56.5l35 -7q-9 -47 -38.5 -76t-78.5 -29z" />
    <glyph glyph-name="Aogonek" unicode="&#x104;" horiz-adv-x="689" 
d="M591 -219q-36 0 -60.5 21.5t-24.5 61.5q0 31 17.5 61.5t56.5 74.5h-85v36h75l-58 151h-337l-58 -151h77v-36h-169v36h52l235 608h-63v36h189v-36h-62l236 -608h52v-36h-44q-75 -92 -75 -137q0 -23 13.5 -35.5t33.5 -12.5q35 0 57 38l30 -18q-25 -54 -88 -54zM324 578
l-136 -355h311l-135 354q-3 8 -6.5 19.5t-6.5 20t-5 15.5t-2 8l-2 -8q-2 -7 -5 -15.5t-6.5 -19.5t-6.5 -19z" />
    <glyph glyph-name="aogonek" unicode="&#x105;" horiz-adv-x="477" 
d="M356 -219q-36 0 -60.5 21.5t-24.5 61.5q0 31 17.5 61.5t56.5 74.5v63q-47 -71 -141 -71q-71 0 -112.5 32.5t-41.5 92.5q0 58 43 88.5t106 30.5h144v20q0 127 -109 127q-87 0 -133 -70l-28 20q54 84 162 84q66 0 106.5 -40t40.5 -117v-227h65v-33h-62q-75 -92 -75 -137
q0 -23 13.5 -35.5t33.5 -12.5q35 0 57 38l30 -18q-25 -54 -88 -54zM343 204h-139q-51 0 -83 -21t-32 -65q0 -91 119 -91q54 0 94.5 29t40.5 74v74z" />
    <glyph glyph-name="Cacute" unicode="&#x106;" horiz-adv-x="749" 
d="M668 493h-37q-14 76 -74 117t-146 41q-131 0 -218.5 -89t-87.5 -222t87.5 -222t218.5 -89q162 0 247 121l31 -22q-45 -65 -117.5 -100.5t-160.5 -35.5q-147 0 -247.5 97.5t-100.5 250.5t100.5 250.5t247.5 97.5q150 0 220 -106l3 98h34v-187zM390 755l75 195h46l-88 -195
h-33z" />
    <glyph glyph-name="cacute" unicode="&#x107;" horiz-adv-x="476" 
d="M414 291h-32q-25 91 -121 91q-76 0 -122 -50.5t-46 -127.5q0 -76 46 -126.5t120 -50.5q89 0 137 61l28 -23q-59 -73 -165 -73q-87 0 -147 62t-60 150q0 89 60 151t149 62q82 0 119 -56l3 47h31v-117zM241 497l75 195h46l-88 -195h-33z" />
    <glyph glyph-name="Ccircumflex" unicode="&#x108;" horiz-adv-x="749" 
d="M668 493h-37q-14 76 -74 117t-146 41q-131 0 -218.5 -89t-87.5 -222t87.5 -222t218.5 -89q162 0 247 121l31 -22q-45 -65 -117.5 -100.5t-160.5 -35.5q-147 0 -247.5 97.5t-100.5 250.5t100.5 250.5t247.5 97.5q150 0 220 -106l3 98h34v-187zM293 752l113 182h9l113 -182
h-35l-82 119l-83 -119h-35z" />
    <glyph glyph-name="ccircumflex" unicode="&#x109;" horiz-adv-x="476" 
d="M414 291h-32q-25 91 -121 91q-76 0 -122 -50.5t-46 -127.5q0 -76 46 -126.5t120 -50.5q89 0 137 61l28 -23q-59 -73 -165 -73q-87 0 -147 62t-60 150q0 89 60 151t149 62q82 0 119 -56l3 47h31v-117zM144 494l113 182h9l113 -182h-35l-82 119l-83 -119h-35z" />
    <glyph glyph-name="Cdotaccent" unicode="&#x10a;" horiz-adv-x="749" 
d="M668 493h-37q-14 76 -74 117t-146 41q-131 0 -218.5 -89t-87.5 -222t87.5 -222t218.5 -89q162 0 247 121l31 -22q-45 -65 -117.5 -100.5t-160.5 -35.5q-147 0 -247.5 97.5t-100.5 250.5t100.5 250.5t247.5 97.5q150 0 220 -106l3 98h34v-187zM410 778q-13 0 -23 9.5
t-10 23.5t10 23.5t23 9.5t23 -9.5t10 -23.5t-10 -23.5t-23 -9.5z" />
    <glyph glyph-name="cdotaccent" unicode="&#x10b;" horiz-adv-x="476" 
d="M414 291h-32q-25 91 -121 91q-76 0 -122 -50.5t-46 -127.5q0 -76 46 -126.5t120 -50.5q89 0 137 61l28 -23q-59 -73 -165 -73q-87 0 -147 62t-60 150q0 89 60 151t149 62q82 0 119 -56l3 47h31v-117zM261 520q-13 0 -23 9.5t-10 23.5t10 23.5t23 9.5t23 -9.5t10 -23.5
t-10 -23.5t-23 -9.5z" />
    <glyph glyph-name="Ccaron" unicode="&#x10c;" horiz-adv-x="749" 
d="M668 493h-37q-14 76 -74 117t-146 41q-131 0 -218.5 -89t-87.5 -222t87.5 -222t218.5 -89q162 0 247 121l31 -22q-45 -65 -117.5 -100.5t-160.5 -35.5q-147 0 -247.5 97.5t-100.5 250.5t100.5 250.5t247.5 97.5q150 0 220 -106l3 98h34v-187zM406 749l-113 182h35
l82 -119l83 119h35l-113 -182h-9z" />
    <glyph glyph-name="ccaron" unicode="&#x10d;" horiz-adv-x="476" 
d="M414 291h-32q-25 91 -121 91q-76 0 -122 -50.5t-46 -127.5q0 -76 46 -126.5t120 -50.5q89 0 137 61l28 -23q-59 -73 -165 -73q-87 0 -147 62t-60 150q0 89 60 151t149 62q82 0 119 -56l3 47h31v-117zM257 491l-113 182h35l82 -119l83 119h35l-113 -182h-9z" />
    <glyph glyph-name="Dcaron" unicode="&#x10e;" horiz-adv-x="709" 
d="M170 37h99q164 0 249 82.5t85 220.5t-85 220.5t-249 82.5h-99v-606zM60 680h214q175 0 273.5 -91t98.5 -249t-98 -249t-274 -91h-214v36h69v608h-69v36zM318 749l-113 182h35l82 -119l83 119h35l-113 -182h-9z" />
    <glyph glyph-name="dcaron" unicode="&#x10f;" horiz-adv-x="565" 
d="M552 548l32 100q-11 2 -19 12.5t-8 23.5q0 16 12 28t27 12t27 -12t12 -28q0 -7 -5 -19l-53 -117h-25zM427 688h-74v34h113v-689h65v-33h-102v102q-22 -49 -69.5 -79.5t-105.5 -30.5q-87 0 -144.5 61t-57.5 152q0 90 57.5 151t144.5 61q60 0 104.5 -29t68.5 -77v377z
M259 382q-75 0 -120.5 -50t-45.5 -127t45.5 -127.5t120.5 -50.5q76 0 123.5 50.5t47.5 127.5t-47.5 127t-123.5 50z" />
    <glyph glyph-name="Dcroat" unicode="&#x110;" horiz-adv-x="709" 
d="M60 680h214q175 0 273.5 -91t98.5 -249t-98 -249t-274 -91h-214v36h69v288h-88v36h88v284h-69v36zM170 37h99q164 0 249 82.5t85 220.5t-85 220.5t-249 82.5h-99v-283h198v-36h-198v-287z" />
    <glyph glyph-name="dcroat" unicode="&#x111;" horiz-adv-x="565" 
d="M427 688h-74v34h113v-142h83v-33h-83v-514h65v-33h-102v102q-22 -49 -69.5 -79.5t-105.5 -30.5q-87 0 -144.5 61t-57.5 152q0 90 57.5 151t144.5 61q60 0 104.5 -29t68.5 -77v236h-153v33h153v108zM259 382q-75 0 -120.5 -50t-45.5 -127t45.5 -127.5t120.5 -50.5
q76 0 123.5 50.5t47.5 127.5t-47.5 127t-123.5 50z" />
    <glyph glyph-name="Emacron" unicode="&#x112;" horiz-adv-x="596" 
d="M540 0h-480v36h69v608h-69v36h466v-129h-34l-7 93h-315v-284h279v-36h-279v-288h329l7 109h34v-145zM226 768v34h194v-34h-194z" />
    <glyph glyph-name="emacron" unicode="&#x113;" horiz-adv-x="506" 
d="M89 196q2 -75 48.5 -122t124.5 -47q91 0 143 64l26 -23q-61 -76 -169 -76q-95 0 -154 61t-59 151q0 88 59.5 150.5t145.5 62.5q91 0 146.5 -63t53.5 -158h-365zM90 228h324q-5 67 -46 111t-114 44q-68 0 -112 -43.5t-52 -111.5zM155 510v34h194v-34h-194z" />
    <glyph glyph-name="Ebreve" unicode="&#x114;" horiz-adv-x="596" 
d="M540 0h-480v36h69v608h-69v36h466v-129h-34l-7 93h-315v-284h279v-36h-279v-288h329l7 109h34v-145zM317 742q-49 0 -78.5 29t-38.5 76l35 7q10 -36 28 -56.5t54 -20.5t54 20.5t28 56.5l35 -7q-9 -47 -38.5 -76t-78.5 -29z" />
    <glyph glyph-name="ebreve" unicode="&#x115;" horiz-adv-x="506" 
d="M89 196q2 -75 48.5 -122t124.5 -47q91 0 143 64l26 -23q-61 -76 -169 -76q-95 0 -154 61t-59 151q0 88 59.5 150.5t145.5 62.5q91 0 146.5 -63t53.5 -158h-365zM90 228h324q-5 67 -46 111t-114 44q-68 0 -112 -43.5t-52 -111.5zM252 484q-49 0 -78.5 29t-38.5 76l35 7
q10 -36 28 -56.5t54 -20.5t54 20.5t28 56.5l35 -7q-9 -47 -38.5 -76t-78.5 -29z" />
    <glyph glyph-name="Edotaccent" unicode="&#x116;" horiz-adv-x="596" 
d="M540 0h-480v36h69v608h-69v36h466v-129h-34l-7 93h-315v-284h279v-36h-279v-288h329l7 109h34v-145zM323 778q-13 0 -23 9.5t-10 23.5t10 23.5t23 9.5t23 -9.5t10 -23.5t-10 -23.5t-23 -9.5z" />
    <glyph glyph-name="edotaccent" unicode="&#x117;" horiz-adv-x="506" 
d="M89 196q2 -75 48.5 -122t124.5 -47q91 0 143 64l26 -23q-61 -76 -169 -76q-95 0 -154 61t-59 151q0 88 59.5 150.5t145.5 62.5q91 0 146.5 -63t53.5 -158h-365zM90 228h324q-5 67 -46 111t-114 44q-68 0 -112 -43.5t-52 -111.5zM252 520q-13 0 -23 9.5t-10 23.5t10 23.5
t23 9.5t23 -9.5t10 -23.5t-10 -23.5t-23 -9.5z" />
    <glyph glyph-name="Eogonek" unicode="&#x118;" horiz-adv-x="596" 
d="M453 -219q-36 0 -60.5 21.5t-24.5 61.5q0 31 17.5 61.5t56.5 74.5h-382v36h69v608h-69v36h466v-129h-34l-7 93h-315v-284h279v-36h-279v-288h329l7 109h34v-145h-58q-75 -92 -75 -137q0 -23 13.5 -35.5t33.5 -12.5q35 0 57 38l30 -18q-25 -54 -88 -54z" />
    <glyph glyph-name="eogonek" unicode="&#x119;" horiz-adv-x="506" 
d="M316 -219q-36 0 -60.5 21t-24.5 60q0 52 69 133q-18 -3 -38 -3q-95 0 -154 61t-59 151q0 88 59.5 150.5t145.5 62.5q91 0 146.5 -63t53.5 -158h-365q2 -75 48.5 -122t124.5 -47q91 0 143 64l26 -23q-18 -23 -58 -52.5t-54 -47.5q-49 -64 -49 -104q0 -24 13.5 -36.5
t33.5 -12.5q35 0 57 38l30 -18q-25 -54 -88 -54zM90 228h324q-5 67 -46 111t-114 44q-68 0 -112 -43.5t-52 -111.5z" />
    <glyph glyph-name="Ecaron" unicode="&#x11a;" horiz-adv-x="596" 
d="M540 0h-480v36h69v608h-69v36h466v-129h-34l-7 93h-315v-284h279v-36h-279v-288h329l7 109h34v-145zM314 749l-113 182h35l82 -119l83 119h35l-113 -182h-9z" />
    <glyph glyph-name="ecaron" unicode="&#x11b;" horiz-adv-x="506" 
d="M89 196q2 -75 48.5 -122t124.5 -47q91 0 143 64l26 -23q-61 -76 -169 -76q-95 0 -154 61t-59 151q0 88 59.5 150.5t145.5 62.5q91 0 146.5 -63t53.5 -158h-365zM90 228h324q-5 67 -46 111t-114 44q-68 0 -112 -43.5t-52 -111.5zM248 491l-113 182h35l82 -119l83 119h35
l-113 -182h-9z" />
    <glyph glyph-name="Gcircumflex" unicode="&#x11c;" horiz-adv-x="767" 
d="M685 0h-34l-5 64q-92 -72 -232 -72q-148 0 -249.5 97.5t-101.5 250.5t101.5 250.5t249.5 97.5q69 0 128 -29.5t80 -73.5l3 95h34v-187h-38q-6 56 -39 93t-75.5 51t-92.5 14q-133 0 -221 -88.5t-88 -222.5q0 -133 88.5 -222t220.5 -89q145 0 231 80v158h-219v36h259v-303z
M298 752l113 182h9l113 -182h-35l-82 119l-83 -119h-35z" />
    <glyph glyph-name="gcircumflex" unicode="&#x11d;" horiz-adv-x="469" 
d="M291 408h145v-33h-92q44 -39 44 -100q0 -62 -43 -102.5t-110 -40.5q-47 0 -81 19q-23 -4 -35.5 -17t-12.5 -32q0 -44 59 -49l106 -10q92 -9 131.5 -37t39.5 -87q0 -66 -59.5 -104t-153.5 -38q-93 0 -148.5 35.5t-55.5 98.5q0 83 106 114q-60 16 -60 73q0 25 15.5 44.5
t40.5 27.5q-48 40 -48 105q0 62 44 102t112 40q31 0 56 -9zM235 165q53 0 84 30t31 80t-31 79.5t-84 29.5q-54 0 -85.5 -29.5t-31.5 -79.5t31.5 -80t85.5 -30zM180 14q-115 -23 -115 -102q0 -49 42 -75t122 -26q77 0 125.5 28t48.5 80q0 43 -29.5 63t-107.5 26zM116 494
l113 182h9l113 -182h-35l-82 119l-83 -119h-35z" />
    <glyph glyph-name="Gbreve" unicode="&#x11e;" horiz-adv-x="767" 
d="M685 0h-34l-5 64q-92 -72 -232 -72q-148 0 -249.5 97.5t-101.5 250.5t101.5 250.5t249.5 97.5q69 0 128 -29.5t80 -73.5l3 95h34v-187h-38q-6 56 -39 93t-75.5 51t-92.5 14q-133 0 -221 -88.5t-88 -222.5q0 -133 88.5 -222t220.5 -89q145 0 231 80v158h-219v36h259v-303z
M415 742q-49 0 -78.5 29t-38.5 76l35 7q10 -36 28 -56.5t54 -20.5t54 20.5t28 56.5l35 -7q-9 -47 -38.5 -76t-78.5 -29z" />
    <glyph glyph-name="gbreve" unicode="&#x11f;" horiz-adv-x="469" 
d="M291 408h145v-33h-92q44 -39 44 -100q0 -62 -43 -102.5t-110 -40.5q-47 0 -81 19q-23 -4 -35.5 -17t-12.5 -32q0 -44 59 -49l106 -10q92 -9 131.5 -37t39.5 -87q0 -66 -59.5 -104t-153.5 -38q-93 0 -148.5 35.5t-55.5 98.5q0 83 106 114q-60 16 -60 73q0 25 15.5 44.5
t40.5 27.5q-48 40 -48 105q0 62 44 102t112 40q31 0 56 -9zM235 165q53 0 84 30t31 80t-31 79.5t-84 29.5q-54 0 -85.5 -29.5t-31.5 -79.5t31.5 -80t85.5 -30zM180 14q-115 -23 -115 -102q0 -49 42 -75t122 -26q77 0 125.5 28t48.5 80q0 43 -29.5 63t-107.5 26zM233 484
q-49 0 -78.5 29t-38.5 76l35 7q10 -36 28 -56.5t54 -20.5t54 20.5t28 56.5l35 -7q-9 -47 -38.5 -76t-78.5 -29z" />
    <glyph glyph-name="Gdotaccent" unicode="&#x120;" horiz-adv-x="767" 
d="M685 0h-34l-5 64q-92 -72 -232 -72q-148 0 -249.5 97.5t-101.5 250.5t101.5 250.5t249.5 97.5q69 0 128 -29.5t80 -73.5l3 95h34v-187h-38q-6 56 -39 93t-75.5 51t-92.5 14q-133 0 -221 -88.5t-88 -222.5q0 -133 88.5 -222t220.5 -89q145 0 231 80v158h-219v36h259v-303z
M415 778q-13 0 -23 9.5t-10 23.5t10 23.5t23 9.5t23 -9.5t10 -23.5t-10 -23.5t-23 -9.5z" />
    <glyph glyph-name="gdotaccent" unicode="&#x121;" horiz-adv-x="469" 
d="M291 408h145v-33h-92q44 -39 44 -100q0 -62 -43 -102.5t-110 -40.5q-47 0 -81 19q-23 -4 -35.5 -17t-12.5 -32q0 -44 59 -49l106 -10q92 -9 131.5 -37t39.5 -87q0 -66 -59.5 -104t-153.5 -38q-93 0 -148.5 35.5t-55.5 98.5q0 83 106 114q-60 16 -60 73q0 25 15.5 44.5
t40.5 27.5q-48 40 -48 105q0 62 44 102t112 40q31 0 56 -9zM235 165q53 0 84 30t31 80t-31 79.5t-84 29.5q-54 0 -85.5 -29.5t-31.5 -79.5t31.5 -80t85.5 -30zM180 14q-115 -23 -115 -102q0 -49 42 -75t122 -26q77 0 125.5 28t48.5 80q0 43 -29.5 63t-107.5 26zM233 520
q-13 0 -23 9.5t-10 23.5t10 23.5t23 9.5t23 -9.5t10 -23.5t-10 -23.5t-23 -9.5z" />
    <glyph glyph-name="Gcommaaccent" unicode="&#x122;" horiz-adv-x="767" 
d="M685 0h-34l-5 64q-92 -72 -232 -72q-148 0 -249.5 97.5t-101.5 250.5t101.5 250.5t249.5 97.5q69 0 128 -29.5t80 -73.5l3 95h34v-187h-38q-6 56 -39 93t-75.5 51t-92.5 14q-133 0 -221 -88.5t-88 -222.5q0 -133 88.5 -222t220.5 -89q145 0 231 80v158h-219v36h259v-303z
M370 -243l32 100q-11 2 -19 12.5t-8 23.5q0 16 12 28t27 12t27 -12t12 -28q0 -7 -5 -19l-53 -117h-25z" />
    <glyph glyph-name="gcommaaccent" unicode="&#x123;" horiz-adv-x="469" 
d="M291 408h145v-33h-92q44 -39 44 -100q0 -62 -43 -102.5t-110 -40.5q-47 0 -81 19q-23 -4 -35.5 -17t-12.5 -32q0 -44 59 -49l106 -10q92 -9 131.5 -37t39.5 -87q0 -66 -59.5 -104t-153.5 -38q-93 0 -148.5 35.5t-55.5 98.5q0 83 106 114q-60 16 -60 73q0 25 15.5 44.5
t40.5 27.5q-48 40 -48 105q0 62 44 102t112 40q31 0 56 -9zM235 165q53 0 84 30t31 80t-31 79.5t-84 29.5q-54 0 -85.5 -29.5t-31.5 -79.5t31.5 -80t85.5 -30zM180 14q-115 -23 -115 -102q0 -49 42 -75t122 -26q77 0 125.5 28t48.5 80q0 43 -29.5 63t-107.5 26zM276 689
l-32 -100q11 -2 19 -12.5t8 -23.5q0 -16 -12 -28t-27 -12t-27 12t-12 28q0 7 5 19l53 117h25z" />
    <glyph glyph-name="Hcircumflex" unicode="&#x124;" horiz-adv-x="736" 
d="M566 36v277h-396v-277h79v-36h-189v36h69v608h-69v36h189v-36h-79v-294h396v294h-79v36h189v-36h-69v-608h69v-36h-189v36h79zM251 752l113 182h9l113 -182h-35l-82 119l-83 -119h-35z" />
    <glyph glyph-name="hcircumflex" unicode="&#x125;" horiz-adv-x="545" 
d="M104 688h-70v34h109v-401q21 44 61.5 70t93.5 26q69 0 110.5 -43.5t41.5 -118.5v-222h65v-33h-177v33h73v215q0 64 -30 98.5t-88 34.5q-67 0 -108.5 -41.5t-41.5 -111.5v-195h73v-33h-177v33h65v655zM174 752l113 182h9l113 -182h-35l-82 119l-83 -119h-35z" />
    <glyph glyph-name="Hbar" unicode="&#x126;" horiz-adv-x="736" 
d="M60 484v34h69v126h-69v36h189v-36h-79v-126h396v126h-79v36h189v-36h-69v-126h69v-34h-69v-448h69v-36h-189v36h79v277h-396v-277h79v-36h-189v36h69v448h-69zM170 350h396v134h-396v-134z" />
    <glyph glyph-name="hbar" unicode="&#x127;" horiz-adv-x="545" 
d="M104 688h-70v34h109v-142h153v-33h-153v-226q21 44 61.5 70t93.5 26q69 0 110.5 -43.5t41.5 -118.5v-222h65v-33h-177v33h73v215q0 64 -30 98.5t-88 34.5q-67 0 -108.5 -41.5t-41.5 -111.5v-195h73v-33h-177v33h65v514h-83v33h83v108z" />
    <glyph glyph-name="Imacron" unicode="&#x12a;" horiz-adv-x="303" 
d="M174 644v-608h69v-36h-183v36h73v608h-73v36h183v-36h-69zM54 768v34h194v-34h-194z" />
    <glyph glyph-name="imacron" unicode="&#x12b;" horiz-adv-x="245" 
d="M23 510v34h170v-34h-170zM145 408v-375h66v-33h-172v33h67v341h-72v34h111z" />
    <glyph glyph-name="Iogonek" unicode="&#x12e;" horiz-adv-x="303" 
d="M174 644v-608h69v-36h-68q-64 -88 -64 -137q0 -23 13.5 -35.5t33.5 -12.5q35 0 57 38l30 -18q-25 -54 -88 -54q-36 0 -60.5 21.5t-24.5 61.5q0 30 14.5 59.5t47.5 76.5h-74v36h73v608h-73v36h183v-36h-69z" />
    <glyph glyph-name="iogonek" unicode="&#x12f;" horiz-adv-x="245" 
d="M145 408v-375h66v-33h-66q-65 -89 -65 -137q0 -23 13.5 -35.5t33.5 -12.5q35 0 57 38l30 -18q-25 -54 -88 -54q-36 0 -60.5 21.5t-24.5 61.5q0 30 14.5 59t48.5 77h-65v33h67v341h-72v34h111zM125 551q-13 0 -23 9.5t-10 23.5t10 23.5t23 9.5t23 -9.5t10 -23.5t-10 -23.5
t-23 -9.5z" />
    <glyph glyph-name="Idotaccent" unicode="&#x130;" horiz-adv-x="303" 
d="M174 644v-608h69v-36h-183v36h73v608h-73v36h183v-36h-69zM151 778q-13 0 -23 9.5t-10 23.5t10 23.5t23 9.5t23 -9.5t10 -23.5t-10 -23.5t-23 -9.5z" />
    <glyph glyph-name="dotlessi" unicode="&#x131;" horiz-adv-x="245" 
d="M145 408v-375h66v-33h-172v33h67v341h-72v34h111z" />
    <glyph glyph-name="Jcircumflex" unicode="&#x134;" horiz-adv-x="465" 
d="M227 644v36h183v-36h-69v-476q0 -84 -47 -130t-122 -46q-107 0 -160 90l33 22q44 -75 126 -75q59 0 94 36t35 105v474h-73zM204 752l113 182h9l113 -182h-35l-82 119l-83 -119h-35z" />
    <glyph glyph-name="jcircumflex" unicode="&#x135;" horiz-adv-x="237" 
d="M144 408v-520q0 -54 -25.5 -82t-65.5 -28q-53 0 -83 36l24 25q25 -27 57 -27q54 0 54 77v485h-71v34h110zM7 494l113 182h9l113 -182h-35l-82 119l-83 -119h-35z" />
    <glyph glyph-name="Kcommaaccent" unicode="&#x136;" horiz-adv-x="638" 
d="M578 644h-58l-221 -267l244 -341h60v-36h-184v36h76l-222 312l-103 -124v-188h79v-36h-189v36h69v608h-69v36h189v-36h-79v-307q0 -17 -4 -77q31 52 41 64l267 320h-75v36h179v-36zM276 -243l32 100q-11 2 -19 12.5t-8 23.5q0 16 12 28t27 12t27 -12t12 -28q0 -7 -5 -19
l-53 -117h-25z" />
    <glyph glyph-name="kcommaaccent" unicode="&#x137;" horiz-adv-x="483" 
d="M279 374v34h151v-34h-50l-132 -139l167 -202h50v-33h-163v33h65l-146 176l-78 -82v-94h73v-33h-177v33h65v655h-70v34h109v-478q0 -46 -3 -76l194 206h-55zM204 -243l32 100q-11 2 -19 12.5t-8 23.5q0 16 12 28t27 12t27 -12t12 -28q0 -7 -5 -19l-53 -117h-25z" />
    <glyph glyph-name="Lacute" unicode="&#x139;" horiz-adv-x="543" 
d="M60 0v36h69v608h-69v36h189v-36h-79v-608h286l7 109h34v-145h-437zM134 755l75 195h46l-88 -195h-33z" />
    <glyph glyph-name="lacute" unicode="&#x13a;" horiz-adv-x="254" 
d="M110 33v655h-76v34h115v-689h71v-33h-181v33h71zM116 775l75 195h46l-88 -195h-33z" />
    <glyph glyph-name="Lcommaaccent" unicode="&#x13b;" horiz-adv-x="543" 
d="M60 0v36h69v608h-69v36h189v-36h-79v-608h286l7 109h34v-145h-437zM233 -243l32 100q-11 2 -19 12.5t-8 23.5q0 16 12 28t27 12t27 -12t12 -28q0 -7 -5 -19l-53 -117h-25z" />
    <glyph glyph-name="lcommaaccent" unicode="&#x13c;" horiz-adv-x="254" 
d="M110 33v655h-76v34h115v-689h71v-33h-181v33h71zM82 -243l32 100q-11 2 -19 12.5t-8 23.5q0 16 12 28t27 12t27 -12t12 -28q0 -7 -5 -19l-53 -117h-25z" />
    <glyph glyph-name="Lcaron" unicode="&#x13d;" horiz-adv-x="543" 
d="M328 511l32 100q-11 2 -19 12.5t-8 23.5q0 16 12 28t27 12t27 -12t12 -28q0 -7 -5 -19l-53 -117h-25zM60 0v36h69v608h-69v36h189v-36h-79v-608h286l7 109h34v-145h-437z" />
    <glyph glyph-name="lcaron" unicode="&#x13e;" horiz-adv-x="254" 
d="M235 548l32 100q-11 2 -19 12.5t-8 23.5q0 16 12 28t27 12t27 -12t12 -28q0 -7 -5 -19l-53 -117h-25zM110 33v655h-76v34h115v-689h71v-33h-181v33h71z" />
    <glyph glyph-name="Lslash" unicode="&#x141;" horiz-adv-x="543" 
d="M60 0v36h69v233l-75 -30v38l75 30v337h-69v36h189v-36h-79v-321l209 85v-37l-209 -85v-250h286l7 109h34v-145h-437z" />
    <glyph glyph-name="lslash" unicode="&#x142;" horiz-adv-x="254" 
d="M39 0v33h71v264l-88 -54v40l88 55v350h-76v34h115v-360l91 56v-41l-91 -56v-288h71v-33h-181z" />
    <glyph glyph-name="Nacute" unicode="&#x143;" horiz-adv-x="764" 
d="M604 121v523h-82v36h189v-36h-69v-644h-32l-415 594l-31 46q3 -31 3 -51v-553h82v-36h-189v36h69v608h-69v36h121l395 -564l31 -46q-3 31 -3 51zM365 755l75 195h46l-88 -195h-33z" />
    <glyph glyph-name="nacute" unicode="&#x144;" horiz-adv-x="545" 
d="M39 0v33h65v341h-70v34h108v-91q20 47 61 73.5t95 26.5q69 0 110.5 -43.5t41.5 -118.5v-222h65v-33h-177v33h73v215q0 64 -30 98.5t-88 34.5q-67 0 -108.5 -41.5t-41.5 -111.5v-195h73v-33h-177zM268 497l75 195h46l-88 -195h-33z" />
    <glyph glyph-name="Ncommaaccent" unicode="&#x145;" horiz-adv-x="764" 
d="M604 121v523h-82v36h189v-36h-69v-644h-32l-415 594l-31 46q3 -31 3 -51v-553h82v-36h-189v36h69v608h-69v36h121l395 -564l31 -46q-3 31 -3 51zM340 -243l32 100q-11 2 -19 12.5t-8 23.5q0 16 12 28t27 12t27 -12t12 -28q0 -7 -5 -19l-53 -117h-25z" />
    <glyph glyph-name="ncommaaccent" unicode="&#x146;" horiz-adv-x="545" 
d="M39 0v33h65v341h-70v34h108v-91q20 47 61 73.5t95 26.5q69 0 110.5 -43.5t41.5 -118.5v-222h65v-33h-177v33h73v215q0 64 -30 98.5t-88 34.5q-67 0 -108.5 -41.5t-41.5 -111.5v-195h73v-33h-177zM233 -243l32 100q-11 2 -19 12.5t-8 23.5q0 16 12 28t27 12t27 -12t12 -28
q0 -7 -5 -19l-53 -117h-25z" />
    <glyph glyph-name="Ncaron" unicode="&#x147;" horiz-adv-x="764" 
d="M604 121v523h-82v36h189v-36h-69v-644h-32l-415 594l-31 46q3 -31 3 -51v-553h82v-36h-189v36h69v608h-69v36h121l395 -564l31 -46q-3 31 -3 51zM381 749l-113 182h35l82 -119l83 119h35l-113 -182h-9z" />
    <glyph glyph-name="ncaron" unicode="&#x148;" horiz-adv-x="545" 
d="M39 0v33h65v341h-70v34h108v-91q20 47 61 73.5t95 26.5q69 0 110.5 -43.5t41.5 -118.5v-222h65v-33h-177v33h73v215q0 64 -30 98.5t-88 34.5q-67 0 -108.5 -41.5t-41.5 -111.5v-195h73v-33h-177zM284 491l-113 182h35l82 -119l83 119h35l-113 -182h-9z" />
    <glyph glyph-name="Omacron" unicode="&#x14c;" horiz-adv-x="822" 
d="M411 -8q-147 0 -247.5 97.5t-100.5 250.5t100.5 250.5t247.5 97.5t247.5 -97.5t100.5 -250.5t-100.5 -250.5t-247.5 -97.5zM411 29q131 0 218.5 89t87.5 222t-87.5 222t-218.5 89t-218.5 -89t-87.5 -222t87.5 -222t218.5 -89zM314 768v34h194v-34h-194z" />
    <glyph glyph-name="omacron" unicode="&#x14d;" horiz-adv-x="522" 
d="M262 -8q-89 0 -151 62.5t-62 150.5t62 150t151 62t150 -62t61 -150t-61 -150.5t-150 -62.5zM262 27q76 0 123.5 50.5t47.5 127.5t-47.5 127t-123.5 50t-124.5 -50.5t-48.5 -126.5t48.5 -127t124.5 -51zM164 510v34h194v-34h-194z" />
    <glyph glyph-name="Ohungarumlaut" unicode="&#x150;" horiz-adv-x="822" 
d="M411 -8q-147 0 -247.5 97.5t-100.5 250.5t100.5 250.5t247.5 97.5t247.5 -97.5t100.5 -250.5t-100.5 -250.5t-247.5 -97.5zM411 29q131 0 218.5 89t87.5 222t-87.5 222t-218.5 89t-218.5 -89t-87.5 -222t87.5 -222t218.5 -89zM447 755l75 195h46l-88 -195h-33zM330 755
l75 195h46l-88 -195h-33z" />
    <glyph glyph-name="ohungarumlaut" unicode="&#x151;" horiz-adv-x="522" 
d="M262 -8q-89 0 -151 62.5t-62 150.5t62 150t151 62t150 -62t61 -150t-61 -150.5t-150 -62.5zM262 27q76 0 123.5 50.5t47.5 127.5t-47.5 127t-123.5 50t-124.5 -50.5t-48.5 -126.5t48.5 -127t124.5 -51zM297 497l75 195h46l-88 -195h-33zM180 497l75 195h46l-88 -195h-33z
" />
    <glyph glyph-name="OE" unicode="&#x152;" horiz-adv-x="997" 
d="M916 551h-34l-7 93h-315v-284h279v-36h-279v-288h329l7 109h34v-145h-508q-168 0 -263.5 93.5t-95.5 246.5t95.5 246.5t263.5 93.5h494v-129zM519 37v606h-92q-157 0 -239.5 -82.5t-82.5 -220.5t82.5 -220.5t239.5 -82.5h92z" />
    <glyph glyph-name="oe" unicode="&#x153;" horiz-adv-x="888" 
d="M470 196q2 -75 48.5 -122t124.5 -47q91 0 143 64l26 -23q-61 -76 -169 -76q-72 0 -122 37t-70 98q-22 -61 -72 -98t-117 -37q-89 0 -151 62.5t-62 150.5t62 150t151 62q68 0 118 -37.5t71 -98.5q21 61 70 98.5t114 37.5q91 0 146.5 -63t53.5 -158h-365zM262 27
q76 0 123.5 50.5t47.5 127.5t-47.5 127t-123.5 50t-124.5 -50.5t-48.5 -126.5t48.5 -127t124.5 -51zM471 228h324q-5 67 -46 111t-114 44q-68 0 -112 -43.5t-52 -111.5z" />
    <glyph glyph-name="Racute" unicode="&#x154;" horiz-adv-x="650" 
d="M60 680h251q110 0 173 -51.5t63 -148.5q0 -73 -38.5 -121.5t-108.5 -67.5l144 -255h75v-36h-100l-160 283q-15 -2 -48 -2h-141v-245h79v-36h-189v36h69v608h-69v36zM170 317h137q198 0 198 163q0 164 -198 164h-137v-327zM279 755l75 195h46l-88 -195h-33z" />
    <glyph glyph-name="racute" unicode="&#x155;" horiz-adv-x="361" 
d="M143 33h73v-33h-177v33h65v341h-70v34h108v-82q35 90 119 90q46 0 74 -21l-19 -32q-23 17 -60 17q-47 0 -80 -39t-33 -109v-199zM152 497l75 195h46l-88 -195h-33z" />
    <glyph glyph-name="Rcommaaccent" unicode="&#x156;" horiz-adv-x="650" 
d="M60 680h251q110 0 173 -51.5t63 -148.5q0 -73 -38.5 -121.5t-108.5 -67.5l144 -255h75v-36h-100l-160 283q-15 -2 -48 -2h-141v-245h79v-36h-189v36h69v608h-69v36zM170 317h137q198 0 198 163q0 164 -198 164h-137v-327zM304 -243l32 100q-11 2 -19 12.5t-8 23.5
q0 16 12 28t27 12t27 -12t12 -28q0 -7 -5 -19l-53 -117h-25z" />
    <glyph glyph-name="rcommaaccent" unicode="&#x157;" horiz-adv-x="361" 
d="M143 33h73v-33h-177v33h65v341h-70v34h108v-82q35 90 119 90q46 0 74 -21l-19 -32q-23 17 -60 17q-47 0 -80 -39t-33 -109v-199zM80 -243l32 100q-11 2 -19 12.5t-8 23.5q0 16 12 28t27 12t27 -12t12 -28q0 -7 -5 -19l-53 -117h-25z" />
    <glyph glyph-name="Rcaron" unicode="&#x158;" horiz-adv-x="650" 
d="M60 680h251q110 0 173 -51.5t63 -148.5q0 -73 -38.5 -121.5t-108.5 -67.5l144 -255h75v-36h-100l-160 283q-15 -2 -48 -2h-141v-245h79v-36h-189v36h69v608h-69v36zM170 317h137q198 0 198 163q0 164 -198 164h-137v-327zM295 749l-113 182h35l82 -119l83 119h35
l-113 -182h-9z" />
    <glyph glyph-name="rcaron" unicode="&#x159;" horiz-adv-x="361" 
d="M143 33h73v-33h-177v33h65v341h-70v34h108v-82q35 90 119 90q46 0 74 -21l-19 -32q-23 17 -60 17q-47 0 -80 -39t-33 -109v-199zM168 491l-113 182h35l82 -119l83 119h35l-113 -182h-9z" />
    <glyph glyph-name="Sacute" unicode="&#x15a;" horiz-adv-x="533" 
d="M433 524h-37q-5 62 -44.5 95t-95.5 33q-59 0 -93 -31.5t-34 -83.5q0 -50 26.5 -80t91.5 -60l63 -29q84 -38 123.5 -85.5t39.5 -116.5q0 -78 -55.5 -126t-141.5 -48q-67 0 -113 25.5t-66 64.5l-3 -82h-34v181h38q11 -76 56.5 -114.5t120.5 -38.5q66 0 112 38t46 100
q0 57 -32.5 94t-106.5 71l-63 29q-74 34 -108 74t-34 102q0 69 48 110.5t119 41.5q50 0 87 -20.5t53 -53.5l3 66h34v-156zM246 755l75 195h46l-88 -195h-33z" />
    <glyph glyph-name="sacute" unicode="&#x15b;" horiz-adv-x="394" 
d="M289 307q-18 76 -102 76q-39 0 -62 -18.5t-23 -48.5q0 -34 21.5 -51t83.5 -36q67 -20 101.5 -45.5t34.5 -77.5q0 -50 -37 -82t-103 -32q-83 0 -120 62l-3 -54h-32v121h34q7 -45 39.5 -70t81.5 -25q48 0 74.5 21t26.5 58t-22.5 52.5t-82.5 33.5q-7 2 -10 3
q-64 20 -94.5 45t-30.5 75q0 44 35.5 73.5t87.5 29.5q65 0 100 -50l3 41h31v-101h-32zM175 497l75 195h46l-88 -195h-33z" />
    <glyph glyph-name="Scircumflex" unicode="&#x15c;" horiz-adv-x="533" 
d="M433 524h-37q-5 62 -44.5 95t-95.5 33q-59 0 -93 -31.5t-34 -83.5q0 -50 26.5 -80t91.5 -60l63 -29q84 -38 123.5 -85.5t39.5 -116.5q0 -78 -55.5 -126t-141.5 -48q-67 0 -113 25.5t-66 64.5l-3 -82h-34v181h38q11 -76 56.5 -114.5t120.5 -38.5q66 0 112 38t46 100
q0 57 -32.5 94t-106.5 71l-63 29q-74 34 -108 74t-34 102q0 69 48 110.5t119 41.5q50 0 87 -20.5t53 -53.5l3 66h34v-156zM149 752l113 182h9l113 -182h-35l-82 119l-83 -119h-35z" />
    <glyph glyph-name="scircumflex" unicode="&#x15d;" horiz-adv-x="394" 
d="M289 307q-18 76 -102 76q-39 0 -62 -18.5t-23 -48.5q0 -34 21.5 -51t83.5 -36q67 -20 101.5 -45.5t34.5 -77.5q0 -50 -37 -82t-103 -32q-83 0 -120 62l-3 -54h-32v121h34q7 -45 39.5 -70t81.5 -25q48 0 74.5 21t26.5 58t-22.5 52.5t-82.5 33.5q-7 2 -10 3
q-64 20 -94.5 45t-30.5 75q0 44 35.5 73.5t87.5 29.5q65 0 100 -50l3 41h31v-101h-32zM78 494l113 182h9l113 -182h-35l-82 119l-83 -119h-35z" />
    <glyph glyph-name="Scedilla" unicode="&#x15e;" horiz-adv-x="533" 
d="M268 -228q-68 0 -94 58l30 18q21 -43 63 -43q22 0 37 14t15 38t-15.5 39.5t-46.5 15.5h-15v82q-54 6 -91 30t-54 58l-3 -82h-34v181h38q11 -76 56.5 -114.5t120.5 -38.5q66 0 112 38t46 100q0 57 -32.5 94t-106.5 71l-63 29q-74 34 -108 74t-34 102q0 69 48 110.5
t119 41.5q50 0 87 -20.5t53 -53.5l3 66h34v-156h-37q-5 62 -44.5 95t-95.5 33q-59 0 -93 -31.5t-34 -83.5q0 -50 26.5 -80t91.5 -60l63 -29q84 -38 123.5 -85.5t39.5 -116.5q0 -78 -55 -125.5t-140 -48.5v-51q33 -4 56.5 -27t23.5 -58q0 -39 -26.5 -61.5t-63.5 -22.5z" />
    <glyph glyph-name="scedilla" unicode="&#x15f;" horiz-adv-x="394" 
d="M197 -228q-68 0 -94 58l30 18q21 -43 63 -43q22 0 37 14t15 38t-15.5 39.5t-46.5 15.5h-15v83q-60 10 -88 59l-3 -54h-32v121h34q7 -45 39.5 -70t81.5 -25q48 0 74.5 21t26.5 58t-22.5 52.5t-82.5 33.5q-7 2 -10 3q-64 20 -94.5 45t-30.5 75q0 44 35.5 73.5t87.5 29.5
q65 0 100 -50l3 41h31v-101h-32q-18 76 -102 76q-39 0 -62 -18.5t-23 -48.5q0 -34 21.5 -51t83.5 -36q67 -20 101.5 -45.5t34.5 -77.5q0 -49 -36 -81t-100 -33v-51q33 -4 56.5 -27t23.5 -58q0 -39 -26.5 -61.5t-63.5 -22.5z" />
    <glyph glyph-name="Scaron" unicode="&#x160;" horiz-adv-x="533" 
d="M433 524h-37q-5 62 -44.5 95t-95.5 33q-59 0 -93 -31.5t-34 -83.5q0 -50 26.5 -80t91.5 -60l63 -29q84 -38 123.5 -85.5t39.5 -116.5q0 -78 -55.5 -126t-141.5 -48q-67 0 -113 25.5t-66 64.5l-3 -82h-34v181h38q11 -76 56.5 -114.5t120.5 -38.5q66 0 112 38t46 100
q0 57 -32.5 94t-106.5 71l-63 29q-74 34 -108 74t-34 102q0 69 48 110.5t119 41.5q50 0 87 -20.5t53 -53.5l3 66h34v-156zM262 749l-113 182h35l82 -119l83 119h35l-113 -182h-9z" />
    <glyph glyph-name="scaron" unicode="&#x161;" horiz-adv-x="394" 
d="M289 307q-18 76 -102 76q-39 0 -62 -18.5t-23 -48.5q0 -34 21.5 -51t83.5 -36q67 -20 101.5 -45.5t34.5 -77.5q0 -50 -37 -82t-103 -32q-83 0 -120 62l-3 -54h-32v121h34q7 -45 39.5 -70t81.5 -25q48 0 74.5 21t26.5 58t-22.5 52.5t-82.5 33.5q-7 2 -10 3
q-64 20 -94.5 45t-30.5 75q0 44 35.5 73.5t87.5 29.5q65 0 100 -50l3 41h31v-101h-32zM191 491l-113 182h35l82 -119l83 119h35l-113 -182h-9z" />
    <glyph glyph-name="Tcommaaccent" unicode="&#x162;" horiz-adv-x="601" 
d="M88 541h-34v139h493v-139h-34l-7 103h-185v-608h78v-36h-197v36h78v608h-185zM255 -243l32 100q-11 2 -19 12.5t-8 23.5q0 16 12 28t27 12t27 -12t12 -28q0 -7 -5 -19l-53 -117h-25z" />
    <glyph glyph-name="tcommaaccent" unicode="&#x163;" horiz-adv-x="308" 
d="M188 -8q-42 0 -68 28.5t-26 87.5v267h-64v33h64v143h39v-143h118v-33h-118v-266q0 -82 55 -82q37 0 65 30l25 -24q-36 -41 -90 -41zM139 -243l32 100q-11 2 -19 12.5t-8 23.5q0 16 12 28t27 12t27 -12t12 -28q0 -7 -5 -19l-53 -117h-25z" />
    <glyph glyph-name="Tcaron" unicode="&#x164;" horiz-adv-x="601" 
d="M88 541h-34v139h493v-139h-34l-7 103h-185v-608h78v-36h-197v36h78v608h-185zM296 749l-113 182h35l82 -119l83 119h35l-113 -182h-9z" />
    <glyph glyph-name="tcaron" unicode="&#x165;" horiz-adv-x="308" 
d="M233 548l32 100q-11 2 -19 12.5t-8 23.5q0 16 12 28t27 12t27 -12t12 -28q0 -7 -5 -19l-53 -117h-25zM188 -8q-42 0 -68 28.5t-26 87.5v267h-64v33h64v143h39v-143h118v-33h-118v-266q0 -82 55 -82q37 0 65 30l25 -24q-36 -41 -90 -41z" />
    <glyph glyph-name="Umacron" unicode="&#x16a;" horiz-adv-x="701" 
d="M580 644v-418q0 -111 -64.5 -172.5t-165.5 -61.5q-102 0 -165.5 61.5t-63.5 172.5v418h-69v36h189v-36h-79v-415q0 -96 51 -148.5t137 -52.5t137.5 52.5t51.5 148.5v415h-79v36h189v-36h-69zM253 768v34h194v-34h-194z" />
    <glyph glyph-name="umacron" unicode="&#x16b;" horiz-adv-x="529" 
d="M429 33h66v-33h-104v90q-21 -46 -61.5 -72.5t-93.5 -26.5q-69 0 -110.5 43t-41.5 117v223h-70v34h109v-251q0 -130 117 -130q67 0 108.5 41.5t41.5 111.5v194h-70v34h109v-375zM150 510v34h194v-34h-194z" />
    <glyph glyph-name="Ubreve" unicode="&#x16c;" horiz-adv-x="701" 
d="M580 644v-418q0 -111 -64.5 -172.5t-165.5 -61.5q-102 0 -165.5 61.5t-63.5 172.5v418h-69v36h189v-36h-79v-415q0 -96 51 -148.5t137 -52.5t137.5 52.5t51.5 148.5v415h-79v36h189v-36h-69zM350 742q-49 0 -78.5 29t-38.5 76l35 7q10 -36 28 -56.5t54 -20.5t54 20.5
t28 56.5l35 -7q-9 -47 -38.5 -76t-78.5 -29z" />
    <glyph glyph-name="ubreve" unicode="&#x16d;" horiz-adv-x="529" 
d="M429 33h66v-33h-104v90q-21 -46 -61.5 -72.5t-93.5 -26.5q-69 0 -110.5 43t-41.5 117v223h-70v34h109v-251q0 -130 117 -130q67 0 108.5 41.5t41.5 111.5v194h-70v34h109v-375zM247 484q-49 0 -78.5 29t-38.5 76l35 7q10 -36 28 -56.5t54 -20.5t54 20.5t28 56.5l35 -7
q-9 -47 -38.5 -76t-78.5 -29z" />
    <glyph glyph-name="Uring" unicode="&#x16e;" horiz-adv-x="701" 
d="M580 644v-418q0 -111 -64.5 -172.5t-165.5 -61.5q-102 0 -165.5 61.5t-63.5 172.5v418h-69v36h189v-36h-79v-415q0 -96 51 -148.5t137 -52.5t137.5 52.5t51.5 148.5v415h-79v36h189v-36h-69zM350 746q-39 0 -66.5 27t-27.5 65t27.5 65t66.5 27t66.5 -27t27.5 -65
t-27.5 -65t-66.5 -27zM350 777q26 0 42 16.5t16 44.5t-16 44.5t-42 16.5t-42 -16.5t-16 -44.5t16 -44.5t42 -16.5z" />
    <glyph glyph-name="uring" unicode="&#x16f;" horiz-adv-x="529" 
d="M429 33h66v-33h-104v90q-21 -46 -61.5 -72.5t-93.5 -26.5q-69 0 -110.5 43t-41.5 117v223h-70v34h109v-251q0 -130 117 -130q67 0 108.5 41.5t41.5 111.5v194h-70v34h109v-375zM247 488q-39 0 -66.5 27t-27.5 65t27.5 65t66.5 27t66.5 -27t27.5 -65t-27.5 -65t-66.5 -27z
M247 519q26 0 42 16.5t16 44.5t-16 44.5t-42 16.5t-42 -16.5t-16 -44.5t16 -44.5t42 -16.5z" />
    <glyph glyph-name="Uhungarumlaut" unicode="&#x170;" horiz-adv-x="701" 
d="M580 644v-418q0 -111 -64.5 -172.5t-165.5 -61.5q-102 0 -165.5 61.5t-63.5 172.5v418h-69v36h189v-36h-79v-415q0 -96 51 -148.5t137 -52.5t137.5 52.5t51.5 148.5v415h-79v36h189v-36h-69zM386 755l75 195h46l-88 -195h-33zM269 755l75 195h46l-88 -195h-33z" />
    <glyph glyph-name="uhungarumlaut" unicode="&#x171;" horiz-adv-x="529" 
d="M429 33h66v-33h-104v90q-21 -46 -61.5 -72.5t-93.5 -26.5q-69 0 -110.5 43t-41.5 117v223h-70v34h109v-251q0 -130 117 -130q67 0 108.5 41.5t41.5 111.5v194h-70v34h109v-375zM283 497l75 195h46l-88 -195h-33zM166 497l75 195h46l-88 -195h-33z" />
    <glyph glyph-name="Uogonek" unicode="&#x172;" horiz-adv-x="701" 
d="M376 -219q-36 0 -60.5 21.5t-24.5 61.5q0 52 67 128h-8q-102 0 -165.5 61.5t-63.5 172.5v418h-69v36h189v-36h-79v-415q0 -96 51 -148.5t137 -52.5t137.5 52.5t51.5 148.5v415h-79v36h189v-36h-69v-418q0 -96 -49 -155t-129 -74q-72 -89 -72 -134q0 -23 13.5 -35.5
t33.5 -12.5q35 0 57 38l30 -18q-25 -54 -88 -54z" />
    <glyph glyph-name="uogonek" unicode="&#x173;" horiz-adv-x="529" 
d="M402 -219q-36 0 -60.5 21.5t-24.5 61.5q0 31 17.5 61.5t56.5 74.5v90q-21 -46 -61.5 -72.5t-93.5 -26.5q-69 0 -110.5 43t-41.5 117v223h-70v34h109v-251q0 -130 117 -130q67 0 108.5 41.5t41.5 111.5v194h-70v34h109v-375h66v-33h-64q-75 -92 -75 -137q0 -23 13.5 -35.5
t33.5 -12.5q35 0 57 38l30 -18q-25 -54 -88 -54z" />
    <glyph glyph-name="Ydieresis" unicode="&#x178;" horiz-adv-x="650" 
d="M622 680v-36h-61l-215 -395v-213h78v-36h-198v36h78v214l-216 394h-60v36h169v-36h-63l175 -321q4 -8 17 -40q0 9 18 41l174 320h-65v36h169zM401 779q-13 0 -22.5 9.5t-9.5 22.5t9.5 22.5t22.5 9.5t22.5 -9.5t9.5 -22.5t-9.5 -22.5t-22.5 -9.5zM249 779q-13 0 -22.5 9.5
t-9.5 22.5t9.5 22.5t22.5 9.5t22.5 -9.5t9.5 -22.5t-9.5 -22.5t-22.5 -9.5z" />
    <glyph glyph-name="Zacute" unicode="&#x179;" horiz-adv-x="582" 
d="M133 551h-35v129h421v-25l-420 -619h389l7 109h35v-145h-485v27l421 617h-326zM287 755l75 195h46l-88 -195h-33z" />
    <glyph glyph-name="zacute" unicode="&#x17a;" horiz-adv-x="419" 
d="M67 311v97h304v-25l-277 -349h241l7 69h31v-103h-329v25l275 349h-214l-7 -63h-31zM197 497l75 195h46l-88 -195h-33z" />
    <glyph glyph-name="Zdotaccent" unicode="&#x17b;" horiz-adv-x="582" 
d="M133 551h-35v129h421v-25l-420 -619h389l7 109h35v-145h-485v27l421 617h-326zM307 778q-13 0 -23 9.5t-10 23.5t10 23.5t23 9.5t23 -9.5t10 -23.5t-10 -23.5t-23 -9.5z" />
    <glyph glyph-name="zdotaccent" unicode="&#x17c;" horiz-adv-x="419" 
d="M67 311v97h304v-25l-277 -349h241l7 69h31v-103h-329v25l275 349h-214l-7 -63h-31zM217 520q-13 0 -23 9.5t-10 23.5t10 23.5t23 9.5t23 -9.5t10 -23.5t-10 -23.5t-23 -9.5z" />
    <glyph glyph-name="Zcaron" unicode="&#x17d;" horiz-adv-x="582" 
d="M133 551h-35v129h421v-25l-420 -619h389l7 109h35v-145h-485v27l421 617h-326zM303 749l-113 182h35l82 -119l83 119h35l-113 -182h-9z" />
    <glyph glyph-name="zcaron" unicode="&#x17e;" horiz-adv-x="419" 
d="M67 311v97h304v-25l-277 -349h241l7 69h31v-103h-329v25l275 349h-214l-7 -63h-31zM213 491l-113 182h35l82 -119l83 119h35l-113 -182h-9z" />
    <glyph glyph-name="florin" unicode="&#x192;" horiz-adv-x="357" 
d="M68 -212l48 425h-72v33h75l29 254q6 60 34 89t69 29q61 0 91 -51l-28 -21q-25 37 -62 37q-28 0 -44.5 -19t-21.5 -65l-29 -253h89v-33h-92l-48 -425h-38z" />
    <glyph glyph-name="Scommaaccent" unicode="&#x218;" horiz-adv-x="533" 
d="M433 524h-37q-5 62 -44.5 95t-95.5 33q-59 0 -93 -31.5t-34 -83.5q0 -50 26.5 -80t91.5 -60l63 -29q84 -38 123.5 -85.5t39.5 -116.5q0 -78 -55.5 -126t-141.5 -48q-67 0 -113 25.5t-66 64.5l-3 -82h-34v181h38q11 -76 56.5 -114.5t120.5 -38.5q66 0 112 38t46 100
q0 57 -32.5 94t-106.5 71l-63 29q-74 34 -108 74t-34 102q0 69 48 110.5t119 41.5q50 0 87 -20.5t53 -53.5l3 66h34v-156zM221 -243l32 100q-11 2 -19 12.5t-8 23.5q0 16 12 28t27 12t27 -12t12 -28q0 -7 -5 -19l-53 -117h-25z" />
    <glyph glyph-name="scommaaccent" unicode="&#x219;" horiz-adv-x="394" 
d="M289 307q-18 76 -102 76q-39 0 -62 -18.5t-23 -48.5q0 -34 21.5 -51t83.5 -36q67 -20 101.5 -45.5t34.5 -77.5q0 -50 -37 -82t-103 -32q-83 0 -120 62l-3 -54h-32v121h34q7 -45 39.5 -70t81.5 -25q48 0 74.5 21t26.5 58t-22.5 52.5t-82.5 33.5q-7 2 -10 3
q-64 20 -94.5 45t-30.5 75q0 44 35.5 73.5t87.5 29.5q65 0 100 -50l3 41h31v-101h-32zM150 -243l32 100q-11 2 -19 12.5t-8 23.5q0 16 12 28t27 12t27 -12t12 -28q0 -7 -5 -19l-53 -117h-25z" />
    <glyph glyph-name="uni021A" unicode="&#x21a;" horiz-adv-x="601" 
d="M308 -228q-68 0 -94 58l30 18q21 -43 63 -43q22 0 37 14t15 38t-15.5 39.5t-46.5 15.5h-15v88h-80v36h78v608h-185l-7 -103h-34v139h493v-139h-34l-7 103h-185v-608h78v-36h-81v-59q33 -4 56.5 -27t23.5 -58q0 -39 -26.5 -61.5t-63.5 -22.5z" />
    <glyph glyph-name="uni021B" unicode="&#x21b;" horiz-adv-x="308" 
d="M182 -228q-68 0 -94 58l30 18q21 -43 63 -43q22 0 37 14t15 38t-15.5 39.5t-46.5 15.5h-15v85q-62 19 -62 111v267h-64v33h64v143h39v-143h118v-33h-118v-266q0 -82 55 -82q37 0 65 30l25 -24q-35 -40 -86 -41v-51q33 -4 56.5 -27t23.5 -58q0 -39 -26.5 -61.5
t-63.5 -22.5z" />
    <glyph glyph-name="uni0237" unicode="&#x237;" horiz-adv-x="237" 
d="M144 408v-520q0 -54 -25.5 -82t-65.5 -28q-53 0 -83 36l24 25q25 -27 57 -27q54 0 54 77v485h-71v34h110z" />
    <glyph glyph-name="circumflex" unicode="&#x2c6;" horiz-adv-x="508" 
d="M136 494l113 182h9l113 -182h-35l-82 119l-83 -119h-35z" />
    <glyph glyph-name="caron" unicode="&#x2c7;" horiz-adv-x="508" 
d="M250 491l-113 182h35l82 -119l83 119h35l-113 -182h-9z" />
    <glyph glyph-name="breve" unicode="&#x2d8;" horiz-adv-x="508" 
d="M254 484q-49 0 -78.5 29t-38.5 76l35 7q10 -36 28 -56.5t54 -20.5t54 20.5t28 56.5l35 -7q-9 -47 -38.5 -76t-78.5 -29z" />
    <glyph glyph-name="dotaccent" unicode="&#x2d9;" horiz-adv-x="508" 
d="M254 520q-13 0 -23 9.5t-10 23.5t10 23.5t23 9.5t23 -9.5t10 -23.5t-10 -23.5t-23 -9.5z" />
    <glyph glyph-name="ring" unicode="&#x2da;" horiz-adv-x="508" 
d="M254 488q-39 0 -66.5 27t-27.5 65t27.5 65t66.5 27t66.5 -27t27.5 -65t-27.5 -65t-66.5 -27zM254 519q26 0 42 16.5t16 44.5t-16 44.5t-42 16.5t-42 -16.5t-16 -44.5t16 -44.5t42 -16.5z" />
    <glyph glyph-name="ogonek" unicode="&#x2db;" horiz-adv-x="508" 
d="M245 -219q-36 0 -60.5 21.5t-24.5 61.5q0 31 17.5 61.5t56.5 74.5h40q-75 -92 -75 -137q0 -23 13.5 -35.5t33.5 -12.5q35 0 57 38l30 -18q-25 -54 -88 -54z" />
    <glyph glyph-name="tilde" unicode="&#x2dc;" horiz-adv-x="508" 
d="M154 489l-34 3q2 46 22 71.5t53 25.5q20 0 35 -8.5t36 -29.5q20 -20 28.5 -25t20.5 -5q33 0 39 65l34 -3q-5 -96 -74 -96q-20 0 -34.5 9t-36.5 30q-20 19 -28 24t-21 5q-34 0 -40 -66z" />
    <glyph glyph-name="hungarumlaut" unicode="&#x2dd;" horiz-adv-x="508" 
d="M292 497l75 195h46l-88 -195h-33zM175 497l75 195h46l-88 -195h-33z" />
    <glyph glyph-name="uni2009" unicode="&#x2009;" horiz-adv-x="105" 
 />
    <glyph glyph-name="endash" unicode="&#x2013;" horiz-adv-x="406" 
d="M47 161v34h312v-34h-312z" />
    <glyph glyph-name="emdash" unicode="&#x2014;" horiz-adv-x="625" 
d="M47 161v34h531v-34h-531z" />
    <glyph glyph-name="quoteleft" unicode="&#x2018;" horiz-adv-x="204" 
d="M102 504q-15 0 -27 12t-12 28q0 7 5 19l53 117h25l-32 -100q11 -2 19 -12.5t8 -23.5q0 -16 -12 -28t-27 -12z" />
    <glyph glyph-name="quoteright" unicode="&#x2019;" horiz-adv-x="204" 
d="M58 511l32 100q-11 2 -19 12.5t-8 23.5q0 16 12 28t27 12t27 -12t12 -28q0 -7 -5 -19l-53 -117h-25z" />
    <glyph glyph-name="quotesinglbase" unicode="&#x201a;" horiz-adv-x="204" 
d="M58 -103l32 100q-11 2 -19 12.5t-8 23.5q0 16 12 28t27 12t27 -12t12 -28q0 -7 -5 -19l-53 -117h-25z" />
    <glyph glyph-name="quotedblleft" unicode="&#x201c;" horiz-adv-x="335" 
d="M233 504q-15 0 -27 12t-12 28q0 7 5 19l53 117h25l-32 -100q11 -2 19 -12.5t8 -23.5q0 -16 -12 -28t-27 -12zM102 504q-15 0 -27 12t-12 28q0 7 5 19l53 117h25l-32 -100q11 -2 19 -12.5t8 -23.5q0 -16 -12 -28t-27 -12z" />
    <glyph glyph-name="quotedblright" unicode="&#x201d;" horiz-adv-x="335" 
d="M189 511l32 100q-11 2 -19 12.5t-8 23.5q0 16 12 28t27 12t27 -12t12 -28q0 -7 -5 -19l-53 -117h-25zM58 511l32 100q-11 2 -19 12.5t-8 23.5q0 16 12 28t27 12t27 -12t12 -28q0 -7 -5 -19l-53 -117h-25z" />
    <glyph glyph-name="quotedblbase" unicode="&#x201e;" horiz-adv-x="335" 
d="M189 -103l32 100q-11 2 -19 12.5t-8 23.5q0 16 12 28t27 12t27 -12t12 -28q0 -7 -5 -19l-53 -117h-25zM58 -103l32 100q-11 2 -19 12.5t-8 23.5q0 16 12 28t27 12t27 -12t12 -28q0 -7 -5 -19l-53 -117h-25z" />
    <glyph glyph-name="dagger" unicode="&#x2020;" horiz-adv-x="337" 
d="M150 299v240h-96v33h96v108h37v-108h96v-33h-96v-240h-37z" />
    <glyph glyph-name="daggerdbl" unicode="&#x2021;" horiz-adv-x="337" 
d="M150 299v108h-96v33h96v99h-96v33h96v108h37v-108h96v-33h-96v-99h96v-33h-96v-108h-37z" />
    <glyph glyph-name="bullet" unicode="&#x2022;" horiz-adv-x="305" 
d="M153 167q-36 0 -62.5 26t-26.5 62q0 37 26.5 62.5t62.5 25.5t62 -25.5t26 -62.5q0 -36 -26 -62t-62 -26z" />
    <glyph glyph-name="ellipsis" unicode="&#x2026;" horiz-adv-x="584" 
d="M481 -7q-15 0 -27.5 12t-12.5 28q0 17 12 28.5t28 11.5t28 -11.5t12 -28.5q0 -16 -12 -28t-28 -12zM292 -7q-15 0 -27.5 12t-12.5 28q0 17 12 28.5t28 11.5t28 -11.5t12 -28.5q0 -16 -12 -28t-28 -12zM103 -7q-15 0 -27.5 12t-12.5 28q0 17 12 28.5t28 11.5t28 -11.5
t12 -28.5q0 -16 -12 -28t-28 -12z" />
    <glyph glyph-name="perthousand" unicode="&#x2030;" horiz-adv-x="1065" 
d="M177 219q-58 0 -100.5 40.5t-42.5 101.5q0 60 42.5 101t100.5 41q57 0 99.5 -41t42.5 -101q0 -61 -42.5 -101.5t-99.5 -40.5zM192 0l308 495h40l-308 -495h-40zM177 252q44 0 74.5 30.5t30.5 78.5t-30.5 78t-74.5 30q-45 0 -75.5 -30t-30.5 -78t31 -78.5t75 -30.5z
M555 -8q-58 0 -100 40.5t-42 101.5q0 60 42.5 101t99.5 41t99.5 -41t42.5 -101q0 -61 -42 -101.5t-100 -40.5zM555 25q44 0 74.5 30.5t30.5 78.5q0 47 -30.5 77.5t-74.5 30.5t-74.5 -30.5t-30.5 -77.5q0 -48 30.5 -78.5t74.5 -30.5zM889 -8q-58 0 -100 40.5t-42 101.5
q0 60 42.5 101t99.5 41t99.5 -41t42.5 -101q0 -61 -42 -101.5t-100 -40.5zM889 25q44 0 74.5 30.5t30.5 78.5q0 47 -30.5 77.5t-74.5 30.5t-74.5 -30.5t-30.5 -77.5q0 -48 30.5 -78.5t74.5 -30.5z" />
    <glyph glyph-name="guilsinglleft" unicode="&#x2039;" horiz-adv-x="236" 
d="M142 40l-93 154v8l93 154h43l-95 -158l95 -158h-43z" />
    <glyph glyph-name="guilsinglright" unicode="&#x203a;" horiz-adv-x="236" 
d="M51 40l95 158l-95 158h43l93 -154v-8l-93 -154h-43z" />
    <glyph glyph-name="fraction" unicode="&#x2044;" horiz-adv-x="439" 
d="M24 0l429 680h42l-429 -680h-42z" />
    <glyph glyph-name="Euro" unicode="&#x20ac;" horiz-adv-x="650" 
d="M554 114l32 -21q-64 -101 -201 -101q-85 0 -152 50t-90 131h-87v32h80q-6 42 0 83h-80v32h87q22 82 87.5 132.5t145.5 50.5q60 0 99 -23t55 -54l3 69h33v-154h-36q-8 60 -49 93.5t-106 33.5q-66 0 -118 -40.5t-72 -107.5h247v-32h-254q-6 -42 0 -83h254v-32h-246
q21 -66 75 -106t124 -40q112 0 169 87z" />
    <glyph glyph-name="trademark" unicode="&#x2122;" horiz-adv-x="775" 
d="M607 386v30h45v130l2 79l-112 -160h-6l-112 161q2 -31 2 -80v-130h42v-30h-124v30h46v234h-42v30h80l113 -163l114 163h72v-30h-38v-234h42v-30h-124zM269 604l-2 43h-77v-231h44v-30h-124v30h43v231h-78l-2 -43h-29v76h254v-76h-29z" />
    <glyph glyph-name="summation" unicode="&#x2211;" horiz-adv-x="596" 
d="M506 551h-34l-7 93h-300l-44 1q17 -17 33 -35l222 -251v-14l-224 -273l-34 -38q22 2 51 2h310l7 109h34v-145h-459v15l275 336l-280 314v15h450v-129z" />
    <glyph glyph-name="minus" unicode="&#x2212;" horiz-adv-x="363" 
d="M320 227h-277v36h277v-36z" />
    <glyph glyph-name="space_uni0326" horiz-adv-x="508" 
d="M212 -243l32 100q-11 2 -19 12.5t-8 23.5q0 16 12 28t27 12t27 -12t12 -28q0 -7 -5 -19l-53 -117h-25z" />
    <glyph glyph-name="idotaccent" horiz-adv-x="245" 
d="M125 551q-13 0 -23 9.5t-10 23.5t10 23.5t23 9.5t23 -9.5t10 -23.5t-10 -23.5t-23 -9.5zM145 408v-375h66v-33h-172v33h67v341h-72v34h111z" />
    <glyph glyph-name="space.lining" horiz-adv-x="260" 
 />
    <glyph glyph-name="dollar.lining" horiz-adv-x="533" 
d="M243 -116v110q-109 10 -148 88l-3 -82h-34v181h38q19 -136 147 -152v325l-14 7q-75 35 -108.5 74t-33.5 101q0 66 44.5 107t111.5 44v86h37v-87q82 -9 114 -72l3 66h34v-156h-37q-4 54 -35.5 86.5t-78.5 39.5v-269l28 -13q84 -38 123.5 -85.5t39.5 -116.5
q0 -77 -53.5 -124.5t-137.5 -49.5v-108h-37zM431 166q0 58 -34.5 95.5t-116.5 75.5v-309q64 2 107.5 39.5t43.5 98.5zM127 537q0 -50 26 -80t90 -59v253q-55 -3 -85.5 -33.5t-30.5 -80.5z" />
    <glyph glyph-name="cent.lining" horiz-adv-x="482" 
d="M418 291h-32q-24 87 -112 91v-355q79 3 126 61l28 -23q-55 -69 -154 -73v-108h-34v109q-79 8 -131.5 68t-52.5 143q0 82 52 143t132 70v106h34v-106q75 -4 110 -56l3 47h31v-117zM97 204q0 -70 39 -119t104 -57v354q-66 -9 -104.5 -58.5t-38.5 -119.5z" />
    <glyph glyph-name="Euro.lining" horiz-adv-x="651" 
d="M36 395v34h87q20 117 89.5 188t166.5 71q124 0 174 -93l3 85h32v-176h-35q-12 68 -58 107.5t-116 39.5q-84 0 -140 -60.5t-74 -161.5h281v-34h-285q-6 -53 -1 -107h286v-34h-281q16 -107 72 -166t147 -59q130 0 191 124l34 -16q-65 -145 -224 -145q-109 0 -176.5 70.5
t-85.5 191.5h-87v34h82q-5 53 1 107h-83z" />
    <glyph glyph-name="sterling.lining" horiz-adv-x="583" 
d="M515 512h-37q-9 70 -49.5 104.5t-102.5 34.5q-72 0 -116 -45t-44 -114q0 -67 38 -170h197v-34h-184q36 -93 36 -163q0 -12 -1 -18q2 -1 13.5 -10.5t14.5 -12t13.5 -10.5t15 -10.5t15 -9t16.5 -9t16 -6.5t18 -5.5t18.5 -3t20.5 -1.5q38 0 60 13t44 42l31 -22
q-27 -36 -57.5 -53t-77.5 -17q-33 0 -67.5 14t-52.5 26.5t-51 38.5q-15 -35 -46 -57t-68 -22q-40 0 -69 23t-29 62q0 40 27.5 62.5t69.5 22.5q45 0 89 -29q-2 66 -38 155h-97v34h83q-40 97 -40 170q0 84 56.5 140t145.5 56q54 0 93.5 -22t58.5 -64l3 78h34v-168zM213 93
q-49 35 -85 35q-27 0 -44.5 -13.5t-17.5 -36.5q0 -25 17.5 -38.5t45.5 -13.5q31 0 53.5 17.5t30.5 49.5z" />
    <glyph glyph-name="yen.lining" horiz-adv-x="618" 
d="M597 680v-36h-60l-154 -291h158v-33h-176l-37 -71v-36h213v-33h-213v-144h78v-36h-198v36h79v144h-213v33h213v37l-37 70h-176v33h158l-153 291h-58v36h169v-36h-65l168 -320q4 -7 7 -15.5t6 -16.5t3 -9q0 9 18 41l167 320h-66v36h169z" />
    <glyph glyph-name="florin.lining" horiz-adv-x="371" 
d="M72 -212l55 487h-72v33h76l29 262q14 118 104 118q59 0 88 -51l-28 -20q-22 36 -59 36q-29 0 -45 -18t-22 -66l-29 -261h98v-33h-102l-55 -487h-38z" />
    <glyph glyph-name="zero.lining" horiz-adv-x="648" 
d="M324 -8q-110 0 -185.5 92t-75.5 256t75.5 256t185.5 92t185.5 -92t75.5 -256t-75.5 -256t-185.5 -92zM324 29q94 0 156.5 79.5t62.5 231.5t-62.5 231.5t-156.5 79.5t-156.5 -79.5t-62.5 -231.5t62.5 -231.5t156.5 -79.5z" />
    <glyph glyph-name="one.lining" horiz-adv-x="355" 
d="M72 36h95v608h-105v36h146v-644h80v-36h-216v36z" />
    <glyph glyph-name="two.lining" horiz-adv-x="556" 
d="M50 0v27l279 275q103 101 103 205q0 65 -39.5 104.5t-106.5 39.5q-64 0 -108.5 -37.5t-58.5 -108.5l-38 7q12 77 67 126.5t138 49.5t135 -50t52 -131q0 -116 -119 -232l-198 -195l-53 -48q40 4 73 4h263l5 93h34v-129h-428z" />
    <glyph glyph-name="three.lining" horiz-adv-x="574" 
d="M82 551v129h389v-26l-177 -199l-35 -36q112 6 182 -52t70 -155t-66.5 -158.5t-174.5 -61.5q-77 0 -137 35t-90 91l33 19q62 -108 193 -108q94 0 147.5 50.5t53.5 132.5q0 83 -53.5 129t-147.5 46q-46 0 -77 -13l-6 11l203 227l35 37q-31 -5 -57 -5h-247l-4 -93h-34z" />
    <glyph glyph-name="four.lining" horiz-adv-x="576" 
d="M317 34h84v106h-379v25l394 518h26v-508h86v-35h-86v-106h74v-34h-199v34zM401 175v362q0 64 5 74q-1 -1 -8 -11.5t-18.5 -26t-19.5 -26.5l-247 -322l-43 -53q40 3 76 3h255z" />
    <glyph glyph-name="five.lining" horiz-adv-x="560" 
d="M424 551l-5 93h-282v-256q55 40 137 40q99 0 160.5 -57t61.5 -156q0 -103 -66 -163t-170 -60q-73 0 -132.5 31.5t-91.5 86.5l34 21q28 -47 77.5 -74.5t112.5 -27.5q87 0 140.5 50.5t53.5 135.5q0 83 -48.5 130t-131.5 47q-111 0 -161 -67l-13 4v351h357v-129h-33z" />
    <glyph glyph-name="six.lining" horiz-adv-x="572" 
d="M286 -8q-98 0 -162 65t-64 159q0 77 52 150l223 314h45l-167 -233l-41 -51q58 45 119 45q96 0 158.5 -65.5t62.5 -159.5t-64 -159t-162 -65zM286 29q83 0 134 54.5t51 132.5q0 79 -50.5 134t-134.5 55q-83 0 -134 -54.5t-51 -134.5q0 -78 51 -132.5t134 -54.5z" />
    <glyph glyph-name="seven.lining" horiz-adv-x="534" 
d="M44 551v129h457v-24l-352 -656h-42l346 645h-371l-5 -94h-33z" />
    <glyph glyph-name="eight.lining" horiz-adv-x="590" 
d="M295 -8q-98 0 -163.5 53.5t-65.5 140.5q0 70 42 117t111 63q-54 14 -83.5 55.5t-29.5 98.5q0 70 52 119t137 49t138 -49t53 -119q0 -57 -30 -99t-84 -55q69 -17 110.5 -63.5t41.5 -116.5q0 -88 -65 -141t-164 -53zM295 30q85 0 136 42t51 114q0 73 -51 117t-136 44
q-84 0 -135.5 -44t-51.5 -117t51.5 -114.5t135.5 -41.5zM295 381q72 0 111.5 39t39.5 99q0 56 -40 94.5t-111 38.5q-70 0 -109.5 -38.5t-39.5 -94.5q0 -60 39 -99t110 -39z" />
    <glyph glyph-name="nine.lining" horiz-adv-x="581" 
d="M214 0l159 234l33 42q-57 -45 -121 -45q-97 0 -161 66.5t-64 162.5t65 162t165 66q101 0 166 -66t65 -162q0 -71 -54 -153l-208 -307h-45zM290 267q85 0 137.5 55.5t52.5 137.5q0 80 -52 135.5t-138 55.5q-85 0 -137 -55.5t-52 -135.5q0 -81 51 -137t138 -56z" />
    <glyph glyph-name="percent.lining" horiz-adv-x="746" 
d="M193 368q-65 0 -112.5 46t-47.5 114t47.5 114t112.5 46t112.5 -46t47.5 -114t-47.5 -114t-112.5 -46zM138 0l429 680h42l-429 -680h-42zM193 403q51 0 86 35.5t35 89.5t-35 89.5t-86 35.5t-86 -35t-35 -90t35 -90t86 -35zM554 -8q-65 0 -112.5 46t-47.5 114t47.5 114
t112.5 46q64 0 111.5 -46t47.5 -114t-47.5 -114t-111.5 -46zM554 27q50 0 85.5 35.5t35.5 89.5q0 55 -35 90t-86 35t-86.5 -35t-35.5 -90t35.5 -90t86.5 -35z" />
    <glyph glyph-name="perthousand.lining" horiz-adv-x="1128" 
d="M193 368q-65 0 -112.5 46t-47.5 114t47.5 114t112.5 46t112.5 -46t47.5 -114t-47.5 -114t-112.5 -46zM138 0l429 680h42l-429 -680h-42zM193 403q51 0 86 35.5t35 89.5t-35 89.5t-86 35.5t-86 -35t-35 -90t35 -90t86 -35zM554 -8q-65 0 -112.5 46t-47.5 114t47.5 114
t112.5 46q64 0 111.5 -46t47.5 -114t-47.5 -114t-111.5 -46zM554 27q50 0 85.5 35.5t35.5 89.5q0 55 -35 90t-86 35t-86.5 -35t-35.5 -90t35.5 -90t86.5 -35zM936 -8q-65 0 -112.5 46t-47.5 114t47.5 114t112.5 46q64 0 111.5 -46t47.5 -114t-47.5 -114t-111.5 -46zM936 27
q50 0 85.5 35.5t35.5 89.5q0 55 -35 90t-86 35t-86.5 -35t-35.5 -90t35.5 -90t86.5 -35z" />
    <glyph glyph-name="plus.lining" horiz-adv-x="423" 
d="M192 155v152h-139v36h139v152h38v-152h140v-36h-140v-152h-38z" />
    <glyph glyph-name="minus.lining" horiz-adv-x="411" 
d="M364 307h-317v36h317v-36z" />
    <glyph glyph-name="multiply.lining" horiz-adv-x="416" 
d="M208 299l-120 -120l-26 26l120 120l-120 120l26 26l120 -120l120 120l26 -26l-120 -120l120 -120l-26 -26z" />
    <glyph glyph-name="divide.lining" horiz-adv-x="411" 
d="M364 307h-317v36h317v-36zM205 427q-15 0 -27 11.5t-12 27.5t12 27.5t27 11.5t27 -11.5t12 -27.5t-12 -27.5t-27 -11.5zM205 145q-15 0 -27 11.5t-12 27.5t12 27.5t27 11.5t27 -11.5t12 -27.5t-12 -27.5t-27 -11.5z" />
    <glyph glyph-name="equal.lining" horiz-adv-x="421" 
d="M58 364v36h305v-36h-305zM58 231v36h305v-36h-305z" />
    <glyph glyph-name="less.lining" horiz-adv-x="404" 
d="M341 162l-291 157v10l291 154v-40l-227 -120l227 -121v-40z" />
    <glyph glyph-name="greater.lining" horiz-adv-x="404" 
d="M63 162v40l227 120l-227 121v40l291 -157v-10z" />
    <glyph glyph-name="degree.lining" horiz-adv-x="380" 
d="M191 437q-53 0 -90.5 36.5t-37.5 88.5q0 53 37.5 89.5t90.5 36.5t89.5 -36.5t36.5 -89.5t-36.5 -89t-89.5 -36zM191 470q40 0 65 26t25 66t-25 66.5t-65 26.5q-41 0 -66 -26.5t-25 -66.5t25 -66t66 -26z" />
    <glyph glyph-name="period.lining" horiz-adv-x="214" 
d="M107 -7q-15 0 -27.5 12t-12.5 28q0 17 12 28.5t28 11.5t28 -11.5t12 -28.5q0 -16 -12 -28t-28 -12z" />
    <glyph glyph-name="comma.lining" horiz-adv-x="214" 
d="M57 -111l39 107q-29 7 -29 37q0 16 12.5 28t27.5 12q16 0 28 -12t12 -28q0 -11 -4 -19l-61 -125h-25z" />
    <glyph glyph-name="colon.lining" horiz-adv-x="224" 
d="M112 214q-15 0 -27.5 12t-12.5 28q0 17 12.5 29t27.5 12q16 0 28 -12t12 -29q0 -16 -12 -28t-28 -12zM112 -7q-15 0 -27.5 12t-12.5 28q0 17 12.5 29t27.5 12q16 0 28 -12t12 -29q0 -16 -12 -28t-28 -12z" />
    <glyph glyph-name="semicolon.lining" horiz-adv-x="224" 
d="M112 214q-15 0 -27.5 12t-12.5 28q0 17 12.5 29t27.5 12q16 0 28 -12t12 -29q0 -16 -12 -28t-28 -12zM62 -111l39 107q-29 7 -29 37q0 16 12.5 28t27.5 12q16 0 28 -12t12 -28q0 -11 -4 -19l-61 -125h-25z" />
    <glyph glyph-name="parenleft.lining" horiz-adv-x="277" 
d="M223 -136q-165 175 -165 427t165 427l26 -23q-150 -171 -150 -404t150 -404z" />
    <glyph glyph-name="parenright.lining" horiz-adv-x="277" 
d="M54 -136l-26 23q149 170 149 404t-149 404l26 23q165 -177 165 -427t-165 -427z" />
    <glyph glyph-name="bracketleft.lining" horiz-adv-x="296" 
d="M101 -128v850h168v-35h-128v-780h128v-35h-168z" />
    <glyph glyph-name="bracketright.lining" horiz-adv-x="297" 
d="M27 -128v35h128v780h-128v35h169v-850h-169z" />
    <glyph glyph-name="braceleft.lining" horiz-adv-x="361" 
d="M275 -128q-121 0 -121 144v198q0 40 -14.5 55.5t-44.5 15.5h-57v35h57q30 0 44.5 15.5t14.5 55.5v187q0 144 121 144h44v-35h-43q-40 0 -61 -24t-21 -85v-190q0 -71 -52 -85q52 -13 52 -86v-201q0 -61 21 -85t61 -24h43v-35h-44z" />
    <glyph glyph-name="braceright.lining" horiz-adv-x="360" 
d="M86 722q120 0 120 -144v-186q0 -40 15 -56t45 -16h56v-35h-56q-30 0 -45 -15.5t-15 -54.5v-199q0 -144 -120 -144h-44v35h43q40 0 60.5 24t20.5 85v201q0 73 53 85q-53 12 -53 87v189q0 61 -20.5 85t-60.5 24h-43v35h44z" />
    <glyph glyph-name="section.lining" horiz-adv-x="557" 
d="M455 519h-37q-5 63 -43 98t-92 34q-61 0 -97.5 -34t-36.5 -89q0 -53 26.5 -82t83.5 -54l108 -48q77 -34 110.5 -72.5t33.5 -91.5q0 -40 -25.5 -71.5t-67.5 -46.5q31 -36 31 -87q0 -68 -45 -111.5t-132 -43.5q-127 0 -171 90l-3 -82h-34v181h38q23 -153 170 -152
q68 0 101.5 32t33.5 87q0 45 -29 74.5t-86 54.5l-104 46q-75 33 -108.5 71.5t-33.5 95.5q0 82 83 125q-22 36 -22 85q0 70 50.5 115.5t124.5 45.5q99 0 136 -75l3 66h34v-161zM397 87q34 11 54 36t20 57q0 42 -27.5 70.5t-92.5 57.5l-108 48q-63 27 -96 63q-61 -33 -61 -99
q0 -47 26.5 -75.5t91.5 -57.5l104 -46q56 -24 89 -54z" />
    <glyph glyph-name="numbersign.lining" horiz-adv-x="435" 
d="M74 262l28 111h-72v34h80l31 124h-80v34h88l29 115h36l-29 -115h111l29 115h36l-29 -115h73v-34h-81l-31 -124h80v-34h-89l-27 -111h-37l28 111h-111l-27 -111h-36zM146 407h111l31 124h-111z" />
    <glyph glyph-name="ordfeminine.lining" horiz-adv-x="420" 
d="M296 539v5q0 63 -23.5 87t-69.5 24q-67 0 -111 -58l-25 19q45 72 136 72q60 0 95.5 -33.5t35.5 -106.5v-179h57v-34h-95v47q-38 -55 -119 -55q-59 0 -96 28t-37 80q0 51 39 77.5t97 26.5h116zM296 507h-111q-102 0 -102 -72q0 -75 100 -75q47 0 80 23t33 67v57z" />
    <glyph glyph-name="ordmasculine.lining" horiz-adv-x="450" 
d="M225 328q-74 0 -126 51.5t-52 128.5q0 76 52 128t126 52t126 -52t52 -128q0 -77 -52 -128.5t-126 -51.5zM225 361q61 0 100 41.5t39 105.5t-39 105.5t-100 41.5t-100 -41.5t-39 -105.5t39 -105.5t100 -41.5z" />
    <glyph glyph-name="space.tab" horiz-adv-x="200" 
 />
    <glyph glyph-name="dollar.tab" 
d="M241 -120v113q-88 11 -116 61l-3 -54h-31v165h34q2 -40 12.5 -68t28.5 -41.5t35 -19.5t40 -9v219l-12 4q-63 21 -94.5 51t-31.5 81t39.5 84t98.5 37v107h34v-108q72 -8 101 -54l3 47h31v-140h-34q-2 53 -29 81.5t-72 31.5v-195l19 -6q72 -25 104 -57t32 -86
q0 -57 -42 -93t-113 -39v-112h-34zM391 124q0 43 -25 65.5t-91 44.5v-208q54 3 85 29t31 69zM142 383q0 -38 22.5 -59t76.5 -39v184q-45 -3 -72 -25t-27 -61z" />
    <glyph glyph-name="cent.tab" 
d="M442 291h-32q-24 87 -112 91v-355q79 3 126 61l28 -23q-55 -69 -154 -73v-108h-34v109q-79 8 -131.5 68t-52.5 143q0 82 52 143t132 70v106h34v-106q75 -4 110 -56l3 47h31v-117zM121 204q0 -70 39 -119t104 -57v354q-66 -9 -104.5 -58.5t-38.5 -119.5z" />
    <glyph glyph-name="Euro.tab" 
d="M444 116l33 -20q-61 -104 -176 -104q-82 0 -135.5 48t-71.5 133h-71v32h66q-4 41 0 83h-66v32h71q17 82 73 132.5t126 50.5q99 0 137 -75l3 67h33v-154h-36q-22 127 -137 127q-61 0 -102 -39.5t-56 -108.5h214v-32h-219q-4 -41 0 -83h219v-32h-214q13 -65 55 -105
t111 -40q55 0 87 23.5t56 64.5z" />
    <glyph glyph-name="sterling.tab" 
d="M458 610v-167h-32q-7 65 -46 102t-99 37q-62 0 -98.5 -34.5t-36.5 -94.5q0 -56 36 -153h167v-33h-154q33 -90 37 -149q1 -6 1 -18q62 -50 92 -62q24 -10 47 -10q56 0 96 45l25 -25q-49 -56 -121 -56q-65 0 -146 69q-13 -31 -42 -50t-66 -19q-41 0 -66 23t-25 59t25 58.5
t66 22.5q36 0 80 -28q-5 51 -42 140h-94v33h81q-38 95 -38 154q0 70 50 117t126 47q102 0 142 -78l3 70h32zM197 85q-48 39 -79 39q-26 0 -41 -13.5t-15 -36.5t15 -37t41 -14q29 0 51.5 17.5t27.5 44.5z" />
    <glyph glyph-name="yen.tab" 
d="M351 461v34h142v-34h-52l-96 -164h102v-33h-122l-49 -84h171v-33h-172v-114h67v-33h-177v33h69v114h-172v33h170l-47 84h-123v33h105l-91 164h-51v34h142v-34h-45l113 -209q5 -10 10.5 -22t8.5 -20l3 -9q6 22 22 51l120 209h-48z" />
    <glyph glyph-name="florin.tab" 
d="M198 213h-102v33h105l26 228q8 72 42.5 108t84.5 36q78 0 113 -69l-30 -18q-14 26 -31.5 39t-50.5 13q-77 0 -89 -110l-26 -227h140v-33h-144l-47 -425h-39z" />
    <glyph glyph-name="zero.tab" 
d="M259 -8q-97 0 -155.5 71.5t-58.5 184.5t59.5 184t154.5 71q96 0 155.5 -71t59.5 -184t-59 -184.5t-156 -71.5zM259 28q80 0 127 59.5t47 160.5q0 102 -47 160.5t-127 58.5t-126.5 -58.5t-46.5 -160.5q0 -101 46.5 -160.5t126.5 -59.5z" />
    <glyph glyph-name="one.tab" 
d="M240 35v425h-136v35h176v-460h139v-35h-331v35h152z" />
    <glyph glyph-name="two.tab" 
d="M58 0v26l205 155q117 89 117 176q0 50 -31.5 80t-83.5 30q-105 0 -142 -113l-35 10q17 65 64.5 102t112.5 37q66 0 110.5 -39.5t44.5 -106.5q0 -101 -129 -199l-123 -94q-38 -28 -48 -31q1 0 24 1.5t34 1.5h222l5 67h31v-103h-378z" />
    <glyph glyph-name="three.tab" 
d="M87 393v102h342v-26l-162 -178q-21 -23 -34 -29q98 6 160.5 -42t62.5 -134q0 -89 -59 -139t-145 -50q-70 0 -125.5 33t-81.5 92l34 17q53 -107 173 -107q70 0 117 40t47 114q0 72 -45 107.5t-126 35.5q-39 0 -79 -17l-8 10l195 212l27 28h-3q-3 0 -7 -0.5t-9 -1t-11 -0.5
h-11h-214l-5 -67h-33z" />
    <glyph glyph-name="four.tab" 
d="M273 -61h81v103h-320v24l331 429h29v-419h77v-34h-77v-103h78v-33h-199v33zM354 76v309q0 39 4 47l-4 -6q-4 -5 -11.5 -15t-14.5 -20l-215 -281l-33 -36q15 2 45 2h229z" />
    <glyph glyph-name="five.tab" 
d="M395 394l-5 66h-253v-212q51 34 121 34q89 0 143 -52.5t54 -138.5t-59 -140t-147 -54q-65 0 -114 26.5t-75 71.5l31 20q51 -82 158 -82q74 0 119.5 43t45.5 115q0 74 -40 114.5t-119 40.5q-94 0 -143 -57l-11 4v302h326v-101h-32z" />
    <glyph glyph-name="six.tab" 
d="M262 -8q-88 0 -146 55.5t-58 142.5q0 59 57 147l181 273h44l-144 -218q-22 -31 -34 -43q47 40 105 40q86 0 142 -56.5t56 -142.5q0 -84 -57.5 -141t-145.5 -57zM261 28q71 0 117.5 45.5t46.5 116.5q0 75 -43.5 119t-119.5 44q-73 0 -118.5 -47.5t-45.5 -115.5
q0 -72 44.5 -117t118.5 -45z" />
    <glyph glyph-name="seven.tab" 
d="M65 384v111h377v-25l-278 -564h-41l274 554h-295l-4 -76h-33z" />
    <glyph glyph-name="eight.tab" 
d="M259 -8q-87 0 -145 51.5t-58 131.5q0 63 37 107t98 60q-42 15 -66.5 48.5t-24.5 80.5q0 62 46.5 104.5t112.5 42.5q67 0 114 -42.5t47 -104.5q0 -47 -25 -80t-68 -49q62 -16 99 -60t37 -107q0 -80 -58 -131.5t-146 -51.5zM259 29q74 0 118.5 40t44.5 106
q0 67 -44.5 107.5t-118.5 40.5t-118 -40.5t-44 -107.5t44 -106.5t118 -39.5zM259 359q55 0 88 31t33 81q0 49 -33.5 80.5t-87.5 31.5q-55 0 -87.5 -31.5t-32.5 -80.5q0 -51 32.5 -81.5t87.5 -30.5z" />
    <glyph glyph-name="nine.tab" 
d="M193 -94l133 198q5 7 13.5 18t15.5 20t8 10q-48 -45 -110 -45q-84 0 -141 57t-57 142q0 82 58.5 139.5t145.5 57.5q86 0 144.5 -56.5t58.5 -140.5q0 -63 -57 -147l-170 -253h-42zM258 143q73 0 118.5 47t45.5 116q0 72 -44 116.5t-118 44.5q-73 0 -119 -45t-46 -116
q0 -75 43.5 -119t119.5 -44z" />
    <glyph glyph-name="percent.tab" horiz-adv-x="750" 
d="M186 219q-58 0 -100.5 40.5t-42.5 101.5q0 60 42.5 101t100.5 41q57 0 99.5 -41t42.5 -101q0 -61 -42.5 -101.5t-99.5 -40.5zM201 0l308 495h40l-308 -495h-40zM564 -8q-58 0 -100 40.5t-42 101.5q0 60 42.5 101t99.5 41t99.5 -41t42.5 -101q0 -61 -42 -101.5t-100 -40.5
zM186 252q44 0 74.5 30.5t30.5 78.5t-30.5 78t-74.5 30q-45 0 -75.5 -30t-30.5 -78t31 -78.5t75 -30.5zM564 25q44 0 74.5 30.5t30.5 78.5q0 47 -30.5 77.5t-74.5 30.5t-74.5 -30.5t-30.5 -77.5q0 -48 30.5 -78.5t74.5 -30.5z" />
    <glyph glyph-name="perthousand.tab" horiz-adv-x="1100" 
d="M194 219q-58 0 -100.5 40.5t-42.5 101.5q0 60 42.5 101t100.5 41q57 0 99.5 -41t42.5 -101q0 -61 -42.5 -101.5t-99.5 -40.5zM209 0l308 495h40l-308 -495h-40zM572 -8q-58 0 -100 40.5t-42 101.5q0 60 42.5 101t99.5 41t99.5 -41t42.5 -101q0 -61 -42 -101.5t-100 -40.5
zM194 252q44 0 74.5 30.5t30.5 78.5t-30.5 78t-74.5 30q-45 0 -75.5 -30t-30.5 -78t31 -78.5t75 -30.5zM572 25q44 0 74.5 30.5t30.5 78.5q0 47 -30.5 77.5t-74.5 30.5t-74.5 -30.5t-30.5 -77.5q0 -48 30.5 -78.5t74.5 -30.5zM906 -8q-58 0 -100 40.5t-42 101.5
q0 60 42.5 101t99.5 41t99.5 -41t42.5 -101q0 -61 -42 -101.5t-100 -40.5zM906 25q44 0 74.5 30.5t30.5 78.5q0 47 -30.5 77.5t-74.5 30.5t-74.5 -30.5t-30.5 -77.5q0 -48 30.5 -78.5t74.5 -30.5z" />
    <glyph glyph-name="plus.tab" 
d="M241 65v162h-149v36h149v162h38v-162h149v-36h-149v-162h-38z" />
    <glyph glyph-name="minus.tab" 
d="M92 227v36h336v-36h-336z" />
    <glyph glyph-name="multiply.tab" 
d="M261 218l-129 -129l-26 26l129 129l-129 129l26 26l129 -129l129 129l26 -26l-129 -129l129 -129l-26 -26z" />
    <glyph glyph-name="divide.tab" 
d="M259 355q-15 0 -26.5 11.5t-11.5 26.5q0 16 11.5 27t26.5 11t26.5 -11t11.5 -27t-11.5 -27t-26.5 -11zM91 227v36h337v-36h-337zM259 59q-15 0 -26.5 11.5t-11.5 26.5q0 16 11.5 27t26.5 11t26.5 -11t11.5 -27t-11.5 -27t-26.5 -11z" />
    <glyph glyph-name="equal.tab" 
d="M92 283v36h336v-36h-336zM92 170v36h336v-36h-336z" />
    <glyph glyph-name="less.tab" 
d="M400 85l-308 154v10l308 152v-39l-243 -119l243 -120v-38z" />
    <glyph glyph-name="greater.tab" 
d="M120 85v39l243 119l-243 120v38l308 -154v-10z" />
    <glyph glyph-name="degree.tab" horiz-adv-x="350" 
d="M175 294q-44 0 -75 30.5t-31 73.5q0 44 31 74.5t75 30.5t75 -30.5t31 -74.5q0 -43 -31 -73.5t-75 -30.5zM175 324q32 0 51.5 21t19.5 53q0 33 -19.5 54t-51.5 21t-52 -21t-20 -54q0 -32 20 -53t52 -21z" />
    <glyph glyph-name="period.tab" horiz-adv-x="200" 
d="M100 -7q-15 0 -27.5 12t-12.5 28q0 17 12 28.5t28 11.5t28 -11.5t12 -28.5q0 -16 -12 -28t-28 -12z" />
    <glyph glyph-name="comma.tab" horiz-adv-x="200" 
d="M50 -111l39 107q-29 7 -29 37q0 16 12.5 28t27.5 12q16 0 28 -12t12 -28q0 -11 -4 -19l-61 -125h-25z" />
    <glyph glyph-name="colon.tab" horiz-adv-x="200" 
d="M100 214q-15 0 -27.5 12t-12.5 28q0 17 12.5 29t27.5 12q16 0 28 -12t12 -29q0 -16 -12 -28t-28 -12zM100 -7q-15 0 -27.5 12t-12.5 28q0 17 12.5 29t27.5 12q16 0 28 -12t12 -29q0 -16 -12 -28t-28 -12z" />
    <glyph glyph-name="semicolon.tab" horiz-adv-x="200" 
d="M100 214q-15 0 -27.5 12t-12.5 28q0 17 12.5 29t27.5 12q16 0 28 -12t12 -29q0 -16 -12 -28t-28 -12zM50 -111l39 107q-29 7 -29 37q0 16 12.5 28t27.5 12q16 0 28 -12t12 -28q0 -11 -4 -19l-61 -125h-25z" />
    <glyph glyph-name="parenleft.tab" horiz-adv-x="300" 
d="M225 -136q-165 175 -165 427t165 427l26 -23q-150 -171 -150 -404t150 -404z" />
    <glyph glyph-name="parenright.tab" horiz-adv-x="300" 
d="M48 695l26 23q165 -177 165 -427t-165 -427l-26 23q149 170 149 404t-149 404z" />
    <glyph glyph-name="bracketleft.tab" horiz-adv-x="300" 
d="M88 -128v850h168v-35h-128v-780h128v-35h-168z" />
    <glyph glyph-name="bracketright.tab" horiz-adv-x="300" 
d="M44 -128v35h128v780h-128v35h170v-850h-170z" />
    <glyph glyph-name="braceleft.tab" horiz-adv-x="300" 
d="M222 -128q-121 0 -121 144v198q0 40 -14.5 55.5t-44.5 15.5h-40v35h40q30 0 44.5 15.5t14.5 55.5v187q0 144 121 144h34v-35h-33q-40 0 -61 -24t-21 -85v-190q0 -71 -52 -85q52 -13 52 -86v-201q0 -61 21 -85t61 -24h33v-35h-34z" />
    <glyph glyph-name="braceright.tab" horiz-adv-x="300" 
d="M43 722h34q121 0 121 -144v-187q0 -40 14.5 -55.5t44.5 -15.5h40v-35h-40q-30 0 -44.5 -15.5t-14.5 -55.5v-198q0 -144 -121 -144h-34v35h33q40 0 61 24t21 85v201q0 73 52 86q-52 14 -52 85v190q0 61 -21 85t-61 24h-33v35z" />
    <glyph glyph-name="section.tab" 
d="M94 91q7 -159 156 -159q57 0 88.5 26t31.5 70q0 37 -24 60.5t-78 44.5l-87 34q-68 27 -98.5 60t-30.5 84q0 72 76 108q-15 30 -15 65q0 59 41.5 96.5t104.5 38.5q96 0 133 -75l3 67h31v-165h-35q-6 68 -40 102.5t-89 34.5q-49 0 -79 -26t-30 -72q0 -40 20 -64.5t67 -44.5
l96 -39q69 -28 99 -62t30 -80q0 -33 -21 -58.5t-56 -39.5q22 -30 22 -69q0 -58 -42 -94.5t-115 -36.5q-115 0 -161 84l-3 -75h-32v185h37zM367 121q59 21 59 72q0 37 -21.5 60t-81.5 47l-96 39q-55 22 -83 56q-52 -25 -52 -82q0 -40 22 -63t79 -46l87 -34q55 -21 87 -49z
" />
    <glyph glyph-name="numbersign.tab" 
d="M111 192l27 111h-81v34h90l31 124h-90v34h98l29 115h36l-29 -115h121l29 115h36l-29 -115h83v-34h-91l-31 -124h90v-34h-99l-27 -111h-37l28 111h-121l-27 -111h-36zM183 337h120l32 124h-121z" />
    <glyph glyph-name="space.tablining" horiz-adv-x="216" 
 />
    <glyph glyph-name="dollar.tablining" horiz-adv-x="596" 
d="M268 -116v110q-109 10 -148 88l-3 -82h-34v181h38q19 -136 147 -152v325l-14 7q-75 35 -108.5 74t-33.5 101q0 66 44.5 107t111.5 44v86h37v-87q82 -9 114 -72l3 66h34v-156h-37q-4 54 -35.5 86.5t-78.5 39.5v-269l28 -13q84 -38 123.5 -85.5t39.5 -116.5
q0 -77 -53.5 -124.5t-137.5 -49.5v-108h-37zM456 166q0 58 -34.5 95.5t-116.5 75.5v-309q64 2 107.5 39.5t43.5 98.5zM152 537q0 -50 26 -80t90 -59v253q-55 -3 -85.5 -33.5t-30.5 -80.5z" />
    <glyph glyph-name="cent.tablining" horiz-adv-x="596" 
d="M479 291h-32q-24 87 -112 91v-355q79 3 126 61l28 -23q-55 -69 -154 -73v-108h-34v109q-79 8 -131.5 68t-52.5 143q0 82 52 143t132 70v106h34v-106q75 -4 110 -56l3 47h31v-117zM158 204q0 -70 39 -119t104 -57v354q-66 -9 -104.5 -58.5t-38.5 -119.5z" />
    <glyph glyph-name="Euro.tablining" horiz-adv-x="596" 
d="M532 157l36 -13q-57 -152 -213 -152q-101 0 -165.5 68.5t-82.5 193.5h-80v34h76q-4 51 0 107h-76v34h80q22 118 88.5 188.5t158.5 70.5q117 0 163 -91l3 83h32v-176h-35q-24 147 -163 147q-80 0 -133 -59.5t-72 -162.5h251v-34h-255q-5 -54 0 -107h255v-34h-251
q35 -225 205 -225q70 0 111.5 32.5t66.5 95.5z" />
    <glyph glyph-name="sterling.tablining" horiz-adv-x="596" 
d="M522 512h-37q-9 70 -49.5 104.5t-102.5 34.5q-72 0 -116 -45t-44 -114q0 -67 38 -170h197v-34h-184q36 -93 36 -163q0 -12 -1 -18q2 -1 13.5 -10.5t14.5 -12t13.5 -10.5t15 -10.5t15 -9t16.5 -9t16 -6.5t18 -5.5t18.5 -3t20.5 -1.5q38 0 60 13t44 42l31 -22
q-27 -36 -57.5 -53t-77.5 -17q-33 0 -67.5 14t-52.5 26.5t-51 38.5q-15 -35 -46 -57t-68 -22q-40 0 -69 23t-29 62q0 40 27.5 62.5t69.5 22.5q45 0 89 -29q-3 66 -38 155h-97v34h83q-40 97 -40 170q0 84 56.5 140t145.5 56q54 0 93.5 -22t58.5 -64l3 78h34v-168zM220 93
q-49 35 -85 35q-27 0 -44.5 -13.5t-17.5 -36.5q0 -25 17.5 -38.5t45.5 -13.5q31 0 53.5 17.5t30.5 49.5z" />
    <glyph glyph-name="yen.tablining" horiz-adv-x="596" 
d="M586 680v-36h-60l-154 -291h148v-33h-166l-37 -71v-36h203v-33h-203v-144h78v-36h-198v36h79v144h-203v33h203v37l-37 70h-166v33h148l-153 291h-58v36h169v-36h-65l168 -320q4 -7 7 -15.5t6 -16.5t3 -9q0 9 18 41l167 320h-66v36h169z" />
    <glyph glyph-name="florin.tablining" horiz-adv-x="596" 
d="M243 275h-104v33h107l27 236q8 72 42.5 108t84.5 36q78 0 113 -69l-30 -18q-14 26 -31.5 39t-50.5 13q-77 0 -89 -110l-27 -235h138v-33h-141l-55 -487h-39z" />
    <glyph glyph-name="zero.tablining" horiz-adv-x="596" 
d="M298 -8q-107 0 -172.5 96.5t-65.5 251.5t65.5 251.5t172.5 96.5t172.5 -96.5t65.5 -251.5t-65.5 -251.5t-172.5 -96.5zM298 29q90 0 143 85.5t53 225.5t-53 225.5t-143 85.5t-143 -85.5t-53 -225.5t53 -225.5t143 -85.5z" />
    <glyph glyph-name="one.tablining" horiz-adv-x="596" 
d="M122 36h174v608h-165v36h206v-644h140v-36h-355v36z" />
    <glyph glyph-name="two.tablining" horiz-adv-x="596" 
d="M69 0v27l279 275q103 101 103 205q0 65 -39.5 104.5t-106.5 39.5q-64 0 -108.5 -37.5t-58.5 -108.5l-38 7q12 77 67 126.5t138 49.5t135 -50t52 -131q0 -116 -119 -232l-198 -195l-53 -48q40 4 73 4h263l5 93h34v-129h-428z" />
    <glyph glyph-name="three.tablining" horiz-adv-x="596" 
d="M99 551v129h387v-26l-177 -199l-35 -36q112 6 180.5 -52t68.5 -155t-65 -158.5t-173 -61.5q-77 0 -137 35t-90 91l33 19q62 -108 193 -108q93 0 145.5 50t52.5 133t-52 129t-146 46q-46 0 -77 -13l-6 11l203 227l35 37q-31 -5 -57 -5h-245l-4 -93h-34z" />
    <glyph glyph-name="four.tablining" horiz-adv-x="596" 
d="M325 34h84v106h-359v25l373 518h27v-508h76v-35h-76v-106h74v-34h-199v34zM409 175v362q0 11 0.5 22.5t1 20t1 15t0.5 11.5l1 4q-1 -1 -8 -11.5t-18 -26t-19 -25.5l-227 -322l-43 -53q40 3 76 3h235z" />
    <glyph glyph-name="five.tablining" horiz-adv-x="596" 
d="M445 551l-5 93h-282v-256q55 40 137 40q99 0 160.5 -57t61.5 -156q0 -103 -66 -163t-170 -60q-73 0 -132.5 31.5t-91.5 86.5l34 21q28 -47 77.5 -74.5t112.5 -27.5q87 0 140.5 50.5t53.5 135.5q0 83 -48.5 130t-131.5 47q-111 0 -161 -67l-13 4v351h357v-129h-33z" />
    <glyph glyph-name="six.tablining" horiz-adv-x="596" 
d="M298 -8q-98 0 -162 65t-64 159q0 77 52 150l223 314h45l-167 -233l-41 -51q58 45 119 45q96 0 158.5 -65.5t62.5 -159.5t-64 -159t-162 -65zM298 29q83 0 134 54.5t51 132.5q0 79 -50.5 134t-134.5 55q-83 0 -134 -54.5t-51 -134.5q0 -78 51 -132.5t134 -54.5z" />
    <glyph glyph-name="seven.tablining" horiz-adv-x="596" 
d="M77 551v129h442v-24l-336 -656h-41l330 645h-357l-5 -94h-33z" />
    <glyph glyph-name="eight.tablining" horiz-adv-x="596" 
d="M298 -8q-98 0 -163.5 53.5t-65.5 140.5q0 70 42 117t111 63q-54 14 -83.5 55.5t-29.5 98.5q0 70 52 119t137 49t138 -49t53 -119q0 -57 -30 -99t-84 -55q69 -17 110.5 -63.5t41.5 -116.5q0 -88 -65 -141t-164 -53zM298 30q85 0 136 42t51 114q0 73 -51 117t-136 44
q-84 0 -135.5 -44t-51.5 -117t51.5 -114.5t135.5 -41.5zM298 381q72 0 111.5 39t39.5 99q0 56 -40 94.5t-111 38.5q-70 0 -109.5 -38.5t-39.5 -94.5q0 -60 39 -99t110 -39z" />
    <glyph glyph-name="nine.tablining" horiz-adv-x="596" 
d="M221 0l159 234l33 42q-57 -45 -121 -45q-97 0 -161 66.5t-64 162.5t65 162t165 66q101 0 166 -66t65 -162q0 -71 -54 -153l-208 -307h-45zM297 267q85 0 137.5 55.5t52.5 137.5q0 80 -52 135.5t-138 55.5q-85 0 -137 -55.5t-52 -135.5q0 -81 51 -137t138 -56z" />
    <glyph glyph-name="percent.tablining" horiz-adv-x="816" 
d="M221 368q-65 0 -112.5 46t-47.5 114t47.5 114t112.5 46t112.5 -46t47.5 -114t-47.5 -114t-112.5 -46zM596 -8q-65 0 -112.5 46t-47.5 114t47.5 114t112.5 46q64 0 111.5 -46t47.5 -114t-47.5 -114t-111.5 -46zM221 403q51 0 86 35.5t35 89.5t-35 89.5t-86 35.5t-86 -35
t-35 -90t35 -90t86 -35zM596 27q50 0 85.5 35.5t35.5 89.5q0 55 -35 90t-86 35t-86.5 -35t-35.5 -90t35.5 -90t86.5 -35zM173 0l429 680h42l-429 -680h-42z" />
    <glyph glyph-name="perthousand.tablining" horiz-adv-x="1176" 
d="M221 368q-65 0 -112.5 46t-47.5 114t47.5 114t112.5 46t112.5 -46t47.5 -114t-47.5 -114t-112.5 -46zM578 -8q-65 0 -112.5 46t-47.5 114t47.5 114t112.5 46q64 0 111.5 -46t47.5 -114t-47.5 -114t-111.5 -46zM221 403q51 0 86 35.5t35 89.5t-35 89.5t-86 35.5t-86 -35
t-35 -90t35 -90t86 -35zM578 27q50 0 85.5 35.5t35.5 89.5q0 55 -35 90t-86 35t-86.5 -35t-35.5 -90t35.5 -90t86.5 -35zM164 0l429 680h42l-429 -680h-42zM956 -8q-65 0 -112.5 46t-47.5 114t47.5 114t112.5 46q64 0 111.5 -46t47.5 -114t-47.5 -114t-111.5 -46zM956 27
q50 0 85.5 35.5t35.5 89.5q0 55 -35 90t-86 35t-86.5 -35t-35.5 -90t35.5 -90t86.5 -35z" />
    <glyph glyph-name="plus.tablining" horiz-adv-x="596" 
d="M317 307v-172h-38v172h-160v36h160v172h38v-172h160v-36h-160z" />
    <glyph glyph-name="minus.tablining" horiz-adv-x="596" 
d="M119 307v36h357v-36h-357z" />
    <glyph glyph-name="multiply.tablining" horiz-adv-x="596" 
d="M298 299l-130 -130l-26 26l130 130l-130 130l26 26l130 -130l130 130l26 -26l-130 -130l130 -130l-26 -26z" />
    <glyph glyph-name="divide.tablining" horiz-adv-x="596" 
d="M297 427q-15 0 -27 11.5t-12 27.5t12 27.5t27 11.5t27 -11.5t12 -27.5t-12 -27.5t-27 -11.5zM119 307v36h357v-36h-357zM297 145q-15 0 -27 11.5t-12 27.5t12 27.5t27 11.5t27 -11.5t12 -27.5t-12 -27.5t-27 -11.5z" />
    <glyph glyph-name="equal.tablining" horiz-adv-x="596" 
d="M119 364v36h358v-36h-358zM119 231v36h358v-36h-358z" />
    <glyph glyph-name="less.tablining" horiz-adv-x="596" 
d="M457 142l-341 177v10l341 174v-39l-277 -141l277 -142v-39z" />
    <glyph glyph-name="greater.tablining" horiz-adv-x="596" 
d="M139 142v39l277 142l-277 141v39l341 -174v-10z" />
    <glyph glyph-name="degree.tablining" horiz-adv-x="380" 
d="M191 437q-53 0 -90.5 36.5t-37.5 88.5q0 53 37.5 89.5t90.5 36.5t89.5 -36.5t36.5 -89.5t-36.5 -89t-89.5 -36zM191 470q40 0 65 26t25 66t-25 66.5t-65 26.5q-41 0 -66 -26.5t-25 -66.5t25 -66t66 -26z" />
    <glyph glyph-name="period.tablining" horiz-adv-x="216" 
d="M108 -7q-15 0 -27.5 12t-12.5 28q0 17 12 28.5t28 11.5t28 -11.5t12 -28.5q0 -16 -12 -28t-28 -12z" />
    <glyph glyph-name="comma.tablining" horiz-adv-x="216" 
d="M58 -111l39 107q-29 7 -29 37q0 16 12.5 28t27.5 12q16 0 28 -12t12 -28q0 -11 -4 -19l-61 -125h-25z" />
    <glyph glyph-name="colon.tablining" horiz-adv-x="216" 
d="M108 214q-15 0 -27.5 12t-12.5 28q0 17 12.5 29t27.5 12q16 0 28 -12t12 -29q0 -16 -12 -28t-28 -12zM108 -7q-15 0 -27.5 12t-12.5 28q0 17 12.5 29t27.5 12q16 0 28 -12t12 -29q0 -16 -12 -28t-28 -12z" />
    <glyph glyph-name="semicolon.tablining" horiz-adv-x="216" 
d="M108 214q-15 0 -27.5 12t-12.5 28q0 17 12.5 29t27.5 12q16 0 28 -12t12 -29q0 -16 -12 -28t-28 -12zM58 -111l39 107q-29 7 -29 37q0 16 12.5 28t27.5 12q16 0 28 -12t12 -28q0 -11 -4 -19l-61 -125h-25z" />
    <glyph glyph-name="parenleft.tablining" horiz-adv-x="316" 
d="M233 -136q-165 175 -165 427t165 427l26 -23q-150 -171 -150 -404t150 -404z" />
    <glyph glyph-name="parenright.tablining" horiz-adv-x="316" 
d="M56 695l26 23q165 -177 165 -427t-165 -427l-26 23q149 170 149 404t-149 404z" />
    <glyph glyph-name="bracketleft.tablining" horiz-adv-x="316" 
d="M96 -128v850h168v-35h-128v-780h128v-35h-168z" />
    <glyph glyph-name="bracketright.tablining" horiz-adv-x="316" 
d="M52 -128v35h128v780h-128v35h169v-850h-169z" />
    <glyph glyph-name="braceleft.tablining" horiz-adv-x="316" 
d="M230 -128q-121 0 -121 144v198q0 40 -14.5 55.5t-44.5 15.5h-40v35h40q30 0 44.5 15.5t14.5 55.5v187q0 144 121 144h34v-35h-33q-40 0 -61 -24t-21 -85v-190q0 -71 -52 -85q52 -13 52 -86v-201q0 -61 21 -85t61 -24h33v-35h-34z" />
    <glyph glyph-name="braceright.tablining" horiz-adv-x="316" 
d="M85 -128h-34v35h33q40 0 61 24t21 85v201q0 73 52 86q-52 14 -52 85v190q0 61 -21 85t-61 24h-33v35h34q121 0 121 -144v-187q0 -40 14.5 -55.5t44.5 -15.5h40v-35h-40q-30 0 -44.5 -15.5t-14.5 -55.5v-198q0 -144 -121 -144z" />
    <glyph glyph-name="section.tablining" horiz-adv-x="596" 
d="M479 519h-37q-5 63 -43 98t-92 34q-61 0 -97.5 -34t-36.5 -89q0 -53 26.5 -82t83.5 -54l108 -48q77 -34 110.5 -72.5t33.5 -91.5q0 -40 -25.5 -71.5t-67.5 -46.5q31 -36 31 -87q0 -68 -45 -111.5t-132 -43.5q-127 0 -171 90l-3 -82h-34v181h38q23 -153 170 -152
q68 0 101.5 32t33.5 87q0 45 -29 74.5t-86 54.5l-104 46q-75 33 -108.5 71.5t-33.5 95.5q0 82 83 125q-22 36 -22 85q0 70 50.5 115.5t124.5 45.5q99 0 136 -75l3 66h34v-161zM421 87q34 11 54 36t20 57q0 42 -27.5 70.5t-92.5 57.5l-108 48q-63 27 -96 63q-61 -33 -61 -99
q0 -47 26.5 -75.5t91.5 -57.5l104 -46q56 -24 89 -54z" />
    <glyph glyph-name="numbersign.tablining" horiz-adv-x="596" 
d="M146 252l28 111h-92v34h100l34 134h-100v34h108l29 115h36l-29 -115h121l29 115h36l-29 -115h93v-34h-102l-33 -134h100v-34h-108l-28 -111h-37l28 111h-120l-28 -111h-36zM218 397h121l34 134h-122z" />
    <glyph glyph-name="zero.numerator" horiz-adv-x="502" 
d="M251 239q-91 0 -141 65.5t-50 159.5t51 159t140 65t140 -65t51 -159t-50 -159.5t-141 -65.5zM251 275q69 0 109.5 54t40.5 135q0 83 -40 135.5t-110 52.5t-110 -52.5t-40 -135.5q0 -82 40 -135.5t110 -53.5z" />
    <glyph glyph-name="one.numerator" horiz-adv-x="309" 
d="M63 282h83v363h-92v35h131v-398h79v-35h-201v35z" />
    <glyph glyph-name="two.numerator" horiz-adv-x="378" 
d="M27 247v26l185 167q66 61 66 124q0 39 -24 64.5t-68 25.5q-79 0 -105 -90l-36 7q9 51 48 84t93 33q59 0 95.5 -35t36.5 -89q0 -74 -78 -145l-106 -95q-39 -36 -60 -47q1 0 14 0.5t31.5 1t30.5 0.5h138l4 68h31v-100h-296z" />
    <glyph glyph-name="three.numerator" horiz-adv-x="401" 
d="M68 594v86h265v-22l-113 -121l-31 -29q68 -1 112.5 -35.5t44.5 -94.5q0 -64 -42.5 -101.5t-110.5 -37.5q-52 0 -92 24.5t-61 62.5l31 18q44 -71 121 -71q55 0 85.5 28.5t30.5 76.5q0 50 -35 75.5t-93 25.5q-29 0 -51 -10l-6 8l122 131l42 42q-36 -2 -57 -2h-127l-4 -54
h-31z" />
    <glyph glyph-name="four.numerator" horiz-adv-x="425" 
d="M320 385h51v-35h-51v-103h-40v103h-243v25l259 304h24v-294zM280 385v153l2 80q-23 -33 -51 -66l-119 -140l-30 -31q30 4 46 4h152z" />
    <glyph glyph-name="five.numerator" horiz-adv-x="401" 
d="M288 590l-4 57h-170v-147q36 22 84 22q68 0 109 -39t41 -100q0 -62 -42 -103t-112 -41q-54 0 -92.5 25t-56.5 63l32 19q39 -73 117 -73q54 0 85 29.5t31 80.5q0 50 -30.5 78t-85.5 28q-66 0 -106 -40l-9 5v226h241v-90h-32z" />
    <glyph glyph-name="six.numerator" horiz-adv-x="421" 
d="M211 239q-68 0 -111.5 42t-43.5 109q0 31 12 61t45 76l117 153h43l-73 -96l-59 -70q38 26 75 26q63 0 106 -43t43 -106q0 -64 -43.5 -108t-110.5 -44zM211 273q53 0 84.5 32.5t31.5 85.5q0 51 -30.5 84t-85.5 33q-52 0 -84.5 -34t-32.5 -83q0 -52 32 -85t85 -33z" />
    <glyph glyph-name="seven.numerator" horiz-adv-x="385" 
d="M50 581v99h300v-25l-216 -408h-42l213 399h-220l-4 -65h-31z" />
    <glyph glyph-name="eight.numerator" horiz-adv-x="410" 
d="M204 238q-64 0 -106 34t-42 91q0 44 26 75t67 42q-69 21 -69 96q0 48 36 80t88 32t89 -32t37 -80q0 -74 -70 -96q42 -11 68 -41.5t26 -75.5q0 -57 -42.5 -91t-107.5 -34zM204 273q51 0 80.5 24t29.5 68q0 43 -30 68.5t-80 25.5q-49 0 -79 -25.5t-30 -68.5q0 -44 29 -68
t80 -24zM204 494q41 0 64.5 22.5t23.5 57.5q0 36 -23.5 58t-64.5 22q-40 0 -63 -22t-23 -58q0 -35 23 -57.5t63 -22.5z" />
    <glyph glyph-name="nine.numerator" horiz-adv-x="419" 
d="M150 247l79 108q8 11 21 26t22 24l8 9q-35 -25 -75 -25q-65 0 -107 43t-42 107q0 63 43.5 106t111.5 43t110 -41t42 -107q0 -58 -35 -107l-134 -186h-44zM211 421q52 0 83 34t31 84q0 48 -30.5 82t-83.5 34t-85 -33t-32 -83q0 -51 31.5 -84.5t85.5 -33.5z" />
    <glyph glyph-name="zero.denominator" horiz-adv-x="502" 
d="M251 -8q-91 0 -141 65.5t-50 159.5t51 159t140 65t140 -65t51 -159t-50 -159.5t-141 -65.5zM251 28q69 0 109.5 54t40.5 135q0 83 -40 135.5t-110 52.5t-110 -52.5t-40 -135.5q0 -82 40 -135.5t110 -53.5z" />
    <glyph glyph-name="one.denominator" horiz-adv-x="309" 
d="M63 35h83v363h-92v35h131v-398h79v-35h-201v35z" />
    <glyph glyph-name="two.denominator" horiz-adv-x="378" 
d="M27 0v26l185 167q66 61 66 124q0 39 -24 64.5t-68 25.5q-79 0 -105 -90l-36 7q9 51 48 84t93 33q59 0 95.5 -35t36.5 -89q0 -74 -78 -145l-106 -95q-39 -36 -60 -47q1 0 14 0.5t31.5 1t30.5 0.5h138l4 68h31v-100h-296z" />
    <glyph glyph-name="three.denominator" horiz-adv-x="401" 
d="M68 347v86h265v-22l-113 -121l-31 -29q68 -1 112.5 -35.5t44.5 -94.5q0 -64 -42.5 -101.5t-110.5 -37.5q-52 0 -92 24.5t-61 62.5l31 18q44 -71 121 -71q55 0 85.5 28.5t30.5 76.5q0 50 -35 75.5t-93 25.5q-29 0 -51 -10l-6 8l122 131l42 42q-36 -2 -57 -2h-127l-4 -54
h-31z" />
    <glyph glyph-name="four.denominator" horiz-adv-x="425" 
d="M320 138h51v-35h-51v-103h-40v103h-243v25l259 304h24v-294zM280 138v153l2 80q-23 -33 -51 -66l-119 -140l-30 -31q30 4 46 4h152z" />
    <glyph glyph-name="five.denominator" horiz-adv-x="401" 
d="M288 343l-4 57h-170v-147q36 22 84 22q68 0 109 -39t41 -100q0 -62 -42 -103t-112 -41q-54 0 -92.5 25t-56.5 63l32 19q39 -73 117 -73q54 0 85 29.5t31 80.5q0 50 -30.5 78t-85.5 28q-66 0 -106 -40l-9 5v226h241v-90h-32z" />
    <glyph glyph-name="six.denominator" horiz-adv-x="421" 
d="M211 -8q-68 0 -111.5 42t-43.5 109q0 31 12 61t45 76l117 153h43l-73 -96l-59 -70q38 26 75 26q63 0 106 -43t43 -106q0 -64 -43.5 -108t-110.5 -44zM211 26q53 0 84.5 32.5t31.5 85.5q0 51 -30.5 84t-85.5 33q-52 0 -84.5 -34t-32.5 -83q0 -52 32 -85t85 -33z" />
    <glyph glyph-name="seven.denominator" horiz-adv-x="385" 
d="M50 334v99h300v-25l-216 -408h-42l213 399h-220l-4 -65h-31z" />
    <glyph glyph-name="eight.denominator" horiz-adv-x="410" 
d="M204 -9q-64 0 -106 34t-42 91q0 45 26.5 75.5t69.5 41.5q-72 21 -72 96q0 48 36 80t88 32t89 -32t37 -80q0 -75 -73 -96q44 -11 70.5 -41.5t26.5 -75.5q0 -57 -42.5 -91t-107.5 -34zM204 24q52 0 82 25t30 69t-30.5 69.5t-81.5 25.5q-49 0 -80 -25.5t-31 -69.5
q0 -45 29.5 -69.5t81.5 -24.5zM204 246q42 0 66 22.5t24 58.5q0 37 -24 59.5t-66 22.5q-41 0 -64.5 -22.5t-23.5 -59.5q0 -36 23.5 -58.5t64.5 -22.5z" />
    <glyph glyph-name="nine.denominator" horiz-adv-x="419" 
d="M150 0l79 108q8 11 21 26t22 24l8 9q-35 -25 -75 -25q-65 0 -107 43t-42 107q0 63 43.5 106t111.5 43t110 -41t42 -107q0 -58 -35 -107l-134 -186h-44zM211 174q52 0 83 34t31 84q0 48 -30.5 82t-83.5 34t-85 -33t-32 -83q0 -51 31.5 -84.5t85.5 -33.5z" />
    <glyph glyph-name="zero.subscript" horiz-adv-x="435" 
d="M217 -257q-77 0 -119.5 56t-42.5 135q0 81 43 136t119 55t119.5 -55t43.5 -136q0 -79 -43 -135t-120 -56zM217 -226q59 0 93.5 45.5t34.5 114.5q0 71 -34.5 115.5t-93.5 44.5t-93 -44.5t-34 -115.5q0 -69 34 -114.5t93 -45.5z" />
    <glyph glyph-name="one.subscript" horiz-adv-x="270" 
d="M58 -220h70v308h-78v30h111v-338h67v-30h-170v30z" />
    <glyph glyph-name="two.subscript" horiz-adv-x="329" 
d="M27 -250v22l157 142q56 52 56 105q0 34 -20 55.5t-58 21.5q-67 0 -89 -77l-31 6q8 43 41 71.5t79 28.5q50 0 81 -29.5t31 -76.5q0 -63 -65 -123l-90 -81l-51 -40q1 0 12 0.5t26 1t25 0.5h118l3 58h27v-85h-252z" />
    <glyph glyph-name="three.subscript" horiz-adv-x="347" 
d="M61 45v73h225v-19l-96 -103q-4 -4 -10 -9.5t-10.5 -9.5t-5.5 -5q58 -1 95.5 -30.5t37.5 -80.5q0 -54 -36 -86t-94 -32q-44 0 -78 21t-52 53l27 15q37 -60 102 -60q47 0 73 24t26 65q0 43 -30 64.5t-79 21.5q-25 0 -43 -8l-5 6l103 112l36 36q-30 -2 -48 -2h-108l-4 -46
h-26z" />
    <glyph glyph-name="four.subscript" horiz-adv-x="369" 
d="M276 -133h43v-29h-43v-88h-34v88h-207v21l221 258h20v-250zM242 -133v130l2 68q-20 -28 -44 -56l-101 -119q-4 -6 -25 -26q1 0 7.5 1t16 1.5t15.5 0.5h129z" />
    <glyph glyph-name="five.subscript" horiz-adv-x="349" 
d="M249 42l-4 48h-144v-125q31 19 71 19q58 0 93 -33.5t35 -84.5q0 -52 -36 -87.5t-95 -35.5q-46 0 -78.5 21.5t-48.5 53.5l27 16q34 -62 100 -62q46 0 72 25.5t26 68.5t-25.5 66.5t-72.5 23.5q-56 0 -90 -34l-8 4v192h205v-76h-27z" />
    <glyph glyph-name="six.subscript" horiz-adv-x="366" 
d="M183 -257q-57 0 -94 36t-37 93q0 51 48 116l99 130h37l-62 -82l-50 -59q33 22 64 22q53 0 89.5 -36.5t36.5 -90.5t-37 -91.5t-94 -37.5zM183 -228q46 0 72.5 28t26.5 72t-26 72t-73 28q-44 0 -71.5 -29t-27.5 -71q0 -44 27 -72t72 -28z" />
    <glyph glyph-name="seven.subscript" horiz-adv-x="335" 
d="M46 34v84h255v-21l-183 -347h-36l181 339h-187l-3 -55h-27z" />
    <glyph glyph-name="eight.subscript" horiz-adv-x="356" 
d="M177 -258q-54 0 -89.5 29.5t-35.5 77.5q0 37 22.5 63.5t58.5 35.5q-61 18 -61 82q0 40 31 67.5t74 27.5q45 0 76 -27.5t31 -67.5q0 -64 -62 -82q38 -9 60.5 -35t22.5 -64q0 -49 -36 -78t-92 -29zM177 -230q44 0 70 21t26 59q0 37 -26.5 59t-69.5 22q-42 0 -68 -22
t-26 -59q0 -38 25.5 -59t68.5 -21zM177 -41q36 0 56.5 19t20.5 50t-20.5 50.5t-56.5 19.5q-34 0 -54 -19.5t-20 -50.5t20 -50t54 -19z" />
    <glyph glyph-name="nine.subscript" horiz-adv-x="364" 
d="M131 -250l68 92l43 50q-29 -21 -64 -21q-55 0 -90.5 36.5t-35.5 90.5t36.5 90.5t94.5 36.5t94 -35t36 -91q0 -48 -30 -91l-114 -158h-38zM183 -102q44 0 70.5 28.5t26.5 71.5q0 41 -26 70t-71 29t-72 -28t-27 -71t26.5 -71.5t72.5 -28.5z" />
    <glyph glyph-name="zero.superscript" horiz-adv-x="435" 
d="M217 305q-77 0 -119.5 56t-42.5 135q0 81 43 136t119 55t119.5 -55t43.5 -136q0 -79 -43 -135t-120 -56zM217 336q59 0 93.5 45.5t34.5 114.5q0 71 -34.5 115.5t-93.5 44.5t-93 -44.5t-34 -115.5q0 -69 34 -114.5t93 -45.5z" />
    <glyph glyph-name="one.superscript" horiz-adv-x="270" 
d="M58 342h70v308h-78v30h111v-338h67v-30h-170v30z" />
    <glyph glyph-name="two.superscript" horiz-adv-x="329" 
d="M27 312v22l157 142q56 53 56 105q0 34 -20 55.5t-58 21.5q-67 0 -89 -77l-31 6q8 43 41 71.5t79 28.5q50 0 81 -29.5t31 -76.5q0 -63 -65 -123l-90 -81q-37 -31 -51 -40q1 0 12 0.5t26 1t25 0.5h118l3 58h27v-85h-252z" />
    <glyph glyph-name="three.superscript" horiz-adv-x="347" 
d="M61 607v73h225v-19l-96 -103q-4 -4 -10 -9.5t-10.5 -9.5t-5.5 -5q58 -1 95.5 -30.5t37.5 -80.5q0 -54 -36 -86t-94 -32q-44 0 -78 21t-52 53l27 15q37 -60 102 -60q47 0 73 24t26 65q0 43 -30 64.5t-79 21.5q-25 0 -43 -8l-5 6l103 112l36 36q-30 -2 -48 -2h-108l-4 -46
h-26z" />
    <glyph glyph-name="four.superscript" horiz-adv-x="369" 
d="M276 429h43v-29h-43v-88h-34v88h-207v21l221 258h20v-250zM242 429v130l2 68q-20 -28 -44 -56l-101 -119q-4 -5 -25 -26q1 0 7.5 1t16 1.5t15.5 0.5h129z" />
    <glyph glyph-name="five.superscript" horiz-adv-x="349" 
d="M249 604l-4 48h-144v-125q31 19 71 19q58 0 93 -33.5t35 -84.5q0 -52 -36 -87.5t-95 -35.5q-46 0 -78.5 21.5t-48.5 53.5l27 16q34 -62 100 -62q46 0 72 25.5t26 68.5t-25.5 66.5t-72.5 23.5q-56 0 -90 -34l-8 4v192h205v-76h-27z" />
    <glyph glyph-name="six.superscript" horiz-adv-x="366" 
d="M183 305q-57 0 -94 36t-37 93q0 51 48 116l99 130h37l-62 -82l-50 -59q33 22 64 22q53 0 89.5 -36.5t36.5 -90.5t-37 -91.5t-94 -37.5zM183 334q46 0 72.5 28t26.5 72t-26 72t-73 28q-44 0 -71.5 -29t-27.5 -71q0 -44 27 -72t72 -28z" />
    <glyph glyph-name="seven.superscript" horiz-adv-x="335" 
d="M46 596v84h255v-21l-183 -347h-36l181 339h-187l-3 -55h-27z" />
    <glyph glyph-name="eight.superscript" horiz-adv-x="356" 
d="M177 304q-54 0 -89.5 29.5t-35.5 77.5q0 37 22.5 63.5t58.5 35.5q-61 18 -61 82q0 40 31 67.5t74 27.5q45 0 76 -27.5t31 -67.5q0 -64 -62 -82q38 -9 60.5 -35t22.5 -64q0 -49 -36 -78t-92 -29zM177 332q44 0 70 21t26 59q0 37 -26.5 59t-69.5 22q-42 0 -68 -22t-26 -59
q0 -38 25.5 -59t68.5 -21zM177 521q36 0 56.5 19t20.5 50t-20.5 50.5t-56.5 19.5q-34 0 -54 -19.5t-20 -50.5t20 -50t54 -19z" />
    <glyph glyph-name="nine.superscript" horiz-adv-x="364" 
d="M131 312l68 92l43 50q-29 -21 -64 -21q-55 0 -90.5 36.5t-35.5 90.5t36.5 90.5t94.5 36.5t94 -35t36 -91q0 -48 -30 -91l-114 -158h-38zM183 460q44 0 70.5 28.5t26.5 71.5q0 41 -26 70t-71 29t-72 -28t-27 -71t26.5 -71.5t72.5 -28.5z" />
    <glyph glyph-name="A.alt" horiz-adv-x="689" 
d="M234 644v36h127l251 -644h52v-36h-169v36h75l-58 151h-337l-58 -151h77v-36h-169v36h52l235 608h-78zM324 578l-136 -355h311l-135 354q-3 8 -6.5 19.5t-6.5 20t-5 15.5t-2 8l-2 -8q-2 -7 -5 -15.5t-6.5 -19.5t-6.5 -19z" />
    <glyph glyph-name="G.alt" horiz-adv-x="795" 
d="M411 651q-131 0 -218.5 -89t-87.5 -222q0 -134 87.5 -222.5t219.5 -88.5q128 0 198.5 67.5t81.5 171.5h-268v37h311q-5 -144 -89 -228.5t-234 -84.5q-147 0 -248 98t-101 250t101 250t247 98q169 0 237 -107l3 99h34v-187h-37q-15 78 -81.5 118t-155.5 40z" />
    <glyph glyph-name="M.alt" horiz-adv-x="894" 
d="M661 0v36h82l-42 500q-1 12 -1 98q0 -1 -3.5 -10.5t-7.5 -21t-10.5 -27.5t-13.5 -30l-207 -431h-25l-205 432q-11 21 -21.5 50t-11.5 38q0 -64 -3 -97l-45 -501h86v-36h-187v36h62l54 608h-85v36h130l213 -445q17 -37 27 -69q7 26 28 69l213 445h128v-36h-87l54 -608h65
v-36h-187z" />
    <glyph glyph-name="Q.alt1" horiz-adv-x="822" 
d="M392 -164v156q-140 7 -234.5 104t-94.5 244q0 153 100.5 250.5t247.5 97.5t247.5 -97.5t100.5 -250.5q0 -147 -94.5 -244t-234.5 -104v-156h-38zM105 340q0 -129 81.5 -216.5t205.5 -94.5v154h38v-154q124 7 205.5 94.5t81.5 216.5q0 133 -87.5 222t-218.5 89t-218.5 -89
t-87.5 -222z" />
    <glyph glyph-name="Q.alt2" horiz-adv-x="826" 
d="M419 -5q13 -7 26 -17q28 -19 45 -29t47 -20t62 -10q65 0 109 46l29 -27q-53 -57 -138 -57q-79 0 -178 70q-32 22 -51.5 33.5t-52 23.5t-63.5 12q-80 0 -129 -76l-28 22q47 70 122 83q-72 45 -114 121t-42 170q0 153 100.5 250.5t247.5 97.5t247.5 -97.5t100.5 -250.5
q0 -149 -98 -245.5t-242 -99.5zM411 30q131 0 218.5 88.5t87.5 221.5t-87.5 222t-218.5 89t-218.5 -89t-87.5 -222t87.5 -221.5t218.5 -88.5z" />
    <glyph glyph-name="a.alt" horiz-adv-x="565" 
d="M461 33h65v-33h-104l1 101q-23 -48 -69.5 -78.5t-104.5 -30.5q-86 0 -143 61.5t-57 151.5t57 151t143 61q60 0 105.5 -30t68.5 -80l-1 101h109v-34h-70v-341zM255 382q-75 0 -120 -50t-45 -127t45.5 -127.5t119.5 -50.5q75 0 122 50t47 126q0 77 -47 128t-122 51z" />
    <glyph glyph-name="g.alt" horiz-adv-x="559" 
d="M63 -104l32 18q56 -102 169 -102q160 0 160 173v114q-23 -47 -69.5 -77t-103.5 -30q-87 0 -144.5 61t-57.5 152q0 90 57.5 151t144.5 61q60 0 105.5 -30t69.5 -79v100h99v-34h-62v-393q0 -102 -52 -153t-146 -51q-70 0 -122 32.5t-80 86.5zM256 382q-75 0 -120.5 -50
t-45.5 -127t45.5 -127.5t120.5 -50.5q76 0 123.5 50.5t47.5 127.5t-47.5 127t-123.5 50z" />
    <glyph glyph-name="Aacute.alt" horiz-adv-x="689" 
d="M234 644v36h127l251 -644h52v-36h-169v36h75l-58 151h-337l-58 -151h77v-36h-169v36h52l235 608h-78zM324 578l-136 -355h311l-135 354q-3 8 -6.5 19.5t-6.5 20t-5 15.5t-2 8l-2 -8q-2 -7 -5 -15.5t-6.5 -19.5t-6.5 -19zM330 755l75 195h46l-88 -195h-33z" />
    <glyph glyph-name="Abreve.alt" horiz-adv-x="689" 
d="M234 644v36h127l251 -644h52v-36h-169v36h75l-58 151h-337l-58 -151h77v-36h-169v36h52l235 608h-78zM324 578l-136 -355h311l-135 354q-3 8 -6.5 19.5t-6.5 20t-5 15.5t-2 8l-2 -8q-2 -7 -5 -15.5t-6.5 -19.5t-6.5 -19zM336 742q-49 0 -78.5 29t-38.5 76l35 7
q10 -36 28 -56.5t54 -20.5t54 20.5t28 56.5l35 -7q-9 -47 -38.5 -76t-78.5 -29z" />
    <glyph glyph-name="Acircumflex.alt" horiz-adv-x="689" 
d="M234 644v36h127l251 -644h52v-36h-169v36h75l-58 151h-337l-58 -151h77v-36h-169v36h52l235 608h-78zM324 578l-136 -355h311l-135 354q-3 8 -6.5 19.5t-6.5 20t-5 15.5t-2 8l-2 -8q-2 -7 -5 -15.5t-6.5 -19.5t-6.5 -19zM218 752l113 182h9l113 -182h-35l-82 119
l-83 -119h-35z" />
    <glyph glyph-name="Adieresis.alt" horiz-adv-x="689" 
d="M234 644v36h127l251 -644h52v-36h-169v36h75l-58 151h-337l-58 -151h77v-36h-169v36h52l235 608h-78zM324 578l-136 -355h311l-135 354q-3 8 -6.5 19.5t-6.5 20t-5 15.5t-2 8l-2 -8q-2 -7 -5 -15.5t-6.5 -19.5t-6.5 -19zM413 779q-13 0 -22.5 9.5t-9.5 22.5t9.5 22.5
t22.5 9.5t22.5 -9.5t9.5 -22.5t-9.5 -22.5t-22.5 -9.5zM261 779q-13 0 -22.5 9.5t-9.5 22.5t9.5 22.5t22.5 9.5t22.5 -9.5t9.5 -22.5t-9.5 -22.5t-22.5 -9.5z" />
    <glyph glyph-name="Agrave.alt" horiz-adv-x="689" 
d="M234 644v36h127l251 -644h52v-36h-169v36h75l-58 151h-337l-58 -151h77v-36h-169v36h52l235 608h-78zM324 578l-136 -355h311l-135 354q-3 8 -6.5 19.5t-6.5 20t-5 15.5t-2 8l-2 -8q-2 -7 -5 -15.5t-6.5 -19.5t-6.5 -19zM313 755l-88 195h46l75 -195h-33z" />
    <glyph glyph-name="Amacron.alt" horiz-adv-x="689" 
d="M234 644v36h127l251 -644h52v-36h-169v36h75l-58 151h-337l-58 -151h77v-36h-169v36h52l235 608h-78zM324 578l-136 -355h311l-135 354q-3 8 -6.5 19.5t-6.5 20t-5 15.5t-2 8l-2 -8q-2 -7 -5 -15.5t-6.5 -19.5t-6.5 -19zM235 768v34h194v-34h-194z" />
    <glyph glyph-name="Aogonek.alt" horiz-adv-x="689" 
d="M582 -219q-36 0 -60.5 21.5t-24.5 61.5q0 31 17.5 61.5t56.5 74.5h-76v36h75l-58 151h-337l-58 -151h77v-36h-169v36h52l235 608h-78v36h127l251 -644h52v-36h-53q-75 -92 -75 -137q0 -23 13.5 -35.5t33.5 -12.5q35 0 57 38l30 -18q-25 -54 -88 -54zM324 578l-136 -355
h311l-135 354q-3 8 -6.5 19.5t-6.5 20t-5 15.5t-2 8l-2 -8q-2 -7 -5 -15.5t-6.5 -19.5t-6.5 -19z" />
    <glyph glyph-name="Aring.alt" horiz-adv-x="689" 
d="M234 644v36h127l251 -644h52v-36h-169v36h75l-58 151h-337l-58 -151h77v-36h-169v36h52l235 608h-78zM324 578l-136 -355h311l-135 354q-3 8 -6.5 19.5t-6.5 20t-5 15.5t-2 8l-2 -8q-2 -7 -5 -15.5t-6.5 -19.5t-6.5 -19zM338 746q-39 0 -66.5 27t-27.5 65t27.5 65
t66.5 27t66.5 -27t27.5 -65t-27.5 -65t-66.5 -27zM338 777q26 0 42 16.5t16 44.5t-16 44.5t-42 16.5t-42 -16.5t-16 -44.5t16 -44.5t42 -16.5z" />
    <glyph glyph-name="Atilde.alt" horiz-adv-x="689" 
d="M234 644v36h127l251 -644h52v-36h-169v36h75l-58 151h-337l-58 -151h77v-36h-169v36h52l235 608h-78zM324 578l-136 -355h311l-135 354q-3 8 -6.5 19.5t-6.5 20t-5 15.5t-2 8l-2 -8q-2 -7 -5 -15.5t-6.5 -19.5t-6.5 -19zM235 747l-34 3q2 46 22 71.5t53 25.5
q20 0 35 -8.5t36 -29.5q20 -20 28.5 -25t20.5 -5q33 0 39 65l34 -3q-5 -96 -74 -96q-20 0 -34.5 9t-36.5 30q-20 19 -28 24t-21 5q-34 0 -40 -66z" />
    <glyph glyph-name="Gbreve.alt" horiz-adv-x="795" 
d="M411 651q-131 0 -218.5 -89t-87.5 -222q0 -134 87.5 -222.5t219.5 -88.5q128 0 198.5 67.5t81.5 171.5h-268v37h311q-5 -144 -89 -228.5t-234 -84.5q-147 0 -248 98t-101 250t101 250t247 98q169 0 237 -107l3 99h34v-187h-37q-15 78 -81.5 118t-155.5 40zM407 742
q-49 0 -78.5 29t-38.5 76l35 7q10 -36 28 -56.5t54 -20.5t54 20.5t28 56.5l35 -7q-9 -47 -38.5 -76t-78.5 -29z" />
    <glyph glyph-name="Gcircumflex.alt" horiz-adv-x="795" 
d="M411 651q-131 0 -218.5 -89t-87.5 -222q0 -134 87.5 -222.5t219.5 -88.5q128 0 198.5 67.5t81.5 171.5h-268v37h311q-5 -144 -89 -228.5t-234 -84.5q-147 0 -248 98t-101 250t101 250t247 98q169 0 237 -107l3 99h34v-187h-37q-15 78 -81.5 118t-155.5 40zM290 752
l113 182h9l113 -182h-35l-82 119l-83 -119h-35z" />
    <glyph glyph-name="Gcommaaccent.alt" horiz-adv-x="795" 
d="M411 651q-131 0 -218.5 -89t-87.5 -222q0 -134 87.5 -222.5t219.5 -88.5q128 0 198.5 67.5t81.5 171.5h-268v37h311q-5 -144 -89 -228.5t-234 -84.5q-147 0 -248 98t-101 250t101 250t247 98q169 0 237 -107l3 99h34v-187h-37q-15 78 -81.5 118t-155.5 40zM354 -243
l32 100q-11 2 -19 12.5t-8 23.5q0 16 12 28t27 12t27 -12t12 -28q0 -7 -5 -19l-53 -117h-25z" />
    <glyph glyph-name="Gdotaccent.alt" horiz-adv-x="795" 
d="M411 651q-131 0 -218.5 -89t-87.5 -222q0 -134 87.5 -222.5t219.5 -88.5q128 0 198.5 67.5t81.5 171.5h-268v37h311q-5 -144 -89 -228.5t-234 -84.5q-147 0 -248 98t-101 250t101 250t247 98q169 0 237 -107l3 99h34v-187h-37q-15 78 -81.5 118t-155.5 40zM399 778
q-13 0 -23 9.5t-10 23.5t10 23.5t23 9.5t23 -9.5t10 -23.5t-10 -23.5t-23 -9.5z" />
    <glyph glyph-name="aacute.alt" horiz-adv-x="565" 
d="M461 33h65v-33h-104l1 101q-23 -48 -69.5 -78.5t-104.5 -30.5q-86 0 -143 61.5t-57 151.5t57 151t143 61q60 0 105.5 -30t68.5 -80l-1 101h109v-34h-70v-341zM255 382q-75 0 -120 -50t-45 -127t45.5 -127.5t119.5 -50.5q75 0 122 50t47 126q0 77 -47 128t-122 51z
M236 497l75 195h46l-88 -195h-33z" />
    <glyph glyph-name="abreve.alt" horiz-adv-x="565" 
d="M461 33h65v-33h-104l1 101q-23 -48 -69.5 -78.5t-104.5 -30.5q-86 0 -143 61.5t-57 151.5t57 151t143 61q60 0 105.5 -30t68.5 -80l-1 101h109v-34h-70v-341zM255 382q-75 0 -120 -50t-45 -127t45.5 -127.5t119.5 -50.5q75 0 122 50t47 126q0 77 -47 128t-122 51z
M256 484q-49 0 -78.5 29t-38.5 76l35 7q10 -36 28 -56.5t54 -20.5t54 20.5t28 56.5l35 -7q-9 -47 -38.5 -76t-78.5 -29z" />
    <glyph glyph-name="acircumflex.alt" horiz-adv-x="565" 
d="M461 33h65v-33h-104l1 101q-23 -48 -69.5 -78.5t-104.5 -30.5q-86 0 -143 61.5t-57 151.5t57 151t143 61q60 0 105.5 -30t68.5 -80l-1 101h109v-34h-70v-341zM255 382q-75 0 -120 -50t-45 -127t45.5 -127.5t119.5 -50.5q75 0 122 50t47 126q0 77 -47 128t-122 51z
M139 494l113 182h9l113 -182h-35l-82 119l-83 -119h-35z" />
    <glyph glyph-name="adieresis.alt" horiz-adv-x="565" 
d="M461 33h65v-33h-104l1 101q-23 -48 -69.5 -78.5t-104.5 -30.5q-86 0 -143 61.5t-57 151.5t57 151t143 61q60 0 105.5 -30t68.5 -80l-1 101h109v-34h-70v-341zM255 382q-75 0 -120 -50t-45 -127t45.5 -127.5t119.5 -50.5q75 0 122 50t47 126q0 77 -47 128t-122 51z
M332 521q-13 0 -22.5 9.5t-9.5 22.5t9.5 22.5t22.5 9.5t22.5 -9.5t9.5 -22.5t-9.5 -22.5t-22.5 -9.5zM180 521q-13 0 -22.5 9.5t-9.5 22.5t9.5 22.5t22.5 9.5t22.5 -9.5t9.5 -22.5t-9.5 -22.5t-22.5 -9.5z" />
    <glyph glyph-name="agrave.alt" horiz-adv-x="565" 
d="M461 33h65v-33h-104l1 101q-23 -48 -69.5 -78.5t-104.5 -30.5q-86 0 -143 61.5t-57 151.5t57 151t143 61q60 0 105.5 -30t68.5 -80l-1 101h109v-34h-70v-341zM255 382q-75 0 -120 -50t-45 -127t45.5 -127.5t119.5 -50.5q75 0 122 50t47 126q0 77 -47 128t-122 51z
M241 497l-88 195h46l75 -195h-33z" />
    <glyph glyph-name="amacron.alt" horiz-adv-x="565" 
d="M461 33h65v-33h-104l1 101q-23 -48 -69.5 -78.5t-104.5 -30.5q-86 0 -143 61.5t-57 151.5t57 151t143 61q60 0 105.5 -30t68.5 -80l-1 101h109v-34h-70v-341zM255 382q-75 0 -120 -50t-45 -127t45.5 -127.5t119.5 -50.5q75 0 122 50t47 126q0 77 -47 128t-122 51z
M159 510v34h194v-34h-194z" />
    <glyph glyph-name="aogonek.alt" horiz-adv-x="565" 
d="M433 -219q-36 0 -60.5 21.5t-24.5 61.5q0 31 17.5 61.5t56.5 74.5l1 101q-23 -48 -69.5 -78.5t-104.5 -30.5q-86 0 -143 61.5t-57 151.5t57 151t143 61q60 0 105.5 -30t68.5 -80l-1 101h109v-34h-70v-341h65v-33h-64q-75 -92 -75 -137q0 -23 13.5 -35.5t33.5 -12.5
q35 0 57 38l30 -18q-25 -54 -88 -54zM255 382q-75 0 -120 -50t-45 -127t45.5 -127.5t119.5 -50.5q75 0 122 50t47 126q0 77 -47 128t-122 51z" />
    <glyph glyph-name="aring.alt" horiz-adv-x="565" 
d="M461 33h65v-33h-104l1 101q-23 -48 -69.5 -78.5t-104.5 -30.5q-86 0 -143 61.5t-57 151.5t57 151t143 61q60 0 105.5 -30t68.5 -80l-1 101h109v-34h-70v-341zM255 382q-75 0 -120 -50t-45 -127t45.5 -127.5t119.5 -50.5q75 0 122 50t47 126q0 77 -47 128t-122 51z
M256 488q-39 0 -66.5 27t-27.5 65t27.5 65t66.5 27t66.5 -27t27.5 -65t-27.5 -65t-66.5 -27zM256 519q26 0 42 16.5t16 44.5t-16 44.5t-42 16.5t-42 -16.5t-16 -44.5t16 -44.5t42 -16.5z" />
    <glyph glyph-name="atilde.alt" horiz-adv-x="565" 
d="M461 33h65v-33h-104l1 101q-23 -48 -69.5 -78.5t-104.5 -30.5q-86 0 -143 61.5t-57 151.5t57 151t143 61q60 0 105.5 -30t68.5 -80l-1 101h109v-34h-70v-341zM255 382q-75 0 -120 -50t-45 -127t45.5 -127.5t119.5 -50.5q75 0 122 50t47 126q0 77 -47 128t-122 51z
M156 489l-34 3q2 46 22 71.5t53 25.5q20 0 35 -8.5t36 -29.5q20 -20 28.5 -25t20.5 -5q33 0 39 65l34 -3q-5 -96 -74 -96q-20 0 -34.5 9t-36.5 30q-20 19 -28 24t-21 5q-34 0 -40 -66z" />
    <glyph glyph-name="gbreve.alt" horiz-adv-x="559" 
d="M63 -104l32 18q56 -102 169 -102q160 0 160 173v114q-23 -47 -69.5 -77t-103.5 -30q-87 0 -144.5 61t-57.5 152q0 90 57.5 151t144.5 61q60 0 105.5 -30t69.5 -79v100h99v-34h-62v-393q0 -102 -52 -153t-146 -51q-70 0 -122 32.5t-80 86.5zM256 382q-75 0 -120.5 -50
t-45.5 -127t45.5 -127.5t120.5 -50.5q76 0 123.5 50.5t47.5 127.5t-47.5 127t-123.5 50zM256 484q-49 0 -78.5 29t-38.5 76l35 7q10 -36 28 -56.5t54 -20.5t54 20.5t28 56.5l35 -7q-9 -47 -38.5 -76t-78.5 -29z" />
    <glyph glyph-name="gcircumflex.alt" horiz-adv-x="559" 
d="M63 -104l32 18q56 -102 169 -102q160 0 160 173v114q-23 -47 -69.5 -77t-103.5 -30q-87 0 -144.5 61t-57.5 152q0 90 57.5 151t144.5 61q60 0 105.5 -30t69.5 -79v100h99v-34h-62v-393q0 -102 -52 -153t-146 -51q-70 0 -122 32.5t-80 86.5zM256 382q-75 0 -120.5 -50
t-45.5 -127t45.5 -127.5t120.5 -50.5q76 0 123.5 50.5t47.5 127.5t-47.5 127t-123.5 50zM139 494l113 182h9l113 -182h-35l-82 119l-83 -119h-35z" />
    <glyph glyph-name="gcommaaccent.alt" horiz-adv-x="559" 
d="M63 -104l32 18q56 -102 169 -102q160 0 160 173v114q-23 -47 -69.5 -77t-103.5 -30q-87 0 -144.5 61t-57.5 152q0 90 57.5 151t144.5 61q60 0 105.5 -30t69.5 -79v100h99v-34h-62v-393q0 -102 -52 -153t-146 -51q-70 0 -122 32.5t-80 86.5zM256 382q-75 0 -120.5 -50
t-45.5 -127t45.5 -127.5t120.5 -50.5q76 0 123.5 50.5t47.5 127.5t-47.5 127t-123.5 50zM299 690l-32 -100q11 -2 19 -12.5t8 -23.5q0 -16 -12 -28t-27 -12t-27 12t-12 28q0 7 5 19l53 117h25z" />
    <glyph glyph-name="gdotaccent.alt" horiz-adv-x="559" 
d="M63 -104l32 18q56 -102 169 -102q160 0 160 173v114q-23 -47 -69.5 -77t-103.5 -30q-87 0 -144.5 61t-57.5 152q0 90 57.5 151t144.5 61q60 0 105.5 -30t69.5 -79v100h99v-34h-62v-393q0 -102 -52 -153t-146 -51q-70 0 -122 32.5t-80 86.5zM256 382q-75 0 -120.5 -50
t-45.5 -127t45.5 -127.5t120.5 -50.5q76 0 123.5 50.5t47.5 127.5t-47.5 127t-123.5 50zM256 520q-13 0 -23 9.5t-10 23.5t10 23.5t23 9.5t23 -9.5t10 -23.5t-10 -23.5t-23 -9.5z" />
    <glyph glyph-name="f_b.alt" horiz-adv-x="822" 
d="M395 585v-274q24 48 68.5 77t104.5 29q87 0 144.5 -61t57.5 -151q0 -91 -57.5 -152t-144.5 -61q-58 0 -105.5 30.5t-69.5 79.5v-102h-109v33h72v549q0 57 -29 87.5t-77 30.5q-50 0 -80 -30t-30 -88v-174h109v-33h-109v-342h71v-33h-172v33h62v342h-67v33h67v177
q0 71 44.5 110.5t104.5 39.5t102.5 -38t42.5 -112zM563 27q75 0 120.5 50.5t45.5 127.5t-45.5 127t-120.5 50q-76 0 -123.5 -50t-47.5 -127t47.5 -127.5t123.5 -50.5z" />
    <glyph glyph-name="f_f_b.alt" horiz-adv-x="1077" 
d="M650 587v-276q24 48 68.5 77t104.5 29q87 0 144.5 -61t57.5 -151q0 -91 -57.5 -152t-144.5 -61q-58 0 -105.5 30.5t-69.5 79.5v-102h-110v33h73v549q0 57 -29 87.5t-77 30.5q-50 0 -80 -30t-30 -88v-174h109v-33h-109v-342h66v-33h-178v33h73v342h-216v-342h72v-33h-173
v33h62v342h-67v33h67v190q0 59 26.5 88t68.5 29q61 0 90 -50l-30 -20q-23 35 -59 35q-57 0 -57 -83v-189h216v177q0 71 44.5 110.5t104.5 39.5t102.5 -38t42.5 -110zM818 27q75 0 120.5 50.5t45.5 127.5t-45.5 127t-120.5 50q-76 0 -123.5 -50t-47.5 -127t47.5 -127.5
t123.5 -50.5z" />
    <glyph glyph-name="f_f_f_l.alt" horiz-adv-x="1004" 
d="M611 375h-216v-342h67v-33h-179v33h73v342h-216v-342h71v-33h-172v33h62v342h-67v33h67v190q0 59 26.5 88t68.5 29q61 0 90 -50l-30 -20q-23 35 -59 35q-57 0 -57 -83v-189h216v200q0 59 26.5 88t68.5 29q61 0 90 -50l-30 -20q-23 35 -59 35q-57 0 -57 -83v-199h216v177
q0 71 44.5 110.5t104.5 39.5t102.5 -38t42.5 -112v-552h65v-33h-177v33h73v549q0 57 -29 87.5t-77 30.5q-50 0 -80 -30t-30 -88v-174h109v-33h-109v-342h65v-33h-177v33h73v342z" />
    <glyph glyph-name="f_f_h.alt" horiz-adv-x="1052" 
d="M650 587v-266q21 44 61.5 70t93.5 26q69 0 110.5 -43.5t41.5 -118.5v-222h65v-33h-177v33h73v215q0 64 -30 98.5t-88 34.5q-67 0 -108.5 -41.5t-41.5 -111.5v-195h73v-33h-183v33h71v549q0 57 -29 87.5t-77 30.5q-50 0 -80 -30t-30 -88v-174h109v-33h-109v-342h68v-33
h-179v33h72v342h-216v-342h72v-33h-173v33h62v342h-67v33h67v190q0 59 26.5 88t68.5 29q61 0 90 -50l-30 -20q-23 35 -59 35q-57 0 -57 -83v-189h216v177q0 71 44.5 110.5t104.5 39.5t102.5 -38t42.5 -110z" />
    <glyph glyph-name="f_f_k.alt" horiz-adv-x="990" 
d="M611 33v549q0 57 -29 87.5t-77 30.5q-50 0 -80 -30t-30 -88v-174h109v-33h-109v-342h67v-33h-178v33h72v342h-216v-342h71v-33h-172v33h62v342h-67v33h67v190q0 59 26.5 88t68.5 29q61 0 90 -50l-30 -20q-23 35 -59 35q-57 0 -57 -83v-189h216v177q0 71 44.5 110.5
t104.5 39.5t102.5 -38t42.5 -110v-375q0 -14 -3 -44l194 206h-55v34h151v-34h-50l-132 -139l167 -202h50v-33h-163v33h65l-146 176l-78 -82v-94h73v-33h-185v33h73z" />
    <glyph glyph-name="ffl.alt" horiz-adv-x="757" 
d="M356 375h-216v-342h71v-33h-172v33h62v342h-67v33h67v190q0 59 26.5 88t68.5 29q61 0 90 -50l-30 -20q-23 35 -59 35q-57 0 -57 -83v-189h216v177q0 71 44.5 110.5t104.5 39.5t102.5 -38t42.5 -112v-552h73v-33h-185v33h73v549q0 57 -29 87.5t-77 30.5q-50 0 -80 -30
t-30 -88v-174h109v-33h-109v-342h67v-33h-178v33h72v342z" />
    <glyph glyph-name="f_h.alt" horiz-adv-x="797" 
d="M395 585v-264q21 44 61.5 70t93.5 26q69 0 110.5 -43.5t41.5 -118.5v-222h65v-33h-177v33h73v215q0 64 -30 98.5t-88 34.5q-67 0 -108.5 -41.5t-41.5 -111.5v-195h73v-33h-184v33h72v549q0 57 -29 87.5t-77 30.5q-50 0 -80 -30t-30 -88v-174h109v-33h-109v-342h71v-33
h-172v33h62v342h-67v33h67v177q0 71 44.5 110.5t104.5 39.5t102.5 -38t42.5 -112z" />
    <glyph glyph-name="f_k.alt" horiz-adv-x="735" 
d="M395 585v-373q0 -14 -3 -44l194 206h-55v34h151v-34h-50l-132 -139l167 -202h50v-33h-163v33h65l-146 176l-78 -82v-94h73v-33h-184v33h72v549q0 57 -29 87.5t-77 30.5q-50 0 -80 -30t-30 -88v-174h109v-33h-109v-342h71v-33h-172v33h62v342h-67v33h67v177
q0 71 44.5 110.5t104.5 39.5t102.5 -38t42.5 -112z" />
    <glyph glyph-name="fl.alt" horiz-adv-x="496" 
d="M395 33h67v-33h-179v33h73v549q0 57 -29 87.5t-77 30.5q-50 0 -80 -30t-30 -88v-174h109v-33h-109v-342h71v-33h-172v33h62v342h-67v33h67v177q0 71 44.5 110.5t104.5 39.5t102.5 -38t42.5 -112v-552z" />
    <glyph glyph-name="space.up" horiz-adv-x="260" 
 />
    <glyph glyph-name="hyphen.up" horiz-adv-x="316" 
d="M60 244v36h195v-36h-195z" />
    <glyph glyph-name="endash.up" horiz-adv-x="452" 
d="M50 246v34h352v-34h-352z" />
    <glyph glyph-name="emdash.up" horiz-adv-x="691" 
d="M50 246v34h591v-34h-591z" />
    <glyph glyph-name="guilsinglleft.up" horiz-adv-x="224" 
d="M138 80l-93 154v8l93 154h43l-95 -158l95 -158h-43z" />
    <glyph glyph-name="guilsinglright.up" horiz-adv-x="228" 
d="M47 80l95 158l-95 158h43l93 -154v-8l-93 -154h-43z" />
    <glyph glyph-name="guillemotleft.up" horiz-adv-x="355" 
d="M265 80l-93 154v8l93 154h43l-95 -158l95 -158h-43zM138 80l-93 154v8l93 154h43l-95 -158l95 -158h-43z" />
    <glyph glyph-name="guillemotright.up" horiz-adv-x="355" 
d="M174 80l95 158l-95 158h43l93 -154v-8l-93 -154h-43zM47 80l95 158l-97 158h45l93 -154v-8l-93 -154h-43z" />
    <glyph glyph-name="exclamdown.up" horiz-adv-x="250" 
d="M125 687q15 0 26.5 -11.5t11.5 -26.5q0 -16 -11.5 -27.5t-26.5 -11.5t-26.5 11.5t-11.5 27.5t11.5 27t26.5 11zM140 510l7 -510h-44l7 510h30z" />
    <glyph glyph-name="questiondown.up" horiz-adv-x="475" 
d="M288 514v-185h-27q-68 0 -111 -43.5t-43 -107.5q0 -71 40 -110t105 -39q55 0 91 23.5t61 77.5l34 -17q-23 -58 -72 -89.5t-114 -31.5q-82 0 -134 49.5t-52 136.5q0 78 52.5 130t131.5 55v151h38zM270 687q15 0 26.5 -11.5t11.5 -26.5q0 -16 -11.5 -27.5t-26.5 -11.5
t-26.5 11.5t-11.5 27.5t11.5 27t26.5 11z" />
    <glyph glyph-name="copyright.up" horiz-adv-x="824" 
d="M412 -8q-145 0 -247 100t-102 247q0 150 102 249.5t247 99.5t247 -99.5t102 -249.5q0 -147 -102 -247t-247 -100zM412 29q132 0 221 88.5t89 222.5q0 135 -89 224t-221 89t-221 -89t-89 -224q0 -134 89 -222.5t221 -88.5zM559 422h-31q-23 86 -117 86q-72 0 -114 -47
t-42 -121q0 -72 43.5 -119.5t113.5 -47.5q84 0 130 57l26 -22q-56 -69 -156 -69q-83 0 -139.5 58.5t-56.5 142.5q0 85 55.5 143.5t139.5 58.5q79 0 115 -53l3 44h30v-111z" />
    <glyph glyph-name="at.up" horiz-adv-x="876" 
d="M439 -94q-161 0 -271 110.5t-110 280.5q0 165 111 278t270 113q161 0 270 -107t109 -261q0 -108 -40 -161t-101 -53q-46 0 -73.5 26.5t-31.5 74.5q-44 -103 -148 -103q-74 0 -124.5 53.5t-50.5 133.5q0 82 50.5 136.5t124.5 54.5q100 0 145 -98l4 89h33v-235
q0 -99 71 -99q46 0 74.5 44.5t28.5 136.5q0 138 -94 236t-247 98q-149 0 -245.5 -104t-96.5 -253q0 -152 96 -254.5t246 -102.5q95 0 167 45l18 -30q-79 -49 -185 -49zM427 138q60 0 100.5 45t40.5 108q0 65 -40.5 111t-100.5 46t-99 -45.5t-39 -111.5q0 -64 39 -108.5
t99 -44.5z" />
    <glyph glyph-name="A.sc" horiz-adv-x="581" 
d="M202 496h180v-33h-55l159 -430h64v-33h-178v33h73l-41 103h-226l-40 -103h71v-33h-178v33h69l159 430h-57v33zM272 397l-81 -227h200l-79 227q-9 24 -20 63z" />
    <glyph glyph-name="B.sc" horiz-adv-x="528" 
d="M165 35h138q118 0 118 104q0 49 -29 77t-90 28h-137v-209zM165 278h138q88 0 88 91t-99 91h-127v-182zM56 495h240q67 0 100.5 -35t33.5 -91q0 -81 -67 -105q47 -11 73 -43.5t26 -81.5q0 -62 -39.5 -100.5t-115.5 -38.5h-251v33h69v429h-69v33z" />
    <glyph glyph-name="C.sc" horiz-adv-x="573" 
d="M506 349h-35q-6 61 -51.5 90t-111.5 29q-91 0 -151 -63t-60 -157t59.5 -157.5t148.5 -63.5q114 0 178 87l30 -22q-70 -100 -208 -100q-103 0 -176 72.5t-73 183.5q0 110 73.5 182.5t178.5 72.5q115 0 163 -66l3 58h32v-146z" />
    <glyph glyph-name="D.sc" horiz-adv-x="562" 
d="M238 0h-182v33h69v429h-69v33h182q124 0 196 -68t72 -179q0 -112 -72 -180t-196 -68zM165 35h69q114 0 172.5 58t58.5 155t-58.5 154.5t-172.5 57.5h-69v-425z" />
    <glyph glyph-name="E.sc" horiz-adv-x="499" 
d="M397 373l-7 87h-225v-192h207v-35h-207v-198h235l7 90h32v-125h-383v33h69v429h-69v33h373v-122h-32z" />
    <glyph glyph-name="F.sc" horiz-adv-x="469" 
d="M385 364l-7 96h-213v-206h195v-35h-195v-186h84v-33h-193v33h69v429h-69v33h361v-131h-32z" />
    <glyph glyph-name="G.sc" horiz-adv-x="579" 
d="M492 350h-37q-18 118 -148 118q-92 0 -151 -63t-59 -157q0 -95 61 -158t155 -63q102 0 157 57v108h-150v35h189v-227h-32l-5 42q-55 -50 -159 -50q-108 0 -182.5 73t-74.5 183q0 109 73 182t178 73q108 0 150 -72l3 64h32v-145z" />
    <glyph glyph-name="H.sc" horiz-adv-x="618" 
d="M125 33v429h-69v33h188v-33h-79v-196h288v196h-79v33h188v-33h-69v-429h69v-33h-188v33h79v198h-288v-198h79v-33h-188v33h69z" />
    <glyph glyph-name="I.sc" horiz-adv-x="290" 
d="M165 462v-429h69v-33h-178v33h69v429h-69v33h178v-33h-69z" />
    <glyph glyph-name="J.sc" horiz-adv-x="391" 
d="M350 462h-69v-338q0 -64 -33.5 -98t-91.5 -34q-86 0 -126 75l32 20q34 -59 92 -59q87 0 87 98v336h-89v33h198v-33z" />
    <glyph glyph-name="K.sc" horiz-adv-x="531" 
d="M56 0v33h69v429h-69v33h178v-33h-69v-206q0 -34 -6 -85q41 66 51 78l171 213h-64v33h165v-33h-56l-151 -187l172 -242h52v-33h-157v33h59l-151 213l-85 -103v-110h69v-33h-178z" />
    <glyph glyph-name="L.sc" horiz-adv-x="446" 
d="M363 35l6 100h33v-135h-346v33h69v429h-69v33h188v-33h-79v-427h198z" />
    <glyph glyph-name="M.sc" horiz-adv-x="718" 
d="M359 198l181 297h122v-33h-69v-429h69v-33h-178v33h69v340v21t0.5 22.5t1 20t0.5 15.5v6q-1 -2 -9 -15.5t-18 -31.5t-16 -28l-142 -234h-25l-141 234q-28 44 -43 75v-6q0 -6 0.5 -15.5t1 -20t0.5 -22.5v-21v-340h69v-33h-176v33h69v429h-69v33h122z" />
    <glyph glyph-name="N.sc" horiz-adv-x="628" 
d="M471 137v325h-70v33h177v-33h-70v-462h-32l-270 385q-35 50 -44 68v-5q0 -6 0.5 -15t1 -19t0.5 -21.5v-20.5v-339h72v-33h-180v33h69v429h-69v33h120l256 -363q23 -32 42 -71l-1 13q-1 12 -1.5 30.5t-0.5 32.5z" />
    <glyph glyph-name="O.sc" horiz-adv-x="627" 
d="M314 -8q-107 0 -182.5 72.5t-75.5 183.5t75.5 183t182.5 72q108 0 182.5 -72t74.5 -183t-75 -183.5t-182 -72.5zM314 27q94 0 155 63.5t61 157.5t-61 157t-155 63t-155.5 -63t-61.5 -157t61.5 -157.5t155.5 -63.5z" />
    <glyph glyph-name="P.sc" horiz-adv-x="495" 
d="M165 220h89q153 0 153 120q0 61 -37 90.5t-116 29.5h-89v-240zM56 495h201q90 0 140 -41t50 -114t-50 -114t-140 -41h-92v-152h69v-33h-178v33h69v429h-69v33z" />
    <glyph glyph-name="Q.sc" horiz-adv-x="641" 
d="M314 -8q-107 0 -182.5 72.5t-75.5 183.5t75.5 183t182.5 72q108 0 182.5 -72t74.5 -183q0 -106 -77 -183l32 -32h79v-33h-98l-41 41q-68 -49 -152 -49zM359 151l27 25l84 -87q60 62 60 159q0 94 -61 157t-155 63t-155.5 -63t-61.5 -157t61.5 -157.5t155.5 -63.5
q73 0 128 38z" />
    <glyph glyph-name="R.sc" horiz-adv-x="533" 
d="M56 495h198q89 0 139.5 -40t50.5 -110q0 -55 -31.5 -92t-89.5 -51l109 -169h65v-33h-90l-126 196q-9 -1 -27 -1h-89v-162h69v-33h-178v33h69v429h-69v33zM165 230h86q153 0 153 115q0 59 -37 87t-116 28h-86v-230z" />
    <glyph glyph-name="S.sc" horiz-adv-x="432" 
d="M52 0v143h35q11 -116 137 -116q51 0 83 26t32 68q0 41 -23.5 67t-77.5 50l-49 22q-117 52 -117 129q0 52 36.5 83t90.5 31q74 0 107 -49l3 41h32v-121h-35q-8 95 -107 95q-41 0 -65 -20.5t-24 -58.5q0 -32 23.5 -53t71.5 -43l49 -22q63 -28 93.5 -63t30.5 -88
q0 -58 -43 -93.5t-110 -35.5q-45 0 -83 17.5t-55 46.5l-3 -56h-32z" />
    <glyph glyph-name="T.sc" horiz-adv-x="502" 
d="M419 460h-143v-427h69v-33h-178v33h69v427h-143l-6 -81h-31v116h400v-116h-31z" />
    <glyph glyph-name="U.sc" horiz-adv-x="593" 
d="M537 462h-68v-295q0 -84 -47.5 -129.5t-124.5 -45.5t-124.5 45.5t-47.5 129.5v295h-69v33h178v-33h-69v-292q0 -72 35 -107.5t97 -35.5t97 35.5t35 107.5v292h-70v33h178v-33z" />
    <glyph glyph-name="V.sc" horiz-adv-x="574" 
d="M212 495v-33h-76l129 -347q7 -20 23 -75q7 36 22 75l129 347h-77v33h178v-33h-61l-172 -462h-39l-174 462h-60v33h178z" />
    <glyph glyph-name="W.sc" horiz-adv-x="794" 
d="M760 495v-33h-58l-132 -462h-40l-119 381q-12 35 -15 57l-15 -57l-119 -381h-39l-134 462h-55v33h178v-33h-82l98 -348q2 -8 4.5 -20t4.5 -22t3.5 -19t1.5 -10q17 68 18 71l121 381h32l119 -380l18 -72q0 23 15 72l98 347h-81v33h178z" />
    <glyph glyph-name="X.sc" horiz-adv-x="558" 
d="M339 33h67l-105 165q-20 31 -24 47l-3 -8q-4 -8 -9 -20t-9 -19l-104 -165h67v-33h-173v33h59l150 236l-123 193h-62v33h173v-33h-68l78 -122l26 -49q12 27 26 49l76 122h-72v33h173v-33h-58l-123 -193l152 -236h59v-33h-173v33z" />
    <glyph glyph-name="Y.sc" horiz-adv-x="534" 
d="M500 495v-33h-60l-152 -276v-153h68v-33h-178v33h70v151l-153 278h-61v33h178v-33h-75l103 -186q6 -11 12.5 -26t11 -26t4.5 -12l4 11q5 11 12 26.5t13 26.5l101 186h-76v33h178z" />
    <glyph glyph-name="Z.sc" horiz-adv-x="469" 
d="M86 370v125h321v-27l-305 -434h268l6 91h30v-125h-352v27l305 434h-237l-6 -91h-30z" />
    <glyph glyph-name="Oslash.sc" horiz-adv-x="627" 
d="M544 502l24 -24l-60 -60q63 -69 63 -170q0 -111 -75 -183.5t-182 -72.5q-98 0 -170 62l-61 -61l-24 24l60 60q-63 71 -63 171q0 111 75.5 183t182.5 72q100 0 170 -61zM97 248q0 -84 48 -145l313 313q-57 52 -144 52q-94 0 -155.5 -63t-61.5 -157zM314 27q94 0 155 63.5
t61 157.5q0 85 -48 144l-313 -313q58 -52 145 -52z" />
    <glyph glyph-name="AE.sc" horiz-adv-x="730" 
d="M628 373l-7 87h-219v-192h197v-35h-197v-198h229l7 90h32v-125h-377v33h69v101h-183l-62 -101h72v-33h-159v33h46l262 429h-54v33h376v-122h-32zM198 169h164v206q0 21 9 88q-18 -42 -40 -77z" />
    <glyph glyph-name="OE.sc" horiz-adv-x="754" 
d="M324 0q-124 0 -196 68t-72 179q0 112 72 180t196 68h360v-122h-32l-7 87h-219v-192h197v-35h-197v-198h229l7 90h32v-125h-370zM328 35h58v425h-58q-114 0 -172.5 -58t-58.5 -155t58.5 -154.5t172.5 -57.5z" />
    <glyph glyph-name="Eth.sc" horiz-adv-x="562" 
d="M64 268h61v194h-69v33h182q124 0 196 -68t72 -179q0 -112 -72 -180t-196 -68h-182v33h69v201h-61v34zM165 35h69q114 0 172.5 58t58.5 155t-58.5 154.5t-172.5 57.5h-69v-192h139v-34h-139v-199z" />
    <glyph glyph-name="Dcroat.sc" horiz-adv-x="562" 
d="M64 268h61v194h-69v33h182q124 0 196 -68t72 -179q0 -112 -72 -180t-196 -68h-182v33h69v201h-61v34zM165 35h69q114 0 172.5 58t58.5 155t-58.5 154.5t-172.5 57.5h-69v-192h139v-34h-139v-199z" />
    <glyph glyph-name="dotlessi.sc" horiz-adv-x="290" 
d="M165 462v-429h69v-33h-178v33h69v429h-69v33h178v-33h-69z" />
    <glyph glyph-name="Aacute.sc" horiz-adv-x="581" 
d="M202 496h180v-33h-55l159 -430h64v-33h-178v33h73l-41 103h-226l-40 -103h71v-33h-178v33h69l159 430h-57v33zM272 397l-81 -227h200l-79 227q-9 24 -20 63zM271 581l75 195h46l-88 -195h-33z" />
    <glyph glyph-name="Abreve.sc" horiz-adv-x="581" 
d="M202 496h180v-33h-55l159 -430h64v-33h-178v33h73l-41 103h-226l-40 -103h71v-33h-178v33h69l159 430h-57v33zM272 397l-81 -227h200l-79 227q-9 24 -20 63zM291 568q-49 0 -78.5 28.5t-38.5 76.5l35 7q10 -36 28 -56.5t54 -20.5t54 20.5t28 56.5l35 -7
q-9 -48 -38.5 -76.5t-78.5 -28.5z" />
    <glyph glyph-name="Acircumflex.sc" horiz-adv-x="581" 
d="M202 496h180v-33h-55l159 -430h64v-33h-178v33h73l-41 103h-226l-40 -103h71v-33h-178v33h69l159 430h-57v33zM272 397l-81 -227h200l-79 227q-9 24 -20 63zM174 578l113 182h9l113 -182h-35l-82 119l-83 -119h-35z" />
    <glyph glyph-name="Adieresis.sc" horiz-adv-x="581" 
d="M202 496h180v-33h-55l159 -430h64v-33h-178v33h73l-41 103h-226l-40 -103h71v-33h-178v33h69l159 430h-57v33zM272 397l-81 -227h200l-79 227q-9 24 -20 63zM367 605q-13 0 -22.5 9.5t-9.5 22.5t9.5 22.5t22.5 9.5t22.5 -9.5t9.5 -22.5t-9.5 -22.5t-22.5 -9.5zM215 605
q-13 0 -22.5 9.5t-9.5 22.5t9.5 22.5t22.5 9.5t22.5 -9.5t9.5 -22.5t-9.5 -22.5t-22.5 -9.5z" />
    <glyph glyph-name="Agrave.sc" horiz-adv-x="581" 
d="M202 496h180v-33h-55l159 -430h64v-33h-178v33h73l-41 103h-226l-40 -103h71v-33h-178v33h69l159 430h-57v33zM272 397l-81 -227h200l-79 227q-9 24 -20 63zM276 581l-88 195h46l75 -195h-33z" />
    <glyph glyph-name="Amacron.sc" horiz-adv-x="581" 
d="M202 496h180v-33h-55l159 -430h64v-33h-178v33h73l-41 103h-226l-40 -103h71v-33h-178v33h69l159 430h-57v33zM272 397l-81 -227h200l-79 227q-9 24 -20 63zM194 594v34h194v-34h-194z" />
    <glyph glyph-name="Aogonek.sc" horiz-adv-x="581" 
d="M462 -219q-36 0 -60.5 21.5t-24.5 61.5q0 31 17.5 61.5t56.5 74.5h-79v33h73l-41 103h-226l-40 -103h71v-33h-178v33h69l159 430h-57v33h180v-33h-55l159 -430h64v-33h-59q-75 -92 -75 -137q0 -23 13.5 -35.5t33.5 -12.5q35 0 57 38l30 -18q-25 -54 -88 -54zM272 397
l-81 -227h200l-79 227q-9 24 -20 63z" />
    <glyph glyph-name="Aring.sc" horiz-adv-x="581" 
d="M202 496h180v-33h-55l159 -430h64v-33h-178v33h73l-41 103h-226l-40 -103h71v-33h-178v33h69l159 430h-57v33zM272 397l-81 -227h200l-79 227q-9 24 -20 63zM291 572q-39 0 -66.5 27t-27.5 65t27.5 65t66.5 27t66.5 -27t27.5 -65t-27.5 -65t-66.5 -27zM291 603
q26 0 42 16.5t16 44.5t-16 44.5t-42 16.5t-42 -16.5t-16 -44.5t16 -44.5t42 -16.5z" />
    <glyph glyph-name="Atilde.sc" horiz-adv-x="581" 
d="M202 496h180v-33h-55l159 -430h64v-33h-178v33h73l-41 103h-226l-40 -103h71v-33h-178v33h69l159 430h-57v33zM272 397l-81 -227h200l-79 227q-9 24 -20 63zM191 573l-34 3q2 46 22 71.5t53 25.5q20 0 35 -8.5t36 -29.5q20 -20 28.5 -25t20.5 -5q33 0 39 65l34 -3
q-5 -96 -74 -96q-20 0 -34.5 9t-36.5 30q-20 19 -28 24t-21 5q-34 0 -40 -66z" />
    <glyph glyph-name="Cacute.sc" horiz-adv-x="573" 
d="M506 349h-35q-6 61 -51.5 90t-111.5 29q-91 0 -151 -63t-60 -157t59.5 -157.5t148.5 -63.5q114 0 178 87l30 -22q-70 -100 -208 -100q-103 0 -176 72.5t-73 183.5q0 110 73.5 182.5t178.5 72.5q115 0 163 -66l3 58h32v-146zM291 581l75 195h46l-88 -195h-33z" />
    <glyph glyph-name="Ccaron.sc" horiz-adv-x="573" 
d="M506 349h-35q-6 61 -51.5 90t-111.5 29q-91 0 -151 -63t-60 -157t59.5 -157.5t148.5 -63.5q114 0 178 87l30 -22q-70 -100 -208 -100q-103 0 -176 72.5t-73 183.5q0 110 73.5 182.5t178.5 72.5q115 0 163 -66l3 58h32v-146zM307 575l-113 182h35l82 -119l83 119h35
l-113 -182h-9z" />
    <glyph glyph-name="Ccedilla.sc" horiz-adv-x="573" 
d="M298 -228q-68 0 -94 58l30 18q21 -43 63 -43q22 0 37 14t15 38t-15.5 39.5t-46.5 15.5h-15v83q-92 12 -154 82t-62 171q0 110 73.5 182.5t178.5 72.5q115 0 163 -66l3 58h32v-146h-35q-6 61 -51.5 90t-111.5 29q-91 0 -151 -63t-60 -157t59.5 -157.5t148.5 -63.5
q114 0 178 87l30 -22q-69 -99 -205 -100v-51q33 -4 56.5 -27t23.5 -58q0 -39 -26.5 -61.5t-63.5 -22.5z" />
    <glyph glyph-name="Ccircumflex.sc" horiz-adv-x="573" 
d="M506 349h-35q-6 61 -51.5 90t-111.5 29q-91 0 -151 -63t-60 -157t59.5 -157.5t148.5 -63.5q114 0 178 87l30 -22q-70 -100 -208 -100q-103 0 -176 72.5t-73 183.5q0 110 73.5 182.5t178.5 72.5q115 0 163 -66l3 58h32v-146zM194 578l113 182h9l113 -182h-35l-82 119
l-83 -119h-35z" />
    <glyph glyph-name="Cdotaccent.sc" horiz-adv-x="573" 
d="M506 349h-35q-6 61 -51.5 90t-111.5 29q-91 0 -151 -63t-60 -157t59.5 -157.5t148.5 -63.5q114 0 178 87l30 -22q-70 -100 -208 -100q-103 0 -176 72.5t-73 183.5q0 110 73.5 182.5t178.5 72.5q115 0 163 -66l3 58h32v-146zM311 604q-13 0 -23 9.5t-10 23.5t10 23.5
t23 9.5t23 -9.5t10 -23.5t-10 -23.5t-23 -9.5z" />
    <glyph glyph-name="Dcaron.sc" horiz-adv-x="562" 
d="M238 0h-182v33h69v429h-69v33h182q124 0 196 -68t72 -179q0 -112 -72 -180t-196 -68zM165 35h69q114 0 172.5 58t58.5 155t-58.5 154.5t-172.5 57.5h-69v-425zM231 575l-113 182h35l82 -119l83 119h35l-113 -182h-9z" />
    <glyph glyph-name="Eacute.sc" horiz-adv-x="499" 
d="M397 373l-7 87h-225v-192h207v-35h-207v-198h235l7 90h32v-125h-383v33h69v429h-69v33h373v-122h-32zM257 581l75 195h46l-88 -195h-33z" />
    <glyph glyph-name="Ebreve.sc" horiz-adv-x="499" 
d="M397 373l-7 87h-225v-192h207v-35h-207v-198h235l7 90h32v-125h-383v33h69v429h-69v33h373v-122h-32zM260 568q-49 0 -78.5 28.5t-38.5 76.5l35 7q10 -36 28 -56.5t54 -20.5t54 20.5t28 56.5l35 -7q-9 -48 -38.5 -76.5t-78.5 -28.5z" />
    <glyph glyph-name="Ecaron.sc" horiz-adv-x="499" 
d="M397 373l-7 87h-225v-192h207v-35h-207v-198h235l7 90h32v-125h-383v33h69v429h-69v33h373v-122h-32zM273 575l-113 182h35l82 -119l83 119h35l-113 -182h-9z" />
    <glyph glyph-name="Ecircumflex.sc" horiz-adv-x="499" 
d="M397 373l-7 87h-225v-192h207v-35h-207v-198h235l7 90h32v-125h-383v33h69v429h-69v33h373v-122h-32zM160 578l113 182h9l113 -182h-35l-82 119l-83 -119h-35z" />
    <glyph glyph-name="Edieresis.sc" horiz-adv-x="499" 
d="M397 373l-7 87h-225v-192h207v-35h-207v-198h235l7 90h32v-125h-383v33h69v429h-69v33h373v-122h-32zM353 605q-13 0 -22.5 9.5t-9.5 22.5t9.5 22.5t22.5 9.5t22.5 -9.5t9.5 -22.5t-9.5 -22.5t-22.5 -9.5zM201 605q-13 0 -22.5 9.5t-9.5 22.5t9.5 22.5t22.5 9.5
t22.5 -9.5t9.5 -22.5t-9.5 -22.5t-22.5 -9.5z" />
    <glyph glyph-name="Edotaccent.sc" horiz-adv-x="499" 
d="M397 373l-7 87h-225v-192h207v-35h-207v-198h235l7 90h32v-125h-383v33h69v429h-69v33h373v-122h-32zM277 604q-13 0 -23 9.5t-10 23.5t10 23.5t23 9.5t23 -9.5t10 -23.5t-10 -23.5t-23 -9.5z" />
    <glyph glyph-name="Egrave.sc" horiz-adv-x="499" 
d="M397 373l-7 87h-225v-192h207v-35h-207v-198h235l7 90h32v-125h-383v33h69v429h-69v33h373v-122h-32zM262 581l-88 195h46l75 -195h-33z" />
    <glyph glyph-name="Emacron.sc" horiz-adv-x="499" 
d="M397 373l-7 87h-225v-192h207v-35h-207v-198h235l7 90h32v-125h-383v33h69v429h-69v33h373v-122h-32zM180 594v34h194v-34h-194z" />
    <glyph glyph-name="Eogonek.sc" horiz-adv-x="499" 
d="M361 -219q-36 0 -60.5 21.5t-24.5 61.5q0 31 17.5 61.5t56.5 74.5h-294v33h69v429h-69v33h373v-122h-32l-7 87h-225v-192h207v-35h-207v-198h235l7 90h32v-125h-49q-75 -92 -75 -137q0 -23 13.5 -35.5t33.5 -12.5q35 0 57 38l30 -18q-25 -54 -88 -54z" />
    <glyph glyph-name="Gbreve.sc" horiz-adv-x="579" 
d="M492 350h-37q-18 118 -148 118q-92 0 -151 -63t-59 -157q0 -95 61 -158t155 -63q102 0 157 57v108h-150v35h189v-227h-32l-5 42q-55 -50 -159 -50q-108 0 -182.5 73t-74.5 183q0 109 73 182t178 73q108 0 150 -72l3 64h32v-145zM310 568q-49 0 -78.5 28.5t-38.5 76.5
l35 7q10 -36 28 -56.5t54 -20.5t54 20.5t28 56.5l35 -7q-9 -48 -38.5 -76.5t-78.5 -28.5z" />
    <glyph glyph-name="Gcircumflex.sc" horiz-adv-x="579" 
d="M492 350h-37q-18 118 -148 118q-92 0 -151 -63t-59 -157q0 -95 61 -158t155 -63q102 0 157 57v108h-150v35h189v-227h-32l-5 42q-55 -50 -159 -50q-108 0 -182.5 73t-74.5 183q0 109 73 182t178 73q108 0 150 -72l3 64h32v-145zM193 578l113 182h9l113 -182h-35l-82 119
l-83 -119h-35z" />
    <glyph glyph-name="Gcommaaccent.sc" horiz-adv-x="579" 
d="M492 350h-37q-18 118 -148 118q-92 0 -151 -63t-59 -157q0 -95 61 -158t155 -63q102 0 157 57v108h-150v35h189v-227h-32l-5 42q-55 -50 -159 -50q-108 0 -182.5 73t-74.5 183q0 109 73 182t178 73q108 0 150 -72l3 64h32v-145zM265 -243l32 100q-11 2 -19 12.5t-8 23.5
q0 16 12 28t27 12t27 -12t12 -28q0 -7 -5 -19l-53 -117h-25z" />
    <glyph glyph-name="Gdotaccent.sc" horiz-adv-x="579" 
d="M492 350h-37q-18 118 -148 118q-92 0 -151 -63t-59 -157q0 -95 61 -158t155 -63q102 0 157 57v108h-150v35h189v-227h-32l-5 42q-55 -50 -159 -50q-108 0 -182.5 73t-74.5 183q0 109 73 182t178 73q108 0 150 -72l3 64h32v-145zM310 604q-13 0 -23 9.5t-10 23.5t10 23.5
t23 9.5t23 -9.5t10 -23.5t-10 -23.5t-23 -9.5z" />
    <glyph glyph-name="Hbar.sc" horiz-adv-x="618" 
d="M56 0v33h69v317h-69v33h69v79h-69v33h188v-33h-79v-79h288v79h-79v33h188v-33h-69v-79h69v-33h-69v-317h69v-33h-188v33h79v198h-288v-198h79v-33h-188zM165 266h288v84h-288v-84z" />
    <glyph glyph-name="Hcircumflex.sc" horiz-adv-x="618" 
d="M125 33v429h-69v33h188v-33h-79v-196h288v196h-79v33h188v-33h-69v-429h69v-33h-188v33h79v198h-288v-198h79v-33h-188v33h69zM192 578l113 182h9l113 -182h-35l-82 119l-83 -119h-35z" />
    <glyph glyph-name="Iacute.sc" horiz-adv-x="290" 
d="M165 462v-429h69v-33h-178v33h69v429h-69v33h178v-33h-69zM125 581l75 195h46l-88 -195h-33z" />
    <glyph glyph-name="Icircumflex.sc" horiz-adv-x="290" 
d="M165 462v-429h69v-33h-178v33h69v429h-69v33h178v-33h-69zM28 578l113 182h9l113 -182h-35l-82 119l-83 -119h-35z" />
    <glyph glyph-name="Idieresis.sc" horiz-adv-x="290" 
d="M165 462v-429h69v-33h-178v33h69v429h-69v33h178v-33h-69zM221 605q-13 0 -22.5 9.5t-9.5 22.5t9.5 22.5t22.5 9.5t22.5 -9.5t9.5 -22.5t-9.5 -22.5t-22.5 -9.5zM69 605q-13 0 -22.5 9.5t-9.5 22.5t9.5 22.5t22.5 9.5t22.5 -9.5t9.5 -22.5t-9.5 -22.5t-22.5 -9.5z" />
    <glyph glyph-name="Idotaccent.sc" horiz-adv-x="290" 
d="M165 462v-429h69v-33h-178v33h69v429h-69v33h178v-33h-69zM145 604q-13 0 -23 9.5t-10 23.5t10 23.5t23 9.5t23 -9.5t10 -23.5t-10 -23.5t-23 -9.5z" />
    <glyph glyph-name="Igrave.sc" horiz-adv-x="290" 
d="M165 462v-429h69v-33h-178v33h69v429h-69v33h178v-33h-69zM130 581l-88 195h46l75 -195h-33z" />
    <glyph glyph-name="Imacron.sc" horiz-adv-x="290" 
d="M165 462v-429h69v-33h-178v33h69v429h-69v33h178v-33h-69zM48 594v34h194v-34h-194z" />
    <glyph glyph-name="Iogonek.sc" horiz-adv-x="290" 
d="M165 462v-429h69v-33h-63q-63 -86 -63 -137q0 -23 13.5 -35.5t33.5 -12.5q35 0 57 38l30 -18q-25 -54 -88 -54q-36 0 -60.5 21.5t-24.5 61.5q0 31 14.5 60.5t46.5 75.5h-74v33h69v429h-69v33h178v-33h-69z" />
    <glyph glyph-name="Jcircumflex.sc" horiz-adv-x="391" 
d="M350 462h-69v-338q0 -64 -33.5 -98t-91.5 -34q-86 0 -126 75l32 20q34 -59 92 -59q87 0 87 98v336h-89v33h198v-33zM144 578l113 182h9l113 -182h-35l-82 119l-83 -119h-35z" />
    <glyph glyph-name="Kcommaaccent.sc" horiz-adv-x="531" 
d="M56 0v33h69v429h-69v33h178v-33h-69v-206q0 -34 -6 -85q41 66 51 78l171 213h-64v33h165v-33h-56l-151 -187l172 -242h52v-33h-157v33h59l-151 213l-85 -103v-110h69v-33h-178zM227 -243l32 100q-11 2 -19 12.5t-8 23.5q0 16 12 28t27 12t27 -12t12 -28q0 -7 -5 -19
l-53 -117h-25z" />
    <glyph glyph-name="Lacute.sc" horiz-adv-x="446" 
d="M363 35l6 100h33v-135h-346v33h69v429h-69v33h188v-33h-79v-427h198zM135 581l75 195h46l-88 -195h-33z" />
    <glyph glyph-name="Lcaron.sc" horiz-adv-x="446" 
d="M334 329l32 100q-11 2 -19 12.5t-8 23.5q0 16 12 28t27 12t27 -12t12 -28q0 -7 -5 -19l-53 -117h-25zM363 35l6 100h33v-135h-346v33h69v429h-69v33h188v-33h-79v-427h198z" />
    <glyph glyph-name="Lcommaaccent.sc" horiz-adv-x="446" 
d="M363 35l6 100h33v-135h-346v33h69v429h-69v33h188v-33h-79v-427h198zM184 -243l32 100q-11 2 -19 12.5t-8 23.5q0 16 12 28t27 12t27 -12t12 -28q0 -7 -5 -19l-53 -117h-25z" />
    <glyph glyph-name="Lslash.sc" horiz-adv-x="446" 
d="M363 35l6 100h33v-135h-346v33h69v163l-74 -29v34l74 29v232h-69v33h188v-33h-79v-216l153 62v-34l-153 -62v-177h198z" />
    <glyph glyph-name="Nacute.sc" horiz-adv-x="628" 
d="M471 137v325h-70v33h177v-33h-70v-462h-32l-270 385q-35 50 -44 68v-5q0 -6 0.5 -15t1 -19t0.5 -21.5v-20.5v-339h72v-33h-180v33h69v429h-69v33h120l256 -363q23 -32 42 -71l-1 13q-1 12 -1.5 30.5t-0.5 32.5zM297 581l75 195h46l-88 -195h-33z" />
    <glyph glyph-name="Ncaron.sc" horiz-adv-x="629" 
d="M471 137v325h-70v33h177v-33h-70v-462h-32l-270 385q-35 50 -44 68v-5q0 -6 0.5 -15t1 -19t0.5 -21.5v-20.5v-339h72v-33h-180v33h69v429h-69v33h120l256 -363q23 -32 42 -71l-1 13q-1 12 -1.5 30.5t-0.5 32.5zM313 575l-113 182h35l82 -119l83 119h35l-113 -182h-9z" />
    <glyph glyph-name="Ncommaaccent.sc" horiz-adv-x="629" 
d="M471 137v325h-70v33h177v-33h-70v-462h-32l-270 385q-35 50 -44 68v-5q0 -6 0.5 -15t1 -19t0.5 -21.5v-20.5v-339h72v-33h-180v33h69v429h-69v33h120l256 -363q23 -32 42 -71l-1 13q-1 12 -1.5 30.5t-0.5 32.5zM272 -243l32 100q-11 2 -19 12.5t-8 23.5q0 16 12 28t27 12
t27 -12t12 -28q0 -7 -5 -19l-53 -117h-25z" />
    <glyph glyph-name="Ntilde.sc" horiz-adv-x="628" 
d="M471 137v325h-70v33h177v-33h-70v-462h-32l-270 385q-35 50 -44 68v-5q0 -6 0.5 -15t1 -19t0.5 -21.5v-20.5v-339h72v-33h-180v33h69v429h-69v33h120l256 -363q23 -32 42 -71l-1 13q-1 12 -1.5 30.5t-0.5 32.5zM217 573l-34 3q2 46 22 71.5t53 25.5q20 0 35 -8.5
t36 -29.5q20 -20 28.5 -25t20.5 -5q33 0 39 65l34 -3q-5 -96 -74 -96q-20 0 -34.5 9t-36.5 30q-20 19 -28 24t-21 5q-34 0 -40 -66z" />
    <glyph glyph-name="Oacute.sc" horiz-adv-x="627" 
d="M314 -8q-107 0 -182.5 72.5t-75.5 183.5t75.5 183t182.5 72q108 0 182.5 -72t74.5 -183t-75 -183.5t-182 -72.5zM314 27q94 0 155 63.5t61 157.5t-61 157t-155 63t-155.5 -63t-61.5 -157t61.5 -157.5t155.5 -63.5zM293 581l75 195h46l-88 -195h-33z" />
    <glyph glyph-name="Ocircumflex.sc" horiz-adv-x="627" 
d="M314 -8q-107 0 -182.5 72.5t-75.5 183.5t75.5 183t182.5 72q108 0 182.5 -72t74.5 -183t-75 -183.5t-182 -72.5zM314 27q94 0 155 63.5t61 157.5t-61 157t-155 63t-155.5 -63t-61.5 -157t61.5 -157.5t155.5 -63.5zM196 578l113 182h9l113 -182h-35l-82 119l-83 -119h-35z
" />
    <glyph glyph-name="Odieresis.sc" horiz-adv-x="627" 
d="M314 -8q-107 0 -182.5 72.5t-75.5 183.5t75.5 183t182.5 72q108 0 182.5 -72t74.5 -183t-75 -183.5t-182 -72.5zM314 27q94 0 155 63.5t61 157.5t-61 157t-155 63t-155.5 -63t-61.5 -157t61.5 -157.5t155.5 -63.5zM389 605q-13 0 -22.5 9.5t-9.5 22.5t9.5 22.5t22.5 9.5
t22.5 -9.5t9.5 -22.5t-9.5 -22.5t-22.5 -9.5zM237 605q-13 0 -22.5 9.5t-9.5 22.5t9.5 22.5t22.5 9.5t22.5 -9.5t9.5 -22.5t-9.5 -22.5t-22.5 -9.5z" />
    <glyph glyph-name="Ograve.sc" horiz-adv-x="627" 
d="M314 -8q-107 0 -182.5 72.5t-75.5 183.5t75.5 183t182.5 72q108 0 182.5 -72t74.5 -183t-75 -183.5t-182 -72.5zM314 27q94 0 155 63.5t61 157.5t-61 157t-155 63t-155.5 -63t-61.5 -157t61.5 -157.5t155.5 -63.5zM298 581l-88 195h46l75 -195h-33z" />
    <glyph glyph-name="Ohungarumlaut.sc" horiz-adv-x="627" 
d="M314 -8q-107 0 -182.5 72.5t-75.5 183.5t75.5 183t182.5 72q108 0 182.5 -72t74.5 -183t-75 -183.5t-182 -72.5zM314 27q94 0 155 63.5t61 157.5t-61 157t-155 63t-155.5 -63t-61.5 -157t61.5 -157.5t155.5 -63.5zM349 581l75 195h46l-88 -195h-33zM232 581l75 195h46
l-88 -195h-33z" />
    <glyph glyph-name="Omacron.sc" horiz-adv-x="627" 
d="M314 -8q-107 0 -182.5 72.5t-75.5 183.5t75.5 183t182.5 72q108 0 182.5 -72t74.5 -183t-75 -183.5t-182 -72.5zM314 27q94 0 155 63.5t61 157.5t-61 157t-155 63t-155.5 -63t-61.5 -157t61.5 -157.5t155.5 -63.5zM216 594v34h194v-34h-194z" />
    <glyph glyph-name="Otilde.sc" horiz-adv-x="627" 
d="M314 -8q-107 0 -182.5 72.5t-75.5 183.5t75.5 183t182.5 72q108 0 182.5 -72t74.5 -183t-75 -183.5t-182 -72.5zM314 27q94 0 155 63.5t61 157.5t-61 157t-155 63t-155.5 -63t-61.5 -157t61.5 -157.5t155.5 -63.5zM213 573l-34 3q2 46 22 71.5t53 25.5q20 0 35 -8.5
t36 -29.5q20 -20 28.5 -25t20.5 -5q33 0 39 65l34 -3q-5 -96 -74 -96q-20 0 -34.5 9t-36.5 30q-20 19 -28 24t-21 5q-34 0 -40 -66z" />
    <glyph glyph-name="Racute.sc" horiz-adv-x="533" 
d="M56 495h198q89 0 139.5 -40t50.5 -110q0 -55 -31.5 -92t-89.5 -51l109 -169h65v-33h-90l-126 196q-9 -1 -27 -1h-89v-162h69v-33h-178v33h69v429h-69v33zM165 230h86q153 0 153 115q0 59 -37 87t-116 28h-86v-230zM242 581l75 195h46l-88 -195h-33z" />
    <glyph glyph-name="Rcaron.sc" horiz-adv-x="533" 
d="M56 495h198q89 0 139.5 -40t50.5 -110q0 -55 -31.5 -92t-89.5 -51l109 -169h65v-33h-90l-126 196q-9 -1 -27 -1h-89v-162h69v-33h-178v33h69v429h-69v33zM165 230h86q153 0 153 115q0 59 -37 87t-116 28h-86v-230zM258 575l-113 182h35l82 -119l83 119h35l-113 -182h-9z
" />
    <glyph glyph-name="Rcommaaccent.sc" horiz-adv-x="533" 
d="M56 495h198q89 0 139.5 -40t50.5 -110q0 -55 -31.5 -92t-89.5 -51l109 -169h65v-33h-90l-126 196q-9 -1 -27 -1h-89v-162h69v-33h-178v33h69v429h-69v33zM165 230h86q153 0 153 115q0 59 -37 87t-116 28h-86v-230zM247 -243l32 100q-11 2 -19 12.5t-8 23.5q0 16 12 28
t27 12t27 -12t12 -28q0 -7 -5 -19l-53 -117h-25z" />
    <glyph glyph-name="Sacute.sc" horiz-adv-x="432" 
d="M52 0v143h35q11 -116 137 -116q51 0 83 26t32 68q0 41 -23.5 67t-77.5 50l-49 22q-117 52 -117 129q0 52 36.5 83t90.5 31q74 0 107 -49l3 41h32v-121h-35q-8 95 -107 95q-41 0 -65 -20.5t-24 -58.5q0 -32 23.5 -53t71.5 -43l49 -22q63 -28 93.5 -63t30.5 -88
q0 -58 -43 -93.5t-110 -35.5q-45 0 -83 17.5t-55 46.5l-3 -56h-32zM195 581l75 195h46l-88 -195h-33z" />
    <glyph glyph-name="Scaron.sc" horiz-adv-x="432" 
d="M52 0v143h35q11 -116 137 -116q51 0 83 26t32 68q0 41 -23.5 67t-77.5 50l-49 22q-117 52 -117 129q0 52 36.5 83t90.5 31q74 0 107 -49l3 41h32v-121h-35q-8 95 -107 95q-41 0 -65 -20.5t-24 -58.5q0 -32 23.5 -53t71.5 -43l49 -22q63 -28 93.5 -63t30.5 -88
q0 -58 -43 -93.5t-110 -35.5q-45 0 -83 17.5t-55 46.5l-3 -56h-32zM211 575l-113 182h35l82 -119l83 119h35l-113 -182h-9z" />
    <glyph glyph-name="Scedilla.sc" horiz-adv-x="432" 
d="M217 -228q-68 0 -94 58l30 18q21 -43 63 -43q22 0 37 14t15 38t-15.5 39.5t-46.5 15.5h-15v83q-75 11 -104 61l-3 -56h-32v143h35q11 -116 137 -116q51 0 83 26t32 68q0 41 -23.5 67t-77.5 50l-49 22q-117 52 -117 129q0 52 36.5 83t90.5 31q74 0 107 -49l3 41h32v-121
h-35q-8 95 -107 95q-41 0 -65 -20.5t-24 -58.5q0 -32 23.5 -53t71.5 -43l49 -22q63 -28 93.5 -63t30.5 -88q0 -58 -42 -93t-109 -36v-51q33 -4 56.5 -27t23.5 -58q0 -39 -26.5 -61.5t-63.5 -22.5z" />
    <glyph glyph-name="Scircumflex.sc" horiz-adv-x="432" 
d="M52 0v143h35q11 -116 137 -116q51 0 83 26t32 68q0 41 -23.5 67t-77.5 50l-49 22q-117 52 -117 129q0 52 36.5 83t90.5 31q74 0 107 -49l3 41h32v-121h-35q-8 95 -107 95q-41 0 -65 -20.5t-24 -58.5q0 -32 23.5 -53t71.5 -43l49 -22q63 -28 93.5 -63t30.5 -88
q0 -58 -43 -93.5t-110 -35.5q-45 0 -83 17.5t-55 46.5l-3 -56h-32zM98 578l113 182h9l113 -182h-35l-82 119l-83 -119h-35z" />
    <glyph glyph-name="Scommaaccent.sc" horiz-adv-x="432" 
d="M52 0v143h35q11 -116 137 -116q51 0 83 26t32 68q0 41 -23.5 67t-77.5 50l-49 22q-117 52 -117 129q0 52 36.5 83t90.5 31q74 0 107 -49l3 41h32v-121h-35q-8 95 -107 95q-41 0 -65 -20.5t-24 -58.5q0 -32 23.5 -53t71.5 -43l49 -22q63 -28 93.5 -63t30.5 -88
q0 -58 -43 -93.5t-110 -35.5q-45 0 -83 17.5t-55 46.5l-3 -56h-32zM170 -243l32 100q-11 2 -19 12.5t-8 23.5q0 16 12 28t27 12t27 -12t12 -28q0 -7 -5 -19l-53 -117h-25z" />
    <glyph glyph-name="Tcaron.sc" horiz-adv-x="502" 
d="M419 460h-143v-427h69v-33h-178v33h69v427h-143l-6 -81h-31v116h400v-116h-31zM252 575l-113 182h35l82 -119l83 119h35l-113 -182h-9z" />
    <glyph glyph-name="uni021A.sc" horiz-adv-x="502" 
d="M264 -228q-68 0 -94 58l30 18q21 -43 63 -43q22 0 37 14t15 38t-15.5 39.5t-46.5 15.5h-15v88h-71v33h69v427h-143l-6 -81h-31v116h400v-116h-31l-6 81h-143v-427h69v-33h-71v-59q33 -4 56.5 -27t23.5 -58q0 -39 -26.5 -61.5t-63.5 -22.5z" />
    <glyph glyph-name="Tcommaaccent.sc" horiz-adv-x="502" 
d="M419 460h-143v-427h69v-33h-178v33h69v427h-143l-6 -81h-31v116h400v-116h-31zM211 -243l32 100q-11 2 -19 12.5t-8 23.5q0 16 12 28t27 12t27 -12t12 -28q0 -7 -5 -19l-53 -117h-25z" />
    <glyph glyph-name="Thorn.sc" horiz-adv-x="497" 
d="M163 147h98q144 0 144 112q0 56 -34 84t-110 28h-98v-224zM56 495h178v-33h-71v-56h101q90 0 135.5 -38.5t45.5 -108.5t-45.5 -108.5t-135.5 -38.5h-101v-79h71v-33h-178v33h67v429h-67v33z" />
    <glyph glyph-name="Uacute.sc" horiz-adv-x="593" 
d="M537 462h-68v-295q0 -84 -47.5 -129.5t-124.5 -45.5t-124.5 45.5t-47.5 129.5v295h-69v33h178v-33h-69v-292q0 -72 35 -107.5t97 -35.5t97 35.5t35 107.5v292h-70v33h178v-33zM276 581l75 195h46l-88 -195h-33z" />
    <glyph glyph-name="Ubreve.sc" horiz-adv-x="593" 
d="M537 462h-68v-295q0 -84 -47.5 -129.5t-124.5 -45.5t-124.5 45.5t-47.5 129.5v295h-69v33h178v-33h-69v-292q0 -72 35 -107.5t97 -35.5t97 35.5t35 107.5v292h-70v33h178v-33zM296 568q-49 0 -78.5 28.5t-38.5 76.5l35 7q10 -36 28 -56.5t54 -20.5t54 20.5t28 56.5l35 -7
q-9 -48 -38.5 -76.5t-78.5 -28.5z" />
    <glyph glyph-name="Ucircumflex.sc" horiz-adv-x="593" 
d="M537 462h-68v-295q0 -84 -47.5 -129.5t-124.5 -45.5t-124.5 45.5t-47.5 129.5v295h-69v33h178v-33h-69v-292q0 -72 35 -107.5t97 -35.5t97 35.5t35 107.5v292h-70v33h178v-33zM179 578l113 182h9l113 -182h-35l-82 119l-83 -119h-35z" />
    <glyph glyph-name="Udieresis.sc" horiz-adv-x="593" 
d="M537 462h-68v-295q0 -84 -47.5 -129.5t-124.5 -45.5t-124.5 45.5t-47.5 129.5v295h-69v33h178v-33h-69v-292q0 -72 35 -107.5t97 -35.5t97 35.5t35 107.5v292h-70v33h178v-33zM372 605q-13 0 -22.5 9.5t-9.5 22.5t9.5 22.5t22.5 9.5t22.5 -9.5t9.5 -22.5t-9.5 -22.5
t-22.5 -9.5zM220 605q-13 0 -22.5 9.5t-9.5 22.5t9.5 22.5t22.5 9.5t22.5 -9.5t9.5 -22.5t-9.5 -22.5t-22.5 -9.5z" />
    <glyph glyph-name="Ugrave.sc" horiz-adv-x="593" 
d="M537 462h-68v-295q0 -84 -47.5 -129.5t-124.5 -45.5t-124.5 45.5t-47.5 129.5v295h-69v33h178v-33h-69v-292q0 -72 35 -107.5t97 -35.5t97 35.5t35 107.5v292h-70v33h178v-33zM281 581l-88 195h46l75 -195h-33z" />
    <glyph glyph-name="Uhungarumlaut.sc" horiz-adv-x="593" 
d="M537 462h-68v-295q0 -84 -47.5 -129.5t-124.5 -45.5t-124.5 45.5t-47.5 129.5v295h-69v33h178v-33h-69v-292q0 -72 35 -107.5t97 -35.5t97 35.5t35 107.5v292h-70v33h178v-33zM332 581l75 195h46l-88 -195h-33zM215 581l75 195h46l-88 -195h-33z" />
    <glyph glyph-name="Umacron.sc" horiz-adv-x="593" 
d="M537 462h-68v-295q0 -84 -47.5 -129.5t-124.5 -45.5t-124.5 45.5t-47.5 129.5v295h-69v33h178v-33h-69v-292q0 -72 35 -107.5t97 -35.5t97 35.5t35 107.5v292h-70v33h178v-33zM199 594v34h194v-34h-194z" />
    <glyph glyph-name="Uogonek.sc" horiz-adv-x="593" 
d="M320 -219q-36 0 -60.5 21.5t-24.5 61.5q0 52 67 128h-5q-77 0 -124.5 45.5t-47.5 129.5v295h-69v33h178v-33h-69v-292q0 -72 35 -107.5t97 -35.5t97 35.5t35 107.5v292h-70v33h178v-33h-68v-295q0 -69 -32.5 -112.5t-89.5 -56.5q-40 -49 -56.5 -79t-16.5 -56
q0 -23 13.5 -35.5t33.5 -12.5q35 0 57 38l30 -18q-25 -54 -88 -54z" />
    <glyph glyph-name="Uring.sc" horiz-adv-x="593" 
d="M537 462h-68v-295q0 -84 -47.5 -129.5t-124.5 -45.5t-124.5 45.5t-47.5 129.5v295h-69v33h178v-33h-69v-292q0 -72 35 -107.5t97 -35.5t97 35.5t35 107.5v292h-70v33h178v-33zM296 572q-39 0 -66.5 27t-27.5 65t27.5 65t66.5 27t66.5 -27t27.5 -65t-27.5 -65t-66.5 -27z
M296 603q26 0 42 16.5t16 44.5t-16 44.5t-42 16.5t-42 -16.5t-16 -44.5t16 -44.5t42 -16.5z" />
    <glyph glyph-name="Yacute.sc" horiz-adv-x="534" 
d="M500 495v-33h-60l-152 -276v-153h68v-33h-178v33h70v151l-153 278h-61v33h178v-33h-75l103 -186q6 -11 12.5 -26t11 -26t4.5 -12l4 11q5 11 12 26.5t13 26.5l101 186h-76v33h178zM248 581l75 195h46l-88 -195h-33z" />
    <glyph glyph-name="Ydieresis.sc" horiz-adv-x="534" 
d="M500 495v-33h-60l-152 -276v-153h68v-33h-178v33h70v151l-153 278h-61v33h178v-33h-75l103 -186q6 -11 12.5 -26t11 -26t4.5 -12l4 11q5 11 12 26.5t13 26.5l101 186h-76v33h178zM344 605q-13 0 -22.5 9.5t-9.5 22.5t9.5 22.5t22.5 9.5t22.5 -9.5t9.5 -22.5t-9.5 -22.5
t-22.5 -9.5zM192 605q-13 0 -22.5 9.5t-9.5 22.5t9.5 22.5t22.5 9.5t22.5 -9.5t9.5 -22.5t-9.5 -22.5t-22.5 -9.5z" />
    <glyph glyph-name="Zacute.sc" horiz-adv-x="469" 
d="M86 370v125h321v-27l-305 -434h268l6 91h30v-125h-352v27l305 434h-237l-6 -91h-30zM228 581l75 195h46l-88 -195h-33z" />
    <glyph glyph-name="Zcaron.sc" horiz-adv-x="469" 
d="M86 370v125h321v-27l-305 -434h268l6 91h30v-125h-352v27l305 434h-237l-6 -91h-30zM244 575l-113 182h35l82 -119l83 119h35l-113 -182h-9z" />
    <glyph glyph-name="Zdotaccent.sc" horiz-adv-x="469" 
d="M86 370v125h321v-27l-305 -434h268l6 91h30v-125h-352v27l305 434h-237l-6 -91h-30zM248 604q-13 0 -23 9.5t-10 23.5t10 23.5t23 9.5t23 -9.5t10 -23.5t-10 -23.5t-23 -9.5z" />
    <glyph glyph-name="germandbls.sc" horiz-adv-x="864" 
d="M52 0v143h35q11 -116 137 -116q51 0 83 26t32 68q0 41 -23.5 67t-77.5 50l-49 22q-117 52 -117 129q0 52 36.5 83t90.5 31q74 0 107 -49l3 41h32v-121h-35q-8 95 -107 95q-41 0 -65 -20.5t-24 -58.5q0 -32 23.5 -53t71.5 -43l49 -22q63 -28 93.5 -63t30.5 -88
q0 -58 -43 -93.5t-110 -35.5q-45 0 -83 17.5t-55 46.5l-3 -56h-32zM484 0v143h35q11 -116 137 -116q51 0 83 26t32 68q0 41 -23.5 67t-77.5 50l-49 22q-117 52 -117 129q0 52 36.5 83t90.5 31q74 0 107 -49l3 41h32v-121h-35q-8 95 -107 95q-41 0 -65 -20.5t-24 -58.5
q0 -32 23.5 -53t71.5 -43l49 -22q63 -28 93.5 -63t30.5 -88q0 -58 -43 -93.5t-110 -35.5q-45 0 -83 17.5t-55 46.5l-3 -56h-32z" />
    <glyph glyph-name="space.sc" horiz-adv-x="244" 
 />
    <glyph glyph-name="dollar.sc" horiz-adv-x="459" 
d="M209 -120v113q-88 10 -123 67l-3 -60h-32v140h35q7 -51 40 -78.5t83 -33.5v219l-13 5q-64 23 -93.5 51.5t-29.5 80.5q0 51 40 82.5t96 35.5v108h34v-108q69 -9 97 -54l3 47h32v-125h-35q-18 89 -97 98v-194l19 -6q136 -46 136 -146q0 -58 -46 -93t-109 -37v-112h-34z
M359 122q0 43 -26 67t-90 46v-208q51 2 83.5 26.5t32.5 68.5zM111 385q0 -42 22 -61t76 -38v182q-44 -3 -71 -25.5t-27 -57.5z" />
    <glyph glyph-name="cent.sc" horiz-adv-x="394" 
d="M339 222h-31q-16 66 -83 74v-271q59 4 94 44l26 -22q-43 -50 -120 -55v-98h-34v99q-61 8 -101.5 55.5t-40.5 112.5t40.5 112t101.5 55v98h34v-97q30 -2 53 -16t30 -29l3 36h28v-98zM89 161q0 -53 28 -90t74 -44v267q-46 -7 -74 -44t-28 -89z" />
    <glyph glyph-name="Euro.sc" horiz-adv-x="555" 
d="M474 113l32 -18q-60 -103 -182 -103q-76 0 -131.5 47.5t-73.5 132.5h-74v32h69q-4 38 0 78h-69v32h73q17 86 71.5 137.5t131.5 51.5q91 0 132 -69l4 61h32v-143h-35q-26 115 -133 115q-63 0 -105 -41.5t-57 -111.5h212v-32h-216q-5 -38 0 -78h216v-32h-211
q15 -70 58.5 -107t105.5 -37q98 0 150 85z" />
    <glyph glyph-name="sterling.sc" horiz-adv-x="478" 
d="M391 363q-6 54 -41 79.5t-81 25.5q-54 0 -83.5 -29t-29.5 -79q0 -41 28 -113h147v-33h-134q25 -69 25 -116q0 -9 -1 -15q23 -19 35 -27.5t34.5 -18t44.5 -9.5q51 0 79 39l28 -22q-41 -53 -107 -53q-24 0 -48 10t-38.5 19.5t-37.5 28.5q-13 -26 -37.5 -42t-53.5 -16
q-33 0 -55.5 19.5t-22.5 51.5q0 31 22 49.5t55 18.5t67 -22q-2 39 -28 105h-75v33h61q-27 67 -27 113q0 63 41.5 103t110.5 40q40 0 72 -16t48 -44l3 52h32v-132h-33zM183 73q-35 28 -63 28q-20 0 -32.5 -10.5t-12.5 -26.5q0 -18 13 -30t33 -12q50 0 62 51z" />
    <glyph glyph-name="yen.sc" horiz-adv-x="504" 
d="M426 94h-154v-61h69v-33h-178v33h70v61h-154v32h154v25l-25 49h-129v32h113l-117 230h-56v33h178v-33h-79l118 -237q11 -24 16 -43q11 33 16 43l119 237h-80v33h178v-33h-57l-116 -230h114v-32h-130l-24 -49v-25h154v-32z" />
    <glyph glyph-name="florin.sc" horiz-adv-x="366" 
d="M93 -94l37 328h-73v34h77l13 117q14 118 102 118q59 0 89 -49l-28 -21q-23 35 -60 35q-27 0 -43 -18t-22 -66l-13 -116h87v-34h-91l-37 -328h-38z" />
    <glyph glyph-name="zero.sc" horiz-adv-x="550" 
d="M275 -8q-95 0 -152 71.5t-57 184.5q0 112 57 183.5t152 71.5t152 -71t57 -184t-57 -184.5t-152 -71.5zM275 28q76 0 122 59.5t46 160.5q0 100 -46 159.5t-122 59.5t-122 -59.5t-46 -159.5q0 -101 46 -160.5t122 -59.5z" />
    <glyph glyph-name="one.sc" horiz-adv-x="307" 
d="M151 33v427h-95v35h135v-462h70v-33h-187v33h77z" />
    <glyph glyph-name="two.sc" horiz-adv-x="426" 
d="M36 0v26l210 194q72 70 72 145q0 46 -26 74.5t-75 28.5q-46 0 -77 -27.5t-43 -76.5l-36 7q10 58 52 95t104 37q65 0 103 -38.5t38 -99.5q0 -84 -83 -167l-130 -120q-11 -11 -32 -27.5t-26 -19.5q1 0 12.5 0.5t29 1t30.5 0.5h171l4 74h31v-107h-329z" />
    <glyph glyph-name="three.sc" horiz-adv-x="444" 
d="M67 397v98h297v-23l-129 -143q-22 -24 -33 -31q78 3 129 -35t51 -109q0 -73 -47 -117.5t-126 -44.5q-61 0 -106 27t-68 70l32 18q47 -80 141 -80q64 0 99.5 35t35.5 92q0 56 -38 85t-105 29q-32 0 -58 -10l-7 9l143 159l40 39q-35 -3 -57 -3h-160l-4 -65h-30z" />
    <glyph glyph-name="four.sc" horiz-adv-x="473" 
d="M263 33h57v84h-279v23l295 355h24v-345h60v-33h-60v-84h55v-33h-152v33zM86 146q32 4 53 4h181v203q0 10 0.5 21.5t1 21.5t0.5 18.5v13.5l1 5q-8 -17 -50 -67l-154 -183z" />
    <glyph glyph-name="five.sc" horiz-adv-x="444" 
d="M327 394l-4 67h-200v-179q40 30 97 30q76 0 122 -44t46 -114q0 -73 -47 -117.5t-129 -44.5q-56 0 -100 27t-66 68l32 19q50 -79 134 -79q67 0 102 33.5t35 93.5q0 58 -35 91t-97 33q-79 0 -120 -49l-10 3v263h270v-101h-30z" />
    <glyph glyph-name="six.sc" horiz-adv-x="465" 
d="M233 -8q-76 0 -124.5 47.5t-48.5 121.5q0 61 40 115l159 219h44l-96 -131l-55 -65q45 31 92 31q68 0 114.5 -48.5t46.5 -119.5q0 -72 -48.5 -121t-123.5 -49zM233 27q60 0 96.5 38t36.5 97q0 58 -36 96.5t-97 38.5q-60 0 -97 -39t-37 -96q0 -59 36.5 -97t97.5 -38z" />
    <glyph glyph-name="seven.sc" horiz-adv-x="429" 
d="M54 389v106h339v-24l-250 -471h-42l247 461h-258l-5 -72h-31z" />
    <glyph glyph-name="eight.sc" horiz-adv-x="460" 
d="M230 -8q-76 0 -124 40t-48 102q0 51 31 85.5t78 44.5q-37 11 -58.5 41.5t-21.5 71.5q0 53 41 89.5t102 36.5t102 -36t41 -90q0 -41 -22 -71.5t-59 -41.5q49 -10 79.5 -44t30.5 -86q0 -62 -48 -102t-124 -40zM230 27q61 0 96.5 29t35.5 79q0 52 -35 81t-97 29
q-61 0 -96.5 -29t-35.5 -81q0 -50 35.5 -79t96.5 -29zM230 279q48 0 76 25.5t28 71.5q0 42 -28.5 68t-75.5 26t-75.5 -26t-28.5 -68q0 -46 28 -71.5t76 -25.5z" />
    <glyph glyph-name="nine.sc" horiz-adv-x="466" 
d="M169 0l107 151q6 9 16 20t17 18l7 7q-41 -32 -94 -32q-69 0 -115.5 49t-46.5 121t49 120.5t125 48.5t124 -47.5t48 -120.5q0 -61 -40 -119l-153 -216h-44zM234 197q60 0 96.5 39.5t36.5 97.5q0 57 -36 96t-97 39t-98 -39t-37 -96q0 -59 36.5 -98t98.5 -39z" />
    <glyph glyph-name="percent.sc" horiz-adv-x="755" 
d="M189 219q-58 0 -100.5 40.5t-42.5 101.5q0 60 42.5 101t100.5 41q57 0 99.5 -41t42.5 -101q0 -61 -42.5 -101.5t-99.5 -40.5zM204 0l308 495h40l-308 -495h-40zM567 -8q-58 0 -100 40.5t-42 101.5q0 60 42.5 101t99.5 41t99.5 -41t42.5 -101q0 -61 -42 -101.5t-100 -40.5
zM189 252q44 0 74.5 30.5t30.5 78.5t-30.5 78t-74.5 30q-45 0 -75.5 -30t-30.5 -78t31 -78.5t75 -30.5zM567 25q44 0 74.5 30.5t30.5 78.5q0 47 -30.5 77.5t-74.5 30.5t-74.5 -30.5t-30.5 -77.5q0 -48 30.5 -78.5t74.5 -30.5z" />
    </font>
</defs>
</svg>
